<!-- Generator: Adobe InDesign 21.0 SVG Export Plug-in, SVG Library version: 9.3 build 128 -->
<!DOCTYPE svg PUBLIC "-//W3C//DTD SVG 1.1//EN" "http://www.w3.org/Graphics/SVG/1.1/DTD/svg11.dtd">
<svg version="1.1" xmlns="http://www.w3.org/2000/svg" xmlns:xlink="http://www.w3.org/1999/xlink" x="0%" y="0%" width="100%"
	 height="100%" viewBox="0 0 974.936 1366.26" preserveAspectRatio="xMidYMid slice" overflow="visible" xml:space="preserve">
<clipPath id="clp_unq_id_1" fill="none">
	<path shape-rendering="crispEdges" stroke="#000000" d="M0,0h974.936v1366.26H0V0"/>
</clipPath>
<g clip-path="url(#clp_unq_id_1)" fill="none">
	<path fill="#7AC3A5" d="M18.282,53.969v-8.962h-1.3L9.86,54.649v1.22h6.261v2.501h2.16v-2.501h1.5v-1.9z M16.181,53.969h-2.22
		c-0.46,0-0.9,0-1.36,0.02c0.26-0.32,0.5-0.64,0.76-0.98l2.04-2.801c0.28-0.36,0.54-0.74,0.84-1.22c-0.06,0.6-0.06,1.06-0.06,1.66z
		 M24.881,50.028c-0.34,0-0.66,0.02-1.02,0.06l0.38-2.921h4.741v-2.02H22.36l-0.78,6.761l0.36,0.24c0.6-0.22,1.32-0.36,2.16-0.36
		c1.64,0,2.981,0.66,2.981,2.361c0,1.44-1.02,2.361-2.561,2.361c-1.18,0-2.12-0.48-2.741-1.2l-1.18,1.62c1,1.08,2.361,1.7,4.021,1.7
		c2.841,0,4.821-1.8,4.821-4.421C29.442,51.568,27.561,50.028,24.881,50.028z"/>
	<path fill="#000000" d="M698.74,69.954c-2.58,0-4.47-0.87-6-2.37l1.14-1.29c1.29,1.26,2.79,1.95,4.77,1.95c2.7,0,4.8-1.41,4.8-4.35
		c0-1.02,0-2.01,0.03-3c-1.23,1.59-3.15,2.4-5.1,2.4c-4.08,0-6.66-3.09-6.66-6.87c0-3.81,2.52-6.9,6.57-6.9
		c2.16,0,4.05,0.84,5.22,2.46l0.42-2.19h1.35v14.13C705.28,68.005,702.25,69.954,698.74,69.954 M698.5,51.235
		c-3.12,0-4.92,2.28-4.92,5.16c0,2.94,1.89,5.19,4.89,5.19c3.33,0,5.04-2.37,5.04-5.16C703.51,53.635,701.86,51.235,698.5,51.235
		 M159.169,69.954c-2.58,0-4.47-0.87-6-2.37l1.14-1.29c1.29,1.26,2.79,1.95,4.77,1.95c2.7,0,4.8-1.41,4.8-4.35c0-1.02,0-2.01,0.03-3
		c-1.23,1.59-3.15,2.4-5.1,2.4c-4.08,0-6.66-3.09-6.66-6.87c0-3.81,2.52-6.9,6.57-6.9c2.16,0,4.05,0.84,5.22,2.46l0.42-2.19h1.35
		v14.13C165.709,68.005,162.679,69.954,159.169,69.954 M158.929,51.235c-3.12,0-4.92,2.28-4.92,5.16c0,2.94,1.89,5.19,4.89,5.19
		c3.33,0,5.04-2.37,5.04-5.16C163.939,53.635,162.289,51.235,158.929,51.235 M784.299,63.385c-4.02,0-6.84-2.88-6.84-6.99
		c0-3.84,2.76-6.93,6.69-6.93c3.69,0,5.88,2.55,5.88,6.42c0,0.42-0.03,0.84-0.09,1.29h-10.62c0.3,2.82,2.46,4.5,4.95,4.5
		c1.86,0,3.03-0.57,4.05-1.62l1.05,1.32C788.019,62.665,786.399,63.385,784.299,63.385 M784.119,51.175c-2.46,0-4.38,1.74-4.74,4.38
		h8.85C788.169,52.735,786.549,51.175,784.119,51.175 M745.54,63.385c-3.3,0-6.6-2.43-6.6-6.99c0-4.38,3.18-6.9,6.78-6.9
		c1.92,0,3.39,0.6,4.74,1.8l-1.05,1.26c-1.08-0.93-2.13-1.35-3.69-1.35c-2.76,0-4.92,2.07-4.92,5.19c0,3.18,2.13,5.28,4.89,5.28
		c1.8,0,2.88-0.57,3.96-1.59l1.02,1.32C749.289,62.695,747.849,63.385,745.54,63.385 M662.201,63.385c-4.02,0-6.84-2.88-6.84-6.99
		c0-3.84,2.76-6.93,6.69-6.93c3.69,0,5.88,2.55,5.88,6.42c0,0.42-0.03,0.84-0.09,1.29h-10.62c0.3,2.82,2.46,4.5,4.95,4.5
		c1.86,0,3.03-0.57,4.05-1.62l1.05,1.32C665.921,62.665,664.301,63.385,662.201,63.385 M662.021,51.175c-2.46,0-4.38,1.74-4.74,4.38
		h8.85C666.071,52.735,664.451,51.175,662.021,51.175 M540.044,63.385c-3.99,0-6.84-2.88-6.84-6.96s2.85-6.96,6.84-6.96
		c4.05,0,6.899,2.88,6.899,6.96S544.093,63.385,540.044,63.385 M540.044,51.175c-2.94,0-4.98,2.19-4.98,5.25
		c0,3.09,2.04,5.25,4.98,5.25c2.97,0,5.04-2.16,5.04-5.25C545.084,53.365,543.043,51.175,540.044,51.175 M526.184,63.385
		c-3.3,0-6.6-2.43-6.6-6.99c0-4.38,3.18-6.9,6.78-6.9c1.92,0,3.39,0.6,4.74,1.8l-1.05,1.26c-1.08-0.93-2.13-1.35-3.69-1.35
		c-2.76,0-4.92,2.07-4.92,5.19c0,3.18,2.13,5.28,4.89,5.28c1.8,0,2.88-0.57,3.96-1.59l1.02,1.32
		C529.934,62.695,528.494,63.385,526.184,63.385 M446.655,63.385c-4.02,0-6.84-2.88-6.84-6.99c0-3.84,2.76-6.93,6.69-6.93
		c3.69,0,5.879,2.55,5.879,6.42c0,0.42-0.03,0.84-0.09,1.29h-10.619c0.3,2.82,2.46,4.5,4.95,4.5c1.86,0,3.03-0.57,4.05-1.62
		l1.05,1.32C450.375,62.665,448.755,63.385,446.655,63.385 M446.475,51.175c-2.46,0-4.38,1.74-4.74,4.38h8.85
		C450.525,52.735,448.905,51.175,446.475,51.175 M292.338,63.385c-4.02,0-6.84-2.88-6.84-6.99c0-3.84,2.76-6.93,6.69-6.93
		c3.69,0,5.879,2.55,5.879,6.42c0,0.42-0.03,0.84-0.09,1.29h-10.619c0.3,2.82,2.46,4.5,4.95,4.5c1.86,0,3.03-0.57,4.05-1.62
		l1.05,1.32C296.057,62.665,294.438,63.385,292.338,63.385 M292.158,51.175c-2.46,0-4.38,1.74-4.74,4.38h8.85
		C296.207,52.735,294.587,51.175,292.158,51.175 M257.358,63.385c-4.02,0-6.84-2.88-6.84-6.99c0-3.84,2.76-6.93,6.689-6.93
		c3.69,0,5.88,2.55,5.88,6.42c0,0.42-0.03,0.84-0.09,1.29h-10.62c0.3,2.82,2.46,4.5,4.95,4.5c1.86,0,3.03-0.57,4.05-1.62l1.05,1.32
		C261.078,62.665,259.458,63.385,257.358,63.385 M257.178,51.175c-2.46,0-4.38,1.74-4.74,4.38h8.85
		C261.227,52.735,259.607,51.175,257.178,51.175 M191.839,63.385c-4.02,0-6.84-2.88-6.84-6.99c0-3.84,2.76-6.93,6.69-6.93
		c3.69,0,5.88,2.55,5.88,6.42c0,0.42-0.03,0.84-0.09,1.29h-10.62c0.3,2.82,2.46,4.5,4.95,4.5c1.86,0,3.03-0.57,4.05-1.62l1.05,1.32
		C195.559,62.665,193.939,63.385,191.839,63.385 M191.659,51.175c-2.46,0-4.38,1.74-4.74,4.38h8.85
		C195.709,52.735,194.089,51.175,191.659,51.175 M644.741,63.355c-3.93,0-6.66-2.94-6.66-6.99c0-3.93,2.76-6.84,6.66-6.84
		c2.16,0,4.05,0.96,5.13,2.52c-0.03-1.14-0.06-2.34-0.06-3.6v-6.9h1.83v21.509h-1.41l-0.27-2.37
		C648.881,62.335,647.051,63.355,644.741,63.355 M644.861,51.235c-2.94,0-4.95,2.16-4.95,5.19c0,3.03,2.01,5.19,4.95,5.19
		c3.06,0,5.01-2.19,5.01-5.19S647.861,51.235,644.861,51.235 M475.875,63.355c-3.93,0-6.66-2.94-6.66-6.99
		c0-3.93,2.76-6.84,6.66-6.84c2.16,0,4.05,0.96,5.13,2.52c-0.03-1.14-0.06-2.34-0.06-3.6v-6.9h1.83v21.509h-1.41l-0.27-2.37
		C480.015,62.335,478.184,63.355,475.875,63.355 M475.995,51.235c-2.94,0-4.95,2.16-4.95,5.19c0,3.03,2.01,5.19,4.95,5.19
		c3.06,0,5.01-2.19,5.01-5.19S478.994,51.235,475.995,51.235 M394.246,63.355c-2.25,0-4.11-0.99-5.22-2.61l-0.27,2.31h-1.41V41.546
		h1.83v6.9c0,1.26-0.03,2.49-0.06,3.66c1.08-1.62,2.97-2.58,5.13-2.58c3.9,0,6.66,2.91,6.66,6.84
		C400.906,60.415,398.176,63.355,394.246,63.355 M394.126,51.235c-3,0-5.04,2.19-5.04,5.19s1.98,5.19,5.04,5.19
		c2.94,0,4.95-2.16,4.95-5.19C399.076,53.395,397.066,51.235,394.126,51.235 M317.057,63.355c-3.93,0-6.66-2.94-6.66-6.99
		c0-3.93,2.76-6.84,6.66-6.84c2.16,0,4.05,0.96,5.13,2.52c-0.03-1.14-0.06-2.34-0.06-3.6v-6.9h1.83v21.509h-1.41l-0.27-2.37
		C321.197,62.335,319.367,63.355,317.057,63.355 M317.177,51.235c-2.94,0-4.949,2.16-4.949,5.19c0,3.03,2.01,5.19,4.949,5.19
		c3.06,0,5.01-2.19,5.01-5.19S320.177,51.235,317.177,51.235 M239.898,63.355c-3.93,0-6.66-2.94-6.66-6.99
		c0-3.93,2.76-6.84,6.66-6.84c2.16,0,4.05,0.96,5.13,2.52c-0.03-1.14-0.06-2.34-0.06-3.6v-6.9h1.83v21.509h-1.41l-0.27-2.37
		C244.038,62.335,242.208,63.355,239.898,63.355 M240.018,51.235c-2.94,0-4.95,2.16-4.95,5.19c0,3.03,2.01,5.19,4.95,5.19
		c3.06,0,5.01-2.19,5.01-5.19S243.018,51.235,240.018,51.235 M117.41,63.355c-2.25,0-4.11-0.99-5.22-2.61l-0.27,2.31h-1.41V41.546
		h1.83v6.9c0,1.26-0.03,2.49-0.06,3.66c1.08-1.62,2.97-2.58,5.13-2.58c3.9,0,6.66,2.91,6.66,6.84
		C124.069,60.415,121.34,63.355,117.41,63.355 M117.29,51.235c-3,0-5.04,2.19-5.04,5.19s1.98,5.19,5.04,5.19
		c2.94,0,4.95-2.16,4.95-5.19C122.239,53.395,120.23,51.235,117.29,51.235 M772.359,63.295c-2.16,0-3.51-1.26-3.51-3.99v-7.89
		l-2.58-0.12v-1.5h2.58v-4.41h1.83v4.41h4.74v1.62h-4.74v7.89c0,1.68,0.69,2.25,1.86,2.25c0.93,0,1.77-0.3,2.61-0.9l0.81,1.38
		C774.969,62.785,773.739,63.295,772.359,63.295 M756.999,63.295c-2.58,0-4.23-1.41-4.23-3.69c0-2.97,2.73-4.68,6.63-4.68
		c0.99,0,1.74,0.03,2.43,0.12v-0.9c0-1.86-1.32-2.79-3.36-2.79c-1.44,0-2.91,0.42-4.38,1.11l-0.63-1.56
		c1.8-0.84,3.51-1.26,5.19-1.26c3.03,0,5.04,1.59,5.04,4.59v8.82h-1.35l-0.33-2.4C761.049,62.245,759.339,63.295,756.999,63.295
		 M759.669,56.455c-3.12,0-4.98,1.08-4.98,3.03c0,1.32,0.96,2.1,2.61,2.1c2.73,0,4.44-1.98,4.53-5.01
		C761.109,56.485,760.539,56.455,759.669,56.455 M728.71,63.295c-2.58,0-4.23-1.41-4.23-3.69c0-2.97,2.73-4.68,6.63-4.68
		c0.99,0,1.74,0.03,2.43,0.12v-0.9c0-1.86-1.32-2.79-3.36-2.79c-1.44,0-2.91,0.42-4.38,1.11l-0.63-1.56
		c1.8-0.84,3.51-1.26,5.19-1.26c3.03,0,5.04,1.59,5.04,4.59v8.82h-1.35l-0.33-2.4C732.76,62.245,731.05,63.295,728.71,63.295
		 M731.38,56.455c-3.12,0-4.98,1.08-4.98,3.03c0,1.32,0.96,2.1,2.61,2.1c2.73,0,4.44-1.98,4.53-5.01
		C732.82,56.485,732.25,56.455,731.38,56.455 M714.61,63.295c-3.3,0-4.83-2.19-4.83-5.43v-8.07h1.83v8.1c0,2.16,0.84,3.69,3.21,3.69
		c2.64,0,4.2-2.37,4.2-5.19v-6.6h1.83v13.26h-1.41l-0.36-2.31C718.3,62.155,716.8,63.295,714.61,63.295 M681.491,63.295
		c-2.58,0-4.23-1.41-4.23-3.69c0-2.97,2.73-4.68,6.63-4.68c0.99,0,1.74,0.03,2.43,0.12v-0.9c0-1.86-1.32-2.79-3.36-2.79
		c-1.44,0-2.91,0.42-4.38,1.11l-0.63-1.56c1.8-0.84,3.51-1.26,5.19-1.26c3.03,0,5.04,1.59,5.04,4.59v8.82h-1.35l-0.33-2.4
		C685.541,62.245,683.831,63.295,681.491,63.295 M684.16,56.455c-3.12,0-4.98,1.08-4.98,3.03c0,1.32,0.96,2.1,2.61,2.1
		c2.73,0,4.44-1.98,4.529-5.01C685.6,56.485,685.031,56.455,684.16,56.455 M621.012,63.295c-2.58,0-4.23-1.41-4.23-3.69
		c0-2.97,2.73-4.68,6.63-4.68c0.99,0,1.74,0.03,2.43,0.12v-0.9c0-1.86-1.32-2.79-3.36-2.79c-1.44,0-2.91,0.42-4.38,1.11l-0.63-1.56
		c1.8-0.84,3.51-1.26,5.19-1.26c3.03,0,5.04,1.59,5.04,4.59v8.82h-1.35l-0.33-2.4C625.062,62.245,623.352,63.295,621.012,63.295
		 M623.682,56.455c-3.12,0-4.98,1.08-4.98,3.03c0,1.32,0.96,2.1,2.61,2.1c2.73,0,4.44-1.98,4.53-5.01
		C625.122,56.485,624.552,56.455,623.682,56.455 M609.732,63.295c-1.86,0-3.42-0.51-4.83-1.47l0.93-1.44c1.17,0.84,2.43,1.2,3.9,1.2
		c1.62,0,2.67-0.81,2.67-2.01c0-1.29-1.47-1.95-3.06-2.58c-2.16-0.84-3.96-1.86-3.96-3.99c0-2.22,2.04-3.36,4.29-3.36
		c1.44,0,2.82,0.42,4.02,1.2l-0.81,1.32c-0.96-0.54-2.04-0.84-3.12-0.84c-1.35,0-2.55,0.45-2.55,1.68c0,1.2,1.23,1.8,2.79,2.4
		c2.4,0.9,4.23,1.95,4.23,4.17C614.232,61.795,612.342,63.295,609.732,63.295 M588.223,63.295c-2.58,0-4.229-1.41-4.229-3.69
		c0-2.97,2.73-4.68,6.63-4.68c0.99,0,1.74,0.03,2.43,0.12v-0.9c0-1.86-1.32-2.79-3.36-2.79c-1.44,0-2.91,0.42-4.38,1.11l-0.63-1.56
		c1.8-0.84,3.51-1.26,5.19-1.26c3.03,0,5.04,1.59,5.04,4.59v8.82h-1.35l-0.33-2.4C592.273,62.245,590.563,63.295,588.223,63.295
		 M590.893,56.455c-3.12,0-4.98,1.08-4.98,3.03c0,1.32,0.96,2.1,2.61,2.1c2.73,0,4.44-1.98,4.53-5.01
		C592.333,56.485,591.763,56.455,590.893,56.455 M576.943,63.295c-1.86,0-3.42-0.51-4.83-1.47l0.93-1.44c1.17,0.84,2.43,1.2,3.9,1.2
		c1.62,0,2.67-0.81,2.67-2.01c0-1.29-1.47-1.95-3.06-2.58c-2.16-0.84-3.96-1.86-3.96-3.99c0-2.22,2.04-3.36,4.29-3.36
		c1.44,0,2.82,0.42,4.02,1.2l-0.81,1.32c-0.96-0.54-2.04-0.84-3.12-0.84c-1.35,0-2.55,0.45-2.55,1.68c0,1.2,1.23,1.8,2.79,2.4
		c2.4,0.9,4.23,1.95,4.23,4.17C581.443,61.795,579.553,63.295,576.943,63.295 M505.604,63.295c-1.86,0-3.42-0.51-4.83-1.47
		l0.93-1.44c1.17,0.84,2.43,1.2,3.9,1.2c1.62,0,2.67-0.81,2.67-2.01c0-1.29-1.47-1.95-3.06-2.58c-2.16-0.84-3.96-1.86-3.96-3.99
		c0-2.22,2.04-3.36,4.29-3.36c1.44,0,2.82,0.42,4.02,1.2l-0.81,1.32c-0.96-0.54-2.04-0.84-3.12-0.84c-1.35,0-2.55,0.45-2.55,1.68
		c0,1.2,1.23,1.8,2.79,2.4c2.4,0.9,4.23,1.95,4.23,4.17C510.104,61.795,508.214,63.295,505.604,63.295 M490.634,63.295
		c-2.58,0-4.23-1.41-4.23-3.69c0-2.97,2.73-4.68,6.63-4.68c0.99,0,1.74,0.03,2.43,0.12v-0.9c0-1.86-1.32-2.79-3.36-2.79
		c-1.44,0-2.91,0.42-4.38,1.11l-0.63-1.56c1.8-0.84,3.51-1.26,5.19-1.26c3.03,0,5.04,1.59,5.04,4.59v8.82h-1.35l-0.33-2.4
		C494.684,62.245,492.974,63.295,490.634,63.295 M493.304,56.455c-3.12,0-4.98,1.08-4.98,3.03c0,1.32,0.96,2.1,2.61,2.1
		c2.73,0,4.44-1.98,4.53-5.01C494.744,56.485,494.174,56.455,493.304,56.455 M458.985,63.295c-2.58,0-4.23-1.41-4.23-3.69
		c0-2.97,2.73-4.68,6.63-4.68c0.99,0,1.74,0.03,2.43,0.12v-0.9c0-1.86-1.32-2.79-3.36-2.79c-1.44,0-2.91,0.42-4.38,1.11l-0.63-1.56
		c1.8-0.84,3.51-1.26,5.19-1.26c3.03,0,5.04,1.59,5.04,4.59v8.82h-1.35l-0.33-2.4C463.035,62.245,461.325,63.295,458.985,63.295
		 M461.655,56.455c-3.12,0-4.98,1.08-4.98,3.03c0,1.32,0.96,2.1,2.61,2.1c2.73,0,4.44-1.98,4.53-5.01
		C463.095,56.485,462.525,56.455,461.655,56.455 M432.825,63.295c-1.86,0-3.42-0.51-4.83-1.47l0.93-1.44c1.17,0.84,2.43,1.2,3.9,1.2
		c1.62,0,2.67-0.81,2.67-2.01c0-1.29-1.47-1.95-3.06-2.58c-2.16-0.84-3.96-1.86-3.96-3.99c0-2.22,2.04-3.36,4.29-3.36
		c1.44,0,2.82,0.42,4.02,1.2l-0.81,1.32c-0.96-0.54-2.04-0.84-3.12-0.84c-1.35,0-2.55,0.45-2.55,1.68c0,1.2,1.23,1.8,2.79,2.4
		c2.4,0.9,4.23,1.95,4.23,4.17C437.325,61.795,435.435,63.295,432.825,63.295 M417.855,63.295c-2.58,0-4.23-1.41-4.23-3.69
		c0-2.97,2.73-4.68,6.63-4.68c0.99,0,1.74,0.03,2.43,0.12v-0.9c0-1.86-1.32-2.79-3.36-2.79c-1.44,0-2.91,0.42-4.38,1.11l-0.63-1.56
		c1.8-0.84,3.51-1.26,5.19-1.26c3.03,0,5.04,1.59,5.04,4.59v8.82h-1.35l-0.33-2.4C421.905,62.245,420.195,63.295,417.855,63.295
		 M420.525,56.455c-3.12,0-4.98,1.08-4.98,3.03c0,1.32,0.96,2.1,2.61,2.1c2.73,0,4.44-1.98,4.53-5.01
		C421.965,56.485,421.395,56.455,420.525,56.455 M372.406,63.295c-1.86,0-3.42-0.51-4.83-1.47l0.93-1.44c1.17,0.84,2.43,1.2,3.9,1.2
		c1.62,0,2.67-0.81,2.67-2.01c0-1.29-1.47-1.95-3.06-2.58c-2.16-0.84-3.96-1.86-3.96-3.99c0-2.22,2.04-3.36,4.29-3.36
		c1.44,0,2.82,0.42,4.02,1.2l-0.81,1.32c-0.96-0.54-2.04-0.84-3.12-0.84c-1.35,0-2.55,0.45-2.55,1.68c0,1.2,1.23,1.8,2.79,2.4
		c2.4,0.9,4.23,1.95,4.23,4.17C376.906,61.795,375.016,63.295,372.406,63.295 M357.437,63.295c-2.58,0-4.23-1.41-4.23-3.69
		c0-2.97,2.73-4.68,6.63-4.68c0.99,0,1.74,0.03,2.43,0.12v-0.9c0-1.86-1.32-2.79-3.36-2.79c-1.44,0-2.91,0.42-4.38,1.11l-0.63-1.56
		c1.8-0.84,3.51-1.26,5.19-1.26c3.03,0,5.04,1.59,5.04,4.59v8.82h-1.35l-0.33-2.4C361.487,62.245,359.776,63.295,357.437,63.295
		 M360.107,56.455c-3.12,0-4.98,1.08-4.98,3.03c0,1.32,0.96,2.1,2.61,2.1c2.73,0,4.44-1.98,4.53-5.01
		C361.546,56.485,360.977,56.455,360.107,56.455 M333.287,63.295c-3.3,0-4.83-2.19-4.83-5.43v-8.07h1.83v8.1
		c0,2.16,0.84,3.69,3.21,3.69c2.64,0,4.2-2.37,4.2-5.19v-6.6h1.83v13.26h-1.41l-0.36-2.31
		C336.977,62.155,335.477,63.295,333.287,63.295 M216.168,63.295c-2.58,0-4.23-1.41-4.23-3.69c0-2.97,2.73-4.68,6.63-4.68
		c0.99,0,1.74,0.03,2.43,0.12v-0.9c0-1.86-1.32-2.79-3.36-2.79c-1.44,0-2.91,0.42-4.38,1.11l-0.63-1.56
		c1.8-0.84,3.51-1.26,5.19-1.26c3.03,0,5.04,1.59,5.04,4.59v8.82h-1.35l-0.33-2.4C220.218,62.245,218.508,63.295,216.168,63.295
		 M218.838,56.455c-3.12,0-4.98,1.08-4.98,3.03c0,1.32,0.96,2.1,2.61,2.1c2.73,0,4.44-1.98,4.53-5.01
		C220.278,56.485,219.708,56.455,218.838,56.455 M204.889,63.295c-1.86,0-3.42-0.51-4.83-1.47l0.93-1.44c1.17,0.84,2.43,1.2,3.9,1.2
		c1.62,0,2.67-0.81,2.67-2.01c0-1.29-1.47-1.95-3.06-2.58c-2.16-0.84-3.96-1.86-3.96-3.99c0-2.22,2.04-3.36,4.29-3.36
		c1.44,0,2.82,0.42,4.02,1.2l-0.81,1.32c-0.96-0.54-2.04-0.84-3.12-0.84c-1.35,0-2.55,0.45-2.55,1.68c0,1.2,1.23,1.8,2.79,2.4
		c2.4,0.9,4.23,1.95,4.23,4.17C209.388,61.795,207.498,63.295,204.889,63.295 M175.039,63.295c-3.3,0-4.83-2.19-4.83-5.43v-8.07
		h1.83v8.1c0,2.16,0.84,3.69,3.21,3.69c2.64,0,4.2-2.37,4.2-5.19v-6.6h1.83v13.26h-1.41l-0.36-2.31
		C178.729,62.155,177.229,63.295,175.039,63.295 M132.439,63.295c-3.3,0-4.83-2.19-4.83-5.43v-8.07h1.83v8.1
		c0,2.16,0.84,3.69,3.21,3.69c2.64,0,4.2-2.37,4.2-5.19v-6.6h1.83v13.26h-1.41l-0.36-2.31
		C136.129,62.155,134.629,63.295,132.439,63.295 M75.321,63.295c-2.58,0-4.23-1.41-4.23-3.69c0-2.97,2.73-4.68,6.63-4.68
		c0.99,0,1.74,0.03,2.43,0.12v-0.9c0-1.86-1.32-2.79-3.36-2.79c-1.44,0-2.91,0.42-4.38,1.11l-0.63-1.56
		c1.8-0.84,3.51-1.26,5.19-1.26c3.03,0,5.04,1.59,5.04,4.59v8.82h-1.35l-0.33-2.4C79.371,62.245,77.66,63.295,75.321,63.295
		 M77.99,56.455c-3.12,0-4.98,1.08-4.98,3.03c0,1.32,0.96,2.1,2.61,2.1c2.73,0,4.44-1.98,4.53-5.01
		C79.43,56.485,78.861,56.455,77.99,56.455 M278.028,63.205h-0.66l-6.21-13.349v-0.06h1.98l3.84,8.49c0.27,0.6,0.51,1.2,0.72,1.89
		c0.21-0.69,0.45-1.29,0.72-1.89l3.81-8.49h1.98v0.06L278.028,63.205 M601.272,63.055h-1.83l-0.03-21.509h1.83L601.272,63.055
		 M561.823,63.055h-1.83v-8.13c0-2.25-0.84-3.69-3.06-3.69c-2.67,0-4.44,1.92-4.44,4.68v7.14h-1.83v-13.26h1.38l0.42,2.25
		c0.78-1.41,2.4-2.52,4.65-2.52c3.09,0,4.71,1.98,4.71,5.43V63.055 M406.456,63.055h-1.83v-13.26h1.38l0.36,1.95
		c0.75-1.38,2.01-2.22,3.87-2.22c0.84,0,1.56,0.18,2.16,0.45l-0.54,1.62c-0.51-0.18-1.02-0.33-1.77-0.33
		c-2.16,0-3.63,1.53-3.63,4.11V63.055 M346.037,63.055h-1.83v-13.26h1.38l0.36,1.95c0.75-1.38,2.01-2.22,3.87-2.22
		c0.84,0,1.56,0.18,2.16,0.45l-0.54,1.62c-0.51-0.18-1.02-0.33-1.77-0.33c-2.16,0-3.63,1.53-3.63,4.11V63.055 M303.437,63.055h-1.83
		v-13.26h1.38l0.36,1.95c0.75-1.38,2.01-2.22,3.87-2.22c0.84,0,1.56,0.18,2.16,0.45l-0.54,1.62c-0.51-0.18-1.02-0.33-1.77-0.33
		c-2.16,0-3.63,1.53-3.63,4.11V63.055 M145.19,63.055h-1.83v-13.26h1.38l0.36,1.95c0.75-1.38,2.01-2.22,3.87-2.22
		c0.84,0,1.56,0.18,2.16,0.45l-0.54,1.62c-0.51-0.18-1.02-0.33-1.77-0.33c-2.16,0-3.63,1.53-3.63,4.11V63.055 M106.009,63.055h-1.83
		v-8.4c0-2.13-1.08-3.42-2.94-3.42c-2.67,0-4.05,2.43-4.05,4.92v6.9h-1.83v-8.43c0-1.83-0.93-3.39-2.94-3.39
		c-2.7,0-4.08,2.43-4.08,4.92v6.9h-1.83v-13.26h1.38l0.42,2.28c0.87-1.62,2.4-2.55,4.32-2.55c2.01,0,3.48,0.99,4.11,2.67
		c0.87-1.62,2.4-2.67,4.62-2.67c3.03,0,4.65,2.01,4.65,5.22V63.055 M66.8,63.055h-1.95v-9.39H52.461v9.39h-1.98V42.656h1.98v9.209
		H64.85v-9.209h1.95V63.055"/>
	<path fill="#9D9D9C" d="M896.729,60.508c3.504,0,5.881-1.608,6.385-4.44c0.048-0.288,0.072-0.576,0.072-0.84
		c0-1.608-0.888-2.808-2.112-3.384c1.488-0.624,2.976-2.04,2.976-4.2c0-2.088-1.728-3.576-4.512-3.576
		c-3.12,0-5.424,1.656-5.881,4.224c-0.048,0.216-0.048,0.456-0.048,0.648c0,1.344,0.72,2.448,1.752,2.904
		c-1.824,0.552-3.216,2.112-3.552,3.96c-0.048,0.288-0.072,0.576-0.072,0.864C891.737,59.044,893.657,60.508,896.729,60.508z
		 M898.433,50.715c-1.368,0-2.184-0.672-2.184-1.752c0-1.584,1.2-2.592,2.88-2.592c1.368,0,2.184,0.672,2.184,1.704
		C901.313,49.611,900.089,50.715,898.433,50.715z M897.137,58.084c-1.512,0-2.544-0.648-2.544-1.968c0-0.168,0.024-0.312,0.048-0.48
		c0.264-1.536,1.584-2.64,3.312-2.64c1.608,0,2.472,0.816,2.472,2.064C900.425,56.98,898.937,58.084,897.137,58.084z M907.072,57.22
		c-0.816,0-1.584,0.504-1.776,1.464c-0.024,0.12-0.024,0.24-0.024,0.336c0,0.912,0.648,1.512,1.392,1.512h0.12
		c-0.36,1.008-1.032,1.776-2.04,2.544l0.576,0.696c1.68-1.128,2.808-2.64,3.216-4.296c0.072-0.24,0.096-0.48,0.096-0.696
		C908.633,57.748,907.937,57.22,907.072,57.22z M916.385,56.86l4.224-4.416c1.128-1.152,1.848-2.328,2.04-3.528
		c0.048-0.312,0.096-0.624,0.096-0.912c0-2.28-1.68-3.912-4.2-3.912c-2.136,0-3.816,0.984-5.328,2.76l1.776,1.68
		c0.984-1.104,2.04-1.896,3.264-1.896c1.104,0,1.704,0.696,1.704,1.608c0,0.864-0.504,1.848-1.464,2.856l-7.609,8.065l-0.192,1.08
		h10.201l0.408-2.424l-4.512,0.024c-0.48,0-0.984,0.024-1.464,0.048C915.689,57.58,916.025,57.22,916.385,56.86z M928.768,60.532
		c3.864,0,6.265-3.096,7.129-8.041c0.144-0.864,0.216-1.68,0.216-2.424c0-3.696-1.8-5.977-4.728-5.977
		c-3.96,0-6.241,3.072-7.129,8.017c-0.144,0.888-0.24,1.704-0.24,2.472C924.016,58.276,925.792,60.532,928.768,60.532z
		 M928.961,58.084c-1.464,0-2.184-1.368-2.184-3.504c0-0.672,0.072-1.44,0.216-2.256c0.624-3.552,2.16-5.785,4.2-5.785
		c1.464,0,2.16,1.344,2.16,3.456c0,0.696-0.072,1.464-0.216,2.28C932.513,55.828,931.001,58.084,928.961,58.084z"/>
	<path fill="#9D9D9C" d="M946.278,46.882c0.76,0,1.34,0.12,1.9,0.34l1-1.82c-0.88-0.4-1.7-0.62-2.881-0.62
		c-3.461,0-5.941,1.88-6.982,4.741h-1.5l-0.24,1.4h1.36c-0.06,0.36-0.12,0.74-0.14,1.12h-1.42l-0.26,1.4h1.7
		c0.26,2.861,2.24,5.041,5.501,5.041c1.04,0,1.92-0.18,2.801-0.6l-0.44-1.96c-0.64,0.32-1.26,0.46-2.06,0.46
		c-2.12,0-3.181-1.16-3.461-2.941h2.921l0.78-1.4h-3.741c0.02-0.38,0.06-0.76,0.16-1.12h4.161l0.76-1.4h-4.421
		C942.617,47.922,944.177,46.882,946.278,46.882z"/>
	<path fill="#7AC3A5" d="M18.282,95.969v-8.962h-1.3L9.86,96.649v1.22h6.261v2.501h2.16v-2.501h1.5v-1.9z M16.181,95.969h-2.22
		c-0.46,0-0.9,0-1.36,0.02c0.26-0.32,0.5-0.64,0.76-0.98l2.04-2.801c0.28-0.36,0.54-0.74,0.84-1.22c-0.06,0.6-0.06,1.06-0.06,1.66z
		 M26.121,92.128c-1.04,0-1.96,0.26-2.641,0.96c0.42-2.421,2.2-4.001,5.281-4.241l-0.26-1.94c-5.121,0.4-7.362,3.641-7.362,8.282
		v0.22c0,2.901,1.46,5.201,4.601,5.201c2.661,0,4.441-1.8,4.441-4.401C30.182,93.548,28.322,92.128,26.121,92.128z M25.701,98.55
		c-1.34,0-2.26-0.9-2.26-2.24c0-1.46,0.92-2.28,2.26-2.28c1.2,0,2.2,0.74,2.2,2.24C27.901,97.669,26.941,98.55,25.701,98.55z"/>
	<path fill="#000000" d="M226.219,105.385c-3.3,0-6.6-2.43-6.6-6.99c0-4.38,3.18-6.9,6.78-6.9c1.92,0,3.39,0.6,4.74,1.8l-1.05,1.26
		c-1.08-0.93-2.13-1.35-3.69-1.35c-2.76,0-4.92,2.07-4.92,5.19c0,3.18,2.13,5.28,4.89,5.28c1.8,0,2.88-0.57,3.96-1.59l1.02,1.32
		C229.968,104.695,228.528,105.385,226.219,105.385 M199.579,105.385c-4.02,0-6.84-2.88-6.84-6.99c0-3.84,2.76-6.93,6.69-6.93
		c3.69,0,5.879,2.55,5.879,6.42c0,0.42-0.03,0.84-0.09,1.29h-10.62c0.3,2.82,2.46,4.5,4.95,4.5c1.86,0,3.03-0.57,4.05-1.62
		l1.05,1.32C203.299,104.665,201.679,105.385,199.579,105.385 M199.399,93.176c-2.46,0-4.38,1.74-4.74,4.38h8.85
		C203.448,94.736,201.829,93.176,199.399,93.176 M177.589,105.385c-4.02,0-6.84-2.88-6.84-6.99c0-3.84,2.76-6.93,6.69-6.93
		c3.69,0,5.88,2.55,5.88,6.42c0,0.42-0.03,0.84-0.09,1.29h-10.62c0.3,2.82,2.46,4.5,4.95,4.5c1.86,0,3.03-0.57,4.05-1.62l1.05,1.32
		C181.309,104.665,179.689,105.385,177.589,105.385 M177.409,93.176c-2.46,0-4.38,1.74-4.74,4.38h8.85
		C181.459,94.736,179.839,93.176,177.409,93.176 M68.721,105.385c-3.99,0-6.84-2.88-6.84-6.96c0-4.08,2.85-6.96,6.84-6.96
		c4.05,0,6.899,2.88,6.899,6.96C75.621,102.505,72.771,105.385,68.721,105.385 M68.721,93.176c-2.94,0-4.98,2.19-4.98,5.25
		c0,3.09,2.04,5.25,4.98,5.25c2.97,0,5.04-2.16,5.04-5.25C73.761,95.365,71.721,93.176,68.721,93.176 M295.517,105.355
		c-3.93,0-6.66-2.94-6.66-6.99c0-3.93,2.76-6.84,6.66-6.84c2.16,0,4.05,0.96,5.13,2.52c-0.03-1.14-0.06-2.34-0.06-3.6v-6.9h1.83
		v21.509h-1.41l-0.27-2.37C299.657,104.335,297.827,105.355,295.517,105.355 M295.637,93.235c-2.94,0-4.95,2.16-4.95,5.19
		c0,3.03,2.01,5.19,4.95,5.19c3.06,0,5.01-2.19,5.01-5.19C300.647,95.425,298.637,93.235,295.637,93.235 M160.129,105.355
		c-3.93,0-6.66-2.94-6.66-6.99c0-3.93,2.76-6.84,6.66-6.84c2.16,0,4.05,0.96,5.13,2.52c-0.03-1.14-0.06-2.34-0.06-3.6v-6.9h1.83
		v21.509h-1.41l-0.27-2.37C164.269,104.335,162.439,105.355,160.129,105.355 M160.249,93.235c-2.94,0-4.95,2.16-4.95,5.19
		c0,3.03,2.01,5.19,4.95,5.19c3.06,0,5.01-2.19,5.01-5.19C165.259,95.425,163.249,93.235,160.249,93.235 M121.64,105.355
		c-3.93,0-6.66-2.94-6.66-6.99c0-3.93,2.76-6.84,6.66-6.84c2.16,0,4.05,0.96,5.13,2.52c-0.03-1.14-0.06-2.34-0.06-3.6v-6.9h1.83
		v21.509h-1.41l-0.27-2.37C125.78,104.335,123.95,105.355,121.64,105.355 M121.76,93.235c-2.94,0-4.95,2.16-4.95,5.19
		c0,3.03,2.01,5.19,4.95,5.19c3.06,0,5.01-2.19,5.01-5.19C126.77,95.425,124.76,93.235,121.76,93.235 M310.277,105.295
		c-2.58,0-4.23-1.41-4.23-3.69c0-2.97,2.73-4.68,6.63-4.68c0.99,0,1.74,0.03,2.43,0.12v-0.9c0-1.86-1.32-2.79-3.36-2.79
		c-1.44,0-2.91,0.42-4.38,1.11l-0.63-1.56c1.8-0.84,3.51-1.26,5.19-1.26c3.03,0,5.04,1.59,5.04,4.59v8.82h-1.35l-0.33-2.4
		C314.327,104.245,312.617,105.295,310.277,105.295 M312.947,98.455c-3.12,0-4.98,1.08-4.98,3.03c0,1.32,0.96,2.1,2.61,2.1
		c2.73,0,4.44-1.98,4.53-5.01C314.387,98.485,313.817,98.455,312.947,98.455 M278.628,105.295c-2.58,0-4.23-1.41-4.23-3.69
		c0-2.97,2.73-4.68,6.63-4.68c0.99,0,1.74,0.03,2.43,0.12v-0.9c0-1.86-1.32-2.79-3.36-2.79c-1.44,0-2.91,0.42-4.38,1.11l-0.63-1.56
		c1.8-0.84,3.51-1.26,5.19-1.26c3.03,0,5.04,1.59,5.04,4.59v8.82h-1.35l-0.33-2.4C282.677,104.245,280.967,105.295,278.628,105.295
		 M281.298,98.455c-3.12,0-4.98,1.08-4.98,3.03c0,1.32,0.96,2.1,2.61,2.1c2.73,0,4.44-1.98,4.53-5.01
		C282.738,98.485,282.167,98.455,281.298,98.455 M237.678,105.295c-2.58,0-4.23-1.41-4.23-3.69c0-2.97,2.73-4.68,6.63-4.68
		c0.99,0,1.74,0.03,2.43,0.12v-0.9c0-1.86-1.32-2.79-3.36-2.79c-1.44,0-2.91,0.42-4.38,1.11l-0.63-1.56
		c1.8-0.84,3.51-1.26,5.19-1.26c3.03,0,5.04,1.59,5.04,4.59v8.82h-1.35l-0.33-2.4C241.728,104.245,240.018,105.295,237.678,105.295
		 M240.348,98.455c-3.12,0-4.98,1.08-4.98,3.03c0,1.32,0.96,2.1,2.61,2.1c2.73,0,4.44-1.98,4.53-5.01
		C241.788,98.485,241.218,98.455,240.348,98.455 M212.628,105.295c-1.86,0-3.42-0.51-4.83-1.47l0.93-1.44
		c1.17,0.84,2.43,1.2,3.9,1.2c1.62,0,2.67-0.81,2.67-2.01c0-1.29-1.47-1.95-3.06-2.58c-2.16-0.84-3.96-1.86-3.96-3.99
		c0-2.22,2.04-3.36,4.29-3.36c1.44,0,2.82,0.42,4.02,1.2l-0.81,1.32c-0.96-0.54-2.04-0.84-3.12-0.84c-1.35,0-2.55,0.45-2.55,1.68
		c0,1.2,1.23,1.8,2.79,2.4c2.4,0.9,4.23,1.95,4.23,4.17C217.128,103.795,215.238,105.295,212.628,105.295 M136.4,105.295
		c-2.58,0-4.23-1.41-4.23-3.69c0-2.97,2.73-4.68,6.63-4.68c0.99,0,1.74,0.03,2.43,0.12v-0.9c0-1.86-1.32-2.79-3.36-2.79
		c-1.44,0-2.91,0.42-4.38,1.11l-0.63-1.56c1.8-0.84,3.51-1.26,5.19-1.26c3.03,0,5.04,1.59,5.04,4.59v8.82h-1.35l-0.33-2.4
		C140.45,104.245,138.74,105.295,136.4,105.295 M139.07,98.455c-3.12,0-4.98,1.08-4.98,3.03c0,1.32,0.96,2.1,2.61,2.1
		c2.73,0,4.44-1.98,4.53-5.01C140.51,98.485,139.94,98.455,139.07,98.455 M104.751,105.295c-2.58,0-4.23-1.41-4.23-3.69
		c0-2.97,2.73-4.68,6.63-4.68c0.99,0,1.74,0.03,2.43,0.12v-0.9c0-1.86-1.32-2.79-3.36-2.79c-1.44,0-2.91,0.42-4.38,1.11l-0.63-1.56
		c1.8-0.84,3.51-1.26,5.19-1.26c3.03,0,5.04,1.59,5.04,4.59v8.82h-1.35l-0.33-2.4C108.8,104.245,107.091,105.295,104.751,105.295
		 M107.421,98.455c-3.12,0-4.98,1.08-4.98,3.03c0,1.32,0.96,2.1,2.61,2.1c2.73,0,4.44-1.98,4.53-5.01
		C108.861,98.485,108.29,98.455,107.421,98.455 M95.241,105.295c-2.16,0-3.51-1.26-3.51-3.99v-7.89l-2.58-0.12v-1.5h2.58v-4.41h1.83
		v4.41h4.74v1.62h-4.74v7.89c0,1.68,0.69,2.25,1.86,2.25c0.93,0,1.77-0.3,2.61-0.9l0.81,1.38
		C97.851,104.785,96.621,105.295,95.241,105.295 M82.881,105.295c-1.86,0-3.42-0.51-4.83-1.47l0.93-1.44c1.17,0.84,2.43,1.2,3.9,1.2
		c1.62,0,2.67-0.81,2.67-2.01c0-1.29-1.47-1.95-3.06-2.58c-2.16-0.84-3.96-1.86-3.96-3.99c0-2.22,2.04-3.36,4.29-3.36
		c1.44,0,2.82,0.42,4.02,1.2l-0.81,1.32c-0.96-0.54-2.04-0.84-3.12-0.84c-1.35,0-2.55,0.45-2.55,1.68c0,1.2,1.23,1.8,2.79,2.4
		c2.4,0.9,4.23,1.95,4.23,4.17C87.381,103.795,85.491,105.295,82.881,105.295 M266.867,105.205h-0.66l-6.21-13.349v-0.06h1.98
		l3.84,8.49c0.27,0.6,0.51,1.2,0.72,1.89c0.21-0.69,0.45-1.29,0.72-1.89l3.81-8.49h1.98v0.06L266.867,105.205 M257.238,105.055
		h-1.83V91.795h1.83V105.055 M250.728,105.055h-1.83l-0.03-21.509h1.83L250.728,105.055 M56.421,105.055h-1.98V86.456h-6.27v-1.8
		H62.69v1.8h-6.27V105.055 M256.338,88.316c-0.84,0-1.38-0.6-1.38-1.32c0-0.78,0.54-1.38,1.38-1.38s1.38,0.6,1.38,1.38
		C257.718,87.746,257.148,88.316,256.338,88.316"/>
	<path fill="#9D9D9C" d="M895.601,102.508c3.504,0,5.881-1.608,6.385-4.44c0.048-0.288,0.072-0.576,0.072-0.84
		c0-1.608-0.888-2.808-2.112-3.384c1.488-0.624,2.976-2.04,2.976-4.2c0-2.088-1.728-3.576-4.512-3.576
		c-3.12,0-5.424,1.656-5.881,4.224c-0.048,0.216-0.048,0.456-0.048,0.648c0,1.344,0.72,2.448,1.752,2.904
		c-1.824,0.552-3.216,2.112-3.552,3.96c-0.048,0.288-0.072,0.576-0.072,0.864C890.609,101.044,892.529,102.508,895.601,102.508z
		 M897.305,92.715c-1.368,0-2.184-0.672-2.184-1.752c0-1.584,1.2-2.592,2.88-2.592c1.368,0,2.184,0.672,2.184,1.704
		C900.186,91.611,898.961,92.715,897.305,92.715z M896.009,100.084c-1.512,0-2.544-0.648-2.544-1.968
		c0-0.168,0.024-0.312,0.048-0.48c0.264-1.536,1.584-2.64,3.312-2.64c1.608,0,2.472,0.816,2.472,2.064
		C899.297,98.98,897.809,100.084,896.009,100.084z M905.945,99.22c-0.816,0-1.584,0.504-1.776,1.464
		c-0.024,0.12-0.024,0.24-0.024,0.336c0,0.912,0.648,1.512,1.392,1.512h0.12c-0.36,1.008-1.032,1.776-2.04,2.544l0.576,0.696
		c1.68-1.128,2.808-2.64,3.216-4.296c0.072-0.24,0.096-0.48,0.096-0.696C907.505,99.748,906.809,99.22,905.945,99.22z
		 M917.489,86.067c-3.024,0-5.28,1.92-5.809,4.872c-0.072,0.384-0.096,0.744-0.096,1.08c0,2.592,1.824,4.272,4.128,4.272
		c1.248,0,2.184-0.288,3.192-1.032c-1.176,2.952-3.648,4.776-7.345,4.896l0.168,2.304c6.049-0.096,9.337-3.96,10.369-9.145
		l0.072-0.336c0.12-0.6,0.168-1.176,0.168-1.728C922.337,88.179,920.657,86.067,917.489,86.067z M916.529,93.987
		c-1.44,0-2.232-1.032-2.232-2.328c0-0.192,0.024-0.384,0.048-0.576c0.312-1.656,1.44-2.568,3.024-2.592
		c1.344,0,2.328,0.936,2.328,2.28c0,0.168-0.024,0.336-0.048,0.528C919.385,92.835,918.305,93.987,916.529,93.987z M928.768,102.532
		c3.864,0,6.265-3.096,7.129-8.041c0.144-0.864,0.216-1.68,0.216-2.424c0-3.696-1.8-5.977-4.728-5.977
		c-3.96,0-6.241,3.072-7.129,8.017c-0.144,0.888-0.24,1.704-0.24,2.472C924.016,100.276,925.792,102.532,928.768,102.532z
		 M928.961,100.084c-1.464,0-2.184-1.368-2.184-3.504c0-0.672,0.072-1.44,0.216-2.256c0.624-3.552,2.16-5.785,4.2-5.785
		c1.464,0,2.16,1.344,2.16,3.456c0,0.696-0.072,1.464-0.216,2.28C932.513,97.828,931.001,100.084,928.961,100.084z"/>
	<path fill="#9D9D9C" d="M946.278,88.882c0.76,0,1.34,0.12,1.9,0.34l1-1.82c-0.88-0.4-1.7-0.62-2.881-0.62
		c-3.461,0-5.941,1.88-6.982,4.741h-1.5l-0.24,1.4h1.36c-0.06,0.36-0.12,0.74-0.14,1.12h-1.42l-0.26,1.4h1.7
		c0.26,2.861,2.24,5.041,5.501,5.041c1.04,0,1.92-0.18,2.801-0.6l-0.44-1.96c-0.64,0.32-1.26,0.46-2.06,0.46
		c-2.12,0-3.181-1.16-3.461-2.941h2.921l0.78-1.4h-3.741c0.02-0.38,0.06-0.76,0.16-1.12h4.161l0.76-1.4h-4.421
		C942.617,89.922,944.177,88.882,946.278,88.882z"/>
	<path fill="#7AC3A5" d="M18.282,157.099v-8.962h-1.3l-7.122,9.642v1.22h6.261v2.501h2.16v-2.501h1.5v-1.9z M16.181,157.099h-2.22
		c-0.46,0-0.9,0-1.36,0.02c0.26-0.32,0.5-0.64,0.76-0.98l2.04-2.801c0.28-0.36,0.54-0.74,0.84-1.22c-0.06,0.6-0.06,1.06-0.06,1.66z
		 M20.56,148.277v2.02h4.081c0.58,0,0.98,0,1.46-0.02c-0.14,0.36-0.32,0.78-0.5,1.28L21.86,161.5h2.401l4.661-12.363v-0.86z"/>
	<path fill="#000000" d="M308.746,155.084l-0.24-1.62c3-0.24,3.63-1.53,3.63-4.38v-14.16h1.83v14.07
		C313.966,152.955,312.826,154.845,308.746,155.084 M128.6,155.084c-2.58,0-4.47-0.87-6-2.37l1.14-1.29
		c1.29,1.26,2.79,1.95,4.77,1.95c2.7,0,4.8-1.41,4.8-4.35c0-1.02,0-2.01,0.03-3c-1.23,1.59-3.15,2.4-5.1,2.4
		c-4.08,0-6.66-3.09-6.66-6.87c0-3.81,2.52-6.9,6.57-6.9c2.16,0,4.05,0.84,5.22,2.46l0.42-2.19h1.35v14.13
		C135.139,153.135,132.11,155.084,128.6,155.084 M128.36,136.365c-3.12,0-4.92,2.28-4.92,5.16c0,2.94,1.89,5.19,4.89,5.19
		c3.33,0,5.04-2.37,5.04-5.16S131.72,136.365,128.36,136.365 M512.262,154.785h-1.83v-5.22c0-1.41,0.03-2.67,0.06-3.72
		c-1.08,1.62-2.94,2.64-5.16,2.64c-3.87,0-6.6-2.91-6.6-6.99c0-3.96,2.76-6.84,6.57-6.84c2.25,0,3.99,0.93,5.16,2.55l0.42-2.28h1.38
		V154.785 M505.452,136.365c-2.85,0-4.86,2.16-4.86,5.22c0,3.03,2.01,5.19,4.86,5.19c2.94,0,5.04-2.13,5.04-5.28
		C510.492,138.465,508.422,136.365,505.452,136.365 M728.47,148.515c-4.02,0-6.84-2.88-6.84-6.99c0-3.84,2.76-6.93,6.69-6.93
		c3.69,0,5.88,2.55,5.88,6.42c0,0.42-0.03,0.84-0.09,1.29h-10.62c0.3,2.82,2.46,4.5,4.95,4.5c1.86,0,3.03-0.57,4.05-1.62l1.05,1.32
		C732.19,147.795,730.57,148.515,728.47,148.515 M728.29,136.305c-2.46,0-4.38,1.74-4.74,4.38h8.85
		C732.34,137.865,730.72,136.305,728.29,136.305 M663.371,148.515c-3.99,0-6.84-2.88-6.84-6.96s2.85-6.96,6.84-6.96
		c4.05,0,6.9,2.88,6.9,6.96S667.42,148.515,663.371,148.515 M663.371,136.305c-2.94,0-4.98,2.19-4.98,5.25
		c0,3.09,2.04,5.25,4.98,5.25c2.97,0,5.04-2.16,5.04-5.25C668.41,138.495,666.37,136.305,663.371,136.305 M613.871,148.515
		c-3.99,0-6.84-2.88-6.84-6.96s2.85-6.96,6.84-6.96c4.05,0,6.899,2.88,6.899,6.96S617.921,148.515,613.871,148.515 M613.871,136.305
		c-2.94,0-4.98,2.19-4.98,5.25c0,3.09,2.04,5.25,4.98,5.25c2.97,0,5.04-2.16,5.04-5.25
		C618.911,138.495,616.871,136.305,613.871,136.305 M600.011,148.515c-3.3,0-6.6-2.43-6.6-6.99c0-4.38,3.18-6.9,6.78-6.9
		c1.92,0,3.39,0.6,4.74,1.8l-1.05,1.26c-1.08-0.93-2.13-1.35-3.69-1.35c-2.76,0-4.92,2.07-4.92,5.19c0,3.18,2.13,5.28,4.89,5.28
		c1.8,0,2.88-0.57,3.96-1.59l1.02,1.32C603.761,147.825,602.321,148.515,600.011,148.515 M565.272,148.515
		c-3.99,0-6.84-2.88-6.84-6.96s2.85-6.96,6.84-6.96c4.05,0,6.9,2.88,6.9,6.96S569.322,148.515,565.272,148.515 M565.272,136.305
		c-2.94,0-4.98,2.19-4.98,5.25c0,3.09,2.04,5.25,4.98,5.25c2.97,0,5.04-2.16,5.04-5.25
		C570.312,138.495,568.272,136.305,565.272,136.305 M538.392,148.515c-4.02,0-6.84-2.88-6.84-6.99c0-3.84,2.76-6.93,6.69-6.93
		c3.69,0,5.88,2.55,5.88,6.42c0,0.42-0.03,0.84-0.09,1.29h-10.62c0.3,2.82,2.46,4.5,4.95,4.5c1.86,0,3.03-0.57,4.05-1.62l1.05,1.32
		C542.112,147.795,540.492,148.515,538.392,148.515 M538.212,136.305c-2.46,0-4.38,1.74-4.74,4.38h8.85
		C542.262,137.865,540.642,136.305,538.212,136.305 M471.703,148.515c-4.02,0-6.84-2.88-6.84-6.99c0-3.84,2.76-6.93,6.69-6.93
		c3.69,0,5.879,2.55,5.879,6.42c0,0.42-0.03,0.84-0.09,1.29h-10.619c0.3,2.82,2.46,4.5,4.949,4.5c1.86,0,3.03-0.57,4.05-1.62
		l1.05,1.32C475.423,147.795,473.803,148.515,471.703,148.515 M471.523,136.305c-2.46,0-4.38,1.74-4.74,4.38h8.85
		C475.572,137.865,473.953,136.305,471.523,136.305 M416.143,148.515c-3.99,0-6.84-2.88-6.84-6.96s2.85-6.96,6.84-6.96
		c4.05,0,6.9,2.88,6.9,6.96S420.193,148.515,416.143,148.515 M416.143,136.305c-2.94,0-4.98,2.19-4.98,5.25
		c0,3.09,2.04,5.25,4.98,5.25c2.97,0,5.04-2.16,5.04-5.25C421.183,138.495,419.143,136.305,416.143,136.305 M324.495,148.515
		c-4.02,0-6.84-2.88-6.84-6.99c0-3.84,2.76-6.93,6.69-6.93c3.69,0,5.879,2.55,5.879,6.42c0,0.42-0.03,0.84-0.09,1.29h-10.619
		c0.3,2.82,2.46,4.5,4.95,4.5c1.86,0,3.03-0.57,4.05-1.62l1.05,1.32C328.215,147.795,326.596,148.515,324.495,148.515
		 M324.316,136.305c-2.46,0-4.38,1.74-4.74,4.38h8.85C328.365,137.865,326.745,136.305,324.316,136.305 M287.087,148.515
		c-4.02,0-6.84-2.88-6.84-6.99c0-3.84,2.76-6.93,6.69-6.93c3.69,0,5.88,2.55,5.88,6.42c0,0.42-0.03,0.84-0.09,1.29h-10.62
		c0.3,2.82,2.46,4.5,4.95,4.5c1.86,0,3.03-0.57,4.05-1.62l1.05,1.32C290.806,147.795,289.186,148.515,287.087,148.515
		 M286.906,136.305c-2.46,0-4.38,1.74-4.74,4.38h8.85C290.956,137.865,289.337,136.305,286.906,136.305 M262.127,148.515
		c-4.02,0-6.84-2.88-6.84-6.99c0-3.84,2.76-6.93,6.69-6.93c3.69,0,5.88,2.55,5.88,6.42c0,0.42-0.03,0.84-0.09,1.29h-10.62
		c0.3,2.82,2.46,4.5,4.95,4.5c1.86,0,3.03-0.57,4.05-1.62l1.05,1.32C265.847,147.795,264.227,148.515,262.127,148.515
		 M261.947,136.305c-2.46,0-4.38,1.74-4.74,4.38h8.85C265.997,137.865,264.377,136.305,261.947,136.305 M222.858,148.515
		c-4.02,0-6.84-2.88-6.84-6.99c0-3.84,2.76-6.93,6.69-6.93c3.69,0,5.88,2.55,5.88,6.42c0,0.42-0.03,0.84-0.09,1.29h-10.62
		c0.3,2.82,2.46,4.5,4.95,4.5c1.86,0,3.03-0.57,4.05-1.62l1.05,1.32C226.578,147.795,224.958,148.515,222.858,148.515
		 M222.678,136.305c-2.46,0-4.38,1.74-4.74,4.38h8.85C226.728,137.865,225.108,136.305,222.678,136.305 M182.238,148.515
		c-3.99,0-6.84-2.88-6.84-6.96s2.85-6.96,6.84-6.96c4.05,0,6.9,2.88,6.9,6.96S186.288,148.515,182.238,148.515 M182.238,136.305
		c-2.94,0-4.98,2.19-4.98,5.25c0,3.09,2.04,5.25,4.98,5.25c2.97,0,5.04-2.16,5.04-5.25
		C187.278,138.495,185.238,136.305,182.238,136.305 M245.867,148.485c-2.25,0-4.11-0.99-5.22-2.61l-0.27,2.31h-1.41v-21.509h1.83
		v6.899c0,1.26-0.03,2.49-0.06,3.66c1.08-1.62,2.97-2.58,5.13-2.58c3.9,0,6.66,2.91,6.66,6.84
		C252.527,145.545,249.797,148.485,245.867,148.485 M245.747,136.365c-3,0-5.04,2.19-5.04,5.19s1.98,5.19,5.04,5.19
		c2.94,0,4.95-2.16,4.95-5.19C250.697,138.525,248.687,136.365,245.747,136.365 M205.398,148.485c-3.93,0-6.66-2.94-6.66-6.99
		c0-3.93,2.76-6.84,6.66-6.84c2.16,0,4.05,0.96,5.13,2.52c-0.03-1.14-0.06-2.34-0.06-3.6v-6.899h1.83v21.509h-1.41l-0.27-2.37
		C209.538,147.465,207.708,148.485,205.398,148.485 M205.518,136.365c-2.94,0-4.95,2.16-4.95,5.19c0,3.03,2.01,5.19,4.95,5.19
		c3.06,0,5.01-2.19,5.01-5.19S208.518,136.365,205.518,136.365 M716.53,148.425c-2.16,0-3.51-1.26-3.51-3.99v-7.89l-2.58-0.12v-1.5
		h2.58v-4.41h1.83v4.41h4.74v1.62h-4.74v7.89c0,1.68,0.69,2.25,1.86,2.25c0.93,0,1.77-0.3,2.61-0.9l0.81,1.38
		C719.14,147.915,717.91,148.425,716.53,148.425 M701.17,148.425c-2.58,0-4.23-1.41-4.23-3.69c0-2.97,2.73-4.68,6.63-4.68
		c0.99,0,1.74,0.03,2.43,0.12v-0.9c0-1.86-1.32-2.79-3.36-2.79c-1.44,0-2.91,0.42-4.38,1.11l-0.63-1.56
		c1.8-0.84,3.51-1.26,5.19-1.26c3.03,0,5.04,1.59,5.04,4.59v8.82h-1.35l-0.33-2.4C705.22,147.375,703.51,148.425,701.17,148.425
		 M703.84,141.585c-3.12,0-4.98,1.08-4.98,3.03c0,1.32,0.96,2.1,2.61,2.1c2.73,0,4.44-1.98,4.53-5.01
		C705.28,141.615,704.71,141.585,703.84,141.585 M651.431,148.425c-2.16,0-3.51-1.26-3.51-3.99v-7.89l-2.58-0.12v-1.5h2.58v-4.41
		h1.83v4.41h4.74v1.62h-4.74v7.89c0,1.68,0.69,2.25,1.86,2.25c0.93,0,1.77-0.3,2.61-0.9l0.81,1.38
		C654.04,147.915,652.81,148.425,651.431,148.425 M579.432,148.425c-1.86,0-3.42-0.51-4.83-1.47l0.93-1.44
		c1.17,0.84,2.43,1.2,3.9,1.2c1.62,0,2.67-0.81,2.67-2.01c0-1.29-1.47-1.95-3.06-2.58c-2.16-0.84-3.96-1.86-3.96-3.99
		c0-2.22,2.04-3.36,4.29-3.36c1.44,0,2.82,0.42,4.02,1.2l-0.81,1.32c-0.96-0.54-2.04-0.84-3.12-0.84c-1.35,0-2.55,0.45-2.55,1.68
		c0,1.2,1.23,1.8,2.79,2.4c2.4,0.9,4.23,1.95,4.23,4.17C583.932,146.925,582.042,148.425,579.432,148.425 M551.442,148.425
		c-1.86,0-3.42-0.51-4.83-1.47l0.93-1.44c1.17,0.84,2.43,1.2,3.9,1.2c1.62,0,2.67-0.81,2.67-2.01c0-1.29-1.47-1.95-3.06-2.58
		c-2.16-0.84-3.96-1.86-3.96-3.99c0-2.22,2.04-3.36,4.29-3.36c1.44,0,2.82,0.42,4.02,1.2l-0.81,1.32c-0.96-0.54-2.04-0.84-3.12-0.84
		c-1.35,0-2.55,0.45-2.55,1.68c0,1.2,1.23,1.8,2.79,2.4c2.4,0.9,4.23,1.95,4.23,4.17
		C555.942,146.925,554.052,148.425,551.442,148.425 M521.592,148.425c-3.3,0-4.83-2.19-4.83-5.43v-8.07h1.83v8.1
		c0,2.16,0.84,3.69,3.21,3.69c2.64,0,4.2-2.37,4.2-5.19v-6.6h1.83v13.259h-1.41l-0.36-2.31
		C525.282,147.285,523.782,148.425,521.592,148.425 M484.752,148.425c-1.86,0-3.42-0.51-4.83-1.47l0.93-1.44
		c1.17,0.84,2.43,1.2,3.9,1.2c1.62,0,2.67-0.81,2.67-2.01c0-1.29-1.47-1.95-3.06-2.58c-2.16-0.84-3.96-1.86-3.96-3.99
		c0-2.22,2.04-3.36,4.29-3.36c1.44,0,2.82,0.42,4.02,1.2l-0.81,1.32c-0.96-0.54-2.04-0.84-3.12-0.84c-1.35,0-2.55,0.45-2.55,1.68
		c0,1.2,1.23,1.8,2.79,2.4c2.4,0.9,4.23,1.95,4.23,4.17C489.252,146.925,487.362,148.425,484.752,148.425 M449.683,148.425
		c-2.16,0-3.51-1.26-3.51-3.99v-7.89l-2.58-0.12v-1.5h2.58v-4.41h1.83v4.41h4.74v1.62h-4.74v7.89c0,1.68,0.69,2.25,1.86,2.25
		c0.93,0,1.77-0.3,2.61-0.9l0.81,1.38C452.293,147.915,451.063,148.425,449.683,148.425 M430.303,148.425
		c-1.86,0-3.42-0.51-4.83-1.47l0.93-1.44c1.17,0.84,2.43,1.2,3.9,1.2c1.62,0,2.67-0.81,2.67-2.01c0-1.29-1.47-1.95-3.06-2.58
		c-2.16-0.84-3.96-1.86-3.96-3.99c0-2.22,2.04-3.36,4.29-3.36c1.44,0,2.82,0.42,4.02,1.2l-0.81,1.32c-0.96-0.54-2.04-0.84-3.12-0.84
		c-1.35,0-2.55,0.45-2.55,1.68c0,1.2,1.23,1.8,2.79,2.4c2.4,0.9,4.23,1.95,4.23,4.17
		C434.803,146.925,432.913,148.425,430.303,148.425 M385.694,148.425c-2.58,0-4.23-1.41-4.23-3.69c0-2.97,2.73-4.68,6.63-4.68
		c0.99,0,1.74,0.03,2.43,0.12v-0.9c0-1.86-1.32-2.79-3.36-2.79c-1.44,0-2.91,0.42-4.38,1.11l-0.63-1.56
		c1.8-0.84,3.51-1.26,5.19-1.26c3.03,0,5.04,1.59,5.04,4.59v8.82h-1.35l-0.33-2.4C389.744,147.375,388.034,148.425,385.694,148.425
		 M388.364,141.585c-3.12,0-4.98,1.08-4.98,3.03c0,1.32,0.96,2.1,2.61,2.1c2.73,0,4.44-1.98,4.53-5.01
		C389.804,141.615,389.234,141.585,388.364,141.585 M367.575,148.425c-1.86,0-3.42-0.51-4.83-1.47l0.93-1.44
		c1.17,0.84,2.43,1.2,3.9,1.2c1.62,0,2.67-0.81,2.67-2.01c0-1.29-1.47-1.95-3.06-2.58c-2.16-0.84-3.96-1.86-3.96-3.99
		c0-2.22,2.04-3.36,4.29-3.36c1.44,0,2.82,0.42,4.02,1.2l-0.81,1.32c-0.96-0.54-2.04-0.84-3.12-0.84c-1.35,0-2.55,0.45-2.55,1.68
		c0,1.2,1.23,1.8,2.79,2.4c2.4,0.9,4.23,1.95,4.23,4.17C372.074,146.925,370.184,148.425,367.575,148.425 M352.605,148.425
		c-2.58,0-4.23-1.41-4.23-3.69c0-2.97,2.73-4.68,6.63-4.68c0.99,0,1.74,0.03,2.43,0.12v-0.9c0-1.86-1.32-2.79-3.36-2.79
		c-1.44,0-2.91,0.42-4.38,1.11l-0.63-1.56c1.8-0.84,3.51-1.26,5.19-1.26c3.03,0,5.04,1.59,5.04,4.59v8.82h-1.35l-0.33-2.4
		C356.655,147.375,354.945,148.425,352.605,148.425 M355.275,141.585c-3.12,0-4.98,1.08-4.98,3.03c0,1.32,0.96,2.1,2.61,2.1
		c2.73,0,4.44-1.98,4.53-5.01C356.715,141.615,356.145,141.585,355.275,141.585 M149.509,148.425c-2.58,0-4.23-1.41-4.23-3.69
		c0-2.97,2.73-4.68,6.63-4.68c0.99,0,1.74,0.03,2.43,0.12v-0.9c0-1.86-1.32-2.79-3.36-2.79c-1.44,0-2.91,0.42-4.38,1.11l-0.63-1.56
		c1.8-0.84,3.51-1.26,5.19-1.26c3.03,0,5.04,1.59,5.04,4.59v8.82h-1.35l-0.33-2.4C153.559,147.375,151.849,148.425,149.509,148.425
		 M152.179,141.585c-3.12,0-4.98,1.08-4.98,3.03c0,1.32,0.96,2.1,2.61,2.1c2.73,0,4.44-1.98,4.53-5.01
		C153.619,141.615,153.049,141.585,152.179,141.585 M70.341,148.425c-2.58,0-4.23-1.41-4.23-3.69c0-2.97,2.73-4.68,6.63-4.68
		c0.99,0,1.74,0.03,2.43,0.12v-0.9c0-1.86-1.32-2.79-3.36-2.79c-1.44,0-2.91,0.42-4.38,1.11l-0.63-1.56
		c1.8-0.84,3.51-1.26,5.19-1.26c3.03,0,5.04,1.59,5.04,4.59v8.82h-1.35l-0.33-2.4C74.391,147.375,72.681,148.425,70.341,148.425
		 M73.011,141.585c-3.12,0-4.98,1.08-4.98,3.03c0,1.32,0.96,2.1,2.61,2.1c2.73,0,4.44-1.98,4.53-5.01
		C74.451,141.615,73.881,141.585,73.011,141.585 M693.49,148.185h-1.83v-8.4c0-2.13-1.08-3.42-2.94-3.42
		c-2.67,0-4.05,2.43-4.05,4.92v6.899h-1.83v-8.43c0-1.83-0.93-3.39-2.94-3.39c-2.7,0-4.08,2.43-4.08,4.92v6.899h-1.83v-13.259h1.38
		l0.42,2.28c0.87-1.62,2.4-2.55,4.32-2.55c2.01,0,3.48,0.99,4.11,2.67c0.87-1.62,2.4-2.67,4.62-2.67c3.03,0,4.65,2.01,4.65,5.22
		V148.185 M635.651,148.185h-1.83v-8.13c0-2.25-0.84-3.69-3.06-3.69c-2.67,0-4.44,1.92-4.44,4.68v7.14h-1.83v-13.259h1.38l0.42,2.25
		c0.78-1.41,2.4-2.52,4.65-2.52c3.09,0,4.71,1.98,4.71,5.43V148.185 M457.843,148.185h-1.83v-13.259h1.38l0.36,1.95
		c0.75-1.38,2.01-2.22,3.87-2.22c0.84,0,1.56,0.18,2.16,0.45l-0.54,1.62c-0.51-0.18-1.02-0.33-1.77-0.33
		c-2.16,0-3.63,1.53-3.63,4.11V148.185 M405.584,148.185h-1.83l-0.03-21.509h1.83L405.584,148.185 M344.925,148.185h-1.83v-8.13
		c0-2.25-0.84-3.69-3.06-3.69c-2.67,0-4.44,1.92-4.44,4.68v7.14h-1.83v-13.259h1.38l0.42,2.25c0.78-1.41,2.4-2.52,4.65-2.52
		c3.09,0,4.71,1.98,4.71,5.43V148.185 M307.516,148.185h-1.83v-8.13c0-2.25-0.84-3.69-3.06-3.69c-2.67,0-4.44,1.92-4.44,4.68v7.14
		h-1.83v-13.259h1.38l0.42,2.25c0.78-1.41,2.4-2.52,4.65-2.52c3.09,0,4.71,1.98,4.71,5.43V148.185 M273.227,148.185h-1.83v-13.259
		h1.38l0.36,1.95c0.75-1.38,2.01-2.22,3.87-2.22c0.84,0,1.56,0.18,2.16,0.45l-0.54,1.62c-0.51-0.18-1.02-0.33-1.77-0.33
		c-2.16,0-3.63,1.53-3.63,4.11V148.185 M171.859,148.185h-1.83v-8.13c0-2.25-0.84-3.69-3.06-3.69c-2.67,0-4.44,1.92-4.44,4.68v7.14
		h-1.83v-13.259h1.38l0.42,2.25c0.78-1.41,2.4-2.52,4.65-2.52c3.09,0,4.71,1.98,4.71,5.43V148.185 M141.65,148.185h-1.83v-13.259
		h1.83V148.185 M117.86,148.185h-1.83v-13.259h1.83V148.185 M111.53,148.185h-1.83v-8.4c0-2.13-1.08-3.42-2.94-3.42
		c-2.67,0-4.05,2.43-4.05,4.92v6.899h-1.83v-8.43c0-1.83-0.93-3.39-2.94-3.39c-2.7,0-4.08,2.43-4.08,4.92v6.899h-1.83v-13.259h1.38
		l0.42,2.28c0.87-1.62,2.4-2.55,4.32-2.55c2.01,0,3.48,0.99,4.11,2.67c0.87-1.62,2.4-2.67,4.62-2.67c3.03,0,4.65,2.01,4.65,5.22
		V148.185 M83.361,148.185h-1.83v-13.259h1.38l0.36,1.95c0.75-1.38,2.01-2.22,3.87-2.22c0.84,0,1.56,0.18,2.16,0.45l-0.54,1.62
		c-0.51-0.18-1.02-0.33-1.77-0.33c-2.16,0-3.63,1.53-3.63,4.11V148.185 M52.461,148.185h-1.98v-20.399h7.53
		c4.26,0,6.42,3.33,6.42,6.21c0,2.85-2.04,6-6.54,6h-5.43V148.185 M52.461,129.586v8.61h5.4c3.12,0,4.59-2.1,4.59-4.23
		c0-2.34-1.77-4.38-4.47-4.38H52.461 M313.036,131.445c-0.81,0-1.35-0.6-1.35-1.32c0-0.78,0.54-1.38,1.35-1.38
		c0.87,0,1.38,0.6,1.38,1.41C314.416,130.876,313.846,131.445,313.036,131.445 M140.75,131.445c-0.84,0-1.38-0.6-1.38-1.32
		c0-0.78,0.54-1.38,1.38-1.38s1.38,0.6,1.38,1.38C142.129,130.876,141.56,131.445,140.75,131.445 M116.96,131.445
		c-0.84,0-1.38-0.6-1.38-1.32c0-0.78,0.54-1.38,1.38-1.38c0.84,0,1.38,0.6,1.38,1.38C118.34,130.876,117.77,131.445,116.96,131.445"
		/>
	<path fill="#000000" d="M148.129,184.515c-3.99,0-6.84-2.88-6.84-6.96c0-4.08,2.85-6.96,6.84-6.96c4.05,0,6.9,2.88,6.9,6.96
		C155.029,181.635,152.179,184.515,148.129,184.515 M148.129,172.305c-2.94,0-4.98,2.19-4.98,5.25c0,3.09,2.04,5.25,4.98,5.25
		c2.97,0,5.04-2.16,5.04-5.25C153.169,174.495,151.129,172.305,148.129,172.305 M91.07,184.515c-4.02,0-6.84-2.88-6.84-6.99
		c0-3.84,2.76-6.93,6.69-6.93c3.69,0,5.879,2.55,5.879,6.42c0,0.42-0.03,0.84-0.09,1.29H86.091c0.3,2.82,2.46,4.5,4.95,4.5
		c1.86,0,3.03-0.57,4.05-1.62l1.05,1.32C94.79,183.795,93.17,184.515,91.07,184.515 M90.89,172.305c-2.46,0-4.38,1.74-4.74,4.38H95
		C94.94,173.865,93.32,172.305,90.89,172.305 M115.4,184.425c-2.58,0-4.23-1.41-4.23-3.69c0-2.97,2.73-4.68,6.63-4.68
		c0.99,0,1.74,0.03,2.43,0.12v-0.9c0-1.86-1.32-2.79-3.36-2.79c-1.44,0-2.91,0.42-4.38,1.11l-0.63-1.56
		c1.8-0.84,3.51-1.26,5.19-1.26c3.03,0,5.04,1.59,5.04,4.59v8.82h-1.35l-0.33-2.4C119.45,183.375,117.74,184.425,115.4,184.425
		 M118.07,177.585c-3.12,0-4.98,1.08-4.98,3.03c0,1.32,0.96,2.1,2.61,2.1c2.73,0,4.44-1.98,4.53-5.01
		C119.51,177.615,118.94,177.585,118.07,177.585 M104.12,184.425c-1.86,0-3.42-0.51-4.83-1.47l0.93-1.44c1.17,0.84,2.43,1.2,3.9,1.2
		c1.62,0,2.67-0.81,2.67-2.01c0-1.29-1.47-1.95-3.06-2.58c-2.16-0.84-3.96-1.86-3.96-3.99c0-2.22,2.04-3.36,4.29-3.36
		c1.44,0,2.82,0.42,4.02,1.2l-0.81,1.32c-0.96-0.54-2.04-0.84-3.12-0.84c-1.35,0-2.55,0.45-2.55,1.68c0,1.2,1.23,1.8,2.79,2.4
		c2.4,0.9,4.23,1.95,4.23,4.17C108.62,182.925,106.73,184.425,104.12,184.425 M79.13,184.425c-2.16,0-3.51-1.26-3.51-3.99v-7.89
		l-2.58-0.12v-1.5h2.58v-4.41h1.83v4.41h4.74v1.62h-4.74v7.89c0,1.68,0.69,2.25,1.86,2.25c0.93,0,1.77-0.3,2.61-0.9l0.81,1.38
		C81.74,183.915,80.51,184.425,79.13,184.425 M53.001,184.425c-2.58,0-4.23-1.41-4.23-3.69c0-2.97,2.73-4.68,6.63-4.68
		c0.99,0,1.74,0.03,2.43,0.12v-0.9c0-1.86-1.32-2.79-3.36-2.79c-1.44,0-2.91,0.42-4.38,1.11l-0.63-1.56
		c1.8-0.84,3.51-1.26,5.19-1.26c3.03,0,5.04,1.59,5.04,4.59v8.82h-1.35l-0.33-2.4C57.051,183.375,55.341,184.425,53.001,184.425
		 M55.671,177.585c-3.12,0-4.98,1.08-4.98,3.03c0,1.32,0.96,2.1,2.61,2.1c2.73,0,4.44-1.98,4.53-5.01
		C57.111,177.615,56.541,177.585,55.671,177.585 M137.749,184.185h-1.83v-8.13c0-2.25-0.84-3.69-3.06-3.69
		c-2.67,0-4.44,1.92-4.44,4.68v7.14h-1.83v-13.259h1.38l0.42,2.25c0.78-1.41,2.4-2.52,4.65-2.52c3.09,0,4.71,1.98,4.71,5.43V184.185
		 M66.02,184.185h-1.83v-13.259h1.38l0.36,1.95c0.75-1.38,2.01-2.22,3.87-2.22c0.84,0,1.56,0.18,2.16,0.45l-0.54,1.62
		c-0.51-0.18-1.02-0.33-1.77-0.33c-2.16,0-3.63,1.53-3.63,4.11V184.185"/>
	<path fill="#9D9D9C" d="M894.761,147.388l-5.496,3l0.984,1.992l2.136-1.056l0.6-0.312c-0.12,0.432-0.192,0.864-0.288,1.32
		l-1.992,11.041h2.808l2.808-15.985z M901.961,159.99l4.224-4.416c1.128-1.152,1.848-2.328,2.04-3.528
		c0.048-0.312,0.096-0.624,0.096-0.912c0-2.28-1.68-3.912-4.2-3.912c-2.136,0-3.816,0.984-5.328,2.76l1.776,1.68
		c0.984-1.104,2.04-1.896,3.264-1.896c1.104,0,1.704,0.696,1.704,1.608c0,0.864-0.504,1.848-1.464,2.856l-7.609,8.065l-0.192,1.08
		h10.201l0.408-2.424l-4.512,0.024c-0.48,0-0.984,0.024-1.464,0.048C901.265,160.71,901.601,160.35,901.961,159.99z M910.816,160.35
		c-0.816,0-1.584,0.504-1.776,1.464c-0.024,0.12-0.024,0.24-0.024,0.336c0,0.912,0.648,1.512,1.392,1.512h0.12
		c-0.36,1.008-1.032,1.776-2.04,2.544l0.576,0.696c1.68-1.128,2.808-2.64,3.216-4.296c0.072-0.24,0.096-0.48,0.096-0.696
		C912.376,160.878,911.68,160.35,910.816,160.35z M916.888,147.508l-0.432,2.424h5.4c0.384,0,0.792,0,1.2-0.024
		c-0.192,0.336-0.408,0.648-0.576,0.984l-6.889,12.481h2.976l8.137-14.833l0.192-1.032z M936.761,149.933l0.432-2.424H929.2
		l-2.352,8.113l0.408,0.312c0.888-0.312,1.8-0.504,2.736-0.504c1.776,0,3.048,0.792,3.048,2.328c0,0.192,0,0.384-0.048,0.6
		c-0.336,1.848-1.872,2.784-3.672,2.784c-1.44,0-2.472-0.528-3.048-1.392l-1.68,1.848c0.984,1.272,2.688,2.088,4.8,2.088
		c3.288,0,5.833-1.896,6.337-4.92c0.072-0.432,0.12-0.816,0.12-1.2c0-2.736-1.944-4.2-4.848-4.2c-0.384,0-0.72,0.024-1.032,0.048
		l1.056-3.48z"/>
	<path fill="#9D9D9C" d="M946.278,150.011c0.76,0,1.34,0.12,1.9,0.34l1-1.82c-0.88-0.4-1.7-0.62-2.881-0.62
		c-3.461,0-5.941,1.88-6.982,4.741h-1.5l-0.24,1.4h1.36c-0.06,0.36-0.12,0.74-0.14,1.12h-1.42l-0.26,1.4h1.7
		c0.26,2.861,2.24,5.041,5.501,5.041c1.04,0,1.92-0.18,2.801-0.6l-0.44-1.96c-0.64,0.32-1.26,0.46-2.06,0.46
		c-2.12,0-3.181-1.16-3.461-2.941h2.921l0.78-1.4h-3.741c0.02-0.38,0.06-0.76,0.16-1.12h4.161l0.76-1.4h-4.421
		C942.617,151.052,944.177,150.011,946.278,150.011z"/>
	<path fill="#7AC3A5" d="M18.282,218.229v-8.962h-1.3l-7.122,9.642v1.22h6.261v2.501h2.16v-2.501h1.5v-1.9z M16.181,218.229h-2.22
		c-0.46,0-0.9,0-1.36,0.02c0.26-0.32,0.5-0.64,0.76-0.98l2.04-2.801c0.28-0.36,0.54-0.74,0.84-1.22c-0.06,0.6-0.06,1.06-0.06,1.66z
		 M25.861,222.85c2.881,0,4.721-1.48,4.721-3.881c0-1.58-1.04-2.881-2.381-3.341c1.08-0.46,1.96-1.44,1.96-2.881
		c0-2.12-1.7-3.581-4.281-3.581c-2.601,0-4.341,1.46-4.341,3.581c0,1.48,0.86,2.481,2.02,2.881c-1.5,0.46-2.441,1.76-2.441,3.321
		C21.12,221.35,22.96,222.85,25.861,222.85z M25.881,214.688c-1.3,0-2.1-0.72-2.1-1.84c0-1.06,0.86-1.76,2.1-1.76
		c1.22,0,2.06,0.7,2.06,1.76C27.941,213.928,27.141,214.688,25.881,214.688z M25.861,220.829c-1.32,0-2.401-0.74-2.401-2.06
		c0-1.26,0.94-2.16,2.361-2.16c1.5,0,2.421,0.86,2.421,2.16C28.241,220.109,27.201,220.829,25.861,220.829z"/>
	<path fill="#000000" d="M219.677,233.915h-1.83v-5.22c0-1.41,0.03-2.67,0.06-3.72c-1.08,1.62-2.94,2.64-5.16,2.64
		c-3.87,0-6.6-2.91-6.6-6.99c0-3.96,2.76-6.84,6.57-6.84c2.25,0,3.99,0.93,5.16,2.55l0.42-2.28h1.38V233.915 M212.868,215.495
		c-2.85,0-4.86,2.16-4.86,5.22c0,3.03,2.01,5.19,4.86,5.19c2.94,0,5.04-2.13,5.04-5.28
		C217.907,217.595,215.837,215.495,212.868,215.495 M267.977,227.645c-3.99,0-6.84-2.88-6.84-6.96c0-4.08,2.85-6.96,6.84-6.96
		c4.05,0,6.9,2.88,6.9,6.96C274.877,224.765,272.027,227.645,267.977,227.645 M267.977,215.435c-2.94,0-4.98,2.19-4.98,5.25
		c0,3.09,2.04,5.25,4.98,5.25c2.97,0,5.04-2.16,5.04-5.25C273.017,217.625,270.977,215.435,267.977,215.435 M190.998,227.645
		c-4.02,0-6.84-2.88-6.84-6.99c0-3.84,2.76-6.93,6.69-6.93c3.69,0,5.879,2.55,5.879,6.42c0,0.42-0.03,0.84-0.09,1.29h-10.619
		c0.3,2.82,2.46,4.5,4.95,4.5c1.86,0,3.03-0.57,4.05-1.62l1.05,1.32C194.718,226.925,193.098,227.645,190.998,227.645
		 M190.818,215.435c-2.46,0-4.38,1.74-4.74,4.38h8.85C194.868,216.995,193.248,215.435,190.818,215.435 M173.538,227.615
		c-3.93,0-6.66-2.94-6.66-6.99c0-3.93,2.76-6.84,6.66-6.84c2.16,0,4.05,0.96,5.13,2.52c-0.03-1.14-0.06-2.34-0.06-3.6v-6.9h1.83
		v21.509h-1.41l-0.27-2.37C177.678,226.595,175.848,227.615,173.538,227.615 M173.658,215.495c-2.94,0-4.95,2.16-4.95,5.19
		c0,3.03,2.01,5.19,4.95,5.19c3.06,0,5.01-2.19,5.01-5.19C178.668,217.685,176.658,215.495,173.658,215.495 M135.049,227.615
		c-3.93,0-6.66-2.94-6.66-6.99c0-3.93,2.76-6.84,6.66-6.84c2.16,0,4.05,0.96,5.13,2.52c-0.03-1.14-0.06-2.34-0.06-3.6v-6.9h1.83
		v21.509h-1.41l-0.27-2.37C139.189,226.595,137.359,227.615,135.049,227.615 M135.169,215.495c-2.94,0-4.95,2.16-4.95,5.19
		c0,3.03,2.01,5.19,4.95,5.19c3.06,0,5.01-2.19,5.01-5.19C140.179,217.685,138.169,215.495,135.169,215.495 M281.717,227.555
		c-2.58,0-4.23-1.41-4.23-3.69c0-2.97,2.73-4.68,6.63-4.68c0.99,0,1.74,0.03,2.43,0.12v-0.9c0-1.86-1.32-2.79-3.36-2.79
		c-1.44,0-2.91,0.42-4.38,1.11l-0.63-1.56c1.8-0.84,3.51-1.26,5.19-1.26c3.03,0,5.04,1.59,5.04,4.59v8.82h-1.35l-0.33-2.4
		C285.767,226.505,284.056,227.555,281.717,227.555 M284.386,220.715c-3.12,0-4.98,1.08-4.98,3.03c0,1.32,0.96,2.1,2.61,2.1
		c2.73,0,4.44-1.98,4.53-5.01C285.826,220.745,285.257,220.715,284.386,220.715 M229.008,227.555c-3.3,0-4.83-2.19-4.83-5.43v-8.069
		h1.83v8.1c0,2.16,0.84,3.69,3.21,3.69c2.64,0,4.2-2.37,4.2-5.19v-6.6h1.83v13.259h-1.41l-0.36-2.31
		C232.697,226.415,231.198,227.555,229.008,227.555 M149.809,227.555c-2.58,0-4.23-1.41-4.23-3.69c0-2.97,2.73-4.68,6.63-4.68
		c0.99,0,1.74,0.03,2.43,0.12v-0.9c0-1.86-1.32-2.79-3.36-2.79c-1.44,0-2.91,0.42-4.38,1.11l-0.63-1.56
		c1.8-0.84,3.51-1.26,5.19-1.26c3.03,0,5.04,1.59,5.04,4.59v8.82h-1.35l-0.33-2.4C153.859,226.505,152.149,227.555,149.809,227.555
		 M152.479,220.715c-3.12,0-4.98,1.08-4.98,3.03c0,1.32,0.96,2.1,2.61,2.1c2.73,0,4.44-1.98,4.53-5.01
		C153.918,220.745,153.349,220.715,152.479,220.715 M118.159,227.555c-2.58,0-4.23-1.41-4.23-3.69c0-2.97,2.73-4.68,6.63-4.68
		c0.99,0,1.74,0.03,2.43,0.12v-0.9c0-1.86-1.32-2.79-3.36-2.79c-1.44,0-2.91,0.42-4.38,1.11l-0.63-1.56
		c1.8-0.84,3.51-1.26,5.19-1.26c3.03,0,5.04,1.59,5.04,4.59v8.82h-1.35l-0.33-2.4C122.209,226.505,120.5,227.555,118.159,227.555
		 M120.829,220.715c-3.12,0-4.98,1.08-4.98,3.03c0,1.32,0.96,2.1,2.61,2.1c2.73,0,4.44-1.98,4.53-5.01
		C122.269,220.745,121.699,220.715,120.829,220.715 M97.25,227.555c-2.58,0-4.23-1.41-4.23-3.69c0-2.97,2.73-4.68,6.63-4.68
		c0.99,0,1.74,0.03,2.43,0.12v-0.9c0-1.86-1.32-2.79-3.36-2.79c-1.44,0-2.91,0.42-4.38,1.11l-0.63-1.56
		c1.8-0.84,3.51-1.26,5.19-1.26c3.03,0,5.04,1.59,5.04,4.59v8.82h-1.35l-0.33-2.4C101.3,226.505,99.59,227.555,97.25,227.555
		 M99.92,220.715c-3.12,0-4.98,1.08-4.98,3.03c0,1.32,0.96,2.1,2.61,2.1c2.73,0,4.44-1.98,4.53-5.01
		C101.36,220.745,100.79,220.715,99.92,220.715 M85.97,227.555c-1.86,0-3.42-0.51-4.83-1.47l0.93-1.44c1.17,0.84,2.43,1.2,3.9,1.2
		c1.62,0,2.67-0.81,2.67-2.01c0-1.29-1.47-1.95-3.06-2.58c-2.16-0.84-3.96-1.86-3.96-3.99c0-2.22,2.04-3.36,4.29-3.36
		c1.44,0,2.82,0.42,4.02,1.2l-0.81,1.32c-0.96-0.54-2.04-0.84-3.12-0.84c-1.35,0-2.55,0.45-2.55,1.68c0,1.2,1.23,1.8,2.79,2.4
		c2.4,0.9,4.23,1.95,4.23,4.17C90.47,226.055,88.58,227.555,85.97,227.555 M257.597,227.315h-1.83v-8.13c0-2.25-0.84-3.69-3.06-3.69
		c-2.67,0-4.44,1.92-4.44,4.68v7.14h-1.83v-13.259h1.38l0.42,2.25c0.78-1.41,2.4-2.52,4.65-2.52c3.09,0,4.71,1.98,4.71,5.43V227.315
		 M241.757,227.315h-1.83v-13.259h1.83V227.315 M110.3,227.315h-1.83l-0.03-21.509h1.83L110.3,227.315 M77.69,227.315h-1.83v-8.13
		c0-2.25-0.84-3.69-3.06-3.69c-2.67,0-4.44,1.92-4.44,4.68v7.14h-1.83v-13.259h1.38l0.42,2.25c0.78-1.41,2.4-2.52,4.65-2.52
		c3.09,0,4.71,1.98,4.71,5.43V227.315 M62.931,227.315h-12.45v-20.399H62.66v1.8H52.461v7.26h8.969v1.77h-8.969v7.77h10.47V227.315
		 M240.857,210.576c-0.84,0-1.38-0.6-1.38-1.32c0-0.78,0.54-1.38,1.38-1.38s1.38,0.6,1.38,1.38
		C242.238,210.005,241.667,210.576,240.857,210.576"/>
	<path fill="#9D9D9C" d="M888.737,208.518l-5.496,3l0.984,1.992l2.136-1.056l0.6-0.312c-0.12,0.432-0.192,0.864-0.288,1.32
		l-1.992,11.041h2.808l2.808-15.985z M896.561,224.792c3.864,0,6.265-3.096,7.129-8.041c0.144-0.864,0.216-1.68,0.216-2.424
		c0-3.696-1.8-5.977-4.728-5.977c-3.96,0-6.241,3.072-7.129,8.017c-0.144,0.888-0.24,1.704-0.24,2.472
		C891.809,222.536,893.585,224.792,896.561,224.792z M896.753,222.344c-1.464,0-2.184-1.368-2.184-3.504
		c0-0.672,0.072-1.44,0.216-2.256c0.624-3.552,2.16-5.785,4.2-5.785c1.464,0,2.16,1.344,2.16,3.456c0,0.696-0.072,1.464-0.216,2.28
		C900.305,220.087,898.793,222.344,896.753,222.344z M907.024,221.48c-0.816,0-1.584,0.504-1.776,1.464
		c-0.024,0.12-0.024,0.24-0.024,0.336c0,0.912,0.648,1.512,1.392,1.512h0.12c-0.36,1.008-1.032,1.776-2.04,2.544l0.576,0.696
		c1.68-1.128,2.808-2.64,3.216-4.296c0.072-0.24,0.096-0.48,0.096-0.696C908.585,222.008,907.889,221.48,907.024,221.48z
		 M922.745,211.063l0.432-2.424h-7.993l-2.352,8.113l0.408,0.312c0.888-0.312,1.8-0.504,2.736-0.504
		c1.776,0,3.048,0.792,3.048,2.328c0,0.192,0,0.384-0.048,0.6c-0.336,1.848-1.872,2.784-3.672,2.784
		c-1.44,0-2.472-0.528-3.048-1.392l-1.68,1.848c0.984,1.272,2.688,2.088,4.8,2.088c3.288,0,5.833-1.896,6.337-4.92
		c0.072-0.432,0.12-0.816,0.12-1.2c0-2.736-1.944-4.2-4.848-4.2c-0.384,0-0.72,0.024-1.032,0.048l1.056-3.48z M928.768,224.792
		c3.864,0,6.265-3.096,7.129-8.041c0.144-0.864,0.216-1.68,0.216-2.424c0-3.696-1.8-5.977-4.728-5.977
		c-3.96,0-6.241,3.072-7.129,8.017c-0.144,0.888-0.24,1.704-0.24,2.472C924.016,222.536,925.792,224.792,928.768,224.792z
		 M928.961,222.344c-1.464,0-2.184-1.368-2.184-3.504c0-0.672,0.072-1.44,0.216-2.256c0.624-3.552,2.16-5.785,4.2-5.785
		c1.464,0,2.16,1.344,2.16,3.456c0,0.696-0.072,1.464-0.216,2.28C932.513,220.087,931.001,222.344,928.961,222.344z"/>
	<path fill="#9D9D9C" d="M946.278,211.141c0.76,0,1.34,0.12,1.9,0.34l1-1.82c-0.88-0.4-1.7-0.62-2.881-0.62
		c-3.461,0-5.941,1.88-6.982,4.741h-1.5l-0.24,1.4h1.36c-0.06,0.36-0.12,0.74-0.14,1.12h-1.42l-0.26,1.4h1.7
		c0.26,2.861,2.24,5.041,5.501,5.041c1.04,0,1.92-0.18,2.801-0.6l-0.44-1.96c-0.64,0.32-1.26,0.46-2.06,0.46
		c-2.12,0-3.181-1.16-3.461-2.941h2.921l0.78-1.4h-3.741c0.02-0.38,0.06-0.76,0.16-1.12h4.161l0.76-1.4h-4.421
		C942.617,212.182,944.177,211.141,946.278,211.141z"/>
	<path fill="#7AC3A5" d="M14.701,251.167c-2.641,0-4.401,1.8-4.401,4.381c0,2.681,1.84,4.101,4.001,4.101
		c1.06,0,1.98-0.26,2.681-0.94c-0.44,2.381-2.2,3.981-5.301,4.201l0.28,1.96c5.181-0.4,7.382-3.721,7.382-8.362
		C19.342,253.587,17.922,251.167,14.701,251.167z M14.761,257.748c-1.2,0-2.2-0.74-2.2-2.24c0-1.4,0.96-2.28,2.2-2.28
		c1.32,0,2.26,0.9,2.26,2.24C17.022,256.928,16.101,257.748,14.761,257.748z"/>
	<path fill="#000000" d="M233.118,269.645c-4.02,0-6.84-2.88-6.84-6.99c0-3.84,2.76-6.93,6.69-6.93c3.69,0,5.88,2.55,5.88,6.42
		c0,0.42-0.03,0.84-0.09,1.29h-10.62c0.3,2.82,2.46,4.5,4.95,4.5c1.86,0,3.03-0.57,4.05-1.62l1.05,1.32
		C236.838,268.925,235.218,269.645,233.118,269.645 M232.938,257.435c-2.46,0-4.38,1.74-4.74,4.38h8.85
		C236.987,258.995,235.368,257.435,232.938,257.435 M198.138,269.645c-4.02,0-6.84-2.88-6.84-6.99c0-3.84,2.76-6.93,6.69-6.93
		c3.69,0,5.88,2.55,5.88,6.42c0,0.42-0.03,0.84-0.09,1.29h-10.62c0.3,2.82,2.46,4.5,4.95,4.5c1.86,0,3.03-0.57,4.05-1.62l1.05,1.32
		C201.858,268.925,200.237,269.645,198.138,269.645 M197.958,257.435c-2.46,0-4.38,1.74-4.74,4.38h8.85
		C202.007,258.995,200.388,257.435,197.958,257.435 M257.837,269.615c-3.93,0-6.66-2.94-6.66-6.99c0-3.93,2.76-6.84,6.66-6.84
		c2.16,0,4.05,0.96,5.13,2.52c-0.03-1.14-0.06-2.34-0.06-3.6v-6.9h1.83v21.509h-1.41l-0.27-2.37
		C261.977,268.595,260.147,269.615,257.837,269.615 M257.957,257.495c-2.94,0-4.95,2.16-4.95,5.19c0,3.03,2.01,5.19,4.95,5.19
		c3.06,0,5.01-2.19,5.01-5.19C262.967,259.685,260.957,257.495,257.957,257.495 M180.678,269.615c-3.93,0-6.66-2.94-6.66-6.99
		c0-3.93,2.76-6.84,6.66-6.84c2.16,0,4.05,0.96,5.13,2.52c-0.03-1.14-0.06-2.34-0.06-3.6v-6.9h1.83v21.509h-1.41l-0.27-2.37
		C184.818,268.595,182.988,269.615,180.678,269.615 M180.798,257.495c-2.94,0-4.95,2.16-4.95,5.19c0,3.03,2.01,5.19,4.95,5.19
		c3.06,0,5.01-2.19,5.01-5.19C185.808,259.685,183.798,257.495,180.798,257.495 M142.189,269.615c-3.93,0-6.66-2.94-6.66-6.99
		c0-3.93,2.76-6.84,6.66-6.84c2.16,0,4.05,0.96,5.13,2.52c-0.03-1.14-0.06-2.34-0.06-3.6v-6.9h1.83v21.509h-1.41l-0.27-2.37
		C146.329,268.595,144.499,269.615,142.189,269.615 M142.309,257.495c-2.94,0-4.95,2.16-4.95,5.19c0,3.03,2.01,5.19,4.95,5.19
		c3.06,0,5.01-2.19,5.01-5.19C147.319,259.685,145.309,257.495,142.309,257.495 M313.186,269.555c-1.86,0-3.42-0.51-4.83-1.47
		l0.93-1.44c1.17,0.84,2.43,1.2,3.9,1.2c1.62,0,2.67-0.81,2.67-2.01c0-1.29-1.47-1.95-3.06-2.58c-2.16-0.84-3.96-1.86-3.96-3.99
		c0-2.22,2.04-3.36,4.29-3.36c1.44,0,2.82,0.42,4.02,1.2l-0.81,1.32c-0.96-0.54-2.04-0.84-3.12-0.84c-1.35,0-2.55,0.45-2.55,1.68
		c0,1.2,1.23,1.8,2.79,2.4c2.4,0.9,4.23,1.95,4.23,4.17C317.686,268.055,315.796,269.555,313.186,269.555 M298.217,269.555
		c-2.58,0-4.23-1.41-4.23-3.69c0-2.97,2.73-4.68,6.63-4.68c0.99,0,1.74,0.03,2.43,0.12v-0.9c0-1.86-1.32-2.79-3.36-2.79
		c-1.44,0-2.91,0.42-4.38,1.11l-0.63-1.56c1.8-0.84,3.51-1.26,5.19-1.26c3.03,0,5.04,1.59,5.04,4.59v8.82h-1.35l-0.33-2.4
		C302.267,268.505,300.557,269.555,298.217,269.555 M300.887,262.715c-3.12,0-4.98,1.08-4.98,3.03c0,1.32,0.96,2.1,2.61,2.1
		c2.73,0,4.44-1.98,4.53-5.01C302.327,262.745,301.756,262.715,300.887,262.715 M274.067,269.555c-3.3,0-4.83-2.19-4.83-5.43v-8.07
		h1.83v8.1c0,2.16,0.84,3.69,3.21,3.69c2.64,0,4.2-2.37,4.2-5.19v-6.6h1.83v13.26h-1.41l-0.36-2.31
		C277.757,268.415,276.257,269.555,274.067,269.555 M156.949,269.555c-2.58,0-4.23-1.41-4.23-3.69c0-2.97,2.73-4.68,6.63-4.68
		c0.99,0,1.74,0.03,2.43,0.12v-0.9c0-1.86-1.32-2.79-3.36-2.79c-1.44,0-2.91,0.42-4.38,1.11l-0.63-1.56
		c1.8-0.84,3.51-1.26,5.19-1.26c3.03,0,5.04,1.59,5.04,4.59v8.82h-1.35l-0.33-2.4C160.998,268.505,159.288,269.555,156.949,269.555
		 M159.618,262.715c-3.12,0-4.98,1.08-4.98,3.03c0,1.32,0.96,2.1,2.61,2.1c2.73,0,4.44-1.98,4.53-5.01
		C161.058,262.745,160.489,262.715,159.618,262.715 M125.299,269.555c-2.58,0-4.23-1.41-4.23-3.69c0-2.97,2.73-4.68,6.63-4.68
		c0.99,0,1.74,0.03,2.43,0.12v-0.9c0-1.86-1.32-2.79-3.36-2.79c-1.44,0-2.91,0.42-4.38,1.11l-0.63-1.56
		c1.8-0.84,3.51-1.26,5.19-1.26c3.03,0,5.04,1.59,5.04,4.59v8.82h-1.35l-0.33-2.4C129.349,268.505,127.639,269.555,125.299,269.555
		 M127.969,262.715c-3.12,0-4.98,1.08-4.98,3.03c0,1.32,0.96,2.1,2.61,2.1c2.73,0,4.44-1.98,4.53-5.01
		C129.409,262.745,128.839,262.715,127.969,262.715 M70.341,269.555c-2.58,0-4.23-1.41-4.23-3.69c0-2.97,2.73-4.68,6.63-4.68
		c0.99,0,1.74,0.03,2.43,0.12v-0.9c0-1.86-1.32-2.79-3.36-2.79c-1.44,0-2.91,0.42-4.38,1.11l-0.63-1.56
		c1.8-0.84,3.51-1.26,5.19-1.26c3.03,0,5.04,1.59,5.04,4.59v8.82h-1.35l-0.33-2.4C74.391,268.505,72.681,269.555,70.341,269.555
		 M73.011,262.715c-3.12,0-4.98,1.08-4.98,3.03c0,1.32,0.96,2.1,2.61,2.1c2.73,0,4.44-1.98,4.53-5.01
		C74.451,262.745,73.881,262.715,73.011,262.715 M218.808,269.465h-0.66l-6.21-13.349v-0.06h1.98l3.84,8.49
		c0.27,0.6,0.51,1.2,0.72,1.89c0.21-0.69,0.45-1.29,0.72-1.89l3.81-8.49h1.98v0.06L218.808,269.465 M286.817,269.315h-1.83v-13.26
		h1.38l0.36,1.95c0.75-1.38,2.01-2.22,3.87-2.22c0.84,0,1.56,0.18,2.16,0.45l-0.54,1.62c-0.51-0.18-1.02-0.33-1.77-0.33
		c-2.16,0-3.63,1.53-3.63,4.11V269.315 M244.218,269.315h-1.83v-13.26h1.38l0.36,1.95c0.75-1.38,2.01-2.22,3.87-2.22
		c0.84,0,1.56,0.18,2.16,0.45l-0.54,1.62c-0.51-0.18-1.02-0.33-1.77-0.33c-2.16,0-3.63,1.53-3.63,4.11V269.315 M117.44,269.315
		h-1.83l-0.03-21.509h1.83L117.44,269.315 M110.9,269.315h-1.83l-0.03-21.509h1.83L110.9,269.315 M104.36,269.315h-1.83v-13.26h1.83
		V269.315 M93.861,269.315h-1.83v-13.26h1.38l0.36,1.95c0.75-1.38,2.01-2.22,3.87-2.22c0.84,0,1.56,0.18,2.16,0.45l-0.54,1.62
		c-0.51-0.18-1.02-0.33-1.77-0.33c-2.16,0-3.63,1.53-3.63,4.11V269.315 M83.361,269.315h-1.83v-13.26h1.38l0.36,1.95
		c0.75-1.38,2.01-2.22,3.87-2.22c0.84,0,1.56,0.18,2.16,0.45l-0.54,1.62c-0.51-0.18-1.02-0.33-1.77-0.33
		c-2.16,0-3.63,1.53-3.63,4.11V269.315 M52.461,269.315h-1.98v-20.399h7.53c4.26,0,6.42,3.33,6.42,6.21c0,2.85-2.04,6-6.54,6h-5.43
		V269.315 M52.461,250.715v8.61h5.4c3.12,0,4.59-2.1,4.59-4.23c0-2.34-1.77-4.38-4.47-4.38H52.461 M103.46,252.575
		c-0.84,0-1.38-0.6-1.38-1.32c0-0.78,0.54-1.38,1.38-1.38c0.84,0,1.38,0.6,1.38,1.38C104.84,252.006,104.27,252.575,103.46,252.575"
		/>
	<path fill="#9D9D9C" d="M889.889,250.518l-5.496,3l0.984,1.992l2.136-1.056l0.6-0.312c-0.12,0.432-0.192,0.864-0.288,1.32
		l-1.992,11.041h2.808l2.808-15.985z M899.393,256.615c-1.224,0-2.232,0.36-3.264,1.176c1.2-3.072,3.696-5.064,7.393-4.992
		l-0.168-2.448c-6.145,0.168-9.337,4.032-10.345,9.169l-0.072,0.336c-0.12,0.624-0.168,1.2-0.168,1.776
		c0,3.048,1.608,5.16,4.848,5.16c3,0,5.28-1.968,5.833-5.016c0.072-0.36,0.096-0.696,0.096-1.008
		C903.546,258.247,901.793,256.615,899.393,256.615z M900.785,261.703c-0.288,1.656-1.488,2.64-3.048,2.64
		c-1.392,0-2.328-0.888-2.328-2.28c0-0.168,0.024-0.36,0.048-0.552c0.264-1.488,1.344-2.568,3.096-2.616
		c1.512,0,2.28,0.936,2.28,2.232C900.833,261.319,900.809,261.511,900.785,261.703z M907.024,263.48
		c-0.816,0-1.584,0.504-1.776,1.464c-0.024,0.12-0.024,0.24-0.024,0.336c0,0.912,0.648,1.512,1.392,1.512h0.12
		c-0.36,1.008-1.032,1.776-2.04,2.544l0.576,0.696c1.68-1.128,2.808-2.64,3.216-4.296c0.072-0.24,0.096-0.48,0.096-0.696
		C908.585,264.008,907.889,263.48,907.024,263.48z M922.745,253.063l0.432-2.424h-7.993l-2.352,8.113l0.408,0.312
		c0.888-0.312,1.8-0.504,2.736-0.504c1.776,0,3.048,0.792,3.048,2.328c0,0.192,0,0.384-0.048,0.6
		c-0.336,1.848-1.872,2.784-3.672,2.784c-1.44,0-2.472-0.528-3.048-1.392l-1.68,1.848c0.984,1.272,2.688,2.088,4.8,2.088
		c3.288,0,5.833-1.896,6.337-4.92c0.072-0.432,0.12-0.816,0.12-1.2c0-2.736-1.944-4.2-4.848-4.2c-0.384,0-0.72,0.024-1.032,0.048
		l1.056-3.48z M928.768,266.792c3.864,0,6.265-3.096,7.129-8.041c0.144-0.864,0.216-1.68,0.216-2.424c0-3.696-1.8-5.977-4.728-5.977
		c-3.96,0-6.241,3.072-7.129,8.017c-0.144,0.888-0.24,1.704-0.24,2.472C924.016,264.536,925.792,266.792,928.768,266.792z
		 M928.961,264.344c-1.464,0-2.184-1.368-2.184-3.504c0-0.672,0.072-1.44,0.216-2.256c0.624-3.552,2.16-5.785,4.2-5.785
		c1.464,0,2.16,1.344,2.16,3.456c0,0.696-0.072,1.464-0.216,2.28C932.513,262.087,931.001,264.344,928.961,264.344z"/>
	<path fill="#9D9D9C" d="M946.278,253.141c0.76,0,1.34,0.12,1.9,0.34l1-1.82c-0.88-0.4-1.7-0.62-2.881-0.62
		c-3.461,0-5.941,1.88-6.982,4.741h-1.5l-0.24,1.4h1.36c-0.06,0.36-0.12,0.74-0.14,1.12h-1.42l-0.26,1.4h1.7
		c0.26,2.861,2.24,5.041,5.501,5.041c1.04,0,1.92-0.18,2.801-0.6l-0.44-1.96c-0.64,0.32-1.26,0.46-2.06,0.46
		c-2.12,0-3.181-1.16-3.461-2.941h2.921l0.78-1.4h-3.741c0.02-0.38,0.06-0.76,0.16-1.12h4.161l0.76-1.4h-4.421
		C942.617,254.182,944.177,253.141,946.278,253.141z"/>
</g>
</svg>
