<!-- Generator: Adobe InDesign 21.0 SVG Export Plug-in, SVG Library version: 9.3 build 128 -->
<!DOCTYPE svg PUBLIC "-//W3C//DTD SVG 1.1//EN" "http://www.w3.org/Graphics/SVG/1.1/DTD/svg11.dtd">
<svg version="1.1" xmlns="http://www.w3.org/2000/svg" xmlns:xlink="http://www.w3.org/1999/xlink" x="0%" y="0%" width="100%"
	 height="100%" viewBox="0 0 977.626 505.26" preserveAspectRatio="xMidYMid slice" overflow="visible" xml:space="preserve">
<clipPath id="clp_unq_id_1" fill="none">
	<path shape-rendering="crispEdges" stroke="#000000" d="M0,0h977.626v505.26H0V0"/>
</clipPath>
<g clip-path="url(#clp_unq_id_1)" fill="none">
	<path fill="#000000" d="M158.687,69.955l-0.24-1.62c3-0.24,3.63-1.53,3.63-4.38V49.795h1.83v14.07
		C163.907,67.825,162.767,69.715,158.687,69.955 M340.064,69.655h-1.92v-0.06l2.94-6.87l-5.79-12.87v-0.06h1.92l3.81,8.49
		c0.33,0.78,0.66,1.53,0.96,2.46c0.3-0.93,0.6-1.71,0.9-2.46l3.45-8.49h1.89v0.06L340.064,69.655 M239.895,66.685l-0.6-0.57
		c0.9-0.96,1.44-1.74,1.56-2.79l-0.3,0.03c-0.81,0-1.41-0.54-1.41-1.38c0-0.96,0.72-1.41,1.41-1.41c0.78,0,1.44,0.51,1.44,1.83
		C241.995,64.045,241.215,65.485,239.895,66.685 M148.277,66.685l-0.6-0.57c0.9-0.96,1.44-1.74,1.56-2.79l-0.3,0.03
		c-0.81,0-1.41-0.54-1.41-1.38c0-0.96,0.72-1.41,1.41-1.41c0.78,0,1.44,0.51,1.44,1.83
		C150.377,64.045,149.597,65.485,148.277,66.685 M20.96,63.415c-2.76,0-5.28-0.99-7.02-2.46l1.02-1.56c1.53,1.38,3.66,2.19,6,2.19
		c2.55,0,4.77-1.35,4.77-3.78c0-2.52-2.34-3.51-5.01-4.44c-3-1.05-6.21-2.55-6.21-5.97c0-3.21,2.94-5.1,6.24-5.1
		c2.28,0,4.23,0.6,6.18,2.04l-0.9,1.5c-1.65-1.17-3.27-1.71-5.19-1.71c-2.19,0-4.32,1.05-4.32,3.18c0,2.49,2.46,3.39,4.92,4.26
		c3.36,1.2,6.27,2.7,6.27,6.15C27.71,61.285,24.71,63.415,20.96,63.415 M449.502,63.385c-4.02,0-6.84-2.88-6.84-6.99
		c0-3.84,2.76-6.93,6.69-6.93c3.69,0,5.88,2.55,5.88,6.42c0,0.42-0.03,0.84-0.09,1.29h-10.619c0.3,2.82,2.46,4.5,4.95,4.5
		c1.86,0,3.03-0.57,4.05-1.62l1.05,1.32C453.222,62.665,451.602,63.385,449.502,63.385 M449.322,51.176c-2.46,0-4.38,1.74-4.74,4.38
		h8.849C453.372,52.735,451.752,51.176,449.322,51.176 M417.343,63.385c-3.99,0-6.84-2.88-6.84-6.96s2.85-6.96,6.84-6.96
		c4.05,0,6.9,2.88,6.9,6.96S421.393,63.385,417.343,63.385 M417.343,51.176c-2.94,0-4.98,2.19-4.98,5.25c0,3.09,2.04,5.25,4.98,5.25
		c2.97,0,5.04-2.16,5.04-5.25C422.383,53.365,420.343,51.176,417.343,51.176 M304.424,63.385c-3.99,0-6.84-2.88-6.84-6.96
		s2.85-6.96,6.84-6.96c4.05,0,6.9,2.88,6.9,6.96S308.474,63.385,304.424,63.385 M304.424,51.176c-2.94,0-4.98,2.19-4.98,5.25
		c0,3.09,2.04,5.25,4.98,5.25c2.97,0,5.04-2.16,5.04-5.25C309.464,53.365,307.424,51.176,304.424,51.176 M290.564,63.385
		c-3.3,0-6.6-2.43-6.6-6.99c0-4.38,3.18-6.9,6.78-6.9c1.92,0,3.39,0.6,4.74,1.8l-1.05,1.26c-1.08-0.93-2.13-1.35-3.69-1.35
		c-2.76,0-4.92,2.07-4.92,5.19c0,3.18,2.13,5.28,4.89,5.28c1.8,0,2.88-0.57,3.96-1.59l1.02,1.32
		C294.314,62.695,292.874,63.385,290.564,63.385 M212.806,63.385c-3.99,0-6.84-2.88-6.84-6.96s2.85-6.96,6.84-6.96
		c4.05,0,6.9,2.88,6.9,6.96S216.856,63.385,212.806,63.385 M212.806,51.176c-2.94,0-4.98,2.19-4.98,5.25c0,3.09,2.04,5.25,4.98,5.25
		c2.97,0,5.04-2.16,5.04-5.25C217.846,53.365,215.806,51.176,212.806,51.176 M37.25,63.385c-3.99,0-6.84-2.88-6.84-6.96
		s2.85-6.96,6.84-6.96c4.05,0,6.9,2.88,6.9,6.96S41.3,63.385,37.25,63.385 M37.25,51.176c-2.94,0-4.98,2.19-4.98,5.25
		c0,3.09,2.04,5.25,4.98,5.25c2.97,0,5.04-2.16,5.04-5.25C42.29,53.365,40.25,51.176,37.25,51.176 M260.475,63.355
		c-2.25,0-4.11-0.99-5.22-2.61l-0.27,2.31h-1.41V41.546h1.83v6.9c0,1.26-0.03,2.49-0.06,3.66c1.08-1.62,2.97-2.58,5.13-2.58
		c3.9,0,6.66,2.91,6.66,6.84C267.134,60.415,264.404,63.355,260.475,63.355 M260.354,51.236c-3,0-5.04,2.19-5.04,5.19
		c0,3,1.98,5.19,5.04,5.19c2.94,0,4.95-2.16,4.95-5.19S263.294,51.236,260.354,51.236 M121.518,63.355c-3.93,0-6.66-2.94-6.66-6.99
		c0-3.93,2.76-6.84,6.66-6.84c2.16,0,4.05,0.96,5.13,2.52c-0.03-1.14-0.06-2.34-0.06-3.6v-6.9h1.83v21.509h-1.41l-0.27-2.37
		C125.658,62.335,123.828,63.355,121.518,63.355 M121.638,51.236c-2.94,0-4.95,2.16-4.95,5.19s2.01,5.19,4.95,5.19
		c3.06,0,5.01-2.19,5.01-5.19C126.648,53.425,124.638,51.236,121.638,51.236 M54.769,63.355c-2.25,0-4.11-0.99-5.22-2.61l-0.27,2.31
		h-1.41V41.546h1.83v6.9c0,1.26-0.03,2.49-0.06,3.66c1.08-1.62,2.97-2.58,5.13-2.58c3.9,0,6.66,2.91,6.66,6.84
		C61.429,60.415,58.699,63.355,54.769,63.355 M54.649,51.236c-3,0-5.04,2.19-5.04,5.19c0,3,1.98,5.19,5.04,5.19
		c2.94,0,4.95-2.16,4.95-5.19S57.589,51.236,54.649,51.236 M473.832,63.295c-2.58,0-4.23-1.41-4.23-3.69c0-2.97,2.73-4.68,6.63-4.68
		c0.99,0,1.74,0.03,2.43,0.12v-0.9c0-1.86-1.32-2.79-3.36-2.79c-1.44,0-2.91,0.42-4.38,1.11l-0.63-1.56
		c1.8-0.84,3.51-1.26,5.19-1.26c3.03,0,5.04,1.59,5.04,4.59v8.82h-1.35l-0.33-2.4C477.882,62.245,476.172,63.295,473.832,63.295
		 M476.502,56.455c-3.12,0-4.98,1.08-4.98,3.03c0,1.32,0.96,2.1,2.61,2.1c2.73,0,4.44-1.98,4.53-5.01
		C477.942,56.485,477.372,56.455,476.502,56.455 M462.552,63.295c-1.86,0-3.42-0.51-4.83-1.47l0.93-1.44c1.17,0.84,2.43,1.2,3.9,1.2
		c1.62,0,2.67-0.81,2.67-2.01c0-1.29-1.47-1.95-3.06-2.58c-2.16-0.84-3.96-1.86-3.96-3.99c0-2.22,2.04-3.36,4.29-3.36
		c1.44,0,2.82,0.42,4.02,1.2l-0.81,1.32c-0.96-0.54-2.04-0.84-3.12-0.84c-1.35,0-2.55,0.45-2.55,1.68c0,1.2,1.23,1.8,2.79,2.4
		c2.4,0.9,4.23,1.95,4.23,4.17C467.052,61.795,465.162,63.295,462.552,63.295 M384.614,63.295c-2.58,0-4.23-1.41-4.23-3.69
		c0-2.97,2.73-4.68,6.63-4.68c0.99,0,1.74,0.03,2.43,0.12v-0.9c0-1.86-1.32-2.79-3.36-2.79c-1.44,0-2.91,0.42-4.38,1.11l-0.63-1.56
		c1.8-0.84,3.51-1.26,5.19-1.26c3.03,0,5.04,1.59,5.04,4.59v8.82h-1.35l-0.33-2.4C388.663,62.245,386.953,63.295,384.614,63.295
		 M387.283,56.455c-3.12,0-4.98,1.08-4.98,3.03c0,1.32,0.96,2.1,2.61,2.1c2.73,0,4.44-1.98,4.53-5.01
		C388.723,56.485,388.153,56.455,387.283,56.455 M273.735,63.295c-2.58,0-4.23-1.41-4.23-3.69c0-2.97,2.73-4.68,6.63-4.68
		c0.99,0,1.74,0.03,2.43,0.12v-0.9c0-1.86-1.32-2.79-3.36-2.79c-1.44,0-2.91,0.42-4.38,1.11l-0.63-1.56
		c1.8-0.84,3.51-1.26,5.19-1.26c3.03,0,5.04,1.59,5.04,4.59v8.82h-1.35l-0.33-2.4C277.784,62.245,276.074,63.295,273.735,63.295
		 M276.404,56.455c-3.12,0-4.98,1.08-4.98,3.03c0,1.32,0.96,2.1,2.61,2.1c2.73,0,4.44-1.98,4.53-5.01
		C277.844,56.485,277.274,56.455,276.404,56.455 M171.737,63.295c-2.58,0-4.23-1.41-4.23-3.69c0-2.97,2.73-4.68,6.63-4.68
		c0.99,0,1.74,0.03,2.43,0.12v-0.9c0-1.86-1.32-2.79-3.36-2.79c-1.44,0-2.91,0.42-4.38,1.11l-0.63-1.56
		c1.8-0.84,3.51-1.26,5.19-1.26c3.03,0,5.04,1.59,5.04,4.59v8.82h-1.35l-0.33-2.4C175.786,62.245,174.077,63.295,171.737,63.295
		 M174.406,56.455c-3.12,0-4.98,1.08-4.98,3.03c0,1.32,0.96,2.1,2.61,2.1c2.73,0,4.44-1.98,4.53-5.01
		C175.846,56.485,175.277,56.455,174.406,56.455 M136.278,63.295c-2.58,0-4.23-1.41-4.23-3.69c0-2.97,2.73-4.68,6.63-4.68
		c0.99,0,1.74,0.03,2.43,0.12v-0.9c0-1.86-1.32-2.79-3.36-2.79c-1.44,0-2.91,0.42-4.38,1.11l-0.63-1.56
		c1.8-0.84,3.51-1.26,5.19-1.26c3.03,0,5.04,1.59,5.04,4.59v8.82h-1.35l-0.33-2.4C140.328,62.245,138.618,63.295,136.278,63.295
		 M138.948,56.455c-3.12,0-4.98,1.08-4.98,3.03c0,1.32,0.96,2.1,2.61,2.1c2.73,0,4.44-1.98,4.53-5.01
		C140.388,56.485,139.818,56.455,138.948,56.455 M104.628,63.295c-2.58,0-4.23-1.41-4.23-3.69c0-2.97,2.73-4.68,6.63-4.68
		c0.99,0,1.74,0.03,2.43,0.12v-0.9c0-1.86-1.32-2.79-3.36-2.79c-1.44,0-2.91,0.42-4.38,1.11l-0.63-1.56
		c1.8-0.84,3.51-1.26,5.19-1.26c3.03,0,5.04,1.59,5.04,4.59v8.82h-1.35l-0.33-2.4C108.678,62.245,106.968,63.295,104.628,63.295
		 M107.298,56.455c-3.12,0-4.98,1.08-4.98,3.03c0,1.32,0.96,2.1,2.61,2.1c2.73,0,4.44-1.98,4.53-5.01
		C108.738,56.485,108.168,56.455,107.298,56.455 M93.348,63.295c-1.86,0-3.42-0.51-4.83-1.47l0.93-1.44c1.17,0.84,2.43,1.2,3.9,1.2
		c1.62,0,2.67-0.81,2.67-2.01c0-1.29-1.47-1.95-3.06-2.58c-2.16-0.84-3.96-1.86-3.96-3.99c0-2.22,2.04-3.36,4.29-3.36
		c1.44,0,2.82,0.42,4.02,1.2l-0.81,1.32c-0.96-0.54-2.04-0.84-3.12-0.84c-1.35,0-2.55,0.45-2.55,1.68c0,1.2,1.23,1.8,2.79,2.4
		c2.4,0.9,4.23,1.95,4.23,4.17C97.848,61.795,95.958,63.295,93.348,63.295 M78.379,63.295c-2.58,0-4.23-1.41-4.23-3.69
		c0-2.97,2.73-4.68,6.63-4.68c0.99,0,1.74,0.03,2.43,0.12v-0.9c0-1.86-1.32-2.79-3.36-2.79c-1.44,0-2.91,0.42-4.38,1.11l-0.63-1.56
		c1.8-0.84,3.51-1.26,5.19-1.26c3.03,0,5.04,1.59,5.04,4.59v8.82h-1.35l-0.33-2.4C82.429,62.245,80.719,63.295,78.379,63.295
		 M81.049,56.455c-3.12,0-4.98,1.08-4.98,3.03c0,1.32,0.96,2.1,2.61,2.1c2.73,0,4.44-1.98,4.53-5.01
		C82.489,56.485,81.919,56.455,81.049,56.455 M439.122,63.055h-1.83v-8.13c0-2.25-0.84-3.69-3.06-3.69c-2.67,0-4.44,1.92-4.44,4.68
		v7.14h-1.83V49.795h1.38l0.42,2.25c0.78-1.41,2.4-2.52,4.65-2.52c3.09,0,4.71,1.98,4.71,5.43V63.055 M406.963,63.055h-1.83v-8.16
		c0-2.22-0.9-3.66-3.12-3.66c-2.82,0-4.38,2.4-4.38,5.28v6.54h-1.83V41.546h1.83v8.58c0,0.66,0,1.29-0.03,2.07
		c0.81-1.56,2.34-2.67,4.59-2.67c3.24,0,4.77,2.04,4.77,5.43V63.055 M376.933,63.055h-1.83v-8.4c0-2.13-1.08-3.42-2.94-3.42
		c-2.67,0-4.05,2.43-4.05,4.92v6.9h-1.83v-8.43c0-1.83-0.93-3.39-2.94-3.39c-2.7,0-4.08,2.43-4.08,4.92v6.9h-1.83V49.795h1.38
		l0.42,2.28c0.87-1.62,2.4-2.55,4.32-2.55c2.01,0,3.48,0.99,4.11,2.67c0.87-1.62,2.4-2.67,4.62-2.67c3.03,0,4.65,2.01,4.65,5.22
		V63.055 M326.203,63.055h-1.83v-8.13c0-2.25-0.84-3.69-3.06-3.69c-2.67,0-4.44,1.92-4.44,4.68v7.14h-1.83V49.795h1.38l0.42,2.25
		c0.78-1.41,2.4-2.52,4.65-2.52c3.09,0,4.71,1.98,4.71,5.43V63.055 M234.585,63.055h-1.83v-8.13c0-2.25-0.84-3.69-3.06-3.69
		c-2.67,0-4.44,1.92-4.44,4.68v7.14h-1.83V49.795h1.38l0.42,2.25c0.78-1.41,2.4-2.52,4.65-2.52c3.09,0,4.71,1.98,4.71,5.43V63.055
		 M202.426,63.055h-1.83v-8.4c0-2.13-1.08-3.42-2.94-3.42c-2.67,0-4.05,2.43-4.05,4.92v6.9h-1.83v-8.43c0-1.83-0.93-3.39-2.94-3.39
		c-2.7,0-4.08,2.43-4.08,4.92v6.9h-1.83V49.795h1.38l0.42,2.28c0.87-1.62,2.4-2.55,4.32-2.55c2.01,0,3.48,0.99,4.11,2.67
		c0.87-1.62,2.4-2.67,4.62-2.67c3.03,0,4.65,2.01,4.65,5.22V63.055 M66.979,63.055h-1.83V49.795h1.38l0.36,1.95
		c0.75-1.38,2.01-2.22,3.87-2.22c0.84,0,1.56,0.18,2.16,0.45l-0.54,1.62c-0.51-0.18-1.02-0.33-1.77-0.33
		c-2.16,0-3.63,1.53-3.63,4.11V63.055 M211.216,46.946l-0.93-1.08l3.96-3.39l1.2,1.41L211.216,46.946 M162.977,46.316
		c-0.81,0-1.35-0.6-1.35-1.32c0-0.78,0.54-1.38,1.35-1.38c0.87,0,1.38,0.6,1.38,1.41C164.357,45.746,163.787,46.316,162.977,46.316"
		/>
	<path fill="#9D9D9C" d="M891.427,44.259l-5.496,3l0.984,1.992l2.136-1.056l0.6-0.312c-0.12,0.432-0.192,0.864-0.288,1.32
		l-1.992,11.041h2.808l2.808-15.985z M899.251,60.532c3.864,0,6.265-3.096,7.129-8.041c0.144-0.864,0.216-1.68,0.216-2.424
		c0-3.696-1.8-5.977-4.728-5.977c-3.96,0-6.241,3.072-7.129,8.017c-0.144,0.888-0.24,1.704-0.24,2.472
		C894.499,58.276,896.275,60.532,899.251,60.532z M899.443,58.084c-1.464,0-2.184-1.368-2.184-3.504c0-0.672,0.072-1.44,0.216-2.256
		c0.624-3.552,2.16-5.785,4.2-5.785c1.464,0,2.16,1.344,2.16,3.456c0,0.696-0.072,1.464-0.216,2.28
		C902.995,55.828,901.483,58.084,899.443,58.084z M909.715,57.22c-0.816,0-1.584,0.504-1.776,1.464
		c-0.024,0.12-0.024,0.24-0.024,0.336c0,0.912,0.648,1.512,1.392,1.512h0.12c-0.36,1.008-1.032,1.776-2.04,2.544l0.576,0.696
		c1.68-1.128,2.808-2.64,3.216-4.296c0.072-0.24,0.096-0.48,0.096-0.696C911.275,57.748,910.579,57.22,909.715,57.22z
		 M925.435,46.803l0.432-2.424h-7.993l-2.352,8.113l0.408,0.312c0.888-0.312,1.8-0.504,2.736-0.504c1.776,0,3.048,0.792,3.048,2.328
		c0,0.192,0,0.384-0.048,0.6c-0.336,1.848-1.872,2.784-3.672,2.784c-1.44,0-2.472-0.528-3.048-1.392l-1.68,1.848
		c0.984,1.272,2.688,2.088,4.8,2.088c3.288,0,5.832-1.896,6.337-4.92c0.072-0.432,0.12-0.816,0.12-1.2c0-2.736-1.944-4.2-4.848-4.2
		c-0.384,0-0.72,0.024-1.032,0.048l1.056-3.48z M931.459,60.532c3.864,0,6.265-3.096,7.129-8.041
		c0.144-0.864,0.216-1.68,0.216-2.424c0-3.696-1.8-5.977-4.728-5.977c-3.96,0-6.241,3.072-7.129,8.017
		c-0.144,0.888-0.24,1.704-0.24,2.472C926.706,58.276,928.482,60.532,931.459,60.532z M931.651,58.084
		c-1.464,0-2.184-1.368-2.184-3.504c0-0.672,0.072-1.44,0.216-2.256c0.624-3.552,2.16-5.785,4.2-5.785
		c1.464,0,2.16,1.344,2.16,3.456c0,0.696-0.072,1.464-0.216,2.28C935.203,55.828,933.691,58.084,931.651,58.084z"/>
	<path fill="#9D9D9C" d="M948.968,46.882c0.76,0,1.34,0.12,1.9,0.34l1-1.82c-0.88-0.4-1.7-0.62-2.881-0.62
		c-3.461,0-5.941,1.88-6.982,4.741h-1.5l-0.24,1.4h1.36c-0.06,0.36-0.12,0.74-0.14,1.12h-1.42l-0.26,1.4h1.7
		c0.26,2.861,2.24,5.041,5.501,5.041c1.04,0,1.92-0.18,2.801-0.6l-0.44-1.96c-0.64,0.32-1.26,0.46-2.06,0.46
		c-2.12,0-3.181-1.16-3.461-2.941h2.921l0.78-1.4h-3.741c0.02-0.38,0.06-0.76,0.16-1.12h4.161l0.76-1.4h-4.421
		C945.307,47.922,946.868,46.882,948.968,46.882z"/>
	<path fill="#000000" d="M361.454,105.385c-4.02,0-6.84-2.88-6.84-6.99c0-3.84,2.76-6.93,6.69-6.93c3.69,0,5.88,2.55,5.88,6.42
		c0,0.42-0.03,0.84-0.09,1.29h-10.619c0.3,2.82,2.46,4.5,4.95,4.5c1.86,0,3.03-0.57,4.05-1.62l1.05,1.32
		C365.174,104.665,363.554,105.385,361.454,105.385 M361.274,93.175c-2.46,0-4.38,1.74-4.74,4.38h8.849
		C365.324,94.735,363.704,93.175,361.274,93.175 M330.645,105.385c-4.02,0-6.84-2.88-6.84-6.99c0-3.84,2.76-6.93,6.69-6.93
		c3.69,0,5.88,2.55,5.88,6.42c0,0.42-0.03,0.84-0.09,1.29h-10.619c0.3,2.82,2.46,4.5,4.95,4.5c1.86,0,3.03-0.57,4.05-1.62l1.05,1.32
		C334.365,104.665,332.745,105.385,330.645,105.385 M330.465,93.175c-2.43,0-4.38,1.74-4.77,4.38h8.88
		C334.485,94.735,332.865,93.175,330.465,93.175 M259.096,105.385c-3.99,0-6.84-2.88-6.84-6.96c0-4.08,2.85-6.96,6.84-6.96
		c4.05,0,6.9,2.88,6.9,6.96C265.995,102.505,263.145,105.385,259.096,105.385 M259.096,93.175c-2.94,0-4.98,2.19-4.98,5.25
		c0,3.09,2.04,5.25,4.98,5.25c2.97,0,5.04-2.16,5.04-5.25C264.135,95.365,262.096,93.175,259.096,93.175 M216.857,105.385
		c-4.02,0-6.84-2.88-6.84-6.99c0-3.84,2.76-6.93,6.69-6.93c3.69,0,5.88,2.55,5.88,6.42c0,0.42-0.03,0.84-0.09,1.29h-10.62
		c0.3,2.82,2.46,4.5,4.95,4.5c1.86,0,3.03-0.57,4.05-1.62l1.05,1.32C220.576,104.665,218.956,105.385,216.857,105.385
		 M216.676,93.175c-2.46,0-4.38,1.74-4.74,4.38h8.85C220.726,94.735,219.106,93.175,216.676,93.175 M136.578,105.385
		c-3.3,0-6.6-2.43-6.6-6.99c0-4.38,3.18-6.9,6.78-6.9c1.92,0,3.39,0.6,4.74,1.8l-1.05,1.26c-1.08-0.93-2.13-1.35-3.69-1.35
		c-2.76,0-4.92,2.07-4.92,5.19c0,3.18,2.13,5.28,4.89,5.28c1.8,0,2.88-0.57,3.96-1.59l1.02,1.32
		C140.328,104.695,138.888,105.385,136.578,105.385 M120.318,105.385c-3.99,0-6.84-2.88-6.84-6.96c0-4.08,2.85-6.96,6.84-6.96
		c4.05,0,6.9,2.88,6.9,6.96C127.218,102.505,124.368,105.385,120.318,105.385 M120.318,93.175c-2.94,0-4.98,2.19-4.98,5.25
		c0,3.09,2.04,5.25,4.98,5.25c2.97,0,5.04-2.16,5.04-5.25C125.358,95.365,123.318,93.175,120.318,93.175 M98.329,105.385
		c-4.02,0-6.84-2.88-6.84-6.99c0-3.84,2.76-6.93,6.69-6.93c3.69,0,5.88,2.55,5.88,6.42c0,0.42-0.03,0.84-0.09,1.29H93.349
		c0.3,2.82,2.46,4.5,4.95,4.5c1.86,0,3.03-0.57,4.05-1.62l1.05,1.32C102.049,104.665,100.429,105.385,98.329,105.385 M98.149,93.175
		c-2.46,0-4.38,1.74-4.74,4.38h8.85C102.199,94.735,100.578,93.175,98.149,93.175 M59.059,105.385c-4.02,0-6.84-2.88-6.84-6.99
		c0-3.84,2.76-6.93,6.69-6.93c3.69,0,5.88,2.55,5.88,6.42c0,0.42-0.03,0.84-0.09,1.29H54.08c0.3,2.82,2.46,4.5,4.95,4.5
		c1.86,0,3.03-0.57,4.05-1.62l1.05,1.32C62.779,104.665,61.159,105.385,59.059,105.385 M58.879,93.175c-2.46,0-4.38,1.74-4.74,4.38
		h8.85C62.929,94.735,61.309,93.175,58.879,93.175 M36.05,105.385c-3.99,0-6.84-2.88-6.84-6.96c0-4.08,2.85-6.96,6.84-6.96
		c4.05,0,6.9,2.88,6.9,6.96C42.95,102.505,40.1,105.385,36.05,105.385 M36.05,93.175c-2.94,0-4.98,2.19-4.98,5.25
		c0,3.09,2.04,5.25,4.98,5.25c2.97,0,5.04-2.16,5.04-5.25C41.09,95.365,39.05,93.175,36.05,93.175 M231.826,105.355
		c-3.93,0-6.66-2.94-6.66-6.99c0-3.93,2.76-6.84,6.66-6.84c2.16,0,4.05,0.96,5.13,2.52c-0.03-1.14-0.06-2.34-0.06-3.6v-6.9h1.83
		v21.509h-1.41l-0.27-2.37C235.966,104.335,234.136,105.355,231.826,105.355 M231.946,93.236c-2.94,0-4.95,2.16-4.95,5.19
		s2.01,5.19,4.95,5.19c3.06,0,5.01-2.19,5.01-5.19C236.956,95.425,234.946,93.236,231.946,93.236 M80.869,105.355
		c-3.93,0-6.66-2.94-6.66-6.99c0-3.93,2.76-6.84,6.66-6.84c2.16,0,4.05,0.96,5.13,2.52c-0.03-1.14-0.06-2.34-0.06-3.6v-6.9h1.83
		v21.509h-1.41l-0.27-2.37C85.009,104.335,83.179,105.355,80.869,105.355 M80.989,93.236c-2.94,0-4.95,2.16-4.95,5.19
		s2.01,5.19,4.95,5.19c3.06,0,5.01-2.19,5.01-5.19C85.999,95.425,83.989,93.236,80.989,93.236 M169.247,105.295
		c-2.58,0-4.23-1.41-4.23-3.69c0-2.97,2.73-4.68,6.63-4.68c0.99,0,1.74,0.03,2.43,0.12v-0.9c0-1.86-1.32-2.79-3.36-2.79
		c-1.44,0-2.91,0.42-4.38,1.11l-0.63-1.56c1.8-0.84,3.51-1.26,5.19-1.26c3.03,0,5.04,1.59,5.04,4.59v8.82h-1.35l-0.33-2.4
		C173.297,104.245,171.587,105.295,169.247,105.295 M171.917,98.455c-3.12,0-4.98,1.08-4.98,3.03c0,1.32,0.96,2.1,2.61,2.1
		c2.73,0,4.44-1.98,4.53-5.01C173.357,98.485,172.787,98.455,171.917,98.455 M148.038,105.295c-2.58,0-4.23-1.41-4.23-3.69
		c0-2.97,2.73-4.68,6.63-4.68c0.99,0,1.74,0.03,2.43,0.12v-0.9c0-1.86-1.32-2.79-3.36-2.79c-1.44,0-2.91,0.42-4.38,1.11l-0.63-1.56
		c1.8-0.84,3.51-1.26,5.19-1.26c3.03,0,5.04,1.59,5.04,4.59v8.82h-1.35l-0.33-2.4C152.088,104.245,150.378,105.295,148.038,105.295
		 M150.707,98.455c-3.12,0-4.98,1.08-4.98,3.03c0,1.32,0.96,2.1,2.61,2.1c2.73,0,4.44-1.98,4.53-5.01
		C152.148,98.485,151.578,98.455,150.707,98.455 M379.394,105.055h-9.93v-0.57l6.24-9.69l0.87-1.35c-0.75,0.03-1.05,0.03-1.62,0.03
		h-5.16v-1.68h9.51v0.54l-5.88,9.09c-0.39,0.66-0.81,1.26-1.29,1.95h2.19h5.07V105.055 M351.075,105.055h-1.83v-8.13
		c0-2.25-0.84-3.69-3.06-3.69c-2.67,0-4.44,1.92-4.44,4.68v7.14h-1.83V91.796h1.38l0.42,2.25c0.78-1.41,2.4-2.52,4.65-2.52
		c3.09,0,4.71,1.98,4.71,5.43V105.055 M320.265,105.055h-1.83v-8.4c0-2.13-1.08-3.42-2.94-3.42c-2.67,0-4.05,2.43-4.05,4.92v6.9
		h-1.83v-8.43c0-1.83-0.93-3.39-2.94-3.39c-2.7,0-4.08,2.43-4.08,4.92v6.9h-1.83V91.796h1.38l0.42,2.28
		c0.87-1.62,2.4-2.55,4.32-2.55c2.01,0,3.48,0.99,4.11,2.67c0.87-1.62,2.4-2.67,4.62-2.67c3.03,0,4.65,2.01,4.65,5.22V105.055
		 M296.086,105.055h-1.83V91.796h1.83V105.055 M291.705,105.055h-2.28l-4.38-6.21c-0.66-0.93-1.35-1.89-1.98-2.94
		c-0.69,1.08-1.32,2.01-2.01,2.97l-4.41,6.18h-2.28v-0.06l7.53-10.53l-6.9-9.75v-0.06h2.28l3.78,5.31c0.66,0.93,1.35,1.95,2.01,3.03
		c0.69-1.11,1.35-2.13,2.01-3.09l3.72-5.25h2.25v0.06l-6.87,9.75l7.53,10.53V105.055 M245.236,105.055h-1.83V91.796h1.38l0.36,1.95
		c0.75-1.38,2.01-2.22,3.87-2.22c0.84,0,1.56,0.18,2.16,0.45l-0.54,1.62c-0.51-0.18-1.02-0.33-1.77-0.33
		c-2.16,0-3.63,1.53-3.63,4.11V105.055 M196.456,105.055h-1.98V84.656h7.53c4.26,0,6.42,3.33,6.42,6.21c0,2.85-2.04,6-6.54,6h-5.43
		V105.055 M196.456,86.456v8.61h5.4c3.12,0,4.59-2.1,4.59-4.23c0-2.34-1.77-4.38-4.47-4.38H196.456 M182.297,105.055h-1.83
		l-0.03-21.509h1.83L182.297,105.055 M48.5,105.055h-1.83V91.796h1.83V105.055 M17.21,105.055h-1.98V84.656H27.5v1.8H17.21v7.769
		h9.24v1.8h-9.24V105.055 M328.575,88.946l-0.93-1.08l3.96-3.39l1.2,1.41L328.575,88.946 M295.186,88.316
		c-0.84,0-1.38-0.6-1.38-1.32c0-0.78,0.54-1.38,1.38-1.38c0.84,0,1.38,0.6,1.38,1.38C296.566,87.746,295.996,88.316,295.186,88.316
		 M47.6,88.316c-0.84,0-1.38-0.6-1.38-1.32c0-0.78,0.54-1.38,1.38-1.38c0.84,0,1.38,0.6,1.38,1.38
		C48.98,87.746,48.41,88.316,47.6,88.316"/>
	<path fill="#9D9D9C" d="M900.787,86.067c-3.024,0-5.28,1.92-5.809,4.872c-0.072,0.384-0.096,0.744-0.096,1.08
		c0,2.592,1.824,4.272,4.128,4.272c1.248,0,2.184-0.288,3.192-1.032c-1.176,2.952-3.648,4.776-7.345,4.896l0.168,2.304
		c6.049-0.096,9.337-3.96,10.369-9.145l0.072-0.336c0.12-0.6,0.168-1.176,0.168-1.728C905.636,88.179,903.956,86.067,900.787,86.067
		z M899.827,93.987c-1.44,0-2.232-1.032-2.232-2.328c0-0.192,0.024-0.384,0.048-0.576c0.312-1.656,1.44-2.568,3.024-2.592
		c1.344,0,2.328,0.936,2.328,2.28c0,0.168-0.024,0.336-0.048,0.528C902.684,92.835,901.604,93.987,899.827,93.987z M908.539,99.22
		c-0.816,0-1.584,0.504-1.776,1.464c-0.024,0.12-0.024,0.24-0.024,0.336c0,0.912,0.648,1.512,1.392,1.512h0.12
		c-0.36,1.008-1.032,1.776-2.04,2.544l0.576,0.696c1.68-1.128,2.808-2.64,3.216-4.296c0.072-0.24,0.096-0.48,0.096-0.696
		C910.099,99.748,909.403,99.22,908.539,99.22z M917.563,102.532c3.384,0,5.929-1.776,6.433-4.464
		c0.048-0.288,0.072-0.576,0.072-0.84c0-1.512-0.768-2.832-2.256-3.288c1.584-0.768,2.472-2.16,2.712-3.384
		c0.048-0.264,0.072-0.528,0.072-0.792c0-2.136-1.752-3.672-4.296-3.672c-1.848,0-3.552,0.624-5.472,2.232l1.392,1.704
		c1.248-1.008,2.28-1.512,3.696-1.512c1.176,0,1.944,0.696,1.944,1.656c0,1.248-1.104,2.664-3.216,2.664h-1.872l-0.408,2.304h2.52
		c1.176,0,2.448,0.456,2.448,1.896c0,1.776-1.704,3.048-3.672,3.048c-1.392,0-2.448-0.432-3.384-1.632l-1.872,1.68
		C913.723,101.788,915.451,102.532,917.563,102.532z M931.459,102.532c3.864,0,6.265-3.096,7.129-8.041
		c0.144-0.864,0.216-1.68,0.216-2.424c0-3.696-1.8-5.977-4.728-5.977c-3.96,0-6.241,3.072-7.129,8.017
		c-0.144,0.888-0.24,1.704-0.24,2.472C926.706,100.276,928.482,102.532,931.459,102.532z M931.651,100.084
		c-1.464,0-2.184-1.368-2.184-3.504c0-0.672,0.072-1.44,0.216-2.256c0.624-3.552,2.16-5.785,4.2-5.785
		c1.464,0,2.16,1.344,2.16,3.456c0,0.696-0.072,1.464-0.216,2.28C935.203,97.828,933.691,100.084,931.651,100.084z"/>
	<path fill="#9D9D9C" d="M948.968,88.882c0.76,0,1.34,0.12,1.9,0.34l1-1.82c-0.88-0.4-1.7-0.62-2.881-0.62
		c-3.461,0-5.941,1.88-6.982,4.741h-1.5l-0.24,1.4h1.36c-0.06,0.36-0.12,0.74-0.14,1.12h-1.42l-0.26,1.4h1.7
		c0.26,2.861,2.24,5.041,5.501,5.041c1.04,0,1.92-0.18,2.801-0.6l-0.44-1.96c-0.64,0.32-1.26,0.46-2.06,0.46
		c-2.12,0-3.181-1.16-3.461-2.941h2.921l0.78-1.4h-3.741c0.02-0.38,0.06-0.76,0.16-1.12h4.161l0.76-1.4h-4.421
		C945.307,89.922,946.868,88.882,948.968,88.882z"/>
	<path fill="#000000" d="M646.81,153.955c-2.58,0-4.47-0.87-6-2.37l1.14-1.29c1.29,1.26,2.79,1.95,4.77,1.95
		c2.7,0,4.8-1.41,4.8-4.35c0-1.02,0-2.01,0.03-3c-1.23,1.59-3.15,2.4-5.1,2.4c-4.08,0-6.66-3.09-6.66-6.87c0-3.81,2.52-6.9,6.57-6.9
		c2.16,0,4.05,0.84,5.22,2.46l0.42-2.19h1.35v14.129C653.35,152.005,650.32,153.955,646.81,153.955 M646.57,135.235
		c-3.12,0-4.92,2.28-4.92,5.16c0,2.94,1.89,5.19,4.89,5.19c3.33,0,5.04-2.37,5.04-5.16
		C651.58,137.635,649.93,135.235,646.57,135.235 M506.922,153.655h-1.92v-0.06l2.94-6.87l-5.79-12.869v-0.06h1.92l3.81,8.489
		c0.33,0.78,0.66,1.53,0.96,2.46c0.3-0.93,0.6-1.71,0.9-2.46l3.45-8.489h1.89v0.06L506.922,153.655 M352.815,150.685l-0.6-0.57
		c0.9-0.96,1.44-1.74,1.56-2.79l-0.3,0.03c-0.81,0-1.41-0.54-1.41-1.38c0-0.96,0.72-1.41,1.41-1.41c0.78,0,1.44,0.51,1.44,1.83
		C354.915,148.045,354.135,149.485,352.815,150.685 M247.576,150.685l-0.6-0.57c0.9-0.96,1.44-1.74,1.56-2.79l-0.3,0.03
		c-0.81,0-1.41-0.54-1.41-1.38c0-0.96,0.72-1.41,1.41-1.41c0.78,0,1.44,0.51,1.44,1.83
		C249.676,148.045,248.896,149.485,247.576,150.685 M24.29,147.415c-6.15,0-10.349-4.77-10.349-10.59
		c0-6.03,4.29-10.53,10.349-10.53c3.21,0,5.52,1.14,7.68,3.33l-1.17,1.2c-1.62-1.68-3.6-2.7-6.51-2.7c-4.92,0-8.37,3.75-8.37,8.7
		c0,4.83,3.42,8.76,8.37,8.76c2.88,0,5.16-1.38,6.66-3.39l1.41,1.11C30.679,145.735,27.889,147.415,24.29,147.415 M730.478,147.385
		c-4.02,0-6.84-2.88-6.84-6.99c0-3.84,2.76-6.93,6.69-6.93c3.69,0,5.88,2.55,5.88,6.42c0,0.42-0.03,0.84-0.09,1.29h-10.62
		c0.3,2.82,2.46,4.5,4.95,4.5c1.86,0,3.03-0.57,4.05-1.62l1.05,1.32C734.198,146.665,732.578,147.385,730.478,147.385
		 M730.298,135.175c-2.46,0-4.38,1.74-4.74,4.38h8.849C734.348,136.735,732.728,135.175,730.298,135.175 M663.909,147.385
		c-3.99,0-6.84-2.88-6.84-6.96s2.85-6.96,6.84-6.96c4.05,0,6.9,2.88,6.9,6.96S667.959,147.385,663.909,147.385 M663.909,135.175
		c-2.94,0-4.98,2.19-4.98,5.25c0,3.09,2.04,5.25,4.98,5.25c2.97,0,5.04-2.16,5.04-5.25
		C668.949,137.365,666.909,135.175,663.909,135.175 M530.172,147.385c-4.02,0-6.84-2.88-6.84-6.99c0-3.84,2.76-6.93,6.69-6.93
		c3.69,0,5.88,2.55,5.88,6.42c0,0.42-0.03,0.84-0.09,1.29h-10.62c0.3,2.82,2.46,4.5,4.95,4.5c1.86,0,3.03-0.57,4.05-1.62l1.05,1.32
		C533.892,146.665,532.272,147.385,530.172,147.385 M529.992,135.175c-2.46,0-4.38,1.74-4.74,4.38h8.85
		C534.042,136.735,532.422,135.175,529.992,135.175 M460.843,147.385c-4.02,0-6.84-2.88-6.84-6.99c0-3.84,2.76-6.93,6.69-6.93
		c3.69,0,5.88,2.55,5.88,6.42c0,0.42-0.03,0.84-0.09,1.29h-10.62c0.3,2.82,2.46,4.5,4.95,4.5c1.86,0,3.03-0.57,4.05-1.62l1.05,1.32
		C464.563,146.665,462.943,147.385,460.843,147.385 M460.663,135.175c-2.46,0-4.38,1.74-4.74,4.38h8.849
		C464.713,136.735,463.093,135.175,460.663,135.175 M396.374,147.385c-3.99,0-6.84-2.88-6.84-6.96s2.85-6.96,6.84-6.96
		c4.05,0,6.9,2.88,6.9,6.96S400.424,147.385,396.374,147.385 M396.374,135.175c-2.94,0-4.98,2.19-4.98,5.25
		c0,3.09,2.04,5.25,4.98,5.25c2.97,0,5.04-2.16,5.04-5.25C401.414,137.365,399.374,135.175,396.374,135.175 M342.735,147.385
		c-4.02,0-6.84-2.88-6.84-6.99c0-3.84,2.76-6.93,6.69-6.93c3.69,0,5.88,2.55,5.88,6.42c0,0.42-0.03,0.84-0.09,1.29h-10.62
		c0.3,2.82,2.46,4.5,4.95,4.5c1.86,0,3.03-0.57,4.05-1.62l1.05,1.32C346.455,146.665,344.835,147.385,342.735,147.385
		 M342.555,135.175c-2.46,0-4.38,1.74-4.74,4.38h8.85C346.605,136.735,344.985,135.175,342.555,135.175 M277.636,147.385
		c-3.99,0-6.84-2.88-6.84-6.96s2.85-6.96,6.84-6.96c4.05,0,6.9,2.88,6.9,6.96S281.685,147.385,277.636,147.385 M277.636,135.175
		c-2.94,0-4.98,2.19-4.98,5.25c0,3.09,2.04,5.25,4.98,5.25c2.97,0,5.04-2.16,5.04-5.25
		C282.675,137.365,280.635,135.175,277.636,135.175 M210.346,147.385c-3.99,0-6.84-2.88-6.84-6.96s2.85-6.96,6.84-6.96
		c4.05,0,6.9,2.88,6.9,6.96S214.396,147.385,210.346,147.385 M210.346,135.175c-2.94,0-4.98,2.19-4.98,5.25
		c0,3.09,2.04,5.25,4.98,5.25c2.97,0,5.04-2.16,5.04-5.25C215.386,137.365,213.346,135.175,210.346,135.175 M180.647,147.385
		c-3.3,0-6.6-2.43-6.6-6.99c0-4.38,3.18-6.9,6.78-6.9c1.92,0,3.39,0.6,4.74,1.8l-1.05,1.26c-1.08-0.93-2.13-1.35-3.69-1.35
		c-2.76,0-4.92,2.07-4.92,5.19c0,3.18,2.13,5.28,4.89,5.28c1.8,0,2.88-0.57,3.96-1.59l1.02,1.32
		C184.397,146.695,182.957,147.385,180.647,147.385 M128.868,147.385c-4.02,0-6.84-2.88-6.84-6.99c0-3.84,2.76-6.93,6.69-6.93
		c3.69,0,5.88,2.55,5.88,6.42c0,0.42-0.03,0.84-0.09,1.29h-10.62c0.3,2.82,2.46,4.5,4.95,4.5c1.86,0,3.03-0.57,4.05-1.62l1.05,1.32
		C132.588,146.665,130.968,147.385,128.868,147.385 M128.688,135.175c-2.46,0-4.38,1.74-4.74,4.38h8.85
		C132.738,136.735,131.118,135.175,128.688,135.175 M51.229,147.385c-4.02,0-6.84-2.88-6.84-6.99c0-3.84,2.76-6.93,6.69-6.93
		c3.69,0,5.88,2.55,5.88,6.42c0,0.42-0.03,0.84-0.09,1.29h-10.62c0.3,2.82,2.46,4.5,4.95,4.5c1.86,0,3.03-0.57,4.05-1.62l1.05,1.32
		C54.949,146.665,53.329,147.385,51.229,147.385 M51.049,135.175c-2.46,0-4.38,1.74-4.74,4.38h8.849
		C55.099,136.735,53.479,135.175,51.049,135.175 M607.96,147.355c-3.93,0-6.66-2.94-6.66-6.99c0-3.93,2.76-6.84,6.66-6.84
		c2.16,0,4.05,0.96,5.13,2.52c-0.03-1.14-0.06-2.34-0.06-3.6v-6.9h1.83v21.509h-1.41l-0.27-2.37
		C612.1,146.335,610.27,147.355,607.96,147.355 M608.081,135.235c-2.94,0-4.95,2.16-4.95,5.19s2.01,5.19,4.95,5.19
		c3.06,0,5.01-2.19,5.01-5.19C613.09,137.425,611.08,135.235,608.081,135.235 M111.408,147.355c-3.93,0-6.66-2.94-6.66-6.99
		c0-3.93,2.76-6.84,6.66-6.84c2.16,0,4.05,0.96,5.13,2.52c-0.03-1.14-0.06-2.34-0.06-3.6v-6.9h1.83v21.509h-1.41l-0.27-2.37
		C115.548,146.335,113.718,147.355,111.408,147.355 M111.528,135.235c-2.94,0-4.95,2.16-4.95,5.19s2.01,5.19,4.95,5.19
		c3.06,0,5.01-2.19,5.01-5.19C116.538,137.425,114.528,135.235,111.528,135.235 M744.008,147.295c-2.16,0-3.51-1.26-3.51-3.99v-7.89
		l-2.58-0.12v-1.5h2.58v-4.41h1.83v4.41h4.74v1.62h-4.74v7.89c0,1.68,0.69,2.25,1.86,2.25c0.93,0,1.77-0.3,2.61-0.9l0.81,1.38
		C746.618,146.785,745.388,147.295,744.008,147.295 M679.179,147.295c-3.3,0-4.83-2.19-4.83-5.43v-8.07h1.83v8.1
		c0,2.16,0.84,3.69,3.21,3.69c2.64,0,4.2-2.37,4.2-5.19v-6.6h1.83v13.259h-1.41l-0.36-2.31
		C682.869,146.155,681.369,147.295,679.179,147.295 M622.72,147.295c-2.58,0-4.23-1.41-4.23-3.69c0-2.97,2.73-4.68,6.63-4.68
		c0.99,0,1.74,0.03,2.43,0.12v-0.9c0-1.86-1.32-2.79-3.36-2.79c-1.44,0-2.91,0.42-4.38,1.11l-0.63-1.56
		c1.8-0.84,3.51-1.26,5.19-1.26c3.03,0,5.04,1.59,5.04,4.59v8.82h-1.35l-0.33-2.4C626.77,146.245,625.06,147.295,622.72,147.295
		 M625.39,140.455c-3.12,0-4.98,1.08-4.98,3.03c0,1.32,0.96,2.1,2.61,2.1c2.73,0,4.44-1.98,4.53-5.01
		C626.83,140.485,626.26,140.455,625.39,140.455 M591.071,147.295c-2.58,0-4.23-1.41-4.23-3.69c0-2.97,2.73-4.68,6.63-4.68
		c0.99,0,1.74,0.03,2.43,0.12v-0.9c0-1.86-1.32-2.79-3.36-2.79c-1.44,0-2.91,0.42-4.38,1.11l-0.63-1.56
		c1.8-0.84,3.51-1.26,5.19-1.26c3.03,0,5.04,1.59,5.04,4.59v8.82h-1.35l-0.33-2.4C595.121,146.245,593.411,147.295,591.071,147.295
		 M593.741,140.455c-3.12,0-4.98,1.08-4.98,3.03c0,1.32,0.96,2.1,2.61,2.1c2.73,0,4.44-1.98,4.53-5.01
		C595.181,140.485,594.611,140.455,593.741,140.455 M570.162,147.295c-2.58,0-4.23-1.41-4.23-3.69c0-2.97,2.73-4.68,6.63-4.68
		c0.99,0,1.74,0.03,2.43,0.12v-0.9c0-1.86-1.32-2.79-3.36-2.79c-1.44,0-2.91,0.42-4.38,1.11l-0.63-1.56
		c1.8-0.84,3.51-1.26,5.19-1.26c3.03,0,5.04,1.59,5.04,4.59v8.82h-1.35l-0.33-2.4C574.211,146.245,572.501,147.295,570.162,147.295
		 M572.832,140.455c-3.12,0-4.98,1.08-4.98,3.03c0,1.32,0.96,2.1,2.61,2.1c2.73,0,4.44-1.98,4.53-5.01
		C574.271,140.485,573.701,140.455,572.832,140.455 M558.882,147.295c-1.86,0-3.42-0.51-4.83-1.47l0.93-1.44
		c1.17,0.84,2.43,1.2,3.9,1.2c1.62,0,2.67-0.81,2.67-2.01c0-1.29-1.47-1.95-3.06-2.58c-2.16-0.84-3.96-1.86-3.96-3.99
		c0-2.22,2.04-3.36,4.29-3.36c1.44,0,2.82,0.42,4.02,1.2l-0.81,1.32c-0.96-0.54-2.04-0.84-3.12-0.84c-1.35,0-2.55,0.45-2.55,1.68
		c0,1.2,1.23,1.8,2.79,2.4c2.4,0.9,4.23,1.95,4.23,4.17C563.381,145.795,561.492,147.295,558.882,147.295 M486.372,147.295
		c-2.58,0-4.23-1.41-4.23-3.69c0-2.97,2.73-4.68,6.63-4.68c0.99,0,1.74,0.03,2.43,0.12v-0.9c0-1.86-1.32-2.79-3.36-2.79
		c-1.44,0-2.91,0.42-4.38,1.11l-0.63-1.56c1.8-0.84,3.51-1.26,5.19-1.26c3.03,0,5.04,1.59,5.04,4.59v8.82h-1.35l-0.33-2.4
		C490.422,146.245,488.712,147.295,486.372,147.295 M489.042,140.455c-3.12,0-4.98,1.08-4.98,3.03c0,1.32,0.96,2.1,2.61,2.1
		c2.73,0,4.44-1.98,4.53-5.01C490.482,140.485,489.912,140.455,489.042,140.455 M433.964,147.295c-2.58,0-4.23-1.41-4.23-3.69
		c0-2.97,2.73-4.68,6.63-4.68c0.99,0,1.74,0.03,2.43,0.12v-0.9c0-1.86-1.32-2.79-3.36-2.79c-1.44,0-2.91,0.42-4.38,1.11l-0.63-1.56
		c1.8-0.84,3.51-1.26,5.19-1.26c3.03,0,5.04,1.59,5.04,4.59v8.82h-1.35l-0.33-2.4C438.013,146.245,436.303,147.295,433.964,147.295
		 M436.634,140.455c-3.12,0-4.98,1.08-4.98,3.03c0,1.32,0.96,2.1,2.61,2.1c2.73,0,4.44-1.98,4.53-5.01
		C438.073,140.485,437.503,140.455,436.634,140.455 M330.795,147.295c-2.16,0-3.51-1.26-3.51-3.99v-7.89l-2.58-0.12v-1.5h2.58v-4.41
		h1.83v4.41h4.74v1.62h-4.74v7.89c0,1.68,0.69,2.25,1.86,2.25c0.93,0,1.77-0.3,2.61-0.9l0.81,1.38
		C333.405,146.785,332.175,147.295,330.795,147.295 M315.435,147.295c-2.58,0-4.23-1.41-4.23-3.69c0-2.97,2.73-4.68,6.63-4.68
		c0.99,0,1.74,0.03,2.43,0.12v-0.9c0-1.86-1.32-2.79-3.36-2.79c-1.44,0-2.91,0.42-4.38,1.11l-0.63-1.56
		c1.8-0.84,3.51-1.26,5.19-1.26c3.03,0,5.04,1.59,5.04,4.59v8.82h-1.35l-0.33-2.4C319.485,146.245,317.775,147.295,315.435,147.295
		 M318.105,140.455c-3.12,0-4.98,1.08-4.98,3.03c0,1.32,0.96,2.1,2.61,2.1c2.73,0,4.44-1.98,4.53-5.01
		C319.545,140.485,318.975,140.455,318.105,140.455 M265.695,147.295c-2.16,0-3.51-1.26-3.51-3.99v-7.89l-2.58-0.12v-1.5h2.58v-4.41
		h1.83v4.41h4.74v1.62h-4.74v7.89c0,1.68,0.69,2.25,1.86,2.25c0.93,0,1.77-0.3,2.61-0.9l0.81,1.38
		C268.305,146.785,267.075,147.295,265.695,147.295 M239.056,147.295c-1.86,0-3.42-0.51-4.83-1.47l0.93-1.44
		c1.17,0.84,2.43,1.2,3.9,1.2c1.62,0,2.67-0.81,2.67-2.01c0-1.29-1.47-1.95-3.06-2.58c-2.16-0.84-3.96-1.86-3.96-3.99
		c0-2.22,2.04-3.36,4.29-3.36c1.44,0,2.82,0.42,4.02,1.2l-0.81,1.32c-0.96-0.54-2.04-0.84-3.12-0.84c-1.35,0-2.55,0.45-2.55,1.68
		c0,1.2,1.23,1.8,2.79,2.4c2.4,0.9,4.23,1.95,4.23,4.17C243.555,145.795,241.665,147.295,239.056,147.295 M224.086,147.295
		c-2.58,0-4.23-1.41-4.23-3.69c0-2.97,2.73-4.68,6.63-4.68c0.99,0,1.74,0.03,2.43,0.12v-0.9c0-1.86-1.32-2.79-3.36-2.79
		c-1.44,0-2.91,0.42-4.38,1.11l-0.63-1.56c1.8-0.84,3.51-1.26,5.19-1.26c3.03,0,5.04,1.59,5.04,4.59v8.82h-1.35l-0.33-2.4
		C228.136,146.245,226.426,147.295,224.086,147.295 M226.756,140.455c-3.12,0-4.98,1.08-4.98,3.03c0,1.32,0.96,2.1,2.61,2.1
		c2.73,0,4.44-1.98,4.53-5.01C228.196,140.485,227.626,140.455,226.756,140.455 M148.158,147.295c-2.58,0-4.23-1.41-4.23-3.69
		c0-2.97,2.73-4.68,6.63-4.68c0.99,0,1.74,0.03,2.43,0.12v-0.9c0-1.86-1.32-2.79-3.36-2.79c-1.44,0-2.91,0.42-4.38,1.11l-0.63-1.56
		c1.8-0.84,3.51-1.26,5.19-1.26c3.03,0,5.04,1.59,5.04,4.59v8.82h-1.35l-0.33-2.4C152.207,146.245,150.497,147.295,148.158,147.295
		 M150.827,140.455c-3.12,0-4.98,1.08-4.98,3.03c0,1.32,0.96,2.1,2.61,2.1c2.73,0,4.44-1.98,4.53-5.01
		C152.267,140.485,151.697,140.455,150.827,140.455 M87.679,147.295c-2.58,0-4.23-1.41-4.23-3.69c0-2.97,2.73-4.68,6.63-4.68
		c0.99,0,1.74,0.03,2.43,0.12v-0.9c0-1.86-1.32-2.79-3.36-2.79c-1.44,0-2.91,0.42-4.38,1.11l-0.63-1.56
		c1.8-0.84,3.51-1.26,5.19-1.26c3.03,0,5.04,1.59,5.04,4.59v8.82h-1.35l-0.33-2.4C91.729,146.245,90.019,147.295,87.679,147.295
		 M90.349,140.455c-3.12,0-4.98,1.08-4.98,3.03c0,1.32,0.96,2.1,2.61,2.1c2.73,0,4.44-1.98,4.53-5.01
		C91.789,140.485,91.219,140.455,90.349,140.455 M720.098,147.055h-1.83v-8.4c0-2.13-1.08-3.42-2.94-3.42
		c-2.67,0-4.05,2.43-4.05,4.92v6.9h-1.83v-8.43c0-1.83-0.93-3.39-2.94-3.39c-2.7,0-4.08,2.43-4.08,4.92v6.9h-1.83v-13.259h1.38
		l0.42,2.28c0.87-1.62,2.4-2.55,4.32-2.55c2.01,0,3.48,0.99,4.11,2.67c0.87-1.62,2.4-2.67,4.62-2.67c3.03,0,4.65,2.01,4.65,5.22
		V147.055 M691.929,147.055h-1.83v-13.259h1.38l0.36,1.95c0.75-1.38,2.01-2.22,3.87-2.22c0.84,0,1.56,0.18,2.16,0.45l-0.54,1.62
		c-0.51-0.18-1.02-0.33-1.77-0.33c-2.16,0-3.63,1.53-3.63,4.11V147.055 M583.211,147.055h-1.83l-0.03-21.509h1.83L583.211,147.055
		 M550.602,147.055h-1.83v-8.13c0-2.25-0.84-3.69-3.06-3.69c-2.67,0-4.44,1.92-4.44,4.68v7.14h-1.83v-13.259h1.38l0.42,2.25
		c0.78-1.41,2.4-2.52,4.65-2.52c3.09,0,4.71,1.98,4.71,5.43V147.055 M478.513,147.055h-1.83l-0.03-21.509h1.83L478.513,147.055
		 M471.973,147.055h-1.83l-0.03-21.509h1.83L471.973,147.055 M446.983,147.055h-1.83v-13.259h1.38l0.36,1.95
		c0.75-1.38,2.01-2.22,3.87-2.22c0.84,0,1.56,0.18,2.16,0.45l-0.54,1.62c-0.51-0.18-1.02-0.33-1.77-0.33
		c-2.16,0-3.63,1.53-3.63,4.11V147.055 M427.664,147.055h-9.93v-0.57l6.24-9.69l0.87-1.35c-0.75,0.03-1.05,0.03-1.62,0.03h-5.16
		v-1.68h9.51v0.54l-5.88,9.09c-0.39,0.66-0.81,1.26-1.29,1.95h2.19h5.07V147.055 M415.214,147.055h-9.93v-0.57l6.24-9.69l0.87-1.35
		c-0.75,0.03-1.05,0.03-1.62,0.03h-5.16v-1.68h9.51v0.54l-5.88,9.09c-0.39,0.66-0.81,1.26-1.29,1.95h2.19h5.07V147.055
		 M385.994,147.055h-1.83v-8.4c0-2.13-1.08-3.42-2.94-3.42c-2.67,0-4.05,2.43-4.05,4.92v6.9h-1.83v-8.43c0-1.83-0.93-3.39-2.94-3.39
		c-2.7,0-4.08,2.43-4.08,4.92v6.9h-1.83v-13.259h1.38l0.42,2.28c0.87-1.62,2.4-2.55,4.32-2.55c2.01,0,3.48,0.99,4.11,2.67
		c0.87-1.62,2.4-2.67,4.62-2.67c3.03,0,4.65,2.01,4.65,5.22V147.055 M307.755,147.055h-1.83v-8.4c0-2.13-1.08-3.42-2.94-3.42
		c-2.67,0-4.05,2.43-4.05,4.92v6.9h-1.83v-8.43c0-1.83-0.93-3.39-2.94-3.39c-2.7,0-4.08,2.43-4.08,4.92v6.9h-1.83v-13.259h1.38
		l0.42,2.28c0.87-1.62,2.4-2.55,4.32-2.55c2.01,0,3.48,0.99,4.11,2.67c0.87-1.62,2.4-2.67,4.62-2.67c3.03,0,4.65,2.01,4.65,5.22
		V147.055 M199.966,147.055h-1.83v-8.16c0-2.22-0.9-3.66-3.12-3.66c-2.82,0-4.38,2.4-4.38,5.28v6.54h-1.83v-21.509h1.83v8.58
		c0,0.66,0,1.29-0.03,2.07c0.81-1.56,2.34-2.67,4.59-2.67c3.24,0,4.77,2.04,4.77,5.43V147.055 M170.507,147.055h-1.83v-8.13
		c0-2.25-0.84-3.69-3.06-3.69c-2.67,0-4.44,1.92-4.44,4.68v7.14h-1.83v-13.259h1.38l0.42,2.25c0.78-1.41,2.4-2.52,4.65-2.52
		c3.09,0,4.71,1.98,4.71,5.43V147.055 M79.998,147.055h-1.83v-8.4c0-2.13-1.08-3.42-2.94-3.42c-2.67,0-4.05,2.43-4.05,4.92v6.9
		h-1.83v-8.43c0-1.83-0.93-3.39-2.94-3.39c-2.7,0-4.08,2.43-4.08,4.92v6.9h-1.83v-13.259h1.38l0.42,2.28
		c0.87-1.62,2.4-2.55,4.32-2.55c2.01,0,3.48,0.99,4.11,2.67c0.87-1.62,2.4-2.67,4.62-2.67c3.03,0,4.65,2.01,4.65,5.22V147.055
		 M37.37,147.055h-1.83v-13.259h1.38l0.36,1.95c0.75-1.38,2.01-2.22,3.87-2.22c0.84,0,1.56,0.18,2.16,0.45l-0.54,1.62
		c-0.51-0.18-1.02-0.33-1.77-0.33c-2.16,0-3.63,1.53-3.63,4.11V147.055"/>
	<path fill="#9D9D9C" d="M890.347,128.259l-5.496,3l0.984,1.992l2.136-1.056l0.6-0.312c-0.12,0.432-0.192,0.864-0.288,1.32
		l-1.992,11.041h2.808l2.808-15.985z M898.171,144.532c3.864,0,6.265-3.096,7.129-8.041c0.144-0.864,0.216-1.68,0.216-2.424
		c0-3.696-1.8-5.977-4.728-5.977c-3.96,0-6.241,3.072-7.129,8.017c-0.144,0.888-0.24,1.704-0.24,2.472
		C893.419,142.276,895.195,144.532,898.171,144.532z M898.363,142.084c-1.464,0-2.184-1.368-2.184-3.504
		c0-0.672,0.072-1.44,0.216-2.256c0.624-3.552,2.16-5.785,4.2-5.785c1.464,0,2.16,1.344,2.16,3.456c0,0.696-0.072,1.464-0.216,2.28
		C901.915,139.828,900.403,142.084,898.363,142.084z M908.635,141.22c-0.816,0-1.584,0.504-1.776,1.464
		c-0.024,0.12-0.024,0.24-0.024,0.336c0,0.912,0.648,1.512,1.392,1.512h0.12c-0.36,1.008-1.032,1.776-2.04,2.544l0.576,0.696
		c1.68-1.128,2.808-2.64,3.216-4.296c0.072-0.24,0.096-0.48,0.096-0.696C910.195,141.748,909.499,141.22,908.635,141.22z
		 M920.179,128.067c-3.024,0-5.28,1.92-5.809,4.872c-0.072,0.384-0.096,0.744-0.096,1.08c0,2.592,1.824,4.272,4.128,4.272
		c1.248,0,2.184-0.288,3.192-1.032c-1.176,2.952-3.648,4.776-7.345,4.896l0.168,2.304c6.049-0.096,9.337-3.96,10.369-9.145
		l0.072-0.336c0.12-0.6,0.168-1.176,0.168-1.728C925.027,130.179,923.347,128.067,920.179,128.067z M919.219,135.987
		c-1.44,0-2.232-1.032-2.232-2.328c0-0.192,0.024-0.384,0.048-0.576c0.312-1.656,1.44-2.568,3.024-2.592
		c1.344,0,2.328,0.936,2.328,2.28c0,0.168-0.024,0.336-0.048,0.528C922.075,134.835,920.995,135.987,919.219,135.987z
		 M931.459,144.532c3.864,0,6.265-3.096,7.129-8.041c0.144-0.864,0.216-1.68,0.216-2.424c0-3.696-1.8-5.977-4.728-5.977
		c-3.96,0-6.241,3.072-7.129,8.017c-0.144,0.888-0.24,1.704-0.24,2.472C926.706,142.276,928.482,144.532,931.459,144.532z
		 M931.651,142.084c-1.464,0-2.184-1.368-2.184-3.504c0-0.672,0.072-1.44,0.216-2.256c0.624-3.552,2.16-5.785,4.2-5.785
		c1.464,0,2.16,1.344,2.16,3.456c0,0.696-0.072,1.464-0.216,2.28C935.203,139.828,933.691,142.084,931.651,142.084z"/>
	<path fill="#9D9D9C" d="M948.968,130.882c0.76,0,1.34,0.12,1.9,0.34l1-1.82c-0.88-0.4-1.7-0.62-2.881-0.62
		c-3.461,0-5.941,1.88-6.982,4.741h-1.5l-0.24,1.4h1.36c-0.06,0.36-0.12,0.74-0.14,1.12h-1.42l-0.26,1.4h1.7
		c0.26,2.861,2.24,5.041,5.501,5.041c1.04,0,1.92-0.18,2.801-0.6l-0.44-1.96c-0.64,0.32-1.26,0.46-2.06,0.46
		c-2.12,0-3.181-1.16-3.461-2.941h2.921l0.78-1.4h-3.741c0.02-0.38,0.06-0.76,0.16-1.12h4.161l0.76-1.4h-4.421
		C945.307,131.922,946.868,130.882,948.968,130.882z"/>
	<path fill="#000000" d="M173.658,195.655h-1.83v-5.22c0-1.41,0.03-2.67,0.06-3.72c-1.08,1.62-2.94,2.64-5.16,2.64
		c-3.87,0-6.6-2.91-6.6-6.99c0-3.96,2.76-6.84,6.57-6.84c2.25,0,3.99,0.93,5.16,2.55l0.42-2.28h1.38V195.655 M166.848,177.235
		c-2.85,0-4.86,2.16-4.86,5.22c0,3.03,2.01,5.19,4.86,5.19c2.94,0,5.04-2.13,5.04-5.28
		C171.888,179.335,169.818,177.235,166.848,177.235 M117.408,195.655h-1.92v-0.06l2.94-6.87l-5.79-12.869v-0.06h1.92l3.81,8.49
		c0.33,0.78,0.66,1.53,0.96,2.46c0.3-0.93,0.6-1.71,0.9-2.46l3.45-8.49h1.89v0.06L117.408,195.655 M24.29,189.415
		c-6.15,0-10.349-4.77-10.349-10.589c0-6.03,4.29-10.53,10.349-10.53c3.21,0,5.52,1.14,7.68,3.33l-1.17,1.2
		c-1.62-1.68-3.6-2.7-6.51-2.7c-4.92,0-8.37,3.75-8.37,8.7c0,4.83,3.42,8.759,8.37,8.759c2.88,0,5.16-1.38,6.66-3.39l1.41,1.11
		C30.679,187.735,27.889,189.415,24.29,189.415 M223.967,189.385c-3.99,0-6.84-2.88-6.84-6.96c0-4.08,2.85-6.96,6.84-6.96
		c4.05,0,6.9,2.88,6.9,6.96C230.867,186.505,228.017,189.385,223.967,189.385 M223.967,177.175c-2.94,0-4.98,2.19-4.98,5.25
		c0,3.09,2.04,5.25,4.98,5.25c2.97,0,5.04-2.16,5.04-5.25C229.007,179.365,226.967,177.175,223.967,177.175 M199.788,189.385
		c-4.02,0-6.84-2.88-6.84-6.99c0-3.84,2.76-6.93,6.69-6.93c3.69,0,5.88,2.55,5.88,6.42c0,0.42-0.03,0.84-0.09,1.29h-10.619
		c0.3,2.82,2.46,4.5,4.95,4.5c1.86,0,3.03-0.57,4.05-1.62l1.05,1.32C203.508,188.665,201.888,189.385,199.788,189.385
		 M199.608,177.175c-2.46,0-4.38,1.74-4.74,4.38h8.85C203.658,178.735,202.038,177.175,199.608,177.175 M150.468,189.385
		c-3.99,0-6.84-2.88-6.84-6.96c0-4.08,2.85-6.96,6.84-6.96c4.05,0,6.9,2.88,6.9,6.96
		C157.368,186.505,154.518,189.385,150.468,189.385 M150.468,177.175c-2.94,0-4.98,2.19-4.98,5.25c0,3.09,2.04,5.25,4.98,5.25
		c2.97,0,5.04-2.16,5.04-5.25C155.508,179.365,153.468,177.175,150.468,177.175 M57.079,189.385c-4.02,0-6.84-2.88-6.84-6.99
		c0-3.84,2.76-6.93,6.69-6.93c3.69,0,5.88,2.55,5.88,6.42c0,0.42-0.03,0.84-0.09,1.29H52.099c0.3,2.82,2.46,4.5,4.95,4.5
		c1.86,0,3.03-0.57,4.05-1.62l1.05,1.32C60.799,188.665,59.179,189.385,57.079,189.385 M56.899,177.175c-2.46,0-4.38,1.74-4.74,4.38
		h8.849C60.949,178.735,59.329,177.175,56.899,177.175 M72.049,189.355c-3.93,0-6.66-2.94-6.66-6.99c0-3.93,2.76-6.84,6.66-6.84
		c2.16,0,4.05,0.96,5.13,2.52c-0.03-1.14-0.06-2.34-0.06-3.6v-6.9h1.83v21.509h-1.41l-0.27-2.37
		C76.189,188.335,74.359,189.355,72.049,189.355 M72.169,177.235c-2.94,0-4.95,2.16-4.95,5.19c0,3.03,2.01,5.19,4.95,5.19
		c3.06,0,5.01-2.19,5.01-5.19C77.179,179.425,75.169,177.235,72.169,177.235 M249.527,189.295c-2.16,0-3.51-1.26-3.51-3.99v-7.89
		l-2.58-0.12v-1.5h2.58v-4.41h1.83v4.41h4.74v1.62h-4.74v7.89c0,1.68,0.69,2.25,1.86,2.25c0.93,0,1.77-0.3,2.61-0.9l0.81,1.38
		C252.137,188.785,250.907,189.295,249.527,189.295 M182.988,189.295c-3.3,0-4.83-2.19-4.83-5.43v-8.07h1.83v8.1
		c0,2.16,0.84,3.69,3.21,3.69c2.64,0,4.2-2.37,4.2-5.19v-6.6h1.83v13.26h-1.41l-0.36-2.31
		C186.678,188.155,185.178,189.295,182.988,189.295 M86.808,189.295c-2.58,0-4.23-1.41-4.23-3.69c0-2.97,2.73-4.68,6.63-4.68
		c0.99,0,1.74,0.03,2.43,0.12v-0.9c0-1.86-1.32-2.79-3.36-2.79c-1.44,0-2.91,0.42-4.38,1.11l-0.63-1.56
		c1.8-0.84,3.51-1.26,5.19-1.26c3.03,0,5.04,1.59,5.04,4.59v8.82h-1.35l-0.33-2.4C90.858,188.245,89.148,189.295,86.808,189.295
		 M89.479,182.455c-3.12,0-4.98,1.08-4.98,3.03c0,1.32,0.96,2.1,2.61,2.1c2.73,0,4.44-1.98,4.53-5.01
		C90.918,182.485,90.348,182.455,89.479,182.455 M236.417,189.055h-1.83v-13.26h1.38l0.36,1.95c0.75-1.38,2.01-2.22,3.87-2.22
		c0.84,0,1.56,0.18,2.16,0.45l-0.54,1.62c-0.51-0.18-1.02-0.33-1.77-0.33c-2.16,0-3.63,1.53-3.63,4.11V189.055 M211.608,189.055
		h-1.83v-11.64h-2.76v-1.62h2.76v-3.81c0-2.61,1.35-4.8,4.29-4.8c1.41,0,2.4,0.42,3.42,1.17l-0.84,1.32
		c-0.75-0.51-1.41-0.78-2.37-0.78c-1.62,0-2.67,1.05-2.67,3.09v3.81h4.35v1.62h-4.35V189.055 M136.609,189.055h-1.83v-13.26h1.38
		l0.36,1.95c0.75-1.38,2.01-2.22,3.87-2.22c0.84,0,1.56,0.18,2.16,0.45l-0.54,1.62c-0.51-0.18-1.02-0.33-1.77-0.33
		c-2.16,0-3.63,1.53-3.63,4.11V189.055 M99.828,189.055h-1.83v-13.26h1.38l0.36,1.95c0.75-1.38,2.01-2.22,3.87-2.22
		c0.84,0,1.56,0.18,2.16,0.45l-0.54,1.62c-0.51-0.18-1.02-0.33-1.77-0.33c-2.16,0-3.63,1.53-3.63,4.11V189.055 M46.699,189.055
		h-1.83v-8.16c0-2.22-0.9-3.66-3.12-3.66c-2.82,0-4.38,2.4-4.38,5.28v6.54h-1.83v-21.509h1.83v8.58c0,0.66,0,1.29-0.03,2.07
		c0.81-1.56,2.34-2.67,4.59-2.67c3.24,0,4.77,2.04,4.77,5.43V189.055"/>
	<path fill="#9D9D9C" d="M901.963,170.067c-3.024,0-5.28,1.92-5.809,4.872c-0.072,0.384-0.096,0.744-0.096,1.08
		c0,2.592,1.824,4.272,4.128,4.272c1.248,0,2.184-0.288,3.192-1.032c-1.176,2.952-3.648,4.776-7.345,4.896l0.168,2.304
		c6.049-0.096,9.337-3.96,10.369-9.145l0.072-0.336c0.12-0.6,0.168-1.176,0.168-1.728
		C906.812,172.179,905.132,170.067,901.963,170.067z M901.003,177.987c-1.44,0-2.232-1.032-2.232-2.328
		c0-0.192,0.024-0.384,0.048-0.576c0.312-1.656,1.44-2.568,3.024-2.592c1.344,0,2.328,0.936,2.328,2.28
		c0,0.168-0.024,0.336-0.048,0.528C903.859,176.835,902.779,177.987,901.003,177.987z M909.715,183.22
		c-0.816,0-1.584,0.504-1.776,1.464c-0.024,0.12-0.024,0.24-0.024,0.336c0,0.912,0.648,1.512,1.392,1.512h0.12
		c-0.36,1.008-1.032,1.776-2.04,2.544l0.576,0.696c1.68-1.128,2.808-2.64,3.216-4.296c0.072-0.24,0.096-0.48,0.096-0.696
		C911.275,183.748,910.579,183.22,909.715,183.22z M925.435,172.803l0.432-2.424h-7.993l-2.352,8.113l0.408,0.312
		c0.888-0.312,1.8-0.504,2.736-0.504c1.776,0,3.048,0.792,3.048,2.328c0,0.192,0,0.384-0.048,0.6
		c-0.336,1.848-1.872,2.784-3.672,2.784c-1.44,0-2.472-0.528-3.048-1.392l-1.68,1.848c0.984,1.272,2.688,2.088,4.8,2.088
		c3.288,0,5.832-1.896,6.337-4.92c0.072-0.432,0.12-0.816,0.12-1.2c0-2.736-1.944-4.2-4.848-4.2c-0.384,0-0.72,0.024-1.032,0.048
		l1.056-3.48z M931.459,186.532c3.864,0,6.265-3.096,7.129-8.041c0.144-0.864,0.216-1.68,0.216-2.424c0-3.696-1.8-5.977-4.728-5.977
		c-3.96,0-6.241,3.072-7.129,8.017c-0.144,0.888-0.24,1.704-0.24,2.472C926.706,184.276,928.482,186.532,931.459,186.532z
		 M931.651,184.084c-1.464,0-2.184-1.368-2.184-3.504c0-0.672,0.072-1.44,0.216-2.256c0.624-3.552,2.16-5.785,4.2-5.785
		c1.464,0,2.16,1.344,2.16,3.456c0,0.696-0.072,1.464-0.216,2.28C935.203,181.828,933.691,184.084,931.651,184.084z"/>
	<path fill="#9D9D9C" d="M948.968,172.882c0.76,0,1.34,0.12,1.9,0.34l1-1.82c-0.88-0.4-1.7-0.62-2.881-0.62
		c-3.461,0-5.941,1.88-6.982,4.741h-1.5l-0.24,1.4h1.36c-0.06,0.36-0.12,0.74-0.14,1.12h-1.42l-0.26,1.4h1.7
		c0.26,2.861,2.24,5.041,5.501,5.041c1.04,0,1.92-0.18,2.801-0.6l-0.44-1.96c-0.64,0.32-1.26,0.46-2.06,0.46
		c-2.12,0-3.181-1.16-3.461-2.941h2.921l0.78-1.4h-3.741c0.02-0.38,0.06-0.76,0.16-1.12h4.161l0.76-1.4h-4.421
		C945.307,173.922,946.868,172.882,948.968,172.882z"/>
	<path fill="#000000" d="M258.587,237.655h-1.92v-0.06l2.94-6.87l-5.79-12.87v-0.06h1.92l3.81,8.49c0.33,0.78,0.66,1.53,0.96,2.46
		c0.3-0.93,0.6-1.71,0.9-2.46l3.45-8.49h1.89v0.06L258.587,237.655 M144.798,234.685l-0.6-0.57c0.9-0.96,1.44-1.74,1.56-2.79
		l-0.3,0.03c-0.81,0-1.41-0.54-1.41-1.38c0-0.96,0.72-1.41,1.41-1.41c0.78,0,1.44,0.51,1.44,1.83
		C146.898,232.045,146.118,233.485,144.798,234.685 M239.957,231.385c-4.02,0-6.84-2.88-6.84-6.99c0-3.84,2.76-6.93,6.69-6.93
		c3.69,0,5.88,2.55,5.88,6.42c0,0.42-0.03,0.84-0.09,1.29h-10.619c0.3,2.82,2.46,4.5,4.95,4.5c1.86,0,3.03-0.57,4.05-1.62l1.05,1.32
		C243.677,230.665,242.057,231.385,239.957,231.385 M239.777,219.175c-2.46,0-4.38,1.74-4.74,4.38h8.85
		C243.827,220.735,242.207,219.175,239.777,219.175 M174.858,231.385c-3.99,0-6.84-2.88-6.84-6.96c0-4.08,2.85-6.96,6.84-6.96
		c4.05,0,6.9,2.88,6.9,6.96C181.757,228.505,178.907,231.385,174.858,231.385 M174.858,219.175c-2.94,0-4.98,2.19-4.98,5.25
		c0,3.09,2.04,5.25,4.98,5.25c2.97,0,5.04-2.16,5.04-5.25C179.897,221.365,177.858,219.175,174.858,219.175 M108.469,231.385
		c-4.02,0-6.84-2.88-6.84-6.99c0-3.84,2.76-6.93,6.69-6.93c3.69,0,5.88,2.55,5.88,6.42c0,0.42-0.03,0.84-0.09,1.29h-10.619
		c0.3,2.82,2.46,4.5,4.95,4.5c1.86,0,3.03-0.57,4.05-1.62l1.05,1.32C112.188,230.665,110.568,231.385,108.469,231.385
		 M108.289,219.175c-2.46,0-4.38,1.74-4.74,4.38h8.849C112.338,220.735,110.718,219.175,108.289,219.175 M76.309,231.385
		c-3.99,0-6.84-2.88-6.84-6.96c0-4.08,2.85-6.96,6.84-6.96c4.05,0,6.9,2.88,6.9,6.96C83.209,228.505,80.359,231.385,76.309,231.385
		 M76.309,219.175c-2.94,0-4.98,2.19-4.98,5.25c0,3.09,2.04,5.25,4.98,5.25c2.97,0,5.04-2.16,5.04-5.25
		C81.349,221.365,79.309,219.175,76.309,219.175 M305.208,231.295c-3.3,0-4.83-2.19-4.83-5.43v-8.07h1.83v8.1
		c0,2.16,0.84,3.69,3.21,3.69c2.64,0,4.2-2.37,4.2-5.19v-6.6h1.83v13.259h-1.41l-0.39-2.31
		C308.898,230.155,307.367,231.295,305.208,231.295 M294.497,231.295c-2.16,0-3.51-1.26-3.51-3.99v-7.89l-2.58-0.12v-1.5h2.58v-4.41
		h1.83v4.41h4.74v1.62h-4.74v7.89c0,1.68,0.69,2.25,1.86,2.25c0.93,0,1.77-0.3,2.61-0.9l0.81,1.38
		C297.107,230.785,295.878,231.295,294.497,231.295 M279.138,231.295c-2.58,0-4.23-1.41-4.23-3.69c0-2.97,2.73-4.68,6.63-4.68
		c0.99,0,1.74,0.03,2.43,0.12v-0.9c0-1.86-1.32-2.79-3.36-2.79c-1.44,0-2.91,0.42-4.38,1.11l-0.63-1.56
		c1.8-0.84,3.51-1.26,5.19-1.26c3.03,0,5.04,1.59,5.04,4.59v8.82h-1.35l-0.33-2.4C283.187,230.245,281.477,231.295,279.138,231.295
		 M281.807,224.455c-3.12,0-4.98,1.08-4.98,3.03c0,1.32,0.96,2.1,2.61,2.1c2.73,0,4.44-1.98,4.53-5.01
		C283.247,224.485,282.677,224.455,281.807,224.455 M228.017,231.295c-2.16,0-3.51-1.26-3.51-3.99v-7.89l-2.58-0.12v-1.5h2.58v-4.41
		h1.83v4.41h4.74v1.62h-4.74v7.89c0,1.68,0.69,2.25,1.86,2.25c0.93,0,1.77-0.3,2.61-0.9l0.81,1.38
		C230.627,230.785,229.397,231.295,228.017,231.295 M212.657,231.295c-2.58,0-4.23-1.41-4.23-3.69c0-2.97,2.73-4.68,6.63-4.68
		c0.99,0,1.74,0.03,2.43,0.12v-0.9c0-1.86-1.32-2.79-3.36-2.79c-1.44,0-2.91,0.42-4.38,1.11l-0.63-1.56
		c1.8-0.84,3.51-1.26,5.19-1.26c3.03,0,5.04,1.59,5.04,4.59v8.82h-1.35l-0.33-2.4C216.707,230.245,214.997,231.295,212.657,231.295
		 M215.327,224.455c-3.12,0-4.98,1.08-4.98,3.03c0,1.32,0.96,2.1,2.61,2.1c2.73,0,4.44-1.98,4.53-5.01
		C216.767,224.485,216.197,224.455,215.327,224.455 M162.917,231.295c-2.16,0-3.51-1.26-3.51-3.99v-7.89l-2.58-0.12v-1.5h2.58v-4.41
		h1.83v4.41h4.74v1.62h-4.74v7.89c0,1.68,0.69,2.25,1.86,2.25c0.93,0,1.77-0.3,2.61-0.9l0.81,1.38
		C165.527,230.785,164.297,231.295,162.917,231.295 M132.798,231.295c-2.58,0-4.23-1.41-4.23-3.69c0-2.97,2.73-4.68,6.63-4.68
		c0.99,0,1.74,0.03,2.43,0.12v-0.9c0-1.86-1.32-2.79-3.36-2.79c-1.44,0-2.91,0.42-4.38,1.11l-0.63-1.56
		c1.8-0.84,3.51-1.26,5.19-1.26c3.03,0,5.04,1.59,5.04,4.59v8.82h-1.35l-0.33-2.4C136.848,230.245,135.138,231.295,132.798,231.295
		 M135.468,224.455c-3.12,0-4.98,1.08-4.98,3.03c0,1.32,0.96,2.1,2.61,2.1c2.73,0,4.44-1.98,4.53-5.01
		C136.908,224.485,136.338,224.455,135.468,224.455 M121.518,231.295c-1.86,0-3.42-0.51-4.83-1.47l0.93-1.44
		c1.17,0.84,2.43,1.2,3.9,1.2c1.62,0,2.67-0.81,2.67-2.01c0-1.29-1.47-1.95-3.06-2.58c-2.16-0.84-3.96-1.86-3.96-3.99
		c0-2.22,2.04-3.36,4.29-3.36c1.44,0,2.82,0.42,4.02,1.2l-0.81,1.32c-0.96-0.54-2.04-0.84-3.12-0.84c-1.35,0-2.55,0.45-2.55,1.68
		c0,1.2,1.23,1.8,2.79,2.4c2.4,0.9,4.23,1.95,4.23,4.17C126.018,229.795,124.128,231.295,121.518,231.295 M43.58,231.295
		c-2.58,0-4.23-1.41-4.23-3.69c0-2.97,2.73-4.68,6.63-4.68c0.99,0,1.74,0.03,2.43,0.12v-0.9c0-1.86-1.32-2.79-3.36-2.79
		c-1.44,0-2.91,0.42-4.38,1.11l-0.63-1.56c1.8-0.84,3.51-1.26,5.19-1.26c3.03,0,5.04,1.59,5.04,4.59v8.82h-1.35l-0.33-2.4
		C47.63,230.245,45.92,231.295,43.58,231.295 M46.25,224.455c-3.12,0-4.98,1.08-4.98,3.03c0,1.32,0.96,2.1,2.61,2.1
		c2.73,0,4.44-1.98,4.53-5.01C47.69,224.485,47.12,224.455,46.25,224.455 M327.287,231.055h-1.83v-8.129c0-2.25-0.84-3.69-3.06-3.69
		c-2.67,0-4.44,1.92-4.44,4.68v7.14h-1.83v-13.259h1.38l0.42,2.25c0.78-1.41,2.4-2.52,4.65-2.52c3.09,0,4.71,1.98,4.71,5.43V231.055
		 M204.977,231.055h-1.83v-8.4c0-2.13-1.08-3.42-2.94-3.42c-2.67,0-4.05,2.43-4.05,4.92v6.9h-1.83v-8.43c0-1.83-0.93-3.39-2.94-3.39
		c-2.7,0-4.08,2.43-4.08,4.92v6.9h-1.83v-13.259h1.38l0.42,2.28c0.87-1.62,2.4-2.55,4.32-2.55c2.01,0,3.48,0.99,4.11,2.67
		c0.87-1.62,2.4-2.67,4.62-2.67c3.03,0,4.65,2.01,4.65,5.22V231.055 M98.089,231.055h-1.83v-8.129c0-2.25-0.84-3.69-3.06-3.69
		c-2.67,0-4.44,1.92-4.44,4.68v7.14h-1.83v-13.259h1.38l0.42,2.25c0.78-1.41,2.4-2.52,4.65-2.52c3.09,0,4.71,1.98,4.71,5.43V231.055
		 M65.929,231.055h-1.83v-8.16c0-2.22-0.9-3.66-3.12-3.66c-2.82,0-4.38,2.4-4.38,5.28v6.54h-1.83v-21.509h1.83v8.58
		c0,0.66,0,1.29-0.03,2.07c0.81-1.56,2.34-2.67,4.59-2.67c3.24,0,4.77,2.04,4.77,5.43V231.055 M36.319,231.055h-1.92l-1.98-14.069
		c-0.09-0.63-0.18-1.29-0.21-2.01c-0.39,0.66-0.75,1.26-1.11,1.83l-5.7,9.21h-0.45l-5.73-9.27c-0.33-0.51-0.69-1.11-1.05-1.71
		c-0.06,0.69-0.18,1.35-0.27,1.95l-1.95,14.069H14l2.91-20.579h0.6l6.39,10.38c0.42,0.66,0.84,1.35,1.26,2.16
		c0.42-0.81,0.84-1.5,1.26-2.19l6.42-10.349h0.57L36.319,231.055 M304.338,214.946l-0.93-1.08l3.96-3.39l1.2,1.41L304.338,214.946"
		/>
	<path fill="#9D9D9C" d="M898.291,228.508c3.504,0,5.88-1.608,6.385-4.44c0.048-0.288,0.072-0.576,0.072-0.84
		c0-1.608-0.888-2.808-2.112-3.384c1.488-0.624,2.976-2.04,2.976-4.2c0-2.088-1.728-3.576-4.512-3.576
		c-3.12,0-5.424,1.656-5.88,4.224c-0.048,0.216-0.048,0.456-0.048,0.648c0,1.344,0.72,2.448,1.752,2.904
		c-1.824,0.552-3.216,2.112-3.552,3.96c-0.048,0.288-0.072,0.576-0.072,0.864C893.299,227.044,895.219,228.508,898.291,228.508z
		 M899.995,218.715c-1.368,0-2.184-0.672-2.184-1.752c0-1.584,1.2-2.592,2.88-2.592c1.368,0,2.184,0.672,2.184,1.704
		C902.876,217.611,901.652,218.715,899.995,218.715z M898.699,226.084c-1.512,0-2.544-0.648-2.544-1.968
		c0-0.168,0.024-0.312,0.048-0.48c0.264-1.536,1.584-2.64,3.312-2.64c1.608,0,2.472,0.816,2.472,2.064
		C901.988,224.98,900.499,226.084,898.699,226.084z M908.635,225.22c-0.816,0-1.584,0.504-1.776,1.464
		c-0.024,0.12-0.024,0.24-0.024,0.336c0,0.912,0.648,1.512,1.392,1.512h0.12c-0.36,1.008-1.032,1.776-2.04,2.544l0.576,0.696
		c1.68-1.128,2.808-2.64,3.216-4.296c0.072-0.24,0.096-0.48,0.096-0.696C910.195,225.748,909.499,225.22,908.635,225.22z
		 M920.179,212.067c-3.024,0-5.28,1.92-5.809,4.872c-0.072,0.384-0.096,0.744-0.096,1.08c0,2.592,1.824,4.272,4.128,4.272
		c1.248,0,2.184-0.288,3.192-1.032c-1.176,2.952-3.648,4.776-7.345,4.896l0.168,2.304c6.049-0.096,9.337-3.96,10.369-9.145
		l0.072-0.336c0.12-0.6,0.168-1.176,0.168-1.728C925.027,214.179,923.347,212.067,920.179,212.067z M919.219,219.987
		c-1.44,0-2.232-1.032-2.232-2.328c0-0.192,0.024-0.384,0.048-0.576c0.312-1.656,1.44-2.568,3.024-2.592
		c1.344,0,2.328,0.936,2.328,2.28c0,0.168-0.024,0.336-0.048,0.528C922.075,218.835,920.995,219.987,919.219,219.987z
		 M931.459,228.532c3.864,0,6.265-3.096,7.129-8.041c0.144-0.864,0.216-1.68,0.216-2.424c0-3.696-1.8-5.977-4.728-5.977
		c-3.96,0-6.241,3.072-7.129,8.017c-0.144,0.888-0.24,1.704-0.24,2.472C926.706,226.276,928.482,228.532,931.459,228.532z
		 M931.651,226.084c-1.464,0-2.184-1.368-2.184-3.504c0-0.672,0.072-1.44,0.216-2.256c0.624-3.552,2.16-5.785,4.2-5.785
		c1.464,0,2.16,1.344,2.16,3.456c0,0.696-0.072,1.464-0.216,2.28C935.203,223.828,933.691,226.084,931.651,226.084z"/>
	<path fill="#9D9D9C" d="M948.968,214.882c0.76,0,1.34,0.12,1.9,0.34l1-1.82c-0.88-0.4-1.7-0.62-2.881-0.62
		c-3.461,0-5.941,1.88-6.982,4.741h-1.5l-0.24,1.4h1.36c-0.06,0.36-0.12,0.74-0.14,1.12h-1.42l-0.26,1.4h1.7
		c0.26,2.861,2.24,5.041,5.501,5.041c1.04,0,1.92-0.18,2.801-0.6l-0.44-1.96c-0.64,0.32-1.26,0.46-2.06,0.46
		c-2.12,0-3.181-1.16-3.461-2.941h2.921l0.78-1.4h-3.741c0.02-0.38,0.06-0.76,0.16-1.12h4.161l0.76-1.4h-4.421
		C945.307,215.922,946.868,214.882,948.968,214.882z"/>
	<path fill="#000000" d="M20.96,273.415c-2.76,0-5.28-0.99-7.02-2.46l1.02-1.56c1.53,1.38,3.66,2.19,6,2.19
		c2.55,0,4.77-1.35,4.77-3.78c0-2.52-2.34-3.51-5.01-4.44c-3-1.05-6.21-2.55-6.21-5.97c0-3.21,2.94-5.1,6.24-5.1
		c2.28,0,4.23,0.6,6.18,2.04l-0.9,1.5c-1.65-1.17-3.27-1.71-5.19-1.71c-2.19,0-4.32,1.05-4.32,3.18c0,2.49,2.46,3.39,4.92,4.26
		c3.36,1.2,6.27,2.7,6.27,6.15C27.71,271.285,24.71,273.415,20.96,273.415 M184.277,273.385c-3.99,0-6.84-2.88-6.84-6.96
		c0-4.08,2.85-6.96,6.84-6.96c4.05,0,6.9,2.88,6.9,6.96C191.177,270.505,188.327,273.385,184.277,273.385 M184.277,261.175
		c-2.94,0-4.98,2.19-4.98,5.25c0,3.09,2.04,5.25,4.98,5.25c2.97,0,5.04-2.16,5.04-5.25
		C189.317,263.365,187.277,261.175,184.277,261.175 M134.778,273.385c-3.99,0-6.84-2.88-6.84-6.96c0-4.08,2.85-6.96,6.84-6.96
		c4.05,0,6.9,2.88,6.9,6.96C141.677,270.505,138.827,273.385,134.778,273.385 M134.778,261.175c-2.94,0-4.98,2.19-4.98,5.25
		c0,3.09,2.04,5.25,4.98,5.25c2.97,0,5.04-2.16,5.04-5.25C139.817,263.365,137.777,261.175,134.778,261.175 M120.918,273.385
		c-3.3,0-6.6-2.43-6.6-6.99c0-4.38,3.18-6.9,6.78-6.9c1.92,0,3.39,0.6,4.74,1.8l-1.05,1.26c-1.08-0.93-2.13-1.35-3.69-1.35
		c-2.76,0-4.92,2.07-4.92,5.19c0,3.18,2.13,5.28,4.89,5.28c1.8,0,2.88-0.57,3.96-1.59l1.02,1.32
		C124.668,272.695,123.228,273.385,120.918,273.385 M82.159,273.385c-3.99,0-6.84-2.88-6.84-6.96c0-4.08,2.85-6.96,6.84-6.96
		c4.05,0,6.9,2.88,6.9,6.96C89.058,270.505,86.208,273.385,82.159,273.385 M82.159,261.175c-2.94,0-4.98,2.19-4.98,5.25
		c0,3.09,2.04,5.25,4.98,5.25c2.97,0,5.04-2.16,5.04-5.25C87.198,263.365,85.158,261.175,82.159,261.175 M238.935,273.295
		c-2.58,0-4.23-1.41-4.23-3.69c0-2.97,2.73-4.68,6.63-4.68c0.99,0,1.74,0.03,2.43,0.12v-0.9c0-1.86-1.32-2.79-3.36-2.79
		c-1.44,0-2.91,0.42-4.38,1.11l-0.63-1.56c1.8-0.84,3.51-1.26,5.19-1.26c3.03,0,5.04,1.59,5.04,4.59v8.82h-1.35l-0.33-2.4
		C242.985,272.245,241.275,273.295,238.935,273.295 M241.605,266.455c-3.12,0-4.98,1.08-4.98,3.03c0,1.32,0.96,2.1,2.61,2.1
		c2.73,0,4.44-1.98,4.53-5.01C243.045,266.485,242.475,266.455,241.605,266.455 M209.836,273.295c-2.16,0-3.51-1.26-3.51-3.99v-7.89
		l-2.58-0.12v-1.5h2.58v-4.41h1.83v4.41h4.74v1.62h-4.74v7.89c0,1.68,0.69,2.25,1.86,2.25c0.93,0,1.77-0.3,2.61-0.9l0.81,1.38
		C212.446,272.785,211.216,273.295,209.836,273.295 M172.337,273.295c-2.16,0-3.51-1.26-3.51-3.99v-7.89l-2.58-0.12v-1.5h2.58v-4.41
		h1.83v4.41h4.74v1.62h-4.74v7.89c0,1.68,0.69,2.25,1.86,2.25c0.93,0,1.77-0.3,2.61-0.9l0.81,1.38
		C174.947,272.785,173.717,273.295,172.337,273.295 M34.55,273.295c-2.58,0-4.23-1.41-4.23-3.69c0-2.97,2.73-4.68,6.63-4.68
		c0.99,0,1.74,0.03,2.43,0.12v-0.9c0-1.86-1.32-2.79-3.36-2.79c-1.44,0-2.91,0.42-4.38,1.11l-0.63-1.56
		c1.8-0.84,3.51-1.26,5.19-1.26c3.03,0,5.04,1.59,5.04,4.59v8.82h-1.35l-0.33-2.4C38.6,272.245,36.89,273.295,34.55,273.295
		 M37.22,266.455c-3.12,0-4.98,1.08-4.98,3.03c0,1.32,0.96,2.1,2.61,2.1c2.73,0,4.44-1.98,4.53-5.01
		C38.66,266.485,38.09,266.455,37.22,266.455 M231.076,273.055h-1.83l-0.03-21.509h1.83L231.076,273.055 M224.536,273.055h-1.83
		l-0.03-21.509h1.83L224.536,273.055 M217.996,273.055h-1.83v-13.259h1.83V273.055 M196.727,273.055h-1.83v-13.259h1.38l0.36,1.95
		c0.75-1.38,2.01-2.22,3.87-2.22c0.84,0,1.56,0.18,2.16,0.45l-0.54,1.62c-0.51-0.18-1.02-0.33-1.77-0.33
		c-2.16,0-3.63,1.53-3.63,4.11V273.055 M156.557,273.055h-1.83v-8.13c0-2.25-0.84-3.69-3.06-3.69c-2.67,0-4.44,1.92-4.44,4.68v7.14
		h-1.83v-13.259h1.38l0.42,2.25c0.78-1.41,2.4-2.52,4.65-2.52c3.09,0,4.71,1.98,4.71,5.43V273.055 M103.938,273.055h-1.83v-8.13
		c0-2.25-0.84-3.69-3.06-3.69c-2.67,0-4.44,1.92-4.44,4.68v7.14h-1.83v-13.259h1.38l0.42,2.25c0.78-1.41,2.4-2.52,4.65-2.52
		c3.09,0,4.71,1.98,4.71,5.43V273.055 M71.778,273.055h-1.83v-8.4c0-2.13-1.08-3.42-2.94-3.42c-2.67,0-4.05,2.43-4.05,4.92v6.9
		h-1.83v-8.43c0-1.83-0.93-3.39-2.94-3.39c-2.7,0-4.08,2.43-4.08,4.92v6.9h-1.83v-13.259h1.38l0.42,2.28
		c0.87-1.62,2.4-2.55,4.32-2.55c2.01,0,3.48,0.99,4.11,2.67c0.87-1.62,2.4-2.67,4.62-2.67c3.03,0,4.65,2.01,4.65,5.22V273.055
		 M47.599,273.055h-1.83l-0.03-21.509h1.83L47.599,273.055 M80.569,256.945l-0.93-1.08l3.96-3.39l1.2,1.41L80.569,256.945
		 M217.096,256.316c-0.84,0-1.38-0.6-1.38-1.32c0-0.78,0.54-1.38,1.38-1.38c0.84,0,1.38,0.6,1.38,1.38
		C218.476,255.746,217.906,256.316,217.096,256.316"/>
	<path fill="#9D9D9C" d="M900.883,254.067c-3.024,0-5.28,1.92-5.809,4.872c-0.072,0.384-0.096,0.744-0.096,1.08
		c0,2.592,1.824,4.272,4.128,4.272c1.248,0,2.184-0.288,3.192-1.032c-1.176,2.952-3.648,4.776-7.345,4.896l0.168,2.304
		c6.049-0.096,9.337-3.96,10.369-9.145l0.072-0.336c0.12-0.6,0.168-1.176,0.168-1.728
		C905.732,256.179,904.052,254.067,900.883,254.067z M899.923,261.987c-1.44,0-2.232-1.032-2.232-2.328
		c0-0.192,0.024-0.384,0.048-0.576c0.312-1.656,1.44-2.568,3.024-2.592c1.344,0,2.328,0.936,2.328,2.28
		c0,0.168-0.024,0.336-0.048,0.528C902.78,260.835,901.699,261.987,899.923,261.987z M908.635,267.22
		c-0.816,0-1.584,0.504-1.776,1.464c-0.024,0.12-0.024,0.24-0.024,0.336c0,0.912,0.648,1.512,1.392,1.512h0.12
		c-0.36,1.008-1.032,1.776-2.04,2.544l0.576,0.696c1.68-1.128,2.808-2.64,3.216-4.296c0.072-0.24,0.096-0.48,0.096-0.696
		C910.195,267.748,909.499,267.22,908.635,267.22z M920.179,254.067c-3.024,0-5.28,1.92-5.809,4.872
		c-0.072,0.384-0.096,0.744-0.096,1.08c0,2.592,1.824,4.272,4.128,4.272c1.248,0,2.184-0.288,3.192-1.032
		c-1.176,2.952-3.648,4.776-7.345,4.896l0.168,2.304c6.049-0.096,9.337-3.96,10.369-9.145l0.072-0.336
		c0.12-0.6,0.168-1.176,0.168-1.728C925.027,256.179,923.347,254.067,920.179,254.067z M919.219,261.987
		c-1.44,0-2.232-1.032-2.232-2.328c0-0.192,0.024-0.384,0.048-0.576c0.312-1.656,1.44-2.568,3.024-2.592
		c1.344,0,2.328,0.936,2.328,2.28c0,0.168-0.024,0.336-0.048,0.528C922.075,260.835,920.995,261.987,919.219,261.987z
		 M931.459,270.532c3.864,0,6.265-3.096,7.129-8.041c0.144-0.864,0.216-1.68,0.216-2.424c0-3.696-1.8-5.977-4.728-5.977
		c-3.96,0-6.241,3.072-7.129,8.017c-0.144,0.888-0.24,1.704-0.24,2.472C926.706,268.276,928.482,270.532,931.459,270.532z
		 M931.651,268.084c-1.464,0-2.184-1.368-2.184-3.504c0-0.672,0.072-1.44,0.216-2.256c0.624-3.552,2.16-5.785,4.2-5.785
		c1.464,0,2.16,1.344,2.16,3.456c0,0.696-0.072,1.464-0.216,2.28C935.203,265.828,933.691,268.084,931.651,268.084z"/>
	<path fill="#9D9D9C" d="M948.968,256.882c0.76,0,1.34,0.12,1.9,0.34l1-1.82c-0.88-0.4-1.7-0.62-2.881-0.62
		c-3.461,0-5.941,1.88-6.982,4.741h-1.5l-0.24,1.4h1.36c-0.06,0.36-0.12,0.74-0.14,1.12h-1.42l-0.26,1.4h1.7
		c0.26,2.861,2.24,5.041,5.501,5.041c1.04,0,1.92-0.18,2.801-0.6l-0.44-1.96c-0.64,0.32-1.26,0.46-2.06,0.46
		c-2.12,0-3.181-1.16-3.461-2.941h2.921l0.78-1.4h-3.741c0.02-0.38,0.06-0.76,0.16-1.12h4.161l0.76-1.4h-4.421
		C945.307,257.922,946.868,256.882,948.968,256.882z"/>
	<path fill="#000000" d="M465.044,321.955l-0.24-1.62c3-0.24,3.63-1.53,3.63-4.38v-14.159h1.83v14.069
		C470.264,319.825,469.124,321.715,465.044,321.955 M450.944,321.655h-1.92v-0.06l2.94-6.87l-5.79-12.87v-0.06h1.92l3.81,8.49
		c0.33,0.78,0.66,1.53,0.96,2.46c0.3-0.93,0.6-1.71,0.9-2.46l3.45-8.49h1.89v0.06L450.944,321.655 M331.605,321.655h-1.83v-19.859
		h1.38l0.39,2.22c1.14-1.53,2.94-2.49,5.19-2.49c3.78,0,6.54,2.88,6.54,6.84c0,4.08-2.76,6.99-6.57,6.99
		c-2.19,0-4.05-0.99-5.16-2.49c0.03,1.02,0.06,2.25,0.06,3.57V321.655 M336.584,303.235c-2.97,0-5.07,2.1-5.07,5.13
		c0,3.15,2.13,5.28,5.07,5.28c2.85,0,4.86-2.16,4.86-5.19C341.444,305.395,339.434,303.235,336.584,303.235 M519.163,315.385
		c-3.99,0-6.84-2.88-6.84-6.96c0-4.08,2.85-6.96,6.84-6.96c4.05,0,6.9,2.88,6.9,6.96
		C526.062,312.505,523.213,315.385,519.163,315.385 M519.163,303.175c-2.94,0-4.98,2.19-4.98,5.25c0,3.09,2.04,5.25,4.98,5.25
		c2.97,0,5.04-2.16,5.04-5.25C524.203,305.365,522.163,303.175,519.163,303.175 M430.964,315.385c-3.99,0-6.84-2.88-6.84-6.96
		c0-4.08,2.85-6.96,6.84-6.96c4.05,0,6.9,2.88,6.9,6.96C437.863,312.505,435.013,315.385,430.964,315.385 M430.964,303.175
		c-2.94,0-4.98,2.19-4.98,5.25c0,3.09,2.04,5.25,4.98,5.25c2.97,0,5.04-2.16,5.04-5.25
		C436.003,305.365,433.963,303.175,430.964,303.175 M389.924,315.385c-4.02,0-6.84-2.88-6.84-6.99c0-3.84,2.76-6.93,6.69-6.93
		c3.69,0,5.88,2.55,5.88,6.42c0,0.42-0.03,0.84-0.09,1.29h-10.619c0.3,2.82,2.46,4.5,4.95,4.5c1.86,0,3.03-0.57,4.05-1.62l1.05,1.32
		C393.643,314.665,392.023,315.385,389.924,315.385 M389.744,303.175c-2.46,0-4.38,1.74-4.74,4.38h8.85
		C393.793,304.735,392.173,303.175,389.744,303.175 M296.655,315.385c-3.99,0-6.84-2.88-6.84-6.96c0-4.08,2.85-6.96,6.84-6.96
		c4.05,0,6.9,2.88,6.9,6.96C303.555,312.505,300.705,315.385,296.655,315.385 M296.655,303.175c-2.94,0-4.98,2.19-4.98,5.25
		c0,3.09,2.04,5.25,4.98,5.25c2.97,0,5.04-2.16,5.04-5.25C301.695,305.365,299.655,303.175,296.655,303.175 M282.796,315.385
		c-3.3,0-6.6-2.43-6.6-6.99c0-4.38,3.18-6.9,6.78-6.9c1.92,0,3.39,0.6,4.74,1.8l-1.05,1.26c-1.08-0.93-2.13-1.35-3.69-1.35
		c-2.76,0-4.92,2.07-4.92,5.19c0,3.18,2.13,5.28,4.89,5.28c1.8,0,2.88-0.57,3.96-1.59l1.02,1.32
		C286.545,314.695,285.105,315.385,282.796,315.385 M228.197,315.385c-3.3,0-6.6-2.43-6.6-6.99c0-4.38,3.18-6.9,6.78-6.9
		c1.92,0,3.39,0.6,4.74,1.8l-1.05,1.26c-1.08-0.93-2.13-1.35-3.69-1.35c-2.76,0-4.92,2.07-4.92,5.19c0,3.18,2.13,5.28,4.89,5.28
		c1.8,0,2.88-0.57,3.96-1.59l1.02,1.32C231.947,314.695,230.507,315.385,228.197,315.385 M202.128,315.385
		c-3.99,0-6.84-2.88-6.84-6.96c0-4.08,2.85-6.96,6.84-6.96c4.05,0,6.9,2.88,6.9,6.96
		C209.027,312.505,206.177,315.385,202.128,315.385 M202.128,303.175c-2.94,0-4.98,2.19-4.98,5.25c0,3.09,2.04,5.25,4.98,5.25
		c2.97,0,5.04-2.16,5.04-5.25C207.167,305.365,205.127,303.175,202.128,303.175 M156.138,315.385c-4.02,0-6.84-2.88-6.84-6.99
		c0-3.84,2.76-6.93,6.69-6.93c3.69,0,5.88,2.55,5.88,6.42c0,0.42-0.03,0.84-0.09,1.29h-10.619c0.3,2.82,2.46,4.5,4.95,4.5
		c1.86,0,3.03-0.57,4.05-1.62l1.05,1.32C159.858,314.665,158.238,315.385,156.138,315.385 M155.958,303.175
		c-2.46,0-4.38,1.74-4.74,4.38h8.849C160.008,304.735,158.388,303.175,155.958,303.175 M115.519,315.385
		c-3.99,0-6.84-2.88-6.84-6.96c0-4.08,2.85-6.96,6.84-6.96c4.05,0,6.9,2.88,6.9,6.96
		C122.419,312.505,119.569,315.385,115.519,315.385 M115.519,303.175c-2.94,0-4.98,2.19-4.98,5.25c0,3.09,2.04,5.25,4.98,5.25
		c2.97,0,5.04-2.16,5.04-5.25C120.559,305.365,118.519,303.175,115.519,303.175 M83.33,315.385c-4.02,0-6.84-2.88-6.84-6.99
		c0-3.84,2.76-6.93,6.69-6.93c3.69,0,5.88,2.55,5.88,6.42c0,0.42-0.03,0.84-0.09,1.29H78.35c0.3,2.82,2.46,4.5,4.95,4.5
		c1.86,0,3.03-0.57,4.05-1.62l1.05,1.32C87.049,314.665,85.429,315.385,83.33,315.385 M83.15,303.175c-2.46,0-4.38,1.74-4.74,4.38
		h8.85C87.199,304.735,85.579,303.175,83.15,303.175 M38.78,315.385c-4.02,0-6.84-2.88-6.84-6.99c0-3.84,2.76-6.93,6.69-6.93
		c3.69,0,5.88,2.55,5.88,6.42c0,0.42-0.03,0.84-0.09,1.29H33.8c0.3,2.82,2.46,4.5,4.95,4.5c1.86,0,3.03-0.57,4.05-1.62l1.05,1.32
		C42.5,314.665,40.88,315.385,38.78,315.385 M38.6,303.175c-2.46,0-4.38,1.74-4.74,4.38h8.849
		C42.65,304.735,41.03,303.175,38.6,303.175 M138.679,315.355c-3.93,0-6.66-2.94-6.66-6.99c0-3.93,2.76-6.84,6.66-6.84
		c2.16,0,4.05,0.96,5.13,2.52c-0.03-1.14-0.06-2.34-0.06-3.6v-6.9h1.83v21.509h-1.41l-0.27-2.37
		C142.818,314.335,140.988,315.355,138.679,315.355 M138.799,303.235c-2.94,0-4.95,2.16-4.95,5.19c0,3.03,2.01,5.19,4.95,5.19
		c3.06,0,5.01-2.19,5.01-5.19C143.808,305.425,141.799,303.235,138.799,303.235 M478.094,315.295c-2.58,0-4.23-1.41-4.23-3.69
		c0-2.97,2.73-4.68,6.63-4.68c0.99,0,1.74,0.03,2.43,0.12v-0.9c0-1.86-1.32-2.79-3.36-2.79c-1.44,0-2.91,0.42-4.38,1.11l-0.63-1.56
		c1.8-0.84,3.51-1.26,5.19-1.26c3.03,0,5.04,1.59,5.04,4.59v8.82h-1.35l-0.33-2.4C482.143,314.245,480.434,315.295,478.094,315.295
		 M480.763,308.455c-3.12,0-4.98,1.08-4.98,3.03c0,1.32,0.96,2.1,2.61,2.1c2.73,0,4.44-1.98,4.53-5.01
		C482.203,308.485,481.633,308.455,480.763,308.455 M419.023,315.295c-2.16,0-3.51-1.26-3.51-3.99v-7.89l-2.58-0.12v-1.5h2.58v-4.41
		h1.83v4.41h4.74v1.62h-4.74v7.89c0,1.68,0.69,2.25,1.86,2.25c0.93,0,1.77-0.3,2.61-0.9l0.81,1.38
		C421.633,314.785,420.403,315.295,419.023,315.295 M259.126,315.295c-2.58,0-4.23-1.41-4.23-3.69c0-2.97,2.73-4.68,6.63-4.68
		c0.99,0,1.74,0.03,2.43,0.12v-0.9c0-1.86-1.32-2.79-3.36-2.79c-1.44,0-2.91,0.42-4.38,1.11l-0.63-1.56
		c1.8-0.84,3.51-1.26,5.19-1.26c3.03,0,5.04,1.59,5.04,4.59v8.82h-1.35l-0.33-2.4C263.176,314.245,261.466,315.295,259.126,315.295
		 M261.796,308.455c-3.12,0-4.98,1.08-4.98,3.03c0,1.32,0.96,2.1,2.61,2.1c2.73,0,4.44-1.98,4.53-5.01
		C263.236,308.485,262.666,308.455,261.796,308.455 M103.579,315.295c-2.16,0-3.51-1.26-3.51-3.99v-7.89l-2.58-0.12v-1.5h2.58v-4.41
		h1.83v4.41h4.74v1.62h-4.74v7.89c0,1.68,0.69,2.25,1.86,2.25c0.93,0,1.77-0.3,2.61-0.9l0.81,1.38
		C106.189,314.785,104.959,315.295,103.579,315.295 M66.53,315.295c-3.3,0-4.83-2.19-4.83-5.43v-8.07h1.83v8.1
		c0,2.16,0.84,3.69,3.21,3.69c2.64,0,4.2-2.37,4.2-5.19v-6.6h1.83v13.259h-1.41l-0.36-2.31
		C70.22,314.155,68.72,315.295,66.53,315.295 M52.91,315.205h-0.66l-6.21-13.35v-0.06h1.98l3.84,8.49c0.27,0.6,0.51,1.2,0.72,1.89
		c0.21-0.69,0.45-1.29,0.72-1.89l3.81-8.49h1.98v0.06L52.91,315.205 M540.942,315.055h-1.83v-8.13c0-2.25-0.84-3.69-3.06-3.69
		c-2.67,0-4.44,1.92-4.44,4.68v7.14h-1.83v-13.259h1.38l0.42,2.25c0.78-1.41,2.4-2.52,4.65-2.52c3.09,0,4.71,1.98,4.71,5.43V315.055
		 M508.783,315.055h-1.83v-8.4c0-2.13-1.08-3.42-2.94-3.42c-2.67,0-4.05,2.43-4.05,4.92v6.9h-1.83v-8.43c0-1.83-0.93-3.39-2.94-3.39
		c-2.7,0-4.08,2.43-4.08,4.92v6.9h-1.83v-13.259h1.38l0.42,2.28c0.87-1.62,2.4-2.55,4.32-2.55c2.01,0,3.48,0.99,4.11,2.67
		c0.87-1.62,2.4-2.67,4.62-2.67c3.03,0,4.65,2.01,4.65,5.22V315.055 M410.353,315.055h-1.83v-8.13c0-2.25-0.84-3.69-3.06-3.69
		c-2.67,0-4.44,1.92-4.44,4.68v7.14h-1.83v-13.259h1.38l0.42,2.25c0.78-1.41,2.4-2.52,4.65-2.52c3.09,0,4.71,1.98,4.71,5.43V315.055
		 M379.364,315.055h-1.83v-13.259h1.83V315.055 M373.033,315.055h-1.83v-8.4c0-2.13-1.08-3.42-2.94-3.42
		c-2.67,0-4.05,2.43-4.05,4.92v6.9h-1.83v-8.43c0-1.83-0.93-3.39-2.94-3.39c-2.7,0-4.08,2.43-4.08,4.92v6.9h-1.83v-13.259h1.38
		l0.42,2.28c0.87-1.62,2.4-2.55,4.32-2.55c2.01,0,3.48,0.99,4.11,2.67c0.87-1.62,2.4-2.67,4.62-2.67c3.03,0,4.65,2.01,4.65,5.22
		V315.055 M348.855,315.055h-1.83v-13.259h1.83V315.055 M318.435,315.055h-1.83v-8.13c0-2.25-0.84-3.69-3.06-3.69
		c-2.67,0-4.44,1.92-4.44,4.68v7.14h-1.83v-13.259h1.38l0.42,2.25c0.78-1.41,2.4-2.52,4.65-2.52c3.09,0,4.71,1.98,4.71,5.43V315.055
		 M251.266,315.055h-1.83l-0.03-21.509h1.83L251.266,315.055 M244.727,315.055h-1.83l-0.03-21.509h1.83L244.727,315.055
		 M238.187,315.055h-1.83v-13.259h1.83V315.055 M214.577,315.055h-1.83v-13.259h1.38l0.36,1.95c0.75-1.38,2.01-2.22,3.87-2.22
		c0.84,0,1.56,0.18,2.16,0.45l-0.54,1.62c-0.51-0.18-1.02-0.33-1.77-0.33c-2.16,0-3.63,1.53-3.63,4.11V315.055 M191.747,315.055
		h-1.83v-8.4c0-2.13-1.08-3.42-2.94-3.42c-2.67,0-4.05,2.43-4.05,4.92v6.9h-1.83v-8.43c0-1.83-0.93-3.39-2.94-3.39
		c-2.7,0-4.08,2.43-4.08,4.92v6.9h-1.83v-13.259h1.38l0.42,2.28c0.87-1.62,2.4-2.55,4.32-2.55c2.01,0,3.48,0.99,4.11,2.67
		c0.87-1.62,2.4-2.67,4.62-2.67c3.03,0,4.65,2.01,4.65,5.22V315.055 M94.459,315.055h-1.83l-0.03-21.509h1.83L94.459,315.055
		 M29.839,315.055h-2.28l-5.73-8.46h-4.62v8.46h-1.98v-20.399h7.71c3.63,0,6.51,2.61,6.51,6c0,3.06-2.1,5.34-5.43,5.85l5.82,8.46
		V315.055 M17.21,296.456v8.34h5.64c2.85,0,4.62-1.68,4.62-4.11c0-2.37-1.86-4.23-4.53-4.23H17.21 M517.573,298.946l-0.93-1.08
		l3.96-3.39l1.2,1.41L517.573,298.946 M469.334,298.316c-0.81,0-1.35-0.6-1.35-1.32c0-0.78,0.54-1.38,1.35-1.38
		c0.87,0,1.38,0.6,1.38,1.41C470.714,297.746,470.144,298.316,469.334,298.316 M378.464,298.316c-0.84,0-1.38-0.6-1.38-1.32
		c0-0.78,0.54-1.38,1.38-1.38s1.38,0.6,1.38,1.38C379.844,297.746,379.274,298.316,378.464,298.316 M347.954,298.316
		c-0.84,0-1.38-0.6-1.38-1.32c0-0.78,0.54-1.38,1.38-1.38s1.38,0.6,1.38,1.38C349.334,297.746,348.764,298.316,347.954,298.316
		 M237.287,298.316c-0.84,0-1.38-0.6-1.38-1.32c0-0.78,0.54-1.38,1.38-1.38c0.84,0,1.38,0.6,1.38,1.38
		C238.667,297.746,238.097,298.316,237.287,298.316"/>
	<path fill="#9D9D9C" d="M901.963,296.067c-3.024,0-5.28,1.92-5.809,4.872c-0.072,0.384-0.096,0.744-0.096,1.08
		c0,2.592,1.824,4.272,4.128,4.272c1.248,0,2.184-0.288,3.192-1.032c-1.176,2.952-3.648,4.776-7.345,4.896l0.168,2.304
		c6.049-0.096,9.337-3.96,10.369-9.145l0.072-0.336c0.12-0.6,0.168-1.176,0.168-1.728
		C906.812,298.179,905.132,296.067,901.963,296.067z M901.003,303.987c-1.44,0-2.232-1.032-2.232-2.328
		c0-0.192,0.024-0.384,0.048-0.576c0.312-1.656,1.44-2.568,3.024-2.592c1.344,0,2.328,0.936,2.328,2.28
		c0,0.168-0.024,0.336-0.048,0.528C903.859,302.835,902.779,303.987,901.003,303.987z M909.715,309.22
		c-0.816,0-1.584,0.504-1.776,1.464c-0.024,0.12-0.024,0.24-0.024,0.336c0,0.912,0.648,1.512,1.392,1.512h0.12
		c-0.36,1.008-1.032,1.776-2.04,2.544l0.576,0.696c1.68-1.128,2.808-2.64,3.216-4.296c0.072-0.24,0.096-0.48,0.096-0.696
		C911.275,309.748,910.579,309.22,909.715,309.22z M925.435,298.803l0.432-2.424h-7.993l-2.352,8.113l0.408,0.312
		c0.888-0.312,1.8-0.504,2.736-0.504c1.776,0,3.048,0.792,3.048,2.328c0,0.192,0,0.384-0.048,0.6
		c-0.336,1.848-1.872,2.784-3.672,2.784c-1.44,0-2.472-0.528-3.048-1.392l-1.68,1.848c0.984,1.272,2.688,2.088,4.8,2.088
		c3.288,0,5.832-1.896,6.337-4.92c0.072-0.432,0.12-0.816,0.12-1.2c0-2.736-1.944-4.2-4.848-4.2c-0.384,0-0.72,0.024-1.032,0.048
		l1.056-3.48z M931.459,312.532c3.864,0,6.265-3.096,7.129-8.041c0.144-0.864,0.216-1.68,0.216-2.424c0-3.696-1.8-5.977-4.728-5.977
		c-3.96,0-6.241,3.072-7.129,8.017c-0.144,0.888-0.24,1.704-0.24,2.472C926.706,310.276,928.482,312.532,931.459,312.532z
		 M931.651,310.084c-1.464,0-2.184-1.368-2.184-3.504c0-0.672,0.072-1.44,0.216-2.256c0.624-3.552,2.16-5.785,4.2-5.785
		c1.464,0,2.16,1.344,2.16,3.456c0,0.696-0.072,1.464-0.216,2.28C935.203,307.828,933.691,310.084,931.651,310.084z"/>
	<path fill="#9D9D9C" d="M948.968,298.882c0.76,0,1.34,0.12,1.9,0.34l1-1.82c-0.88-0.4-1.7-0.62-2.881-0.62
		c-3.461,0-5.941,1.88-6.982,4.741h-1.5l-0.24,1.4h1.36c-0.06,0.36-0.12,0.74-0.14,1.12h-1.42l-0.26,1.4h1.7
		c0.26,2.861,2.24,5.041,5.501,5.041c1.04,0,1.92-0.18,2.801-0.6l-0.44-1.96c-0.64,0.32-1.26,0.46-2.06,0.46
		c-2.12,0-3.181-1.16-3.461-2.941h2.921l0.78-1.4h-3.741c0.02-0.38,0.06-0.76,0.16-1.12h4.161l0.76-1.4h-4.421
		C945.307,299.922,946.868,298.882,948.968,298.882z"/>
	<path fill="#000000" d="M300.438,363.655h-1.83v-19.859h1.38l0.39,2.22c1.14-1.53,2.94-2.49,5.19-2.49c3.78,0,6.54,2.88,6.54,6.84
		c0,4.08-2.76,6.989-6.57,6.989c-2.19,0-4.05-0.99-5.16-2.49c0.03,1.02,0.06,2.25,0.06,3.57V363.655 M305.417,345.235
		c-2.97,0-5.07,2.1-5.07,5.13c0,3.15,2.13,5.28,5.07,5.28c2.85,0,4.86-2.16,4.86-5.19
		C310.277,347.395,308.267,345.235,305.417,345.235 M281.237,363.655h-1.92v-0.06l2.94-6.87l-5.79-12.869v-0.06h1.92l3.81,8.49
		c0.33,0.78,0.66,1.53,0.96,2.46c0.3-0.93,0.6-1.71,0.9-2.46l3.45-8.49h1.89v0.06L281.237,363.655 M62.629,363.655h-1.83v-5.22
		c0-1.41,0.03-2.67,0.06-3.72c-1.08,1.62-2.94,2.64-5.16,2.64c-3.87,0-6.6-2.91-6.6-6.989c0-3.96,2.76-6.84,6.57-6.84
		c2.25,0,3.99,0.93,5.16,2.55l0.42-2.28h1.38V363.655 M55.819,345.235c-2.85,0-4.86,2.16-4.86,5.22c0,3.03,2.01,5.19,4.86,5.19
		c2.94,0,5.04-2.13,5.04-5.28C60.859,347.335,58.789,345.235,55.819,345.235 M167.448,360.685l-0.6-0.57
		c0.9-0.96,1.44-1.74,1.56-2.79l-0.3,0.03c-0.81,0-1.41-0.54-1.41-1.38c0-0.96,0.72-1.41,1.41-1.41c0.78,0,1.44,0.51,1.44,1.83
		C169.548,358.045,168.768,359.485,167.448,360.685 M435.286,357.385c-4.02,0-6.84-2.88-6.84-6.99c0-3.84,2.76-6.93,6.69-6.93
		c3.69,0,5.88,2.55,5.88,6.42c0,0.42-0.03,0.84-0.09,1.29h-10.619c0.3,2.82,2.46,4.5,4.95,4.5c1.86,0,3.03-0.57,4.05-1.62l1.05,1.32
		C439.006,356.665,437.386,357.385,435.286,357.385 M435.106,345.175c-2.46,0-4.38,1.74-4.74,4.38h8.85
		C439.156,346.735,437.536,345.175,435.106,345.175 M421.426,357.385c-3.3,0-6.6-2.43-6.6-6.99c0-4.38,3.18-6.9,6.78-6.9
		c1.92,0,3.39,0.6,4.74,1.8l-1.05,1.26c-1.08-0.93-2.13-1.35-3.69-1.35c-2.76,0-4.92,2.07-4.92,5.19c0,3.18,2.13,5.28,4.89,5.28
		c1.8,0,2.88-0.57,3.96-1.59l1.02,1.32C425.176,356.695,423.736,357.385,421.426,357.385 M385.307,357.385
		c-4.02,0-6.84-2.88-6.84-6.99c0-3.84,2.76-6.93,6.69-6.93c3.69,0,5.88,2.55,5.88,6.42c0,0.42-0.03,0.84-0.09,1.29h-10.62
		c0.3,2.82,2.46,4.5,4.95,4.5c1.86,0,3.03-0.57,4.05-1.62l1.05,1.32C389.027,356.665,387.407,357.385,385.307,357.385
		 M385.127,345.175c-2.46,0-4.38,1.74-4.74,4.38h8.849C389.177,346.735,387.557,345.175,385.127,345.175 M346.038,357.385
		c-4.02,0-6.84-2.88-6.84-6.99c0-3.84,2.76-6.93,6.69-6.93c3.69,0,5.88,2.55,5.88,6.42c0,0.42-0.03,0.84-0.09,1.29h-10.619
		c0.3,2.82,2.46,4.5,4.95,4.5c1.86,0,3.03-0.57,4.05-1.62l1.05,1.32C349.758,356.665,348.138,357.385,346.038,357.385
		 M345.858,345.175c-2.43,0-4.38,1.74-4.77,4.38h8.88C349.878,346.735,348.258,345.175,345.858,345.175 M262.607,357.385
		c-4.02,0-6.84-2.88-6.84-6.99c0-3.84,2.76-6.93,6.69-6.93c3.69,0,5.88,2.55,5.88,6.42c0,0.42-0.03,0.84-0.09,1.29h-10.62
		c0.3,2.82,2.46,4.5,4.95,4.5c1.86,0,3.03-0.57,4.05-1.62l1.05,1.32C266.327,356.665,264.707,357.385,262.607,357.385
		 M262.427,345.175c-2.46,0-4.38,1.74-4.74,4.38h8.85C266.477,346.735,264.857,345.175,262.427,345.175 M197.508,357.385
		c-3.99,0-6.84-2.88-6.84-6.96c0-4.08,2.85-6.96,6.84-6.96c4.05,0,6.9,2.88,6.9,6.96
		C204.407,354.505,201.558,357.385,197.508,357.385 M197.508,345.175c-2.94,0-4.98,2.19-4.98,5.25c0,3.09,2.04,5.25,4.98,5.25
		c2.97,0,5.04-2.16,5.04-5.25C202.547,347.365,200.508,345.175,197.508,345.175 M145.878,357.385c-4.02,0-6.84-2.88-6.84-6.99
		c0-3.84,2.76-6.93,6.69-6.93c3.69,0,5.88,2.55,5.88,6.42c0,0.42-0.03,0.84-0.09,1.29h-10.62c0.3,2.82,2.46,4.5,4.95,4.5
		c1.86,0,3.03-0.57,4.05-1.62l1.05,1.32C149.598,356.665,147.978,357.385,145.878,357.385 M145.698,345.175
		c-2.46,0-4.38,1.74-4.74,4.38h8.85C149.748,346.735,148.128,345.175,145.698,345.175 M113.719,357.385c-3.99,0-6.84-2.88-6.84-6.96
		c0-4.08,2.85-6.96,6.84-6.96c4.05,0,6.9,2.88,6.9,6.96C120.618,354.505,117.768,357.385,113.719,357.385 M113.719,345.175
		c-2.94,0-4.98,2.19-4.98,5.25c0,3.09,2.04,5.25,4.98,5.25c2.97,0,5.04-2.16,5.04-5.25
		C118.758,347.365,116.718,345.175,113.719,345.175 M88.759,357.385c-4.02,0-6.84-2.88-6.84-6.99c0-3.84,2.76-6.93,6.69-6.93
		c3.69,0,5.88,2.55,5.88,6.42c0,0.42-0.03,0.84-0.09,1.29H83.779c0.3,2.82,2.46,4.5,4.95,4.5c1.86,0,3.03-0.57,4.05-1.62l1.05,1.32
		C92.479,356.665,90.859,357.385,88.759,357.385 M88.579,345.175c-2.46,0-4.38,1.74-4.74,4.38h8.85
		C92.629,346.735,91.009,345.175,88.579,345.175 M39.44,357.385c-3.99,0-6.84-2.88-6.84-6.96c0-4.08,2.85-6.96,6.84-6.96
		c4.05,0,6.9,2.88,6.9,6.96C46.339,354.505,43.49,357.385,39.44,357.385 M39.44,345.175c-2.94,0-4.98,2.19-4.98,5.25
		c0,3.09,2.04,5.25,4.98,5.25c2.97,0,5.04-2.16,5.04-5.25C44.479,347.365,42.44,345.175,39.44,345.175 M367.847,357.355
		c-3.93,0-6.66-2.94-6.66-6.989c0-3.93,2.76-6.84,6.66-6.84c2.16,0,4.05,0.96,5.13,2.52c-0.03-1.14-0.06-2.34-0.06-3.6v-6.9h1.83
		v21.509h-1.41l-0.27-2.37C371.987,356.335,370.157,357.355,367.847,357.355 M367.967,345.235c-2.94,0-4.95,2.16-4.95,5.19
		c0,3.03,2.01,5.19,4.95,5.19c3.06,0,5.01-2.19,5.01-5.19C372.977,347.425,370.967,345.235,367.967,345.235 M510.945,357.295
		c-1.86,0-3.42-0.51-4.83-1.47l0.93-1.44c1.17,0.84,2.43,1.2,3.9,1.2c1.62,0,2.67-0.81,2.67-2.01c0-1.29-1.47-1.95-3.06-2.58
		c-2.16-0.84-3.96-1.86-3.96-3.99c0-2.22,2.04-3.36,4.29-3.36c1.44,0,2.82,0.42,4.02,1.2l-0.81,1.32c-0.96-0.54-2.04-0.84-3.12-0.84
		c-1.35,0-2.55,0.45-2.55,1.68c0,1.2,1.23,1.8,2.79,2.4c2.4,0.9,4.23,1.95,4.23,4.17S513.555,357.295,510.945,357.295
		 M495.976,357.295c-2.58,0-4.23-1.41-4.23-3.69c0-2.97,2.73-4.68,6.63-4.68c0.99,0,1.74,0.03,2.43,0.12v-0.9
		c0-1.86-1.32-2.79-3.36-2.79c-1.44,0-2.91,0.42-4.38,1.11l-0.63-1.56c1.8-0.84,3.51-1.26,5.19-1.26c3.03,0,5.04,1.59,5.04,4.59
		v8.82h-1.35l-0.33-2.4C500.025,356.245,498.316,357.295,495.976,357.295 M498.645,350.455c-3.12,0-4.98,1.08-4.98,3.03
		c0,1.32,0.96,2.1,2.61,2.1c2.73,0,4.44-1.98,4.53-5.01C500.086,350.485,499.516,350.455,498.645,350.455 M466.216,357.295
		c-3.3,0-4.83-2.19-4.83-5.43v-8.07h1.83v8.1c0,2.16,0.84,3.69,3.21,3.69c2.64,0,4.2-2.37,4.2-5.19v-6.6h1.83v13.259h-1.41
		l-0.36-2.31C469.906,356.155,468.406,357.295,466.216,357.295 M455.506,357.295c-2.16,0-3.51-1.26-3.51-3.99v-7.89l-2.58-0.12v-1.5
		h2.58v-4.41h1.83v4.41h4.74v1.62h-4.74v7.89c0,1.68,0.69,2.25,1.86,2.25c0.93,0,1.77-0.3,2.61-0.9l0.81,1.38
		C458.116,356.785,456.886,357.295,455.506,357.295 M404.597,357.295c-2.58,0-4.23-1.41-4.23-3.69c0-2.97,2.73-4.68,6.63-4.68
		c0.99,0,1.74,0.03,2.43,0.12v-0.9c0-1.86-1.32-2.79-3.36-2.79c-1.44,0-2.91,0.42-4.38,1.11l-0.63-1.56
		c1.8-0.84,3.51-1.26,5.19-1.26c3.03,0,5.04,1.59,5.04,4.59v8.82h-1.35l-0.33-2.4C408.647,356.245,406.937,357.295,404.597,357.295
		 M407.267,350.455c-3.12,0-4.98,1.08-4.98,3.03c0,1.32,0.96,2.1,2.61,2.1c2.73,0,4.44-1.98,4.53-5.01
		C408.707,350.485,408.137,350.455,407.267,350.455 M334.098,357.295c-2.16,0-3.51-1.26-3.51-3.99v-7.89l-2.58-0.12v-1.5h2.58v-4.41
		h1.83v4.41h4.74v1.62h-4.74v7.89c0,1.68,0.69,2.25,1.86,2.25c0.93,0,1.77-0.3,2.61-0.9l0.81,1.38
		C336.708,356.785,335.478,357.295,334.098,357.295 M318.738,357.295c-2.58,0-4.23-1.41-4.23-3.69c0-2.97,2.73-4.68,6.63-4.68
		c0.99,0,1.74,0.03,2.43,0.12v-0.9c0-1.86-1.32-2.79-3.36-2.79c-1.44,0-2.91,0.42-4.38,1.11l-0.63-1.56
		c1.8-0.84,3.51-1.26,5.19-1.26c3.03,0,5.04,1.59,5.04,4.59v8.82h-1.35l-0.33-2.4C322.787,356.245,321.078,357.295,318.738,357.295
		 M321.408,350.455c-3.12,0-4.98,1.08-4.98,3.03c0,1.32,0.96,2.1,2.61,2.1c2.73,0,4.44-1.98,4.53-5.01
		C322.848,350.485,322.278,350.455,321.408,350.455 M250.667,357.295c-2.16,0-3.51-1.26-3.51-3.99v-7.89l-2.58-0.12v-1.5h2.58v-4.41
		h1.83v4.41h4.74v1.62h-4.74v7.89c0,1.68,0.69,2.25,1.86,2.25c0.93,0,1.77-0.3,2.61-0.9l0.81,1.38
		C253.277,356.785,252.047,357.295,250.667,357.295 M235.307,357.295c-2.58,0-4.23-1.41-4.23-3.69c0-2.97,2.73-4.68,6.63-4.68
		c0.99,0,1.74,0.03,2.43,0.12v-0.9c0-1.86-1.32-2.79-3.36-2.79c-1.44,0-2.91,0.42-4.38,1.11l-0.63-1.56
		c1.8-0.84,3.51-1.26,5.19-1.26c3.03,0,5.04,1.59,5.04,4.59v8.82h-1.35l-0.33-2.4C239.357,356.245,237.647,357.295,235.307,357.295
		 M237.977,350.455c-3.12,0-4.98,1.08-4.98,3.03c0,1.32,0.96,2.1,2.61,2.1c2.73,0,4.44-1.98,4.53-5.01
		C239.417,350.485,238.847,350.455,237.977,350.455 M185.568,357.295c-2.16,0-3.51-1.26-3.51-3.99v-7.89l-2.58-0.12v-1.5h2.58v-4.41
		h1.83v4.41h4.74v1.62h-4.74v7.89c0,1.68,0.69,2.25,1.86,2.25c0.93,0,1.77-0.3,2.61-0.9l0.81,1.38
		C188.177,356.785,186.948,357.295,185.568,357.295 M158.928,357.295c-1.86,0-3.42-0.51-4.83-1.47l0.93-1.44
		c1.17,0.84,2.43,1.2,3.9,1.2c1.62,0,2.67-0.81,2.67-2.01c0-1.29-1.47-1.95-3.06-2.58c-2.16-0.84-3.96-1.86-3.96-3.99
		c0-2.22,2.04-3.36,4.29-3.36c1.44,0,2.82,0.42,4.02,1.2l-0.81,1.32c-0.96-0.54-2.04-0.84-3.12-0.84c-1.35,0-2.55,0.45-2.55,1.68
		c0,1.2,1.23,1.8,2.79,2.4c2.4,0.9,4.23,1.95,4.23,4.17S161.538,357.295,158.928,357.295 M71.959,357.295
		c-3.3,0-4.83-2.19-4.83-5.43v-8.07h1.83v8.1c0,2.16,0.84,3.69,3.21,3.69c2.64,0,4.2-2.37,4.2-5.19v-6.6h1.83v13.259h-1.41
		l-0.36-2.31C75.649,356.155,74.149,357.295,71.959,357.295 M488.296,357.055h-1.83v-8.13c0-2.25-0.84-3.69-3.06-3.69
		c-2.67,0-4.44,1.92-4.44,4.68v7.14h-1.83v-13.259h1.38l0.42,2.25c0.78-1.41,2.4-2.52,4.65-2.52c3.09,0,4.71,1.98,4.71,5.43V357.055
		 M446.386,357.055h-1.83v-13.259h1.83V357.055 M227.627,357.055h-1.83v-8.4c0-2.13-1.08-3.42-2.94-3.42
		c-2.67,0-4.05,2.43-4.05,4.92v6.9h-1.83v-8.43c0-1.83-0.93-3.39-2.94-3.39c-2.7,0-4.08,2.43-4.08,4.92v6.9h-1.83v-13.259h1.38
		l0.42,2.28c0.87-1.62,2.4-2.55,4.32-2.55c2.01,0,3.48,0.99,4.11,2.67c0.87-1.62,2.4-2.67,4.62-2.67c3.03,0,4.65,2.01,4.65,5.22
		V357.055 M135.498,357.055h-1.83v-8.13c0-2.25-0.84-3.69-3.06-3.69c-2.67,0-4.44,1.92-4.44,4.68v7.14h-1.83v-13.259h1.38l0.42,2.25
		c0.78-1.41,2.4-2.52,4.65-2.52c3.09,0,4.71,1.98,4.71,5.43V357.055 M99.859,357.055h-1.83v-13.259h1.38l0.36,1.95
		c0.75-1.38,2.01-2.22,3.87-2.22c0.84,0,1.56,0.18,2.16,0.45l-0.54,1.62c-0.51-0.18-1.02-0.33-1.77-0.33
		c-2.16,0-3.63,1.53-3.63,4.11V357.055 M23.39,357.055h-8.16v-20.399h7.62c3.24,0,5.82,2.16,5.82,5.28c0,1.95-0.99,3.45-2.46,4.32
		c2.04,0.87,3.39,2.85,3.39,5.13C29.599,354.745,26.959,357.055,23.39,357.055 M17.21,347.335v7.92h6.09c2.49,0,4.32-1.53,4.32-3.99
		c0-2.34-1.74-3.93-4.17-3.93H17.21 M17.21,338.456v7.08h5.58c2.43,0,3.93-1.29,3.93-3.6c0-2.16-1.74-3.48-3.99-3.48H17.21
		 M343.968,340.946l-0.93-1.08l3.96-3.39l1.2,1.41L343.968,340.946 M445.486,340.316c-0.84,0-1.38-0.6-1.38-1.32
		c0-0.78,0.54-1.38,1.38-1.38c0.84,0,1.38,0.6,1.38,1.38C446.866,339.746,446.296,340.316,445.486,340.316"/>
	<path fill="#9D9D9C" d="M891.427,338.259l-5.496,3l0.984,1.992l2.136-1.056l0.6-0.312c-0.12,0.432-0.192,0.864-0.288,1.32
		l-1.992,11.041h2.808l2.808-15.985z M899.251,354.532c3.864,0,6.265-3.096,7.129-8.041c0.144-0.864,0.216-1.68,0.216-2.424
		c0-3.696-1.8-5.977-4.728-5.977c-3.96,0-6.241,3.072-7.129,8.017c-0.144,0.888-0.24,1.704-0.24,2.472
		C894.499,352.276,896.275,354.532,899.251,354.532z M899.443,352.084c-1.464,0-2.184-1.368-2.184-3.504
		c0-0.672,0.072-1.44,0.216-2.256c0.624-3.552,2.16-5.785,4.2-5.785c1.464,0,2.16,1.344,2.16,3.456c0,0.696-0.072,1.464-0.216,2.28
		C902.995,349.828,901.483,352.084,899.443,352.084z M909.715,351.22c-0.816,0-1.584,0.504-1.776,1.464
		c-0.024,0.12-0.024,0.24-0.024,0.336c0,0.912,0.648,1.512,1.392,1.512h0.12c-0.36,1.008-1.032,1.776-2.04,2.544l0.576,0.696
		c1.68-1.128,2.808-2.64,3.216-4.296c0.072-0.24,0.096-0.48,0.096-0.696C911.275,351.748,910.579,351.22,909.715,351.22z
		 M925.435,340.803l0.432-2.424h-7.993l-2.352,8.113l0.408,0.312c0.888-0.312,1.8-0.504,2.736-0.504
		c1.776,0,3.048,0.792,3.048,2.328c0,0.192,0,0.384-0.048,0.6c-0.336,1.848-1.872,2.784-3.672,2.784
		c-1.44,0-2.472-0.528-3.048-1.392l-1.68,1.848c0.984,1.272,2.688,2.088,4.8,2.088c3.288,0,5.832-1.896,6.337-4.92
		c0.072-0.432,0.12-0.816,0.12-1.2c0-2.736-1.944-4.2-4.848-4.2c-0.384,0-0.72,0.024-1.032,0.048l1.056-3.48z M931.459,354.532
		c3.864,0,6.265-3.096,7.129-8.041c0.144-0.864,0.216-1.68,0.216-2.424c0-3.696-1.8-5.977-4.728-5.977
		c-3.96,0-6.241,3.072-7.129,8.017c-0.144,0.888-0.24,1.704-0.24,2.472C926.706,352.276,928.482,354.532,931.459,354.532z
		 M931.651,352.084c-1.464,0-2.184-1.368-2.184-3.504c0-0.672,0.072-1.44,0.216-2.256c0.624-3.552,2.16-5.785,4.2-5.785
		c1.464,0,2.16,1.344,2.16,3.456c0,0.696-0.072,1.464-0.216,2.28C935.203,349.828,933.691,352.084,931.651,352.084z"/>
	<path fill="#9D9D9C" d="M948.968,340.882c0.76,0,1.34,0.12,1.9,0.34l1-1.82c-0.88-0.4-1.7-0.62-2.881-0.62
		c-3.461,0-5.941,1.88-6.982,4.741h-1.5l-0.24,1.4h1.36c-0.06,0.36-0.12,0.74-0.14,1.12h-1.42l-0.26,1.4h1.7
		c0.26,2.861,2.24,5.041,5.501,5.041c1.04,0,1.92-0.18,2.801-0.6l-0.44-1.96c-0.64,0.32-1.26,0.46-2.06,0.46
		c-2.12,0-3.181-1.16-3.461-2.941h2.921l0.78-1.4h-3.741c0.02-0.38,0.06-0.76,0.16-1.12h4.161l0.76-1.4h-4.421
		C945.307,341.922,946.868,340.882,948.968,340.882z"/>
	<path fill="#000000" d="M172.367,405.585l-0.24-1.62c3-0.24,3.63-1.53,3.63-4.38v-14.16h1.83v14.07
		C177.587,403.455,176.447,405.345,172.367,405.585 M281.326,405.285h-1.83v-19.859h1.38l0.39,2.22c1.14-1.53,2.94-2.49,5.19-2.49
		c3.78,0,6.54,2.88,6.54,6.84c0,4.08-2.76,6.99-6.57,6.99c-2.19,0-4.05-0.99-5.16-2.49c0.03,1.02,0.06,2.25,0.06,3.57V405.285
		 M286.306,386.865c-2.97,0-5.07,2.1-5.07,5.13c0,3.15,2.13,5.28,5.07,5.28c2.85,0,4.86-2.16,4.86-5.19
		C291.165,389.025,289.155,386.865,286.306,386.865 M262.125,405.285h-1.92v-0.06l2.94-6.87l-5.79-12.869v-0.06h1.92l3.81,8.49
		c0.33,0.78,0.66,1.53,0.96,2.46c0.3-0.93,0.6-1.71,0.9-2.46l3.45-8.49h1.89v0.06L262.125,405.285 M91.399,405.285h-1.83v-19.859
		h1.38l0.39,2.22c1.14-1.53,2.94-2.49,5.19-2.49c3.78,0,6.54,2.88,6.54,6.84c0,4.08-2.76,6.99-6.57,6.99
		c-2.19,0-4.05-0.99-5.16-2.49c0.03,1.02,0.06,2.25,0.06,3.57V405.285 M96.378,386.865c-2.97,0-5.07,2.1-5.07,5.13
		c0,3.15,2.13,5.28,5.07,5.28c2.85,0,4.86-2.16,4.86-5.19C101.238,389.025,99.228,386.865,96.378,386.865 M161.957,402.315
		l-0.6-0.57c0.9-0.96,1.44-1.74,1.56-2.79l-0.3,0.03c-0.81,0-1.41-0.54-1.41-1.38c0-0.96,0.72-1.41,1.41-1.41
		c0.78,0,1.44,0.51,1.44,1.83C164.057,399.675,163.277,401.115,161.957,402.315 M24.29,399.045c-6.15,0-10.349-4.77-10.349-10.59
		c0-6.03,4.29-10.529,10.349-10.529c3.21,0,5.52,1.14,7.68,3.33l-1.17,1.2c-1.62-1.68-3.6-2.7-6.51-2.7
		c-4.92,0-8.37,3.75-8.37,8.699c0,4.83,3.42,8.76,8.37,8.76c2.88,0,5.16-1.38,6.66-3.39l1.41,1.11
		C30.679,397.365,27.889,399.045,24.29,399.045 M380.685,399.015c-3.99,0-6.84-2.88-6.84-6.96c0-4.08,2.85-6.96,6.84-6.96
		c4.05,0,6.9,2.88,6.9,6.96C387.584,396.135,384.734,399.015,380.685,399.015 M380.685,386.805c-2.94,0-4.98,2.19-4.98,5.25
		c0,3.09,2.04,5.25,4.98,5.25c2.97,0,5.04-2.16,5.04-5.25C385.724,388.995,383.685,386.805,380.685,386.805 M339.645,399.015
		c-4.02,0-6.84-2.88-6.84-6.99c0-3.84,2.76-6.93,6.69-6.93c3.69,0,5.88,2.55,5.88,6.42c0,0.42-0.03,0.84-0.09,1.29h-10.62
		c0.3,2.82,2.46,4.5,4.95,4.5c1.86,0,3.03-0.57,4.05-1.62l1.05,1.32C343.365,398.295,341.745,399.015,339.645,399.015
		 M339.465,386.805c-2.46,0-4.38,1.74-4.74,4.38h8.85C343.515,388.365,341.895,386.805,339.465,386.805 M226.486,399.015
		c-3.99,0-6.84-2.88-6.84-6.96c0-4.08,2.85-6.96,6.84-6.96c4.05,0,6.9,2.88,6.9,6.96
		C233.385,396.135,230.535,399.015,226.486,399.015 M226.486,386.805c-2.94,0-4.98,2.19-4.98,5.25c0,3.09,2.04,5.25,4.98,5.25
		c2.97,0,5.04-2.16,5.04-5.25C231.525,388.995,229.485,386.805,226.486,386.805 M134.868,399.015c-3.99,0-6.84-2.88-6.84-6.96
		c0-4.08,2.85-6.96,6.84-6.96c4.05,0,6.9,2.88,6.9,6.96C141.767,396.135,138.918,399.015,134.868,399.015 M134.868,386.805
		c-2.94,0-4.98,2.19-4.98,5.25c0,3.09,2.04,5.25,4.98,5.25c2.97,0,5.04-2.16,5.04-5.25
		C139.908,388.995,137.868,386.805,134.868,386.805 M368.744,398.925c-2.16,0-3.51-1.26-3.51-3.99v-7.89l-2.58-0.12v-1.5h2.58v-4.41
		h1.83v4.41h4.74v1.62h-4.74v7.89c0,1.68,0.69,2.25,1.86,2.25c0.93,0,1.77-0.3,2.61-0.9l0.81,1.38
		C371.354,398.415,370.125,398.925,368.744,398.925 M185.416,398.925c-2.58,0-4.23-1.41-4.23-3.69c0-2.97,2.73-4.68,6.63-4.68
		c0.99,0,1.74,0.03,2.43,0.12v-0.9c0-1.86-1.32-2.79-3.36-2.79c-1.44,0-2.91,0.42-4.38,1.11l-0.63-1.56
		c1.8-0.84,3.51-1.26,5.19-1.26c3.03,0,5.04,1.59,5.04,4.59v8.82h-1.35l-0.33-2.4C189.466,397.875,187.756,398.925,185.416,398.925
		 M188.086,392.085c-3.12,0-4.98,1.08-4.98,3.03c0,1.32,0.96,2.1,2.61,2.1c2.73,0,4.44-1.98,4.53-5.01
		C189.526,392.115,188.956,392.085,188.086,392.085 M54.379,398.925c-2.58,0-4.23-1.41-4.23-3.69c0-2.97,2.73-4.68,6.63-4.68
		c0.99,0,1.74,0.03,2.43,0.12v-0.9c0-1.86-1.32-2.79-3.36-2.79c-1.44,0-2.91,0.42-4.38,1.11l-0.63-1.56
		c1.8-0.84,3.51-1.26,5.19-1.26c3.03,0,5.04,1.59,5.04,4.59v8.82h-1.35l-0.33-2.4C58.429,397.875,56.719,398.925,54.379,398.925
		 M57.049,392.085c-3.12,0-4.98,1.08-4.98,3.03c0,1.32,0.96,2.1,2.61,2.1c2.73,0,4.44-1.98,4.53-5.01
		C58.489,392.115,57.919,392.085,57.049,392.085 M360.074,398.685h-1.83v-8.129c0-2.25-0.84-3.69-3.06-3.69
		c-2.67,0-4.44,1.92-4.44,4.68v7.139h-1.83v-13.259h1.38l0.42,2.25c0.78-1.41,2.4-2.52,4.65-2.52c3.09,0,4.71,1.98,4.71,5.43
		V398.685 M329.085,398.685h-1.83v-13.259h1.83V398.685 M322.755,398.685h-1.83v-8.4c0-2.13-1.08-3.42-2.94-3.42
		c-2.67,0-4.05,2.43-4.05,4.92v6.9h-1.83v-8.43c0-1.83-0.93-3.39-2.94-3.39c-2.7,0-4.08,2.43-4.08,4.92v6.9h-1.83v-13.259h1.38
		l0.42,2.28c0.87-1.62,2.4-2.55,4.32-2.55c2.01,0,3.48,0.99,4.11,2.67c0.87-1.62,2.4-2.67,4.62-2.67c3.03,0,4.65,2.01,4.65,5.22
		V398.685 M298.576,398.685h-1.83v-13.259h1.83V398.685 M248.265,398.685h-1.83v-8.129c0-2.25-0.84-3.69-3.06-3.69
		c-2.67,0-4.44,1.92-4.44,4.68v7.139h-1.83v-13.259h1.38l0.42,2.25c0.78-1.41,2.4-2.52,4.65-2.52c3.09,0,4.71,1.98,4.71,5.43
		V398.685 M216.105,398.685h-1.83v-8.4c0-2.13-1.08-3.42-2.94-3.42c-2.67,0-4.05,2.43-4.05,4.92v6.9h-1.83v-8.43
		c0-1.83-0.93-3.39-2.94-3.39c-2.7,0-4.08,2.43-4.08,4.92v6.9h-1.83v-13.259h1.38l0.42,2.28c0.87-1.62,2.4-2.55,4.32-2.55
		c2.01,0,3.48,0.99,4.11,2.67c0.87-1.62,2.4-2.67,4.62-2.67c3.03,0,4.65,2.01,4.65,5.22V398.685 M156.647,398.685h-1.83v-8.129
		c0-2.25-0.84-3.69-3.06-3.69c-2.67,0-4.44,1.92-4.44,4.68v7.139h-1.83v-13.259h1.38l0.42,2.25c0.78-1.41,2.4-2.52,4.65-2.52
		c3.09,0,4.71,1.98,4.71,5.43V398.685 M124.488,398.685h-1.83v-8.129c0-2.25-0.84-3.69-3.06-3.69c-2.67,0-4.44,1.92-4.44,4.68v7.139
		h-1.83v-13.259h1.38l0.42,2.25c0.78-1.41,2.4-2.52,4.65-2.52c3.09,0,4.71,1.98,4.71,5.43V398.685 M108.648,398.685h-1.83v-13.259
		h1.83V398.685 M85.068,398.685h-1.83v-8.4c0-2.13-1.08-3.42-2.94-3.42c-2.67,0-4.05,2.43-4.05,4.92v6.9h-1.83v-8.43
		c0-1.83-0.93-3.39-2.94-3.39c-2.7,0-4.08,2.43-4.08,4.92v6.9h-1.83v-13.259h1.38l0.42,2.28c0.87-1.62,2.4-2.55,4.32-2.55
		c2.01,0,3.48,0.99,4.11,2.67c0.87-1.62,2.4-2.67,4.62-2.67c3.03,0,4.65,2.01,4.65,5.22V398.685 M46.699,398.685h-1.83v-8.16
		c0-2.22-0.9-3.66-3.12-3.66c-2.82,0-4.38,2.4-4.38,5.28v6.54h-1.83v-21.509h1.83v8.58c0,0.66,0,1.29-0.03,2.07
		c0.81-1.56,2.34-2.67,4.59-2.67c3.24,0,4.77,2.04,4.77,5.43V398.685 M224.896,382.576l-0.93-1.08l3.96-3.39l1.2,1.41
		L224.896,382.576 M133.278,382.576l-0.93-1.08l3.96-3.39l1.2,1.41L133.278,382.576 M116.118,382.096l-1.29-0.72
		c0.54-1.38,1.26-2.07,2.25-2.07c0.57,0,1.26,0.21,1.98,0.63c0.57,0.3,0.96,0.48,1.29,0.48c0.45,0,0.81-0.33,1.08-1.05l1.29,0.72
		c-0.54,1.35-1.29,1.98-2.25,1.98c-0.51,0-1.11-0.18-1.77-0.54c-0.57-0.3-1.05-0.54-1.44-0.54
		C116.748,380.986,116.388,381.316,116.118,382.096 M328.185,381.946c-0.84,0-1.38-0.6-1.38-1.32c0-0.78,0.54-1.38,1.38-1.38
		c0.84,0,1.38,0.6,1.38,1.38C329.565,381.376,328.995,381.946,328.185,381.946 M297.676,381.946c-0.84,0-1.38-0.6-1.38-1.32
		c0-0.78,0.54-1.38,1.38-1.38c0.84,0,1.38,0.6,1.38,1.38C299.055,381.376,298.485,381.946,297.676,381.946 M176.657,381.946
		c-0.81,0-1.35-0.6-1.35-1.32c0-0.78,0.54-1.38,1.35-1.38c0.87,0,1.38,0.6,1.38,1.41
		C178.037,381.376,177.467,381.946,176.657,381.946 M107.749,381.946c-0.84,0-1.38-0.6-1.38-1.32c0-0.78,0.54-1.38,1.38-1.38
		s1.38,0.6,1.38,1.38C109.128,381.376,108.558,381.946,107.749,381.946"/>
	<path fill="#9D9D9C" d="M890.395,379.888l-5.496,3l0.984,1.992l2.136-1.056l0.6-0.312c-0.12,0.432-0.192,0.864-0.288,1.32
		l-1.992,11.041h2.808l2.808-15.985z M898.219,396.162c3.864,0,6.265-3.096,7.129-8.041c0.144-0.864,0.216-1.68,0.216-2.424
		c0-3.696-1.8-5.977-4.728-5.977c-3.96,0-6.241,3.072-7.129,8.017c-0.144,0.888-0.24,1.704-0.24,2.472
		C893.467,393.906,895.243,396.162,898.219,396.162z M898.411,393.714c-1.464,0-2.184-1.368-2.184-3.504
		c0-0.672,0.072-1.44,0.216-2.256c0.624-3.552,2.16-5.784,4.2-5.784c1.464,0,2.16,1.344,2.16,3.456c0,0.696-0.072,1.464-0.216,2.28
		C901.963,391.457,900.451,393.714,898.411,393.714z M908.683,392.85c-0.816,0-1.584,0.504-1.776,1.464
		c-0.024,0.12-0.024,0.24-0.024,0.336c0,0.912,0.648,1.512,1.392,1.512h0.12c-0.36,1.008-1.032,1.776-2.04,2.544l0.576,0.696
		c1.68-1.128,2.808-2.64,3.216-4.296c0.072-0.24,0.096-0.48,0.096-0.696C910.243,393.378,909.547,392.85,908.683,392.85z
		 M920.299,385.985c-1.224,0-2.232,0.36-3.264,1.176c1.2-3.072,3.696-5.064,7.393-4.992l-0.168-2.448
		c-6.145,0.168-9.337,4.032-10.345,9.169l-0.072,0.336c-0.12,0.624-0.168,1.2-0.168,1.776c0,3.048,1.608,5.16,4.848,5.16
		c3,0,5.28-1.968,5.833-5.016c0.072-0.36,0.096-0.696,0.096-1.008C924.451,387.617,922.699,385.985,920.299,385.985z
		 M921.691,391.073c-0.288,1.656-1.488,2.64-3.048,2.64c-1.392,0-2.328-0.888-2.328-2.28c0-0.168,0.024-0.36,0.048-0.552
		c0.264-1.488,1.344-2.568,3.096-2.616c1.512,0,2.28,0.936,2.28,2.232C921.739,390.689,921.715,390.881,921.691,391.073z
		 M931.459,396.162c3.864,0,6.265-3.096,7.129-8.041c0.144-0.864,0.216-1.68,0.216-2.424c0-3.696-1.8-5.977-4.728-5.977
		c-3.96,0-6.241,3.072-7.129,8.017c-0.144,0.888-0.24,1.704-0.24,2.472C926.706,393.906,928.482,396.162,931.459,396.162z
		 M931.651,393.714c-1.464,0-2.184-1.368-2.184-3.504c0-0.672,0.072-1.44,0.216-2.256c0.624-3.552,2.16-5.784,4.2-5.784
		c1.464,0,2.16,1.344,2.16,3.456c0,0.696-0.072,1.464-0.216,2.28C935.203,391.457,933.691,393.714,931.651,393.714z"/>
	<path fill="#9D9D9C" d="M948.968,382.511c0.76,0,1.34,0.12,1.9,0.34l1-1.82c-0.88-0.4-1.7-0.62-2.881-0.62
		c-3.461,0-5.941,1.88-6.982,4.741h-1.5l-0.24,1.4h1.36c-0.06,0.36-0.12,0.74-0.14,1.12h-1.42l-0.26,1.4h1.7
		c0.26,2.861,2.24,5.041,5.501,5.041c1.04,0,1.92-0.18,2.801-0.6l-0.44-1.96c-0.64,0.32-1.26,0.46-2.06,0.46
		c-2.12,0-3.181-1.16-3.461-2.941h2.921l0.78-1.4h-3.741c0.02-0.38,0.06-0.76,0.16-1.12h4.161l0.76-1.4h-4.421
		C945.307,383.552,946.868,382.511,948.968,382.511z"/>
</g>
</svg>
