<!-- Generator: Adobe InDesign 21.0 SVG Export Plug-in, SVG Library version: 9.3 build 128 -->
<!DOCTYPE svg PUBLIC "-//W3C//DTD SVG 1.1//EN" "http://www.w3.org/Graphics/SVG/1.1/DTD/svg11.dtd">
<svg version="1.1" xmlns="http://www.w3.org/2000/svg" xmlns:xlink="http://www.w3.org/1999/xlink" x="0%" y="0%" width="100%"
	 height="100%" viewBox="0 0 974.936 1258.26" preserveAspectRatio="xMidYMid slice" overflow="visible" xml:space="preserve">
<clipPath id="clp_unq_id_1" fill="none">
	<path shape-rendering="crispEdges" stroke="#000000" d="M0,0h974.936v1258.26H0V0"/>
</clipPath>
<g clip-path="url(#clp_unq_id_1)" fill="none">
	<path fill="#7AC3A5" d="M14.041,65.637L9.84,68.298l0.94,1.72l1.8-1.04c0.18-0.1,0.32-0.18,0.46-0.28
		c-0.02,0.32-0.04,0.62-0.04,0.92V79h2.32V65.637z"/>
	<path fill="#000000" d="M394.215,72.585l-0.24-1.62c3-0.24,3.63-1.53,3.63-4.38v-14.16h1.83v14.069
		C399.435,70.455,398.295,72.345,394.215,72.585 M173.898,72.585c-2.58,0-4.47-0.87-6-2.37l1.14-1.29c1.29,1.26,2.79,1.95,4.77,1.95
		c2.7,0,4.8-1.41,4.8-4.35c0-1.02,0-2.01,0.03-3c-1.23,1.59-3.15,2.4-5.1,2.4c-4.08,0-6.66-3.09-6.66-6.87c0-3.81,2.52-6.9,6.57-6.9
		c2.16,0,4.05,0.84,5.22,2.46l0.42-2.19h1.35v14.129C180.438,70.635,177.408,72.585,173.898,72.585 M173.658,53.865
		c-3.12,0-4.92,2.28-4.92,5.16c0,2.94,1.89,5.19,4.89,5.19c3.33,0,5.04-2.37,5.04-5.16S177.018,53.865,173.658,53.865
		 M718.448,72.285h-1.83V52.425h1.38l0.39,2.22c1.14-1.53,2.94-2.49,5.19-2.49c3.78,0,6.54,2.88,6.54,6.84
		c0,4.08-2.76,6.99-6.57,6.99c-2.19,0-4.05-0.99-5.16-2.49c0.03,1.02,0.06,2.25,0.06,3.57V72.285 M723.428,53.865
		c-2.97,0-5.07,2.1-5.07,5.13c0,3.15,2.13,5.28,5.07,5.28c2.85,0,4.86-2.16,4.86-5.19C728.288,56.025,726.278,53.865,723.428,53.865
		 M619.6,72.285h-1.83v-5.22c0-1.41,0.03-2.67,0.06-3.72c-1.08,1.62-2.94,2.64-5.16,2.64c-3.87,0-6.6-2.91-6.6-6.99
		c0-3.96,2.76-6.84,6.57-6.84c2.25,0,3.99,0.93,5.16,2.55l0.42-2.28h1.38V72.285 M612.79,53.865c-2.85,0-4.86,2.16-4.86,5.22
		c0,3.03,2.01,5.19,4.86,5.19c2.94,0,5.04-2.13,5.04-5.28C617.83,55.965,615.76,53.865,612.79,53.865 M702.938,69.315l-0.6-0.57
		c0.9-0.96,1.44-1.74,1.56-2.79c-0.09,0.03-0.21,0.03-0.3,0.03c-0.81,0-1.41-0.54-1.41-1.38c0-0.96,0.72-1.41,1.41-1.41
		c0.78,0,1.44,0.51,1.44,1.83C705.038,66.675,704.258,68.115,702.938,69.315 M567.041,69.315l-0.6-0.57
		c0.9-0.96,1.44-1.74,1.56-2.79c-0.09,0.03-0.21,0.03-0.3,0.03c-0.81,0-1.41-0.54-1.41-1.38c0-0.96,0.72-1.41,1.41-1.41
		c0.78,0,1.44,0.51,1.44,1.83C569.141,66.675,568.361,68.115,567.041,69.315 M475.423,69.315l-0.6-0.57
		c0.9-0.96,1.44-1.74,1.56-2.79l-0.3,0.03c-0.81,0-1.41-0.54-1.41-1.38c0-0.96,0.72-1.41,1.41-1.41c0.78,0,1.44,0.51,1.44,1.83
		C477.523,66.675,476.743,68.115,475.423,69.315 M383.805,69.315l-0.6-0.57c0.9-0.96,1.44-1.74,1.56-2.79l-0.3,0.03
		c-0.81,0-1.41-0.54-1.41-1.38c0-0.96,0.72-1.41,1.41-1.41c0.78,0,1.44,0.51,1.44,1.83
		C385.905,66.675,385.125,68.115,383.805,69.315 M278.566,69.315l-0.6-0.57c0.9-0.96,1.44-1.74,1.56-2.79l-0.3,0.03
		c-0.81,0-1.41-0.54-1.41-1.38c0-0.96,0.72-1.41,1.41-1.41c0.78,0,1.44,0.51,1.44,1.83
		C280.666,66.675,279.886,68.115,278.566,69.315 M669.909,66.015c-3.99,0-6.84-2.88-6.84-6.96s2.85-6.96,6.84-6.96
		c4.05,0,6.9,2.88,6.9,6.96S673.959,66.015,669.909,66.015 M669.909,53.805c-2.94,0-4.98,2.19-4.98,5.25c0,3.09,2.04,5.25,4.98,5.25
		c2.97,0,5.04-2.16,5.04-5.25C674.949,55.995,672.909,53.805,669.909,53.805 M645.73,66.015c-4.02,0-6.84-2.88-6.84-6.99
		c0-3.84,2.76-6.93,6.69-6.93c3.69,0,5.88,2.55,5.88,6.42c0,0.42-0.03,0.84-0.09,1.29h-10.62c0.3,2.82,2.46,4.5,4.95,4.5
		c1.86,0,3.03-0.57,4.05-1.62l1.05,1.32C649.45,65.295,647.83,66.015,645.73,66.015 M645.55,53.805c-2.46,0-4.38,1.74-4.74,4.38
		h8.849C649.6,55.365,647.98,53.805,645.55,53.805 M596.41,66.015c-3.99,0-6.84-2.88-6.84-6.96s2.85-6.96,6.84-6.96
		c4.05,0,6.9,2.88,6.9,6.96S600.46,66.015,596.41,66.015 M596.41,53.805c-2.94,0-4.98,2.19-4.98,5.25c0,3.09,2.04,5.25,4.98,5.25
		c2.97,0,5.04-2.16,5.04-5.25C601.45,55.995,599.41,53.805,596.41,53.805 M539.951,66.015c-3.99,0-6.84-2.88-6.84-6.96
		s2.85-6.96,6.84-6.96c4.05,0,6.9,2.88,6.9,6.96S544.001,66.015,539.951,66.015 M539.951,53.805c-2.94,0-4.98,2.19-4.98,5.25
		c0,3.09,2.04,5.25,4.98,5.25c2.97,0,5.04-2.16,5.04-5.25C544.991,55.995,542.951,53.805,539.951,53.805 M526.092,66.015
		c-3.3,0-6.6-2.43-6.6-6.99c0-4.38,3.18-6.9,6.78-6.9c1.92,0,3.39,0.6,4.74,1.8l-1.05,1.26c-1.08-0.93-2.13-1.35-3.69-1.35
		c-2.76,0-4.92,2.07-4.92,5.19c0,3.18,2.13,5.28,4.89,5.28c1.8,0,2.88-0.57,3.96-1.59l1.02,1.32
		C529.841,65.325,528.402,66.015,526.092,66.015 M448.333,66.015c-3.99,0-6.84-2.88-6.84-6.96s2.85-6.96,6.84-6.96
		c4.05,0,6.9,2.88,6.9,6.96S452.383,66.015,448.333,66.015 M448.333,53.805c-2.94,0-4.98,2.19-4.98,5.25c0,3.09,2.04,5.25,4.98,5.25
		c2.97,0,5.04-2.16,5.04-5.25C453.373,55.995,451.333,53.805,448.333,53.805 M373.725,66.015c-4.02,0-6.84-2.88-6.84-6.99
		c0-3.84,2.76-6.93,6.69-6.93c3.69,0,5.88,2.55,5.88,6.42c0,0.42-0.03,0.84-0.09,1.29h-10.62c0.3,2.82,2.46,4.5,4.95,4.5
		c1.86,0,3.03-0.57,4.05-1.62l1.05,1.32C377.445,65.295,375.825,66.015,373.725,66.015 M373.545,53.805c-2.46,0-4.38,1.74-4.74,4.38
		h8.85C377.595,55.365,375.975,53.805,373.545,53.805 M308.626,66.015c-3.99,0-6.839-2.88-6.839-6.96s2.85-6.96,6.839-6.96
		c4.05,0,6.9,2.88,6.9,6.96S312.675,66.015,308.626,66.015 M308.626,53.805c-2.94,0-4.98,2.19-4.98,5.25c0,3.09,2.04,5.25,4.98,5.25
		c2.97,0,5.04-2.16,5.04-5.25C313.665,55.995,311.626,53.805,308.626,53.805 M257.567,66.015c-4.02,0-6.84-2.88-6.84-6.99
		c0-3.84,2.76-6.93,6.689-6.93c3.69,0,5.88,2.55,5.88,6.42c0,0.42-0.03,0.84-0.09,1.29h-10.62c0.3,2.82,2.46,4.5,4.95,4.5
		c1.86,0,3.03-0.57,4.05-1.62l1.05,1.32C261.287,65.295,259.667,66.015,257.567,66.015 M257.387,53.805c-2.46,0-4.38,1.74-4.74,4.38
		h8.85C261.437,55.365,259.817,53.805,257.387,53.805 M190.998,66.015c-3.99,0-6.839-2.88-6.839-6.96s2.85-6.96,6.839-6.96
		c4.05,0,6.9,2.88,6.9,6.96S195.048,66.015,190.998,66.015 M190.998,53.805c-2.94,0-4.98,2.19-4.98,5.25c0,3.09,2.04,5.25,4.98,5.25
		c2.97,0,5.04-2.16,5.04-5.25C196.038,55.995,193.998,53.805,190.998,53.805 M496.002,65.985c-2.25,0-4.11-0.99-5.22-2.61
		l-0.27,2.31h-1.41V44.176h1.83v6.9c0,1.26-0.03,2.49-0.06,3.66c1.08-1.62,2.97-2.58,5.13-2.58c3.9,0,6.66,2.91,6.66,6.84
		C502.662,63.045,499.932,65.985,496.002,65.985 M495.882,53.865c-3,0-5.04,2.19-5.04,5.19c0,3,1.98,5.19,5.04,5.19
		c2.94,0,4.95-2.16,4.95-5.19C500.832,56.025,498.822,53.865,495.882,53.865 M135.049,65.985c-3.93,0-6.66-2.94-6.66-6.99
		c0-3.93,2.76-6.84,6.66-6.84c2.16,0,4.05,0.96,5.13,2.52c-0.03-1.14-0.06-2.34-0.06-3.6v-6.9h1.83v21.509h-1.41l-0.27-2.37
		C139.189,64.965,137.359,65.985,135.049,65.985 M135.169,53.865c-2.94,0-4.95,2.16-4.95,5.19c0,3.03,2.01,5.19,4.95,5.19
		c3.06,0,5.01-2.19,5.01-5.19C140.179,56.055,138.169,53.865,135.169,53.865 M736.748,65.925c-2.58,0-4.23-1.41-4.23-3.69
		c0-2.97,2.73-4.68,6.63-4.68c0.99,0,1.74,0.03,2.43,0.12v-0.9c0-1.86-1.32-2.79-3.36-2.79c-1.44,0-2.91,0.42-4.38,1.11l-0.63-1.56
		c1.8-0.84,3.51-1.26,5.19-1.26c3.03,0,5.04,1.59,5.04,4.59v8.82h-1.35l-0.33-2.4C740.798,64.875,739.088,65.925,736.748,65.925
		 M739.418,59.085c-3.12,0-4.98,1.08-4.98,3.03c0,1.32,0.96,2.1,2.61,2.1c2.73,0,4.44-1.98,4.53-5.01
		C740.858,59.115,740.288,59.085,739.418,59.085 M695.469,65.925c-2.16,0-3.51-1.26-3.51-3.99v-7.89l-2.58-0.12v-1.5h2.58v-4.41
		h1.83v4.41h4.74v1.62h-4.74v7.89c0,1.68,0.69,2.25,1.86,2.25c0.93,0,1.77-0.3,2.61-0.9l0.81,1.38
		C698.079,65.415,696.849,65.925,695.469,65.925 M628.93,65.925c-3.3,0-4.83-2.19-4.83-5.43v-8.07h1.83v8.1
		c0,2.16,0.84,3.69,3.21,3.69c2.64,0,4.2-2.37,4.2-5.19v-6.6h1.83v13.26h-1.41l-0.36-2.31
		C632.62,64.785,631.12,65.925,628.93,65.925 M509.262,65.925c-2.58,0-4.23-1.41-4.23-3.69c0-2.97,2.73-4.68,6.63-4.68
		c0.99,0,1.74,0.03,2.43,0.12v-0.9c0-1.86-1.32-2.79-3.36-2.79c-1.44,0-2.91,0.42-4.38,1.11l-0.63-1.56
		c1.8-0.84,3.51-1.26,5.19-1.26c3.03,0,5.04,1.59,5.04,4.59v8.82h-1.35l-0.33-2.4C513.312,64.875,511.602,65.925,509.262,65.925
		 M511.932,59.085c-3.12,0-4.98,1.08-4.98,3.03c0,1.32,0.96,2.1,2.61,2.1c2.73,0,4.44-1.98,4.53-5.01
		C513.372,59.115,512.802,59.085,511.932,59.085 M407.264,65.925c-2.58,0-4.23-1.41-4.23-3.69c0-2.97,2.73-4.68,6.63-4.68
		c0.99,0,1.74,0.03,2.43,0.12v-0.9c0-1.86-1.32-2.79-3.36-2.79c-1.44,0-2.91,0.42-4.38,1.11l-0.63-1.56
		c1.8-0.84,3.51-1.26,5.19-1.26c3.03,0,5.04,1.59,5.04,4.59v8.82h-1.35l-0.33-2.4C411.314,64.875,409.604,65.925,407.264,65.925
		 M409.934,59.085c-3.12,0-4.98,1.08-4.98,3.03c0,1.32,0.96,2.1,2.61,2.1c2.73,0,4.44-1.98,4.53-5.01
		C411.374,59.115,410.804,59.085,409.934,59.085 M361.785,65.925c-2.16,0-3.51-1.26-3.51-3.99v-7.89l-2.58-0.12v-1.5h2.58v-4.41
		h1.83v4.41h4.74v1.62h-4.74v7.89c0,1.68,0.69,2.25,1.86,2.25c0.93,0,1.77-0.3,2.61-0.9l0.81,1.38
		C364.395,65.415,363.165,65.925,361.785,65.925 M346.425,65.925c-2.58,0-4.23-1.41-4.23-3.69c0-2.97,2.73-4.68,6.63-4.68
		c0.99,0,1.74,0.03,2.43,0.12v-0.9c0-1.86-1.32-2.79-3.36-2.79c-1.44,0-2.91,0.42-4.38,1.11l-0.63-1.56
		c1.8-0.84,3.51-1.26,5.189-1.26c3.03,0,5.04,1.59,5.04,4.59v8.82h-1.35l-0.33-2.4C350.475,64.875,348.765,65.925,346.425,65.925
		 M349.095,59.085c-3.12,0-4.98,1.08-4.98,3.03c0,1.32,0.96,2.1,2.61,2.1c2.73,0,4.44-1.98,4.53-5.01
		C350.535,59.115,349.965,59.085,349.095,59.085 M296.686,65.925c-2.16,0-3.51-1.26-3.51-3.99v-7.89l-2.58-0.12v-1.5h2.58v-4.41
		h1.83v4.41h4.74v1.62h-4.74v7.89c0,1.68,0.69,2.25,1.86,2.25c0.93,0,1.77-0.3,2.61-0.9l0.81,1.38
		C299.296,65.415,298.065,65.925,296.686,65.925 M271.096,65.925c-2.16,0-3.51-1.26-3.51-3.99v-7.89l-2.58-0.12v-1.5h2.58v-4.41
		h1.83v4.41h4.74v1.62h-4.74v7.89c0,1.68,0.69,2.25,1.86,2.25c0.93,0,1.77-0.3,2.61-0.9l0.81,1.38
		C273.707,65.415,272.476,65.925,271.096,65.925 M206.268,65.925c-3.3,0-4.83-2.19-4.83-5.43v-8.07h1.83v8.1
		c0,2.16,0.84,3.69,3.21,3.69c2.64,0,4.2-2.37,4.2-5.19v-6.6h1.83v13.26h-1.41l-0.36-2.31
		C209.957,64.785,208.457,65.925,206.268,65.925 M149.809,65.925c-2.58,0-4.23-1.41-4.23-3.69c0-2.97,2.73-4.68,6.63-4.68
		c0.99,0,1.74,0.03,2.43,0.12v-0.9c0-1.86-1.32-2.79-3.36-2.79c-1.44,0-2.91,0.42-4.38,1.11l-0.63-1.56
		c1.8-0.84,3.51-1.26,5.19-1.26c3.03,0,5.04,1.59,5.04,4.59v8.82h-1.35l-0.33-2.4C153.859,64.875,152.149,65.925,149.809,65.925
		 M152.479,59.085c-3.12,0-4.98,1.08-4.98,3.03c0,1.32,0.96,2.1,2.61,2.1c2.73,0,4.44-1.98,4.53-5.01
		C153.919,59.115,153.349,59.085,152.479,59.085 M118.16,65.925c-2.58,0-4.23-1.41-4.23-3.69c0-2.97,2.73-4.68,6.63-4.68
		c0.99,0,1.74,0.03,2.43,0.12v-0.9c0-1.86-1.32-2.79-3.36-2.79c-1.44,0-2.91,0.42-4.38,1.11l-0.63-1.56
		c1.8-0.84,3.51-1.26,5.19-1.26c3.03,0,5.04,1.59,5.04,4.59v8.82h-1.35l-0.33-2.4C122.209,64.875,120.499,65.925,118.16,65.925
		 M120.829,59.085c-3.12,0-4.98,1.08-4.98,3.03c0,1.32,0.96,2.1,2.61,2.1c2.73,0,4.44-1.98,4.53-5.01
		C122.269,59.115,121.699,59.085,120.829,59.085 M97.25,65.925c-2.58,0-4.23-1.41-4.23-3.69c0-2.97,2.73-4.68,6.63-4.68
		c0.99,0,1.74,0.03,2.43,0.12v-0.9c0-1.86-1.32-2.79-3.36-2.79c-1.44,0-2.91,0.42-4.38,1.11l-0.63-1.56
		c1.8-0.84,3.51-1.26,5.19-1.26c3.03,0,5.04,1.59,5.04,4.59v8.82h-1.35l-0.33-2.4C101.3,64.875,99.59,65.925,97.25,65.925
		 M99.92,59.085c-3.12,0-4.98,1.08-4.98,3.03c0,1.32,0.96,2.1,2.61,2.1c2.73,0,4.44-1.98,4.53-5.01
		C101.36,59.115,100.79,59.085,99.92,59.085 M85.97,65.925c-1.86,0-3.42-0.51-4.83-1.47l0.93-1.44c1.17,0.84,2.43,1.2,3.9,1.2
		c1.62,0,2.67-0.81,2.67-2.01c0-1.29-1.47-1.95-3.06-2.58c-2.16-0.84-3.96-1.86-3.96-3.99c0-2.22,2.04-3.36,4.29-3.36
		c1.44,0,2.82,0.42,4.02,1.2l-0.81,1.32c-0.96-0.54-2.04-0.84-3.12-0.84c-1.35,0-2.55,0.45-2.55,1.68c0,1.2,1.23,1.8,2.79,2.4
		c2.4,0.9,4.23,1.95,4.23,4.17C90.47,64.425,88.58,65.925,85.97,65.925 M759.097,65.685h-1.83v-8.13c0-2.25-0.84-3.69-3.06-3.69
		c-2.67,0-4.44,1.92-4.44,4.68v7.14h-1.83v-13.26h1.38l0.42,2.25c0.78-1.41,2.4-2.52,4.65-2.52c3.09,0,4.71,1.98,4.71,5.43V65.685
		 M682.359,65.685h-1.83v-13.26h1.38l0.36,1.95c0.75-1.38,2.01-2.22,3.87-2.22c0.84,0,1.56,0.18,2.16,0.45l-0.54,1.62
		c-0.51-0.18-1.02-0.33-1.77-0.33c-2.16,0-3.63,1.53-3.63,4.11V65.685 M657.55,65.685h-1.83v-11.64h-2.76v-1.62h2.76v-3.81
		c0-2.61,1.35-4.8,4.29-4.8c1.41,0,2.4,0.42,3.42,1.17l-0.84,1.32c-0.75-0.51-1.41-0.78-2.37-0.78c-1.62,0-2.67,1.05-2.67,3.09v3.81
		h4.35v1.62h-4.35V65.685 M582.551,65.685h-1.83v-13.26h1.38l0.36,1.95c0.75-1.38,2.01-2.22,3.87-2.22c0.84,0,1.56,0.18,2.16,0.45
		l-0.54,1.62c-0.51-0.18-1.02-0.33-1.77-0.33c-2.16,0-3.63,1.53-3.63,4.11V65.685 M561.731,65.685h-1.83v-8.13
		c0-2.25-0.84-3.69-3.06-3.69c-2.67,0-4.44,1.92-4.44,4.68v7.14h-1.83v-13.26h1.38l0.42,2.25c0.78-1.41,2.4-2.52,4.65-2.52
		c3.09,0,4.71,1.98,4.71,5.43V65.685 M470.113,65.685h-1.83v-8.13c0-2.25-0.84-3.69-3.06-3.69c-2.67,0-4.44,1.92-4.44,4.68v7.14
		h-1.83v-13.26h1.38l0.42,2.25c0.78-1.41,2.4-2.52,4.65-2.52c3.09,0,4.71,1.98,4.71,5.43V65.685 M437.953,65.685h-1.83v-8.4
		c0-2.13-1.08-3.42-2.94-3.42c-2.67,0-4.05,2.43-4.05,4.92v6.9h-1.83v-8.43c0-1.83-0.93-3.39-2.94-3.39c-2.7,0-4.08,2.43-4.08,4.92
		v6.9h-1.83v-13.26h1.38l0.42,2.28c0.87-1.62,2.4-2.55,4.32-2.55c2.01,0,3.48,0.99,4.11,2.67c0.87-1.62,2.4-2.67,4.62-2.67
		c3.03,0,4.65,2.01,4.65,5.22V65.685 M338.745,65.685h-1.83v-8.4c0-2.13-1.08-3.42-2.94-3.42c-2.67,0-4.05,2.43-4.05,4.92v6.9h-1.83
		v-8.43c0-1.83-0.93-3.39-2.94-3.39c-2.7,0-4.08,2.43-4.08,4.92v6.9h-1.83v-13.26h1.38l0.42,2.28c0.87-1.62,2.4-2.55,4.32-2.55
		c2.01,0,3.48,0.99,4.11,2.67c0.87-1.62,2.4-2.67,4.62-2.67c3.03,0,4.65,2.01,4.65,5.22V65.685 M247.187,65.685h-1.83v-8.4
		c0-2.13-1.08-3.42-2.94-3.42c-2.67,0-4.05,2.43-4.05,4.92v6.9h-1.83v-8.43c0-1.83-0.93-3.39-2.94-3.39c-2.7,0-4.08,2.43-4.08,4.92
		v6.9h-1.83v-13.26h1.38l0.42,2.28c0.87-1.62,2.4-2.55,4.32-2.55c2.01,0,3.48,0.99,4.11,2.67c0.87-1.62,2.4-2.67,4.62-2.67
		c3.03,0,4.65,2.01,4.65,5.22V65.685 M219.018,65.685h-1.83v-13.26h1.38l0.36,1.95c0.75-1.38,2.01-2.22,3.87-2.22
		c0.84,0,1.56,0.18,2.16,0.45l-0.54,1.62c-0.51-0.18-1.02-0.33-1.77-0.33c-2.16,0-3.63,1.53-3.63,4.11V65.685 M110.3,65.685h-1.83
		l-0.03-21.509h1.83L110.3,65.685 M77.69,65.685h-1.83v-8.13c0-2.25-0.84-3.69-3.06-3.69c-2.67,0-4.44,1.92-4.44,4.68v7.14h-1.83
		v-13.26h1.38l0.42,2.25c0.78-1.41,2.4-2.52,4.65-2.52c3.09,0,4.71,1.98,4.71,5.43V65.685 M62.93,65.685H50.481V45.286H62.66v1.8
		H52.461v7.26h8.97v1.77h-8.97v7.77H62.93V65.685 M446.743,49.575l-0.93-1.08l3.96-3.39l1.2,1.41L446.743,49.575 M398.505,48.946
		c-0.81,0-1.35-0.6-1.35-1.32c0-0.78,0.54-1.38,1.35-1.38c0.87,0,1.38,0.6,1.38,1.41C399.885,48.376,399.315,48.946,398.505,48.946"
		/>
	<path fill="#000000" d="M52.731,108.285h-1.92v-0.06l2.94-6.87l-5.79-12.869v-0.06h1.92l3.81,8.49c0.33,0.78,0.66,1.53,0.96,2.46
		c0.3-0.93,0.6-1.71,0.9-2.46l3.45-8.49h1.89v0.06L52.731,108.285 M148.039,102.015c-3.99,0-6.84-2.88-6.84-6.96
		s2.85-6.96,6.84-6.96c4.05,0,6.9,2.88,6.9,6.96S152.089,102.015,148.039,102.015 M148.039,89.805c-2.94,0-4.98,2.19-4.98,5.25
		c0,3.09,2.04,5.25,4.98,5.25c2.97,0,5.04-2.16,5.04-5.25C153.079,91.995,151.039,89.805,148.039,89.805 M178.849,101.925
		c-2.58,0-4.23-1.41-4.23-3.69c0-2.97,2.73-4.68,6.63-4.68c0.99,0,1.74,0.03,2.43,0.12v-0.9c0-1.86-1.32-2.79-3.36-2.79
		c-1.44,0-2.91,0.42-4.38,1.11l-0.63-1.56c1.8-0.84,3.51-1.26,5.19-1.26c3.03,0,5.04,1.59,5.04,4.59v8.819h-1.35l-0.33-2.4
		C182.899,100.875,181.189,101.925,178.849,101.925 M181.519,95.085c-3.12,0-4.98,1.08-4.98,3.03c0,1.32,0.96,2.1,2.61,2.1
		c2.73,0,4.44-1.98,4.53-5.01C182.959,95.115,182.389,95.085,181.519,95.085 M115.31,101.925c-2.58,0-4.23-1.41-4.23-3.69
		c0-2.97,2.73-4.68,6.63-4.68c0.99,0,1.74,0.03,2.43,0.12v-0.9c0-1.86-1.32-2.79-3.36-2.79c-1.44,0-2.91,0.42-4.38,1.11l-0.63-1.56
		c1.8-0.84,3.51-1.26,5.19-1.26c3.03,0,5.04,1.59,5.04,4.59v8.819h-1.35l-0.33-2.4C119.36,100.875,117.65,101.925,115.31,101.925
		 M117.98,95.085c-3.12,0-4.98,1.08-4.98,3.03c0,1.32,0.96,2.1,2.61,2.1c2.73,0,4.44-1.98,4.53-5.01
		C119.42,95.115,118.85,95.085,117.98,95.085 M85.281,101.925c-2.58,0-4.23-1.41-4.23-3.69c0-2.97,2.73-4.68,6.63-4.68
		c0.99,0,1.74,0.03,2.43,0.12v-0.9c0-1.86-1.32-2.79-3.36-2.79c-1.44,0-2.91,0.42-4.38,1.11l-0.63-1.56
		c1.8-0.84,3.51-1.26,5.19-1.26c3.03,0,5.04,1.59,5.04,4.59v8.819h-1.35l-0.33-2.4C89.331,100.875,87.621,101.925,85.281,101.925
		 M87.951,95.085c-3.12,0-4.98,1.08-4.98,3.03c0,1.32,0.96,2.1,2.61,2.1c2.73,0,4.44-1.98,4.53-5.01
		C89.391,95.115,88.821,95.085,87.951,95.085 M170.989,101.685h-1.83v-13.26h1.83V101.685 M160.489,101.685h-1.83v-13.26h1.38
		l0.36,1.95c0.75-1.38,2.01-2.22,3.87-2.22c0.84,0,1.56,0.18,2.16,0.45l-0.54,1.62c-0.51-0.18-1.02-0.33-1.77-0.33
		c-2.16,0-3.63,1.53-3.63,4.11V101.685 M137.66,101.685h-1.83v-8.16c0-2.22-0.9-3.66-3.12-3.66c-2.82,0-4.38,2.4-4.38,5.28v6.54
		h-1.83V80.176h1.83v8.58c0,0.66,0,1.29-0.03,2.07c0.81-1.56,2.34-2.67,4.59-2.67c3.24,0,4.77,2.04,4.77,5.43V101.685
		 M107.63,101.685h-1.83v-8.13c0-2.25-0.84-3.69-3.06-3.69c-2.67,0-4.44,1.92-4.44,4.68v7.14h-1.83v-13.26h1.38l0.42,2.25
		c0.78-1.41,2.4-2.52,4.65-2.52c3.09,0,4.71,1.98,4.71,5.43V101.685 M78.981,101.685h-9.93v-0.57l6.24-9.69l0.87-1.35
		c-0.75,0.03-1.05,0.03-1.62,0.03h-5.16v-1.68h9.51v0.54l-5.88,9.089c-0.39,0.66-0.81,1.26-1.29,1.95h2.19h5.069V101.685
		 M170.089,84.946c-0.84,0-1.38-0.6-1.38-1.32c0-0.78,0.54-1.38,1.38-1.38c0.84,0,1.38,0.6,1.38,1.38
		C171.469,84.376,170.899,84.946,170.089,84.946"/>
	<path fill="#9D9D9C" d="M890.082,64.888l-5.496,3l0.984,1.992l2.136-1.056l0.6-0.312c-0.12,0.432-0.192,0.864-0.288,1.32
		l-1.992,11.041h2.808l2.808-15.985z M896.993,81.162c3.384,0,5.928-1.776,6.432-4.464c0.048-0.288,0.072-0.576,0.072-0.84
		c0-1.512-0.768-2.832-2.256-3.288c1.584-0.768,2.472-2.16,2.712-3.384c0.048-0.264,0.072-0.528,0.072-0.792
		c0-2.136-1.752-3.672-4.296-3.672c-1.848,0-3.552,0.624-5.472,2.232l1.392,1.704c1.248-1.008,2.28-1.512,3.696-1.512
		c1.176,0,1.944,0.696,1.944,1.656c0,1.248-1.104,2.664-3.216,2.664h-1.872l-0.408,2.304h2.52c1.176,0,2.448,0.456,2.448,1.896
		c0,1.776-1.704,3.048-3.672,3.048c-1.392,0-2.448-0.432-3.384-1.632l-1.872,1.68C893.153,80.418,894.881,81.162,896.993,81.162z
		 M907.361,77.85c-0.816,0-1.584,0.504-1.776,1.464c-0.024,0.12-0.024,0.24-0.024,0.336c0,0.912,0.648,1.512,1.392,1.512h0.12
		c-0.36,1.008-1.032,1.776-2.04,2.544l0.576,0.696c1.68-1.128,2.808-2.64,3.216-4.296c0.072-0.24,0.096-0.48,0.096-0.696
		C908.921,78.378,908.225,77.85,907.361,77.85z M917.033,81.138c3.504,0,5.881-1.608,6.385-4.44c0.048-0.288,0.072-0.576,0.072-0.84
		c0-1.608-0.888-2.808-2.112-3.384c1.488-0.624,2.976-2.04,2.976-4.2c0-2.088-1.728-3.576-4.512-3.576
		c-3.12,0-5.424,1.656-5.881,4.224c-0.048,0.216-0.048,0.456-0.048,0.648c0,1.344,0.72,2.448,1.752,2.904
		c-1.824,0.552-3.216,2.112-3.552,3.96c-0.048,0.288-0.072,0.576-0.072,0.864C912.04,79.674,913.961,81.138,917.033,81.138z
		 M918.737,71.345c-1.368,0-2.184-0.672-2.184-1.752c0-1.584,1.2-2.592,2.88-2.592c1.368,0,2.184,0.672,2.184,1.704
		C921.617,70.241,920.393,71.345,918.737,71.345z M917.441,78.714c-1.512,0-2.544-0.648-2.544-1.968c0-0.168,0.024-0.312,0.048-0.48
		c0.264-1.536,1.584-2.64,3.312-2.64c1.608,0,2.472,0.816,2.472,2.064C920.729,77.61,919.241,78.714,917.441,78.714z
		 M936.761,67.433l0.432-2.424H929.2l-2.352,8.113l0.408,0.312c0.888-0.312,1.8-0.504,2.736-0.504c1.776,0,3.048,0.792,3.048,2.328
		c0,0.192,0,0.384-0.048,0.6c-0.336,1.848-1.872,2.784-3.672,2.784c-1.44,0-2.472-0.528-3.048-1.392l-1.68,1.848
		c0.984,1.272,2.688,2.088,4.8,2.088c3.288,0,5.833-1.896,6.337-4.92c0.072-0.432,0.12-0.816,0.12-1.2c0-2.736-1.944-4.2-4.848-4.2
		c-0.384,0-0.72,0.024-1.032,0.048l1.056-3.48z"/>
	<path fill="#9D9D9C" d="M946.278,67.511c0.76,0,1.34,0.12,1.9,0.34l1-1.82c-0.88-0.4-1.7-0.62-2.881-0.62
		c-3.461,0-5.941,1.88-6.982,4.741h-1.5l-0.24,1.4h1.36c-0.06,0.36-0.12,0.74-0.14,1.12h-1.42l-0.26,1.4h1.7
		c0.26,2.861,2.24,5.041,5.501,5.041c1.04,0,1.92-0.18,2.801-0.6l-0.44-1.96c-0.64,0.32-1.26,0.46-2.06,0.46
		c-2.12,0-3.181-1.16-3.461-2.941h2.921l0.78-1.4h-3.741c0.02-0.38,0.06-0.76,0.16-1.12h4.161l0.76-1.4h-4.421
		C942.617,68.552,944.177,67.511,946.278,67.511z"/>
	<path fill="#7AC3A5" d="M14.441,141.87c2.961,0,4.921-1.66,4.921-3.941c0-1.4-0.74-2.761-2.461-3.341c1.2-0.62,1.86-1.8,1.86-2.961
		c0-1.96-1.66-3.461-4.121-3.461c-1.72,0-3.061,0.64-4.261,1.98l1.3,1.28c0.74-0.74,1.58-1.24,2.721-1.24
		c1.26,0,2.06,0.74,2.06,1.72c0,0.94-0.74,1.88-2.381,1.88h-1.44v1.92h1.7c1.28,0,2.681,0.46,2.681,2c0,1.22-1.04,2.1-2.701,2.1
		c-1.22,0-2.14-0.52-2.921-1.34l-1.34,1.4C11.16,141.11,12.701,141.87,14.441,141.87z"/>
	<path fill="#000000" d="M130.97,153.214c-2.58,0-4.47-0.87-6-2.37l1.14-1.29c1.29,1.26,2.79,1.95,4.77,1.95
		c2.7,0,4.8-1.41,4.8-4.35c0-1.02,0-2.01,0.03-3c-1.23,1.59-3.15,2.4-5.1,2.4c-4.08,0-6.66-3.09-6.66-6.87c0-3.81,2.52-6.9,6.57-6.9
		c2.16,0,4.05,0.84,5.22,2.46l0.42-2.19h1.35v14.13C137.509,151.265,134.479,153.214,130.97,153.214 M130.73,134.495
		c-3.12,0-4.92,2.28-4.92,5.16c0,2.94,1.89,5.19,4.89,5.19c3.33,0,5.04-2.37,5.04-5.16S134.089,134.495,130.73,134.495
		 M227.688,149.944l-0.6-0.57c0.9-0.96,1.44-1.74,1.56-2.79l-0.3,0.03c-0.81,0-1.41-0.54-1.41-1.38c0-0.96,0.72-1.41,1.41-1.41
		c0.78,0,1.44,0.51,1.44,1.83C229.788,147.305,229.008,148.745,227.688,149.944 M157.369,149.944l-0.6-0.57
		c0.9-0.96,1.44-1.74,1.56-2.79l-0.3,0.03c-0.81,0-1.41-0.54-1.41-1.38c0-0.96,0.72-1.41,1.41-1.41c0.78,0,1.44,0.51,1.44,1.83
		C159.469,147.305,158.689,148.745,157.369,149.944 M306.917,146.645c-3.99,0-6.84-2.88-6.84-6.959c0-4.08,2.85-6.96,6.84-6.96
		c4.05,0,6.9,2.88,6.9,6.96C313.817,143.765,310.967,146.645,306.917,146.645 M306.917,134.435c-2.94,0-4.98,2.19-4.98,5.25
		c0,3.09,2.04,5.25,4.98,5.25c2.97,0,5.04-2.16,5.04-5.25C311.957,136.625,309.917,134.435,306.917,134.435 M278.477,146.645
		c-4.02,0-6.84-2.88-6.84-6.99c0-3.84,2.76-6.93,6.69-6.93c3.69,0,5.88,2.55,5.88,6.42c0,0.42-0.03,0.84-0.09,1.29h-10.62
		c0.3,2.82,2.46,4.5,4.95,4.5c1.86,0,3.03-0.57,4.05-1.62l1.05,1.32C282.197,145.925,280.577,146.645,278.477,146.645
		 M278.298,134.435c-2.46,0-4.38,1.74-4.74,4.38h8.85C282.347,135.995,280.727,134.435,278.298,134.435 M85.52,146.645
		c-3.3,0-6.6-2.43-6.6-6.99c0-4.38,3.18-6.9,6.78-6.9c1.92,0,3.39,0.6,4.74,1.8l-1.05,1.26c-1.08-0.93-2.13-1.35-3.69-1.35
		c-2.76,0-4.92,2.07-4.92,5.19c0,3.18,2.13,5.28,4.89,5.28c1.8,0,2.88-0.57,3.96-1.59l1.02,1.32
		C89.27,145.955,87.83,146.645,85.52,146.645 M70.611,146.645c-4.02,0-6.84-2.88-6.84-6.99c0-3.84,2.76-6.93,6.69-6.93
		c3.69,0,5.88,2.55,5.88,6.42c0,0.42-0.03,0.84-0.09,1.29h-10.62c0.3,2.82,2.46,4.5,4.95,4.5c1.86,0,3.03-0.57,4.05-1.62l1.05,1.32
		C74.331,145.925,72.711,146.645,70.611,146.645 M70.431,134.435c-2.46,0-4.38,1.74-4.74,4.38h8.85
		C74.481,135.995,72.861,134.435,70.431,134.435 M261.678,146.555c-3.3,0-4.83-2.19-4.83-5.43v-8.07h1.83v8.1
		c0,2.16,0.84,3.69,3.21,3.69c2.64,0,4.2-2.37,4.2-5.19v-6.6h1.83v13.26h-1.41l-0.36-2.31
		C265.367,145.415,263.867,146.555,261.678,146.555 M200.299,146.555c-3.3,0-4.83-2.19-4.83-5.43v-8.07h1.83v8.1
		c0,2.16,0.84,3.69,3.21,3.69c2.64,0,4.2-2.37,4.2-5.19v-6.6h1.83v13.26h-1.41l-0.39-2.31
		C203.989,145.415,202.459,146.555,200.299,146.555 M189.588,146.555c-2.16,0-3.51-1.26-3.51-3.99v-7.89l-2.58-0.12v-1.5h2.58v-4.41
		h1.83v4.41h4.74v1.62h-4.74v7.89c0,1.68,0.69,2.25,1.86,2.25c0.93,0,1.77-0.3,2.61-0.9l0.81,1.38
		C192.199,146.045,190.968,146.555,189.588,146.555 M174.229,146.555c-2.58,0-4.23-1.41-4.23-3.69c0-2.97,2.73-4.68,6.63-4.68
		c0.99,0,1.74,0.03,2.43,0.12v-0.9c0-1.86-1.32-2.79-3.36-2.79c-1.44,0-2.91,0.42-4.38,1.11l-0.63-1.56
		c1.8-0.84,3.51-1.26,5.19-1.26c3.03,0,5.04,1.59,5.04,4.59v8.82h-1.35l-0.33-2.4C178.278,145.505,176.569,146.555,174.229,146.555
		 M176.898,139.715c-3.12,0-4.98,1.08-4.98,3.03c0,1.32,0.96,2.1,2.61,2.1c2.73,0,4.44-1.98,4.53-5.01
		C178.339,139.745,177.768,139.715,176.898,139.715 M145.369,146.555c-2.58,0-4.23-1.41-4.23-3.69c0-2.97,2.73-4.68,6.63-4.68
		c0.99,0,1.74,0.03,2.43,0.12v-0.9c0-1.86-1.32-2.79-3.36-2.79c-1.44,0-2.91,0.42-4.38,1.11l-0.63-1.56
		c1.8-0.84,3.51-1.26,5.189-1.26c3.03,0,5.04,1.59,5.04,4.59v8.82h-1.35l-0.33-2.4C149.419,145.505,147.709,146.555,145.369,146.555
		 M148.039,139.715c-3.12,0-4.98,1.08-4.98,3.03c0,1.32,0.96,2.1,2.61,2.1c2.73,0,4.44-1.98,4.53-5.01
		C149.479,139.745,148.909,139.715,148.039,139.715 M113.99,146.555c-3.3,0-4.83-2.19-4.83-5.43v-8.07h1.83v8.1
		c0,2.16,0.84,3.69,3.21,3.69c2.64,0,4.2-2.37,4.2-5.19v-6.6h1.83v13.26h-1.41l-0.36-2.31
		C117.68,145.415,116.18,146.555,113.99,146.555 M292.607,146.465h-0.66l-6.21-13.349v-0.06h1.98l3.84,8.49
		c0.27,0.6,0.51,1.2,0.72,1.89c0.21-0.69,0.45-1.29,0.72-1.89l3.81-8.49h1.98v0.06L292.607,146.465 M252.528,146.315h-1.83v-8.16
		c0-2.22-0.9-3.66-3.12-3.66c-2.82,0-4.38,2.4-4.38,5.28v6.54h-1.83v-21.509h1.83v8.58c0,0.66,0,1.29-0.03,2.07
		c0.81-1.56,2.34-2.67,4.59-2.67c3.24,0,4.77,2.04,4.77,5.43V146.315 M222.379,146.315h-1.83v-8.13c0-2.25-0.84-3.69-3.06-3.69
		c-2.67,0-4.44,1.92-4.44,4.68v7.14h-1.83v-13.26h1.38l0.42,2.25c0.78-1.41,2.4-2.52,4.65-2.52c3.09,0,4.71,1.98,4.71,5.43V146.315
		 M104.84,146.315h-1.83v-8.16c0-2.22-0.9-3.66-3.12-3.66c-2.82,0-4.38,2.4-4.38,5.28v6.54h-1.83v-21.509h1.83v8.58
		c0,0.66,0,1.29-0.03,2.07c0.81-1.56,2.34-2.67,4.59-2.67c3.24,0,4.77,2.04,4.77,5.43V146.315 M62.3,146.315H50.481v-20.399h1.98
		v18.599H62.3V146.315 M199.429,130.206l-0.93-1.08l3.96-3.39l1.2,1.41L199.429,130.206"/>
	<path fill="#000000" d="M388.565,152.915h-1.92v-0.06l2.94-6.87l-5.79-12.869v-0.06h1.92l3.81,8.49c0.33,0.78,0.66,1.53,0.96,2.46
		c0.3-0.93,0.6-1.71,0.9-2.46l3.45-8.49h1.89v0.06L388.565,152.915 M487.414,146.645c-4.02,0-6.84-2.88-6.84-6.99
		c0-3.84,2.76-6.93,6.69-6.93c3.69,0,5.88,2.55,5.88,6.42c0,0.42-0.03,0.84-0.09,1.29h-10.62c0.3,2.82,2.46,4.5,4.95,4.5
		c1.86,0,3.03-0.57,4.05-1.62l1.05,1.32C491.134,145.925,489.514,146.645,487.414,146.645 M487.234,134.435
		c-2.46,0-4.38,1.74-4.74,4.38h8.849C491.284,135.995,489.664,134.435,487.234,134.435 M422.315,146.645
		c-3.99,0-6.84-2.88-6.84-6.959c0-4.08,2.85-6.96,6.84-6.96c4.05,0,6.9,2.88,6.9,6.96
		C429.215,143.765,426.365,146.645,422.315,146.645 M422.315,134.435c-2.94,0-4.98,2.19-4.98,5.25c0,3.09,2.04,5.25,4.98,5.25
		c2.97,0,5.04-2.16,5.04-5.25C427.355,136.625,425.315,134.435,422.315,134.435 M368.584,146.645c-3.99,0-6.84-2.88-6.84-6.959
		c0-4.08,2.85-6.96,6.84-6.96c4.05,0,6.9,2.88,6.9,6.96C375.484,143.765,372.634,146.645,368.584,146.645 M368.584,134.435
		c-2.94,0-4.98,2.19-4.98,5.25c0,3.09,2.04,5.25,4.98,5.25c2.97,0,5.04-2.16,5.04-5.25
		C373.624,136.625,371.584,134.435,368.584,134.435 M325.745,146.615c-3.93,0-6.66-2.94-6.66-6.99c0-3.93,2.76-6.84,6.66-6.84
		c2.16,0,4.05,0.96,5.13,2.52c-0.03-1.14-0.06-2.34-0.06-3.6v-6.9h1.83v21.509h-1.41l-0.27-2.37
		C329.885,145.595,328.055,146.615,325.745,146.615 M325.865,134.495c-2.94,0-4.95,2.16-4.95,5.19c0,3.03,2.01,5.189,4.95,5.189
		c3.06,0,5.01-2.19,5.01-5.189C330.875,136.685,328.865,134.495,325.865,134.495 M475.474,146.555c-2.16,0-3.51-1.26-3.51-3.99
		v-7.89l-2.58-0.12v-1.5h2.58v-4.41h1.83v4.41h4.74v1.62h-4.74v7.89c0,1.68,0.69,2.25,1.86,2.25c0.93,0,1.77-0.3,2.61-0.9l0.81,1.38
		C478.084,146.045,476.854,146.555,475.474,146.555 M460.114,146.555c-2.58,0-4.23-1.41-4.23-3.69c0-2.97,2.73-4.68,6.63-4.68
		c0.99,0,1.74,0.03,2.43,0.12v-0.9c0-1.86-1.32-2.79-3.36-2.79c-1.44,0-2.91,0.42-4.38,1.11l-0.63-1.56
		c1.8-0.84,3.51-1.26,5.19-1.26c3.03,0,5.04,1.59,5.04,4.59v8.82h-1.35l-0.33-2.4C464.164,145.505,462.454,146.555,460.114,146.555
		 M462.784,139.715c-3.12,0-4.98,1.08-4.98,3.03c0,1.32,0.96,2.1,2.61,2.1c2.73,0,4.44-1.98,4.53-5.01
		C464.224,139.745,463.654,139.715,462.784,139.715 M410.375,146.555c-2.16,0-3.51-1.26-3.51-3.99v-7.89l-2.58-0.12v-1.5h2.58v-4.41
		h1.83v4.41h4.74v1.62h-4.74v7.89c0,1.68,0.69,2.25,1.86,2.25c0.93,0,1.77-0.3,2.61-0.9l0.81,1.38
		C412.985,146.045,411.755,146.555,410.375,146.555 M341.975,146.555c-3.3,0-4.83-2.19-4.83-5.43v-8.07h1.83v8.1
		c0,2.16,0.84,3.69,3.21,3.69c2.64,0,4.2-2.37,4.2-5.19v-6.6h1.83v13.26h-1.41l-0.36-2.31
		C345.665,145.415,344.165,146.555,341.975,146.555 M452.434,146.315h-1.83v-8.4c0-2.13-1.08-3.42-2.94-3.42
		c-2.67,0-4.05,2.43-4.05,4.92v6.9h-1.83v-8.43c0-1.83-0.93-3.39-2.94-3.39c-2.7,0-4.08,2.43-4.08,4.92v6.9h-1.83v-13.26h1.38
		l0.42,2.28c0.87-1.62,2.4-2.55,4.32-2.55c2.01,0,3.48,0.99,4.11,2.67c0.87-1.62,2.4-2.67,4.62-2.67c3.03,0,4.65,2.01,4.65,5.22
		V146.315 M354.725,146.315h-1.83v-13.26h1.38l0.36,1.95c0.75-1.38,2.01-2.22,3.87-2.22c0.84,0,1.56,0.18,2.16,0.45l-0.54,1.62
		c-0.51-0.18-1.02-0.33-1.77-0.33c-2.16,0-3.63,1.53-3.63,4.11V146.315"/>
	<path fill="#9D9D9C" d="M892.769,127.518l-5.496,3l0.984,1.992l2.136-1.056l0.6-0.312c-0.12,0.432-0.192,0.864-0.288,1.32
		l-1.992,11.041h2.808l2.808-15.985z M901.649,127.518l-5.496,3l0.984,1.992l2.136-1.056l0.6-0.312
		c-0.12,0.432-0.192,0.864-0.288,1.32l-1.992,11.041h2.808l2.808-15.985z M905.945,140.48c-0.816,0-1.584,0.504-1.776,1.464
		c-0.024,0.12-0.024,0.24-0.024,0.336c0,0.912,0.648,1.512,1.392,1.512h0.12c-0.36,1.008-1.032,1.776-2.04,2.544l0.576,0.696
		c1.68-1.128,2.808-2.64,3.216-4.296c0.072-0.24,0.096-0.48,0.096-0.696C907.505,141.008,906.809,140.48,905.945,140.48z
		 M917.489,127.326c-3.024,0-5.28,1.92-5.809,4.872c-0.072,0.384-0.096,0.744-0.096,1.08c0,2.592,1.824,4.272,4.128,4.272
		c1.248,0,2.184-0.288,3.192-1.032c-1.176,2.952-3.648,4.776-7.345,4.896l0.168,2.304c6.049-0.096,9.337-3.96,10.369-9.145
		l0.072-0.336c0.12-0.6,0.168-1.176,0.168-1.728C922.337,129.439,920.657,127.326,917.489,127.326z M916.529,135.247
		c-1.44,0-2.232-1.032-2.232-2.328c0-0.192,0.024-0.384,0.048-0.576c0.312-1.656,1.44-2.568,3.024-2.592
		c1.344,0,2.328,0.936,2.328,2.28c0,0.168-0.024,0.336-0.048,0.528C919.385,134.095,918.305,135.247,916.529,135.247z
		 M928.768,143.792c3.864,0,6.265-3.096,7.129-8.041c0.144-0.864,0.216-1.68,0.216-2.424c0-3.696-1.8-5.977-4.728-5.977
		c-3.96,0-6.241,3.072-7.129,8.017c-0.144,0.888-0.24,1.704-0.24,2.472C924.016,141.536,925.792,143.792,928.768,143.792z
		 M928.961,141.344c-1.464,0-2.184-1.368-2.184-3.504c0-0.672,0.072-1.44,0.216-2.256c0.624-3.552,2.16-5.785,4.2-5.785
		c1.464,0,2.16,1.344,2.16,3.456c0,0.696-0.072,1.464-0.216,2.28C932.513,139.087,931.001,141.344,928.961,141.344z"/>
	<path fill="#9D9D9C" d="M946.278,130.141c0.76,0,1.34,0.12,1.9,0.34l1-1.82c-0.88-0.4-1.7-0.62-2.881-0.62
		c-3.461,0-5.941,1.88-6.982,4.741h-1.5l-0.24,1.4h1.36c-0.06,0.36-0.12,0.74-0.14,1.12h-1.42l-0.26,1.4h1.7
		c0.26,2.861,2.24,5.041,5.501,5.041c1.04,0,1.92-0.18,2.801-0.6l-0.44-1.96c-0.64,0.32-1.26,0.46-2.06,0.46
		c-2.12,0-3.181-1.16-3.461-2.941h2.921l0.78-1.4h-3.741c0.02-0.38,0.06-0.76,0.16-1.12h4.161l0.76-1.4h-4.421
		C942.617,131.182,944.177,130.141,946.278,130.141z"/>
	<path fill="#7AC3A5" d="M18.282,176.859v-8.962h-1.3l-7.122,9.642v1.22h6.261v2.501h2.16v-2.501h1.5v-1.9z M16.181,176.859h-2.22
		c-0.46,0-0.9,0-1.36,0.02c0.26-0.32,0.5-0.64,0.76-0.98l2.04-2.801c0.28-0.36,0.54-0.74,0.84-1.22c-0.06,0.6-0.06,1.06-0.06,1.66z"
		/>
	<path fill="#000000" d="M268.877,189.575l-0.6-0.57c0.9-0.96,1.44-1.74,1.56-2.79l-0.3,0.03c-0.81,0-1.41-0.54-1.41-1.38
		c0-0.96,0.72-1.41,1.41-1.41c0.78,0,1.44,0.51,1.44,1.83C270.977,186.935,270.197,188.374,268.877,189.575 M56.211,186.305
		c-2.76,0-5.28-0.99-7.02-2.46l1.02-1.56c1.53,1.38,3.66,2.19,6,2.19c2.55,0,4.77-1.35,4.77-3.78c0-2.52-2.34-3.51-5.01-4.44
		c-3-1.05-6.21-2.55-6.21-5.97c0-3.21,2.94-5.1,6.24-5.1c2.28,0,4.23,0.6,6.18,2.04l-0.9,1.5c-1.65-1.17-3.27-1.71-5.19-1.71
		c-2.19,0-4.32,1.05-4.32,3.18c0,2.49,2.46,3.39,4.92,4.26c3.36,1.2,6.27,2.7,6.27,6.15
		C62.961,184.175,59.961,186.305,56.211,186.305 M368.985,186.275c-3.99,0-6.84-2.88-6.84-6.96s2.85-6.96,6.84-6.96
		c4.05,0,6.9,2.88,6.9,6.96S373.035,186.275,368.985,186.275 M368.985,174.065c-2.94,0-4.98,2.19-4.98,5.25
		c0,3.09,2.04,5.25,4.98,5.25c2.97,0,5.04-2.16,5.04-5.25C374.024,176.255,371.984,174.065,368.985,174.065 M319.546,186.275
		c-3.3,0-6.6-2.43-6.6-6.99c0-4.38,3.18-6.9,6.78-6.9c1.92,0,3.39,0.6,4.74,1.8l-1.05,1.26c-1.08-0.93-2.13-1.35-3.69-1.35
		c-2.76,0-4.92,2.07-4.92,5.19c0,3.18,2.13,5.28,4.89,5.28c1.8,0,2.88-0.57,3.96-1.59l1.02,1.32
		C323.296,185.585,321.856,186.275,319.546,186.275 M257.657,186.275c-3.99,0-6.84-2.88-6.84-6.96s2.85-6.96,6.84-6.96
		c4.05,0,6.9,2.88,6.9,6.96S261.707,186.275,257.657,186.275 M257.657,174.065c-2.94,0-4.98,2.19-4.98,5.25
		c0,3.09,2.04,5.25,4.98,5.25c2.97,0,5.04-2.16,5.04-5.25C262.697,176.255,260.657,174.065,257.657,174.065 M117.41,186.275
		c-3.99,0-6.84-2.88-6.84-6.96s2.85-6.96,6.84-6.96c4.05,0,6.9,2.88,6.9,6.96S121.459,186.275,117.41,186.275 M117.41,174.065
		c-2.94,0-4.98,2.19-4.98,5.25c0,3.09,2.04,5.25,4.98,5.25c2.97,0,5.04-2.16,5.04-5.25
		C122.449,176.255,120.41,174.065,117.41,174.065 M289.456,186.245c-2.25,0-4.11-0.99-5.22-2.61l-0.27,2.31h-1.41v-21.509h1.83v6.9
		c0,1.26-0.03,2.49-0.06,3.66c1.08-1.62,2.97-2.58,5.13-2.58c3.9,0,6.66,2.91,6.66,6.84
		C296.116,183.305,293.386,186.245,289.456,186.245 M289.336,174.125c-3,0-5.04,2.19-5.04,5.19s1.98,5.19,5.04,5.19
		c2.94,0,4.95-2.16,4.95-5.19S292.276,174.125,289.336,174.125 M240.197,186.245c-3.93,0-6.66-2.94-6.66-6.99
		c0-3.93,2.76-6.84,6.66-6.84c2.16,0,4.05,0.96,5.13,2.52c-0.03-1.14-0.06-2.34-0.06-3.6v-6.9h1.83v21.509h-1.41l-0.27-2.37
		C244.337,185.225,242.507,186.245,240.197,186.245 M240.317,174.125c-2.94,0-4.95,2.16-4.95,5.19s2.01,5.19,4.95,5.19
		c3.06,0,5.01-2.19,5.01-5.19S243.317,174.125,240.317,174.125 M351.915,186.185c-2.58,0-4.23-1.41-4.23-3.69
		c0-2.97,2.73-4.68,6.63-4.68c0.99,0,1.74,0.03,2.43,0.12v-0.9c0-1.86-1.32-2.79-3.36-2.79c-1.44,0-2.91,0.42-4.38,1.11l-0.63-1.56
		c1.8-0.84,3.51-1.26,5.19-1.26c3.03,0,5.04,1.59,5.04,4.59v8.819h-1.35l-0.33-2.4C355.965,185.135,354.255,186.185,351.915,186.185
		 M354.585,179.345c-3.12,0-4.98,1.08-4.98,3.03c0,1.32,0.96,2.1,2.61,2.1c2.73,0,4.44-1.98,4.53-5.01
		C356.025,179.375,355.455,179.345,354.585,179.345 M331.006,186.185c-2.58,0-4.23-1.41-4.23-3.69c0-2.97,2.73-4.68,6.63-4.68
		c0.99,0,1.74,0.03,2.43,0.12v-0.9c0-1.86-1.32-2.79-3.36-2.79c-1.44,0-2.91,0.42-4.38,1.11l-0.63-1.56
		c1.8-0.84,3.51-1.26,5.19-1.26c3.03,0,5.04,1.59,5.04,4.59v8.819h-1.35l-0.33-2.4C335.056,185.135,333.346,186.185,331.006,186.185
		 M333.676,179.345c-3.12,0-4.98,1.08-4.98,3.03c0,1.32,0.96,2.1,2.61,2.1c2.73,0,4.44-1.98,4.53-5.01
		C335.116,179.375,334.546,179.345,333.676,179.345 M302.716,186.185c-2.58,0-4.23-1.41-4.23-3.69c0-2.97,2.73-4.68,6.63-4.68
		c0.99,0,1.74,0.03,2.43,0.12v-0.9c0-1.86-1.32-2.79-3.36-2.79c-1.44,0-2.91,0.42-4.38,1.11l-0.63-1.56
		c1.8-0.84,3.51-1.26,5.19-1.26c3.03,0,5.04,1.59,5.04,4.59v8.819h-1.35l-0.33-2.4C306.766,185.135,305.056,186.185,302.716,186.185
		 M305.386,179.345c-3.12,0-4.98,1.08-4.98,3.03c0,1.32,0.96,2.1,2.61,2.1c2.73,0,4.44-1.98,4.53-5.01
		C306.826,179.375,306.256,179.345,305.386,179.345 M223.308,186.185c-2.58,0-4.23-1.41-4.23-3.69c0-2.97,2.73-4.68,6.63-4.68
		c0.99,0,1.74,0.03,2.43,0.12v-0.9c0-1.86-1.32-2.79-3.36-2.79c-1.44,0-2.91,0.42-4.38,1.11l-0.63-1.56
		c1.8-0.84,3.51-1.26,5.19-1.26c3.03,0,5.04,1.59,5.04,4.59v8.819h-1.35l-0.33-2.4C227.358,185.135,225.648,186.185,223.308,186.185
		 M225.978,179.345c-3.12,0-4.98,1.08-4.98,3.03c0,1.32,0.96,2.1,2.61,2.1c2.73,0,4.44-1.98,4.53-5.01
		C227.417,179.375,226.848,179.345,225.978,179.345 M185.208,186.185c-3.3,0-4.83-2.19-4.83-5.43v-8.069h1.83v8.1
		c0,2.16,0.84,3.69,3.21,3.69c2.64,0,4.2-2.37,4.2-5.19v-6.6h1.83v13.259h-1.41l-0.36-2.31
		C188.898,185.045,187.398,186.185,185.208,186.185 M153.709,186.185c-2.58,0-4.23-1.41-4.23-3.69c0-2.97,2.73-4.68,6.63-4.68
		c0.99,0,1.74,0.03,2.43,0.12v-0.9c0-1.86-1.32-2.79-3.36-2.79c-1.44,0-2.91,0.42-4.38,1.11l-0.63-1.56
		c1.8-0.84,3.51-1.26,5.19-1.26c3.03,0,5.04,1.59,5.04,4.59v8.819h-1.35l-0.33-2.4C157.759,185.135,156.049,186.185,153.709,186.185
		 M156.379,179.345c-3.12,0-4.98,1.08-4.98,3.03c0,1.32,0.96,2.1,2.61,2.1c2.73,0,4.44-1.98,4.53-5.01
		C157.819,179.375,157.249,179.345,156.379,179.345 M69.801,186.185c-2.58,0-4.23-1.41-4.23-3.69c0-2.97,2.73-4.68,6.63-4.68
		c0.99,0,1.74,0.03,2.43,0.12v-0.9c0-1.86-1.32-2.79-3.36-2.79c-1.44,0-2.91,0.42-4.38,1.11l-0.63-1.56
		c1.8-0.84,3.51-1.26,5.189-1.26c3.03,0,5.04,1.59,5.04,4.59v8.819h-1.35l-0.33-2.4C73.851,185.135,72.141,186.185,69.801,186.185
		 M72.471,179.345c-3.12,0-4.98,1.08-4.98,3.03c0,1.32,0.96,2.1,2.61,2.1c2.73,0,4.44-1.98,4.53-5.01
		C73.911,179.375,73.341,179.345,72.471,179.345 M344.056,185.945h-1.83l-0.03-21.509h1.83L344.056,185.945 M215.628,185.945h-1.83
		v-8.4c0-2.13-1.08-3.42-2.94-3.42c-2.67,0-4.05,2.43-4.05,4.92v6.9h-1.83v-8.43c0-1.83-0.93-3.39-2.94-3.39
		c-2.7,0-4.08,2.43-4.08,4.92v6.9h-1.83v-13.259h1.38l0.42,2.28c0.87-1.62,2.4-2.55,4.32-2.55c2.01,0,3.48,0.99,4.11,2.67
		c0.87-1.62,2.4-2.67,4.62-2.67c3.03,0,4.65,2.01,4.65,5.22V185.945 M176.058,185.945h-1.83v-8.16c0-2.22-0.9-3.66-3.12-3.66
		c-2.82,0-4.38,2.4-4.38,5.28v6.54h-1.83v-21.509h1.83v8.579c0,0.66,0,1.29-0.03,2.07c0.81-1.56,2.34-2.67,4.59-2.67
		c3.24,0,4.77,2.04,4.77,5.43V185.945 M139.189,185.945h-1.83v-8.13c0-2.25-0.84-3.69-3.06-3.69c-2.67,0-4.44,1.92-4.44,4.68v7.14
		h-1.83v-13.259h1.38l0.42,2.25c0.78-1.41,2.4-2.52,4.65-2.52c3.09,0,4.71,1.98,4.71,5.43V185.945 M107.029,185.945h-1.83v-8.4
		c0-2.13-1.08-3.42-2.94-3.42c-2.67,0-4.05,2.43-4.05,4.92v6.9h-1.83v-8.43c0-1.83-0.93-3.39-2.94-3.39c-2.7,0-4.08,2.43-4.08,4.92
		v6.9h-1.83v-13.259h1.38l0.42,2.28c0.87-1.62,2.4-2.55,4.32-2.55c2.01,0,3.48,0.99,4.11,2.67c0.87-1.62,2.4-2.67,4.62-2.67
		c3.03,0,4.65,2.01,4.65,5.22V185.945 M82.851,185.945h-1.83l-0.03-21.509h1.83L82.851,185.945 M115.82,169.835l-0.93-1.08
		l3.96-3.39l1.2,1.41L115.82,169.835"/>
	<path fill="#000000" d="M378.42,187.276l-0.22-0.209c0.33-0.352,0.528-0.638,0.572-1.023l-0.11,0.011
		c-0.297,0-0.517-0.198-0.517-0.506c0-0.352,0.264-0.517,0.517-0.517c0.286,0,0.528,0.187,0.528,0.671
		C379.19,186.308,378.904,186.836,378.42,187.276"/>
	<path fill="#000000" d="M450.286,186.275c-3.99,0-6.84-2.88-6.84-6.96s2.85-6.96,6.84-6.96c4.05,0,6.9,2.88,6.9,6.96
		S454.336,186.275,450.286,186.275 M450.286,174.065c-2.94,0-4.98,2.19-4.98,5.25c0,3.09,2.04,5.25,4.98,5.25
		c2.97,0,5.04-2.16,5.04-5.25C455.326,176.255,453.286,174.065,450.286,174.065 M420.586,186.275c-3.3,0-6.6-2.43-6.6-6.99
		c0-4.38,3.18-6.9,6.78-6.9c1.92,0,3.39,0.6,4.74,1.8l-1.05,1.26c-1.08-0.93-2.13-1.35-3.69-1.35c-2.76,0-4.92,2.07-4.92,5.19
		c0,3.18,2.13,5.28,4.89,5.28c1.8,0,2.88-0.57,3.96-1.59l1.02,1.32C424.336,185.585,422.896,186.275,420.586,186.275
		 M478.995,186.185c-1.86,0-3.42-0.51-4.83-1.47l0.93-1.44c1.17,0.84,2.43,1.2,3.9,1.2c1.62,0,2.67-0.81,2.67-2.01
		c0-1.29-1.47-1.95-3.06-2.58c-2.16-0.84-3.96-1.86-3.96-3.99c0-2.22,2.04-3.36,4.29-3.36c1.44,0,2.82,0.42,4.02,1.2l-0.81,1.32
		c-0.96-0.54-2.04-0.84-3.12-0.84c-1.35,0-2.55,0.45-2.55,1.68c0,1.2,1.23,1.8,2.79,2.4c2.4,0.9,4.23,1.95,4.23,4.17
		C483.495,184.685,481.605,186.185,478.995,186.185 M464.025,186.185c-2.58,0-4.23-1.41-4.23-3.69c0-2.97,2.73-4.68,6.63-4.68
		c0.99,0,1.74,0.03,2.43,0.12v-0.9c0-1.86-1.32-2.79-3.36-2.79c-1.44,0-2.91,0.42-4.38,1.11l-0.63-1.56
		c1.8-0.84,3.51-1.26,5.189-1.26c3.03,0,5.04,1.59,5.04,4.59v8.819h-1.35l-0.33-2.4
		C468.075,185.135,466.366,186.185,464.025,186.185 M466.696,179.345c-3.12,0-4.98,1.08-4.98,3.03c0,1.32,0.96,2.1,2.61,2.1
		c2.73,0,4.44-1.98,4.53-5.01C468.135,179.375,467.565,179.345,466.696,179.345 M388.097,186.185c-2.58,0-4.23-1.41-4.23-3.69
		c0-2.97,2.73-4.68,6.63-4.68c0.99,0,1.74,0.03,2.43,0.12v-0.9c0-1.86-1.32-2.79-3.36-2.79c-1.44,0-2.91,0.42-4.38,1.11l-0.63-1.56
		c1.8-0.84,3.51-1.26,5.19-1.26c3.03,0,5.04,1.59,5.04,4.59v8.819h-1.35l-0.33-2.4C392.147,185.135,390.437,186.185,388.097,186.185
		 M390.767,179.345c-3.12,0-4.98,1.08-4.98,3.03c0,1.32,0.96,2.1,2.61,2.1c2.73,0,4.44-1.98,4.53-5.01
		C392.207,179.375,391.637,179.345,390.767,179.345 M439.906,185.945h-1.83v-8.16c0-2.22-0.9-3.66-3.12-3.66
		c-2.82,0-4.38,2.4-4.38,5.28v6.54h-1.83v-21.509h1.83v8.579c0,0.66,0,1.29-0.03,2.07c0.81-1.56,2.34-2.67,4.59-2.67
		c3.24,0,4.77,2.04,4.77,5.43V185.945 M410.447,185.945h-1.83v-8.13c0-2.25-0.84-3.69-3.06-3.69c-2.67,0-4.44,1.92-4.44,4.68v7.14
		h-1.83v-13.259h1.38l0.42,2.25c0.78-1.41,2.4-2.52,4.65-2.52c3.09,0,4.71,1.98,4.71,5.43V185.945"/>
	<path fill="#000000" d="M556.232,192.544h-1.83v-5.22c0-1.41,0.03-2.67,0.06-3.72c-1.08,1.62-2.94,2.64-5.16,2.64
		c-3.87,0-6.6-2.91-6.6-6.99c0-3.96,2.76-6.84,6.57-6.84c2.25,0,3.99,0.93,5.16,2.55l0.42-2.28h1.38V192.544 M549.423,174.125
		c-2.85,0-4.86,2.16-4.86,5.22c0,3.03,2.01,5.19,4.86,5.19c2.94,0,5.04-2.13,5.04-5.28
		C554.462,176.225,552.392,174.125,549.423,174.125 M492.513,192.544h-1.92v-0.06l2.94-6.87l-5.79-12.87v-0.06h1.92l3.81,8.49
		c0.33,0.78,0.66,1.53,0.96,2.46c0.3-0.93,0.6-1.71,0.9-2.46l3.45-8.49h1.89v0.06L492.513,192.544 M639.481,186.275
		c-4.02,0-6.84-2.88-6.84-6.99c0-3.84,2.76-6.93,6.69-6.93c3.69,0,5.88,2.55,5.88,6.42c0,0.42-0.03,0.84-0.09,1.29h-10.62
		c0.3,2.82,2.46,4.5,4.95,4.5c1.86,0,3.03-0.57,4.05-1.62l1.05,1.32C643.201,185.555,641.581,186.275,639.481,186.275
		 M639.301,174.065c-2.46,0-4.38,1.74-4.74,4.38h8.85C643.351,175.625,641.731,174.065,639.301,174.065 M607.322,186.275
		c-3.99,0-6.84-2.88-6.84-6.96s2.85-6.96,6.84-6.96c4.05,0,6.9,2.88,6.9,6.96S611.372,186.275,607.322,186.275 M607.322,174.065
		c-2.94,0-4.98,2.19-4.98,5.25c0,3.09,2.04,5.25,4.98,5.25c2.97,0,5.04-2.16,5.04-5.25
		C612.362,176.255,610.322,174.065,607.322,174.065 M582.362,186.275c-4.02,0-6.84-2.88-6.84-6.99c0-3.84,2.76-6.93,6.69-6.93
		c3.69,0,5.88,2.55,5.88,6.42c0,0.42-0.03,0.84-0.09,1.29h-10.62c0.3,2.82,2.46,4.5,4.95,4.5c1.86,0,3.03-0.57,4.05-1.62l1.05,1.32
		C586.082,185.555,584.462,186.275,582.362,186.275 M582.182,174.065c-2.46,0-4.38,1.74-4.74,4.38h8.85
		C586.232,175.625,584.612,174.065,582.182,174.065 M533.043,186.275c-3.99,0-6.84-2.88-6.84-6.96s2.85-6.96,6.84-6.96
		c4.05,0,6.9,2.88,6.9,6.96S537.093,186.275,533.043,186.275 M533.043,174.065c-2.94,0-4.98,2.19-4.98,5.25
		c0,3.09,2.04,5.25,4.98,5.25c2.97,0,5.04-2.16,5.04-5.25C538.083,176.255,536.043,174.065,533.043,174.065 M516.783,186.245
		c-2.25,0-4.11-0.99-5.22-2.61l-0.27,2.31h-1.41v-21.509h1.83v6.9c0,1.26-0.03,2.49-0.06,3.66c1.08-1.62,2.97-2.58,5.13-2.58
		c3.9,0,6.66,2.91,6.66,6.84C523.443,183.305,520.713,186.245,516.783,186.245 M516.663,174.125c-3,0-5.04,2.19-5.04,5.19
		s1.98,5.19,5.04,5.19c2.94,0,4.95-2.16,4.95-5.19S519.603,174.125,516.663,174.125 M652.531,186.185c-1.86,0-3.42-0.51-4.83-1.47
		l0.93-1.44c1.17,0.84,2.43,1.2,3.9,1.2c1.62,0,2.67-0.81,2.67-2.01c0-1.29-1.47-1.95-3.06-2.58c-2.16-0.84-3.96-1.86-3.96-3.99
		c0-2.22,2.04-3.36,4.29-3.36c1.44,0,2.82,0.42,4.02,1.2l-0.81,1.32c-0.96-0.54-2.04-0.84-3.12-0.84c-1.35,0-2.55,0.45-2.55,1.68
		c0,1.2,1.23,1.8,2.79,2.4c2.4,0.9,4.23,1.95,4.23,4.17C657.031,184.685,655.141,186.185,652.531,186.185 M565.563,186.185
		c-3.3,0-4.83-2.19-4.83-5.43v-8.069h1.83v8.1c0,2.16,0.84,3.69,3.21,3.69c2.64,0,4.2-2.37,4.2-5.19v-6.6h1.83v13.259h-1.41
		l-0.36-2.31C569.252,185.045,567.752,186.185,565.563,186.185 M629.101,185.945h-1.83v-8.13c0-2.25-0.84-3.69-3.06-3.69
		c-2.67,0-4.44,1.92-4.44,4.68v7.14h-1.83v-13.259h1.38l0.42,2.25c0.78-1.41,2.4-2.52,4.65-2.52c3.09,0,4.71,1.98,4.71,5.43V185.945
		 M593.462,185.945h-1.83v-13.259h1.38l0.36,1.95c0.75-1.38,2.01-2.22,3.87-2.22c0.84,0,1.56,0.18,2.16,0.45l-0.54,1.62
		c-0.51-0.18-1.02-0.33-1.77-0.33c-2.16,0-3.63,1.53-3.63,4.11V185.945"/>
	<path fill="#9D9D9C" d="M889.865,167.148l-5.496,3l0.984,1.992l2.136-1.056l0.6-0.312c-0.12,0.432-0.192,0.864-0.288,1.32
		l-1.992,11.041h2.808l2.808-15.985z M903.473,169.693l0.432-2.424h-7.993l-2.352,8.113l0.408,0.312
		c0.888-0.312,1.8-0.504,2.736-0.504c1.776,0,3.048,0.792,3.048,2.328c0,0.192,0,0.384-0.048,0.6
		c-0.336,1.848-1.872,2.784-3.672,2.784c-1.44,0-2.472-0.528-3.048-1.392l-1.68,1.848c0.984,1.272,2.688,2.088,4.8,2.088
		c3.288,0,5.833-1.896,6.337-4.92c0.072-0.432,0.12-0.816,0.12-1.2c0-2.736-1.944-4.2-4.848-4.2c-0.384,0-0.72,0.024-1.032,0.048
		l1.056-3.48z M905.945,180.109c-0.816,0-1.584,0.504-1.776,1.464c-0.024,0.12-0.024,0.24-0.024,0.336
		c0,0.912,0.648,1.512,1.392,1.512h0.12c-0.36,1.008-1.032,1.776-2.04,2.544l0.576,0.696c1.68-1.128,2.808-2.64,3.216-4.296
		c0.072-0.24,0.096-0.48,0.096-0.696C907.505,180.638,906.809,180.109,905.945,180.109z M917.489,166.956
		c-3.024,0-5.28,1.92-5.809,4.872c-0.072,0.384-0.096,0.744-0.096,1.08c0,2.592,1.824,4.272,4.128,4.272
		c1.248,0,2.184-0.288,3.192-1.032c-1.176,2.952-3.648,4.776-7.345,4.896l0.168,2.304c6.049-0.096,9.337-3.96,10.369-9.145
		l0.072-0.336c0.12-0.6,0.168-1.176,0.168-1.728C922.337,169.069,920.657,166.956,917.489,166.956z M916.529,174.877
		c-1.44,0-2.232-1.032-2.232-2.328c0-0.192,0.024-0.384,0.048-0.576c0.312-1.656,1.44-2.568,3.024-2.592
		c1.344,0,2.328,0.936,2.328,2.28c0,0.168-0.024,0.336-0.048,0.528C919.385,173.725,918.305,174.877,916.529,174.877z
		 M928.768,183.422c3.864,0,6.265-3.096,7.129-8.041c0.144-0.864,0.216-1.68,0.216-2.424c0-3.696-1.8-5.977-4.728-5.977
		c-3.96,0-6.241,3.072-7.129,8.017c-0.144,0.888-0.24,1.704-0.24,2.472C924.016,181.166,925.792,183.422,928.768,183.422z
		 M928.961,180.974c-1.464,0-2.184-1.368-2.184-3.504c0-0.672,0.072-1.44,0.216-2.256c0.624-3.552,2.16-5.785,4.2-5.785
		c1.464,0,2.16,1.344,2.16,3.456c0,0.696-0.072,1.464-0.216,2.28C932.513,178.717,931.001,180.974,928.961,180.974z"/>
	<path fill="#9D9D9C" d="M946.278,169.771c0.76,0,1.34,0.12,1.9,0.34l1-1.82c-0.88-0.4-1.7-0.62-2.881-0.62
		c-3.461,0-5.941,1.88-6.982,4.741h-1.5l-0.24,1.4h1.36c-0.06,0.36-0.12,0.74-0.14,1.12h-1.42l-0.26,1.4h1.7
		c0.26,2.861,2.24,5.041,5.501,5.041c1.04,0,1.92-0.18,2.801-0.6l-0.44-1.96c-0.64,0.32-1.26,0.46-2.06,0.46
		c-2.12,0-3.181-1.16-3.461-2.941h2.921l0.78-1.4h-3.741c0.02-0.38,0.06-0.76,0.16-1.12h4.161l0.76-1.4h-4.421
		C942.617,170.812,944.177,169.771,946.278,169.771z"/>
	<path fill="#7AC3A5" d="M15.461,212.648c-1.04,0-1.96,0.26-2.641,0.96c0.42-2.421,2.2-4.001,5.281-4.241l-0.26-1.94
		c-5.121,0.4-7.362,3.641-7.362,8.282v0.22c0,2.901,1.46,5.201,4.601,5.201c2.661,0,4.441-1.8,4.441-4.401
		C19.522,214.068,17.662,212.648,15.461,212.648z M15.041,219.069c-1.34,0-2.26-0.9-2.26-2.24c0-1.46,0.92-2.28,2.26-2.28
		c1.2,0,2.2,0.74,2.2,2.24C17.242,218.189,16.281,219.069,15.041,219.069z"/>
	<path fill="#000000" d="M173.898,232.474c-2.58,0-4.47-0.87-6-2.37l1.14-1.29c1.29,1.26,2.79,1.95,4.77,1.95
		c2.7,0,4.8-1.41,4.8-4.35c0-1.02,0-2.01,0.03-3c-1.23,1.59-3.15,2.4-5.1,2.4c-4.08,0-6.66-3.09-6.66-6.87c0-3.81,2.52-6.9,6.57-6.9
		c2.16,0,4.05,0.84,5.22,2.46l0.42-2.19h1.35v14.129C180.438,230.525,177.408,232.474,173.898,232.474 M173.658,213.755
		c-3.12,0-4.92,2.28-4.92,5.16c0,2.94,1.89,5.19,4.89,5.19c3.33,0,5.04-2.37,5.04-5.16S177.018,213.755,173.658,213.755
		 M500.862,232.174h-1.83v-19.859h1.38l0.39,2.22c1.14-1.53,2.94-2.49,5.19-2.49c3.78,0,6.54,2.88,6.54,6.84
		c0,4.08-2.76,6.99-6.57,6.99c-2.19,0-4.05-0.99-5.16-2.49c0.03,1.02,0.06,2.25,0.06,3.57V232.174 M505.842,213.755
		c-2.97,0-5.07,2.1-5.07,5.13c0,3.15,2.13,5.28,5.07,5.28c2.85,0,4.86-2.16,4.86-5.19
		C510.702,215.915,508.692,213.755,505.842,213.755 M304.815,232.174h-1.83v-5.22c0-1.41,0.03-2.67,0.06-3.72
		c-1.08,1.62-2.94,2.64-5.16,2.64c-3.87,0-6.6-2.91-6.6-6.99c0-3.96,2.76-6.84,6.57-6.84c2.25,0,3.99,0.93,5.16,2.55l0.42-2.28h1.38
		V232.174 M298.006,213.755c-2.85,0-4.86,2.16-4.86,5.22c0,3.03,2.01,5.19,4.86,5.19c2.94,0,5.04-2.13,5.04-5.28
		C303.046,215.855,300.975,213.755,298.006,213.755 M485.353,229.204l-0.6-0.57c0.9-0.96,1.44-1.74,1.56-2.79l-0.3,0.03
		c-0.81,0-1.41-0.54-1.41-1.38c0-0.96,0.72-1.41,1.41-1.41c0.78,0,1.44,0.51,1.44,1.83
		C487.453,226.564,486.673,228.005,485.353,229.204 M278.566,229.204l-0.6-0.57c0.9-0.96,1.44-1.74,1.56-2.79l-0.3,0.03
		c-0.81,0-1.41-0.54-1.41-1.38c0-0.96,0.72-1.41,1.41-1.41c0.78,0,1.44,0.51,1.44,1.83
		C280.666,226.564,279.886,228.005,278.566,229.204 M576.491,225.905c-4.02,0-6.84-2.88-6.84-6.99c0-3.84,2.76-6.93,6.69-6.93
		c3.69,0,5.88,2.55,5.88,6.42c0,0.42-0.03,0.84-0.09,1.29h-10.62c0.3,2.82,2.46,4.5,4.95,4.5c1.86,0,3.03-0.57,4.05-1.62l1.05,1.32
		C580.211,225.185,578.591,225.905,576.491,225.905 M576.311,213.695c-2.46,0-4.38,1.74-4.74,4.38h8.849
		C580.361,215.255,578.741,213.695,576.311,213.695 M544.331,225.905c-3.99,0-6.84-2.88-6.84-6.96c0-4.08,2.85-6.96,6.84-6.96
		c4.05,0,6.9,2.88,6.9,6.96C551.231,223.025,548.381,225.905,544.331,225.905 M544.331,213.695c-2.94,0-4.98,2.19-4.98,5.25
		c0,3.09,2.04,5.25,4.98,5.25c2.97,0,5.04-2.16,5.04-5.25C549.371,215.885,547.331,213.695,544.331,213.695 M420.194,225.905
		c-3.3,0-6.6-2.43-6.6-6.99c0-4.38,3.18-6.9,6.78-6.9c1.92,0,3.39,0.6,4.74,1.8l-1.05,1.26c-1.08-0.93-2.13-1.35-3.69-1.35
		c-2.76,0-4.92,2.07-4.92,5.19c0,3.18,2.13,5.28,4.89,5.28c1.8,0,2.88-0.57,3.96-1.59l1.02,1.32
		C423.944,225.215,422.504,225.905,420.194,225.905 M398.444,225.905c-4.02,0-6.84-2.88-6.84-6.99c0-3.84,2.76-6.93,6.69-6.93
		c3.69,0,5.88,2.55,5.88,6.42c0,0.42-0.03,0.84-0.09,1.29h-10.62c0.3,2.82,2.46,4.5,4.95,4.5c1.86,0,3.03-0.57,4.05-1.62l1.05,1.32
		C402.164,225.185,400.544,225.905,398.444,225.905 M398.265,213.695c-2.46,0-4.38,1.74-4.74,4.38h8.849
		C402.314,215.255,400.694,213.695,398.265,213.695 M357.825,225.905c-3.99,0-6.84-2.88-6.84-6.96c0-4.08,2.85-6.96,6.84-6.96
		c4.05,0,6.9,2.88,6.9,6.96C364.725,223.025,361.875,225.905,357.825,225.905 M357.825,213.695c-2.94,0-4.98,2.19-4.98,5.25
		c0,3.09,2.04,5.25,4.98,5.25c2.97,0,5.04-2.16,5.04-5.25C362.865,215.885,360.825,213.695,357.825,213.695 M330.945,225.905
		c-4.02,0-6.84-2.88-6.84-6.99c0-3.84,2.76-6.93,6.69-6.93c3.69,0,5.88,2.55,5.88,6.42c0,0.42-0.03,0.84-0.09,1.29h-10.62
		c0.3,2.82,2.46,4.5,4.95,4.5c1.86,0,3.03-0.57,4.05-1.62l1.05,1.32C334.665,225.185,333.045,225.905,330.945,225.905
		 M330.765,213.695c-2.46,0-4.38,1.74-4.74,4.38h8.85C334.815,215.255,333.195,213.695,330.765,213.695 M257.567,225.905
		c-4.02,0-6.84-2.88-6.84-6.99c0-3.84,2.76-6.93,6.689-6.93c3.69,0,5.88,2.55,5.88,6.42c0,0.42-0.03,0.84-0.09,1.29h-10.62
		c0.3,2.82,2.46,4.5,4.95,4.5c1.86,0,3.03-0.57,4.05-1.62l1.05,1.32C261.287,225.185,259.667,225.905,257.567,225.905
		 M257.387,213.695c-2.46,0-4.38,1.74-4.74,4.38h8.85C261.437,215.255,259.817,213.695,257.387,213.695 M190.998,225.905
		c-3.99,0-6.839-2.88-6.839-6.96c0-4.08,2.85-6.96,6.839-6.96c4.05,0,6.9,2.88,6.9,6.96
		C197.898,223.025,195.048,225.905,190.998,225.905 M190.998,213.695c-2.94,0-4.98,2.19-4.98,5.25c0,3.09,2.04,5.25,4.98,5.25
		c2.97,0,5.04-2.16,5.04-5.25C196.038,215.885,193.998,213.695,190.998,213.695 M449.743,225.875c-2.25,0-4.11-0.99-5.22-2.61
		l-0.27,2.31h-1.41v-21.509h1.83v6.9c0,1.26-0.03,2.49-0.06,3.66c1.08-1.62,2.97-2.58,5.13-2.58c3.9,0,6.66,2.91,6.66,6.84
		C456.403,222.935,453.673,225.875,449.743,225.875 M449.623,213.755c-3,0-5.04,2.19-5.04,5.19c0,3,1.98,5.19,5.04,5.19
		c2.94,0,4.95-2.16,4.95-5.19S452.563,213.755,449.623,213.755 M380.985,225.875c-3.93,0-6.66-2.94-6.66-6.99
		c0-3.93,2.76-6.84,6.66-6.84c2.16,0,4.05,0.96,5.13,2.52c-0.03-1.14-0.06-2.34-0.06-3.6v-6.9h1.83v21.509h-1.41l-0.27-2.37
		C385.125,224.855,383.295,225.875,380.985,225.875 M381.105,213.755c-2.94,0-4.95,2.16-4.95,5.19s2.01,5.19,4.95,5.19
		c3.06,0,5.01-2.19,5.01-5.19C386.115,215.945,384.105,213.755,381.105,213.755 M135.049,225.875c-3.93,0-6.66-2.94-6.66-6.99
		c0-3.93,2.76-6.84,6.66-6.84c2.16,0,4.05,0.96,5.13,2.52c-0.03-1.14-0.06-2.34-0.06-3.6v-6.9h1.83v21.509h-1.41l-0.27-2.37
		C139.189,224.855,137.359,225.875,135.049,225.875 M135.169,213.755c-2.94,0-4.95,2.16-4.95,5.19s2.01,5.19,4.95,5.19
		c3.06,0,5.01-2.19,5.01-5.19C140.179,215.945,138.169,213.755,135.169,213.755 M589.54,225.815c-1.86,0-3.42-0.51-4.83-1.47
		l0.93-1.44c1.17,0.84,2.43,1.2,3.9,1.2c1.62,0,2.67-0.81,2.67-2.01c0-1.29-1.47-1.95-3.06-2.58c-2.16-0.84-3.96-1.86-3.96-3.99
		c0-2.22,2.04-3.36,4.29-3.36c1.44,0,2.82,0.42,4.02,1.2l-0.81,1.32c-0.96-0.54-2.04-0.84-3.12-0.84c-1.35,0-2.55,0.45-2.55,1.68
		c0,1.2,1.23,1.8,2.79,2.4c2.4,0.9,4.23,1.95,4.23,4.17C594.04,224.315,592.15,225.815,589.54,225.815 M473.353,225.815
		c-2.58,0-4.23-1.41-4.23-3.69c0-2.97,2.73-4.68,6.63-4.68c0.99,0,1.74,0.03,2.43,0.12v-0.9c0-1.86-1.32-2.79-3.36-2.79
		c-1.44,0-2.91,0.42-4.38,1.11l-0.63-1.56c1.8-0.84,3.51-1.26,5.19-1.26c3.03,0,5.04,1.59,5.04,4.59v8.82h-1.35l-0.33-2.4
		C477.403,224.765,475.693,225.815,473.353,225.815 M476.023,218.975c-3.12,0-4.98,1.08-4.98,3.03c0,1.32,0.96,2.1,2.61,2.1
		c2.73,0,4.44-1.98,4.53-5.01C477.463,219.005,476.893,218.975,476.023,218.975 M431.654,225.815c-2.58,0-4.23-1.41-4.23-3.69
		c0-2.97,2.73-4.68,6.63-4.68c0.99,0,1.74,0.03,2.43,0.12v-0.9c0-1.86-1.32-2.79-3.36-2.79c-1.44,0-2.91,0.42-4.38,1.11l-0.63-1.56
		c1.8-0.84,3.51-1.26,5.19-1.26c3.03,0,5.04,1.59,5.04,4.59v8.82h-1.35l-0.33-2.4C435.704,224.765,433.994,225.815,431.654,225.815
		 M434.324,218.975c-3.12,0-4.98,1.08-4.98,3.03c0,1.32,0.96,2.1,2.61,2.1c2.73,0,4.44-1.98,4.53-5.01
		C435.764,219.005,435.194,218.975,434.324,218.975 M343.995,225.815c-1.86,0-3.42-0.51-4.83-1.47l0.93-1.44
		c1.17,0.84,2.43,1.2,3.9,1.2c1.62,0,2.67-0.81,2.67-2.01c0-1.29-1.47-1.95-3.06-2.58c-2.16-0.84-3.96-1.86-3.96-3.99
		c0-2.22,2.04-3.36,4.29-3.36c1.44,0,2.82,0.42,4.02,1.2l-0.81,1.32c-0.96-0.54-2.04-0.84-3.12-0.84c-1.35,0-2.55,0.45-2.55,1.68
		c0,1.2,1.23,1.8,2.79,2.4c2.4,0.9,4.23,1.95,4.23,4.17C348.495,224.315,346.605,225.815,343.995,225.815 M314.146,225.815
		c-3.3,0-4.83-2.19-4.83-5.43v-8.07h1.83v8.1c0,2.16,0.84,3.69,3.21,3.69c2.64,0,4.2-2.37,4.2-5.19v-6.6h1.83v13.26h-1.41
		l-0.36-2.31C317.835,224.675,316.335,225.815,314.146,225.815 M271.096,225.815c-2.16,0-3.51-1.26-3.51-3.99v-7.89l-2.58-0.12v-1.5
		h2.58v-4.41h1.83v4.41h4.74v1.62h-4.74v7.89c0,1.68,0.69,2.25,1.86,2.25c0.93,0,1.77-0.3,2.61-0.9l0.81,1.38
		C273.707,225.305,272.476,225.815,271.096,225.815 M206.268,225.815c-3.3,0-4.83-2.19-4.83-5.43v-8.07h1.83v8.1
		c0,2.16,0.84,3.69,3.21,3.69c2.64,0,4.2-2.37,4.2-5.19v-6.6h1.83v13.26h-1.41l-0.36-2.31
		C209.957,224.675,208.457,225.815,206.268,225.815 M149.809,225.815c-2.58,0-4.23-1.41-4.23-3.69c0-2.97,2.73-4.68,6.63-4.68
		c0.99,0,1.74,0.03,2.43,0.12v-0.9c0-1.86-1.32-2.79-3.36-2.79c-1.44,0-2.91,0.42-4.38,1.11l-0.63-1.56
		c1.8-0.84,3.51-1.26,5.19-1.26c3.03,0,5.04,1.59,5.04,4.59v8.82h-1.35l-0.33-2.4C153.859,224.765,152.149,225.815,149.809,225.815
		 M152.479,218.975c-3.12,0-4.98,1.08-4.98,3.03c0,1.32,0.96,2.1,2.61,2.1c2.73,0,4.44-1.98,4.53-5.01
		C153.919,219.005,153.349,218.975,152.479,218.975 M118.16,225.815c-2.58,0-4.23-1.41-4.23-3.69c0-2.97,2.73-4.68,6.63-4.68
		c0.99,0,1.74,0.03,2.43,0.12v-0.9c0-1.86-1.32-2.79-3.36-2.79c-1.44,0-2.91,0.42-4.38,1.11l-0.63-1.56
		c1.8-0.84,3.51-1.26,5.19-1.26c3.03,0,5.04,1.59,5.04,4.59v8.82h-1.35l-0.33-2.4C122.209,224.765,120.499,225.815,118.16,225.815
		 M120.829,218.975c-3.12,0-4.98,1.08-4.98,3.03c0,1.32,0.96,2.1,2.61,2.1c2.73,0,4.44-1.98,4.53-5.01
		C122.269,219.005,121.699,218.975,120.829,218.975 M97.25,225.815c-2.58,0-4.23-1.41-4.23-3.69c0-2.97,2.73-4.68,6.63-4.68
		c0.99,0,1.74,0.03,2.43,0.12v-0.9c0-1.86-1.32-2.79-3.36-2.79c-1.44,0-2.91,0.42-4.38,1.11l-0.63-1.56
		c1.8-0.84,3.51-1.26,5.19-1.26c3.03,0,5.04,1.59,5.04,4.59v8.82h-1.35l-0.33-2.4C101.3,224.765,99.59,225.815,97.25,225.815
		 M99.92,218.975c-3.12,0-4.98,1.08-4.98,3.03c0,1.32,0.96,2.1,2.61,2.1c2.73,0,4.44-1.98,4.53-5.01
		C101.36,219.005,100.79,218.975,99.92,218.975 M85.97,225.815c-1.86,0-3.42-0.51-4.83-1.47l0.93-1.44c1.17,0.84,2.43,1.2,3.9,1.2
		c1.62,0,2.67-0.81,2.67-2.01c0-1.29-1.47-1.95-3.06-2.58c-2.16-0.84-3.96-1.86-3.96-3.99c0-2.22,2.04-3.36,4.29-3.36
		c1.44,0,2.82,0.42,4.02,1.2l-0.81,1.32c-0.96-0.54-2.04-0.84-3.12-0.84c-1.35,0-2.55,0.45-2.55,1.68c0,1.2,1.23,1.8,2.79,2.4
		c2.4,0.9,4.23,1.95,4.23,4.17C90.47,224.315,88.58,225.815,85.97,225.815 M566.111,225.575h-1.83v-8.13c0-2.25-0.84-3.69-3.06-3.69
		c-2.67,0-4.44,1.92-4.44,4.68v7.14h-1.83v-13.26h1.38l0.42,2.25c0.78-1.41,2.4-2.52,4.65-2.52c3.09,0,4.71,1.98,4.71,5.43V225.575
		 M533.952,225.575h-1.83v-8.13c0-2.25-0.84-3.69-3.06-3.69c-2.67,0-4.44,1.92-4.44,4.68v7.14h-1.83v-13.26h1.38l0.42,2.25
		c0.78-1.41,2.4-2.52,4.65-2.52c3.09,0,4.71,1.98,4.71,5.43V225.575 M518.112,225.575h-1.83v-13.26h1.83V225.575 M461.953,225.575
		h-1.83v-13.26h1.38l0.36,1.95c0.75-1.38,2.01-2.22,3.87-2.22c0.84,0,1.56,0.18,2.16,0.45l-0.54,1.62
		c-0.51-0.18-1.02-0.33-1.77-0.33c-2.16,0-3.63,1.53-3.63,4.11V225.575 M247.187,225.575h-1.83v-8.4c0-2.13-1.08-3.42-2.94-3.42
		c-2.67,0-4.05,2.43-4.05,4.92v6.9h-1.83v-8.43c0-1.83-0.93-3.39-2.94-3.39c-2.7,0-4.08,2.43-4.08,4.92v6.9h-1.83v-13.26h1.38
		l0.42,2.28c0.87-1.62,2.4-2.55,4.32-2.55c2.01,0,3.48,0.99,4.11,2.67c0.87-1.62,2.4-2.67,4.62-2.67c3.03,0,4.65,2.01,4.65,5.22
		V225.575 M219.018,225.575h-1.83v-13.26h1.38l0.36,1.95c0.75-1.38,2.01-2.22,3.87-2.22c0.84,0,1.56,0.18,2.16,0.45l-0.54,1.62
		c-0.51-0.18-1.02-0.33-1.77-0.33c-2.16,0-3.63,1.53-3.63,4.11V225.575 M110.3,225.575h-1.83l-0.03-21.509h1.83L110.3,225.575
		 M77.69,225.575h-1.83v-8.13c0-2.25-0.84-3.69-3.06-3.69c-2.67,0-4.44,1.92-4.44,4.68v7.14h-1.83v-13.26h1.38l0.42,2.25
		c0.78-1.41,2.4-2.52,4.65-2.52c3.09,0,4.71,1.98,4.71,5.43V225.575 M62.93,225.575H50.481v-20.399H62.66v1.8H52.461v7.26h8.97v1.77
		h-8.97v7.77H62.93V225.575 M525.582,208.985l-1.29-0.72c0.54-1.38,1.26-2.07,2.25-2.07c0.57,0,1.26,0.21,1.98,0.63
		c0.57,0.3,0.96,0.48,1.29,0.48c0.45,0,0.81-0.33,1.08-1.05l1.29,0.72c-0.54,1.35-1.29,1.98-2.25,1.98c-0.51,0-1.11-0.18-1.77-0.54
		c-0.57-0.3-1.05-0.54-1.44-0.54C526.212,207.875,525.852,208.205,525.582,208.985 M517.212,208.835c-0.84,0-1.38-0.6-1.38-1.32
		c0-0.78,0.54-1.38,1.38-1.38s1.38,0.6,1.38,1.38C518.592,208.265,518.022,208.835,517.212,208.835"/>
	<path fill="#9D9D9C" d="M888.641,206.778l-5.496,3l0.984,1.992l2.136-1.056l0.6-0.312c-0.12,0.432-0.192,0.864-0.288,1.32
		l-1.992,11.041h2.808l2.808-15.985z M902.874,206.73h-1.608l-10.729,11.569l-0.24,1.464h7.681l-0.504,3h2.592l0.504-3h1.848
		l0.408-2.28h-1.848z M898.433,217.507h-3.048c-0.408,0-0.816,0-1.344,0.048c0.432-0.384,0.744-0.72,1.056-1.08l3.336-3.648
		c0.36-0.36,0.696-0.72,1.08-1.224c-0.144,0.624-0.24,1.176-0.336,1.68z M905.945,219.739c-0.816,0-1.584,0.504-1.776,1.464
		c-0.024,0.12-0.024,0.24-0.024,0.336c0,0.912,0.648,1.512,1.392,1.512h0.12c-0.36,1.008-1.032,1.776-2.04,2.544l0.576,0.696
		c1.68-1.128,2.808-2.64,3.216-4.296c0.072-0.24,0.096-0.48,0.096-0.696C907.505,220.267,906.809,219.739,905.945,219.739z
		 M917.489,206.586c-3.024,0-5.28,1.92-5.809,4.872c-0.072,0.384-0.096,0.744-0.096,1.08c0,2.592,1.824,4.272,4.128,4.272
		c1.248,0,2.184-0.288,3.192-1.032c-1.176,2.952-3.648,4.776-7.345,4.896l0.168,2.304c6.049-0.096,9.337-3.96,10.369-9.145
		l0.072-0.336c0.12-0.6,0.168-1.176,0.168-1.728C922.337,208.698,920.657,206.586,917.489,206.586z M916.529,214.507
		c-1.44,0-2.232-1.032-2.232-2.328c0-0.192,0.024-0.384,0.048-0.576c0.312-1.656,1.44-2.568,3.024-2.592
		c1.344,0,2.328,0.936,2.328,2.28c0,0.168-0.024,0.336-0.048,0.528C919.385,213.355,918.305,214.507,916.529,214.507z
		 M928.768,223.052c3.864,0,6.265-3.096,7.129-8.041c0.144-0.864,0.216-1.68,0.216-2.424c0-3.696-1.8-5.977-4.728-5.977
		c-3.96,0-6.241,3.072-7.129,8.017c-0.144,0.888-0.24,1.704-0.24,2.472C924.016,220.795,925.792,223.052,928.768,223.052z
		 M928.961,220.603c-1.464,0-2.184-1.368-2.184-3.504c0-0.672,0.072-1.44,0.216-2.256c0.624-3.552,2.16-5.785,4.2-5.785
		c1.464,0,2.16,1.344,2.16,3.456c0,0.696-0.072,1.464-0.216,2.28C932.513,218.347,931.001,220.603,928.961,220.603z"/>
	<path fill="#9D9D9C" d="M946.278,209.401c0.76,0,1.34,0.12,1.9,0.34l1-1.82c-0.88-0.4-1.7-0.62-2.881-0.62
		c-3.461,0-5.941,1.88-6.982,4.741h-1.5l-0.24,1.4h1.36c-0.06,0.36-0.12,0.74-0.14,1.12h-1.42l-0.26,1.4h1.7
		c0.26,2.861,2.24,5.041,5.501,5.041c1.04,0,1.92-0.18,2.801-0.6l-0.44-1.96c-0.64,0.32-1.26,0.46-2.06,0.46
		c-2.12,0-3.181-1.16-3.461-2.941h2.921l0.78-1.4h-3.741c0.02-0.38,0.06-0.76,0.16-1.12h4.161l0.76-1.4h-4.421
		C942.617,210.441,944.177,209.401,946.278,209.401z"/>
	<path fill="#7AC3A5" d="M14.041,249.527l-4.201,2.661l0.94,1.72l1.8-1.04c0.18-0.1,0.32-0.18,0.46-0.28
		c-0.02,0.32-0.04,0.62-0.04,0.92v9.382h2.32v-13.363z M21.481,249.527l-4.201,2.661l0.94,1.72l1.8-1.04
		c0.18-0.1,0.32-0.18,0.46-0.28c-0.02,0.32-0.04,0.62-0.04,0.92v9.382h2.32v-13.363z"/>
	<path fill="#000000" d="M173.898,274.474c-2.58,0-4.47-0.87-6-2.37l1.14-1.29c1.29,1.26,2.79,1.95,4.77,1.95
		c2.7,0,4.8-1.41,4.8-4.35c0-1.02,0-2.01,0.03-3c-1.23,1.59-3.15,2.4-5.1,2.4c-4.08,0-6.66-3.09-6.66-6.87c0-3.81,2.52-6.9,6.57-6.9
		c2.16,0,4.05,0.84,5.22,2.46l0.42-2.19h1.35v14.129C180.438,272.524,177.408,274.474,173.898,274.474 M173.658,255.755
		c-3.12,0-4.92,2.28-4.92,5.16c0,2.94,1.89,5.19,4.89,5.19c3.33,0,5.04-2.37,5.04-5.16S177.018,255.755,173.658,255.755
		 M456.343,274.174h-1.92v-0.06l2.94-6.87l-5.79-12.87v-0.06h1.92l3.81,8.49c0.33,0.78,0.66,1.53,0.96,2.46
		c0.3-0.93,0.6-1.71,0.9-2.46l3.45-8.49h1.89v0.06L456.343,274.174 M294.076,274.174h-1.83v-19.859h1.38l0.39,2.22
		c1.14-1.53,2.94-2.49,5.19-2.49c3.78,0,6.54,2.88,6.54,6.839c0,4.08-2.76,6.99-6.57,6.99c-2.19,0-4.05-0.99-5.16-2.49
		c0.03,1.02,0.06,2.25,0.06,3.57V274.174 M299.056,255.755c-2.97,0-5.07,2.1-5.07,5.13c0,3.15,2.13,5.28,5.07,5.28
		c2.85,0,4.86-2.16,4.86-5.19C303.915,257.915,301.906,255.755,299.056,255.755 M356.175,271.205l-0.6-0.57
		c0.9-0.96,1.44-1.74,1.56-2.79l-0.3,0.03c-0.81,0-1.41-0.54-1.41-1.38c0-0.96,0.72-1.41,1.41-1.41c0.78,0,1.44,0.51,1.44,1.83
		C358.274,268.565,357.494,270.004,356.175,271.205 M278.566,271.205l-0.6-0.57c0.9-0.96,1.44-1.74,1.56-2.79l-0.3,0.03
		c-0.81,0-1.41-0.54-1.41-1.38c0-0.96,0.72-1.41,1.41-1.41c0.78,0,1.44,0.51,1.44,1.83
		C280.666,268.565,279.886,270.004,278.566,271.205 M555.193,267.905c-4.02,0-6.839-2.88-6.839-6.99c0-3.84,2.76-6.93,6.69-6.93
		c3.69,0,5.88,2.55,5.88,6.42c0,0.42-0.03,0.84-0.09,1.29h-10.62c0.3,2.82,2.46,4.5,4.95,4.5c1.86,0,3.03-0.57,4.05-1.62l1.05,1.32
		C558.913,267.185,557.293,267.905,555.193,267.905 M555.013,255.695c-2.46,0-4.38,1.74-4.74,4.38h8.849
		C559.063,257.255,557.443,255.695,555.013,255.695 M490.093,267.905c-3.99,0-6.84-2.88-6.84-6.96c0-4.08,2.85-6.96,6.84-6.96
		c4.05,0,6.9,2.88,6.9,6.96C496.993,265.025,494.143,267.905,490.093,267.905 M490.093,255.695c-2.94,0-4.98,2.19-4.98,5.25
		c0,3.09,2.04,5.25,4.98,5.25c2.97,0,5.04-2.16,5.04-5.25C495.133,257.885,493.093,255.695,490.093,255.695 M420.703,267.905
		c-3.99,0-6.84-2.88-6.84-6.96c0-4.08,2.85-6.96,6.84-6.96c4.05,0,6.9,2.88,6.9,6.96
		C427.603,265.025,424.753,267.905,420.703,267.905 M420.703,255.695c-2.94,0-4.98,2.19-4.98,5.25c0,3.09,2.04,5.25,4.98,5.25
		c2.97,0,5.04-2.16,5.04-5.25C425.743,257.885,423.703,255.695,420.703,255.695 M406.843,267.905c-3.3,0-6.6-2.43-6.6-6.99
		c0-4.38,3.18-6.9,6.78-6.9c1.92,0,3.39,0.6,4.74,1.8l-1.05,1.26c-1.08-0.93-2.13-1.35-3.69-1.35c-2.76,0-4.92,2.07-4.92,5.19
		c0,3.18,2.13,5.28,4.89,5.28c1.8,0,2.88-0.57,3.96-1.59l1.02,1.32C410.593,267.215,409.153,267.905,406.843,267.905
		 M344.954,267.905c-3.99,0-6.84-2.88-6.84-6.96c0-4.08,2.85-6.96,6.84-6.96c4.05,0,6.9,2.88,6.9,6.96
		C351.854,265.025,349.004,267.905,344.954,267.905 M344.954,255.695c-2.94,0-4.98,2.19-4.98,5.25c0,3.09,2.04,5.25,4.98,5.25
		c2.97,0,5.04-2.16,5.04-5.25C349.994,257.885,347.954,255.695,344.954,255.695 M315.376,267.905c-3.99,0-6.84-2.88-6.84-6.96
		c0-4.08,2.85-6.96,6.84-6.96c4.05,0,6.9,2.88,6.9,6.96C322.275,265.025,319.425,267.905,315.376,267.905 M315.376,255.695
		c-2.94,0-4.98,2.19-4.98,5.25c0,3.09,2.04,5.25,4.98,5.25c2.97,0,5.04-2.16,5.04-5.25
		C320.415,257.885,318.375,255.695,315.376,255.695 M257.567,267.905c-4.02,0-6.84-2.88-6.84-6.99c0-3.84,2.76-6.93,6.689-6.93
		c3.69,0,5.88,2.55,5.88,6.42c0,0.42-0.03,0.84-0.09,1.29h-10.62c0.3,2.82,2.46,4.5,4.95,4.5c1.86,0,3.03-0.57,4.05-1.62l1.05,1.32
		C261.287,267.185,259.667,267.905,257.567,267.905 M257.387,255.695c-2.46,0-4.38,1.74-4.74,4.38h8.85
		C261.437,257.255,259.817,255.695,257.387,255.695 M190.998,267.905c-3.99,0-6.839-2.88-6.839-6.96c0-4.08,2.85-6.96,6.839-6.96
		c4.05,0,6.9,2.88,6.9,6.96C197.898,265.025,195.048,267.905,190.998,267.905 M190.998,255.695c-2.94,0-4.98,2.19-4.98,5.25
		c0,3.09,2.04,5.25,4.98,5.25c2.97,0,5.04-2.16,5.04-5.25C196.038,257.885,193.998,255.695,190.998,255.695 M376.754,267.875
		c-2.25,0-4.11-0.99-5.22-2.61l-0.27,2.31h-1.41v-21.509h1.83v6.9c0,1.26-0.03,2.49-0.06,3.66c1.08-1.62,2.97-2.58,5.13-2.58
		c3.9,0,6.66,2.91,6.66,6.839C383.414,264.935,380.684,267.875,376.754,267.875 M376.634,255.755c-3,0-5.04,2.19-5.04,5.19
		c0,3,1.98,5.19,5.04,5.19c2.94,0,4.95-2.16,4.95-5.19S379.574,255.755,376.634,255.755 M135.049,267.875
		c-3.93,0-6.66-2.94-6.66-6.99c0-3.93,2.76-6.839,6.66-6.839c2.16,0,4.05,0.96,5.13,2.52c-0.03-1.14-0.06-2.34-0.06-3.6v-6.9h1.83
		v21.509h-1.41l-0.27-2.37C139.189,266.855,137.359,267.875,135.049,267.875 M135.169,255.755c-2.94,0-4.95,2.16-4.95,5.19
		s2.01,5.19,4.95,5.19c3.06,0,5.01-2.19,5.01-5.19C140.179,257.945,138.169,255.755,135.169,255.755 M543.253,267.815
		c-2.16,0-3.51-1.26-3.51-3.99v-7.89l-2.58-0.12v-1.5h2.58v-4.41h1.83v4.41h4.74v1.62h-4.74v7.89c0,1.68,0.69,2.25,1.86,2.25
		c0.93,0,1.77-0.3,2.61-0.9l0.81,1.38C545.863,267.305,544.633,267.815,543.253,267.815 M527.893,267.815
		c-2.58,0-4.23-1.41-4.23-3.69c0-2.97,2.73-4.68,6.63-4.68c0.99,0,1.74,0.03,2.43,0.12v-0.9c0-1.86-1.32-2.79-3.36-2.79
		c-1.44,0-2.91,0.42-4.38,1.11l-0.63-1.56c1.8-0.84,3.51-1.26,5.19-1.26c3.03,0,5.04,1.59,5.04,4.59v8.819h-1.35l-0.33-2.4
		C531.943,266.765,530.233,267.815,527.893,267.815 M530.563,260.975c-3.12,0-4.98,1.08-4.98,3.03c0,1.32,0.96,2.1,2.61,2.1
		c2.73,0,4.44-1.98,4.53-5.01C532.003,261.005,531.433,260.975,530.563,260.975 M478.153,267.815c-2.16,0-3.51-1.26-3.51-3.99v-7.89
		l-2.58-0.12v-1.5h2.58v-4.41h1.83v4.41h4.74v1.62h-4.74v7.89c0,1.68,0.69,2.25,1.86,2.25c0.93,0,1.77-0.3,2.61-0.9l0.81,1.38
		C480.763,267.305,479.533,267.815,478.153,267.815 M390.014,267.815c-2.58,0-4.23-1.41-4.23-3.69c0-2.97,2.73-4.68,6.63-4.68
		c0.99,0,1.74,0.03,2.43,0.12v-0.9c0-1.86-1.32-2.79-3.36-2.79c-1.44,0-2.91,0.42-4.38,1.11l-0.63-1.56
		c1.8-0.84,3.51-1.26,5.19-1.26c3.03,0,5.04,1.59,5.04,4.59v8.819h-1.35l-0.33-2.4C394.064,266.765,392.354,267.815,390.014,267.815
		 M392.684,260.975c-3.12,0-4.98,1.08-4.98,3.03c0,1.32,0.96,2.1,2.61,2.1c2.73,0,4.44-1.98,4.53-5.01
		C394.124,261.005,393.554,260.975,392.684,260.975 M271.096,267.815c-2.16,0-3.51-1.26-3.51-3.99v-7.89l-2.58-0.12v-1.5h2.58v-4.41
		h1.83v4.41h4.74v1.62h-4.74v7.89c0,1.68,0.69,2.25,1.86,2.25c0.93,0,1.77-0.3,2.61-0.9l0.81,1.38
		C273.707,267.305,272.476,267.815,271.096,267.815 M206.268,267.815c-3.3,0-4.83-2.19-4.83-5.43v-8.069h1.83v8.1
		c0,2.16,0.84,3.69,3.21,3.69c2.64,0,4.2-2.37,4.2-5.19v-6.6h1.83v13.259h-1.41l-0.36-2.31
		C209.957,266.675,208.457,267.815,206.268,267.815 M149.809,267.815c-2.58,0-4.23-1.41-4.23-3.69c0-2.97,2.73-4.68,6.63-4.68
		c0.99,0,1.74,0.03,2.43,0.12v-0.9c0-1.86-1.32-2.79-3.36-2.79c-1.44,0-2.91,0.42-4.38,1.11l-0.63-1.56
		c1.8-0.84,3.51-1.26,5.19-1.26c3.03,0,5.04,1.59,5.04,4.59v8.819h-1.35l-0.33-2.4C153.859,266.765,152.149,267.815,149.809,267.815
		 M152.479,260.975c-3.12,0-4.98,1.08-4.98,3.03c0,1.32,0.96,2.1,2.61,2.1c2.73,0,4.44-1.98,4.53-5.01
		C153.919,261.005,153.349,260.975,152.479,260.975 M118.16,267.815c-2.58,0-4.23-1.41-4.23-3.69c0-2.97,2.73-4.68,6.63-4.68
		c0.99,0,1.74,0.03,2.43,0.12v-0.9c0-1.86-1.32-2.79-3.36-2.79c-1.44,0-2.91,0.42-4.38,1.11l-0.63-1.56
		c1.8-0.84,3.51-1.26,5.19-1.26c3.03,0,5.04,1.59,5.04,4.59v8.819h-1.35l-0.33-2.4C122.209,266.765,120.499,267.815,118.16,267.815
		 M120.829,260.975c-3.12,0-4.98,1.08-4.98,3.03c0,1.32,0.96,2.1,2.61,2.1c2.73,0,4.44-1.98,4.53-5.01
		C122.269,261.005,121.699,260.975,120.829,260.975 M97.25,267.815c-2.58,0-4.23-1.41-4.23-3.69c0-2.97,2.73-4.68,6.63-4.68
		c0.99,0,1.74,0.03,2.43,0.12v-0.9c0-1.86-1.32-2.79-3.36-2.79c-1.44,0-2.91,0.42-4.38,1.11l-0.63-1.56
		c1.8-0.84,3.51-1.26,5.19-1.26c3.03,0,5.04,1.59,5.04,4.59v8.819h-1.35l-0.33-2.4C101.3,266.765,99.59,267.815,97.25,267.815
		 M99.92,260.975c-3.12,0-4.98,1.08-4.98,3.03c0,1.32,0.96,2.1,2.61,2.1c2.73,0,4.44-1.98,4.53-5.01
		C101.36,261.005,100.79,260.975,99.92,260.975 M85.97,267.815c-1.86,0-3.42-0.51-4.83-1.47l0.93-1.44c1.17,0.84,2.43,1.2,3.9,1.2
		c1.62,0,2.67-0.81,2.67-2.01c0-1.29-1.47-1.95-3.06-2.58c-2.16-0.84-3.96-1.86-3.96-3.99c0-2.22,2.04-3.36,4.29-3.36
		c1.44,0,2.82,0.42,4.02,1.2l-0.81,1.32c-0.96-0.54-2.04-0.84-3.12-0.84c-1.35,0-2.55,0.45-2.55,1.68c0,1.2,1.23,1.8,2.79,2.4
		c2.4,0.9,4.23,1.95,4.23,4.17C90.47,266.315,88.58,267.815,85.97,267.815 M520.213,267.575h-1.83v-8.4c0-2.13-1.08-3.42-2.94-3.42
		c-2.67,0-4.05,2.43-4.05,4.92v6.9h-1.83v-8.43c0-1.83-0.93-3.39-2.94-3.39c-2.7,0-4.08,2.43-4.08,4.92v6.9h-1.83v-13.259h1.38
		l0.42,2.28c0.87-1.62,2.4-2.55,4.32-2.55c2.01,0,3.48,0.99,4.11,2.67c0.87-1.62,2.4-2.67,4.62-2.67c3.03,0,4.65,2.01,4.65,5.22
		V267.575 M442.483,267.575h-1.83v-8.13c0-2.25-0.84-3.69-3.06-3.69c-2.67,0-4.44,1.92-4.44,4.68v7.14h-1.83v-13.259h1.38l0.42,2.25
		c0.78-1.41,2.4-2.52,4.65-2.52c3.09,0,4.71,1.98,4.71,5.43V267.575 M334.395,267.575h-1.83l-0.03-21.509h1.83L334.395,267.575
		 M327.855,267.575h-1.83l-0.03-21.509h1.83L327.855,267.575 M247.187,267.575h-1.83v-8.4c0-2.13-1.08-3.42-2.94-3.42
		c-2.67,0-4.05,2.43-4.05,4.92v6.9h-1.83v-8.43c0-1.83-0.93-3.39-2.94-3.39c-2.7,0-4.08,2.43-4.08,4.92v6.9h-1.83v-13.259h1.38
		l0.42,2.28c0.87-1.62,2.4-2.55,4.32-2.55c2.01,0,3.48,0.99,4.11,2.67c0.87-1.62,2.4-2.67,4.62-2.67c3.03,0,4.65,2.01,4.65,5.22
		V267.575 M219.018,267.575h-1.83v-13.259h1.38l0.36,1.95c0.75-1.38,2.01-2.22,3.87-2.22c0.84,0,1.56,0.18,2.16,0.45l-0.54,1.62
		c-0.51-0.18-1.02-0.33-1.77-0.33c-2.16,0-3.63,1.53-3.63,4.11V267.575 M110.3,267.575h-1.83l-0.03-21.509h1.83L110.3,267.575
		 M77.69,267.575h-1.83v-8.13c0-2.25-0.84-3.69-3.06-3.69c-2.67,0-4.44,1.92-4.44,4.68v7.14h-1.83v-13.259h1.38l0.42,2.25
		c0.78-1.41,2.4-2.52,4.65-2.52c3.09,0,4.71,1.98,4.71,5.43V267.575 M62.93,267.575H50.481v-20.399H62.66v1.8H52.461v7.26h8.97v1.77
		h-8.97v7.77H62.93V267.575"/>
	<path fill="#9D9D9C" d="M889.889,248.778l-5.496,3l0.984,1.992l2.136-1.056l0.6-0.312c-0.12,0.432-0.192,0.864-0.288,1.32
		l-1.992,11.041h2.808l2.808-15.985z M897.089,261.379l4.224-4.416c1.128-1.152,1.848-2.328,2.04-3.528
		c0.048-0.312,0.096-0.624,0.096-0.912c0-2.28-1.68-3.912-4.2-3.912c-2.136,0-3.816,0.984-5.328,2.76l1.776,1.68
		c0.984-1.104,2.04-1.896,3.264-1.896c1.104,0,1.704,0.696,1.704,1.608c0,0.864-0.504,1.848-1.464,2.856l-7.609,8.065l-0.192,1.08
		h10.201l0.408-2.424l-4.512,0.024c-0.48,0-0.984,0.024-1.464,0.048C896.393,262.099,896.729,261.739,897.089,261.379z
		 M905.945,261.739c-0.816,0-1.584,0.504-1.776,1.464c-0.024,0.12-0.024,0.24-0.024,0.336c0,0.912,0.648,1.512,1.392,1.512h0.12
		c-0.36,1.008-1.032,1.776-2.04,2.544l0.576,0.696c1.68-1.128,2.808-2.64,3.216-4.296c0.072-0.24,0.096-0.48,0.096-0.696
		C907.505,262.267,906.809,261.739,905.945,261.739z M917.489,248.586c-3.024,0-5.28,1.92-5.809,4.872
		c-0.072,0.384-0.096,0.744-0.096,1.08c0,2.592,1.824,4.272,4.128,4.272c1.248,0,2.184-0.288,3.192-1.032
		c-1.176,2.952-3.648,4.776-7.345,4.896l0.168,2.304c6.049-0.096,9.337-3.96,10.369-9.145l0.072-0.336
		c0.12-0.6,0.168-1.176,0.168-1.728C922.337,250.698,920.657,248.586,917.489,248.586z M916.529,256.507
		c-1.44,0-2.232-1.032-2.232-2.328c0-0.192,0.024-0.384,0.048-0.576c0.312-1.656,1.44-2.568,3.024-2.592
		c1.344,0,2.328,0.936,2.328,2.28c0,0.168-0.024,0.336-0.048,0.528C919.385,255.355,918.305,256.507,916.529,256.507z
		 M928.768,265.052c3.864,0,6.265-3.096,7.129-8.041c0.144-0.864,0.216-1.68,0.216-2.424c0-3.696-1.8-5.977-4.728-5.977
		c-3.96,0-6.241,3.072-7.129,8.017c-0.144,0.888-0.24,1.704-0.24,2.472C924.016,262.796,925.792,265.052,928.768,265.052z
		 M928.961,262.603c-1.464,0-2.184-1.368-2.184-3.504c0-0.672,0.072-1.44,0.216-2.256c0.624-3.552,2.16-5.785,4.2-5.785
		c1.464,0,2.16,1.344,2.16,3.456c0,0.696-0.072,1.464-0.216,2.28C932.513,260.347,931.001,262.603,928.961,262.603z"/>
	<path fill="#9D9D9C" d="M946.278,251.401c0.76,0,1.34,0.12,1.9,0.34l1-1.82c-0.88-0.4-1.7-0.62-2.881-0.62
		c-3.461,0-5.941,1.88-6.982,4.741h-1.5l-0.24,1.4h1.36c-0.06,0.36-0.12,0.74-0.14,1.12h-1.42l-0.26,1.4h1.7
		c0.26,2.861,2.24,5.041,5.501,5.041c1.04,0,1.92-0.18,2.801-0.6l-0.44-1.96c-0.64,0.32-1.26,0.46-2.06,0.46
		c-2.12,0-3.181-1.16-3.461-2.941h2.921l0.78-1.4h-3.741c0.02-0.38,0.06-0.76,0.16-1.12h4.161l0.76-1.4h-4.421
		C942.617,252.441,944.177,251.401,946.278,251.401z"/>
</g>
</svg>
