<!-- Generator: Adobe InDesign 21.0 SVG Export Plug-in, SVG Library version: 9.3 build 128 -->
<!DOCTYPE svg PUBLIC "-//W3C//DTD SVG 1.1//EN" "http://www.w3.org/Graphics/SVG/1.1/DTD/svg11.dtd">
<svg version="1.1" xmlns="http://www.w3.org/2000/svg" xmlns:xlink="http://www.w3.org/1999/xlink" x="0%" y="0%" width="100%"
	 height="100%" viewBox="0 0 974.936 1258.26" preserveAspectRatio="xMidYMid slice" overflow="visible" xml:space="preserve">
<clipPath id="clp_unq_id_1" fill="none">
	<path shape-rendering="crispEdges" stroke="#000000" d="M0,0h974.936v1258.26H0V0"/>
</clipPath>
<g clip-path="url(#clp_unq_id_1)" fill="none">
	<path fill="#7AC3A5" d="M14.921,55.979c-0.36,0-0.86,0-1.32,0.02c0.28-0.3,0.58-0.68,0.8-0.98l2.16-2.901
		c1.34-1.76,1.78-2.681,1.78-3.961c0-2-1.5-3.621-3.901-3.621c-1.82,0-3.161,0.9-4.161,2.421l1.56,1.2
		c0.66-0.9,1.42-1.48,2.421-1.48c1.06,0,1.7,0.72,1.7,1.72c0,0.68-0.32,1.34-1.12,2.441L10.16,57.12V58h8.442v-2.02z"/>
	<path fill="#000000" d="M431.354,69.585l-0.24-1.62c3-0.24,3.63-1.53,3.63-4.38v-14.16h1.83v14.069
		C436.574,67.455,435.434,69.345,431.354,69.585 M557.563,69.285h-1.92v-0.06l2.94-6.87l-5.79-12.87v-0.06h1.92l3.81,8.49
		c0.33,0.78,0.66,1.53,0.96,2.46c0.3-0.93,0.6-1.71,0.9-2.46l3.45-8.49h1.89v0.06L557.563,69.285 M484.573,69.285h-1.83v-5.22
		c0-1.41,0.03-2.67,0.06-3.72c-1.08,1.62-2.94,2.64-5.16,2.64c-3.87,0-6.6-2.91-6.6-6.99c0-3.96,2.76-6.84,6.57-6.84
		c2.25,0,3.99,0.93,5.16,2.55l0.42-2.28h1.38V69.285 M477.763,50.865c-2.85,0-4.86,2.16-4.86,5.22c0,3.03,2.01,5.19,4.86,5.19
		c2.94,0,5.04-2.13,5.04-5.28C482.803,52.965,480.733,50.865,477.763,50.865 M291.496,69.285h-1.83V49.425h1.38l0.39,2.22
		c1.14-1.53,2.94-2.49,5.19-2.49c3.78,0,6.54,2.88,6.54,6.84c0,4.08-2.76,6.99-6.57,6.99c-2.19,0-4.05-0.99-5.16-2.49
		c0.03,1.02,0.06,2.25,0.06,3.57V69.285 M296.476,50.865c-2.97,0-5.07,2.1-5.07,5.13c0,3.15,2.13,5.28,5.07,5.28
		c2.85,0,4.86-2.16,4.86-5.19C301.335,53.025,299.325,50.865,296.476,50.865 M179.358,69.285h-1.83V49.425h1.38l0.39,2.22
		c1.14-1.53,2.94-2.49,5.19-2.49c3.78,0,6.54,2.88,6.54,6.84c0,4.08-2.76,6.99-6.57,6.99c-2.19,0-4.05-0.99-5.16-2.49
		c0.03,1.02,0.06,2.25,0.06,3.57V69.285 M184.338,50.865c-2.97,0-5.07,2.1-5.07,5.13c0,3.15,2.13,5.28,5.07,5.28
		c2.85,0,4.86-2.16,4.86-5.19C189.198,53.025,187.188,50.865,184.338,50.865 M458.323,66.315l-0.6-0.57
		c0.9-0.96,1.44-1.74,1.56-2.79l-0.3,0.03c-0.81,0-1.41-0.54-1.41-1.38c0-0.96,0.72-1.41,1.41-1.41c0.78,0,1.44,0.51,1.44,1.83
		C460.424,63.675,459.644,65.115,458.323,66.315 M275.986,66.315l-0.6-0.57c0.9-0.96,1.44-1.74,1.56-2.79l-0.3,0.03
		c-0.81,0-1.41-0.54-1.41-1.38c0-0.96,0.72-1.41,1.41-1.41c0.78,0,1.44,0.51,1.44,1.83
		C278.086,63.675,277.306,65.115,275.986,66.315 M701.171,63.015c-3.99,0-6.84-2.88-6.84-6.96s2.85-6.96,6.84-6.96
		c4.05,0,6.9,2.88,6.9,6.96S705.221,63.015,701.171,63.015 M701.171,50.805c-2.94,0-4.98,2.19-4.98,5.25c0,3.09,2.04,5.25,4.98,5.25
		c2.97,0,5.04-2.16,5.04-5.25C706.211,52.995,704.171,50.805,701.171,50.805 M640.483,63.015c-3.99,0-6.84-2.88-6.84-6.96
		s2.85-6.96,6.84-6.96c4.05,0,6.9,2.88,6.9,6.96S644.532,63.015,640.483,63.015 M640.483,50.805c-2.94,0-4.98,2.19-4.98,5.25
		c0,3.09,2.04,5.25,4.98,5.25c2.97,0,5.04-2.16,5.04-5.25C645.522,52.995,643.482,50.805,640.483,50.805 M612.043,63.015
		c-4.02,0-6.84-2.88-6.84-6.99c0-3.84,2.76-6.93,6.69-6.93c3.69,0,5.88,2.55,5.88,6.42c0,0.42-0.03,0.84-0.09,1.29h-10.619
		c0.3,2.82,2.46,4.5,4.95,4.5c1.86,0,3.03-0.57,4.05-1.62l1.05,1.32C615.762,62.295,614.142,63.015,612.043,63.015 M611.862,50.805
		c-2.46,0-4.38,1.74-4.74,4.38h8.85C615.912,52.365,614.292,50.805,611.862,50.805 M537.583,63.015c-3.99,0-6.84-2.88-6.84-6.96
		s2.85-6.96,6.84-6.96c4.05,0,6.9,2.88,6.9,6.96S541.633,63.015,537.583,63.015 M537.583,50.805c-2.94,0-4.98,2.19-4.98,5.25
		c0,3.09,2.04,5.25,4.98,5.25c2.97,0,5.04-2.16,5.04-5.25C542.623,52.995,540.582,50.805,537.583,50.805 M510.703,63.015
		c-4.02,0-6.84-2.88-6.84-6.99c0-3.84,2.76-6.93,6.689-6.93c3.69,0,5.88,2.55,5.88,6.42c0,0.42-0.03,0.84-0.09,1.29h-10.62
		c0.3,2.82,2.46,4.5,4.95,4.5c1.86,0,3.03-0.57,4.05-1.62l1.05,1.32C514.423,62.295,512.803,63.015,510.703,63.015 M510.523,50.805
		c-2.46,0-4.38,1.74-4.74,4.38h8.85C514.573,52.365,512.953,50.805,510.523,50.805 M447.103,63.015c-3.99,0-6.84-2.88-6.84-6.96
		s2.85-6.96,6.84-6.96c4.05,0,6.9,2.88,6.9,6.96S451.153,63.015,447.103,63.015 M447.103,50.805c-2.94,0-4.98,2.19-4.98,5.25
		c0,3.09,2.04,5.25,4.98,5.25c2.97,0,5.04-2.16,5.04-5.25C452.143,52.995,450.103,50.805,447.103,50.805 M424.004,63.015
		c-3.99,0-6.84-2.88-6.84-6.96s2.85-6.96,6.84-6.96c4.05,0,6.9,2.88,6.9,6.96S428.054,63.015,424.004,63.015 M424.004,50.805
		c-2.94,0-4.98,2.19-4.98,5.25c0,3.09,2.04,5.25,4.98,5.25c2.97,0,5.04-2.16,5.04-5.25
		C429.044,52.995,427.004,50.805,424.004,50.805 M390.855,63.015c-3.99,0-6.84-2.88-6.84-6.96s2.85-6.96,6.84-6.96
		c4.05,0,6.9,2.88,6.9,6.96S394.905,63.015,390.855,63.015 M390.855,50.805c-2.94,0-4.98,2.19-4.98,5.25c0,3.09,2.04,5.25,4.98,5.25
		c2.97,0,5.04-2.16,5.04-5.25C395.895,52.995,393.855,50.805,390.855,50.805 M349.815,63.015c-4.02,0-6.84-2.88-6.84-6.99
		c0-3.84,2.76-6.93,6.69-6.93c3.69,0,5.88,2.55,5.88,6.42c0,0.42-0.03,0.84-0.09,1.29h-10.619c0.3,2.82,2.46,4.5,4.95,4.5
		c1.86,0,3.03-0.57,4.05-1.62l1.05,1.32C353.535,62.295,351.915,63.015,349.815,63.015 M349.635,50.805c-2.46,0-4.38,1.74-4.74,4.38
		h8.85C353.685,52.365,352.065,50.805,349.635,50.805 M236.987,63.015c-3.3,0-6.6-2.43-6.6-6.99c0-4.38,3.18-6.9,6.78-6.9
		c1.92,0,3.39,0.6,4.74,1.8l-1.05,1.26c-1.08-0.93-2.13-1.35-3.69-1.35c-2.76,0-4.92,2.07-4.92,5.19c0,3.18,2.13,5.28,4.89,5.28
		c1.8,0,2.88-0.57,3.96-1.59l1.02,1.32C240.737,62.325,239.297,63.015,236.987,63.015 M111.11,63.015c-3.99,0-6.84-2.88-6.84-6.96
		s2.85-6.96,6.84-6.96c4.05,0,6.9,2.88,6.9,6.96S115.16,63.015,111.11,63.015 M111.11,50.805c-2.94,0-4.98,2.19-4.98,5.25
		c0,3.09,2.04,5.25,4.98,5.25c2.97,0,5.04-2.16,5.04-5.25C116.15,52.995,114.11,50.805,111.11,50.805 M70.611,63.015
		c-3.99,0-6.84-2.88-6.84-6.96s2.85-6.96,6.84-6.96c4.05,0,6.9,2.88,6.9,6.96S74.66,63.015,70.611,63.015 M70.611,50.805
		c-2.94,0-4.98,2.19-4.98,5.25c0,3.09,2.04,5.25,4.98,5.25c2.97,0,5.04-2.16,5.04-5.25C75.65,52.995,73.611,50.805,70.611,50.805
		 M689.231,62.925c-2.16,0-3.51-1.26-3.51-3.99v-7.89l-2.58-0.12v-1.5h2.58v-4.41h1.83v4.41h4.74v1.62h-4.74v7.89
		c0,1.68,0.69,2.25,1.86,2.25c0.93,0,1.77-0.3,2.61-0.9l0.81,1.38C691.841,62.415,690.611,62.925,689.231,62.925 M595.243,62.925
		c-3.3,0-4.83-2.19-4.83-5.43v-8.07h1.83v8.1c0,2.16,0.84,3.69,3.21,3.69c2.64,0,4.2-2.37,4.2-5.19v-6.6h1.83v13.259h-1.41
		l-0.36-2.31C598.933,61.785,597.433,62.925,595.243,62.925 M523.753,62.925c-1.86,0-3.42-0.51-4.83-1.47l0.93-1.44
		c1.17,0.84,2.43,1.2,3.9,1.2c1.62,0,2.67-0.81,2.67-2.01c0-1.29-1.47-1.95-3.06-2.58c-2.16-0.84-3.96-1.86-3.96-3.99
		c0-2.22,2.04-3.36,4.29-3.36c1.44,0,2.82,0.42,4.02,1.2l-0.81,1.32c-0.96-0.54-2.04-0.84-3.12-0.84c-1.35,0-2.55,0.45-2.55,1.68
		c0,1.2,1.23,1.8,2.79,2.4c2.4,0.9,4.23,1.95,4.23,4.17C528.252,61.425,526.362,62.925,523.753,62.925 M493.903,62.925
		c-3.3,0-4.83-2.19-4.83-5.43v-8.07h1.83v8.1c0,2.16,0.84,3.69,3.21,3.69c2.64,0,4.2-2.37,4.2-5.19v-6.6h1.83v13.259h-1.41
		l-0.36-2.31C497.593,61.785,496.093,62.925,493.903,62.925 M378.915,62.925c-2.16,0-3.51-1.26-3.51-3.99v-7.89l-2.58-0.12v-1.5
		h2.58v-4.41h1.83v4.41h4.74v1.62h-4.74v7.89c0,1.68,0.69,2.25,1.86,2.25c0.93,0,1.77-0.3,2.61-0.9l0.81,1.38
		C381.525,62.415,380.295,62.925,378.915,62.925 M263.986,62.925c-2.58,0-4.23-1.41-4.23-3.69c0-2.97,2.73-4.68,6.63-4.68
		c0.99,0,1.74,0.03,2.43,0.12v-0.9c0-1.86-1.32-2.79-3.36-2.79c-1.44,0-2.91,0.42-4.38,1.11l-0.63-1.56
		c1.8-0.84,3.51-1.26,5.19-1.26c3.03,0,5.04,1.59,5.04,4.59v8.819h-1.35l-0.33-2.4C268.036,61.875,266.326,62.925,263.986,62.925
		 M266.656,56.085c-3.12,0-4.98,1.08-4.98,3.03c0,1.32,0.96,2.1,2.61,2.1c2.73,0,4.44-1.98,4.53-5.01
		C268.096,56.115,267.526,56.085,266.656,56.085 M204.498,62.925c-2.58,0-4.23-1.41-4.23-3.69c0-2.97,2.73-4.68,6.63-4.68
		c0.99,0,1.74,0.03,2.43,0.12v-0.9c0-1.86-1.32-2.79-3.36-2.79c-1.44,0-2.91,0.42-4.38,1.11l-0.63-1.56
		c1.8-0.84,3.51-1.26,5.19-1.26c3.03,0,5.04,1.59,5.04,4.59v8.819h-1.35l-0.33-2.4C208.548,61.875,206.838,62.925,204.498,62.925
		 M207.168,56.085c-3.12,0-4.98,1.08-4.98,3.03c0,1.32,0.96,2.1,2.61,2.1c2.73,0,4.44-1.98,4.53-5.01
		C208.608,56.115,208.038,56.085,207.168,56.085 M159.499,62.925c-2.58,0-4.23-1.41-4.23-3.69c0-2.97,2.73-4.68,6.63-4.68
		c0.99,0,1.74,0.03,2.43,0.12v-0.9c0-1.86-1.32-2.79-3.36-2.79c-1.44,0-2.91,0.42-4.38,1.11l-0.63-1.56
		c1.8-0.84,3.51-1.26,5.19-1.26c3.03,0,5.04,1.59,5.04,4.59v8.819h-1.35l-0.33-2.4C163.549,61.875,161.839,62.925,159.499,62.925
		 M162.169,56.085c-3.12,0-4.98,1.08-4.98,3.03c0,1.32,0.96,2.1,2.61,2.1c2.73,0,4.44-1.98,4.53-5.01
		C163.609,56.115,163.039,56.085,162.169,56.085 M131.75,62.925c-2.58,0-4.23-1.41-4.23-3.69c0-2.97,2.73-4.68,6.63-4.68
		c0.99,0,1.74,0.03,2.43,0.12v-0.9c0-1.86-1.32-2.79-3.36-2.79c-1.44,0-2.91,0.42-4.38,1.11l-0.63-1.56
		c1.8-0.84,3.51-1.26,5.19-1.26c3.03,0,5.04,1.59,5.04,4.59v8.819h-1.35l-0.33-2.4C135.799,61.875,134.089,62.925,131.75,62.925
		 M134.419,56.085c-3.12,0-4.98,1.08-4.98,3.03c0,1.32,0.96,2.1,2.61,2.1c2.73,0,4.44-1.98,4.53-5.01
		C135.859,56.115,135.289,56.085,134.419,56.085 M626.172,62.835h-0.66l-6.21-13.35v-0.06h1.98l3.84,8.49
		c0.27,0.6,0.51,1.2,0.72,1.89c0.21-0.69,0.45-1.29,0.72-1.89l3.81-8.49h1.98v0.06L626.172,62.835 M680.111,62.685h-1.83V49.425
		h1.83V62.685 M669.612,62.685h-1.83V49.425h1.38l0.36,1.95c0.75-1.38,2.01-2.22,3.87-2.22c0.84,0,1.56,0.18,2.16,0.45l-0.54,1.62
		c-0.51-0.18-1.02-0.33-1.77-0.33c-2.16,0-3.63,1.53-3.63,4.11V62.685 M660.732,62.685h-1.83V51.045h-2.76v-1.62h2.76v-3.81
		c0-2.61,1.35-4.8,4.29-4.8c1.41,0,2.4,0.42,3.42,1.17l-0.84,1.32c-0.75-0.51-1.41-0.78-2.37-0.78c-1.62,0-2.67,1.05-2.67,3.09v3.81
		h4.35v1.62h-4.35V62.685 M586.093,62.685h-1.83v-8.16c0-2.22-0.9-3.66-3.12-3.66c-2.82,0-4.38,2.4-4.38,5.28v6.54h-1.83V41.176
		h1.83v8.58c0,0.66,0,1.29-0.03,2.07c0.81-1.56,2.34-2.67,4.59-2.67c3.24,0,4.77,2.04,4.77,5.43V62.685 M410.144,62.685h-1.83
		V49.425h1.38l0.36,1.95c0.75-1.38,2.01-2.22,3.87-2.22c0.84,0,1.56,0.18,2.16,0.45l-0.54,1.62c-0.51-0.18-1.02-0.33-1.77-0.33
		c-2.16,0-3.63,1.53-3.63,4.11V62.685 M370.244,62.685h-1.83v-8.13c0-2.25-0.84-3.69-3.06-3.69c-2.67,0-4.44,1.92-4.44,4.68v7.14
		h-1.83V49.425h1.38l0.42,2.25c0.78-1.41,2.4-2.52,4.65-2.52c3.09,0,4.71,1.98,4.71,5.43V62.685 M339.255,62.685h-1.83V49.425h1.83
		V62.685 M332.925,62.685h-1.83v-8.4c0-2.13-1.08-3.42-2.94-3.42c-2.67,0-4.05,2.43-4.05,4.92v6.9h-1.83v-8.43
		c0-1.83-0.93-3.39-2.94-3.39c-2.7,0-4.08,2.43-4.08,4.92v6.9h-1.83V49.425h1.38l0.42,2.28c0.87-1.62,2.4-2.55,4.32-2.55
		c2.01,0,3.48,0.99,4.11,2.67c0.87-1.62,2.4-2.67,4.62-2.67c3.03,0,4.65,2.01,4.65,5.22V62.685 M308.746,62.685h-1.83V49.425h1.83
		V62.685 M256.307,62.685h-1.83v-8.16c0-2.22-0.9-3.66-3.12-3.66c-2.82,0-4.38,2.4-4.38,5.28v6.54h-1.83V41.176h1.83v8.58
		c0,0.66,0,1.29-0.03,2.07c0.81-1.56,2.34-2.67,4.59-2.67c3.24,0,4.77,2.04,4.77,5.43V62.685 M226.847,62.685h-1.83v-8.13
		c0-2.25-0.84-3.69-3.06-3.69c-2.67,0-4.44,1.92-4.44,4.68v7.14h-1.83V49.425h1.38l0.42,2.25c0.78-1.41,2.4-2.52,4.65-2.52
		c3.09,0,4.71,1.98,4.71,5.43V62.685 M196.638,62.685h-1.83l-0.03-21.509h1.83L196.638,62.685 M151.639,62.685h-1.83l-0.03-21.509
		h1.83L151.639,62.685 M100.73,62.685H98.9v-8.4c0-2.13-1.08-3.42-2.94-3.42c-2.67,0-4.05,2.43-4.05,4.92v6.9h-1.83v-8.43
		c0-1.83-0.93-3.39-2.94-3.39c-2.7,0-4.08,2.43-4.08,4.92v6.9h-1.83V49.425h1.38l0.42,2.28c0.87-1.62,2.4-2.55,4.32-2.55
		c2.01,0,3.48,0.99,4.11,2.67c0.87-1.62,2.4-2.67,4.62-2.67c3.03,0,4.65,2.01,4.65,5.22V62.685 M62.3,62.685H50.481V42.286h1.98
		v18.599H62.3V62.685 M679.211,45.945c-0.84,0-1.38-0.6-1.38-1.32c0-0.78,0.54-1.38,1.38-1.38c0.84,0,1.38,0.6,1.38,1.38
		C680.591,45.376,680.022,45.945,679.211,45.945 M435.644,45.945c-0.81,0-1.35-0.6-1.35-1.32c0-0.78,0.54-1.38,1.35-1.38
		c0.87,0,1.38,0.6,1.38,1.41C437.024,45.376,436.454,45.945,435.644,45.945 M338.355,45.945c-0.84,0-1.38-0.6-1.38-1.32
		c0-0.78,0.54-1.38,1.38-1.38s1.38,0.6,1.38,1.38C339.735,45.376,339.165,45.945,338.355,45.945 M307.846,45.945
		c-0.84,0-1.38-0.6-1.38-1.32c0-0.78,0.54-1.38,1.38-1.38s1.38,0.6,1.38,1.38C309.226,45.376,308.656,45.945,307.846,45.945"/>
	<path fill="#9D9D9C" d="M890.993,43.888l-5.496,3l0.984,1.992l2.136-1.056l0.6-0.312c-0.12,0.432-0.192,0.864-0.288,1.32
		l-1.992,11.041h2.808l2.808-15.985z M904.601,46.433l0.432-2.424h-7.993l-2.352,8.113l0.408,0.312
		c0.888-0.312,1.8-0.504,2.736-0.504c1.776,0,3.048,0.792,3.048,2.328c0,0.192,0,0.384-0.048,0.6
		c-0.336,1.848-1.872,2.784-3.672,2.784c-1.44,0-2.472-0.528-3.048-1.392l-1.68,1.848c0.984,1.272,2.688,2.088,4.8,2.088
		c3.288,0,5.833-1.896,6.337-4.92c0.072-0.432,0.12-0.816,0.12-1.2c0-2.736-1.944-4.2-4.848-4.2c-0.384,0-0.72,0.024-1.032,0.048
		l1.056-3.48z M907.072,56.85c-0.816,0-1.584,0.504-1.776,1.464c-0.024,0.12-0.024,0.24-0.024,0.336
		c0,0.912,0.648,1.512,1.392,1.512h0.12c-0.36,1.008-1.032,1.776-2.04,2.544l0.576,0.696c1.68-1.128,2.808-2.64,3.216-4.296
		c0.072-0.24,0.096-0.48,0.096-0.696C908.633,57.378,907.937,56.85,907.072,56.85z M916.385,56.49l4.224-4.416
		c1.128-1.152,1.848-2.328,2.04-3.528c0.048-0.312,0.096-0.624,0.096-0.912c0-2.28-1.68-3.912-4.2-3.912
		c-2.136,0-3.816,0.984-5.328,2.76l1.776,1.68c0.984-1.104,2.04-1.896,3.264-1.896c1.104,0,1.704,0.696,1.704,1.608
		c0,0.864-0.504,1.848-1.464,2.856l-7.609,8.065l-0.192,1.08h10.201l0.408-2.424l-4.512,0.024c-0.48,0-0.984,0.024-1.464,0.048
		C915.689,57.21,916.025,56.85,916.385,56.49z M928.768,60.162c3.864,0,6.265-3.096,7.129-8.041c0.144-0.864,0.216-1.68,0.216-2.424
		c0-3.696-1.8-5.977-4.728-5.977c-3.96,0-6.241,3.072-7.129,8.017c-0.144,0.888-0.24,1.704-0.24,2.472
		C924.016,57.906,925.792,60.162,928.768,60.162z M928.961,57.714c-1.464,0-2.184-1.368-2.184-3.504c0-0.672,0.072-1.44,0.216-2.256
		c0.624-3.552,2.16-5.785,4.2-5.785c1.464,0,2.16,1.344,2.16,3.456c0,0.696-0.072,1.464-0.216,2.28
		C932.513,55.457,931.001,57.714,928.961,57.714z"/>
	<path fill="#9D9D9C" d="M946.278,46.511c0.76,0,1.34,0.12,1.9,0.34l1-1.82c-0.88-0.4-1.7-0.62-2.881-0.62
		c-3.461,0-5.941,1.88-6.982,4.741h-1.5l-0.24,1.4h1.36c-0.06,0.36-0.12,0.74-0.14,1.12h-1.42l-0.26,1.4h1.7
		c0.26,2.861,2.24,5.041,5.501,5.041c1.04,0,1.92-0.18,2.801-0.6l-0.44-1.96c-0.64,0.32-1.26,0.46-2.06,0.46
		c-2.12,0-3.181-1.16-3.461-2.941h2.921l0.78-1.4h-3.741c0.02-0.38,0.06-0.76,0.16-1.12h4.161l0.76-1.4h-4.421
		C942.617,47.552,944.177,46.511,946.278,46.511z"/>
	<path fill="#7AC3A5" d="M14.441,99.87c2.961,0,4.921-1.66,4.921-3.941c0-1.4-0.74-2.761-2.461-3.341c1.2-0.62,1.86-1.8,1.86-2.961
		c0-1.96-1.66-3.461-4.121-3.461c-1.72,0-3.061,0.64-4.261,1.98l1.3,1.28c0.74-0.74,1.58-1.24,2.721-1.24
		c1.26,0,2.06,0.74,2.06,1.72c0,0.94-0.74,1.88-2.381,1.88h-1.44v1.92h1.7c1.28,0,2.681,0.46,2.681,2c0,1.22-1.04,2.1-2.701,2.1
		c-1.22,0-2.14-0.52-2.921-1.34l-1.34,1.4C11.16,99.11,12.701,99.87,14.441,99.87z"/>
	<path fill="#000000" d="M618.585,111.215c-2.58,0-4.47-0.87-6-2.37l1.14-1.29c1.29,1.26,2.79,1.95,4.77,1.95
		c2.7,0,4.8-1.41,4.8-4.35c0-1.02,0-2.01,0.03-3c-1.23,1.59-3.15,2.4-5.1,2.4c-4.08,0-6.66-3.09-6.66-6.87c0-3.81,2.52-6.9,6.57-6.9
		c2.16,0,4.05,0.84,5.22,2.46l0.42-2.19h1.35v14.129C625.124,109.265,622.095,111.215,618.585,111.215 M618.345,92.495
		c-3.12,0-4.92,2.28-4.92,5.16c0,2.94,1.89,5.19,4.89,5.19c3.33,0,5.04-2.37,5.04-5.16S621.704,92.495,618.345,92.495
		 M133.22,111.215c-2.58,0-4.47-0.87-6-2.37l1.14-1.29c1.29,1.26,2.79,1.95,4.77,1.95c2.7,0,4.8-1.41,4.8-4.35c0-1.02,0-2.01,0.03-3
		c-1.23,1.59-3.15,2.4-5.1,2.4c-4.08,0-6.66-3.09-6.66-6.87c0-3.81,2.52-6.9,6.569-6.9c2.16,0,4.05,0.84,5.22,2.46l0.42-2.19h1.35
		v14.129C139.76,109.265,136.73,111.215,133.22,111.215 M132.98,92.495c-3.12,0-4.92,2.28-4.92,5.16c0,2.94,1.89,5.19,4.89,5.19
		c3.33,0,5.04-2.37,5.04-5.16S136.34,92.495,132.98,92.495 M528.436,110.914h-1.92v-0.06l2.94-6.87l-5.79-12.87v-0.06h1.92
		l3.81,8.49c0.33,0.78,0.66,1.53,0.96,2.46c0.3-0.93,0.6-1.71,0.9-2.46l3.45-8.49h1.89v0.06L528.436,110.914 M427.966,110.914h-1.83
		V91.055h1.38l0.39,2.22c1.14-1.53,2.94-2.49,5.19-2.49c3.78,0,6.54,2.88,6.54,6.839c0,4.08-2.76,6.99-6.57,6.99
		c-2.19,0-4.05-0.99-5.16-2.49c0.03,1.02,0.06,2.25,0.06,3.57V110.914 M432.946,92.495c-2.97,0-5.07,2.1-5.07,5.13
		c0,3.15,2.13,5.28,5.07,5.28c2.85,0,4.86-2.16,4.86-5.19C437.806,94.655,435.796,92.495,432.946,92.495 M348.226,110.914h-1.83
		v-5.22c0-1.41,0.03-2.67,0.06-3.72c-1.08,1.62-2.94,2.64-5.16,2.64c-3.87,0-6.6-2.91-6.6-6.99c0-3.96,2.76-6.839,6.57-6.839
		c2.25,0,3.99,0.93,5.16,2.55l0.42-2.28h1.38V110.914 M341.417,92.495c-2.85,0-4.86,2.16-4.86,5.22c0,3.03,2.01,5.19,4.86,5.19
		c2.94,0,5.04-2.13,5.04-5.28C346.457,94.595,344.387,92.495,341.417,92.495 M218.509,110.914h-1.83V91.055h1.38l0.39,2.22
		c1.14-1.53,2.94-2.49,5.19-2.49c3.78,0,6.54,2.88,6.54,6.839c0,4.08-2.76,6.99-6.57,6.99c-2.19,0-4.05-0.99-5.16-2.49
		c0.03,1.02,0.06,2.25,0.06,3.57V110.914 M223.488,92.495c-2.97,0-5.07,2.1-5.07,5.13c0,3.15,2.13,5.28,5.07,5.28
		c2.85,0,4.86-2.16,4.86-5.19C228.348,94.655,226.338,92.495,223.488,92.495 M412.457,107.945l-0.6-0.57
		c0.9-0.96,1.44-1.74,1.56-2.79l-0.3,0.03c-0.81,0-1.41-0.54-1.41-1.38c0-0.96,0.72-1.41,1.41-1.41c0.78,0,1.44,0.51,1.44,1.83
		C414.557,105.305,413.777,106.745,412.457,107.945 M321.977,107.945l-0.6-0.57c0.9-0.96,1.44-1.74,1.56-2.79l-0.3,0.03
		c-0.81,0-1.41-0.54-1.41-1.38c0-0.96,0.72-1.41,1.41-1.41c0.78,0,1.44,0.51,1.44,1.83
		C324.077,105.305,323.297,106.745,321.977,107.945 M573.135,104.645c-3.3,0-6.6-2.43-6.6-6.99c0-4.38,3.18-6.9,6.78-6.9
		c1.92,0,3.39,0.6,4.74,1.8l-1.05,1.26c-1.08-0.93-2.13-1.35-3.69-1.35c-2.76,0-4.92,2.07-4.92,5.19c0,3.18,2.13,5.28,4.89,5.28
		c1.8,0,2.88-0.57,3.96-1.59l1.02,1.32C576.885,103.955,575.445,104.645,573.135,104.645 M558.225,104.645
		c-4.02,0-6.84-2.88-6.84-6.99c0-3.84,2.76-6.93,6.69-6.93c3.69,0,5.88,2.55,5.88,6.42c0,0.42-0.03,0.84-0.09,1.29h-10.62
		c0.3,2.82,2.46,4.5,4.95,4.5c1.86,0,3.03-0.57,4.05-1.62l1.05,1.32C561.945,103.925,560.326,104.645,558.225,104.645
		 M558.046,92.435c-2.46,0-4.38,1.74-4.74,4.38h8.85C562.095,93.995,560.475,92.435,558.046,92.435 M401.236,104.645
		c-3.99,0-6.84-2.88-6.84-6.96c0-4.08,2.85-6.96,6.84-6.96c4.05,0,6.9,2.88,6.9,6.96
		C408.136,101.765,405.286,104.645,401.236,104.645 M401.236,92.435c-2.94,0-4.98,2.19-4.98,5.25c0,3.09,2.04,5.25,4.98,5.25
		c2.97,0,5.04-2.16,5.04-5.25C406.276,94.625,404.236,92.435,401.236,92.435 M374.357,104.645c-4.02,0-6.84-2.88-6.84-6.99
		c0-3.84,2.76-6.93,6.689-6.93c3.69,0,5.88,2.55,5.88,6.42c0,0.42-0.03,0.84-0.09,1.29h-10.62c0.3,2.82,2.46,4.5,4.95,4.5
		c1.86,0,3.03-0.57,4.05-1.62l1.05,1.32C378.076,103.925,376.456,104.645,374.357,104.645 M374.176,92.435
		c-2.46,0-4.38,1.74-4.74,4.38h8.85C378.226,93.995,376.606,92.435,374.176,92.435 M183.409,104.645c-4.02,0-6.84-2.88-6.84-6.99
		c0-3.84,2.76-6.93,6.69-6.93c3.69,0,5.88,2.55,5.88,6.42c0,0.42-0.03,0.84-0.09,1.29h-10.62c0.3,2.82,2.46,4.5,4.95,4.5
		c1.86,0,3.03-0.57,4.05-1.62l1.05,1.32C187.129,103.925,185.509,104.645,183.409,104.645 M183.229,92.435
		c-2.46,0-4.38,1.74-4.74,4.38h8.849C187.279,93.995,185.659,92.435,183.229,92.435 M87.771,104.645c-3.3,0-6.6-2.43-6.6-6.99
		c0-4.38,3.18-6.9,6.78-6.9c1.92,0,3.39,0.6,4.74,1.8l-1.05,1.26c-1.08-0.93-2.13-1.35-3.69-1.35c-2.76,0-4.92,2.07-4.92,5.19
		c0,3.18,2.13,5.28,4.89,5.28c1.8,0,2.88-0.57,3.96-1.59l1.02,1.32C91.521,103.955,90.081,104.645,87.771,104.645 M72.861,104.645
		c-4.02,0-6.839-2.88-6.839-6.99c0-3.84,2.76-6.93,6.689-6.93c3.69,0,5.88,2.55,5.88,6.42c0,0.42-0.03,0.84-0.09,1.29h-10.62
		c0.3,2.82,2.46,4.5,4.95,4.5c1.86,0,3.03-0.57,4.05-1.62l1.05,1.32C76.581,103.925,74.961,104.645,72.861,104.645 M72.681,92.435
		c-2.46,0-4.38,1.74-4.74,4.38h8.849C76.731,93.995,75.111,92.435,72.681,92.435 M283.727,104.615c-3.93,0-6.66-2.94-6.66-6.99
		c0-3.93,2.76-6.839,6.66-6.839c2.16,0,4.05,0.96,5.13,2.52c-0.03-1.14-0.06-2.34-0.06-3.6v-6.9h1.83v21.509h-1.41l-0.27-2.37
		C287.867,103.595,286.037,104.615,283.727,104.615 M283.847,92.495c-2.94,0-4.95,2.16-4.95,5.19c0,3.03,2.01,5.19,4.95,5.19
		c3.06,0,5.01-2.19,5.01-5.19C288.857,94.685,286.847,92.495,283.847,92.495 M632.984,104.555c-2.58,0-4.23-1.41-4.23-3.69
		c0-2.97,2.73-4.68,6.63-4.68c0.99,0,1.74,0.03,2.43,0.12v-0.9c0-1.86-1.32-2.79-3.36-2.79c-1.44,0-2.91,0.42-4.38,1.11l-0.63-1.56
		c1.8-0.84,3.51-1.26,5.19-1.26c3.03,0,5.04,1.59,5.04,4.59v8.819h-1.35l-0.33-2.4C637.034,103.505,635.324,104.555,632.984,104.555
		 M635.654,97.715c-3.12,0-4.98,1.08-4.98,3.03c0,1.32,0.96,2.1,2.61,2.1c2.73,0,4.44-1.98,4.53-5.01
		C637.094,97.745,636.524,97.715,635.654,97.715 M601.605,104.555c-3.3,0-4.83-2.19-4.83-5.43v-8.069h1.83v8.1
		c0,2.16,0.84,3.69,3.21,3.69c2.64,0,4.2-2.37,4.2-5.19v-6.6h1.83v13.259h-1.41l-0.36-2.31
		C605.294,103.415,603.794,104.555,601.605,104.555 M510.975,104.555c-1.86,0-3.42-0.51-4.83-1.47l0.93-1.44
		c1.17,0.84,2.43,1.2,3.9,1.2c1.62,0,2.67-0.81,2.67-2.01c0-1.29-1.47-1.95-3.06-2.58c-2.16-0.84-3.96-1.86-3.96-3.99
		c0-2.22,2.04-3.36,4.29-3.36c1.44,0,2.82,0.42,4.02,1.2l-0.81,1.32c-0.96-0.54-2.04-0.84-3.12-0.84c-1.35,0-2.55,0.45-2.55,1.68
		c0,1.2,1.23,1.8,2.79,2.4c2.4,0.9,4.23,1.95,4.23,4.17C515.475,103.055,513.585,104.555,510.975,104.555 M496.006,104.555
		c-2.58,0-4.23-1.41-4.23-3.69c0-2.97,2.73-4.68,6.63-4.68c0.99,0,1.74,0.03,2.43,0.12v-0.9c0-1.86-1.32-2.79-3.36-2.79
		c-1.44,0-2.91,0.42-4.38,1.11l-0.63-1.56c1.8-0.84,3.51-1.26,5.189-1.26c3.03,0,5.04,1.59,5.04,4.59v8.819h-1.35l-0.33-2.4
		C500.056,103.505,498.346,104.555,496.006,104.555 M498.676,97.715c-3.12,0-4.98,1.08-4.98,3.03c0,1.32,0.96,2.1,2.61,2.1
		c2.73,0,4.44-1.98,4.53-5.01C500.116,97.745,499.546,97.715,498.676,97.715 M486.496,104.555c-2.16,0-3.51-1.26-3.51-3.99v-7.89
		l-2.58-0.12v-1.5h2.58v-4.41h1.83v4.41h4.74v1.62h-4.74v7.89c0,1.68,0.69,2.25,1.86,2.25c0.93,0,1.77-0.3,2.61-0.9l0.81,1.38
		C489.106,104.045,487.876,104.555,486.496,104.555 M471.136,104.555c-2.58,0-4.23-1.41-4.23-3.69c0-2.97,2.73-4.68,6.63-4.68
		c0.99,0,1.74,0.03,2.43,0.12v-0.9c0-1.86-1.32-2.79-3.36-2.79c-1.44,0-2.91,0.42-4.38,1.11l-0.63-1.56
		c1.8-0.84,3.51-1.26,5.19-1.26c3.03,0,5.04,1.59,5.04,4.59v8.819h-1.35l-0.33-2.4C475.186,103.505,473.476,104.555,471.136,104.555
		 M473.806,97.715c-3.12,0-4.98,1.08-4.98,3.03c0,1.32,0.96,2.1,2.61,2.1c2.73,0,4.44-1.98,4.53-5.01
		C475.246,97.745,474.676,97.715,473.806,97.715 M461.626,104.555c-2.16,0-3.51-1.26-3.51-3.99v-7.89l-2.58-0.12v-1.5h2.58v-4.41
		h1.83v4.41h4.74v1.62h-4.74v7.89c0,1.68,0.69,2.25,1.86,2.25c0.93,0,1.77-0.3,2.61-0.9l0.81,1.38
		C464.236,104.045,463.006,104.555,461.626,104.555 M446.266,104.555c-2.58,0-4.23-1.41-4.23-3.69c0-2.97,2.73-4.68,6.63-4.68
		c0.99,0,1.74,0.03,2.43,0.12v-0.9c0-1.86-1.32-2.79-3.36-2.79c-1.44,0-2.91,0.42-4.38,1.11l-0.63-1.56
		c1.8-0.84,3.51-1.26,5.19-1.26c3.03,0,5.04,1.59,5.04,4.59v8.819h-1.35l-0.33-2.4C450.316,103.505,448.606,104.555,446.266,104.555
		 M448.936,97.715c-3.12,0-4.98,1.08-4.98,3.03c0,1.32,0.96,2.1,2.61,2.1c2.73,0,4.44-1.98,4.53-5.01
		C450.376,97.745,449.806,97.715,448.936,97.715 M387.406,104.555c-1.86,0-3.42-0.51-4.83-1.47l0.93-1.44
		c1.17,0.84,2.43,1.2,3.9,1.2c1.62,0,2.67-0.81,2.67-2.01c0-1.29-1.47-1.95-3.06-2.58c-2.16-0.84-3.96-1.86-3.96-3.99
		c0-2.22,2.04-3.36,4.29-3.36c1.44,0,2.82,0.42,4.02,1.2l-0.81,1.32c-0.96-0.54-2.04-0.84-3.12-0.84c-1.35,0-2.55,0.45-2.55,1.68
		c0,1.2,1.23,1.8,2.79,2.4c2.4,0.9,4.23,1.95,4.23,4.17C391.906,103.055,390.016,104.555,387.406,104.555 M357.557,104.555
		c-3.3,0-4.83-2.19-4.83-5.43v-8.069h1.83v8.1c0,2.16,0.84,3.69,3.21,3.69c2.64,0,4.2-2.37,4.2-5.19v-6.6h1.83v13.259h-1.41
		l-0.36-2.31C361.247,103.415,359.747,104.555,357.557,104.555 M313.457,104.555c-1.86,0-3.42-0.51-4.83-1.47l0.93-1.44
		c1.17,0.84,2.43,1.2,3.9,1.2c1.62,0,2.67-0.81,2.67-2.01c0-1.29-1.47-1.95-3.06-2.58c-2.16-0.84-3.96-1.86-3.96-3.99
		c0-2.22,2.04-3.36,4.29-3.36c1.44,0,2.82,0.42,4.02,1.2l-0.81,1.32c-0.96-0.54-2.04-0.84-3.12-0.84c-1.35,0-2.55,0.45-2.55,1.68
		c0,1.2,1.23,1.8,2.79,2.4c2.4,0.9,4.23,1.95,4.23,4.17C317.957,103.055,316.067,104.555,313.457,104.555 M298.487,104.555
		c-2.58,0-4.23-1.41-4.23-3.69c0-2.97,2.73-4.68,6.63-4.68c0.99,0,1.74,0.03,2.43,0.12v-0.9c0-1.86-1.32-2.79-3.36-2.79
		c-1.44,0-2.91,0.42-4.38,1.11l-0.63-1.56c1.8-0.84,3.51-1.26,5.19-1.26c3.03,0,5.04,1.59,5.04,4.59v8.819h-1.35l-0.33-2.4
		C302.537,103.505,300.827,104.555,298.487,104.555 M301.157,97.715c-3.12,0-4.98,1.08-4.98,3.03c0,1.32,0.96,2.1,2.61,2.1
		c2.73,0,4.44-1.98,4.53-5.01C302.597,97.745,302.027,97.715,301.157,97.715 M266.838,104.555c-2.58,0-4.23-1.41-4.23-3.69
		c0-2.97,2.73-4.68,6.63-4.68c0.99,0,1.74,0.03,2.43,0.12v-0.9c0-1.86-1.32-2.79-3.36-2.79c-1.44,0-2.91,0.42-4.38,1.11l-0.63-1.56
		c1.8-0.84,3.51-1.26,5.19-1.26c3.03,0,5.04,1.59,5.04,4.59v8.819h-1.35l-0.33-2.4C270.888,103.505,269.178,104.555,266.838,104.555
		 M269.508,97.715c-3.12,0-4.98,1.08-4.98,3.03c0,1.32,0.96,2.1,2.61,2.1c2.73,0,4.44-1.98,4.53-5.01
		C270.948,97.745,270.378,97.715,269.508,97.715 M236.809,104.555c-2.58,0-4.23-1.41-4.23-3.69c0-2.97,2.73-4.68,6.63-4.68
		c0.99,0,1.74,0.03,2.43,0.12v-0.9c0-1.86-1.32-2.79-3.36-2.79c-1.44,0-2.91,0.42-4.38,1.11l-0.63-1.56
		c1.8-0.84,3.51-1.26,5.19-1.26c3.03,0,5.04,1.59,5.04,4.59v8.819h-1.35l-0.33-2.4C240.859,103.505,239.148,104.555,236.809,104.555
		 M239.479,97.715c-3.12,0-4.98,1.08-4.98,3.03c0,1.32,0.96,2.1,2.61,2.1c2.73,0,4.44-1.98,4.53-5.01
		C240.918,97.745,240.349,97.715,239.479,97.715 M162.589,104.555c-1.86,0-3.42-0.51-4.83-1.47l0.93-1.44
		c1.17,0.84,2.43,1.2,3.9,1.2c1.62,0,2.67-0.81,2.67-2.01c0-1.29-1.47-1.95-3.06-2.58c-2.16-0.84-3.96-1.86-3.96-3.99
		c0-2.22,2.04-3.36,4.29-3.36c1.44,0,2.82,0.42,4.02,1.2l-0.81,1.32c-0.96-0.54-2.04-0.84-3.12-0.84c-1.35,0-2.55,0.45-2.55,1.68
		c0,1.2,1.23,1.8,2.79,2.4c2.4,0.9,4.23,1.95,4.23,4.17C167.089,103.055,165.199,104.555,162.589,104.555 M147.62,104.555
		c-2.58,0-4.23-1.41-4.23-3.69c0-2.97,2.73-4.68,6.63-4.68c0.99,0,1.74,0.03,2.43,0.12v-0.9c0-1.86-1.32-2.79-3.36-2.79
		c-1.44,0-2.91,0.42-4.38,1.11l-0.63-1.56c1.8-0.84,3.51-1.26,5.19-1.26c3.03,0,5.04,1.59,5.04,4.59v8.819h-1.35l-0.33-2.4
		C151.67,103.505,149.96,104.555,147.62,104.555 M150.29,97.715c-3.12,0-4.98,1.08-4.98,3.03c0,1.32,0.96,2.1,2.61,2.1
		c2.73,0,4.44-1.98,4.53-5.01C151.73,97.745,151.16,97.715,150.29,97.715 M116.24,104.555c-3.3,0-4.83-2.19-4.83-5.43v-8.069h1.83
		v8.1c0,2.16,0.84,3.69,3.21,3.69c2.64,0,4.2-2.37,4.2-5.19v-6.6h1.83v13.259h-1.41l-0.36-2.31
		C119.93,103.415,118.43,104.555,116.24,104.555 M592.455,104.315h-1.83v-8.16c0-2.22-0.9-3.66-3.12-3.66
		c-2.82,0-4.38,2.4-4.38,5.28v6.54h-1.83V82.806h1.83v8.579c0,0.66,0,1.29-0.03,2.07c0.81-1.56,2.34-2.67,4.59-2.67
		c3.24,0,4.77,2.04,4.77,5.43V104.315 M547.666,104.315h-1.83l-0.03-21.509h1.83L547.666,104.315 M259.158,104.315h-1.83v-8.13
		c0-2.25-0.84-3.69-3.06-3.69c-2.67,0-4.44,1.92-4.44,4.68v7.14h-1.83V91.055h1.38l0.42,2.25c0.78-1.41,2.4-2.52,4.65-2.52
		c3.09,0,4.71,1.98,4.71,5.43V104.315 M212.178,104.315h-1.83v-8.4c0-2.13-1.08-3.42-2.94-3.42c-2.67,0-4.05,2.43-4.05,4.92v6.9
		h-1.83v-8.43c0-1.83-0.93-3.39-2.94-3.39c-2.7,0-4.08,2.43-4.08,4.92v6.9h-1.83V91.055h1.38l0.42,2.28
		c0.87-1.62,2.4-2.55,4.32-2.55c2.01,0,3.48,0.99,4.11,2.67c0.87-1.62,2.4-2.67,4.62-2.67c3.03,0,4.65,2.01,4.65,5.22V104.315
		 M107.09,104.315h-1.83v-8.16c0-2.22-0.9-3.66-3.12-3.66c-2.82,0-4.38,2.4-4.38,5.28v6.54h-1.83V82.806h1.83v8.579
		c0,0.66,0,1.29-0.03,2.07c0.81-1.56,2.34-2.67,4.59-2.67c3.24,0,4.77,2.04,4.77,5.43V104.315 M52.461,104.315h-1.98V83.916h7.53
		c4.26,0,6.42,3.33,6.42,6.21c0,2.85-2.04,6-6.54,6h-5.43V104.315 M52.461,85.716v8.609h5.4c3.12,0,4.59-2.1,4.59-4.23
		c0-2.34-1.77-4.38-4.47-4.38H52.461"/>
	<path fill="#9D9D9C" d="M888.809,85.518l-5.496,3l0.984,1.992l2.136-1.056l0.6-0.312c-0.12,0.432-0.192,0.864-0.288,1.32
		l-1.992,11.041h2.808l2.808-15.985z M898.313,91.615c-1.224,0-2.232,0.36-3.264,1.176c1.2-3.072,3.696-5.064,7.393-4.992
		l-0.168-2.448c-6.145,0.168-9.337,4.032-10.345,9.169l-0.072,0.336c-0.12,0.624-0.168,1.2-0.168,1.776
		c0,3.048,1.608,5.16,4.848,5.16c3,0,5.28-1.968,5.833-5.016c0.072-0.36,0.096-0.696,0.096-1.008
		C902.466,93.247,900.714,91.615,898.313,91.615z M899.705,96.703c-0.288,1.656-1.488,2.64-3.048,2.64
		c-1.392,0-2.328-0.888-2.328-2.28c0-0.168,0.024-0.36,0.048-0.552c0.264-1.488,1.344-2.568,3.096-2.616
		c1.512,0,2.28,0.936,2.28,2.232C899.753,96.319,899.729,96.511,899.705,96.703z M905.945,98.48c-0.816,0-1.584,0.504-1.776,1.464
		c-0.024,0.12-0.024,0.24-0.024,0.336c0,0.912,0.648,1.512,1.392,1.512h0.12c-0.36,1.008-1.032,1.776-2.04,2.544l0.576,0.696
		c1.68-1.128,2.808-2.64,3.216-4.296c0.072-0.24,0.096-0.48,0.096-0.696C907.505,99.008,906.809,98.48,905.945,98.48z
		 M917.489,85.326c-3.024,0-5.28,1.92-5.809,4.872c-0.072,0.384-0.096,0.744-0.096,1.08c0,2.592,1.824,4.272,4.128,4.272
		c1.248,0,2.184-0.288,3.192-1.032c-1.176,2.952-3.648,4.776-7.345,4.896l0.168,2.304c6.049-0.096,9.337-3.96,10.369-9.145
		l0.072-0.336c0.12-0.6,0.168-1.176,0.168-1.728C922.337,87.439,920.657,85.326,917.489,85.326z M916.529,93.247
		c-1.44,0-2.232-1.032-2.232-2.328c0-0.192,0.024-0.384,0.048-0.576c0.312-1.656,1.44-2.568,3.024-2.592
		c1.344,0,2.328,0.936,2.328,2.28c0,0.168-0.024,0.336-0.048,0.528C919.385,92.095,918.305,93.247,916.529,93.247z M928.768,101.792
		c3.864,0,6.265-3.096,7.129-8.041c0.144-0.864,0.216-1.68,0.216-2.424c0-3.696-1.8-5.977-4.728-5.977
		c-3.96,0-6.241,3.072-7.129,8.017c-0.144,0.888-0.24,1.704-0.24,2.472C924.016,99.536,925.792,101.792,928.768,101.792z
		 M928.961,99.344c-1.464,0-2.184-1.368-2.184-3.504c0-0.672,0.072-1.44,0.216-2.256c0.624-3.552,2.16-5.785,4.2-5.785
		c1.464,0,2.16,1.344,2.16,3.456c0,0.696-0.072,1.464-0.216,2.28C932.513,97.087,931.001,99.344,928.961,99.344z"/>
	<path fill="#9D9D9C" d="M946.278,88.141c0.76,0,1.34,0.12,1.9,0.34l1-1.82c-0.88-0.4-1.7-0.62-2.881-0.62
		c-3.461,0-5.941,1.88-6.982,4.741h-1.5l-0.24,1.4h1.36c-0.06,0.36-0.12,0.74-0.14,1.12h-1.42l-0.26,1.4h1.7
		c0.26,2.861,2.24,5.041,5.501,5.041c1.04,0,1.92-0.18,2.801-0.6l-0.44-1.96c-0.64,0.32-1.26,0.46-2.06,0.46
		c-2.12,0-3.181-1.16-3.461-2.941h2.921l0.78-1.4h-3.741c0.02-0.38,0.06-0.76,0.16-1.12h4.161l0.76-1.4h-4.421
		C942.617,89.182,944.177,88.141,946.278,88.141z"/>
	<path fill="#7AC3A5" d="M18.282,134.859v-8.962h-1.3l-7.122,9.642v1.22h6.261v2.501h2.16v-2.501h1.5v-1.9z M16.181,134.859h-2.22
		c-0.46,0-0.9,0-1.36,0.02c0.26-0.32,0.5-0.64,0.76-0.98l2.04-2.801c0.28-0.36,0.54-0.74,0.84-1.22c-0.06,0.6-0.06,1.06-0.06,1.66z"
		/>
	<path fill="#000000" d="M417.526,150.844c-2.58,0-4.47-0.87-6-2.37l1.14-1.29c1.29,1.26,2.79,1.95,4.77,1.95
		c2.7,0,4.8-1.41,4.8-4.35c0-1.02,0-2.01,0.03-3c-1.23,1.59-3.15,2.4-5.1,2.4c-4.08,0-6.66-3.09-6.66-6.87c0-3.81,2.52-6.9,6.57-6.9
		c2.16,0,4.05,0.84,5.22,2.46l0.42-2.19h1.35v14.129C424.065,148.895,421.035,150.844,417.526,150.844 M417.286,132.125
		c-3.12,0-4.92,2.28-4.92,5.16c0,2.94,1.89,5.19,4.89,5.19c3.33,0,5.04-2.37,5.04-5.16S420.645,132.125,417.286,132.125
		 M452.475,150.545h-1.92v-0.06l2.94-6.87l-5.79-12.869v-0.06h1.92l3.81,8.49c0.33,0.78,0.66,1.53,0.96,2.46
		c0.3-0.93,0.6-1.71,0.9-2.46l3.45-8.49h1.89v0.06L452.475,150.545 M143.12,150.545h-1.83v-19.859h1.38l0.39,2.22
		c1.14-1.53,2.94-2.49,5.19-2.49c3.78,0,6.54,2.88,6.54,6.84c0,4.08-2.76,6.99-6.57,6.99c-2.19,0-4.05-0.99-5.16-2.49
		c0.03,1.02,0.06,2.25,0.06,3.57V150.545 M148.099,132.125c-2.97,0-5.07,2.1-5.07,5.13c0,3.15,2.13,5.28,5.07,5.28
		c2.85,0,4.86-2.16,4.86-5.189C152.959,134.285,150.949,132.125,148.099,132.125 M331.068,147.574l-0.6-0.57
		c0.9-0.96,1.44-1.74,1.56-2.79l-0.3,0.03c-0.81,0-1.41-0.54-1.41-1.38c0-0.96,0.72-1.41,1.41-1.41c0.78,0,1.44,0.51,1.44,1.83
		C333.168,144.935,332.387,146.375,331.068,147.574 M127.61,147.574l-0.6-0.57c0.9-0.96,1.44-1.74,1.56-2.79l-0.3,0.03
		c-0.81,0-1.41-0.54-1.41-1.38c0-0.96,0.72-1.41,1.41-1.41c0.78,0,1.44,0.51,1.44,1.83
		C129.71,144.935,128.93,146.375,127.61,147.574 M596.084,144.275c-3.99,0-6.84-2.88-6.84-6.96c0-4.08,2.85-6.96,6.84-6.96
		c4.05,0,6.9,2.88,6.9,6.96C602.984,141.395,600.134,144.275,596.084,144.275 M596.084,132.065c-2.94,0-4.98,2.19-4.98,5.25
		c0,3.09,2.04,5.25,4.98,5.25c2.97,0,5.04-2.16,5.04-5.25C601.124,134.255,599.084,132.065,596.084,132.065 M535.395,144.275
		c-3.99,0-6.84-2.88-6.84-6.96c0-4.08,2.85-6.96,6.84-6.96c4.05,0,6.9,2.88,6.9,6.96
		C542.295,141.395,539.445,144.275,535.395,144.275 M535.395,132.065c-2.94,0-4.98,2.19-4.98,5.25c0,3.09,2.04,5.25,4.98,5.25
		c2.97,0,5.04-2.16,5.04-5.25C540.435,134.255,538.395,132.065,535.395,132.065 M506.955,144.275c-4.02,0-6.84-2.88-6.84-6.99
		c0-3.84,2.76-6.93,6.69-6.93c3.69,0,5.88,2.55,5.88,6.42c0,0.42-0.03,0.84-0.09,1.29h-10.619c0.3,2.82,2.46,4.5,4.95,4.5
		c1.86,0,3.03-0.57,4.05-1.62l1.05,1.32C510.675,143.555,509.055,144.275,506.955,144.275 M506.775,132.065
		c-2.46,0-4.38,1.74-4.74,4.38h8.85C510.825,133.625,509.205,132.065,506.775,132.065 M372.076,144.275c-3.3,0-6.6-2.43-6.6-6.99
		c0-4.38,3.18-6.9,6.78-6.9c1.92,0,3.39,0.6,4.74,1.8l-1.05,1.26c-1.08-0.93-2.13-1.35-3.69-1.35c-2.76,0-4.92,2.07-4.92,5.19
		c0,3.18,2.13,5.28,4.89,5.28c1.8,0,2.88-0.57,3.96-1.59l1.02,1.32C375.826,143.585,374.386,144.275,372.076,144.275
		 M357.167,144.275c-4.02,0-6.84-2.88-6.84-6.99c0-3.84,2.76-6.93,6.69-6.93c3.69,0,5.88,2.55,5.88,6.42c0,0.42-0.03,0.84-0.09,1.29
		h-10.62c0.3,2.82,2.46,4.5,4.95,4.5c1.86,0,3.03-0.57,4.05-1.62l1.05,1.32C360.886,143.555,359.267,144.275,357.167,144.275
		 M356.987,132.065c-2.46,0-4.38,1.74-4.74,4.38h8.85C361.037,133.625,359.417,132.065,356.987,132.065 M320.988,144.275
		c-4.02,0-6.84-2.88-6.84-6.99c0-3.84,2.76-6.93,6.689-6.93c3.69,0,5.88,2.55,5.88,6.42c0,0.42-0.03,0.84-0.09,1.29h-10.62
		c0.3,2.82,2.46,4.5,4.95,4.5c1.86,0,3.03-0.57,4.05-1.62l1.05,1.32C324.708,143.555,323.088,144.275,320.988,144.275
		 M320.808,132.065c-2.46,0-4.38,1.74-4.74,4.38h8.85C324.857,133.625,323.237,132.065,320.808,132.065 M278.808,144.275
		c-4.02,0-6.84-2.88-6.84-6.99c0-3.84,2.76-6.93,6.69-6.93c3.69,0,5.88,2.55,5.88,6.42c0,0.42-0.03,0.84-0.09,1.29h-10.619
		c0.3,2.82,2.46,4.5,4.95,4.5c1.86,0,3.03-0.57,4.05-1.62l1.05,1.32C282.528,143.555,280.908,144.275,278.808,144.275
		 M278.628,132.065c-2.46,0-4.38,1.74-4.74,4.38h8.85C282.678,133.625,281.058,132.065,278.628,132.065 M242.479,144.275
		c-3.99,0-6.84-2.88-6.84-6.96c0-4.08,2.85-6.96,6.84-6.96c4.05,0,6.9,2.88,6.9,6.96
		C249.378,141.395,246.528,144.275,242.479,144.275 M242.479,132.065c-2.94,0-4.98,2.19-4.98,5.25c0,3.09,2.04,5.25,4.98,5.25
		c2.97,0,5.04-2.16,5.04-5.25C247.518,134.255,245.478,132.065,242.479,132.065 M201.438,144.275c-4.02,0-6.84-2.88-6.84-6.99
		c0-3.84,2.76-6.93,6.69-6.93c3.69,0,5.88,2.55,5.88,6.42c0,0.42-0.03,0.84-0.09,1.29h-10.62c0.3,2.82,2.46,4.5,4.95,4.5
		c1.86,0,3.03-0.57,4.05-1.62l1.05,1.32C205.159,143.555,203.539,144.275,201.438,144.275 M201.259,132.065
		c-2.46,0-4.38,1.74-4.74,4.38h8.85C205.308,133.625,203.688,132.065,201.259,132.065 M118.31,144.275c-3.3,0-6.6-2.43-6.6-6.99
		c0-4.38,3.18-6.9,6.78-6.9c1.92,0,3.39,0.6,4.74,1.8l-1.05,1.26c-1.08-0.93-2.13-1.35-3.69-1.35c-2.76,0-4.92,2.07-4.92,5.19
		c0,3.18,2.13,5.28,4.89,5.28c1.8,0,2.88-0.57,3.96-1.59l1.02,1.32C122.06,143.585,120.62,144.275,118.31,144.275 M103.401,144.275
		c-4.02,0-6.84-2.88-6.84-6.99c0-3.84,2.76-6.93,6.69-6.93c3.69,0,5.88,2.55,5.88,6.42c0,0.42-0.03,0.84-0.09,1.29h-10.62
		c0.3,2.82,2.46,4.5,4.95,4.5c1.86,0,3.03-0.57,4.05-1.62l1.05,1.32C107.121,143.555,105.501,144.275,103.401,144.275
		 M103.221,132.065c-2.46,0-4.38,1.74-4.74,4.38h8.85C107.271,133.625,105.651,132.065,103.221,132.065 M303.528,144.245
		c-3.93,0-6.66-2.94-6.66-6.99c0-3.93,2.76-6.84,6.66-6.84c2.16,0,4.05,0.96,5.13,2.52c-0.03-1.14-0.06-2.34-0.06-3.6v-6.9h1.83
		v21.509h-1.41l-0.27-2.37C307.668,143.225,305.838,144.245,303.528,144.245 M303.648,132.125c-2.94,0-4.95,2.16-4.95,5.19
		s2.01,5.19,4.95,5.19c3.06,0,5.01-2.19,5.01-5.19C308.658,134.315,306.648,132.125,303.648,132.125 M584.144,144.185
		c-2.16,0-3.51-1.26-3.51-3.99v-7.89l-2.58-0.12v-1.5h2.58v-4.41h1.83v4.41h4.74v1.62h-4.74v7.89c0,1.68,0.69,2.25,1.86,2.25
		c0.93,0,1.77-0.3,2.61-0.9l0.81,1.38C586.754,143.675,585.524,144.185,584.144,144.185 M490.155,144.185
		c-3.3,0-4.83-2.19-4.83-5.43v-8.07h1.83v8.1c0,2.16,0.84,3.69,3.21,3.69c2.64,0,4.2-2.37,4.2-5.19v-6.6h1.83v13.26h-1.41
		l-0.36-2.31C493.845,143.045,492.345,144.185,490.155,144.185 M431.925,144.185c-2.58,0-4.23-1.41-4.23-3.69
		c0-2.97,2.73-4.68,6.63-4.68c0.99,0,1.74,0.03,2.43,0.12v-0.9c0-1.86-1.32-2.79-3.36-2.79c-1.44,0-2.91,0.42-4.38,1.11l-0.63-1.56
		c1.8-0.84,3.51-1.26,5.19-1.26c3.03,0,5.04,1.59,5.04,4.59v8.82h-1.35l-0.33-2.4C435.975,143.135,434.265,144.185,431.925,144.185
		 M434.595,137.345c-3.12,0-4.98,1.08-4.98,3.03c0,1.32,0.96,2.1,2.61,2.1c2.73,0,4.44-1.98,4.53-5.01
		C436.035,137.375,435.465,137.345,434.595,137.345 M400.546,144.185c-3.3,0-4.83-2.19-4.83-5.43v-8.07h1.83v8.1
		c0,2.16,0.84,3.69,3.21,3.69c2.64,0,4.2-2.37,4.2-5.19v-6.6h1.83v13.26h-1.41l-0.36-2.31
		C404.236,143.045,402.736,144.185,400.546,144.185 M230.538,144.185c-2.16,0-3.51-1.26-3.51-3.99v-7.89l-2.58-0.12v-1.5h2.58v-4.41
		h1.83v4.41h4.74v1.62h-4.74v7.89c0,1.68,0.69,2.25,1.86,2.25c0.93,0,1.77-0.3,2.61-0.9l0.81,1.38
		C233.148,143.675,231.918,144.185,230.538,144.185 M91.461,144.185c-2.16,0-3.51-1.26-3.51-3.99v-7.89l-2.58-0.12v-1.5h2.58v-4.41
		h1.83v4.41h4.74v1.62h-4.74v7.89c0,1.68,0.69,2.25,1.86,2.25c0.93,0,1.77-0.3,2.61-0.9l0.81,1.38
		C94.071,143.675,92.84,144.185,91.461,144.185 M79.101,144.185c-1.86,0-3.42-0.51-4.83-1.47l0.93-1.44c1.17,0.84,2.43,1.2,3.9,1.2
		c1.62,0,2.67-0.81,2.67-2.01c0-1.29-1.47-1.95-3.06-2.58c-2.16-0.84-3.96-1.86-3.96-3.99c0-2.22,2.04-3.36,4.29-3.36
		c1.44,0,2.82,0.42,4.02,1.2l-0.81,1.32c-0.96-0.54-2.04-0.84-3.12-0.84c-1.35,0-2.55,0.45-2.55,1.68c0,1.2,1.23,1.8,2.79,2.4
		c2.4,0.9,4.23,1.95,4.23,4.17C83.601,142.685,81.711,144.185,79.101,144.185 M521.085,144.095h-0.66l-6.21-13.349v-0.06h1.98
		l3.84,8.49c0.27,0.6,0.51,1.2,0.72,1.89c0.21-0.69,0.45-1.29,0.72-1.89l3.81-8.49h1.98v0.06L521.085,144.095 M264.498,144.095
		h-0.66l-6.21-13.349v-0.06h1.98l3.84,8.49c0.27,0.6,0.51,1.2,0.72,1.89c0.21-0.69,0.45-1.29,0.72-1.89l3.81-8.49h1.98v0.06
		L264.498,144.095 M575.024,143.945h-1.83v-13.26h1.83V143.945 M564.524,143.945h-1.83v-13.26h1.38l0.36,1.95
		c0.75-1.38,2.01-2.22,3.87-2.22c0.84,0,1.56,0.18,2.16,0.45l-0.54,1.62c-0.51-0.18-1.02-0.33-1.77-0.33
		c-2.16,0-3.63,1.53-3.63,4.11V143.945 M555.645,143.945h-1.83v-11.64h-2.76v-1.62h2.76v-3.81c0-2.61,1.35-4.8,4.29-4.8
		c1.41,0,2.4,0.42,3.42,1.17l-0.84,1.32c-0.75-0.51-1.41-0.78-2.37-0.78c-1.62,0-2.67,1.05-2.67,3.09v3.81h4.35v1.62h-4.35V143.945
		 M481.005,143.945h-1.83v-8.16c0-2.22-0.9-3.66-3.12-3.66c-2.82,0-4.38,2.4-4.38,5.28v6.54h-1.83v-21.509h1.83v8.58
		c0,0.66,0,1.29-0.03,2.07c0.81-1.56,2.34-2.67,4.59-2.67c3.24,0,4.77,2.04,4.77,5.43V143.945 M391.396,143.945h-1.83v-8.16
		c0-2.22-0.9-3.66-3.12-3.66c-2.82,0-4.38,2.4-4.38,5.28v6.54h-1.83v-21.509h1.83v8.58c0,0.66,0,1.29-0.03,2.07
		c0.81-1.56,2.34-2.67,4.59-2.67c3.24,0,4.77,2.04,4.77,5.43V143.945 M346.607,143.945h-1.83l-0.03-21.509h1.83L346.607,143.945
		 M289.908,143.945h-1.83v-13.26h1.38l0.36,1.95c0.75-1.38,2.01-2.22,3.87-2.22c0.84,0,1.56,0.18,2.16,0.45l-0.54,1.62
		c-0.51-0.18-1.02-0.33-1.77-0.33c-2.16,0-3.63,1.53-3.63,4.11V143.945 M221.868,143.945h-1.83v-8.13c0-2.25-0.84-3.69-3.06-3.69
		c-2.67,0-4.44,1.92-4.44,4.68v7.14h-1.83v-13.26h1.38l0.42,2.25c0.78-1.41,2.4-2.52,4.65-2.52c3.09,0,4.71,1.98,4.71,5.43V143.945
		 M190.879,143.945h-1.83v-13.26h1.83V143.945 M184.549,143.945h-1.83v-8.4c0-2.13-1.08-3.42-2.94-3.42c-2.67,0-4.05,2.43-4.05,4.92
		v6.9h-1.83v-8.43c0-1.83-0.93-3.39-2.94-3.39c-2.7,0-4.08,2.43-4.08,4.92v6.9h-1.83v-13.26h1.38l0.42,2.28
		c0.87-1.62,2.4-2.55,4.32-2.55c2.01,0,3.48,0.99,4.11,2.67c0.87-1.62,2.4-2.67,4.62-2.67c3.03,0,4.65,2.01,4.65,5.22V143.945
		 M160.369,143.945h-1.83v-13.26h1.83V143.945 M70.641,143.945h-1.83v-13.26h1.83V143.945 M58.641,143.945h-8.16v-20.399h7.62
		c3.24,0,5.82,2.16,5.82,5.28c0,1.95-0.99,3.45-2.46,4.32c2.04,0.87,3.39,2.85,3.39,5.13
		C64.85,141.635,62.211,143.945,58.641,143.945 M52.461,134.225v7.92h6.09c2.49,0,4.32-1.53,4.32-3.99c0-2.34-1.74-3.93-4.17-3.93
		H52.461 M52.461,125.345v7.08h5.58c2.43,0,3.93-1.29,3.93-3.6c0-2.16-1.74-3.48-3.99-3.48H52.461 M574.124,127.206
		c-0.84,0-1.38-0.6-1.38-1.32c0-0.78,0.54-1.38,1.38-1.38s1.38,0.6,1.38,1.38C575.504,126.635,574.934,127.206,574.124,127.206
		 M189.979,127.206c-0.84,0-1.38-0.6-1.38-1.32c0-0.78,0.54-1.38,1.38-1.38c0.84,0,1.38,0.6,1.38,1.38
		C191.359,126.635,190.789,127.206,189.979,127.206 M159.47,127.206c-0.84,0-1.38-0.6-1.38-1.32c0-0.78,0.54-1.38,1.38-1.38
		c0.84,0,1.38,0.6,1.38,1.38C160.849,126.635,160.279,127.206,159.47,127.206 M69.741,127.206c-0.84,0-1.38-0.6-1.38-1.32
		c0-0.78,0.54-1.38,1.38-1.38c0.84,0,1.38,0.6,1.38,1.38C71.121,126.635,70.551,127.206,69.741,127.206"/>
	<path fill="#9D9D9C" d="M887.321,125.148l-5.496,3l0.984,1.992l2.136-1.056l0.6-0.312c-0.12,0.432-0.192,0.864-0.288,1.32
		l-1.992,11.041h2.808l2.808-15.985z M894.881,141.398c3.504,0,5.881-1.608,6.385-4.44c0.048-0.288,0.072-0.576,0.072-0.84
		c0-1.608-0.888-2.808-2.112-3.384c1.488-0.624,2.976-2.04,2.976-4.2c0-2.088-1.728-3.576-4.512-3.576
		c-3.12,0-5.424,1.656-5.881,4.224c-0.048,0.216-0.048,0.456-0.048,0.648c0,1.344,0.72,2.448,1.752,2.904
		c-1.824,0.552-3.216,2.112-3.552,3.96c-0.048,0.288-0.072,0.576-0.072,0.864C889.889,139.934,891.809,141.398,894.881,141.398z
		 M896.585,131.605c-1.368,0-2.184-0.672-2.184-1.752c0-1.584,1.2-2.592,2.88-2.592c1.368,0,2.184,0.672,2.184,1.704
		C899.466,130.501,898.241,131.605,896.585,131.605z M895.289,138.974c-1.512,0-2.544-0.648-2.544-1.968
		c0-0.168,0.024-0.312,0.048-0.48c0.264-1.536,1.584-2.64,3.312-2.64c1.608,0,2.472,0.816,2.472,2.064
		C898.578,137.869,897.089,138.974,895.289,138.974z M905.225,138.109c-0.816,0-1.584,0.504-1.776,1.464
		c-0.024,0.12-0.024,0.24-0.024,0.336c0,0.912,0.648,1.512,1.392,1.512h0.12c-0.36,1.008-1.032,1.776-2.04,2.544l0.576,0.696
		c1.68-1.128,2.808-2.64,3.216-4.296c0.072-0.24,0.096-0.48,0.096-0.696C906.785,138.638,906.089,138.109,905.225,138.109z
		 M914.897,141.398c3.504,0,5.881-1.608,6.385-4.44c0.048-0.288,0.072-0.576,0.072-0.84c0-1.608-0.888-2.808-2.112-3.384
		c1.488-0.624,2.976-2.04,2.976-4.2c0-2.088-1.728-3.576-4.512-3.576c-3.12,0-5.424,1.656-5.881,4.224
		c-0.048,0.216-0.048,0.456-0.048,0.648c0,1.344,0.72,2.448,1.752,2.904c-1.824,0.552-3.216,2.112-3.552,3.96
		c-0.048,0.288-0.072,0.576-0.072,0.864C909.904,139.934,911.825,141.398,914.897,141.398z M916.601,131.605
		c-1.368,0-2.184-0.672-2.184-1.752c0-1.584,1.2-2.592,2.88-2.592c1.368,0,2.184,0.672,2.184,1.704
		C919.481,130.501,918.257,131.605,916.601,131.605z M915.305,138.974c-1.512,0-2.544-0.648-2.544-1.968
		c0-0.168,0.024-0.312,0.048-0.48c0.264-1.536,1.584-2.64,3.312-2.64c1.608,0,2.472,0.816,2.472,2.064
		C918.593,137.869,917.105,138.974,915.305,138.974z M928.768,141.422c3.864,0,6.265-3.096,7.129-8.041
		c0.144-0.864,0.216-1.68,0.216-2.424c0-3.696-1.8-5.977-4.728-5.977c-3.96,0-6.241,3.072-7.129,8.017
		c-0.144,0.888-0.24,1.704-0.24,2.472C924.016,139.166,925.792,141.422,928.768,141.422z M928.961,138.974
		c-1.464,0-2.184-1.368-2.184-3.504c0-0.672,0.072-1.44,0.216-2.256c0.624-3.552,2.16-5.785,4.2-5.785
		c1.464,0,2.16,1.344,2.16,3.456c0,0.696-0.072,1.464-0.216,2.28C932.513,136.717,931.001,138.974,928.961,138.974z"/>
	<path fill="#9D9D9C" d="M946.278,127.771c0.76,0,1.34,0.12,1.9,0.34l1-1.82c-0.88-0.4-1.7-0.62-2.881-0.62
		c-3.461,0-5.941,1.88-6.982,4.741h-1.5l-0.24,1.4h1.36c-0.06,0.36-0.12,0.74-0.14,1.12h-1.42l-0.26,1.4h1.7
		c0.26,2.861,2.24,5.041,5.501,5.041c1.04,0,1.92-0.18,2.801-0.6l-0.44-1.96c-0.64,0.32-1.26,0.46-2.06,0.46
		c-2.12,0-3.181-1.16-3.461-2.941h2.921l0.78-1.4h-3.741c0.02-0.38,0.06-0.76,0.16-1.12h4.161l0.76-1.4h-4.421
		C942.617,128.812,944.177,127.771,946.278,127.771z"/>
	<path fill="#7AC3A5" d="M14.161,170.548c-0.34,0-0.66,0.02-1.02,0.06l0.38-2.921h4.741v-2.02H11.64l-0.78,6.761l0.36,0.24
		c0.6-0.22,1.32-0.36,2.16-0.36c1.64,0,2.981,0.66,2.981,2.361c0,1.44-1.02,2.361-2.561,2.361c-1.18,0-2.12-0.48-2.741-1.2
		l-1.18,1.62c1,1.08,2.361,1.7,4.021,1.7c2.841,0,4.821-1.8,4.821-4.421C18.722,172.088,16.842,170.548,14.161,170.548z"/>
	<path fill="#000000" d="M268.607,190.474c-2.58,0-4.47-0.87-6-2.37l1.14-1.29c1.29,1.26,2.79,1.95,4.77,1.95
		c2.7,0,4.8-1.41,4.8-4.35c0-1.02,0-2.01,0.03-3c-1.23,1.59-3.15,2.4-5.1,2.4c-4.08,0-6.66-3.09-6.66-6.87
		c0-3.81,2.52-6.9,6.569-6.9c2.16,0,4.05,0.84,5.22,2.46l0.42-2.19h1.35v14.13C275.147,188.524,272.117,190.474,268.607,190.474
		 M268.367,171.755c-3.12,0-4.92,2.28-4.92,5.16c0,2.94,1.89,5.19,4.89,5.19c3.33,0,5.04-2.37,5.04-5.16
		S271.727,171.755,268.367,171.755 M408.796,190.174h-1.92v-0.06l2.94-6.87l-5.79-12.869v-0.06h1.92l3.81,8.49
		c0.33,0.78,0.66,1.53,0.96,2.46c0.3-0.93,0.6-1.71,0.9-2.46l3.45-8.49h1.89v0.06L408.796,190.174 M295.006,187.205l-0.6-0.57
		c0.9-0.96,1.44-1.74,1.56-2.79l-0.3,0.03c-0.81,0-1.41-0.54-1.41-1.38c0-0.96,0.72-1.41,1.41-1.41c0.78,0,1.44,0.51,1.44,1.83
		C297.106,184.565,296.326,186.004,295.006,187.205 M182.149,187.205l-0.6-0.57c0.9-0.96,1.44-1.74,1.56-2.79l-0.3,0.03
		c-0.81,0-1.41-0.54-1.41-1.38c0-0.96,0.72-1.41,1.41-1.41c0.78,0,1.44,0.51,1.44,1.83
		C184.249,184.565,183.469,186.004,182.149,187.205 M59.541,183.935c-6.15,0-10.35-4.77-10.35-10.59c0-6.03,4.29-10.53,10.35-10.53
		c3.21,0,5.52,1.14,7.68,3.33l-1.17,1.2c-1.62-1.68-3.6-2.7-6.51-2.7c-4.92,0-8.37,3.75-8.37,8.699c0,4.83,3.42,8.76,8.37,8.76
		c2.88,0,5.16-1.38,6.66-3.39l1.41,1.11C65.93,182.255,63.141,183.935,59.541,183.935 M518.234,183.905c-4.02,0-6.84-2.88-6.84-6.99
		c0-3.84,2.76-6.93,6.689-6.93c3.69,0,5.88,2.55,5.88,6.42c0,0.42-0.03,0.84-0.09,1.29h-10.62c0.3,2.82,2.46,4.5,4.95,4.5
		c1.86,0,3.03-0.57,4.05-1.62l1.05,1.32C521.954,183.185,520.334,183.905,518.234,183.905 M518.054,171.695
		c-2.46,0-4.38,1.74-4.74,4.38h8.85C522.104,173.255,520.484,171.695,518.054,171.695 M486.075,183.905c-3.99,0-6.84-2.88-6.84-6.96
		c0-4.08,2.85-6.96,6.84-6.96c4.05,0,6.9,2.88,6.9,6.96C492.975,181.025,490.124,183.905,486.075,183.905 M486.075,171.695
		c-2.94,0-4.98,2.19-4.98,5.25c0,3.09,2.04,5.25,4.98,5.25c2.97,0,5.04-2.16,5.04-5.25
		C491.114,173.885,489.075,171.695,486.075,171.695 M390.165,183.905c-4.02,0-6.84-2.88-6.84-6.99c0-3.84,2.76-6.93,6.69-6.93
		c3.69,0,5.88,2.55,5.88,6.42c0,0.42-0.03,0.84-0.09,1.29h-10.62c0.3,2.82,2.46,4.5,4.95,4.5c1.86,0,3.03-0.57,4.05-1.62l1.05,1.32
		C393.885,183.185,392.265,183.905,390.165,183.905 M389.985,171.695c-2.46,0-4.38,1.74-4.74,4.38h8.85
		C394.035,173.255,392.415,171.695,389.985,171.695 M325.066,183.905c-3.99,0-6.84-2.88-6.84-6.96c0-4.08,2.85-6.96,6.84-6.96
		c4.05,0,6.9,2.88,6.9,6.96C331.966,181.025,329.116,183.905,325.066,183.905 M325.066,171.695c-2.94,0-4.98,2.19-4.98,5.25
		c0,3.09,2.04,5.25,4.98,5.25c2.97,0,5.04-2.16,5.04-5.25C330.106,173.885,328.066,171.695,325.066,171.695 M223.158,183.905
		c-3.3,0-6.6-2.43-6.6-6.99c0-4.38,3.18-6.9,6.78-6.9c1.92,0,3.39,0.6,4.74,1.8l-1.05,1.26c-1.08-0.93-2.13-1.35-3.69-1.35
		c-2.76,0-4.92,2.07-4.92,5.189c0,3.18,2.13,5.28,4.89,5.28c1.8,0,2.88-0.57,3.96-1.59l1.02,1.32
		C226.908,183.215,225.467,183.905,223.158,183.905 M208.248,183.905c-4.02,0-6.84-2.88-6.84-6.99c0-3.84,2.76-6.93,6.69-6.93
		c3.69,0,5.88,2.55,5.88,6.42c0,0.42-0.03,0.84-0.09,1.29h-10.62c0.3,2.82,2.46,4.5,4.95,4.5c1.86,0,3.03-0.57,4.05-1.62l1.05,1.32
		C211.968,183.185,210.348,183.905,208.248,183.905 M208.068,171.695c-2.46,0-4.38,1.74-4.74,4.38h8.849
		C212.118,173.255,210.498,171.695,208.068,171.695 M160.579,183.905c-4.02,0-6.84-2.88-6.84-6.99c0-3.84,2.76-6.93,6.69-6.93
		c3.69,0,5.88,2.55,5.88,6.42c0,0.42-0.03,0.84-0.09,1.29h-10.619c0.3,2.82,2.46,4.5,4.95,4.5c1.86,0,3.03-0.57,4.05-1.62l1.05,1.32
		C164.298,183.185,162.678,183.905,160.579,183.905 M160.398,171.695c-2.46,0-4.38,1.74-4.74,4.38h8.85
		C164.448,173.255,162.829,171.695,160.398,171.695 M542.564,183.815c-2.58,0-4.23-1.41-4.23-3.69c0-2.97,2.73-4.68,6.63-4.68
		c0.99,0,1.74,0.03,2.43,0.12v-0.9c0-1.86-1.32-2.79-3.36-2.79c-1.44,0-2.91,0.42-4.38,1.11l-0.63-1.56
		c1.8-0.84,3.51-1.26,5.19-1.26c3.03,0,5.04,1.59,5.04,4.59v8.82h-1.35l-0.33-2.4C546.614,182.765,544.904,183.815,542.564,183.815
		 M545.234,176.975c-3.12,0-4.98,1.08-4.98,3.03c0,1.32,0.96,2.1,2.61,2.1c2.73,0,4.44-1.98,4.53-5.01
		C546.673,177.005,546.103,176.975,545.234,176.975 M531.284,183.815c-1.86,0-3.42-0.51-4.83-1.47l0.93-1.44
		c1.17,0.84,2.43,1.2,3.9,1.2c1.62,0,2.67-0.81,2.67-2.01c0-1.29-1.47-1.95-3.06-2.58c-2.16-0.84-3.96-1.86-3.96-3.99
		c0-2.22,2.04-3.36,4.29-3.36c1.44,0,2.82,0.42,4.02,1.2l-0.81,1.32c-0.96-0.54-2.04-0.84-3.12-0.84c-1.35,0-2.55,0.45-2.55,1.68
		c0,1.2,1.23,1.8,2.79,2.4c2.4,0.9,4.23,1.95,4.23,4.17C535.784,182.315,533.894,183.815,531.284,183.815 M453.345,183.815
		c-2.58,0-4.23-1.41-4.23-3.69c0-2.97,2.73-4.68,6.63-4.68c0.99,0,1.74,0.03,2.43,0.12v-0.9c0-1.86-1.32-2.79-3.36-2.79
		c-1.44,0-2.91,0.42-4.38,1.11l-0.63-1.56c1.8-0.84,3.51-1.26,5.19-1.26c3.03,0,5.04,1.59,5.04,4.59v8.82h-1.35l-0.33-2.4
		C457.395,182.765,455.685,183.815,453.345,183.815 M456.015,176.975c-3.12,0-4.98,1.08-4.98,3.03c0,1.32,0.96,2.1,2.61,2.1
		c2.73,0,4.44-1.98,4.53-5.01C457.455,177.005,456.885,176.975,456.015,176.975 M378.225,183.815c-2.16,0-3.51-1.26-3.51-3.99v-7.89
		l-2.58-0.12v-1.5h2.58v-4.41h1.83v4.41h4.74v1.62h-4.74v7.89c0,1.68,0.69,2.25,1.86,2.25c0.93,0,1.77-0.3,2.61-0.9l0.81,1.38
		C380.835,183.305,379.605,183.815,378.225,183.815 M362.865,183.815c-2.58,0-4.23-1.41-4.23-3.69c0-2.97,2.73-4.68,6.63-4.68
		c0.99,0,1.74,0.03,2.43,0.12v-0.9c0-1.86-1.32-2.79-3.36-2.79c-1.44,0-2.91,0.42-4.38,1.11l-0.63-1.56
		c1.8-0.84,3.51-1.26,5.19-1.26c3.03,0,5.04,1.59,5.04,4.59v8.82h-1.35l-0.33-2.4C366.915,182.765,365.205,183.815,362.865,183.815
		 M365.535,176.975c-3.12,0-4.98,1.08-4.98,3.03c0,1.32,0.96,2.1,2.61,2.1c2.73,0,4.44-1.98,4.53-5.01
		C366.975,177.005,366.405,176.975,365.535,176.975 M313.126,183.815c-2.16,0-3.51-1.26-3.51-3.99v-7.89l-2.58-0.12v-1.5h2.58v-4.41
		h1.83v4.41h4.74v1.62h-4.74v7.89c0,1.68,0.69,2.25,1.86,2.25c0.93,0,1.77-0.3,2.61-0.9l0.81,1.38
		C315.736,183.305,314.506,183.815,313.126,183.815 M283.007,183.815c-2.58,0-4.23-1.41-4.23-3.69c0-2.97,2.73-4.68,6.63-4.68
		c0.99,0,1.74,0.03,2.43,0.12v-0.9c0-1.86-1.32-2.79-3.36-2.79c-1.44,0-2.91,0.42-4.38,1.11l-0.63-1.56
		c1.8-0.84,3.51-1.26,5.19-1.26c3.03,0,5.04,1.59,5.04,4.59v8.82h-1.35l-0.33-2.4C287.057,182.765,285.346,183.815,283.007,183.815
		 M285.677,176.975c-3.12,0-4.98,1.08-4.98,3.03c0,1.32,0.96,2.1,2.61,2.1c2.73,0,4.44-1.98,4.53-5.01
		C287.116,177.005,286.547,176.975,285.677,176.975 M251.627,183.815c-3.3,0-4.83-2.19-4.83-5.43v-8.07h1.83v8.1
		c0,2.16,0.84,3.69,3.21,3.69c2.64,0,4.2-2.37,4.2-5.19v-6.6h1.83v13.26h-1.41l-0.36-2.31
		C255.317,182.675,253.817,183.815,251.627,183.815 M173.628,183.815c-1.86,0-3.42-0.51-4.83-1.47l0.93-1.44
		c1.17,0.84,2.43,1.2,3.9,1.2c1.62,0,2.67-0.81,2.67-2.01c0-1.29-1.47-1.95-3.06-2.58c-2.16-0.84-3.96-1.86-3.96-3.99
		c0-2.22,2.04-3.36,4.29-3.36c1.44,0,2.82,0.42,4.02,1.2l-0.81,1.32c-0.96-0.54-2.04-0.84-3.12-0.84c-1.35,0-2.55,0.45-2.55,1.68
		c0,1.2,1.23,1.8,2.79,2.4c2.4,0.9,4.23,1.95,4.23,4.17C178.128,182.315,176.238,183.815,173.628,183.815 M133.699,183.815
		c-2.58,0-4.23-1.41-4.23-3.69c0-2.97,2.73-4.68,6.63-4.68c0.99,0,1.74,0.03,2.43,0.12v-0.9c0-1.86-1.32-2.79-3.36-2.79
		c-1.44,0-2.91,0.42-4.38,1.11l-0.63-1.56c1.8-0.84,3.51-1.26,5.19-1.26c3.03,0,5.04,1.59,5.04,4.59v8.82h-1.35l-0.33-2.4
		C137.749,182.765,136.039,183.815,133.699,183.815 M136.369,176.975c-3.12,0-4.98,1.08-4.98,3.03c0,1.32,0.96,2.1,2.61,2.1
		c2.73,0,4.44-1.98,4.53-5.01C137.809,177.005,137.239,176.975,136.369,176.975 M95.33,183.815c-2.58,0-4.23-1.41-4.23-3.69
		c0-2.97,2.73-4.68,6.63-4.68c0.99,0,1.74,0.03,2.43,0.12v-0.9c0-1.86-1.32-2.79-3.36-2.79c-1.44,0-2.91,0.42-4.38,1.11l-0.63-1.56
		c1.8-0.84,3.51-1.26,5.19-1.26c3.03,0,5.04,1.59,5.04,4.59v8.82h-1.35l-0.33-2.4C99.38,182.765,97.67,183.815,95.33,183.815
		 M98,176.975c-3.12,0-4.98,1.08-4.98,3.03c0,1.32,0.96,2.1,2.61,2.1c2.73,0,4.44-1.98,4.53-5.01
		C99.44,177.005,98.87,176.975,98,176.975 M74.421,183.815c-2.58,0-4.23-1.41-4.23-3.69c0-2.97,2.73-4.68,6.63-4.68
		c0.99,0,1.74,0.03,2.43,0.12v-0.9c0-1.86-1.32-2.79-3.36-2.79c-1.44,0-2.91,0.42-4.38,1.11l-0.63-1.56
		c1.8-0.84,3.51-1.26,5.19-1.26c3.03,0,5.04,1.59,5.04,4.59v8.82h-1.35l-0.33-2.4C78.471,182.765,76.76,183.815,74.421,183.815
		 M77.091,176.975c-3.12,0-4.98,1.08-4.98,3.03c0,1.32,0.96,2.1,2.61,2.1c2.73,0,4.44-1.98,4.53-5.01
		C78.53,177.005,77.961,176.975,77.091,176.975 M507.854,183.575h-1.83v-8.13c0-2.25-0.84-3.69-3.06-3.69
		c-2.67,0-4.44,1.92-4.44,4.68v7.14h-1.83v-13.26h1.38l0.42,2.25c0.78-1.41,2.4-2.52,4.65-2.52c3.09,0,4.71,1.98,4.71,5.43V183.575
		 M475.695,183.575h-1.83v-8.16c0-2.22-0.9-3.66-3.12-3.66c-2.82,0-4.38,2.4-4.38,5.28v6.54h-1.83v-21.509h1.83v8.58
		c0,0.66,0,1.29-0.03,2.07c0.81-1.56,2.34-2.67,4.59-2.67c3.24,0,4.77,2.04,4.77,5.43V183.575 M445.665,183.575h-1.83v-8.4
		c0-2.13-1.08-3.42-2.94-3.42c-2.67,0-4.05,2.43-4.05,4.92v6.9h-1.83v-8.43c0-1.83-0.93-3.39-2.94-3.39c-2.7,0-4.08,2.43-4.08,4.92
		v6.9h-1.83v-13.26h1.38l0.42,2.28c0.87-1.62,2.4-2.55,4.32-2.55c2.01,0,3.48,0.99,4.11,2.67c0.87-1.62,2.4-2.67,4.62-2.67
		c3.03,0,4.65,2.01,4.65,5.22V183.575 M355.185,183.575h-1.83v-8.4c0-2.13-1.08-3.42-2.94-3.42c-2.67,0-4.05,2.43-4.05,4.92v6.9
		h-1.83v-8.43c0-1.83-0.93-3.39-2.94-3.39c-2.7,0-4.08,2.43-4.08,4.92v6.9h-1.83v-13.26h1.38l0.42,2.28
		c0.87-1.62,2.4-2.55,4.32-2.55c2.01,0,3.48,0.99,4.11,2.67c0.87-1.62,2.4-2.67,4.62-2.67c3.03,0,4.65,2.01,4.65,5.22V183.575
		 M242.477,183.575h-1.83v-8.16c0-2.22-0.9-3.66-3.12-3.66c-2.82,0-4.38,2.4-4.38,5.28v6.54h-1.83v-21.509h1.83v8.58
		c0,0.66,0,1.29-0.03,2.07c0.81-1.56,2.34-2.67,4.59-2.67c3.24,0,4.77,2.04,4.77,5.43V183.575 M197.688,183.575h-1.83l-0.03-21.509
		h1.83L197.688,183.575 M146.719,183.575h-1.83v-13.26h1.38l0.36,1.95c0.75-1.38,2.01-2.22,3.87-2.22c0.84,0,1.56,0.18,2.16,0.45
		l-0.54,1.62c-0.51-0.18-1.02-0.33-1.77-0.33c-2.16,0-3.63,1.53-3.63,4.11V183.575 M126.019,183.575h-1.83v-8.4
		c0-2.13-1.08-3.42-2.94-3.42c-2.67,0-4.05,2.43-4.05,4.92v6.9h-1.83v-8.43c0-1.83-0.93-3.39-2.94-3.39c-2.7,0-4.08,2.43-4.08,4.92
		v6.9h-1.83v-13.26h1.38l0.42,2.28c0.87-1.62,2.4-2.55,4.32-2.55c2.01,0,3.48,0.99,4.11,2.67c0.87-1.62,2.4-2.67,4.62-2.67
		c3.03,0,4.65,2.01,4.65,5.22V183.575 M87.47,183.575h-1.83l-0.03-21.509h1.83L87.47,183.575"/>
	<path fill="#9D9D9C" d="M889.745,164.778l-5.496,3l0.984,1.992l2.136-1.056l0.6-0.312c-0.12,0.432-0.192,0.864-0.288,1.32
		l-1.992,11.041h2.808l2.808-15.985z M903.353,167.322l0.432-2.424h-7.993l-2.352,8.113l0.408,0.312
		c0.888-0.312,1.8-0.504,2.736-0.504c1.776,0,3.048,0.792,3.048,2.328c0,0.192,0,0.384-0.048,0.6
		c-0.336,1.848-1.872,2.784-3.672,2.784c-1.44,0-2.472-0.528-3.048-1.392l-1.68,1.848c0.984,1.272,2.688,2.088,4.8,2.088
		c3.288,0,5.833-1.896,6.337-4.92c0.072-0.432,0.12-0.816,0.12-1.2c0-2.736-1.944-4.2-4.848-4.2c-0.384,0-0.72,0.024-1.032,0.048
		l1.056-3.48z M905.824,177.739c-0.816,0-1.584,0.504-1.776,1.464c-0.024,0.12-0.024,0.24-0.024,0.336
		c0,0.912,0.648,1.512,1.392,1.512h0.12c-0.36,1.008-1.032,1.776-2.04,2.544l0.576,0.696c1.68-1.128,2.808-2.64,3.216-4.296
		c0.072-0.24,0.096-0.48,0.096-0.696C907.385,178.267,906.688,177.739,905.824,177.739z M922.169,164.73h-1.608l-10.729,11.569
		l-0.24,1.464h7.681l-0.504,3h2.592l0.504-3h1.848l0.408-2.28h-1.848z M917.729,175.507h-3.048c-0.408,0-0.816,0-1.344,0.048
		c0.432-0.384,0.744-0.72,1.056-1.08l3.336-3.648c0.36-0.36,0.696-0.72,1.08-1.224c-0.144,0.624-0.24,1.176-0.336,1.68z
		 M928.768,181.052c3.864,0,6.265-3.096,7.129-8.041c0.144-0.864,0.216-1.68,0.216-2.424c0-3.696-1.8-5.977-4.728-5.977
		c-3.96,0-6.241,3.072-7.129,8.017c-0.144,0.888-0.24,1.704-0.24,2.472C924.016,178.795,925.792,181.052,928.768,181.052z
		 M928.961,178.603c-1.464,0-2.184-1.368-2.184-3.504c0-0.672,0.072-1.44,0.216-2.256c0.624-3.552,2.16-5.785,4.2-5.785
		c1.464,0,2.16,1.344,2.16,3.456c0,0.696-0.072,1.464-0.216,2.28C932.513,176.347,931.001,178.603,928.961,178.603z"/>
	<path fill="#9D9D9C" d="M946.278,167.401c0.76,0,1.34,0.12,1.9,0.34l1-1.82c-0.88-0.4-1.7-0.62-2.881-0.62
		c-3.461,0-5.941,1.88-6.982,4.741h-1.5l-0.24,1.4h1.36c-0.06,0.36-0.12,0.74-0.14,1.12h-1.42l-0.26,1.4h1.7
		c0.26,2.861,2.24,5.041,5.501,5.041c1.04,0,1.92-0.18,2.801-0.6l-0.44-1.96c-0.64,0.32-1.26,0.46-2.06,0.46
		c-2.12,0-3.181-1.16-3.461-2.941h2.921l0.78-1.4h-3.741c0.02-0.38,0.06-0.76,0.16-1.12h4.161l0.76-1.4h-4.421
		C942.617,168.441,944.177,167.401,946.278,167.401z"/>
	<path fill="#7AC3A5" d="M9.9,207.667v2.02h4.081c0.58,0,0.98,0,1.46-0.02c-0.14,0.36-0.32,0.78-0.5,1.28L11.2,220.89h2.401
		l4.661-12.363v-0.86z"/>
	<path fill="#000000" d="M480.044,232.174h-1.83v-5.22c0-1.41,0.03-2.67,0.06-3.72c-1.08,1.62-2.94,2.64-5.16,2.64
		c-3.87,0-6.6-2.91-6.6-6.99c0-3.96,2.76-6.84,6.57-6.84c2.25,0,3.99,0.93,5.16,2.55l0.42-2.28h1.38V232.174 M473.234,213.755
		c-2.85,0-4.86,2.16-4.86,5.22c0,3.03,2.01,5.189,4.86,5.189c2.94,0,5.04-2.13,5.04-5.28
		C478.274,215.855,476.204,213.755,473.234,213.755 M409.995,232.174h-1.92v-0.06l2.94-6.87l-5.79-12.87v-0.06h1.92l3.81,8.49
		c0.33,0.78,0.66,1.53,0.96,2.46c0.3-0.93,0.6-1.71,0.9-2.46l3.45-8.49h1.89v0.06L409.995,232.174 M182.508,232.174h-1.83v-19.859
		h1.38l0.39,2.22c1.14-1.53,2.94-2.49,5.19-2.49c3.78,0,6.54,2.88,6.54,6.84c0,4.08-2.76,6.99-6.569,6.99
		c-2.19,0-4.05-0.99-5.16-2.49c0.03,1.02,0.06,2.25,0.06,3.57V232.174 M187.488,213.755c-2.97,0-5.07,2.1-5.07,5.13
		c0,3.15,2.13,5.28,5.07,5.28c2.85,0,4.86-2.16,4.86-5.189C192.348,215.915,190.338,213.755,187.488,213.755 M262.548,229.204
		l-0.6-0.57c0.9-0.96,1.44-1.74,1.56-2.79l-0.3,0.03c-0.81,0-1.41-0.54-1.41-1.38c0-0.96,0.72-1.41,1.41-1.41
		c0.78,0,1.44,0.51,1.44,1.83C264.648,226.564,263.868,228.005,262.548,229.204 M506.174,225.905c-4.02,0-6.84-2.88-6.84-6.99
		c0-3.84,2.76-6.93,6.69-6.93c3.69,0,5.88,2.55,5.88,6.42c0,0.42-0.03,0.84-0.09,1.29h-10.62c0.3,2.82,2.46,4.5,4.95,4.5
		c1.86,0,3.03-0.57,4.05-1.62l1.05,1.32C509.894,225.185,508.274,225.905,506.174,225.905 M505.994,213.695
		c-2.46,0-4.38,1.74-4.74,4.38h8.85C510.044,215.255,508.424,213.695,505.994,213.695 M456.855,225.905c-3.99,0-6.84-2.88-6.84-6.96
		c0-4.08,2.85-6.96,6.84-6.96c4.05,0,6.9,2.88,6.9,6.96C463.754,223.025,460.905,225.905,456.855,225.905 M456.855,213.695
		c-2.94,0-4.98,2.19-4.98,5.25c0,3.09,2.04,5.25,4.98,5.25c2.97,0,5.04-2.16,5.04-5.25
		C461.895,215.885,459.855,213.695,456.855,213.695 M433.005,225.905c-3.3,0-6.6-2.43-6.6-6.99c0-4.38,3.18-6.9,6.78-6.9
		c1.92,0,3.39,0.6,4.74,1.8l-1.05,1.26c-1.08-0.93-2.13-1.35-3.69-1.35c-2.76,0-4.92,2.07-4.92,5.19c0,3.18,2.13,5.28,4.89,5.28
		c1.8,0,2.88-0.57,3.96-1.59l1.02,1.32C436.755,225.215,435.315,225.905,433.005,225.905 M379.485,225.905
		c-4.02,0-6.839-2.88-6.839-6.99c0-3.84,2.76-6.93,6.689-6.93c3.69,0,5.88,2.55,5.88,6.42c0,0.42-0.03,0.84-0.09,1.29h-10.62
		c0.3,2.82,2.46,4.5,4.95,4.5c1.86,0,3.03-0.57,4.05-1.62l1.05,1.32C383.205,225.185,381.585,225.905,379.485,225.905
		 M379.305,213.695c-2.46,0-4.38,1.74-4.74,4.38h8.849C383.355,215.255,381.735,213.695,379.305,213.695 M281.867,225.905
		c-3.3,0-6.6-2.43-6.6-6.99c0-4.38,3.18-6.9,6.78-6.9c1.92,0,3.39,0.6,4.74,1.8l-1.05,1.26c-1.08-0.93-2.13-1.35-3.69-1.35
		c-2.76,0-4.92,2.07-4.92,5.19c0,3.18,2.13,5.28,4.89,5.28c1.8,0,2.88-0.57,3.96-1.59l1.02,1.32
		C285.617,225.215,284.177,225.905,281.867,225.905 M164.568,225.905c-4.02,0-6.84-2.88-6.84-6.99c0-3.84,2.76-6.93,6.69-6.93
		c3.69,0,5.88,2.55,5.88,6.42c0,0.42-0.03,0.84-0.09,1.29h-10.62c0.3,2.82,2.46,4.5,4.95,4.5c1.86,0,3.03-0.57,4.05-1.62l1.05,1.32
		C168.288,225.185,166.668,225.905,164.568,225.905 M164.388,213.695c-2.46,0-4.38,1.74-4.74,4.38h8.849
		C168.438,215.255,166.818,213.695,164.388,213.695 M68.721,225.905c-3.99,0-6.84-2.88-6.84-6.96c0-4.08,2.85-6.96,6.84-6.96
		c4.05,0,6.9,2.88,6.9,6.96C75.621,223.025,72.771,225.905,68.721,225.905 M68.721,213.695c-2.94,0-4.98,2.19-4.98,5.25
		c0,3.09,2.04,5.25,4.98,5.25c2.97,0,5.04-2.16,5.04-5.25C73.761,215.885,71.721,213.695,68.721,213.695 M147.109,225.875
		c-3.93,0-6.66-2.94-6.66-6.99c0-3.93,2.76-6.84,6.66-6.84c2.16,0,4.05,0.96,5.13,2.52c-0.03-1.14-0.06-2.34-0.06-3.6v-6.9h1.83
		v21.509h-1.41l-0.27-2.37C151.249,224.855,149.419,225.875,147.109,225.875 M147.229,213.755c-2.94,0-4.95,2.16-4.95,5.19
		s2.01,5.19,4.95,5.19c3.06,0,5.01-2.19,5.01-5.19C152.239,215.945,150.229,213.755,147.229,213.755 M529.214,225.814
		c-2.58,0-4.23-1.41-4.23-3.69c0-2.97,2.73-4.68,6.63-4.68c0.99,0,1.74,0.03,2.43,0.12v-0.9c0-1.86-1.32-2.79-3.36-2.79
		c-1.44,0-2.91,0.42-4.38,1.11l-0.63-1.56c1.8-0.84,3.51-1.26,5.189-1.26c3.03,0,5.04,1.59,5.04,4.59v8.82h-1.35l-0.33-2.4
		C533.264,224.765,531.554,225.814,529.214,225.814 M531.884,218.975c-3.12,0-4.98,1.08-4.98,3.03c0,1.32,0.96,2.1,2.61,2.1
		c2.73,0,4.44-1.98,4.53-5.01C533.324,219.005,532.754,218.975,531.884,218.975 M519.704,225.814c-2.16,0-3.51-1.26-3.51-3.99v-7.89
		l-2.58-0.12v-1.5h2.58v-4.41h1.83v4.41h4.74v1.62h-4.74v7.89c0,1.68,0.69,2.25,1.86,2.25c0.93,0,1.77-0.3,2.61-0.9l0.81,1.38
		C522.314,225.305,521.084,225.814,519.704,225.814 M489.374,225.814c-3.3,0-4.83-2.19-4.83-5.43v-8.07h1.83v8.1
		c0,2.16,0.84,3.69,3.21,3.69c2.64,0,4.2-2.37,4.2-5.19v-6.6h1.83v13.26h-1.41l-0.36-2.31
		C493.064,224.675,491.564,225.814,489.374,225.814 M392.535,225.814c-1.86,0-3.42-0.51-4.83-1.47l0.93-1.44
		c1.17,0.84,2.43,1.2,3.9,1.2c1.62,0,2.67-0.81,2.67-2.01c0-1.29-1.47-1.95-3.06-2.58c-2.16-0.84-3.96-1.86-3.96-3.99
		c0-2.22,2.04-3.36,4.29-3.36c1.44,0,2.82,0.42,4.02,1.2l-0.81,1.32c-0.96-0.54-2.04-0.84-3.12-0.84c-1.35,0-2.55,0.45-2.55,1.68
		c0,1.2,1.23,1.8,2.79,2.4c2.4,0.9,4.23,1.95,4.23,4.17C397.034,224.315,395.145,225.814,392.535,225.814 M352.605,225.814
		c-2.58,0-4.23-1.41-4.23-3.69c0-2.97,2.73-4.68,6.63-4.68c0.99,0,1.74,0.03,2.43,0.12v-0.9c0-1.86-1.32-2.79-3.36-2.79
		c-1.44,0-2.91,0.42-4.38,1.11l-0.63-1.56c1.8-0.84,3.51-1.26,5.19-1.26c3.03,0,5.04,1.59,5.04,4.59v8.82h-1.35l-0.33-2.4
		C356.655,224.765,354.945,225.814,352.605,225.814 M355.275,218.975c-3.12,0-4.98,1.08-4.98,3.03c0,1.32,0.96,2.1,2.61,2.1
		c2.73,0,4.44-1.98,4.53-5.01C356.715,219.005,356.145,218.975,355.275,218.975 M314.236,225.814c-2.58,0-4.23-1.41-4.23-3.69
		c0-2.97,2.73-4.68,6.63-4.68c0.99,0,1.74,0.03,2.43,0.12v-0.9c0-1.86-1.32-2.79-3.36-2.79c-1.44,0-2.91,0.42-4.38,1.11l-0.63-1.56
		c1.8-0.84,3.51-1.26,5.19-1.26c3.03,0,5.04,1.59,5.04,4.59v8.82h-1.35l-0.33-2.4C318.286,224.765,316.576,225.814,314.236,225.814
		 M316.906,218.975c-3.12,0-4.98,1.08-4.98,3.03c0,1.32,0.96,2.1,2.61,2.1c2.73,0,4.44-1.98,4.53-5.01
		C318.346,219.005,317.776,218.975,316.906,218.975 M293.327,225.814c-2.58,0-4.23-1.41-4.23-3.69c0-2.97,2.73-4.68,6.63-4.68
		c0.99,0,1.74,0.03,2.43,0.12v-0.9c0-1.86-1.32-2.79-3.36-2.79c-1.44,0-2.91,0.42-4.38,1.11l-0.63-1.56
		c1.8-0.84,3.51-1.26,5.19-1.26c3.03,0,5.04,1.59,5.04,4.59v8.82h-1.35l-0.33-2.4C297.377,224.765,295.667,225.814,293.327,225.814
		 M295.997,218.975c-3.12,0-4.98,1.08-4.98,3.03c0,1.32,0.96,2.1,2.61,2.1c2.73,0,4.44-1.98,4.53-5.01
		C297.437,219.005,296.867,218.975,295.997,218.975 M250.548,225.814c-2.58,0-4.23-1.41-4.23-3.69c0-2.97,2.73-4.68,6.63-4.68
		c0.99,0,1.74,0.03,2.43,0.12v-0.9c0-1.86-1.32-2.79-3.36-2.79c-1.44,0-2.91,0.42-4.38,1.11l-0.63-1.56
		c1.8-0.84,3.51-1.26,5.19-1.26c3.03,0,5.04,1.59,5.04,4.59v8.82h-1.35l-0.33-2.4C254.598,224.765,252.888,225.814,250.548,225.814
		 M253.218,218.975c-3.12,0-4.98,1.08-4.98,3.03c0,1.32,0.96,2.1,2.61,2.1c2.73,0,4.44-1.98,4.53-5.01
		C254.658,219.005,254.088,218.975,253.218,218.975 M241.038,225.814c-2.16,0-3.51-1.26-3.51-3.99v-7.89l-2.58-0.12v-1.5h2.58v-4.41
		h1.83v4.41h4.74v1.62h-4.74v7.89c0,1.68,0.69,2.25,1.86,2.25c0.93,0,1.77-0.3,2.61-0.9l0.81,1.38
		C243.648,225.305,242.418,225.814,241.038,225.814 M225.678,225.814c-2.58,0-4.23-1.41-4.23-3.69c0-2.97,2.73-4.68,6.63-4.68
		c0.99,0,1.74,0.03,2.43,0.12v-0.9c0-1.86-1.32-2.79-3.36-2.79c-1.44,0-2.91,0.42-4.38,1.11l-0.63-1.56
		c1.8-0.84,3.51-1.26,5.19-1.26c3.03,0,5.04,1.59,5.04,4.59v8.82h-1.35l-0.33-2.4C229.728,224.765,228.018,225.814,225.678,225.814
		 M228.348,218.975c-3.12,0-4.98,1.08-4.98,3.03c0,1.32,0.96,2.1,2.61,2.1c2.73,0,4.44-1.98,4.53-5.01
		C229.788,219.005,229.218,218.975,228.348,218.975 M216.168,225.814c-2.16,0-3.51-1.26-3.51-3.99v-7.89l-2.58-0.12v-1.5h2.58v-4.41
		h1.83v4.41h4.74v1.62h-4.74v7.89c0,1.68,0.69,2.25,1.86,2.25c0.93,0,1.77-0.3,2.61-0.9l0.81,1.38
		C218.778,225.305,217.548,225.814,216.168,225.814 M200.808,225.814c-2.58,0-4.23-1.41-4.23-3.69c0-2.97,2.73-4.68,6.63-4.68
		c0.99,0,1.74,0.03,2.43,0.12v-0.9c0-1.86-1.32-2.79-3.36-2.79c-1.44,0-2.91,0.42-4.38,1.11l-0.63-1.56
		c1.8-0.84,3.51-1.26,5.19-1.26c3.03,0,5.04,1.59,5.04,4.59v8.82h-1.35l-0.33-2.4C204.858,224.765,203.148,225.814,200.808,225.814
		 M203.478,218.975c-3.12,0-4.98,1.08-4.98,3.03c0,1.32,0.96,2.1,2.61,2.1c2.73,0,4.44-1.98,4.53-5.01
		C204.918,219.005,204.348,218.975,203.478,218.975 M123.379,225.814c-2.58,0-4.23-1.41-4.23-3.69c0-2.97,2.73-4.68,6.63-4.68
		c0.99,0,1.74,0.03,2.43,0.12v-0.9c0-1.86-1.32-2.79-3.36-2.79c-1.44,0-2.91,0.42-4.38,1.11l-0.63-1.56
		c1.8-0.84,3.51-1.26,5.19-1.26c3.03,0,5.04,1.59,5.04,4.59v8.82h-1.35l-0.33-2.4C127.429,224.765,125.719,225.814,123.379,225.814
		 M126.049,218.975c-3.12,0-4.98,1.08-4.98,3.03c0,1.32,0.96,2.1,2.61,2.1c2.73,0,4.44-1.98,4.53-5.01
		C127.489,219.005,126.919,218.975,126.049,218.975 M94.28,225.814c-2.16,0-3.51-1.26-3.51-3.99v-7.89l-2.58-0.12v-1.5h2.58v-4.41
		h1.83v4.41h4.74v1.62H92.6v7.89c0,1.68,0.69,2.25,1.86,2.25c0.93,0,1.77-0.3,2.61-0.9l0.81,1.38
		C96.89,225.305,95.66,225.814,94.28,225.814 M442.995,225.575h-1.83v-13.26h1.38l0.36,1.95c0.75-1.38,2.01-2.22,3.87-2.22
		c0.84,0,1.56,0.18,2.16,0.45l-0.54,1.62c-0.51-0.18-1.02-0.33-1.77-0.33c-2.16,0-3.63,1.53-3.63,4.11V225.575 M365.625,225.575
		h-1.83v-13.26h1.38l0.36,1.95c0.75-1.38,2.01-2.22,3.87-2.22c0.84,0,1.56,0.18,2.16,0.45l-0.54,1.62
		c-0.51-0.18-1.02-0.33-1.77-0.33c-2.16,0-3.63,1.53-3.63,4.11V225.575 M344.925,225.575h-1.83v-8.4c0-2.13-1.08-3.42-2.94-3.42
		c-2.67,0-4.05,2.43-4.05,4.92v6.9h-1.83v-8.43c0-1.83-0.93-3.39-2.94-3.39c-2.7,0-4.08,2.43-4.08,4.92v6.9h-1.83v-13.26h1.38
		l0.42,2.28c0.87-1.62,2.4-2.55,4.32-2.55c2.01,0,3.48,0.99,4.11,2.67c0.87-1.62,2.4-2.67,4.62-2.67c3.03,0,4.65,2.01,4.65,5.22
		V225.575 M306.377,225.575h-1.83l-0.03-21.509h1.83L306.377,225.575 M115.52,225.575h-1.83l-0.03-21.509h1.83L115.52,225.575
		 M108.98,225.575h-1.83l-0.03-21.509h1.83L108.98,225.575 M102.44,225.575h-1.83v-13.26h1.83V225.575 M81.171,225.575h-1.83v-13.26
		h1.38l0.36,1.95c0.75-1.38,2.01-2.22,3.87-2.22c0.84,0,1.56,0.18,2.16,0.45l-0.54,1.62c-0.51-0.18-1.02-0.33-1.77-0.33
		c-2.16,0-3.63,1.53-3.63,4.11V225.575 M56.421,225.575h-1.98v-18.599h-6.27v-1.8H62.69v1.8h-6.27V225.575 M101.54,208.835
		c-0.84,0-1.38-0.6-1.38-1.32c0-0.78,0.54-1.38,1.38-1.38c0.84,0,1.38,0.6,1.38,1.38C102.92,208.265,102.35,208.835,101.54,208.835"
		/>
	<path fill="#9D9D9C" d="M887.921,206.778l-5.496,3l0.984,1.992l2.136-1.056l0.6-0.312c-0.12,0.432-0.192,0.864-0.288,1.32
		l-1.992,11.041h2.808l2.808-15.985z M902.154,206.73h-1.608l-10.729,11.569l-0.24,1.464h7.681l-0.504,3h2.592l0.504-3h1.848
		l0.408-2.28h-1.848z M897.713,217.507h-3.048c-0.408,0-0.816,0-1.344,0.048c0.432-0.384,0.744-0.72,1.056-1.08l3.336-3.648
		c0.36-0.36,0.696-0.72,1.08-1.224c-0.144,0.624-0.24,1.176-0.336,1.68z M905.225,219.739c-0.816,0-1.584,0.504-1.776,1.464
		c-0.024,0.12-0.024,0.24-0.024,0.336c0,0.912,0.648,1.512,1.392,1.512h0.12c-0.36,1.008-1.032,1.776-2.04,2.544l0.576,0.696
		c1.68-1.128,2.808-2.64,3.216-4.296c0.072-0.24,0.096-0.48,0.096-0.696C906.785,220.267,906.089,219.739,905.225,219.739z
		 M914.897,223.028c3.504,0,5.881-1.608,6.385-4.44c0.048-0.288,0.072-0.576,0.072-0.84c0-1.608-0.888-2.808-2.112-3.384
		c1.488-0.624,2.976-2.04,2.976-4.2c0-2.088-1.728-3.576-4.512-3.576c-3.12,0-5.424,1.656-5.881,4.224
		c-0.048,0.216-0.048,0.456-0.048,0.648c0,1.344,0.72,2.448,1.752,2.904c-1.824,0.552-3.216,2.112-3.552,3.96
		c-0.048,0.288-0.072,0.576-0.072,0.864C909.904,221.564,911.825,223.028,914.897,223.028z M916.601,213.235
		c-1.368,0-2.184-0.672-2.184-1.752c0-1.584,1.2-2.592,2.88-2.592c1.368,0,2.184,0.672,2.184,1.704
		C919.481,212.131,918.257,213.235,916.601,213.235z M915.305,220.603c-1.512,0-2.544-0.648-2.544-1.968
		c0-0.168,0.024-0.312,0.048-0.48c0.264-1.536,1.584-2.64,3.312-2.64c1.608,0,2.472,0.816,2.472,2.064
		C918.593,219.499,917.105,220.603,915.305,220.603z M928.768,223.052c3.864,0,6.265-3.096,7.129-8.041
		c0.144-0.864,0.216-1.68,0.216-2.424c0-3.696-1.8-5.977-4.728-5.977c-3.96,0-6.241,3.072-7.129,8.017
		c-0.144,0.888-0.24,1.704-0.24,2.472C924.016,220.795,925.792,223.052,928.768,223.052z M928.961,220.603
		c-1.464,0-2.184-1.368-2.184-3.504c0-0.672,0.072-1.44,0.216-2.256c0.624-3.552,2.16-5.785,4.2-5.785
		c1.464,0,2.16,1.344,2.16,3.456c0,0.696-0.072,1.464-0.216,2.28C932.513,218.347,931.001,220.603,928.961,220.603z"/>
	<path fill="#9D9D9C" d="M946.278,209.401c0.76,0,1.34,0.12,1.9,0.34l1-1.82c-0.88-0.4-1.7-0.62-2.881-0.62
		c-3.461,0-5.941,1.88-6.982,4.741h-1.5l-0.24,1.4h1.36c-0.06,0.36-0.12,0.74-0.14,1.12h-1.42l-0.26,1.4h1.7
		c0.26,2.861,2.24,5.041,5.501,5.041c1.04,0,1.92-0.18,2.801-0.6l-0.44-1.96c-0.64,0.32-1.26,0.46-2.06,0.46
		c-2.12,0-3.181-1.16-3.461-2.941h2.921l0.78-1.4h-3.741c0.02-0.38,0.06-0.76,0.16-1.12h4.161l0.76-1.4h-4.421
		C942.617,210.441,944.177,209.401,946.278,209.401z"/>
	<path fill="#7AC3A5" d="M15.141,263.11c2.881,0,4.721-1.48,4.721-3.881c0-1.58-1.04-2.881-2.381-3.341
		c1.08-0.46,1.96-1.44,1.96-2.881c0-2.12-1.7-3.581-4.281-3.581c-2.601,0-4.341,1.46-4.341,3.581c0,1.48,0.86,2.481,2.02,2.881
		c-1.5,0.46-2.441,1.76-2.441,3.321C10.4,261.609,12.241,263.11,15.141,263.11z M15.161,254.948c-1.3,0-2.1-0.72-2.1-1.84
		c0-1.06,0.86-1.76,2.1-1.76c1.22,0,2.06,0.7,2.06,1.76C17.222,254.188,16.421,254.948,15.161,254.948z M15.141,261.089
		c-1.32,0-2.401-0.74-2.401-2.06c0-1.26,0.94-2.16,2.361-2.16c1.5,0,2.421,0.86,2.421,2.16
		C17.522,260.369,16.481,261.089,15.141,261.089z"/>
	<path fill="#000000" d="M159.169,274.474c-2.58,0-4.47-0.87-6-2.37l1.14-1.29c1.29,1.26,2.79,1.95,4.77,1.95
		c2.7,0,4.8-1.41,4.8-4.35c0-1.02,0-2.01,0.03-3c-1.23,1.59-3.15,2.4-5.1,2.4c-4.08,0-6.66-3.09-6.66-6.87c0-3.81,2.52-6.9,6.57-6.9
		c2.16,0,4.05,0.84,5.22,2.46l0.42-2.19h1.35v14.129C165.709,272.524,162.679,274.474,159.169,274.474 M158.929,255.755
		c-3.12,0-4.92,2.28-4.92,5.16c0,2.94,1.89,5.19,4.89,5.19c3.33,0,5.04-2.37,5.04-5.16S162.289,255.755,158.929,255.755
		 M534.585,274.174h-1.83v-19.859h1.38l0.39,2.22c1.14-1.53,2.94-2.49,5.19-2.49c3.78,0,6.54,2.88,6.54,6.839
		c0,4.08-2.76,6.99-6.57,6.99c-2.19,0-4.05-0.99-5.16-2.49c0.03,1.02,0.06,2.25,0.06,3.57V274.174 M539.565,255.755
		c-2.97,0-5.07,2.1-5.07,5.13c0,3.15,2.13,5.28,5.07,5.28c2.85,0,4.86-2.16,4.86-5.19
		C544.424,257.915,542.414,255.755,539.565,255.755 M515.384,274.174h-1.92v-0.06l2.94-6.87l-5.79-12.87v-0.06h1.92l3.81,8.49
		c0.33,0.78,0.66,1.53,0.96,2.46c0.3-0.93,0.6-1.71,0.9-2.46l3.45-8.49h1.89v0.06L515.384,274.174 M445.665,274.174h-1.83v-5.22
		c0-1.41,0.03-2.67,0.06-3.72c-1.08,1.62-2.94,2.64-5.16,2.64c-3.87,0-6.6-2.91-6.6-6.99c0-3.96,2.76-6.839,6.57-6.839
		c2.25,0,3.99,0.93,5.16,2.55l0.42-2.28h1.38V274.174 M438.855,255.755c-2.85,0-4.86,2.16-4.86,5.22c0,3.03,2.01,5.19,4.86,5.19
		c2.94,0,5.04-2.13,5.04-5.28C443.895,257.855,441.825,255.755,438.855,255.755 M379.306,271.205l-0.6-0.57
		c0.9-0.96,1.44-1.74,1.56-2.79l-0.3,0.03c-0.81,0-1.41-0.54-1.41-1.38c0-0.96,0.72-1.41,1.41-1.41c0.78,0,1.44,0.51,1.44,1.83
		C381.406,268.565,380.626,270.004,379.306,271.205 M228.168,271.205l-0.6-0.57c0.9-0.96,1.44-1.74,1.56-2.79l-0.3,0.03
		c-0.81,0-1.41-0.54-1.41-1.38c0-0.96,0.72-1.41,1.41-1.41c0.78,0,1.44,0.51,1.44,1.83
		C230.268,268.565,229.488,270.004,228.168,271.205 M471.795,267.905c-4.02,0-6.84-2.88-6.84-6.99c0-3.84,2.76-6.93,6.69-6.93
		c3.69,0,5.88,2.55,5.88,6.42c0,0.42-0.03,0.84-0.09,1.29h-10.619c0.3,2.82,2.46,4.5,4.95,4.5c1.86,0,3.03-0.57,4.05-1.62l1.05,1.32
		C475.514,267.185,473.894,267.905,471.795,267.905 M471.615,255.695c-2.46,0-4.38,1.74-4.74,4.38h8.85
		C475.664,257.255,474.045,255.695,471.615,255.695 M422.475,267.905c-3.99,0-6.84-2.88-6.84-6.96c0-4.08,2.85-6.96,6.84-6.96
		c4.05,0,6.9,2.88,6.9,6.96C429.375,265.025,426.525,267.905,422.475,267.905 M422.475,255.695c-2.94,0-4.98,2.19-4.98,5.25
		c0,3.09,2.04,5.25,4.98,5.25c2.97,0,5.04-2.16,5.04-5.25C427.515,257.885,425.475,255.695,422.475,255.695 M398.626,267.905
		c-3.3,0-6.6-2.43-6.6-6.99c0-4.38,3.18-6.9,6.78-6.9c1.92,0,3.39,0.6,4.74,1.8l-1.05,1.26c-1.08-0.93-2.13-1.35-3.69-1.35
		c-2.76,0-4.92,2.07-4.92,5.19c0,3.18,2.13,5.28,4.89,5.28c1.8,0,2.88-0.57,3.96-1.59l1.02,1.32
		C402.375,267.215,400.936,267.905,398.626,267.905 M368.086,267.905c-3.99,0-6.84-2.88-6.84-6.96c0-4.08,2.85-6.96,6.84-6.96
		c4.05,0,6.9,2.88,6.9,6.96C374.986,265.025,372.136,267.905,368.086,267.905 M368.086,255.695c-2.94,0-4.98,2.19-4.98,5.25
		c0,3.09,2.04,5.25,4.98,5.25c2.97,0,5.04-2.16,5.04-5.25C373.126,257.885,371.086,255.695,368.086,255.695 M307.397,267.905
		c-3.99,0-6.84-2.88-6.84-6.96c0-4.08,2.85-6.96,6.84-6.96c4.05,0,6.9,2.88,6.9,6.96
		C314.297,265.025,311.447,267.905,307.397,267.905 M307.397,255.695c-2.94,0-4.98,2.19-4.98,5.25c0,3.09,2.04,5.25,4.98,5.25
		c2.97,0,5.04-2.16,5.04-5.25C312.437,257.885,310.397,255.695,307.397,255.695 M278.957,267.905c-4.02,0-6.84-2.88-6.84-6.99
		c0-3.84,2.76-6.93,6.69-6.93c3.69,0,5.88,2.55,5.88,6.42c0,0.42-0.03,0.84-0.09,1.29h-10.62c0.3,2.82,2.46,4.5,4.95,4.5
		c1.86,0,3.03-0.57,4.05-1.62l1.05,1.32C282.677,267.185,281.057,267.905,278.957,267.905 M278.777,255.695
		c-2.46,0-4.38,1.74-4.74,4.38h8.85C282.827,257.255,281.207,255.695,278.777,255.695 M191.839,267.905c-4.02,0-6.84-2.88-6.84-6.99
		c0-3.84,2.76-6.93,6.69-6.93c3.69,0,5.88,2.55,5.88,6.42c0,0.42-0.03,0.84-0.09,1.29h-10.62c0.3,2.82,2.46,4.5,4.95,4.5
		c1.86,0,3.03-0.57,4.05-1.62l1.05,1.32C195.559,267.185,193.939,267.905,191.839,267.905 M191.659,255.695
		c-2.46,0-4.38,1.74-4.74,4.38h8.85C195.709,257.255,194.089,255.695,191.659,255.695 M117.41,267.875c-2.25,0-4.11-0.99-5.22-2.61
		l-0.27,2.31h-1.41v-21.509h1.83v6.9c0,1.26-0.03,2.49-0.06,3.66c1.08-1.62,2.97-2.58,5.13-2.58c3.9,0,6.66,2.91,6.66,6.839
		C124.069,264.935,121.339,267.875,117.41,267.875 M117.29,255.755c-3,0-5.04,2.19-5.04,5.19c0,3,1.98,5.19,5.04,5.19
		c2.94,0,4.95-2.16,4.95-5.19S120.23,255.755,117.29,255.755 M617.594,267.815c-1.86,0-3.42-0.51-4.83-1.47l0.93-1.44
		c1.17,0.84,2.43,1.2,3.9,1.2c1.62,0,2.67-0.81,2.67-2.01c0-1.29-1.47-1.95-3.06-2.58c-2.16-0.84-3.96-1.86-3.96-3.99
		c0-2.22,2.04-3.36,4.29-3.36c1.44,0,2.82,0.42,4.02,1.2l-0.81,1.32c-0.96-0.54-2.04-0.84-3.12-0.84c-1.35,0-2.55,0.45-2.55,1.68
		c0,1.2,1.23,1.8,2.79,2.4c2.4,0.9,4.23,1.95,4.23,4.17C622.094,266.315,620.204,267.815,617.594,267.815 M602.625,267.815
		c-2.58,0-4.23-1.41-4.23-3.69c0-2.97,2.73-4.68,6.63-4.68c0.99,0,1.74,0.03,2.43,0.12v-0.9c0-1.86-1.32-2.79-3.36-2.79
		c-1.44,0-2.91,0.42-4.38,1.11l-0.63-1.56c1.8-0.84,3.51-1.26,5.19-1.26c3.03,0,5.04,1.59,5.04,4.59v8.819h-1.35l-0.33-2.4
		C606.674,266.765,604.964,267.815,602.625,267.815 M605.294,260.975c-3.12,0-4.98,1.08-4.98,3.03c0,1.32,0.96,2.1,2.61,2.1
		c2.73,0,4.44-1.98,4.53-5.01C606.734,261.005,606.164,260.975,605.294,260.975 M593.115,267.815c-2.16,0-3.51-1.26-3.51-3.99v-7.89
		l-2.58-0.12v-1.5h2.58v-4.41h1.83v4.41h4.74v1.62h-4.74v7.89c0,1.68,0.69,2.25,1.86,2.25c0.93,0,1.77-0.3,2.61-0.9l0.81,1.38
		C595.725,267.305,594.495,267.815,593.115,267.815 M577.755,267.815c-2.58,0-4.23-1.41-4.23-3.69c0-2.97,2.73-4.68,6.63-4.68
		c0.99,0,1.74,0.03,2.43,0.12v-0.9c0-1.86-1.32-2.79-3.36-2.79c-1.44,0-2.91,0.42-4.38,1.11l-0.63-1.56
		c1.8-0.84,3.51-1.26,5.19-1.26c3.03,0,5.04,1.59,5.04,4.59v8.819h-1.35l-0.33-2.4C581.805,266.765,580.094,267.815,577.755,267.815
		 M580.425,260.975c-3.12,0-4.98,1.08-4.98,3.03c0,1.32,0.96,2.1,2.61,2.1c2.73,0,4.44-1.98,4.53-5.01
		C581.864,261.005,581.295,260.975,580.425,260.975 M568.245,267.815c-2.16,0-3.51-1.26-3.51-3.99v-7.89l-2.58-0.12v-1.5h2.58v-4.41
		h1.83v4.41h4.74v1.62h-4.74v7.89c0,1.68,0.69,2.25,1.86,2.25c0.93,0,1.77-0.3,2.61-0.9l0.81,1.38
		C570.855,267.305,569.625,267.815,568.245,267.815 M552.885,267.815c-2.58,0-4.23-1.41-4.23-3.69c0-2.97,2.73-4.68,6.63-4.68
		c0.99,0,1.74,0.03,2.43,0.12v-0.9c0-1.86-1.32-2.79-3.36-2.79c-1.44,0-2.91,0.42-4.38,1.11l-0.63-1.56
		c1.8-0.84,3.51-1.26,5.19-1.26c3.03,0,5.04,1.59,5.04,4.59v8.819h-1.35l-0.33-2.4C556.935,266.765,555.225,267.815,552.885,267.815
		 M555.555,260.975c-3.12,0-4.98,1.08-4.98,3.03c0,1.32,0.96,2.1,2.61,2.1c2.73,0,4.44-1.98,4.53-5.01
		C556.994,261.005,556.425,260.975,555.555,260.975 M494.835,267.815c-2.58,0-4.23-1.41-4.23-3.69c0-2.97,2.73-4.68,6.63-4.68
		c0.99,0,1.74,0.03,2.43,0.12v-0.9c0-1.86-1.32-2.79-3.36-2.79c-1.44,0-2.91,0.42-4.38,1.11l-0.63-1.56
		c1.8-0.84,3.51-1.26,5.19-1.26c3.03,0,5.04,1.59,5.04,4.59v8.819h-1.35l-0.33-2.4C498.884,266.765,497.174,267.815,494.835,267.815
		 M497.504,260.975c-3.12,0-4.98,1.08-4.98,3.03c0,1.32,0.96,2.1,2.61,2.1c2.73,0,4.44-1.98,4.53-5.01
		C498.944,261.005,498.374,260.975,497.504,260.975 M485.325,267.815c-2.16,0-3.51-1.26-3.51-3.99v-7.89l-2.58-0.12v-1.5h2.58v-4.41
		h1.83v4.41h4.74v1.62h-4.74v7.89c0,1.68,0.69,2.25,1.86,2.25c0.93,0,1.77-0.3,2.61-0.9l0.81,1.38
		C487.934,267.305,486.705,267.815,485.325,267.815 M454.995,267.815c-3.3,0-4.83-2.19-4.83-5.43v-8.069h1.83v8.1
		c0,2.16,0.84,3.69,3.21,3.69c2.64,0,4.2-2.37,4.2-5.19v-6.6h1.83v13.259h-1.41l-0.36-2.31
		C458.685,266.675,457.185,267.815,454.995,267.815 M356.146,267.815c-2.16,0-3.51-1.26-3.51-3.99v-7.89l-2.58-0.12v-1.5h2.58v-4.41
		h1.83v4.41h4.74v1.62h-4.74v7.89c0,1.68,0.69,2.25,1.86,2.25c0.93,0,1.77-0.3,2.61-0.9l0.81,1.38
		C358.756,267.305,357.526,267.815,356.146,267.815 M262.157,267.815c-3.3,0-4.83-2.19-4.83-5.43v-8.069h1.83v8.1
		c0,2.16,0.84,3.69,3.21,3.69c2.64,0,4.2-2.37,4.2-5.19v-6.6h1.83v13.259h-1.41l-0.36-2.31
		C265.847,266.675,264.347,267.815,262.157,267.815 M216.168,267.815c-2.58,0-4.23-1.41-4.23-3.69c0-2.97,2.73-4.68,6.63-4.68
		c0.99,0,1.74,0.03,2.43,0.12v-0.9c0-1.86-1.32-2.79-3.36-2.79c-1.44,0-2.91,0.42-4.38,1.11l-0.63-1.56
		c1.8-0.84,3.51-1.26,5.19-1.26c3.03,0,5.04,1.59,5.04,4.59v8.819h-1.35l-0.33-2.4C220.218,266.765,218.509,267.815,216.168,267.815
		 M218.838,260.975c-3.12,0-4.98,1.08-4.98,3.03c0,1.32,0.96,2.1,2.61,2.1c2.73,0,4.44-1.98,4.53-5.01
		C220.278,261.005,219.708,260.975,218.838,260.975 M204.889,267.815c-1.86,0-3.42-0.51-4.83-1.47l0.93-1.44
		c1.17,0.84,2.43,1.2,3.9,1.2c1.62,0,2.67-0.81,2.67-2.01c0-1.29-1.47-1.95-3.06-2.58c-2.16-0.84-3.96-1.86-3.96-3.99
		c0-2.22,2.04-3.36,4.29-3.36c1.44,0,2.82,0.42,4.02,1.2l-0.81,1.32c-0.96-0.54-2.04-0.84-3.12-0.84c-1.35,0-2.55,0.45-2.55,1.68
		c0,1.2,1.23,1.8,2.79,2.4c2.4,0.9,4.23,1.95,4.23,4.17C209.388,266.315,207.499,267.815,204.889,267.815 M175.039,267.815
		c-3.3,0-4.83-2.19-4.83-5.43v-8.069h1.83v8.1c0,2.16,0.84,3.69,3.21,3.69c2.64,0,4.2-2.37,4.2-5.19v-6.6h1.83v13.259h-1.41
		l-0.36-2.31C178.729,266.675,177.229,267.815,175.039,267.815 M132.439,267.815c-3.3,0-4.83-2.19-4.83-5.43v-8.069h1.83v8.1
		c0,2.16,0.84,3.69,3.21,3.69c2.64,0,4.2-2.37,4.2-5.19v-6.6h1.83v13.259h-1.41l-0.36-2.31
		C136.129,266.675,134.629,267.815,132.439,267.815 M75.321,267.815c-2.58,0-4.23-1.41-4.23-3.69c0-2.97,2.73-4.68,6.63-4.68
		c0.99,0,1.74,0.03,2.43,0.12v-0.9c0-1.86-1.32-2.79-3.36-2.79c-1.44,0-2.91,0.42-4.38,1.11l-0.63-1.56
		c1.8-0.84,3.51-1.26,5.19-1.26c3.03,0,5.04,1.59,5.04,4.59v8.819h-1.35l-0.33-2.4C79.37,266.765,77.66,267.815,75.321,267.815
		 M77.991,260.975c-3.12,0-4.98,1.08-4.98,3.03c0,1.32,0.96,2.1,2.61,2.1c2.73,0,4.44-1.98,4.53-5.01
		C79.43,261.005,78.861,260.975,77.991,260.975 M293.087,267.725h-0.66l-6.21-13.349v-0.06h1.98l3.84,8.49
		c0.27,0.6,0.51,1.2,0.72,1.89c0.21-0.69,0.45-1.29,0.72-1.89l3.81-8.49h1.98v0.06L293.087,267.725 M408.615,267.575h-1.83v-13.259
		h1.38l0.36,1.95c0.75-1.38,2.01-2.22,3.87-2.22c0.84,0,1.56,0.18,2.16,0.45l-0.54,1.62c-0.51-0.18-1.02-0.33-1.77-0.33
		c-2.16,0-3.63,1.53-3.63,4.11V267.575 M347.026,267.575h-1.83v-13.259h1.83V267.575 M336.526,267.575h-1.83v-13.259h1.38l0.36,1.95
		c0.75-1.38,2.01-2.22,3.87-2.22c0.84,0,1.56,0.18,2.16,0.45l-0.54,1.62c-0.51-0.18-1.02-0.33-1.77-0.33
		c-2.16,0-3.63,1.53-3.63,4.11V267.575 M327.647,267.575h-1.83v-11.64h-2.76v-1.62h2.76v-3.81c0-2.61,1.35-4.8,4.29-4.8
		c1.41,0,2.4,0.42,3.42,1.17l-0.84,1.32c-0.75-0.51-1.41-0.78-2.37-0.78c-1.62,0-2.67,1.05-2.67,3.09v3.81h4.35v1.62h-4.35V267.575
		 M253.007,267.575h-1.83v-8.16c0-2.22-0.9-3.66-3.12-3.66c-2.82,0-4.38,2.4-4.38,5.28v6.54h-1.83v-21.509h1.83v8.579
		c0,0.66,0,1.29-0.03,2.07c0.81-1.56,2.34-2.67,4.59-2.67c3.24,0,4.77,2.04,4.77,5.43V267.575 M145.189,267.575h-1.83v-13.259h1.38
		l0.36,1.95c0.75-1.38,2.01-2.22,3.87-2.22c0.84,0,1.56,0.18,2.16,0.45l-0.54,1.62c-0.51-0.18-1.02-0.33-1.77-0.33
		c-2.16,0-3.63,1.53-3.63,4.11V267.575 M106.01,267.575h-1.83v-8.4c0-2.13-1.08-3.42-2.94-3.42c-2.67,0-4.05,2.43-4.05,4.92v6.9
		h-1.83v-8.43c0-1.83-0.93-3.39-2.94-3.39c-2.7,0-4.08,2.43-4.08,4.92v6.9h-1.83v-13.259h1.38l0.42,2.28
		c0.87-1.62,2.4-2.55,4.32-2.55c2.01,0,3.48,0.99,4.11,2.67c0.87-1.62,2.4-2.67,4.62-2.67c3.03,0,4.65,2.01,4.65,5.22V267.575
		 M66.8,267.575h-1.95v-9.39H52.461v9.39h-1.98v-20.399h1.98v9.21H64.85v-9.21h1.95V267.575 M346.126,250.835
		c-0.84,0-1.38-0.6-1.38-1.32c0-0.78,0.54-1.38,1.38-1.38c0.84,0,1.38,0.6,1.38,1.38
		C347.506,250.265,346.936,250.835,346.126,250.835"/>
	<path fill="#9D9D9C" d="M890.945,248.778l-5.496,3l0.984,1.992l2.136-1.056l0.6-0.312c-0.12,0.432-0.192,0.864-0.288,1.32
		l-1.992,11.041h2.808l2.808-15.985z M904.553,251.323l0.432-2.424h-7.993l-2.352,8.113l0.408,0.312
		c0.888-0.312,1.8-0.504,2.736-0.504c1.776,0,3.048,0.792,3.048,2.328c0,0.192,0,0.384-0.048,0.6
		c-0.336,1.848-1.872,2.784-3.672,2.784c-1.44,0-2.472-0.528-3.048-1.392l-1.68,1.848c0.984,1.272,2.688,2.088,4.8,2.088
		c3.288,0,5.833-1.896,6.337-4.92c0.072-0.432,0.12-0.816,0.12-1.2c0-2.736-1.944-4.2-4.848-4.2c-0.384,0-0.72,0.024-1.032,0.048
		l1.056-3.48z M907.024,261.739c-0.816,0-1.584,0.504-1.776,1.464c-0.024,0.12-0.024,0.24-0.024,0.336
		c0,0.912,0.648,1.512,1.392,1.512h0.12c-0.36,1.008-1.032,1.776-2.04,2.544l0.576,0.696c1.68-1.128,2.808-2.64,3.216-4.296
		c0.072-0.24,0.096-0.48,0.096-0.696C908.585,262.267,907.889,261.739,907.024,261.739z M922.745,251.323l0.432-2.424h-7.993
		l-2.352,8.113l0.408,0.312c0.888-0.312,1.8-0.504,2.736-0.504c1.776,0,3.048,0.792,3.048,2.328c0,0.192,0,0.384-0.048,0.6
		c-0.336,1.848-1.872,2.784-3.672,2.784c-1.44,0-2.472-0.528-3.048-1.392l-1.68,1.848c0.984,1.272,2.688,2.088,4.8,2.088
		c3.288,0,5.833-1.896,6.337-4.92c0.072-0.432,0.12-0.816,0.12-1.2c0-2.736-1.944-4.2-4.848-4.2c-0.384,0-0.72,0.024-1.032,0.048
		l1.056-3.48z M928.768,265.052c3.864,0,6.265-3.096,7.129-8.041c0.144-0.864,0.216-1.68,0.216-2.424c0-3.696-1.8-5.977-4.728-5.977
		c-3.96,0-6.241,3.072-7.129,8.017c-0.144,0.888-0.24,1.704-0.24,2.472C924.016,262.796,925.792,265.052,928.768,265.052z
		 M928.961,262.603c-1.464,0-2.184-1.368-2.184-3.504c0-0.672,0.072-1.44,0.216-2.256c0.624-3.552,2.16-5.785,4.2-5.785
		c1.464,0,2.16,1.344,2.16,3.456c0,0.696-0.072,1.464-0.216,2.28C932.513,260.347,931.001,262.603,928.961,262.603z"/>
	<path fill="#9D9D9C" d="M946.278,251.401c0.76,0,1.34,0.12,1.9,0.34l1-1.82c-0.88-0.4-1.7-0.62-2.881-0.62
		c-3.461,0-5.941,1.88-6.982,4.741h-1.5l-0.24,1.4h1.36c-0.06,0.36-0.12,0.74-0.14,1.12h-1.42l-0.26,1.4h1.7
		c0.26,2.861,2.24,5.041,5.501,5.041c1.04,0,1.92-0.18,2.801-0.6l-0.44-1.96c-0.64,0.32-1.26,0.46-2.06,0.46
		c-2.12,0-3.181-1.16-3.461-2.941h2.921l0.78-1.4h-3.741c0.02-0.38,0.06-0.76,0.16-1.12h4.161l0.76-1.4h-4.421
		C942.617,252.441,944.177,251.401,946.278,251.401z"/>
	<path fill="#7AC3A5" d="M14.041,291.527l-4.201,2.661l0.94,1.72l1.8-1.04c0.18-0.1,0.32-0.18,0.46-0.28
		c-0.02,0.32-0.04,0.62-0.04,0.92v9.382h2.32v-13.363z M21.481,291.527l-4.201,2.661l0.94,1.72l1.8-1.04
		c0.18-0.1,0.32-0.18,0.46-0.28c-0.02,0.32-0.04,0.62-0.04,0.92v9.382h2.32v-13.363z"/>
	<path fill="#000000" d="M644.143,316.174h-1.83v-19.859h1.38l0.39,2.22c1.14-1.53,2.94-2.49,5.19-2.49c3.78,0,6.54,2.88,6.54,6.84
		c0,4.08-2.76,6.99-6.569,6.99c-2.19,0-4.05-0.99-5.16-2.49c0.03,1.02,0.06,2.25,0.06,3.57V316.174 M649.123,297.755
		c-2.97,0-5.07,2.1-5.07,5.13c0,3.15,2.13,5.28,5.07,5.28c2.85,0,4.86-2.16,4.86-5.19
		C653.983,299.915,651.973,297.755,649.123,297.755 M486.225,316.174h-1.83v-19.859h1.38l0.39,2.22c1.14-1.53,2.94-2.49,5.19-2.49
		c3.78,0,6.54,2.88,6.54,6.84c0,4.08-2.76,6.99-6.57,6.99c-2.19,0-4.05-0.99-5.16-2.49c0.03,1.02,0.06,2.25,0.06,3.57V316.174
		 M491.205,297.755c-2.97,0-5.07,2.1-5.07,5.13c0,3.15,2.13,5.28,5.07,5.28c2.85,0,4.86-2.16,4.86-5.19
		C496.065,299.915,494.055,297.755,491.205,297.755 M467.025,316.174h-1.92v-0.06l2.94-6.87l-5.79-12.869v-0.06h1.92l3.81,8.49
		c0.33,0.78,0.66,1.53,0.96,2.46c0.3-0.93,0.6-1.71,0.9-2.46l3.45-8.49h1.89v0.06L467.025,316.174 M366.555,316.174h-1.83v-19.859
		h1.38l0.39,2.22c1.14-1.53,2.94-2.49,5.19-2.49c3.78,0,6.54,2.88,6.54,6.84c0,4.08-2.76,6.99-6.569,6.99
		c-2.19,0-4.05-0.99-5.16-2.49c0.03,1.02,0.06,2.25,0.06,3.57V316.174 M371.535,297.755c-2.97,0-5.07,2.1-5.07,5.13
		c0,3.15,2.13,5.28,5.07,5.28c2.85,0,4.86-2.16,4.86-5.19C376.395,299.915,374.385,297.755,371.535,297.755 M59.541,309.935
		c-6.15,0-10.35-4.77-10.35-10.59c0-6.03,4.29-10.53,10.35-10.53c3.21,0,5.52,1.14,7.68,3.33l-1.17,1.2c-1.62-1.68-3.6-2.7-6.51-2.7
		c-4.92,0-8.37,3.75-8.37,8.699c0,4.83,3.42,8.76,8.37,8.76c2.88,0,5.16-1.38,6.66-3.39l1.41,1.11
		C65.93,308.255,63.141,309.935,59.541,309.935 M706.602,309.904c-3.99,0-6.84-2.88-6.84-6.959c0-4.08,2.85-6.96,6.84-6.96
		c4.05,0,6.9,2.88,6.9,6.96C713.502,307.025,710.652,309.904,706.602,309.904 M706.602,297.695c-2.94,0-4.98,2.19-4.98,5.25
		c0,3.09,2.04,5.25,4.98,5.25c2.97,0,5.04-2.16,5.04-5.25C711.642,299.885,709.602,297.695,706.602,297.695 M626.203,309.904
		c-4.02,0-6.84-2.88-6.84-6.99c0-3.84,2.76-6.93,6.69-6.93c3.69,0,5.88,2.55,5.88,6.42c0,0.42-0.03,0.84-0.09,1.29h-10.62
		c0.3,2.82,2.46,4.5,4.95,4.5c1.86,0,3.03-0.57,4.05-1.62l1.05,1.32C629.923,309.185,628.303,309.904,626.203,309.904
		 M626.023,297.695c-2.46,0-4.38,1.74-4.74,4.38h8.85C630.073,299.255,628.453,297.695,626.023,297.695 M585.584,309.904
		c-3.99,0-6.84-2.88-6.84-6.959c0-4.08,2.85-6.96,6.84-6.96c4.05,0,6.9,2.88,6.9,6.96
		C592.484,307.025,589.634,309.904,585.584,309.904 M585.584,297.695c-2.94,0-4.98,2.19-4.98,5.25c0,3.09,2.04,5.25,4.98,5.25
		c2.97,0,5.04-2.16,5.04-5.25C590.624,299.885,588.584,297.695,585.584,297.695 M544.544,309.904c-4.02,0-6.84-2.88-6.84-6.99
		c0-3.84,2.76-6.93,6.69-6.93c3.69,0,5.88,2.55,5.88,6.42c0,0.42-0.03,0.84-0.09,1.29h-10.619c0.3,2.82,2.46,4.5,4.95,4.5
		c1.86,0,3.03-0.57,4.05-1.62l1.05,1.32C548.264,309.185,546.644,309.904,544.544,309.904 M544.364,297.695
		c-2.46,0-4.38,1.74-4.74,4.38h8.85C548.414,299.255,546.794,297.695,544.364,297.695 M331.606,309.904
		c-3.99,0-6.84-2.88-6.84-6.959c0-4.08,2.85-6.96,6.84-6.96c4.05,0,6.9,2.88,6.9,6.96
		C338.506,307.025,335.656,309.904,331.606,309.904 M331.606,297.695c-2.94,0-4.98,2.19-4.98,5.25c0,3.09,2.04,5.25,4.98,5.25
		c2.97,0,5.04-2.16,5.04-5.25C336.646,299.885,334.606,297.695,331.606,297.695 M317.746,309.904c-3.3,0-6.6-2.43-6.6-6.99
		c0-4.38,3.18-6.9,6.78-6.9c1.92,0,3.39,0.6,4.74,1.8l-1.05,1.26c-1.08-0.93-2.13-1.35-3.69-1.35c-2.76,0-4.92,2.07-4.92,5.19
		c0,3.18,2.13,5.28,4.89,5.28c1.8,0,2.88-0.57,3.96-1.59l1.02,1.32C321.496,309.215,320.056,309.904,317.746,309.904
		 M294.647,309.904c-3.99,0-6.84-2.88-6.84-6.959c0-4.08,2.85-6.96,6.84-6.96c4.05,0,6.9,2.88,6.9,6.96
		C301.546,307.025,298.696,309.904,294.647,309.904 M294.647,297.695c-2.94,0-4.98,2.19-4.98,5.25c0,3.09,2.04,5.25,4.98,5.25
		c2.97,0,5.04-2.16,5.04-5.25C299.686,299.885,297.647,297.695,294.647,297.695 M269.687,309.904c-4.02,0-6.84-2.88-6.84-6.99
		c0-3.84,2.76-6.93,6.69-6.93c3.69,0,5.88,2.55,5.88,6.42c0,0.42-0.03,0.84-0.09,1.29h-10.62c0.3,2.82,2.46,4.5,4.95,4.5
		c1.86,0,3.03-0.57,4.05-1.62l1.05,1.32C273.407,309.185,271.787,309.904,269.687,309.904 M269.507,297.695
		c-2.46,0-4.38,1.74-4.74,4.38h8.849C273.557,299.255,271.937,297.695,269.507,297.695 M226.158,309.904
		c-3.99,0-6.84-2.88-6.84-6.959c0-4.08,2.85-6.96,6.84-6.96c4.05,0,6.9,2.88,6.9,6.96
		C233.057,307.025,230.208,309.904,226.158,309.904 M226.158,297.695c-2.94,0-4.98,2.19-4.98,5.25c0,3.09,2.04,5.25,4.98,5.25
		c2.97,0,5.04-2.16,5.04-5.25C231.198,299.885,229.158,297.695,226.158,297.695 M212.298,309.904c-3.3,0-6.6-2.43-6.6-6.99
		c0-4.38,3.18-6.9,6.78-6.9c1.92,0,3.39,0.6,4.74,1.8l-1.05,1.26c-1.08-0.93-2.13-1.35-3.69-1.35c-2.76,0-4.92,2.07-4.92,5.19
		c0,3.18,2.13,5.28,4.89,5.28c1.8,0,2.88-0.57,3.96-1.59l1.02,1.32C216.048,309.215,214.608,309.904,212.298,309.904
		 M190.548,309.904c-4.02,0-6.84-2.88-6.84-6.99c0-3.84,2.76-6.93,6.69-6.93c3.69,0,5.88,2.55,5.88,6.42c0,0.42-0.03,0.84-0.09,1.29
		h-10.62c0.3,2.82,2.46,4.5,4.95,4.5c1.86,0,3.03-0.57,4.05-1.62l1.05,1.32C194.268,309.185,192.648,309.904,190.548,309.904
		 M190.368,297.695c-2.46,0-4.38,1.74-4.74,4.38h8.849C194.418,299.255,192.798,297.695,190.368,297.695 M114.44,309.904
		c-4.02,0-6.84-2.88-6.84-6.99c0-3.84,2.76-6.93,6.689-6.93c3.69,0,5.88,2.55,5.88,6.42c0,0.42-0.03,0.84-0.09,1.29h-10.62
		c0.3,2.82,2.46,4.5,4.95,4.5c1.86,0,3.03-0.57,4.05-1.62l1.05,1.32C118.16,309.185,116.54,309.904,114.44,309.904 M114.26,297.695
		c-2.46,0-4.38,1.74-4.74,4.38h8.849C118.31,299.255,116.69,297.695,114.26,297.695 M679.333,309.875c-3.93,0-6.66-2.94-6.66-6.99
		c0-3.93,2.76-6.84,6.66-6.84c2.16,0,4.05,0.96,5.13,2.52c-0.03-1.14-0.06-2.34-0.06-3.6v-6.9h1.83v21.509h-1.41l-0.27-2.37
		C683.473,308.855,681.643,309.875,679.333,309.875 M679.453,297.755c-2.94,0-4.95,2.16-4.95,5.19c0,3.03,2.01,5.19,4.95,5.19
		c3.06,0,5.01-2.19,5.01-5.19C684.463,299.945,682.453,297.755,679.453,297.755 M608.744,309.875c-3.93,0-6.66-2.94-6.66-6.99
		c0-3.93,2.76-6.84,6.66-6.84c2.16,0,4.05,0.96,5.13,2.52c-0.03-1.14-0.06-2.34-0.06-3.6v-6.9h1.83v21.509h-1.41l-0.27-2.37
		C612.884,308.855,611.054,309.875,608.744,309.875 M608.864,297.755c-2.94,0-4.95,2.16-4.95,5.19c0,3.03,2.01,5.19,4.95,5.19
		c3.06,0,5.01-2.19,5.01-5.19C613.874,299.945,611.864,297.755,608.864,297.755 M252.227,309.875c-3.93,0-6.66-2.94-6.66-6.99
		c0-3.93,2.76-6.84,6.66-6.84c2.16,0,4.05,0.96,5.13,2.52c-0.03-1.14-0.06-2.34-0.06-3.6v-6.9h1.83v21.509h-1.41l-0.27-2.37
		C256.367,308.855,254.537,309.875,252.227,309.875 M252.347,297.755c-2.94,0-4.95,2.16-4.95,5.19c0,3.03,2.01,5.19,4.95,5.19
		c3.06,0,5.01-2.19,5.01-5.19C257.357,299.945,255.347,297.755,252.347,297.755 M173.089,309.875c-3.93,0-6.66-2.94-6.66-6.99
		c0-3.93,2.76-6.84,6.66-6.84c2.16,0,4.05,0.96,5.13,2.52c-0.03-1.14-0.06-2.34-0.06-3.6v-6.9h1.83v21.509h-1.41l-0.27-2.37
		C177.229,308.855,175.399,309.875,173.089,309.875 M173.209,297.755c-2.94,0-4.95,2.16-4.95,5.19c0,3.03,2.01,5.19,4.95,5.19
		c3.06,0,5.01-2.19,5.01-5.19C178.219,299.945,176.209,297.755,173.209,297.755 M662.443,309.815c-2.58,0-4.23-1.41-4.23-3.69
		c0-2.97,2.73-4.68,6.63-4.68c0.99,0,1.74,0.03,2.43,0.12v-0.9c0-1.86-1.32-2.79-3.36-2.79c-1.44,0-2.91,0.42-4.38,1.11l-0.63-1.56
		c1.8-0.84,3.51-1.26,5.19-1.26c3.03,0,5.04,1.59,5.04,4.59v8.82h-1.35l-0.33-2.4C666.493,308.765,664.783,309.815,662.443,309.815
		 M665.113,302.975c-3.12,0-4.98,1.08-4.98,3.03c0,1.32,0.96,2.1,2.61,2.1c2.73,0,4.44-1.98,4.53-5.01
		C666.553,303.005,665.983,302.975,665.113,302.975 M573.644,309.815c-2.16,0-3.51-1.26-3.51-3.99v-7.89l-2.58-0.12v-1.5h2.58v-4.41
		h1.83v4.41h4.74v1.62h-4.74v7.89c0,1.68,0.69,2.25,1.86,2.25c0.93,0,1.77-0.3,2.61-0.9l0.81,1.38
		C576.254,309.305,575.024,309.815,573.644,309.815 M449.564,309.815c-1.86,0-3.42-0.51-4.83-1.47l0.93-1.44
		c1.17,0.84,2.43,1.2,3.9,1.2c1.62,0,2.67-0.81,2.67-2.01c0-1.29-1.47-1.95-3.06-2.58c-2.16-0.84-3.96-1.86-3.96-3.99
		c0-2.22,2.04-3.36,4.29-3.36c1.44,0,2.82,0.42,4.02,1.2l-0.81,1.32c-0.96-0.54-2.04-0.84-3.12-0.84c-1.35,0-2.55,0.45-2.55,1.68
		c0,1.2,1.23,1.8,2.79,2.4c2.4,0.9,4.23,1.95,4.23,4.17C454.064,308.315,452.174,309.815,449.564,309.815 M434.595,309.815
		c-2.58,0-4.23-1.41-4.23-3.69c0-2.97,2.73-4.68,6.63-4.68c0.99,0,1.74,0.03,2.43,0.12v-0.9c0-1.86-1.32-2.79-3.36-2.79
		c-1.44,0-2.91,0.42-4.38,1.11l-0.63-1.56c1.8-0.84,3.51-1.26,5.19-1.26c3.03,0,5.04,1.59,5.04,4.59v8.82h-1.35l-0.33-2.4
		C438.645,308.765,436.935,309.815,434.595,309.815 M437.265,302.975c-3.12,0-4.98,1.08-4.98,3.03c0,1.32,0.96,2.1,2.61,2.1
		c2.73,0,4.44-1.98,4.53-5.01C438.705,303.005,438.135,302.975,437.265,302.975 M425.085,309.815c-2.16,0-3.51-1.26-3.51-3.99v-7.89
		l-2.58-0.12v-1.5h2.58v-4.41h1.83v4.41h4.74v1.62h-4.74v7.89c0,1.68,0.69,2.25,1.86,2.25c0.93,0,1.77-0.3,2.61-0.9l0.81,1.38
		C427.695,309.305,426.465,309.815,425.085,309.815 M409.725,309.815c-2.58,0-4.23-1.41-4.23-3.69c0-2.97,2.73-4.68,6.63-4.68
		c0.99,0,1.74,0.03,2.43,0.12v-0.9c0-1.86-1.32-2.79-3.36-2.79c-1.44,0-2.91,0.42-4.38,1.11l-0.63-1.56
		c1.8-0.84,3.51-1.26,5.19-1.26c3.03,0,5.04,1.59,5.04,4.59v8.82h-1.35l-0.33-2.4C413.775,308.765,412.065,309.815,409.725,309.815
		 M412.395,302.975c-3.12,0-4.98,1.08-4.98,3.03c0,1.32,0.96,2.1,2.61,2.1c2.73,0,4.44-1.98,4.53-5.01
		C413.835,303.005,413.265,302.975,412.395,302.975 M400.215,309.815c-2.16,0-3.51-1.26-3.51-3.99v-7.89l-2.58-0.12v-1.5h2.58v-4.41
		h1.83v4.41h4.74v1.62h-4.74v7.89c0,1.68,0.69,2.25,1.86,2.25c0.93,0,1.77-0.3,2.61-0.9l0.81,1.38
		C402.825,309.305,401.595,309.815,400.215,309.815 M384.855,309.815c-2.58,0-4.23-1.41-4.23-3.69c0-2.97,2.73-4.68,6.63-4.68
		c0.99,0,1.74,0.03,2.43,0.12v-0.9c0-1.86-1.32-2.79-3.36-2.79c-1.44,0-2.91,0.42-4.38,1.11l-0.63-1.56
		c1.8-0.84,3.51-1.26,5.19-1.26c3.03,0,5.04,1.59,5.04,4.59v8.82h-1.35l-0.33-2.4C388.905,308.765,387.195,309.815,384.855,309.815
		 M387.525,302.975c-3.12,0-4.98,1.08-4.98,3.03c0,1.32,0.96,2.1,2.61,2.1c2.73,0,4.44-1.98,4.53-5.01
		C388.965,303.005,388.395,302.975,387.525,302.975 M152.449,309.815c-1.86,0-3.42-0.51-4.83-1.47l0.93-1.44
		c1.17,0.84,2.43,1.2,3.9,1.2c1.62,0,2.67-0.81,2.67-2.01c0-1.29-1.47-1.95-3.06-2.58c-2.16-0.84-3.96-1.86-3.96-3.99
		c0-2.22,2.04-3.36,4.29-3.36c1.44,0,2.82,0.42,4.02,1.2l-0.81,1.32c-0.96-0.54-2.04-0.84-3.12-0.84c-1.35,0-2.55,0.45-2.55,1.68
		c0,1.2,1.23,1.8,2.79,2.4c2.4,0.9,4.23,1.95,4.23,4.17C156.949,308.315,155.059,309.815,152.449,309.815 M137.479,309.815
		c-2.58,0-4.23-1.41-4.23-3.69c0-2.97,2.73-4.68,6.63-4.68c0.99,0,1.74,0.03,2.43,0.12v-0.9c0-1.86-1.32-2.79-3.36-2.79
		c-1.44,0-2.91,0.42-4.38,1.11l-0.63-1.56c1.8-0.84,3.51-1.26,5.19-1.26c3.03,0,5.04,1.59,5.04,4.59v8.82h-1.35l-0.33-2.4
		C141.529,308.765,139.819,309.815,137.479,309.815 M140.149,302.975c-3.12,0-4.98,1.08-4.98,3.03c0,1.32,0.96,2.1,2.61,2.1
		c2.73,0,4.44-1.98,4.53-5.01C141.589,303.005,141.019,302.975,140.149,302.975 M127.969,309.815c-2.16,0-3.51-1.26-3.51-3.99v-7.89
		l-2.58-0.12v-1.5h2.58v-4.41h1.83v4.41h4.74v1.62h-4.74v7.89c0,1.68,0.69,2.25,1.86,2.25c0.93,0,1.77-0.3,2.61-0.9l0.81,1.38
		C130.579,309.305,129.349,309.815,127.969,309.815 M91.1,309.815c-3.3,0-4.83-2.19-4.83-5.43v-8.07h1.83v8.1
		c0,2.16,0.84,3.69,3.21,3.69c2.64,0,4.2-2.37,4.2-5.19v-6.6h1.83v13.26h-1.41l-0.36-2.31C94.79,308.675,93.29,309.815,91.1,309.815
		 M728.382,309.575h-1.83v-8.13c0-2.25-0.84-3.69-3.06-3.69c-2.67,0-4.44,1.92-4.44,4.68v7.14h-1.83v-13.26h1.38l0.42,2.25
		c0.78-1.41,2.4-2.52,4.65-2.52c3.09,0,4.71,1.98,4.71,5.43V309.575 M692.743,309.575h-1.83v-13.26h1.38l0.36,1.95
		c0.75-1.38,2.01-2.22,3.87-2.22c0.84,0,1.56,0.18,2.16,0.45l-0.54,1.62c-0.51-0.18-1.02-0.33-1.77-0.33
		c-2.16,0-3.63,1.53-3.63,4.11V309.575 M564.974,309.575h-1.83v-8.13c0-2.25-0.84-3.69-3.06-3.69c-2.67,0-4.44,1.92-4.44,4.68v7.14
		h-1.83v-13.26h1.38l0.42,2.25c0.78-1.41,2.4-2.52,4.65-2.52c3.09,0,4.71,1.98,4.71,5.43V309.575 M533.985,309.575h-1.83v-13.26
		h1.83V309.575 M527.654,309.575h-1.83v-8.4c0-2.13-1.08-3.42-2.94-3.42c-2.67,0-4.05,2.43-4.05,4.92v6.9h-1.83v-8.43
		c0-1.83-0.93-3.39-2.94-3.39c-2.7,0-4.08,2.43-4.08,4.92v6.9h-1.83v-13.26h1.38l0.42,2.28c0.87-1.62,2.4-2.55,4.32-2.55
		c2.01,0,3.48,0.99,4.11,2.67c0.87-1.62,2.4-2.67,4.62-2.67c3.03,0,4.65,2.01,4.65,5.22V309.575 M503.475,309.575h-1.83v-13.26h1.83
		V309.575 M353.385,309.575h-1.83v-8.13c0-2.25-0.84-3.69-3.06-3.69c-2.67,0-4.44,1.92-4.44,4.68v7.14h-1.83v-13.26h1.38l0.42,2.25
		c0.78-1.41,2.4-2.52,4.65-2.52c3.09,0,4.71,1.98,4.71,5.43V309.575 M280.787,309.575h-1.83v-13.26h1.38l0.36,1.95
		c0.75-1.38,2.01-2.22,3.87-2.22c0.84,0,1.56,0.18,2.16,0.45l-0.54,1.62c-0.51-0.18-1.02-0.33-1.77-0.33
		c-2.16,0-3.63,1.53-3.63,4.11V309.575 M238.608,309.575h-1.83v-13.26h1.38l0.36,1.95c0.75-1.38,2.01-2.22,3.87-2.22
		c0.84,0,1.56,0.18,2.16,0.45l-0.54,1.62c-0.51-0.18-1.02-0.33-1.77-0.33c-2.16,0-3.63,1.53-3.63,4.11V309.575 M103.88,309.575
		h-1.83l-0.03-21.509h1.83L103.88,309.575 M81.95,309.575h-1.83v-8.16c0-2.22-0.9-3.66-3.12-3.66c-2.82,0-4.38,2.4-4.38,5.28v6.54
		h-1.83v-21.509h1.83v8.58c0,0.66,0,1.29-0.03,2.07c0.81-1.56,2.34-2.67,4.59-2.67c3.24,0,4.77,2.04,4.77,5.43V309.575
		 M705.012,293.465l-0.93-1.08l3.96-3.39l1.2,1.41L705.012,293.465 M533.085,292.835c-0.84,0-1.38-0.6-1.38-1.32
		c0-0.78,0.54-1.38,1.38-1.38c0.84,0,1.38,0.6,1.38,1.38C534.465,292.265,533.895,292.835,533.085,292.835 M502.575,292.835
		c-0.84,0-1.38-0.6-1.38-1.32c0-0.78,0.54-1.38,1.38-1.38s1.38,0.6,1.38,1.38C503.955,292.265,503.385,292.835,502.575,292.835"/>
	<path fill="#9D9D9C" d="M888.041,290.778l-5.496,3l0.984,1.992l2.136-1.056l0.6-0.312c-0.12,0.432-0.192,0.864-0.288,1.32
		l-1.992,11.041h2.808l2.808-15.985z M897.473,290.586c-3.024,0-5.28,1.92-5.809,4.872c-0.072,0.384-0.096,0.744-0.096,1.08
		c0,2.592,1.824,4.272,4.128,4.272c1.248,0,2.184-0.288,3.192-1.032c-1.176,2.952-3.648,4.776-7.345,4.896l0.168,2.304
		c6.049-0.096,9.337-3.96,10.369-9.145l0.072-0.336c0.12-0.6,0.168-1.176,0.168-1.728
		C902.322,292.698,900.642,290.586,897.473,290.586z M896.513,298.507c-1.44,0-2.232-1.032-2.232-2.328
		c0-0.192,0.024-0.384,0.048-0.576c0.312-1.656,1.44-2.568,3.024-2.592c1.344,0,2.328,0.936,2.328,2.28
		c0,0.168-0.024,0.336-0.048,0.528C899.37,297.355,898.289,298.507,896.513,298.507z M905.225,303.739
		c-0.816,0-1.584,0.504-1.776,1.464c-0.024,0.12-0.024,0.24-0.024,0.336c0,0.912,0.648,1.512,1.392,1.512h0.12
		c-0.36,1.008-1.032,1.776-2.04,2.544l0.576,0.696c1.68-1.128,2.808-2.64,3.216-4.296c0.072-0.24,0.096-0.48,0.096-0.696
		C906.785,304.267,906.089,303.739,905.225,303.739z M914.897,307.028c3.504,0,5.881-1.608,6.385-4.44
		c0.048-0.288,0.072-0.576,0.072-0.84c0-1.608-0.888-2.808-2.112-3.384c1.488-0.624,2.976-2.04,2.976-4.2
		c0-2.088-1.728-3.576-4.512-3.576c-3.12,0-5.424,1.656-5.881,4.224c-0.048,0.216-0.048,0.456-0.048,0.648
		c0,1.344,0.72,2.448,1.752,2.904c-1.824,0.552-3.216,2.112-3.552,3.96c-0.048,0.288-0.072,0.576-0.072,0.864
		C909.904,305.564,911.825,307.028,914.897,307.028z M916.601,297.235c-1.368,0-2.184-0.672-2.184-1.752
		c0-1.584,1.2-2.592,2.88-2.592c1.368,0,2.184,0.672,2.184,1.704C919.481,296.131,918.257,297.235,916.601,297.235z
		 M915.305,304.603c-1.512,0-2.544-0.648-2.544-1.968c0-0.168,0.024-0.312,0.048-0.48c0.264-1.536,1.584-2.64,3.312-2.64
		c1.608,0,2.472,0.816,2.472,2.064C918.593,303.499,917.105,304.603,915.305,304.603z M928.768,307.052
		c3.864,0,6.265-3.096,7.129-8.041c0.144-0.864,0.216-1.68,0.216-2.424c0-3.696-1.8-5.977-4.728-5.977
		c-3.96,0-6.241,3.072-7.129,8.017c-0.144,0.888-0.24,1.704-0.24,2.472C924.016,304.796,925.792,307.052,928.768,307.052z
		 M928.961,304.603c-1.464,0-2.184-1.368-2.184-3.504c0-0.672,0.072-1.44,0.216-2.256c0.624-3.552,2.16-5.785,4.2-5.785
		c1.464,0,2.16,1.344,2.16,3.456c0,0.696-0.072,1.464-0.216,2.28C932.513,302.347,931.001,304.603,928.961,304.603z"/>
	<path fill="#9D9D9C" d="M946.278,293.401c0.76,0,1.34,0.12,1.9,0.34l1-1.82c-0.88-0.4-1.7-0.62-2.881-0.62
		c-3.461,0-5.941,1.88-6.982,4.741h-1.5l-0.24,1.4h1.36c-0.06,0.36-0.12,0.74-0.14,1.12h-1.42l-0.26,1.4h1.7
		c0.26,2.861,2.24,5.041,5.501,5.041c1.04,0,1.92-0.18,2.801-0.6l-0.44-1.96c-0.64,0.32-1.26,0.46-2.06,0.46
		c-2.12,0-3.181-1.16-3.461-2.941h2.921l0.78-1.4h-3.741c0.02-0.38,0.06-0.76,0.16-1.12h4.161l0.76-1.4h-4.421
		C942.617,294.441,944.177,293.401,946.278,293.401z"/>
</g>
</svg>
