<!-- Generator: Adobe InDesign 21.0 SVG Export Plug-in, SVG Library version: 9.3 build 128 -->
<!DOCTYPE svg PUBLIC "-//W3C//DTD SVG 1.1//EN" "http://www.w3.org/Graphics/SVG/1.1/DTD/svg11.dtd">
<svg version="1.1" xmlns="http://www.w3.org/2000/svg" xmlns:xlink="http://www.w3.org/1999/xlink" x="0%" y="0%" width="100%"
	 height="100%" viewBox="0 0 982.542 285.32" preserveAspectRatio="xMidYMid slice" overflow="visible" xml:space="preserve">
<clipPath id="clp_unq_id_1" fill="none">
	<path shape-rendering="crispEdges" stroke="#000000" d="M0,0h982.542v285.32H0V0"/>
</clipPath>
<g clip-path="url(#clp_unq_id_1)" fill="none">
	<path fill="#000000" d="M245.325,69.955c-2.58,0-4.47-0.87-6-2.37l1.14-1.29c1.29,1.26,2.79,1.95,4.77,1.95
		c2.7,0,4.8-1.41,4.8-4.35c0-1.02,0-2.01,0.03-3c-1.23,1.59-3.15,2.4-5.1,2.4c-4.08,0-6.66-3.09-6.66-6.87c0-3.81,2.52-6.9,6.57-6.9
		c2.16,0,4.05,0.84,5.22,2.46l0.42-2.19h1.35v14.129C251.865,68.005,248.835,69.955,245.325,69.955 M245.085,51.235
		c-3.12,0-4.92,2.28-4.92,5.16c0,2.94,1.89,5.19,4.89,5.19c3.33,0,5.04-2.37,5.04-5.16
		C250.095,53.635,248.445,51.235,245.085,51.235 M531.221,69.655h-1.83V49.795h1.38l0.39,2.22c1.14-1.53,2.94-2.49,5.19-2.49
		c3.78,0,6.54,2.88,6.54,6.84c0,4.08-2.76,6.99-6.57,6.99c-2.19,0-4.05-0.99-5.16-2.49c0.03,1.02,0.06,2.25,0.06,3.57V69.655
		 M536.2,51.235c-2.97,0-5.07,2.1-5.07,5.13c0,3.15,2.13,5.28,5.07,5.28c2.85,0,4.86-2.16,4.86-5.19
		C541.06,53.395,539.05,51.235,536.2,51.235 M24.29,63.415c-6.15,0-10.35-4.77-10.35-10.59c0-6.03,4.29-10.529,10.35-10.529
		c3.21,0,5.52,1.14,7.68,3.33l-1.17,1.2c-1.62-1.68-3.6-2.7-6.51-2.7c-4.92,0-8.37,3.75-8.37,8.7c0,4.83,3.42,8.76,8.37,8.76
		c2.88,0,5.16-1.38,6.66-3.39l1.41,1.11C30.679,61.735,27.889,63.415,24.29,63.415 M496.271,63.385c-3.99,0-6.84-2.88-6.84-6.96
		c0-4.08,2.85-6.96,6.84-6.96c4.05,0,6.9,2.88,6.9,6.96C503.171,60.505,500.321,63.385,496.271,63.385 M496.271,51.175
		c-2.94,0-4.98,2.19-4.98,5.25c0,3.09,2.04,5.25,4.98,5.25c2.97,0,5.04-2.16,5.04-5.25
		C501.311,53.365,499.271,51.175,496.271,51.175 M482.412,63.385c-3.3,0-6.6-2.43-6.6-6.99c0-4.38,3.18-6.9,6.78-6.9
		c1.92,0,3.39,0.6,4.74,1.8l-1.05,1.26c-1.08-0.93-2.13-1.35-3.69-1.35c-2.76,0-4.92,2.07-4.92,5.19c0,3.18,2.13,5.28,4.89,5.28
		c1.8,0,2.88-0.57,3.96-1.59l1.02,1.32C486.161,62.695,484.721,63.385,482.412,63.385 M447.672,63.385c-3.99,0-6.84-2.88-6.84-6.96
		c0-4.08,2.85-6.96,6.84-6.96c4.05,0,6.9,2.88,6.9,6.96C454.572,60.505,451.722,63.385,447.672,63.385 M447.672,51.175
		c-2.94,0-4.98,2.19-4.98,5.25c0,3.09,2.04,5.25,4.98,5.25c2.97,0,5.04-2.16,5.04-5.25
		C452.712,53.365,450.672,51.175,447.672,51.175 M376.993,63.385c-3.99,0-6.84-2.88-6.84-6.96c0-4.08,2.85-6.96,6.84-6.96
		c4.05,0,6.9,2.88,6.9,6.96C383.892,60.505,381.043,63.385,376.993,63.385 M376.993,51.175c-2.94,0-4.98,2.19-4.98,5.25
		c0,3.09,2.04,5.25,4.98,5.25c2.97,0,5.04-2.16,5.04-5.25C382.033,53.365,379.992,51.175,376.993,51.175 M209.776,63.385
		c-3.3,0-6.6-2.43-6.6-6.99c0-4.38,3.18-6.9,6.78-6.9c1.92,0,3.39,0.6,4.74,1.8l-1.05,1.26c-1.08-0.93-2.13-1.35-3.69-1.35
		c-2.76,0-4.92,2.07-4.92,5.19c0,3.18,2.13,5.28,4.89,5.28c1.8,0,2.88-0.57,3.96-1.59l1.02,1.32
		C213.526,62.695,212.086,63.385,209.776,63.385 M160.516,63.385c-4.02,0-6.84-2.88-6.84-6.99c0-3.84,2.76-6.93,6.69-6.93
		c3.69,0,5.88,2.55,5.88,6.42c0,0.42-0.03,0.84-0.09,1.29h-10.619c0.3,2.82,2.46,4.5,4.95,4.5c1.86,0,3.03-0.57,4.05-1.62l1.05,1.32
		C164.236,62.665,162.616,63.385,160.516,63.385 M160.336,51.175c-2.46,0-4.38,1.74-4.74,4.38h8.849
		C164.386,52.735,162.766,51.175,160.336,51.175 M96.828,63.385c-4.02,0-6.84-2.88-6.84-6.99c0-3.84,2.76-6.93,6.69-6.93
		c3.69,0,5.88,2.55,5.88,6.42c0,0.42-0.03,0.84-0.09,1.29H91.848c0.3,2.82,2.46,4.5,4.95,4.5c1.86,0,3.03-0.57,4.05-1.62l1.05,1.32
		C100.547,62.665,98.928,63.385,96.828,63.385 M96.648,51.175c-2.46,0-4.38,1.74-4.74,4.38h8.85
		C100.698,52.735,99.078,51.175,96.648,51.175 M310.574,63.355c-3.93,0-6.66-2.94-6.66-6.99c0-3.93,2.76-6.84,6.66-6.84
		c2.16,0,4.05,0.96,5.13,2.52c-0.03-1.14-0.06-2.34-0.06-3.6v-6.9h1.83v21.509h-1.41l-0.27-2.37
		C314.714,62.335,312.884,63.355,310.574,63.355 M310.694,51.235c-2.94,0-4.95,2.16-4.95,5.19c0,3.03,2.01,5.19,4.95,5.19
		c3.06,0,5.01-2.19,5.01-5.19C315.704,53.425,313.694,51.235,310.694,51.235 M143.057,63.355c-3.93,0-6.66-2.94-6.66-6.99
		c0-3.93,2.76-6.84,6.66-6.84c2.16,0,4.05,0.96,5.13,2.52c-0.03-1.14-0.06-2.34-0.06-3.6v-6.9h1.83v21.509h-1.41l-0.27-2.37
		C147.197,62.335,145.367,63.355,143.057,63.355 M143.177,51.235c-2.94,0-4.95,2.16-4.95,5.19c0,3.03,2.01,5.19,4.95,5.19
		c3.06,0,5.01-2.19,5.01-5.19C148.187,53.425,146.176,51.235,143.177,51.235 M571.99,63.295c-2.58,0-4.23-1.41-4.23-3.69
		c0-2.97,2.73-4.68,6.63-4.68c0.99,0,1.74,0.03,2.43,0.12v-0.9c0-1.86-1.32-2.79-3.36-2.79c-1.44,0-2.91,0.42-4.38,1.11l-0.63-1.56
		c1.8-0.84,3.51-1.26,5.19-1.26c3.03,0,5.04,1.59,5.04,4.59v8.82h-1.35l-0.33-2.4C576.04,62.245,574.33,63.295,571.99,63.295
		 M574.66,56.455c-3.12,0-4.98,1.08-4.98,3.03c0,1.32,0.96,2.1,2.61,2.1c2.73,0,4.44-1.98,4.53-5.01
		C576.1,56.485,575.53,56.455,574.66,56.455 M461.832,63.295c-1.86,0-3.42-0.51-4.83-1.47l0.93-1.44c1.17,0.84,2.43,1.2,3.9,1.2
		c1.62,0,2.67-0.81,2.67-2.01c0-1.29-1.47-1.95-3.06-2.58c-2.16-0.84-3.96-1.86-3.96-3.99c0-2.22,2.04-3.36,4.29-3.36
		c1.44,0,2.82,0.42,4.02,1.2l-0.81,1.32c-0.96-0.54-2.04-0.84-3.12-0.84c-1.35,0-2.55,0.45-2.55,1.68c0,1.2,1.23,1.8,2.79,2.4
		c2.4,0.9,4.23,1.95,4.23,4.17C466.332,61.795,464.442,63.295,461.832,63.295 M391.153,63.295c-1.86,0-3.42-0.51-4.83-1.47
		l0.93-1.44c1.17,0.84,2.43,1.2,3.9,1.2c1.62,0,2.67-0.81,2.67-2.01c0-1.29-1.47-1.95-3.06-2.58c-2.16-0.84-3.96-1.86-3.96-3.99
		c0-2.22,2.04-3.36,4.29-3.36c1.44,0,2.82,0.42,4.02,1.2l-0.81,1.32c-0.96-0.54-2.04-0.84-3.12-0.84c-1.35,0-2.55,0.45-2.55,1.68
		c0,1.2,1.23,1.8,2.79,2.4c2.4,0.9,4.23,1.95,4.23,4.17C395.652,61.795,393.763,63.295,391.153,63.295 M346.544,63.295
		c-2.58,0-4.23-1.41-4.23-3.69c0-2.97,2.73-4.68,6.63-4.68c0.99,0,1.74,0.03,2.43,0.12v-0.9c0-1.86-1.32-2.79-3.36-2.79
		c-1.44,0-2.91,0.42-4.38,1.11l-0.63-1.56c1.8-0.84,3.51-1.26,5.19-1.26c3.03,0,5.04,1.59,5.04,4.59v8.82h-1.35l-0.33-2.4
		C350.594,62.245,348.884,63.295,346.544,63.295 M349.214,56.455c-3.12,0-4.98,1.08-4.98,3.03c0,1.32,0.96,2.1,2.61,2.1
		c2.73,0,4.44-1.98,4.53-5.01C350.654,56.485,350.084,56.455,349.214,56.455 M325.334,63.295c-2.58,0-4.23-1.41-4.23-3.69
		c0-2.97,2.73-4.68,6.63-4.68c0.99,0,1.74,0.03,2.43,0.12v-0.9c0-1.86-1.32-2.79-3.36-2.79c-1.44,0-2.91,0.42-4.38,1.11l-0.63-1.56
		c1.8-0.84,3.51-1.26,5.19-1.26c3.03,0,5.04,1.59,5.04,4.59v8.82h-1.35l-0.33-2.4C329.384,62.245,327.674,63.295,325.334,63.295
		 M328.004,56.455c-3.12,0-4.98,1.08-4.98,3.03c0,1.32,0.96,2.1,2.61,2.1c2.73,0,4.44-1.98,4.53-5.01
		C329.444,56.485,328.874,56.455,328.004,56.455 M293.685,63.295c-2.58,0-4.23-1.41-4.23-3.69c0-2.97,2.73-4.68,6.63-4.68
		c0.99,0,1.74,0.03,2.43,0.12v-0.9c0-1.86-1.32-2.79-3.36-2.79c-1.44,0-2.91,0.42-4.38,1.11l-0.63-1.56
		c1.8-0.84,3.51-1.26,5.19-1.26c3.03,0,5.04,1.59,5.04,4.59v8.82h-1.35l-0.33-2.4C297.735,62.245,296.025,63.295,293.685,63.295
		 M296.355,56.455c-3.12,0-4.98,1.08-4.98,3.03c0,1.32,0.96,2.1,2.61,2.1c2.73,0,4.44-1.98,4.53-5.01
		C297.795,56.485,297.225,56.455,296.355,56.455 M282.405,63.295c-1.86,0-3.42-0.51-4.83-1.47l0.93-1.44c1.17,0.84,2.43,1.2,3.9,1.2
		c1.62,0,2.67-0.81,2.67-2.01c0-1.29-1.47-1.95-3.06-2.58c-2.16-0.84-3.96-1.86-3.96-3.99c0-2.22,2.04-3.36,4.29-3.36
		c1.44,0,2.82,0.42,4.02,1.2l-0.81,1.32c-0.96-0.54-2.04-0.84-3.12-0.84c-1.35,0-2.55,0.45-2.55,1.68c0,1.2,1.23,1.8,2.79,2.4
		c2.4,0.9,4.23,1.95,4.23,4.17C286.905,61.795,285.015,63.295,282.405,63.295 M261.195,63.295c-3.3,0-4.83-2.19-4.83-5.43v-8.07
		h1.83v8.1c0,2.16,0.84,3.69,3.21,3.69c2.64,0,4.2-2.37,4.2-5.19v-6.6h1.83v13.259h-1.41l-0.36-2.31
		C264.885,62.155,263.385,63.295,261.195,63.295 M221.236,63.295c-2.58,0-4.23-1.41-4.23-3.69c0-2.97,2.73-4.68,6.63-4.68
		c0.99,0,1.74,0.03,2.43,0.12v-0.9c0-1.86-1.32-2.79-3.36-2.79c-1.44,0-2.91,0.42-4.38,1.11l-0.63-1.56
		c1.8-0.84,3.51-1.26,5.19-1.26c3.03,0,5.04,1.59,5.04,4.59v8.82h-1.35l-0.33-2.4C225.286,62.245,223.576,63.295,221.236,63.295
		 M223.906,56.455c-3.12,0-4.98,1.08-4.98,3.03c0,1.32,0.96,2.1,2.61,2.1c2.73,0,4.44-1.98,4.53-5.01
		C225.346,56.485,224.776,56.455,223.906,56.455 M192.947,63.295c-2.58,0-4.23-1.41-4.23-3.69c0-2.97,2.73-4.68,6.63-4.68
		c0.99,0,1.74,0.03,2.43,0.12v-0.9c0-1.86-1.32-2.79-3.36-2.79c-1.44,0-2.91,0.42-4.38,1.11l-0.63-1.56
		c1.8-0.84,3.51-1.26,5.19-1.26c3.03,0,5.04,1.59,5.04,4.59v8.82h-1.35l-0.33-2.4C196.996,62.245,195.286,63.295,192.947,63.295
		 M195.617,56.455c-3.12,0-4.98,1.08-4.98,3.03c0,1.32,0.96,2.1,2.61,2.1c2.73,0,4.44-1.98,4.53-5.01
		C197.056,56.485,196.487,56.455,195.617,56.455 M119.327,63.295c-2.58,0-4.23-1.41-4.23-3.69c0-2.97,2.73-4.68,6.63-4.68
		c0.99,0,1.74,0.03,2.43,0.12v-0.9c0-1.86-1.32-2.79-3.36-2.79c-1.44,0-2.91,0.42-4.38,1.11l-0.63-1.56
		c1.8-0.84,3.51-1.26,5.19-1.26c3.03,0,5.04,1.59,5.04,4.59v8.82h-1.35l-0.33-2.4C123.377,62.245,121.667,63.295,119.327,63.295
		 M121.997,56.455c-3.12,0-4.98,1.08-4.98,3.03c0,1.32,0.96,2.1,2.61,2.1c2.73,0,4.44-1.98,4.53-5.01
		C123.437,56.485,122.867,56.455,121.997,56.455 M39.17,63.295c-2.58,0-4.23-1.41-4.23-3.69c0-2.97,2.73-4.68,6.63-4.68
		c0.99,0,1.74,0.03,2.43,0.12v-0.9c0-1.86-1.32-2.79-3.36-2.79c-1.44,0-2.91,0.42-4.38,1.11l-0.63-1.56
		c1.8-0.84,3.51-1.26,5.19-1.26c3.03,0,5.04,1.59,5.04,4.59v8.82h-1.35l-0.33-2.4C43.219,62.245,41.509,63.295,39.17,63.295
		 M41.839,56.455c-3.12,0-4.98,1.08-4.98,3.03c0,1.32,0.96,2.1,2.61,2.1c2.73,0,4.44-1.98,4.53-5.01
		C43.279,56.485,42.709,56.455,41.839,56.455 M410.653,63.205h-0.66l-6.21-13.349v-0.06h1.98l3.84,8.49c0.27,0.6,0.51,1.2,0.72,1.89
		c0.21-0.69,0.45-1.29,0.72-1.89l3.81-8.49h1.98v0.06L410.653,63.205 M181.186,63.205h-0.66l-6.21-13.349v-0.06h1.98l3.84,8.49
		c0.27,0.6,0.51,1.2,0.72,1.89c0.21-0.69,0.45-1.29,0.72-1.89l3.81-8.49h1.98v0.06L181.186,63.205 M564.31,63.055h-1.83v-8.13
		c0-2.25-0.84-3.69-3.06-3.69c-2.67,0-4.44,1.92-4.44,4.68v7.14h-1.83V49.795h1.38l0.42,2.25c0.78-1.41,2.4-2.52,4.65-2.52
		c3.09,0,4.71,1.98,4.71,5.43V63.055 M548.471,63.055h-1.83V49.795h1.83V63.055 M518.051,63.055h-1.83v-8.13
		c0-2.25-0.84-3.69-3.06-3.69c-2.67,0-4.44,1.92-4.44,4.68v7.14h-1.83V49.795h1.38l0.42,2.25c0.78-1.41,2.4-2.52,4.65-2.52
		c3.09,0,4.71,1.98,4.71,5.43V63.055 M437.292,63.055h-1.83v-8.13c0-2.25-0.84-3.69-3.06-3.69c-2.67,0-4.44,1.92-4.44,4.68v7.14
		h-1.83V49.795h1.38l0.42,2.25c0.78-1.41,2.4-2.52,4.65-2.52c3.09,0,4.71,1.98,4.71,5.43V63.055 M421.453,63.055h-1.83V49.795h1.83
		V63.055 M366.433,63.055h-1.83l-0.03-21.509h1.83L366.433,63.055 M273.945,63.055h-1.83V49.795h1.83V63.055 M107.928,63.055h-1.83
		V49.795h1.38l0.36,1.95c0.75-1.38,2.01-2.22,3.87-2.22c0.84,0,1.56,0.18,2.16,0.45l-0.54,1.62c-0.51-0.18-1.02-0.33-1.77-0.33
		c-2.16,0-3.63,1.53-3.63,4.11V63.055 M86.268,63.055h-1.83l-0.03-21.509h1.83L86.268,63.055 M79.729,63.055h-1.83l-0.03-21.509
		h1.83L79.729,63.055 M73.189,63.055h-1.83V49.795h1.83V63.055 M62.689,63.055h-1.83V49.795h1.38l0.36,1.95
		c0.75-1.38,2.01-2.22,3.87-2.22c0.84,0,1.56,0.18,2.16,0.45l-0.54,1.62c-0.51-0.18-1.02-0.33-1.77-0.33
		c-2.16,0-3.63,1.53-3.63,4.11V63.055 M52.189,63.055h-1.83V49.795h1.38l0.36,1.95c0.75-1.38,2.01-2.22,3.87-2.22
		c0.84,0,1.56,0.18,2.16,0.45l-0.54,1.62c-0.51-0.18-1.02-0.33-1.77-0.33c-2.16,0-3.63,1.53-3.63,4.11V63.055 M555.94,46.466
		l-1.29-0.72c0.54-1.38,1.26-2.07,2.25-2.07c0.57,0,1.26,0.21,1.98,0.63c0.57,0.3,0.96,0.48,1.29,0.48c0.45,0,0.81-0.33,1.08-1.05
		l1.29,0.72c-0.54,1.35-1.29,1.98-2.25,1.98c-0.51,0-1.11-0.18-1.77-0.54c-0.57-0.3-1.05-0.54-1.44-0.54
		C556.57,45.356,556.21,45.686,555.94,46.466 M547.57,46.316c-0.84,0-1.38-0.6-1.38-1.32c0-0.78,0.54-1.38,1.38-1.38
		c0.84,0,1.38,0.6,1.38,1.38C548.951,45.746,548.38,46.316,547.57,46.316 M420.553,46.316c-0.84,0-1.38-0.6-1.38-1.32
		c0-0.78,0.54-1.38,1.38-1.38c0.84,0,1.38,0.6,1.38,1.38C421.932,45.746,421.363,46.316,420.553,46.316 M273.045,46.316
		c-0.84,0-1.38-0.6-1.38-1.32c0-0.78,0.54-1.38,1.38-1.38s1.38,0.6,1.38,1.38C274.425,45.746,273.855,46.316,273.045,46.316
		 M72.289,46.316c-0.84,0-1.38-0.6-1.38-1.32c0-0.78,0.54-1.38,1.38-1.38c0.84,0,1.38,0.6,1.38,1.38
		C73.669,45.746,73.099,46.316,72.289,46.316"/>
	<path fill="#9D9D9C" d="M890.779,44.259l-5.496,3l0.984,1.992l2.136-1.056l0.6-0.312c-0.12,0.432-0.192,0.864-0.288,1.32
		l-1.992,11.041h2.808l2.808-15.985z M898.339,60.508c3.504,0,5.88-1.608,6.385-4.44c0.048-0.288,0.072-0.576,0.072-0.84
		c0-1.608-0.888-2.808-2.112-3.384c1.488-0.624,2.976-2.04,2.976-4.2c0-2.088-1.728-3.576-4.512-3.576
		c-3.12,0-5.424,1.656-5.88,4.224c-0.048,0.216-0.048,0.456-0.048,0.648c0,1.344,0.72,2.448,1.752,2.904
		c-1.824,0.552-3.216,2.112-3.552,3.96c-0.048,0.288-0.072,0.576-0.072,0.864C893.347,59.044,895.267,60.508,898.339,60.508z
		 M900.043,50.715c-1.368,0-2.184-0.672-2.184-1.752c0-1.584,1.2-2.592,2.88-2.592c1.368,0,2.184,0.672,2.184,1.704
		C902.924,49.611,901.7,50.715,900.043,50.715z M898.747,58.084c-1.512,0-2.544-0.648-2.544-1.968c0-0.168,0.024-0.312,0.048-0.48
		c0.264-1.536,1.584-2.64,3.312-2.64c1.608,0,2.472,0.816,2.472,2.064C902.036,56.98,900.547,58.084,898.747,58.084z M908.683,57.22
		c-0.816,0-1.584,0.504-1.776,1.464c-0.024,0.12-0.024,0.24-0.024,0.336c0,0.912,0.648,1.512,1.392,1.512h0.12
		c-0.36,1.008-1.032,1.776-2.04,2.544l0.576,0.696c1.68-1.128,2.808-2.64,3.216-4.296c0.072-0.24,0.096-0.48,0.096-0.696
		C910.243,57.748,909.547,57.22,908.683,57.22z M920.299,50.355c-1.224,0-2.232,0.36-3.264,1.176c1.2-3.072,3.696-5.064,7.393-4.992
		l-0.168-2.448c-6.145,0.168-9.337,4.032-10.345,9.169l-0.072,0.336c-0.12,0.624-0.168,1.2-0.168,1.776
		c0,3.048,1.608,5.16,4.848,5.16c3,0,5.28-1.968,5.833-5.016c0.072-0.36,0.096-0.696,0.096-1.008
		C924.451,51.987,922.699,50.355,920.299,50.355z M921.691,55.444c-0.288,1.656-1.488,2.64-3.048,2.64
		c-1.392,0-2.328-0.888-2.328-2.28c0-0.168,0.024-0.36,0.048-0.552c0.264-1.488,1.344-2.568,3.096-2.616
		c1.512,0,2.28,0.936,2.28,2.232C921.739,55.06,921.715,55.252,921.691,55.444z M931.459,60.532c3.864,0,6.265-3.096,7.129-8.041
		c0.144-0.864,0.216-1.68,0.216-2.424c0-3.696-1.8-5.977-4.728-5.977c-3.96,0-6.241,3.072-7.129,8.017
		c-0.144,0.888-0.24,1.704-0.24,2.472C926.706,58.276,928.482,60.532,931.459,60.532z M931.651,58.084
		c-1.464,0-2.184-1.368-2.184-3.504c0-0.672,0.072-1.44,0.216-2.256c0.624-3.552,2.16-5.785,4.2-5.785
		c1.464,0,2.16,1.344,2.16,3.456c0,0.696-0.072,1.464-0.216,2.28C935.203,55.828,933.691,58.084,931.651,58.084z"/>
	<path fill="#9D9D9C" d="M948.968,46.882c0.76,0,1.34,0.12,1.9,0.34l1-1.82c-0.88-0.4-1.7-0.62-2.881-0.62
		c-3.461,0-5.941,1.88-6.982,4.741h-1.5l-0.24,1.4h1.36c-0.06,0.36-0.12,0.74-0.14,1.12h-1.42l-0.26,1.4h1.7
		c0.26,2.861,2.24,5.041,5.501,5.041c1.04,0,1.92-0.18,2.801-0.6l-0.44-1.96c-0.64,0.32-1.26,0.46-2.06,0.46
		c-2.12,0-3.181-1.16-3.461-2.941h2.921l0.78-1.4h-3.741c0.02-0.38,0.06-0.76,0.16-1.12h4.161l0.76-1.4h-4.421
		C945.307,47.922,946.868,46.882,948.968,46.882z"/>
	<path fill="#000000" d="M193.547,111.955c-2.58,0-4.47-0.87-6-2.37l1.14-1.29c1.29,1.26,2.79,1.95,4.77,1.95
		c2.7,0,4.8-1.41,4.8-4.35c0-1.02,0-2.01,0.03-3c-1.23,1.59-3.15,2.4-5.1,2.4c-4.08,0-6.66-3.09-6.66-6.87c0-3.81,2.52-6.9,6.57-6.9
		c2.16,0,4.05,0.84,5.22,2.46l0.42-2.19h1.35v14.129C200.087,110.005,197.057,111.955,193.547,111.955 M193.307,93.235
		c-3.12,0-4.92,2.28-4.92,5.16c0,2.94,1.89,5.19,4.89,5.19c3.33,0,5.04-2.37,5.04-5.16
		C198.317,95.635,196.667,93.235,193.307,93.235 M434.563,105.385c-4.02,0-6.84-2.88-6.84-6.99c0-3.84,2.76-6.93,6.69-6.93
		c3.69,0,5.88,2.55,5.88,6.42c0,0.42-0.03,0.84-0.09,1.29h-10.62c0.3,2.82,2.46,4.5,4.95,4.5c1.86,0,3.03-0.57,4.05-1.62l1.05,1.32
		C438.283,104.665,436.663,105.385,434.563,105.385 M434.383,93.175c-2.46,0-4.38,1.74-4.74,4.38h8.85
		C438.433,94.735,436.813,93.175,434.383,93.175 M386.923,105.385c-3.99,0-6.84-2.88-6.84-6.96c0-4.08,2.85-6.96,6.84-6.96
		c4.05,0,6.9,2.88,6.9,6.96C393.823,102.505,390.973,105.385,386.923,105.385 M386.923,93.175c-2.94,0-4.98,2.19-4.98,5.25
		c0,3.09,2.04,5.25,4.98,5.25c2.97,0,5.04-2.16,5.04-5.25C391.963,95.365,389.923,93.175,386.923,93.175 M373.064,105.385
		c-3.3,0-6.6-2.43-6.6-6.99c0-4.38,3.18-6.9,6.78-6.9c1.92,0,3.39,0.6,4.74,1.8l-1.05,1.26c-1.08-0.93-2.13-1.35-3.69-1.35
		c-2.76,0-4.92,2.07-4.92,5.19c0,3.18,2.13,5.28,4.89,5.28c1.8,0,2.88-0.57,3.96-1.59l1.02,1.32
		C376.814,104.695,375.373,105.385,373.064,105.385 M356.804,105.385c-3.99,0-6.84-2.88-6.84-6.96c0-4.08,2.85-6.96,6.84-6.96
		c4.05,0,6.9,2.88,6.9,6.96C363.704,102.505,360.854,105.385,356.804,105.385 M356.804,93.175c-2.94,0-4.98,2.19-4.98,5.25
		c0,3.09,2.04,5.25,4.98,5.25c2.97,0,5.04-2.16,5.04-5.25C361.844,95.365,359.804,93.175,356.804,93.175 M327.105,105.385
		c-3.3,0-6.6-2.43-6.6-6.99c0-4.38,3.18-6.9,6.78-6.9c1.92,0,3.39,0.6,4.74,1.8l-1.05,1.26c-1.08-0.93-2.13-1.35-3.69-1.35
		c-2.76,0-4.92,2.07-4.92,5.19c0,3.18,2.13,5.28,4.89,5.28c1.8,0,2.88-0.57,3.96-1.59l1.02,1.32
		C330.855,104.695,329.415,105.385,327.105,105.385 M276.256,105.385c-3.99,0-6.84-2.88-6.84-6.96c0-4.08,2.85-6.96,6.84-6.96
		c4.05,0,6.9,2.88,6.9,6.96C283.156,102.505,280.306,105.385,276.256,105.385 M276.256,93.175c-2.94,0-4.98,2.19-4.98,5.25
		c0,3.09,2.04,5.25,4.98,5.25c2.97,0,5.04-2.16,5.04-5.25C281.296,95.365,279.256,93.175,276.256,93.175 M170.028,105.385
		c-3.99,0-6.84-2.88-6.84-6.96c0-4.08,2.85-6.96,6.84-6.96c4.05,0,6.9,2.88,6.9,6.96
		C176.928,102.505,174.077,105.385,170.028,105.385 M170.028,93.175c-2.94,0-4.98,2.19-4.98,5.25c0,3.09,2.04,5.25,4.98,5.25
		c2.97,0,5.04-2.16,5.04-5.25C175.068,95.365,173.028,93.175,170.028,93.175 M143.718,105.385c-3.99,0-6.84-2.88-6.84-6.96
		c0-4.08,2.85-6.96,6.84-6.96c4.05,0,6.9,2.88,6.9,6.96C150.618,102.505,147.768,105.385,143.718,105.385 M143.718,93.175
		c-2.94,0-4.98,2.19-4.98,5.25c0,3.09,2.04,5.25,4.98,5.25c2.97,0,5.04-2.16,5.04-5.25
		C148.758,95.365,146.718,93.175,143.718,93.175 M111.228,105.385c-4.02,0-6.84-2.88-6.84-6.99c0-3.84,2.76-6.93,6.69-6.93
		c3.69,0,5.88,2.55,5.88,6.42c0,0.42-0.03,0.84-0.09,1.29h-10.62c0.3,2.82,2.46,4.5,4.95,4.5c1.86,0,3.03-0.57,4.05-1.62l1.05,1.32
		C114.948,104.665,113.328,105.385,111.228,105.385 M111.048,93.175c-2.46,0-4.38,1.74-4.74,4.38h8.85
		C115.098,94.735,113.478,93.175,111.048,93.175 M70.609,105.385c-3.99,0-6.84-2.88-6.84-6.96c0-4.08,2.85-6.96,6.84-6.96
		c4.05,0,6.9,2.88,6.9,6.96C77.509,102.505,74.659,105.385,70.609,105.385 M70.609,93.175c-2.94,0-4.98,2.19-4.98,5.25
		c0,3.09,2.04,5.25,4.98,5.25c2.97,0,5.04-2.16,5.04-5.25C75.649,95.365,73.609,93.175,70.609,93.175 M258.796,105.355
		c-3.93,0-6.66-2.94-6.66-6.99c0-3.93,2.76-6.84,6.66-6.84c2.16,0,4.05,0.96,5.13,2.52c-0.03-1.14-0.06-2.34-0.06-3.6v-6.9h1.83
		v21.509h-1.41l-0.27-2.37C262.936,104.335,261.106,105.355,258.796,105.355 M258.916,93.235c-2.94,0-4.95,2.16-4.95,5.19
		c0,3.03,2.01,5.19,4.95,5.19c3.06,0,5.01-2.19,5.01-5.19S261.916,93.235,258.916,93.235 M93.769,105.355
		c-3.93,0-6.66-2.94-6.66-6.99c0-3.93,2.76-6.84,6.66-6.84c2.16,0,4.05,0.96,5.13,2.52c-0.03-1.14-0.06-2.34-0.06-3.6v-6.9h1.83
		v21.509h-1.41l-0.27-2.37C97.908,104.335,96.079,105.355,93.769,105.355 M93.889,93.235c-2.94,0-4.95,2.16-4.95,5.19
		c0,3.03,2.01,5.19,4.95,5.19c3.06,0,5.01-2.19,5.01-5.19S96.889,93.235,93.889,93.235 M54.35,105.355c-2.25,0-4.11-0.99-5.22-2.61
		l-0.27,2.31h-1.41V83.546h1.83v6.9c0,1.26-0.03,2.49-0.06,3.66c1.08-1.62,2.97-2.58,5.13-2.58c3.9,0,6.66,2.91,6.66,6.84
		C61.009,102.415,58.279,105.355,54.35,105.355 M54.23,93.235c-3,0-5.04,2.19-5.04,5.19s1.98,5.19,5.04,5.19
		c2.94,0,4.95-2.16,4.95-5.19C59.179,95.395,57.169,93.235,54.23,93.235 M422.623,105.295c-2.16,0-3.51-1.26-3.51-3.99v-7.89
		l-2.58-0.12v-1.5h2.58v-4.41h1.83v4.41h4.74v1.62h-4.74v7.89c0,1.68,0.69,2.25,1.86,2.25c0.93,0,1.77-0.3,2.61-0.9l0.81,1.38
		C425.233,104.785,424.003,105.295,422.623,105.295 M407.263,105.295c-2.58,0-4.23-1.41-4.23-3.69c0-2.97,2.73-4.68,6.63-4.68
		c0.99,0,1.74,0.03,2.43,0.12v-0.9c0-1.86-1.32-2.79-3.36-2.79c-1.44,0-2.91,0.42-4.38,1.11l-0.63-1.56
		c1.8-0.84,3.51-1.26,5.19-1.26c3.03,0,5.04,1.59,5.04,4.59v8.819h-1.35l-0.33-2.4C411.313,104.245,409.603,105.295,407.263,105.295
		 M409.933,98.455c-3.12,0-4.98,1.08-4.98,3.03c0,1.32,0.96,2.1,2.61,2.1c2.73,0,4.44-1.98,4.53-5.01
		C411.373,98.485,410.803,98.455,409.933,98.455 M296.896,105.295c-2.58,0-4.23-1.41-4.23-3.69c0-2.97,2.73-4.68,6.63-4.68
		c0.99,0,1.74,0.03,2.43,0.12v-0.9c0-1.86-1.32-2.79-3.36-2.79c-1.44,0-2.91,0.42-4.38,1.11l-0.63-1.56
		c1.8-0.84,3.51-1.26,5.19-1.26c3.03,0,5.04,1.59,5.04,4.59v8.819h-1.35l-0.33-2.4C300.945,104.245,299.235,105.295,296.896,105.295
		 M299.566,98.455c-3.12,0-4.98,1.08-4.98,3.03c0,1.32,0.96,2.1,2.61,2.1c2.73,0,4.44-1.98,4.53-5.01
		C301.005,98.485,300.435,98.455,299.566,98.455 M241.907,105.295c-2.58,0-4.23-1.41-4.23-3.69c0-2.97,2.73-4.68,6.63-4.68
		c0.99,0,1.74,0.03,2.43,0.12v-0.9c0-1.86-1.32-2.79-3.36-2.79c-1.44,0-2.91,0.42-4.38,1.11l-0.63-1.56
		c1.8-0.84,3.51-1.26,5.19-1.26c3.03,0,5.04,1.59,5.04,4.59v8.819h-1.35l-0.33-2.4C245.957,104.245,244.247,105.295,241.907,105.295
		 M244.577,98.455c-3.12,0-4.98,1.08-4.98,3.03c0,1.32,0.96,2.1,2.61,2.1c2.73,0,4.44-1.98,4.53-5.01
		C246.017,98.485,245.446,98.455,244.577,98.455 M230.627,105.295c-1.86,0-3.42-0.51-4.83-1.47l0.93-1.44
		c1.17,0.84,2.43,1.2,3.9,1.2c1.62,0,2.67-0.81,2.67-2.01c0-1.29-1.47-1.95-3.06-2.58c-2.16-0.84-3.96-1.86-3.96-3.99
		c0-2.22,2.04-3.36,4.29-3.36c1.44,0,2.82,0.42,4.02,1.2l-0.81,1.32c-0.96-0.54-2.04-0.84-3.12-0.84c-1.35,0-2.55,0.45-2.55,1.68
		c0,1.2,1.23,1.8,2.79,2.4c2.4,0.9,4.23,1.95,4.23,4.17S233.237,105.295,230.627,105.295 M209.417,105.295
		c-3.3,0-4.83-2.19-4.83-5.43v-8.07h1.83v8.1c0,2.16,0.84,3.69,3.21,3.69c2.64,0,4.2-2.37,4.2-5.19v-6.6h1.83v13.259h-1.41
		l-0.36-2.31C213.107,104.155,211.607,105.295,209.417,105.295 M131.778,105.295c-2.16,0-3.51-1.26-3.51-3.99v-7.89l-2.58-0.12v-1.5
		h2.58v-4.41h1.83v4.41h4.74v1.62h-4.74v7.89c0,1.68,0.69,2.25,1.86,2.25c0.93,0,1.77-0.3,2.61-0.9l0.81,1.38
		C134.388,104.785,133.158,105.295,131.778,105.295 M36.26,105.295c-2.58,0-4.23-1.41-4.23-3.69c0-2.97,2.73-4.68,6.63-4.68
		c0.99,0,1.74,0.03,2.43,0.12v-0.9c0-1.86-1.32-2.79-3.36-2.79c-1.44,0-2.91,0.42-4.38,1.11l-0.63-1.56
		c1.8-0.84,3.51-1.26,5.19-1.26c3.03,0,5.04,1.59,5.04,4.59v8.819H41.6l-0.33-2.4C40.31,104.245,38.6,105.295,36.26,105.295
		 M38.93,98.455c-3.12,0-4.98,1.08-4.98,3.03c0,1.32,0.96,2.1,2.61,2.1c2.73,0,4.44-1.98,4.53-5.01
		C40.37,98.485,39.8,98.455,38.93,98.455 M399.403,105.055h-1.83l-0.03-21.509h1.83L399.403,105.055 M346.424,105.055h-1.83v-8.16
		c0-2.22-0.9-3.66-3.12-3.66c-2.82,0-4.38,2.4-4.38,5.28v6.54h-1.83V83.546h1.83v8.58c0,0.66,0,1.29-0.03,2.07
		c0.81-1.56,2.34-2.67,4.59-2.67c3.24,0,4.77,2.04,4.77,5.43V105.055 M309.945,105.055h-1.83l-0.03-21.509h1.83L309.945,105.055
		 M222.167,105.055h-1.83V91.795h1.83V105.055 M156.168,105.055h-1.83V91.795h1.38l0.36,1.95c0.75-1.38,2.01-2.22,3.87-2.22
		c0.84,0,1.56,0.18,2.16,0.45l-0.54,1.62c-0.51-0.18-1.02-0.33-1.77-0.33c-2.16,0-3.63,1.53-3.63,4.11V105.055 M29.839,105.055
		h-2.28l-5.73-8.46h-4.62v8.46h-1.98V84.656h7.71c3.63,0,6.51,2.61,6.51,6c0,3.06-2.1,5.34-5.43,5.85l5.82,8.46V105.055
		 M17.21,86.456v8.34h5.64c2.85,0,4.62-1.68,4.62-4.11c0-2.37-1.86-4.23-4.53-4.23H17.21 M221.267,88.316
		c-0.84,0-1.38-0.6-1.38-1.32c0-0.78,0.54-1.38,1.38-1.38c0.84,0,1.38,0.6,1.38,1.38C222.647,87.746,222.077,88.316,221.267,88.316"
		/>
	<path fill="#9D9D9C" d="M891.499,86.259l-5.496,3l0.984,1.992l2.136-1.056l0.6-0.312c-0.12,0.432-0.192,0.864-0.288,1.32
		l-1.992,11.041h2.808l2.808-15.985z M901.003,92.355c-1.224,0-2.232,0.36-3.264,1.176c1.2-3.072,3.696-5.064,7.393-4.992
		l-0.168-2.448c-6.145,0.168-9.337,4.032-10.345,9.169l-0.072,0.336c-0.12,0.624-0.168,1.2-0.168,1.776
		c0,3.048,1.608,5.16,4.848,5.16c3,0,5.28-1.968,5.833-5.016c0.072-0.36,0.096-0.696,0.096-1.008
		C905.156,93.987,903.404,92.355,901.003,92.355z M902.396,97.444c-0.288,1.656-1.488,2.64-3.048,2.64
		c-1.392,0-2.328-0.888-2.328-2.28c0-0.168,0.024-0.36,0.048-0.552c0.264-1.488,1.344-2.568,3.096-2.616
		c1.512,0,2.28,0.936,2.28,2.232C902.443,97.06,902.419,97.252,902.396,97.444z M908.635,99.22c-0.816,0-1.584,0.504-1.776,1.464
		c-0.024,0.12-0.024,0.24-0.024,0.336c0,0.912,0.648,1.512,1.392,1.512h0.12c-0.36,1.008-1.032,1.776-2.04,2.544l0.576,0.696
		c1.68-1.128,2.808-2.64,3.216-4.296c0.072-0.24,0.096-0.48,0.096-0.696C910.195,99.748,909.499,99.22,908.635,99.22z
		 M920.179,86.067c-3.024,0-5.28,1.92-5.809,4.872c-0.072,0.384-0.096,0.744-0.096,1.08c0,2.592,1.824,4.272,4.128,4.272
		c1.248,0,2.184-0.288,3.192-1.032c-1.176,2.952-3.648,4.776-7.345,4.896l0.168,2.304c6.049-0.096,9.337-3.96,10.369-9.145
		l0.072-0.336c0.12-0.6,0.168-1.176,0.168-1.728C925.027,88.179,923.347,86.067,920.179,86.067z M919.219,93.987
		c-1.44,0-2.232-1.032-2.232-2.328c0-0.192,0.024-0.384,0.048-0.576c0.312-1.656,1.44-2.568,3.024-2.592
		c1.344,0,2.328,0.936,2.328,2.28c0,0.168-0.024,0.336-0.048,0.528C922.075,92.835,920.995,93.987,919.219,93.987z M931.459,102.532
		c3.864,0,6.265-3.096,7.129-8.041c0.144-0.864,0.216-1.68,0.216-2.424c0-3.696-1.8-5.977-4.728-5.977
		c-3.96,0-6.241,3.072-7.129,8.017c-0.144,0.888-0.24,1.704-0.24,2.472C926.706,100.276,928.482,102.532,931.459,102.532z
		 M931.651,100.084c-1.464,0-2.184-1.368-2.184-3.504c0-0.672,0.072-1.44,0.216-2.256c0.624-3.552,2.16-5.785,4.2-5.785
		c1.464,0,2.16,1.344,2.16,3.456c0,0.696-0.072,1.464-0.216,2.28C935.203,97.828,933.691,100.084,931.651,100.084z"/>
	<path fill="#9D9D9C" d="M948.968,88.882c0.76,0,1.34,0.12,1.9,0.34l1-1.82c-0.88-0.4-1.7-0.62-2.881-0.62
		c-3.461,0-5.941,1.88-6.982,4.741h-1.5l-0.24,1.4h1.36c-0.06,0.36-0.12,0.74-0.14,1.12h-1.42l-0.26,1.4h1.7
		c0.26,2.861,2.24,5.041,5.501,5.041c1.04,0,1.92-0.18,2.801-0.6l-0.44-1.96c-0.64,0.32-1.26,0.46-2.06,0.46
		c-2.12,0-3.181-1.16-3.461-2.941h2.921l0.78-1.4h-3.741c0.02-0.38,0.06-0.76,0.16-1.12h4.161l0.76-1.4h-4.421
		C945.307,89.922,946.868,88.882,948.968,88.882z"/>
	<path fill="#000000" d="M545.199,153.955c-2.58,0-4.47-0.87-6-2.37l1.14-1.29c1.29,1.26,2.79,1.95,4.77,1.95
		c2.7,0,4.8-1.41,4.8-4.35c0-1.02,0-2.01,0.03-3c-1.23,1.59-3.15,2.4-5.1,2.4c-4.08,0-6.66-3.09-6.66-6.87c0-3.81,2.52-6.9,6.57-6.9
		c2.16,0,4.05,0.84,5.22,2.46l0.42-2.19h1.35v14.129C551.739,152.005,548.709,153.955,545.199,153.955 M544.96,135.236
		c-3.12,0-4.92,2.28-4.92,5.16c0,2.94,1.89,5.19,4.89,5.19c3.33,0,5.04-2.37,5.04-5.16
		C549.969,137.635,548.319,135.236,544.96,135.236 M566.889,152.815l-1.17-1.11c2.46-2.97,3.99-8.009,3.99-13.229
		c0-5.22-1.53-10.259-3.99-13.229l1.17-1.11c2.76,3.3,4.59,8.7,4.59,14.339C571.479,144.115,569.649,149.515,566.889,152.815
		 M478.001,152.815c-2.76-3.3-4.59-8.7-4.59-14.34c0-5.64,1.83-11.039,4.59-14.339l1.2,1.11c-2.49,2.97-4.02,8.01-4.02,13.229
		c0,5.22,1.53,10.26,4.02,13.229L478.001,152.815 M24.29,147.415c-6.15,0-10.35-4.77-10.35-10.589c0-6.03,4.29-10.53,10.35-10.53
		c3.21,0,5.52,1.14,7.68,3.33l-1.17,1.2c-1.62-1.68-3.6-2.7-6.51-2.7c-4.92,0-8.37,3.75-8.37,8.7c0,4.83,3.42,8.759,8.37,8.759
		c2.88,0,5.16-1.38,6.66-3.39l1.41,1.11C30.679,145.735,27.889,147.415,24.29,147.415 M441.611,147.385c-3.99,0-6.84-2.88-6.84-6.96
		c0-4.08,2.85-6.96,6.84-6.96c4.05,0,6.9,2.88,6.9,6.96C448.511,144.505,445.661,147.385,441.611,147.385 M441.611,135.176
		c-2.94,0-4.98,2.19-4.98,5.25c0,3.09,2.04,5.25,4.98,5.25c2.97,0,5.04-2.16,5.04-5.25
		C446.651,137.365,444.612,135.176,441.611,135.176 M427.752,147.385c-3.3,0-6.6-2.43-6.6-6.99c0-4.38,3.18-6.9,6.78-6.9
		c1.92,0,3.39,0.6,4.74,1.8l-1.05,1.26c-1.08-0.93-2.13-1.35-3.69-1.35c-2.76,0-4.92,2.07-4.92,5.19c0,3.18,2.13,5.28,4.89,5.28
		c1.8,0,2.88-0.57,3.96-1.59l1.02,1.32C431.502,146.695,430.062,147.385,427.752,147.385 M251.265,147.385
		c-4.02,0-6.84-2.88-6.84-6.99c0-3.84,2.76-6.93,6.69-6.93c3.69,0,5.88,2.55,5.88,6.42c0,0.42-0.03,0.84-0.09,1.29h-10.619
		c0.3,2.82,2.46,4.5,4.95,4.5c1.86,0,3.03-0.57,4.05-1.62l1.05,1.32C254.985,146.665,253.365,147.385,251.265,147.385
		 M251.085,135.176c-2.46,0-4.38,1.74-4.74,4.38h8.85C255.135,136.735,253.515,135.176,251.085,135.176 M227.926,147.385
		c-3.99,0-6.84-2.88-6.84-6.96c0-4.08,2.85-6.96,6.84-6.96c4.05,0,6.9,2.88,6.9,6.96
		C234.825,144.505,231.975,147.385,227.926,147.385 M227.926,135.176c-2.94,0-4.98,2.19-4.98,5.25c0,3.09,2.04,5.25,4.98,5.25
		c2.97,0,5.04-2.16,5.04-5.25C232.965,137.365,230.926,135.176,227.926,135.176 M185.747,147.385c-4.02,0-6.84-2.88-6.84-6.99
		c0-3.84,2.76-6.93,6.69-6.93c3.69,0,5.88,2.55,5.88,6.42c0,0.42-0.03,0.84-0.09,1.29h-10.619c0.3,2.82,2.46,4.5,4.95,4.5
		c1.86,0,3.03-0.57,4.05-1.62l1.05,1.32C189.466,146.665,187.846,147.385,185.747,147.385 M185.566,135.176
		c-2.46,0-4.38,1.74-4.74,4.38h8.849C189.616,136.735,187.996,135.176,185.566,135.176 M171.887,147.385c-3.3,0-6.6-2.43-6.6-6.99
		c0-4.38,3.18-6.9,6.78-6.9c1.92,0,3.39,0.6,4.74,1.8l-1.05,1.26c-1.08-0.93-2.13-1.35-3.69-1.35c-2.76,0-4.92,2.07-4.92,5.19
		c0,3.18,2.13,5.28,4.89,5.28c1.8,0,2.88-0.57,3.96-1.59l1.02,1.32C175.636,146.695,174.197,147.385,171.887,147.385
		 M150.137,147.385c-4.02,0-6.84-2.88-6.84-6.99c0-3.84,2.76-6.93,6.69-6.93c3.69,0,5.88,2.55,5.88,6.42c0,0.42-0.03,0.84-0.09,1.29
		h-10.619c0.3,2.82,2.46,4.5,4.95,4.5c1.86,0,3.03-0.57,4.05-1.62l1.05,1.32C153.857,146.665,152.237,147.385,150.137,147.385
		 M149.957,135.176c-2.46,0-4.38,1.74-4.74,4.38h8.849C154.007,136.735,152.387,135.176,149.957,135.176 M41.449,147.385
		c-3.99,0-6.84-2.88-6.84-6.96c0-4.08,2.85-6.96,6.84-6.96c4.05,0,6.9,2.88,6.9,6.96C48.349,144.505,45.499,147.385,41.449,147.385
		 M41.449,135.176c-2.94,0-4.98,2.19-4.98,5.25c0,3.09,2.04,5.25,4.98,5.25c2.97,0,5.04-2.16,5.04-5.25
		C46.489,137.365,44.449,135.176,41.449,135.176 M521.2,147.355c-4.35,0-6.96-3.96-6.96-10.23c0-6.24,2.61-10.2,6.96-10.2
		c4.35,0,6.99,3.96,6.99,10.2C528.189,143.395,525.55,147.355,521.2,147.355 M521.2,128.726c-3.12,0-4.98,3.27-4.98,8.4
		c0,5.13,1.86,8.4,4.98,8.4c3.15,0,5.01-3.27,5.01-8.4C526.21,131.996,524.35,128.726,521.2,128.726 M397.662,147.355
		c-2.25,0-4.11-0.99-5.22-2.61l-0.27,2.31h-1.41v-21.509h1.83v6.9c0,1.26-0.03,2.49-0.06,3.66c1.08-1.62,2.97-2.58,5.13-2.58
		c3.9,0,6.66,2.91,6.66,6.84C404.322,144.415,401.592,147.355,397.662,147.355 M397.542,135.236c-3,0-5.04,2.19-5.04,5.19
		c0,3,1.98,5.19,5.04,5.19c2.94,0,4.95-2.16,4.95-5.19S400.482,135.236,397.542,135.236 M355.813,147.355
		c-2.25,0-4.11-0.99-5.22-2.61l-0.27,2.31h-1.41v-21.509h1.83v6.9c0,1.26-0.03,2.49-0.06,3.66c1.08-1.62,2.97-2.58,5.13-2.58
		c3.9,0,6.66,2.91,6.66,6.84C362.473,144.415,359.743,147.355,355.813,147.355 M355.693,135.236c-3,0-5.04,2.19-5.04,5.19
		c0,3,1.98,5.19,5.04,5.19c2.94,0,4.95-2.16,4.95-5.19S358.633,135.236,355.693,135.236 M210.466,147.355
		c-3.93,0-6.66-2.94-6.66-6.99c0-3.93,2.76-6.84,6.66-6.84c2.16,0,4.05,0.96,5.13,2.52c-0.03-1.14-0.06-2.34-0.06-3.6v-6.9h1.83
		v21.509h-1.41l-0.27-2.37C214.606,146.335,212.776,147.355,210.466,147.355 M210.586,135.236c-2.94,0-4.95,2.16-4.95,5.19
		s2.01,5.19,4.95,5.19c3.06,0,5.01-2.19,5.01-5.19C215.596,137.425,213.586,135.236,210.586,135.236 M132.677,147.355
		c-3.93,0-6.66-2.94-6.66-6.99c0-3.93,2.76-6.84,6.66-6.84c2.16,0,4.05,0.96,5.13,2.52c-0.03-1.14-0.06-2.34-0.06-3.6v-6.9h1.83
		v21.509h-1.41l-0.27-2.37C136.817,146.335,134.987,147.355,132.677,147.355 M132.797,135.236c-2.94,0-4.95,2.16-4.95,5.19
		s2.01,5.19,4.95,5.19c3.06,0,5.01-2.19,5.01-5.19C137.807,137.425,135.797,135.236,132.797,135.236 M504.19,147.325
		c-4.02,0-6.66-2.22-6.66-5.76c0-2.61,1.59-4.53,3.87-5.1c-1.8-0.6-3.27-1.98-3.27-4.41c0-3.06,2.46-5.13,6.09-5.13s6,2.07,6,5.13
		c0,2.31-1.47,3.78-3.15,4.41c1.98,0.51,3.78,2.49,3.78,5.13C510.85,145.165,508.21,147.325,504.19,147.325 M504.13,137.395
		c-2.73,0-4.62,1.68-4.62,4.17c0,2.4,2.01,3.93,4.68,3.93c2.7,0,4.65-1.47,4.65-3.93C508.84,138.985,507.01,137.395,504.13,137.395
		 M504.22,128.726c-2.43,0-4.14,1.38-4.14,3.36c0,2.19,1.68,3.48,4.14,3.48c2.43,0,4.05-1.38,4.05-3.48
		C508.27,130.106,506.62,128.726,504.22,128.726 M455.351,147.295c-2.58,0-4.23-1.41-4.23-3.69c0-2.97,2.73-4.68,6.63-4.68
		c0.99,0,1.74,0.03,2.43,0.12v-0.9c0-1.86-1.32-2.79-3.36-2.79c-1.44,0-2.91,0.42-4.38,1.11l-0.63-1.56
		c1.8-0.84,3.51-1.26,5.19-1.26c3.03,0,5.04,1.59,5.04,4.59v8.819h-1.35l-0.33-2.4C459.401,146.245,457.691,147.295,455.351,147.295
		 M458.021,140.455c-3.12,0-4.98,1.08-4.98,3.03c0,1.32,0.96,2.1,2.61,2.1c2.73,0,4.44-1.98,4.53-5.01
		C459.461,140.485,458.891,140.455,458.021,140.455 M410.922,147.295c-2.58,0-4.23-1.41-4.23-3.69c0-2.97,2.73-4.68,6.63-4.68
		c0.99,0,1.74,0.03,2.43,0.12v-0.9c0-1.86-1.32-2.79-3.36-2.79c-1.44,0-2.91,0.42-4.38,1.11l-0.63-1.56
		c1.8-0.84,3.51-1.26,5.19-1.26c3.03,0,5.04,1.59,5.04,4.59v8.819h-1.35l-0.33-2.4C414.972,146.245,413.262,147.295,410.922,147.295
		 M413.592,140.455c-3.12,0-4.98,1.08-4.98,3.03c0,1.32,0.96,2.1,2.61,2.1c2.73,0,4.44-1.98,4.53-5.01
		C415.032,140.485,414.462,140.455,413.592,140.455 M369.073,147.295c-2.58,0-4.23-1.41-4.23-3.69c0-2.97,2.73-4.68,6.63-4.68
		c0.99,0,1.74,0.03,2.43,0.12v-0.9c0-1.86-1.32-2.79-3.36-2.79c-1.44,0-2.91,0.42-4.38,1.11l-0.63-1.56
		c1.8-0.84,3.51-1.26,5.19-1.26c3.03,0,5.04,1.59,5.04,4.59v8.819h-1.35l-0.33-2.4C373.123,146.245,371.413,147.295,369.073,147.295
		 M371.743,140.455c-3.12,0-4.98,1.08-4.98,3.03c0,1.32,0.96,2.1,2.61,2.1c2.73,0,4.44-1.98,4.53-5.01
		C373.183,140.485,372.613,140.455,371.743,140.455 M330.884,147.295c-2.58,0-4.23-1.41-4.23-3.69c0-2.97,2.73-4.68,6.63-4.68
		c0.99,0,1.74,0.03,2.43,0.12v-0.9c0-1.86-1.32-2.79-3.36-2.79c-1.44,0-2.91,0.42-4.38,1.11l-0.63-1.56
		c1.8-0.84,3.51-1.26,5.19-1.26c3.03,0,5.04,1.59,5.04,4.59v8.819h-1.35l-0.33-2.4C334.933,146.245,333.223,147.295,330.884,147.295
		 M333.554,140.455c-3.12,0-4.98,1.08-4.98,3.03c0,1.32,0.96,2.1,2.61,2.1c2.73,0,4.44-1.98,4.53-5.01
		C334.993,140.485,334.424,140.455,333.554,140.455 M319.604,147.295c-1.86,0-3.42-0.51-4.83-1.47l0.93-1.44
		c1.17,0.84,2.43,1.2,3.9,1.2c1.62,0,2.67-0.81,2.67-2.01c0-1.29-1.47-1.95-3.06-2.58c-2.16-0.84-3.96-1.86-3.96-3.99
		c0-2.22,2.04-3.36,4.29-3.36c1.44,0,2.82,0.42,4.02,1.2l-0.81,1.32c-0.96-0.54-2.04-0.84-3.12-0.84c-1.35,0-2.55,0.45-2.55,1.68
		c0,1.2,1.23,1.8,2.79,2.4c2.4,0.9,4.23,1.95,4.23,4.17C324.103,145.795,322.214,147.295,319.604,147.295 M298.094,147.295
		c-2.58,0-4.23-1.41-4.23-3.69c0-2.97,2.73-4.68,6.63-4.68c0.99,0,1.74,0.03,2.43,0.12v-0.9c0-1.86-1.32-2.79-3.36-2.79
		c-1.44,0-2.91,0.42-4.38,1.11l-0.63-1.56c1.8-0.84,3.51-1.26,5.19-1.26c3.03,0,5.04,1.59,5.04,4.59v8.819h-1.35l-0.33-2.4
		C302.144,146.245,300.434,147.295,298.094,147.295 M300.764,140.455c-3.12,0-4.98,1.08-4.98,3.03c0,1.32,0.96,2.1,2.61,2.1
		c2.73,0,4.44-1.98,4.53-5.01C302.204,140.485,301.634,140.455,300.764,140.455 M286.814,147.295c-1.86,0-3.42-0.51-4.83-1.47
		l0.93-1.44c1.17,0.84,2.43,1.2,3.9,1.2c1.62,0,2.67-0.81,2.67-2.01c0-1.29-1.47-1.95-3.06-2.58c-2.16-0.84-3.96-1.86-3.96-3.99
		c0-2.22,2.04-3.36,4.29-3.36c1.44,0,2.82,0.42,4.02,1.2l-0.81,1.32c-0.96-0.54-2.04-0.84-3.12-0.84c-1.35,0-2.55,0.45-2.55,1.68
		c0,1.2,1.23,1.8,2.79,2.4c2.4,0.9,4.23,1.95,4.23,4.17C291.314,145.795,289.424,147.295,286.814,147.295 M112.038,147.295
		c-1.86,0-3.42-0.51-4.83-1.47l0.93-1.44c1.17,0.84,2.43,1.2,3.9,1.2c1.62,0,2.67-0.81,2.67-2.01c0-1.29-1.47-1.95-3.06-2.58
		c-2.16-0.84-3.96-1.86-3.96-3.99c0-2.22,2.04-3.36,4.29-3.36c1.44,0,2.82,0.42,4.02,1.2l-0.81,1.32c-0.96-0.54-2.04-0.84-3.12-0.84
		c-1.35,0-2.55,0.45-2.55,1.68c0,1.2,1.23,1.8,2.79,2.4c2.4,0.9,4.23,1.95,4.23,4.17
		C116.537,145.795,114.647,147.295,112.038,147.295 M97.068,147.295c-2.58,0-4.23-1.41-4.23-3.69c0-2.97,2.73-4.68,6.63-4.68
		c0.99,0,1.74,0.03,2.43,0.12v-0.9c0-1.86-1.32-2.79-3.36-2.79c-1.44,0-2.91,0.42-4.38,1.11l-0.63-1.56
		c1.8-0.84,3.51-1.26,5.19-1.26c3.03,0,5.04,1.59,5.04,4.59v8.819h-1.35l-0.33-2.4C101.118,146.245,99.408,147.295,97.068,147.295
		 M99.738,140.455c-3.12,0-4.98,1.08-4.98,3.03c0,1.32,0.96,2.1,2.61,2.1c2.73,0,4.44-1.98,4.53-5.01
		C101.178,140.485,100.608,140.455,99.738,140.455 M67.969,147.295c-2.16,0-3.51-1.26-3.51-3.99v-7.89l-2.58-0.12v-1.5h2.58v-4.41
		h1.83v4.41h4.74v1.62h-4.74v7.89c0,1.68,0.69,2.25,1.86,2.25c0.93,0,1.77-0.3,2.61-0.9l0.81,1.38
		C70.579,146.785,69.349,147.295,67.969,147.295 M55.609,147.295c-1.86,0-3.42-0.51-4.83-1.47l0.93-1.44c1.17,0.84,2.43,1.2,3.9,1.2
		c1.62,0,2.67-0.81,2.67-2.01c0-1.29-1.47-1.95-3.06-2.58c-2.16-0.84-3.96-1.86-3.96-3.99c0-2.22,2.04-3.36,4.29-3.36
		c1.44,0,2.82,0.42,4.02,1.2l-0.81,1.32c-0.96-0.54-2.04-0.84-3.12-0.84c-1.35,0-2.55,0.45-2.55,1.68c0,1.2,1.23,1.8,2.79,2.4
		c2.4,0.9,4.23,1.95,4.23,4.17C60.109,145.795,58.219,147.295,55.609,147.295 M558.249,147.055h-1.83v-13.259h1.38l0.36,1.95
		c0.75-1.38,2.01-2.22,3.87-2.22c0.84,0,1.56,0.18,2.16,0.45l-0.54,1.62c-0.51-0.18-1.02-0.33-1.77-0.33
		c-2.16,0-3.63,1.53-3.63,4.11V147.055 M492.76,147.055h-1.86v-4.32h-10.02v-0.48l11.369-15.33h0.51v14.069h2.34v1.74h-2.34V147.055
		 M490.99,131.395c-0.45,0.63-0.87,1.14-1.26,1.71l-4.65,6.33c-0.39,0.54-0.78,1.05-1.23,1.56h2.19h4.89v-7.44
		C490.93,132.836,490.93,132.205,490.99,131.395 M382.093,147.055h-1.83v-13.259h1.38l0.36,1.95c0.75-1.38,2.01-2.22,3.87-2.22
		c0.84,0,1.56,0.18,2.16,0.45l-0.54,1.62c-0.51-0.18-1.02-0.33-1.77-0.33c-2.16,0-3.63,1.53-3.63,4.11V147.055 M311.144,147.055
		h-1.83l-0.03-21.509h1.83L311.144,147.055 M271.695,147.055h-1.83v-8.13c0-2.25-0.84-3.69-3.06-3.69c-2.67,0-4.44,1.92-4.44,4.68
		v7.139h-1.83v-13.259h1.38l0.42,2.25c0.78-1.41,2.4-2.52,4.65-2.52c3.09,0,4.71,1.98,4.71,5.43V147.055 M196.846,147.055h-1.83
		v-13.259h1.38l0.36,1.95c0.75-1.38,2.01-2.22,3.87-2.22c0.84,0,1.56,0.18,2.16,0.45l-0.54,1.62c-0.51-0.18-1.02-0.33-1.77-0.33
		c-2.16,0-3.63,1.53-3.63,4.11V147.055 M89.208,147.055h-1.83l-0.03-21.509h1.83L89.208,147.055 M82.669,147.055h-1.83l-0.03-21.509
		h1.83L82.669,147.055 M76.129,147.055h-1.83v-13.259h1.83V147.055 M75.229,130.316c-0.84,0-1.38-0.6-1.38-1.32
		c0-0.78,0.54-1.38,1.38-1.38s1.38,0.6,1.38,1.38C76.609,129.746,76.039,130.316,75.229,130.316"/>
	<path fill="#9D9D9C" d="M892.531,128.259l-5.496,3l0.984,1.992l2.136-1.056l0.6-0.312c-0.12,0.432-0.192,0.864-0.288,1.32
		l-1.992,11.041h2.808l2.808-15.985z M901.963,128.067c-3.024,0-5.28,1.92-5.809,4.872c-0.072,0.384-0.096,0.744-0.096,1.08
		c0,2.592,1.824,4.272,4.128,4.272c1.248,0,2.184-0.288,3.192-1.032c-1.176,2.952-3.648,4.776-7.345,4.896l0.168,2.304
		c6.049-0.096,9.337-3.96,10.369-9.145l0.072-0.336c0.12-0.6,0.168-1.176,0.168-1.728
		C906.812,130.179,905.132,128.067,901.963,128.067z M901.003,135.987c-1.44,0-2.232-1.032-2.232-2.328
		c0-0.192,0.024-0.384,0.048-0.576c0.312-1.656,1.44-2.568,3.024-2.592c1.344,0,2.328,0.936,2.328,2.28
		c0,0.168-0.024,0.336-0.048,0.528C903.859,134.835,902.779,135.987,901.003,135.987z M909.715,141.22
		c-0.816,0-1.584,0.504-1.776,1.464c-0.024,0.12-0.024,0.24-0.024,0.336c0,0.912,0.648,1.512,1.392,1.512h0.12
		c-0.36,1.008-1.032,1.776-2.04,2.544l0.576,0.696c1.68-1.128,2.808-2.64,3.216-4.296c0.072-0.24,0.096-0.48,0.096-0.696
		C911.275,141.748,910.579,141.22,909.715,141.22z M925.435,130.803l0.432-2.424h-7.993l-2.352,8.113l0.408,0.312
		c0.888-0.312,1.8-0.504,2.736-0.504c1.776,0,3.048,0.792,3.048,2.328c0,0.192,0,0.384-0.048,0.6
		c-0.336,1.848-1.872,2.784-3.672,2.784c-1.44,0-2.472-0.528-3.048-1.392l-1.68,1.848c0.984,1.272,2.688,2.088,4.8,2.088
		c3.288,0,5.832-1.896,6.337-4.92c0.072-0.432,0.12-0.816,0.12-1.2c0-2.736-1.944-4.2-4.848-4.2c-0.384,0-0.72,0.024-1.032,0.048
		l1.056-3.48z M931.459,144.532c3.864,0,6.265-3.096,7.129-8.041c0.144-0.864,0.216-1.68,0.216-2.424c0-3.696-1.8-5.977-4.728-5.977
		c-3.96,0-6.241,3.072-7.129,8.017c-0.144,0.888-0.24,1.704-0.24,2.472C926.706,142.276,928.482,144.532,931.459,144.532z
		 M931.651,142.084c-1.464,0-2.184-1.368-2.184-3.504c0-0.672,0.072-1.44,0.216-2.256c0.624-3.552,2.16-5.785,4.2-5.785
		c1.464,0,2.16,1.344,2.16,3.456c0,0.696-0.072,1.464-0.216,2.28C935.203,139.828,933.691,142.084,931.651,142.084z"/>
	<path fill="#9D9D9C" d="M948.968,130.882c0.76,0,1.34,0.12,1.9,0.34l1-1.82c-0.88-0.4-1.7-0.62-2.881-0.62
		c-3.461,0-5.941,1.88-6.982,4.741h-1.5l-0.24,1.4h1.36c-0.06,0.36-0.12,0.74-0.14,1.12h-1.42l-0.26,1.4h1.7
		c0.26,2.861,2.24,5.041,5.501,5.041c1.04,0,1.92-0.18,2.801-0.6l-0.44-1.96c-0.64,0.32-1.26,0.46-2.06,0.46
		c-2.12,0-3.181-1.16-3.461-2.941h2.921l0.78-1.4h-3.741c0.02-0.38,0.06-0.76,0.16-1.12h4.161l0.76-1.4h-4.421
		C945.307,131.922,946.868,130.882,948.968,130.882z"/>
	<path fill="#000000" d="M330.974,195.955c-2.58,0-4.47-0.87-6-2.37l1.14-1.29c1.29,1.26,2.79,1.95,4.77,1.95
		c2.7,0,4.8-1.41,4.8-4.35c0-1.02,0-2.01,0.03-3c-1.23,1.59-3.15,2.4-5.1,2.4c-4.08,0-6.66-3.09-6.66-6.87c0-3.81,2.52-6.9,6.57-6.9
		c2.16,0,4.05,0.84,5.22,2.46l0.42-2.19h1.35v14.129C337.514,194.005,334.484,195.955,330.974,195.955 M330.734,177.236
		c-3.12,0-4.92,2.28-4.92,5.16c0,2.94,1.89,5.19,4.89,5.19c3.33,0,5.04-2.37,5.04-5.16S334.094,177.236,330.734,177.236
		 M352.664,194.815l-1.17-1.11c2.46-2.97,3.99-8.01,3.99-13.229c0-5.22-1.53-10.26-3.99-13.229l1.17-1.11
		c2.76,3.3,4.59,8.7,4.59,14.34C357.254,186.115,355.424,191.515,352.664,194.815 M250.786,194.815c-2.76-3.3-4.59-8.7-4.59-14.339
		c0-5.64,1.83-11.04,4.59-14.34l1.2,1.11c-2.49,2.97-4.02,8.009-4.02,13.229c0,5.22,1.53,10.259,4.02,13.229L250.786,194.815
		 M24.29,189.415c-6.15,0-10.35-4.77-10.35-10.589c0-6.03,4.29-10.53,10.35-10.53c3.21,0,5.52,1.14,7.68,3.33l-1.17,1.2
		c-1.62-1.68-3.6-2.7-6.51-2.7c-4.92,0-8.37,3.75-8.37,8.7c0,4.83,3.42,8.759,8.37,8.759c2.88,0,5.16-1.38,6.66-3.39l1.41,1.11
		C30.679,187.735,27.889,189.415,24.29,189.415 M230.056,189.385c-4.02,0-6.84-2.88-6.84-6.99c0-3.84,2.76-6.93,6.69-6.93
		c3.69,0,5.88,2.55,5.88,6.42c0,0.42-0.03,0.84-0.09,1.29h-10.62c0.3,2.82,2.46,4.5,4.95,4.5c1.86,0,3.03-0.57,4.05-1.62l1.05,1.32
		C233.776,188.665,232.156,189.385,230.056,189.385 M229.876,177.175c-2.46,0-4.38,1.74-4.74,4.38h8.85
		C233.926,178.735,232.306,177.175,229.876,177.175 M160.937,189.385c-4.02,0-6.84-2.88-6.84-6.99c0-3.84,2.76-6.93,6.69-6.93
		c3.69,0,5.88,2.55,5.88,6.42c0,0.42-0.03,0.84-0.09,1.29h-10.619c0.3,2.82,2.46,4.5,4.95,4.5c1.86,0,3.03-0.57,4.05-1.62l1.05,1.32
		C164.657,188.665,163.037,189.385,160.937,189.385 M160.758,177.175c-2.46,0-4.38,1.74-4.74,4.38h8.849
		C164.807,178.735,163.187,177.175,160.758,177.175 M104.659,189.385c-3.99,0-6.84-2.88-6.84-6.96c0-4.08,2.85-6.96,6.84-6.96
		c4.05,0,6.9,2.88,6.9,6.96C111.558,186.505,108.709,189.385,104.659,189.385 M104.659,177.175c-2.94,0-4.98,2.19-4.98,5.25
		c0,3.09,2.04,5.25,4.98,5.25c2.97,0,5.04-2.16,5.04-5.25C109.698,179.365,107.658,177.175,104.659,177.175 M79.189,189.385
		c-4.02,0-6.84-2.88-6.84-6.99c0-3.84,2.76-6.93,6.69-6.93c3.69,0,5.88,2.55,5.88,6.42c0,0.42-0.03,0.84-0.09,1.29H74.209
		c0.3,2.82,2.46,4.5,4.95,4.5c1.86,0,3.03-0.57,4.05-1.62l1.05,1.32C82.909,188.665,81.289,189.385,79.189,189.385 M79.009,177.175
		c-2.46,0-4.38,1.74-4.74,4.38h8.849C83.058,178.735,81.439,177.175,79.009,177.175 M306.975,189.355c-4.35,0-6.96-3.96-6.96-10.23
		c0-6.24,2.61-10.2,6.96-10.2c4.35,0,6.99,3.96,6.99,10.2C313.964,185.395,311.324,189.355,306.975,189.355 M306.975,170.726
		c-3.12,0-4.98,3.27-4.98,8.4c0,5.13,1.86,8.4,4.98,8.4c3.15,0,5.01-3.27,5.01-8.4C311.984,173.996,310.124,170.726,306.975,170.726
		 M289.485,189.355c-4.35,0-6.96-3.96-6.96-10.23c0-6.24,2.61-10.2,6.96-10.2c4.35,0,6.99,3.96,6.99,10.2
		C296.474,185.395,293.835,189.355,289.485,189.355 M289.485,170.726c-3.12,0-4.98,3.27-4.98,8.4c0,5.13,1.86,8.4,4.98,8.4
		c3.15,0,5.01-3.27,5.01-8.4C294.495,173.996,292.635,170.726,289.485,170.726 M271.995,189.355c-4.35,0-6.96-3.96-6.96-10.23
		c0-6.24,2.61-10.2,6.96-10.2c4.35,0,6.99,3.96,6.99,10.2C278.985,185.395,276.345,189.355,271.995,189.355 M271.995,170.726
		c-3.12,0-4.98,3.27-4.98,8.4c0,5.13,1.86,8.4,4.98,8.4c3.15,0,5.01-3.27,5.01-8.4C277.005,173.996,275.145,170.726,271.995,170.726
		 M143.478,189.355c-3.93,0-6.66-2.94-6.66-6.99c0-3.93,2.76-6.84,6.66-6.84c2.16,0,4.05,0.96,5.13,2.52
		c-0.03-1.14-0.06-2.34-0.06-3.6v-6.9h1.83v21.509h-1.41l-0.27-2.37C147.618,188.335,145.788,189.355,143.478,189.355
		 M143.598,177.236c-2.94,0-4.95,2.16-4.95,5.19s2.01,5.19,4.95,5.19c3.06,0,5.01-2.19,5.01-5.19
		C148.608,179.425,146.598,177.236,143.598,177.236 M199.907,189.295c-2.58,0-4.23-1.41-4.23-3.69c0-2.97,2.73-4.68,6.63-4.68
		c0.99,0,1.74,0.03,2.43,0.12v-0.9c0-1.86-1.32-2.79-3.36-2.79c-1.44,0-2.91,0.42-4.38,1.11l-0.63-1.56
		c1.8-0.84,3.51-1.26,5.19-1.26c3.03,0,5.04,1.59,5.04,4.59v8.82h-1.35l-0.33-2.4C203.957,188.245,202.247,189.295,199.907,189.295
		 M202.577,182.455c-3.12,0-4.98,1.08-4.98,3.03c0,1.32,0.96,2.1,2.61,2.1c2.73,0,4.44-1.98,4.53-5.01
		C204.017,182.485,203.447,182.455,202.577,182.455 M92.719,189.295c-2.16,0-3.51-1.26-3.51-3.99v-7.89l-2.58-0.12v-1.5h2.58v-4.41
		h1.83v4.41h4.74v1.62h-4.74v7.89c0,1.68,0.69,2.25,1.86,2.25c0.93,0,1.77-0.3,2.61-0.9l0.81,1.38
		C95.328,188.785,94.098,189.295,92.719,189.295 M55.849,189.295c-3.3,0-4.83-2.19-4.83-5.43v-8.07h1.83v8.1
		c0,2.16,0.84,3.69,3.21,3.69c2.64,0,4.2-2.37,4.2-5.19v-6.6h1.83v13.259h-1.41l-0.36-2.31
		C59.539,188.155,58.039,189.295,55.849,189.295 M188.147,189.205h-0.66l-6.21-13.349v-0.06h1.98l3.84,8.49
		c0.27,0.6,0.51,1.2,0.72,1.89c0.21-0.69,0.45-1.29,0.72-1.89l3.81-8.49h1.98v0.06L188.147,189.205 M344.024,189.055h-1.83v-13.259
		h1.38l0.36,1.95c0.75-1.38,2.01-2.22,3.87-2.22c0.84,0,1.56,0.18,2.16,0.45l-0.54,1.62c-0.51-0.18-1.02-0.33-1.77-0.33
		c-2.16,0-3.63,1.53-3.63,4.11V189.055 M260.265,189.055h-1.92v-15.989c0-0.36,0-0.72,0.06-1.08c-0.24,0.15-0.45,0.27-0.75,0.48
		l-3.06,1.92l-0.87-1.53l6.03-3.93h0.51V189.055 M219.497,189.055h-1.83l-0.03-21.509h1.83L219.497,189.055 M212.957,189.055h-1.83
		l-0.03-21.509h1.83L212.957,189.055 M172.067,189.055h-1.83l-0.03-21.509h1.83L172.067,189.055 M126.438,189.055h-1.83v-8.13
		c0-2.25-0.84-3.69-3.06-3.69c-2.67,0-4.44,1.92-4.44,4.68v7.14h-1.83v-13.259h1.38l0.42,2.25c0.78-1.41,2.4-2.52,4.65-2.52
		c3.09,0,4.71,1.98,4.71,5.43V189.055 M68.629,189.055h-1.83l-0.03-21.509h1.83L68.629,189.055 M46.699,189.055h-1.83v-8.16
		c0-2.22-0.9-3.66-3.12-3.66c-2.82,0-4.38,2.4-4.38,5.28v6.54h-1.83v-21.509h1.83v8.58c0,0.66,0,1.29-0.03,2.07
		c0.81-1.56,2.34-2.67,4.59-2.67c3.24,0,4.77,2.04,4.77,5.43V189.055 M103.069,172.946l-0.93-1.08l3.96-3.39l1.2,1.41
		L103.069,172.946"/>
	<path fill="#9D9D9C" d="M914.543,186.556c3.576,0,6.312-1.968,6.312-4.992c0-2.232-1.752-3.576-4.224-4.704
		c-1.656-0.768-2.784-1.416-2.784-2.64c0-1.392,1.344-2.112,3-2.112c1.416,0,2.736,0.528,3.816,1.32l1.44-1.944
		c-1.608-1.224-3.36-1.848-5.328-1.848c-3.144,0-5.76,1.656-5.76,4.752c0,2.28,1.752,3.552,3.96,4.584
		c1.824,0.84,2.976,1.488,2.976,2.712c0,1.344-1.464,2.328-3.336,2.328c-1.776,0-3.336-0.672-4.488-1.752l-1.56,2.016
		C910.102,185.644,912.19,186.556,914.543,186.556z M921.646,186.532h2.064l9.193-16.897h-2.04z M948.575,169.827l-5.929,7.081
		c-0.528,0.648-1.08,1.272-1.632,2.016c-0.336-0.744-0.624-1.392-0.936-2.04l-3.288-7.057h-0.84l-5.328,16.417h2.904l2.712-8.497
		c0.24-0.744,0.408-1.392,0.6-2.112c0.312,0.72,0.6,1.344,0.888,1.992l2.496,5.328h0.576l4.536-5.448
		c0.432-0.528,0.888-1.08,1.344-1.656c-0.072,0.72-0.096,1.368-0.12,2.064l-0.288,8.329h2.784l0.48-16.417z"/>
	<path fill="#000000" d="M120.858,237.955c-2.58,0-4.47-0.87-6-2.37l1.14-1.29c1.29,1.26,2.79,1.95,4.77,1.95
		c2.7,0,4.8-1.41,4.8-4.35c0-1.02,0-2.01,0.03-3c-1.23,1.59-3.15,2.4-5.1,2.4c-4.08,0-6.66-3.09-6.66-6.87c0-3.81,2.52-6.9,6.57-6.9
		c2.16,0,4.05,0.84,5.22,2.46l0.42-2.19h1.35v14.129C127.397,236.005,124.367,237.955,120.858,237.955 M120.618,219.235
		c-3.12,0-4.92,2.28-4.92,5.16c0,2.94,1.89,5.19,4.89,5.19c3.33,0,5.04-2.37,5.04-5.16
		C125.627,221.635,123.978,219.235,120.618,219.235 M594.67,231.385c-4.02,0-6.84-2.88-6.84-6.99c0-3.84,2.76-6.93,6.69-6.93
		c3.69,0,5.88,2.55,5.88,6.42c0,0.42-0.03,0.84-0.09,1.29h-10.62c0.3,2.82,2.46,4.5,4.95,4.5c1.86,0,3.03-0.57,4.05-1.62l1.05,1.32
		C598.39,230.665,596.77,231.385,594.67,231.385 M594.49,219.175c-2.46,0-4.38,1.74-4.74,4.38h8.85
		C598.54,220.735,596.92,219.175,594.49,219.175 M537.311,231.385c-4.02,0-6.84-2.88-6.84-6.99c0-3.84,2.76-6.93,6.69-6.93
		c3.69,0,5.88,2.55,5.88,6.42c0,0.42-0.03,0.84-0.09,1.29h-10.62c0.3,2.82,2.46,4.5,4.95,4.5c1.86,0,3.03-0.57,4.05-1.62l1.05,1.32
		C541.031,230.665,539.411,231.385,537.311,231.385 M537.131,219.175c-2.46,0-4.38,1.74-4.74,4.38h8.849
		C541.181,220.735,539.561,219.175,537.131,219.175 M472.212,231.385c-3.99,0-6.84-2.88-6.84-6.96c0-4.08,2.85-6.96,6.84-6.96
		c4.05,0,6.9,2.88,6.9,6.96C479.111,228.505,476.262,231.385,472.212,231.385 M472.212,219.175c-2.94,0-4.98,2.19-4.98,5.25
		c0,3.09,2.04,5.25,4.98,5.25c2.97,0,5.04-2.16,5.04-5.25C477.251,221.365,475.212,219.175,472.212,219.175 M439.722,231.385
		c-4.02,0-6.84-2.88-6.84-6.99c0-3.84,2.76-6.93,6.69-6.93c3.69,0,5.88,2.55,5.88,6.42c0,0.42-0.03,0.84-0.09,1.29h-10.62
		c0.3,2.82,2.46,4.5,4.95,4.5c1.86,0,3.03-0.57,4.05-1.62l1.05,1.32C443.442,230.665,441.822,231.385,439.722,231.385
		 M439.542,219.175c-2.46,0-4.38,1.74-4.74,4.38h8.85C443.592,220.735,441.972,219.175,439.542,219.175 M317.565,231.385
		c-3.99,0-6.84-2.88-6.84-6.96c0-4.08,2.85-6.96,6.84-6.96c4.05,0,6.9,2.88,6.9,6.96
		C324.464,228.505,321.614,231.385,317.565,231.385 M317.565,219.175c-2.94,0-4.98,2.19-4.98,5.25c0,3.09,2.04,5.25,4.98,5.25
		c2.97,0,5.04-2.16,5.04-5.25C322.604,221.365,320.564,219.175,317.565,219.175 M303.705,231.385c-3.3,0-6.6-2.43-6.6-6.99
		c0-4.38,3.18-6.9,6.78-6.9c1.92,0,3.39,0.6,4.74,1.8l-1.05,1.26c-1.08-0.93-2.13-1.35-3.69-1.35c-2.76,0-4.92,2.07-4.92,5.19
		c0,3.18,2.13,5.28,4.89,5.28c1.8,0,2.88-0.57,3.96-1.59l1.02,1.32C307.454,230.695,306.015,231.385,303.705,231.385
		 M268.965,231.385c-3.99,0-6.84-2.88-6.84-6.96c0-4.08,2.85-6.96,6.84-6.96c4.05,0,6.9,2.88,6.9,6.96
		C275.865,228.505,273.015,231.385,268.965,231.385 M268.965,219.175c-2.94,0-4.98,2.19-4.98,5.25c0,3.09,2.04,5.25,4.98,5.25
		c2.97,0,5.04-2.16,5.04-5.25C274.005,221.365,271.965,219.175,268.965,219.175 M244.006,231.385c-4.02,0-6.84-2.88-6.84-6.99
		c0-3.84,2.76-6.93,6.69-6.93c3.69,0,5.88,2.55,5.88,6.42c0,0.42-0.03,0.84-0.09,1.29h-10.62c0.3,2.82,2.46,4.5,4.95,4.5
		c1.86,0,3.03-0.57,4.05-1.62l1.05,1.32C247.725,230.665,246.105,231.385,244.006,231.385 M243.825,219.175
		c-2.46,0-4.38,1.74-4.74,4.38h8.85C247.875,220.735,246.255,219.175,243.825,219.175 M203.746,231.385c-3.3,0-6.6-2.43-6.6-6.99
		c0-4.38,3.18-6.9,6.78-6.9c1.92,0,3.39,0.6,4.74,1.8l-1.05,1.26c-1.08-0.93-2.13-1.35-3.69-1.35c-2.76,0-4.92,2.07-4.92,5.19
		c0,3.18,2.13,5.28,4.89,5.28c1.8,0,2.88-0.57,3.96-1.59l1.02,1.32C207.496,230.695,206.056,231.385,203.746,231.385
		 M170.116,231.385c-4.02,0-6.84-2.88-6.84-6.99c0-3.84,2.76-6.93,6.69-6.93c3.69,0,5.88,2.55,5.88,6.42c0,0.42-0.03,0.84-0.09,1.29
		h-10.619c0.3,2.82,2.46,4.5,4.95,4.5c1.86,0,3.03-0.57,4.05-1.62l1.05,1.32C173.836,230.665,172.216,231.385,170.116,231.385
		 M169.937,219.175c-2.46,0-4.38,1.74-4.74,4.38h8.849C173.986,220.735,172.367,219.175,169.937,219.175 M137.957,231.385
		c-3.99,0-6.84-2.88-6.84-6.96c0-4.08,2.85-6.96,6.84-6.96c4.05,0,6.9,2.88,6.9,6.96
		C144.857,228.505,142.007,231.385,137.957,231.385 M137.957,219.175c-2.94,0-4.98,2.19-4.98,5.25c0,3.09,2.04,5.25,4.98,5.25
		c2.97,0,5.04-2.16,5.04-5.25C142.997,221.365,140.957,219.175,137.957,219.175 M64.729,231.385c-3.99,0-6.84-2.88-6.84-6.96
		c0-4.08,2.85-6.96,6.84-6.96c4.05,0,6.9,2.88,6.9,6.96C71.628,228.505,68.779,231.385,64.729,231.385 M64.729,219.175
		c-2.94,0-4.98,2.19-4.98,5.25c0,3.09,2.04,5.25,4.98,5.25c2.97,0,5.04-2.16,5.04-5.25
		C69.769,221.365,67.729,219.175,64.729,219.175 M422.262,231.355c-3.93,0-6.66-2.94-6.66-6.99c0-3.93,2.76-6.84,6.66-6.84
		c2.16,0,4.05,0.96,5.13,2.52c-0.03-1.14-0.06-2.34-0.06-3.6v-6.9h1.83v21.509h-1.41l-0.27-2.37
		C426.402,230.335,424.572,231.355,422.262,231.355 M422.382,219.235c-2.94,0-4.95,2.16-4.95,5.19s2.01,5.19,4.95,5.19
		c3.06,0,5.01-2.19,5.01-5.19C427.392,221.425,425.382,219.235,422.382,219.235 M96.708,231.355c-3.93,0-6.66-2.94-6.66-6.99
		c0-3.93,2.76-6.84,6.66-6.84c2.16,0,4.05,0.96,5.13,2.52c-0.03-1.14-0.06-2.34-0.06-3.6v-6.9h1.83v21.509h-1.41l-0.27-2.37
		C100.848,230.335,99.018,231.355,96.708,231.355 M96.828,219.235c-2.94,0-4.95,2.16-4.95,5.19s2.01,5.19,4.95,5.19
		c3.06,0,5.01-2.19,5.01-5.19C101.838,221.425,99.828,219.235,96.828,219.235 M48.469,231.355c-2.25,0-4.11-0.99-5.22-2.61
		l-0.27,2.31h-1.41v-21.509h1.83v6.9c0,1.26-0.03,2.49-0.06,3.66c1.08-1.62,2.97-2.58,5.13-2.58c3.9,0,6.66,2.91,6.66,6.84
		C55.129,228.415,52.399,231.355,48.469,231.355 M48.349,219.235c-3,0-5.04,2.19-5.04,5.19c0,3,1.98,5.19,5.04,5.19
		c2.94,0,4.95-2.16,4.95-5.19S51.289,219.235,48.349,219.235 M649.029,231.295c-2.58,0-4.23-1.41-4.23-3.69
		c0-2.97,2.73-4.68,6.63-4.68c0.99,0,1.74,0.03,2.43,0.12v-0.9c0-1.86-1.32-2.79-3.36-2.79c-1.44,0-2.91,0.42-4.38,1.11l-0.63-1.56
		c1.8-0.84,3.51-1.26,5.19-1.26c3.03,0,5.04,1.59,5.04,4.59v8.82h-1.35l-0.33-2.4C653.079,230.245,651.369,231.295,649.029,231.295
		 M651.699,224.455c-3.12,0-4.98,1.08-4.98,3.03c0,1.32,0.96,2.1,2.61,2.1c2.73,0,4.44-1.98,4.53-5.01
		C653.139,224.485,652.569,224.455,651.699,224.455 M619,231.295c-2.58,0-4.23-1.41-4.23-3.69c0-2.97,2.73-4.68,6.63-4.68
		c0.99,0,1.74,0.03,2.43,0.12v-0.9c0-1.86-1.32-2.79-3.36-2.79c-1.44,0-2.91,0.42-4.38,1.11l-0.63-1.56
		c1.8-0.84,3.51-1.26,5.19-1.26c3.03,0,5.04,1.59,5.04,4.59v8.82h-1.35l-0.33-2.4C623.05,230.245,621.34,231.295,619,231.295
		 M621.67,224.455c-3.12,0-4.98,1.08-4.98,3.03c0,1.32,0.96,2.1,2.61,2.1c2.73,0,4.44-1.98,4.53-5.01
		C623.11,224.485,622.54,224.455,621.67,224.455 M607.72,231.295c-1.86,0-3.42-0.51-4.83-1.47l0.93-1.44c1.17,0.84,2.43,1.2,3.9,1.2
		c1.62,0,2.67-0.81,2.67-2.01c0-1.29-1.47-1.95-3.06-2.58c-2.16-0.84-3.96-1.86-3.96-3.99c0-2.22,2.04-3.36,4.29-3.36
		c1.44,0,2.82,0.42,4.02,1.2l-0.81,1.32c-0.96-0.54-2.04-0.84-3.12-0.84c-1.35,0-2.55,0.45-2.55,1.68c0,1.2,1.23,1.8,2.79,2.4
		c2.4,0.9,4.23,1.95,4.23,4.17C612.22,229.795,610.33,231.295,607.72,231.295 M582.73,231.295c-2.16,0-3.51-1.26-3.51-3.99v-7.89
		l-2.58-0.12v-1.5h2.58v-4.41h1.83v4.41h4.74v1.62h-4.74v7.89c0,1.68,0.69,2.25,1.86,2.25c0.93,0,1.77-0.3,2.61-0.9l0.81,1.38
		C585.34,230.785,584.11,231.295,582.73,231.295 M556.601,231.295c-2.58,0-4.23-1.41-4.23-3.69c0-2.97,2.73-4.68,6.63-4.68
		c0.99,0,1.74,0.03,2.43,0.12v-0.9c0-1.86-1.32-2.79-3.36-2.79c-1.44,0-2.91,0.42-4.38,1.11l-0.63-1.56
		c1.8-0.84,3.51-1.26,5.19-1.26c3.03,0,5.04,1.59,5.04,4.59v8.82h-1.35l-0.33-2.4C560.651,230.245,558.941,231.295,556.601,231.295
		 M559.271,224.455c-3.12,0-4.98,1.08-4.98,3.03c0,1.32,0.96,2.1,2.61,2.1c2.73,0,4.44-1.98,4.53-5.01
		C560.711,224.485,560.141,224.455,559.271,224.455 M525.371,231.295c-2.16,0-3.51-1.26-3.51-3.99v-7.89l-2.58-0.12v-1.5h2.58v-4.41
		h1.83v4.41h4.74v1.62h-4.74v7.89c0,1.68,0.69,2.25,1.86,2.25c0.93,0,1.77-0.3,2.61-0.9l0.81,1.38
		C527.981,230.785,526.751,231.295,525.371,231.295 M510.011,231.295c-2.58,0-4.23-1.41-4.23-3.69c0-2.97,2.73-4.68,6.63-4.68
		c0.99,0,1.74,0.03,2.43,0.12v-0.9c0-1.86-1.32-2.79-3.36-2.79c-1.44,0-2.91,0.42-4.38,1.11l-0.63-1.56
		c1.8-0.84,3.51-1.26,5.19-1.26c3.03,0,5.04,1.59,5.04,4.59v8.82h-1.35l-0.33-2.4C514.061,230.245,512.351,231.295,510.011,231.295
		 M512.681,224.455c-3.12,0-4.98,1.08-4.98,3.03c0,1.32,0.96,2.1,2.61,2.1c2.73,0,4.44-1.98,4.53-5.01
		C514.121,224.485,513.551,224.455,512.681,224.455 M460.272,231.295c-2.16,0-3.51-1.26-3.51-3.99v-7.89l-2.58-0.12v-1.5h2.58v-4.41
		h1.83v4.41h4.74v1.62h-4.74v7.89c0,1.68,0.69,2.25,1.86,2.25c0.93,0,1.77-0.3,2.61-0.9l0.81,1.38
		C462.881,230.785,461.652,231.295,460.272,231.295 M398.533,231.295c-2.58,0-4.23-1.41-4.23-3.69c0-2.97,2.73-4.68,6.63-4.68
		c0.99,0,1.74,0.03,2.43,0.12v-0.9c0-1.86-1.32-2.79-3.36-2.79c-1.44,0-2.91,0.42-4.38,1.11l-0.63-1.56
		c1.8-0.84,3.51-1.26,5.19-1.26c3.03,0,5.04,1.59,5.04,4.59v8.82h-1.35l-0.33-2.4C402.583,230.245,400.873,231.295,398.533,231.295
		 M401.203,224.455c-3.12,0-4.98,1.08-4.98,3.03c0,1.32,0.96,2.1,2.61,2.1c2.73,0,4.44-1.98,4.53-5.01
		C402.643,224.485,402.073,224.455,401.203,224.455 M387.253,231.295c-1.86,0-3.42-0.51-4.83-1.47l0.93-1.44
		c1.17,0.84,2.43,1.2,3.9,1.2c1.62,0,2.67-0.81,2.67-2.01c0-1.29-1.47-1.95-3.06-2.58c-2.16-0.84-3.96-1.86-3.96-3.99
		c0-2.22,2.04-3.36,4.29-3.36c1.44,0,2.82,0.42,4.02,1.2l-0.81,1.32c-0.96-0.54-2.04-0.84-3.12-0.84c-1.35,0-2.55,0.45-2.55,1.68
		c0,1.2,1.23,1.8,2.79,2.4c2.4,0.9,4.23,1.95,4.23,4.17C391.753,229.795,389.863,231.295,387.253,231.295 M365.744,231.295
		c-2.58,0-4.23-1.41-4.23-3.69c0-2.97,2.73-4.68,6.63-4.68c0.99,0,1.74,0.03,2.43,0.12v-0.9c0-1.86-1.32-2.79-3.36-2.79
		c-1.44,0-2.91,0.42-4.38,1.11l-0.63-1.56c1.8-0.84,3.51-1.26,5.19-1.26c3.03,0,5.04,1.59,5.04,4.59v8.82h-1.35l-0.33-2.4
		C369.793,230.245,368.084,231.295,365.744,231.295 M368.414,224.455c-3.12,0-4.98,1.08-4.98,3.03c0,1.32,0.96,2.1,2.61,2.1
		c2.73,0,4.44-1.98,4.53-5.01C369.853,224.485,369.284,224.455,368.414,224.455 M354.464,231.295c-1.86,0-3.42-0.51-4.83-1.47
		l0.93-1.44c1.17,0.84,2.43,1.2,3.9,1.2c1.62,0,2.67-0.81,2.67-2.01c0-1.29-1.47-1.95-3.06-2.58c-2.16-0.84-3.96-1.86-3.96-3.99
		c0-2.22,2.04-3.36,4.29-3.36c1.44,0,2.82,0.42,4.02,1.2l-0.81,1.32c-0.96-0.54-2.04-0.84-3.12-0.84c-1.35,0-2.55,0.45-2.55,1.68
		c0,1.2,1.23,1.8,2.79,2.4c2.4,0.9,4.23,1.95,4.23,4.17C358.964,229.795,357.074,231.295,354.464,231.295 M283.125,231.295
		c-1.86,0-3.42-0.51-4.83-1.47l0.93-1.44c1.17,0.84,2.43,1.2,3.9,1.2c1.62,0,2.67-0.81,2.67-2.01c0-1.29-1.47-1.95-3.06-2.58
		c-2.16-0.84-3.96-1.86-3.96-3.99c0-2.22,2.04-3.36,4.29-3.36c1.44,0,2.82,0.42,4.02,1.2l-0.81,1.32c-0.96-0.54-2.04-0.84-3.12-0.84
		c-1.35,0-2.55,0.45-2.55,1.68c0,1.2,1.23,1.8,2.79,2.4c2.4,0.9,4.23,1.95,4.23,4.17
		C287.625,229.795,285.735,231.295,283.125,231.295 M230.175,231.295c-1.86,0-3.42-0.51-4.83-1.47l0.93-1.44
		c1.17,0.84,2.43,1.2,3.9,1.2c1.62,0,2.67-0.81,2.67-2.01c0-1.29-1.47-1.95-3.06-2.58c-2.16-0.84-3.96-1.86-3.96-3.99
		c0-2.22,2.04-3.36,4.29-3.36c1.44,0,2.82,0.42,4.02,1.2l-0.81,1.32c-0.96-0.54-2.04-0.84-3.12-0.84c-1.35,0-2.55,0.45-2.55,1.68
		c0,1.2,1.23,1.8,2.79,2.4c2.4,0.9,4.23,1.95,4.23,4.17C234.675,229.795,232.785,231.295,230.175,231.295 M215.206,231.295
		c-2.58,0-4.23-1.41-4.23-3.69c0-2.97,2.73-4.68,6.63-4.68c0.99,0,1.74,0.03,2.43,0.12v-0.9c0-1.86-1.32-2.79-3.36-2.79
		c-1.44,0-2.91,0.42-4.38,1.11l-0.63-1.56c1.8-0.84,3.51-1.26,5.19-1.26c3.03,0,5.04,1.59,5.04,4.59v8.82h-1.35l-0.33-2.4
		C219.256,230.245,217.546,231.295,215.206,231.295 M217.876,224.455c-3.12,0-4.98,1.08-4.98,3.03c0,1.32,0.96,2.1,2.61,2.1
		c2.73,0,4.44-1.98,4.53-5.01C219.316,224.485,218.746,224.455,217.876,224.455 M183.166,231.295c-1.86,0-3.42-0.51-4.83-1.47
		l0.93-1.44c1.17,0.84,2.43,1.2,3.9,1.2c1.62,0,2.67-0.81,2.67-2.01c0-1.29-1.47-1.95-3.06-2.58c-2.16-0.84-3.96-1.86-3.96-3.99
		c0-2.22,2.04-3.36,4.29-3.36c1.44,0,2.82,0.42,4.02,1.2l-0.81,1.32c-0.96-0.54-2.04-0.84-3.12-0.84c-1.35,0-2.55,0.45-2.55,1.68
		c0,1.2,1.23,1.8,2.79,2.4c2.4,0.9,4.23,1.95,4.23,4.17C187.666,229.795,185.776,231.295,183.166,231.295 M641.349,231.055h-1.83
		v-8.13c0-2.25-0.84-3.69-3.06-3.69c-2.67,0-4.44,1.92-4.44,4.68v7.14h-1.83v-13.259h1.38l0.42,2.25c0.78-1.41,2.4-2.52,4.65-2.52
		c3.09,0,4.71,1.98,4.71,5.43V231.055 M569.621,231.055h-1.83v-13.259h1.38l0.36,1.95c0.75-1.38,2.01-2.22,3.87-2.22
		c0.84,0,1.56,0.18,2.16,0.45l-0.54,1.62c-0.51-0.18-1.02-0.33-1.77-0.33c-2.16,0-3.63,1.53-3.63,4.11V231.055 M502.331,231.055
		h-1.83v-8.4c0-2.13-1.08-3.42-2.94-3.42c-2.67,0-4.05,2.43-4.05,4.92v6.9h-1.83v-8.43c0-1.83-0.93-3.39-2.94-3.39
		c-2.7,0-4.08,2.43-4.08,4.92v6.9h-1.83v-13.259h1.38l0.42,2.28c0.87-1.62,2.4-2.55,4.32-2.55c2.01,0,3.48,0.99,4.11,2.67
		c0.87-1.62,2.4-2.67,4.62-2.67c3.03,0,4.65,2.01,4.65,5.22V231.055 M378.793,231.055h-1.83l-0.03-21.509h1.83L378.793,231.055
		 M339.344,231.055h-1.83v-8.13c0-2.25-0.84-3.69-3.06-3.69c-2.67,0-4.44,1.92-4.44,4.68v7.14h-1.83v-13.259h1.38l0.42,2.25
		c0.78-1.41,2.4-2.52,4.65-2.52c3.09,0,4.71,1.98,4.71,5.43V231.055 M255.105,231.055h-1.83v-13.259h1.38l0.36,1.95
		c0.75-1.38,2.01-2.22,3.87-2.22c0.84,0,1.56,0.18,2.16,0.45l-0.54,1.62c-0.51-0.18-1.02-0.33-1.77-0.33
		c-2.16,0-3.63,1.53-3.63,4.11V231.055 M159.737,231.055h-1.83v-8.13c0-2.25-0.84-3.69-3.06-3.69c-2.67,0-4.44,1.92-4.44,4.68v7.14
		h-1.83v-13.259h1.38l0.42,2.25c0.78-1.41,2.4-2.52,4.65-2.52c3.09,0,4.71,1.98,4.71,5.43V231.055 M110.118,231.055h-1.83v-13.259
		h1.83V231.055 M86.508,231.055h-1.83v-8.13c0-2.25-0.84-3.69-3.06-3.69c-2.67,0-4.44,1.92-4.44,4.68v7.14h-1.83v-13.259h1.38
		l0.42,2.25c0.78-1.41,2.4-2.52,4.65-2.52c3.09,0,4.71,1.98,4.71,5.43V231.055 M36.89,231.055h-1.83l-0.03-21.509h1.83
		L36.89,231.055 M32.269,231.055h-2.07l-2.16-4.68H16.88l-2.16,4.68h-2.07v-0.06l9.479-20.489h0.66l9.479,20.489V231.055
		 M22.46,213.986c-0.39,0.93-0.72,1.83-1.14,2.73l-3.63,7.86h9.51l-3.6-7.86C23.18,215.846,22.82,214.946,22.46,213.986
		 M109.218,214.316c-0.84,0-1.38-0.6-1.38-1.32c0-0.78,0.54-1.38,1.38-1.38c0.84,0,1.38,0.6,1.38,1.38
		C110.598,213.746,110.028,214.316,109.218,214.316"/>
	<path fill="#9D9D9C" d="M891.859,212.259l-5.496,3l0.984,1.992l2.136-1.056l0.6-0.312c-0.12,0.432-0.192,0.864-0.288,1.32
		l-1.992,11.041h2.808l2.808-15.985z M899.059,224.86l4.224-4.416c1.128-1.152,1.848-2.328,2.04-3.528
		c0.048-0.312,0.096-0.624,0.096-0.912c0-2.28-1.68-3.912-4.2-3.912c-2.136,0-3.816,0.984-5.328,2.76l1.776,1.68
		c0.984-1.104,2.04-1.896,3.264-1.896c1.104,0,1.704,0.696,1.704,1.608c0,0.864-0.504,1.848-1.464,2.856l-7.609,8.065l-0.192,1.08
		h10.201l0.408-2.424l-4.512,0.024c-0.48,0-0.984,0.024-1.464,0.048C898.363,225.58,898.699,225.22,899.059,224.86z M907.915,225.22
		c-0.816,0-1.584,0.504-1.776,1.464c-0.024,0.12-0.024,0.24-0.024,0.336c0,0.912,0.648,1.512,1.392,1.512h0.12
		c-0.36,1.008-1.032,1.776-2.04,2.544l0.576,0.696c1.68-1.128,2.808-2.64,3.216-4.296c0.072-0.24,0.096-0.48,0.096-0.696
		C909.475,225.748,908.779,225.22,907.915,225.22z M917.587,228.508c3.504,0,5.88-1.608,6.385-4.44
		c0.048-0.288,0.072-0.576,0.072-0.84c0-1.608-0.888-2.808-2.112-3.384c1.488-0.624,2.976-2.04,2.976-4.2
		c0-2.088-1.728-3.576-4.512-3.576c-3.12,0-5.424,1.656-5.88,4.224c-0.048,0.216-0.048,0.456-0.048,0.648
		c0,1.344,0.72,2.448,1.752,2.904c-1.824,0.552-3.216,2.112-3.552,3.96c-0.048,0.288-0.072,0.576-0.072,0.864
		C912.594,227.044,914.515,228.508,917.587,228.508z M919.291,218.715c-1.368,0-2.184-0.672-2.184-1.752
		c0-1.584,1.2-2.592,2.88-2.592c1.368,0,2.184,0.672,2.184,1.704C922.171,217.611,920.947,218.715,919.291,218.715z
		 M917.995,226.084c-1.512,0-2.544-0.648-2.544-1.968c0-0.168,0.024-0.312,0.048-0.48c0.264-1.536,1.584-2.64,3.312-2.64
		c1.608,0,2.472,0.816,2.472,2.064C921.283,224.98,919.795,226.084,917.995,226.084z M931.459,228.532
		c3.864,0,6.265-3.096,7.129-8.041c0.144-0.864,0.216-1.68,0.216-2.424c0-3.696-1.8-5.977-4.728-5.977
		c-3.96,0-6.241,3.072-7.129,8.017c-0.144,0.888-0.24,1.704-0.24,2.472C926.706,226.276,928.482,228.532,931.459,228.532z
		 M931.651,226.084c-1.464,0-2.184-1.368-2.184-3.504c0-0.672,0.072-1.44,0.216-2.256c0.624-3.552,2.16-5.785,4.2-5.785
		c1.464,0,2.16,1.344,2.16,3.456c0,0.696-0.072,1.464-0.216,2.28C935.203,223.828,933.691,226.084,931.651,226.084z"/>
	<path fill="#9D9D9C" d="M948.968,214.882c0.76,0,1.34,0.12,1.9,0.34l1-1.82c-0.88-0.4-1.7-0.62-2.881-0.62
		c-3.461,0-5.941,1.88-6.982,4.741h-1.5l-0.24,1.4h1.36c-0.06,0.36-0.12,0.74-0.14,1.12h-1.42l-0.26,1.4h1.7
		c0.26,2.861,2.24,5.041,5.501,5.041c1.04,0,1.92-0.18,2.801-0.6l-0.44-1.96c-0.64,0.32-1.26,0.46-2.06,0.46
		c-2.12,0-3.181-1.16-3.461-2.941h2.921l0.78-1.4h-3.741c0.02-0.38,0.06-0.76,0.16-1.12h4.161l0.76-1.4h-4.421
		C945.307,215.922,946.868,214.882,948.968,214.882z"/>
	<path fill="#000000" d="M303.617,279.655h-1.83v-19.859h1.38l0.39,2.22c1.14-1.53,2.94-2.49,5.19-2.49c3.78,0,6.54,2.88,6.54,6.84
		c0,4.08-2.76,6.99-6.57,6.99c-2.19,0-4.05-0.99-5.16-2.49c0.03,1.02,0.06,2.25,0.06,3.57V279.655 M308.597,261.235
		c-2.97,0-5.07,2.1-5.07,5.13c0,3.15,2.13,5.28,5.07,5.28c2.85,0,4.86-2.16,4.86-5.19
		C313.457,263.395,311.447,261.235,308.597,261.235 M284.417,279.655h-1.92v-0.06l2.94-6.87l-5.79-12.869v-0.06h1.92l3.81,8.49
		c0.33,0.78,0.66,1.53,0.96,2.46c0.3-0.93,0.6-1.71,0.9-2.46l3.45-8.49h1.89v0.06L284.417,279.655 M183.947,279.655h-1.83v-19.859
		h1.38l0.39,2.22c1.14-1.53,2.94-2.49,5.19-2.49c3.78,0,6.54,2.88,6.54,6.84c0,4.08-2.76,6.99-6.57,6.99
		c-2.19,0-4.05-0.99-5.16-2.49c0.03,1.02,0.06,2.25,0.06,3.57V279.655 M188.927,261.235c-2.97,0-5.07,2.1-5.07,5.13
		c0,3.15,2.13,5.28,5.07,5.28c2.85,0,4.86-2.16,4.86-5.19C193.787,263.395,191.777,261.235,188.927,261.235 M402.976,273.385
		c-3.99,0-6.84-2.88-6.84-6.96c0-4.08,2.85-6.96,6.84-6.96c4.05,0,6.9,2.88,6.9,6.96
		C409.876,270.505,407.026,273.385,402.976,273.385 M402.976,261.175c-2.94,0-4.98,2.19-4.98,5.25c0,3.09,2.04,5.25,4.98,5.25
		c2.97,0,5.04-2.16,5.04-5.25C408.016,263.365,405.976,261.175,402.976,261.175 M361.936,273.385c-4.02,0-6.84-2.88-6.84-6.99
		c0-3.84,2.76-6.93,6.69-6.93c3.69,0,5.88,2.55,5.88,6.42c0,0.42-0.03,0.84-0.09,1.29h-10.62c0.3,2.82,2.46,4.5,4.95,4.5
		c1.86,0,3.03-0.57,4.05-1.62l1.05,1.32C365.656,272.665,364.036,273.385,361.936,273.385 M361.756,261.175
		c-2.46,0-4.38,1.74-4.74,4.38h8.85C365.806,262.735,364.186,261.175,361.756,261.175 M148.998,273.385c-3.99,0-6.84-2.88-6.84-6.96
		c0-4.08,2.85-6.96,6.84-6.96c4.05,0,6.9,2.88,6.9,6.96C155.898,270.505,153.048,273.385,148.998,273.385 M148.998,261.175
		c-2.94,0-4.98,2.19-4.98,5.25c0,3.09,2.04,5.25,4.98,5.25c2.97,0,5.04-2.16,5.04-5.25
		C154.038,263.365,151.998,261.175,148.998,261.175 M135.138,273.385c-3.3,0-6.6-2.43-6.6-6.99c0-4.38,3.18-6.9,6.78-6.9
		c1.92,0,3.39,0.6,4.74,1.8l-1.05,1.26c-1.08-0.93-2.13-1.35-3.69-1.35c-2.76,0-4.92,2.07-4.92,5.19c0,3.18,2.13,5.28,4.89,5.28
		c1.8,0,2.88-0.57,3.96-1.59l1.02,1.32C138.888,272.695,137.448,273.385,135.138,273.385 M101.899,273.385
		c-3.99,0-6.84-2.88-6.84-6.96c0-4.08,2.85-6.96,6.84-6.96c4.05,0,6.9,2.88,6.9,6.96
		C108.799,270.505,105.948,273.385,101.899,273.385 M101.899,261.175c-2.94,0-4.98,2.19-4.98,5.25c0,3.09,2.04,5.25,4.98,5.25
		c2.97,0,5.04-2.16,5.04-5.25C106.939,263.365,104.899,261.175,101.899,261.175 M88.039,273.385c-3.3,0-6.6-2.43-6.6-6.99
		c0-4.38,3.18-6.9,6.78-6.9c1.92,0,3.39,0.6,4.74,1.8l-1.05,1.26c-1.08-0.93-2.13-1.35-3.69-1.35c-2.76,0-4.92,2.07-4.92,5.19
		c0,3.18,2.13,5.28,4.89,5.28c1.8,0,2.88-0.57,3.96-1.59l1.02,1.32C91.789,272.695,90.349,273.385,88.039,273.385 M73.129,273.385
		c-4.02,0-6.84-2.88-6.84-6.99c0-3.84,2.76-6.93,6.69-6.93c3.69,0,5.88,2.55,5.88,6.42c0,0.42-0.03,0.84-0.09,1.29H68.149
		c0.3,2.82,2.46,4.5,4.95,4.5c1.86,0,3.03-0.57,4.05-1.62l1.05,1.32C76.849,272.665,75.229,273.385,73.129,273.385 M72.949,261.175
		c-2.46,0-4.38,1.74-4.74,4.38h8.85C76.999,262.735,75.379,261.175,72.949,261.175 M391.036,273.295c-2.16,0-3.51-1.26-3.51-3.99
		v-7.89l-2.58-0.12v-1.5h2.58v-4.41h1.83v4.41h4.74v1.62h-4.74v7.89c0,1.68,0.69,2.25,1.86,2.25c0.93,0,1.77-0.3,2.61-0.9l0.81,1.38
		C393.646,272.785,392.416,273.295,391.036,273.295 M266.957,273.295c-1.86,0-3.42-0.51-4.83-1.47l0.93-1.44
		c1.17,0.84,2.43,1.2,3.9,1.2c1.62,0,2.67-0.81,2.67-2.01c0-1.29-1.47-1.95-3.06-2.58c-2.16-0.84-3.96-1.86-3.96-3.99
		c0-2.22,2.04-3.36,4.29-3.36c1.44,0,2.82,0.42,4.02,1.2l-0.81,1.32c-0.96-0.54-2.04-0.84-3.12-0.84c-1.35,0-2.55,0.45-2.55,1.68
		c0,1.2,1.23,1.8,2.79,2.4c2.4,0.9,4.23,1.95,4.23,4.17C271.456,271.795,269.567,273.295,266.957,273.295 M251.987,273.295
		c-2.58,0-4.23-1.41-4.23-3.69c0-2.97,2.73-4.68,6.63-4.68c0.99,0,1.74,0.03,2.43,0.12v-0.9c0-1.86-1.32-2.79-3.36-2.79
		c-1.44,0-2.91,0.42-4.38,1.11l-0.63-1.56c1.8-0.84,3.51-1.26,5.19-1.26c3.03,0,5.04,1.59,5.04,4.59v8.82h-1.35l-0.33-2.4
		C256.037,272.245,254.327,273.295,251.987,273.295 M254.657,266.455c-3.12,0-4.98,1.08-4.98,3.03c0,1.32,0.96,2.1,2.61,2.1
		c2.73,0,4.44-1.98,4.53-5.01C256.097,266.485,255.527,266.455,254.657,266.455 M242.477,273.295c-2.16,0-3.51-1.26-3.51-3.99v-7.89
		l-2.58-0.12v-1.5h2.58v-4.41h1.83v4.41h4.74v1.62h-4.74v7.89c0,1.68,0.69,2.25,1.86,2.25c0.93,0,1.77-0.3,2.61-0.9l0.81,1.38
		C245.087,272.785,243.857,273.295,242.477,273.295 M227.117,273.295c-2.58,0-4.23-1.41-4.23-3.69c0-2.97,2.73-4.68,6.63-4.68
		c0.99,0,1.74,0.03,2.43,0.12v-0.9c0-1.86-1.32-2.79-3.36-2.79c-1.44,0-2.91,0.42-4.38,1.11l-0.63-1.56
		c1.8-0.84,3.51-1.26,5.19-1.26c3.03,0,5.04,1.59,5.04,4.59v8.82h-1.35l-0.33-2.4C231.167,272.245,229.457,273.295,227.117,273.295
		 M229.787,266.455c-3.12,0-4.98,1.08-4.98,3.03c0,1.32,0.96,2.1,2.61,2.1c2.73,0,4.44-1.98,4.53-5.01
		C231.227,266.485,230.657,266.455,229.787,266.455 M217.607,273.295c-2.16,0-3.51-1.26-3.51-3.99v-7.89l-2.58-0.12v-1.5h2.58v-4.41
		h1.83v4.41h4.74v1.62h-4.74v7.89c0,1.68,0.69,2.25,1.86,2.25c0.93,0,1.77-0.3,2.61-0.9l0.81,1.38
		C220.217,272.785,218.987,273.295,217.607,273.295 M202.247,273.295c-2.58,0-4.23-1.41-4.23-3.69c0-2.97,2.73-4.68,6.63-4.68
		c0.99,0,1.74,0.03,2.43,0.12v-0.9c0-1.86-1.32-2.79-3.36-2.79c-1.44,0-2.91,0.42-4.38,1.11l-0.63-1.56
		c1.8-0.84,3.51-1.26,5.19-1.26c3.03,0,5.04,1.59,5.04,4.59v8.82h-1.35l-0.33-2.4C206.297,272.245,204.587,273.295,202.247,273.295
		 M204.917,266.455c-3.12,0-4.98,1.08-4.98,3.03c0,1.32,0.96,2.1,2.61,2.1c2.73,0,4.44-1.98,4.53-5.01
		C206.357,266.485,205.787,266.455,204.917,266.455 M116.329,273.295c-2.16,0-3.51-1.26-3.51-3.99v-7.89l-2.58-0.12v-1.5h2.58v-4.41
		h1.83v4.41h4.74v1.62h-4.74v7.89c0,1.68,0.69,2.25,1.86,2.25c0.93,0,1.77-0.3,2.61-0.9l0.81,1.38
		C118.938,272.785,117.709,273.295,116.329,273.295 M51.11,273.295c-2.16,0-3.51-1.26-3.51-3.99v-7.89l-2.58-0.12v-1.5h2.58v-4.41
		h1.83v4.41h4.74v1.62h-4.74v7.89c0,1.68,0.69,2.25,1.86,2.25c0.93,0,1.77-0.3,2.61-0.9l0.81,1.38
		C53.719,272.785,52.49,273.295,51.11,273.295 M382.366,273.055h-1.83v-8.13c0-2.25-0.84-3.69-3.06-3.69
		c-2.67,0-4.44,1.92-4.44,4.68v7.14h-1.83v-13.259h1.38l0.42,2.25c0.78-1.41,2.4-2.52,4.65-2.52c3.09,0,4.71,1.98,4.71,5.43V273.055
		 M351.377,273.055h-1.83v-13.259h1.83V273.055 M345.046,273.055h-1.83v-8.4c0-2.13-1.08-3.42-2.94-3.42
		c-2.67,0-4.05,2.43-4.05,4.92v6.9h-1.83v-8.43c0-1.83-0.93-3.39-2.94-3.39c-2.7,0-4.08,2.43-4.08,4.92v6.9h-1.83v-13.259h1.38
		l0.42,2.28c0.87-1.62,2.4-2.55,4.32-2.55c2.01,0,3.48,0.99,4.11,2.67c0.87-1.62,2.4-2.67,4.62-2.67c3.03,0,4.65,2.01,4.65,5.22
		V273.055 M320.867,273.055h-1.83v-13.259h1.83V273.055 M170.778,273.055h-1.83v-8.13c0-2.25-0.84-3.69-3.06-3.69
		c-2.67,0-4.44,1.92-4.44,4.68v7.14h-1.83v-13.259h1.38l0.42,2.25c0.78-1.41,2.4-2.52,4.65-2.52c3.09,0,4.71,1.98,4.71,5.43V273.055
		 M59.269,273.055h-1.83v-13.259h1.38l0.36,1.95c0.75-1.38,2.01-2.22,3.87-2.22c0.84,0,1.56,0.18,2.16,0.45l-0.54,1.62
		c-0.51-0.18-1.02-0.33-1.77-0.33c-2.16,0-3.63,1.53-3.63,4.11V273.055 M42.439,273.055h-1.83v-8.13c0-2.25-0.84-3.69-3.06-3.69
		c-2.67,0-4.44,1.92-4.44,4.68v7.14h-1.83v-13.259h1.38l0.42,2.25c0.78-1.41,2.4-2.52,4.65-2.52c3.09,0,4.71,1.98,4.71,5.43V273.055
		 M27.679,273.055H15.23v-20.399h12.18v1.8h-10.2v7.26h8.97v1.77h-8.97v7.77h10.469V273.055 M350.477,256.316
		c-0.84,0-1.38-0.6-1.38-1.32c0-0.78,0.54-1.38,1.38-1.38c0.84,0,1.38,0.6,1.38,1.38
		C351.857,255.746,351.287,256.316,350.477,256.316 M319.967,256.316c-0.84,0-1.38-0.6-1.38-1.32c0-0.78,0.54-1.38,1.38-1.38
		c0.84,0,1.38,0.6,1.38,1.38C321.347,255.746,320.777,256.316,319.967,256.316"/>
	<path fill="#9D9D9C" d="M891.451,254.259l-5.496,3l0.984,1.992l2.136-1.056l0.6-0.312c-0.12,0.432-0.192,0.864-0.288,1.32
		l-1.992,11.041h2.808l2.808-15.985z M900.883,254.067c-3.024,0-5.28,1.92-5.809,4.872c-0.072,0.384-0.096,0.744-0.096,1.08
		c0,2.592,1.824,4.272,4.128,4.272c1.248,0,2.184-0.288,3.192-1.032c-1.176,2.952-3.648,4.776-7.345,4.896l0.168,2.304
		c6.049-0.096,9.337-3.96,10.369-9.145l0.072-0.336c0.12-0.6,0.168-1.176,0.168-1.728
		C905.732,256.179,904.052,254.067,900.883,254.067z M899.923,261.987c-1.44,0-2.232-1.032-2.232-2.328
		c0-0.192,0.024-0.384,0.048-0.576c0.312-1.656,1.44-2.568,3.024-2.592c1.344,0,2.328,0.936,2.328,2.28
		c0,0.168-0.024,0.336-0.048,0.528C902.78,260.835,901.699,261.987,899.923,261.987z M908.635,267.22
		c-0.816,0-1.584,0.504-1.776,1.464c-0.024,0.12-0.024,0.24-0.024,0.336c0,0.912,0.648,1.512,1.392,1.512h0.12
		c-0.36,1.008-1.032,1.776-2.04,2.544l0.576,0.696c1.68-1.128,2.808-2.64,3.216-4.296c0.072-0.24,0.096-0.48,0.096-0.696
		C910.195,267.748,909.499,267.22,908.635,267.22z M920.179,254.067c-3.024,0-5.28,1.92-5.809,4.872
		c-0.072,0.384-0.096,0.744-0.096,1.08c0,2.592,1.824,4.272,4.128,4.272c1.248,0,2.184-0.288,3.192-1.032
		c-1.176,2.952-3.648,4.776-7.345,4.896l0.168,2.304c6.049-0.096,9.337-3.96,10.369-9.145l0.072-0.336
		c0.12-0.6,0.168-1.176,0.168-1.728C925.027,256.179,923.347,254.067,920.179,254.067z M919.219,261.987
		c-1.44,0-2.232-1.032-2.232-2.328c0-0.192,0.024-0.384,0.048-0.576c0.312-1.656,1.44-2.568,3.024-2.592
		c1.344,0,2.328,0.936,2.328,2.28c0,0.168-0.024,0.336-0.048,0.528C922.075,260.835,920.995,261.987,919.219,261.987z
		 M931.459,270.532c3.864,0,6.265-3.096,7.129-8.041c0.144-0.864,0.216-1.68,0.216-2.424c0-3.696-1.8-5.977-4.728-5.977
		c-3.96,0-6.241,3.072-7.129,8.017c-0.144,0.888-0.24,1.704-0.24,2.472C926.706,268.276,928.482,270.532,931.459,270.532z
		 M931.651,268.084c-1.464,0-2.184-1.368-2.184-3.504c0-0.672,0.072-1.44,0.216-2.256c0.624-3.552,2.16-5.785,4.2-5.785
		c1.464,0,2.16,1.344,2.16,3.456c0,0.696-0.072,1.464-0.216,2.28C935.203,265.828,933.691,268.084,931.651,268.084z"/>
	<path fill="#9D9D9C" d="M948.968,256.882c0.76,0,1.34,0.12,1.9,0.34l1-1.82c-0.88-0.4-1.7-0.62-2.881-0.62
		c-3.461,0-5.941,1.88-6.982,4.741h-1.5l-0.24,1.4h1.36c-0.06,0.36-0.12,0.74-0.14,1.12h-1.42l-0.26,1.4h1.7
		c0.26,2.861,2.24,5.041,5.501,5.041c1.04,0,1.92-0.18,2.801-0.6l-0.44-1.96c-0.64,0.32-1.26,0.46-2.06,0.46
		c-2.12,0-3.181-1.16-3.461-2.941h2.921l0.78-1.4h-3.741c0.02-0.38,0.06-0.76,0.16-1.12h4.161l0.76-1.4h-4.421
		C945.307,257.922,946.868,256.882,948.968,256.882z"/>
</g>
</svg>
