<!-- Generator: Adobe InDesign 21.0 SVG Export Plug-in, SVG Library version: 9.3 build 128 -->
<!DOCTYPE svg PUBLIC "-//W3C//DTD SVG 1.1//EN" "http://www.w3.org/Graphics/SVG/1.1/DTD/svg11.dtd">
<svg version="1.1" xmlns="http://www.w3.org/2000/svg" xmlns:xlink="http://www.w3.org/1999/xlink" x="0%" y="0%" width="100%"
	 height="100%" viewBox="0 0 977.626 285.32" preserveAspectRatio="xMidYMid slice" overflow="visible" xml:space="preserve">
<clipPath id="clp_unq_id_1" fill="none">
	<path shape-rendering="crispEdges" stroke="#000000" d="M0,0h977.626v285.32H0V0"/>
</clipPath>
<g clip-path="url(#clp_unq_id_1)" fill="none">
	<path fill="#000000" d="M203.268,69.655h-1.92v-0.06l2.94-6.87l-5.79-12.87v-0.06h1.92l3.81,8.49c0.33,0.78,0.66,1.53,0.96,2.46
		c0.3-0.93,0.6-1.71,0.9-2.46l3.45-8.49h1.89v0.06L203.268,69.655 M62.329,69.655h-1.83V49.795h1.38l0.39,2.22
		c1.14-1.53,2.94-2.49,5.19-2.49c3.78,0,6.54,2.88,6.54,6.84c0,4.08-2.76,6.99-6.57,6.99c-2.19,0-4.05-0.99-5.16-2.49
		c0.03,1.02,0.06,2.25,0.06,3.57V69.655 M67.309,51.236c-2.97,0-5.07,2.1-5.07,5.13c0,3.15,2.13,5.28,5.07,5.28
		c2.85,0,4.86-2.16,4.86-5.19C72.169,53.395,70.159,51.236,67.309,51.236 M24.29,63.415c-6.15,0-10.349-4.77-10.349-10.59
		c0-6.03,4.29-10.53,10.349-10.53c3.21,0,5.52,1.14,7.68,3.33l-1.17,1.2c-1.62-1.68-3.6-2.7-6.51-2.7c-4.92,0-8.37,3.75-8.37,8.7
		c0,4.83,3.42,8.76,8.37,8.76c2.88,0,5.16-1.38,6.66-3.39l1.41,1.11C30.679,61.735,27.889,63.415,24.29,63.415 M333.736,63.385
		c-4.02,0-6.84-2.88-6.84-6.99c0-3.84,2.76-6.93,6.69-6.93c3.69,0,5.88,2.55,5.88,6.42c0,0.42-0.03,0.84-0.09,1.29h-10.619
		c0.3,2.82,2.46,4.5,4.95,4.5c1.86,0,3.03-0.57,4.05-1.62l1.05,1.32C337.456,62.665,335.836,63.385,333.736,63.385 M333.556,51.175
		c-2.46,0-4.38,1.74-4.74,4.38h8.85C337.606,52.735,335.986,51.175,333.556,51.175 M286.097,63.385c-3.99,0-6.84-2.88-6.84-6.96
		s2.85-6.96,6.84-6.96c4.05,0,6.9,2.88,6.9,6.96S290.146,63.385,286.097,63.385 M286.097,51.175c-2.94,0-4.98,2.19-4.98,5.25
		c0,3.09,2.04,5.25,4.98,5.25c2.97,0,5.04-2.16,5.04-5.25C291.136,53.365,289.096,51.175,286.097,51.175 M272.237,63.385
		c-3.3,0-6.6-2.43-6.6-6.99c0-4.38,3.18-6.9,6.78-6.9c1.92,0,3.39,0.6,4.74,1.8l-1.05,1.26c-1.08-0.93-2.13-1.35-3.69-1.35
		c-2.76,0-4.92,2.07-4.92,5.19c0,3.18,2.13,5.28,4.89,5.28c1.8,0,2.88-0.57,3.96-1.59l1.02,1.32
		C275.986,62.695,274.547,63.385,272.237,63.385 M255.977,63.385c-3.99,0-6.84-2.88-6.84-6.96s2.85-6.96,6.84-6.96
		c4.05,0,6.9,2.88,6.9,6.96S260.027,63.385,255.977,63.385 M255.977,51.175c-2.94,0-4.98,2.19-4.98,5.25c0,3.09,2.04,5.25,4.98,5.25
		c2.97,0,5.04-2.16,5.04-5.25C261.017,53.365,258.977,51.175,255.977,51.175 M226.278,63.385c-3.3,0-6.6-2.43-6.6-6.99
		c0-4.38,3.18-6.9,6.78-6.9c1.92,0,3.39,0.6,4.74,1.8l-1.05,1.26c-1.08-0.93-2.13-1.35-3.69-1.35c-2.76,0-4.92,2.07-4.92,5.19
		c0,3.18,2.13,5.28,4.89,5.28c1.8,0,2.88-0.57,3.96-1.59l1.02,1.32C230.027,62.695,228.587,63.385,226.278,63.385 M122.898,63.385
		c-4.02,0-6.84-2.88-6.84-6.99c0-3.84,2.76-6.93,6.69-6.93c3.69,0,5.88,2.55,5.88,6.42c0,0.42-0.03,0.84-0.09,1.29h-10.619
		c0.3,2.82,2.46,4.5,4.95,4.5c1.86,0,3.03-0.57,4.05-1.62l1.05,1.32C126.618,62.665,124.998,63.385,122.898,63.385 M122.718,51.175
		c-2.46,0-4.38,1.74-4.74,4.38h8.85C126.768,52.735,125.148,51.175,122.718,51.175 M83.629,63.385c-4.02,0-6.84-2.88-6.84-6.99
		c0-3.84,2.76-6.93,6.69-6.93c3.69,0,5.88,2.55,5.88,6.42c0,0.42-0.03,0.84-0.09,1.29h-10.62c0.3,2.82,2.46,4.5,4.95,4.5
		c1.86,0,3.03-0.57,4.05-1.62l1.05,1.32C87.349,62.665,85.729,63.385,83.629,63.385 M83.449,51.175c-2.46,0-4.38,1.74-4.74,4.38
		h8.85C87.499,52.735,85.879,51.175,83.449,51.175 M51.229,63.385c-4.02,0-6.84-2.88-6.84-6.99c0-3.84,2.76-6.93,6.69-6.93
		c3.69,0,5.88,2.55,5.88,6.42c0,0.42-0.03,0.84-0.09,1.29h-10.62c0.3,2.82,2.46,4.5,4.95,4.5c1.86,0,3.03-0.57,4.05-1.62l1.05,1.32
		C54.949,62.665,53.329,63.385,51.229,63.385 M51.049,51.175c-2.46,0-4.38,1.74-4.74,4.38h8.849
		C55.099,52.735,53.479,51.175,51.049,51.175 M105.438,63.355c-3.93,0-6.66-2.94-6.66-6.99c0-3.93,2.76-6.84,6.66-6.84
		c2.16,0,4.05,0.96,5.13,2.52c-0.03-1.14-0.06-2.34-0.06-3.6v-6.9h1.83v21.509h-1.41l-0.27-2.37
		C109.578,62.335,107.749,63.355,105.438,63.355 M105.559,51.236c-2.94,0-4.95,2.16-4.95,5.19s2.01,5.19,4.95,5.19
		c3.06,0,5.01-2.19,5.01-5.19C110.568,53.425,108.558,51.236,105.559,51.236 M321.796,63.295c-2.16,0-3.51-1.26-3.51-3.99v-7.89
		l-2.58-0.12v-1.5h2.58v-4.41h1.83v4.41h4.74v1.62h-4.74v7.89c0,1.68,0.69,2.25,1.86,2.25c0.93,0,1.77-0.3,2.61-0.9l0.81,1.38
		C324.406,62.785,323.176,63.295,321.796,63.295 M306.436,63.295c-2.58,0-4.23-1.41-4.23-3.69c0-2.97,2.73-4.68,6.63-4.68
		c0.99,0,1.74,0.03,2.43,0.12v-0.9c0-1.86-1.32-2.79-3.36-2.79c-1.44,0-2.91,0.42-4.38,1.11l-0.63-1.56
		c1.8-0.84,3.51-1.26,5.19-1.26c3.03,0,5.04,1.59,5.04,4.59v8.82h-1.35l-0.33-2.4C310.486,62.245,308.776,63.295,306.436,63.295
		 M309.106,56.455c-3.12,0-4.98,1.08-4.98,3.03c0,1.32,0.96,2.1,2.61,2.1c2.73,0,4.44-1.98,4.53-5.01
		C310.546,56.485,309.976,56.455,309.106,56.455 M182.717,63.295c-2.58,0-4.23-1.41-4.23-3.69c0-2.97,2.73-4.68,6.63-4.68
		c0.99,0,1.74,0.03,2.43,0.12v-0.9c0-1.86-1.32-2.79-3.36-2.79c-1.44,0-2.91,0.42-4.38,1.11l-0.63-1.56
		c1.8-0.84,3.51-1.26,5.19-1.26c3.03,0,5.04,1.59,5.04,4.59v8.82h-1.35l-0.33-2.4C186.767,62.245,185.057,63.295,182.717,63.295
		 M185.387,56.455c-3.12,0-4.98,1.08-4.98,3.03c0,1.32,0.96,2.1,2.61,2.1c2.73,0,4.44-1.98,4.53-5.01
		C186.827,56.485,186.257,56.455,185.387,56.455 M173.208,63.295c-2.16,0-3.51-1.26-3.51-3.99v-7.89l-2.58-0.12v-1.5h2.58v-4.41
		h1.83v4.41h4.74v1.62h-4.74v7.89c0,1.68,0.69,2.25,1.86,2.25c0.93,0,1.77-0.3,2.61-0.9l0.81,1.38
		C175.817,62.785,174.588,63.295,173.208,63.295 M157.847,63.295c-2.58,0-4.23-1.41-4.23-3.69c0-2.97,2.73-4.68,6.63-4.68
		c0.99,0,1.74,0.03,2.43,0.12v-0.9c0-1.86-1.32-2.79-3.36-2.79c-1.44,0-2.91,0.42-4.38,1.11l-0.63-1.56
		c1.8-0.84,3.51-1.26,5.19-1.26c3.03,0,5.04,1.59,5.04,4.59v8.82h-1.35l-0.33-2.4C161.897,62.245,160.187,63.295,157.847,63.295
		 M160.517,56.455c-3.12,0-4.98,1.08-4.98,3.03c0,1.32,0.96,2.1,2.61,2.1c2.73,0,4.44-1.98,4.53-5.01
		C161.957,56.485,161.387,56.455,160.517,56.455 M298.576,63.055h-1.83l-0.03-21.509h1.83L298.576,63.055 M245.597,63.055h-1.83
		v-8.16c0-2.22-0.9-3.66-3.12-3.66c-2.82,0-4.38,2.4-4.38,5.28v6.54h-1.83V41.546h1.83v8.58c0,0.66,0,1.29-0.03,2.07
		c0.81-1.56,2.34-2.67,4.59-2.67c3.24,0,4.77,2.04,4.77,5.43V63.055 M150.168,63.055h-1.83v-8.13c0-2.25-0.84-3.69-3.06-3.69
		c-2.67,0-4.44,1.92-4.44,4.68v7.14h-1.83V49.795h1.38l0.42,2.25c0.78-1.41,2.4-2.52,4.65-2.52c3.09,0,4.71,1.98,4.71,5.43V63.055
		 M37.37,63.055h-1.83V49.795h1.38l0.36,1.95c0.75-1.38,2.01-2.22,3.87-2.22c0.84,0,1.56,0.18,2.16,0.45l-0.54,1.62
		c-0.51-0.18-1.02-0.33-1.77-0.33c-2.16,0-3.63,1.53-3.63,4.11V63.055"/>
	<path fill="#9D9D9C" d="M898.555,44.379l-0.432,2.424h5.401c0.384,0,0.792,0,1.2-0.024c-0.192,0.336-0.408,0.648-0.576,0.984
		l-6.889,12.481h2.976l8.137-14.833l0.192-1.032z M909.715,57.22c-0.816,0-1.584,0.504-1.776,1.464
		c-0.024,0.12-0.024,0.24-0.024,0.336c0,0.912,0.648,1.512,1.392,1.512h0.12c-0.36,1.008-1.032,1.776-2.04,2.544l0.576,0.696
		c1.68-1.128,2.808-2.64,3.216-4.296c0.072-0.24,0.096-0.48,0.096-0.696C911.275,57.748,910.579,57.22,909.715,57.22z
		 M925.435,46.803l0.432-2.424h-7.993l-2.352,8.113l0.408,0.312c0.888-0.312,1.8-0.504,2.736-0.504c1.776,0,3.048,0.792,3.048,2.328
		c0,0.192,0,0.384-0.048,0.6c-0.336,1.848-1.872,2.784-3.672,2.784c-1.44,0-2.472-0.528-3.048-1.392l-1.68,1.848
		c0.984,1.272,2.688,2.088,4.8,2.088c3.288,0,5.832-1.896,6.337-4.92c0.072-0.432,0.12-0.816,0.12-1.2c0-2.736-1.944-4.2-4.848-4.2
		c-0.384,0-0.72,0.024-1.032,0.048l1.056-3.48z M931.459,60.532c3.864,0,6.265-3.096,7.129-8.041
		c0.144-0.864,0.216-1.68,0.216-2.424c0-3.696-1.8-5.977-4.728-5.977c-3.96,0-6.241,3.072-7.129,8.017
		c-0.144,0.888-0.24,1.704-0.24,2.472C926.706,58.276,928.482,60.532,931.459,60.532z M931.651,58.084
		c-1.464,0-2.184-1.368-2.184-3.504c0-0.672,0.072-1.44,0.216-2.256c0.624-3.552,2.16-5.785,4.2-5.785
		c1.464,0,2.16,1.344,2.16,3.456c0,0.696-0.072,1.464-0.216,2.28C935.203,55.828,933.691,58.084,931.651,58.084z"/>
	<path fill="#9D9D9C" d="M948.968,46.882c0.76,0,1.34,0.12,1.9,0.34l1-1.82c-0.88-0.4-1.7-0.62-2.881-0.62
		c-3.461,0-5.941,1.88-6.982,4.741h-1.5l-0.24,1.4h1.36c-0.06,0.36-0.12,0.74-0.14,1.12h-1.42l-0.26,1.4h1.7
		c0.26,2.861,2.24,5.041,5.501,5.041c1.04,0,1.92-0.18,2.801-0.6l-0.44-1.96c-0.64,0.32-1.26,0.46-2.06,0.46
		c-2.12,0-3.181-1.16-3.461-2.941h2.921l0.78-1.4h-3.741c0.02-0.38,0.06-0.76,0.16-1.12h4.161l0.76-1.4h-4.421
		C945.307,47.922,946.868,46.882,948.968,46.882z"/>
	<path fill="#000000" d="M486.852,111.655h-1.92v-0.06l2.94-6.87l-5.79-12.87v-0.06h1.92l3.81,8.489c0.33,0.78,0.66,1.53,0.96,2.46
		c0.3-0.93,0.6-1.71,0.9-2.46l3.45-8.489h1.89v0.06L486.852,111.655 M414.763,111.655h-1.83V91.796h1.38l0.39,2.22
		c1.14-1.53,2.94-2.49,5.19-2.49c3.78,0,6.54,2.88,6.54,6.84c0,4.08-2.76,6.99-6.57,6.99c-2.19,0-4.05-0.99-5.16-2.49
		c0.03,1.02,0.06,2.25,0.06,3.57V111.655 M419.743,93.235c-2.97,0-5.07,2.1-5.07,5.13c0,3.15,2.13,5.28,5.07,5.28
		c2.85,0,4.86-2.16,4.86-5.19C424.602,95.395,422.593,93.235,419.743,93.235 M253.575,111.655h-1.83v-5.22
		c0-1.41,0.03-2.67,0.06-3.72c-1.08,1.62-2.94,2.64-5.16,2.64c-3.87,0-6.6-2.91-6.6-6.99c0-3.96,2.76-6.84,6.57-6.84
		c2.25,0,3.99,0.93,5.16,2.55l0.42-2.28h1.38V111.655 M246.765,93.235c-2.85,0-4.86,2.16-4.86,5.22c0,3.03,2.01,5.19,4.86,5.19
		c2.94,0,5.04-2.13,5.04-5.28C251.805,95.335,249.735,93.235,246.765,93.235 M24.29,105.415c-6.15,0-10.349-4.77-10.349-10.59
		c0-6.03,4.29-10.53,10.349-10.53c3.21,0,5.52,1.14,7.68,3.33l-1.17,1.2c-1.62-1.68-3.6-2.7-6.51-2.7c-4.92,0-8.37,3.75-8.37,8.7
		c0,4.83,3.42,8.76,8.37,8.76c2.88,0,5.16-1.38,6.66-3.39l1.41,1.11C30.679,103.735,27.889,105.415,24.29,105.415 M617.321,105.385
		c-4.02,0-6.84-2.88-6.84-6.99c0-3.84,2.76-6.93,6.69-6.93c3.69,0,5.88,2.55,5.88,6.42c0,0.42-0.03,0.84-0.09,1.29h-10.62
		c0.3,2.82,2.46,4.5,4.95,4.5c1.86,0,3.03-0.57,4.05-1.62l1.05,1.32C621.04,104.665,619.42,105.385,617.321,105.385 M617.141,93.175
		c-2.46,0-4.38,1.74-4.74,4.38h8.85C621.19,94.735,619.57,93.175,617.141,93.175 M569.681,105.385c-3.99,0-6.84-2.88-6.84-6.96
		c0-4.08,2.85-6.96,6.84-6.96c4.05,0,6.9,2.88,6.9,6.96C576.581,102.505,573.731,105.385,569.681,105.385 M569.681,93.175
		c-2.94,0-4.98,2.19-4.98,5.25c0,3.09,2.04,5.25,4.98,5.25c2.97,0,5.04-2.16,5.04-5.25
		C574.721,95.365,572.681,93.175,569.681,93.175 M555.821,105.385c-3.3,0-6.6-2.43-6.6-6.99c0-4.38,3.18-6.9,6.78-6.9
		c1.92,0,3.39,0.6,4.74,1.8l-1.05,1.26c-1.08-0.93-2.13-1.35-3.69-1.35c-2.76,0-4.92,2.07-4.92,5.19c0,3.18,2.13,5.28,4.89,5.28
		c1.8,0,2.88-0.57,3.96-1.59l1.02,1.32C559.571,104.695,558.131,105.385,555.821,105.385 M539.562,105.385
		c-3.99,0-6.84-2.88-6.84-6.96c0-4.08,2.85-6.96,6.84-6.96c4.05,0,6.9,2.88,6.9,6.96
		C546.461,102.505,543.612,105.385,539.562,105.385 M539.562,93.175c-2.94,0-4.98,2.19-4.98,5.25c0,3.09,2.04,5.25,4.98,5.25
		c2.97,0,5.04-2.16,5.04-5.25C544.602,95.365,542.561,93.175,539.562,93.175 M509.862,105.385c-3.3,0-6.6-2.43-6.6-6.99
		c0-4.38,3.18-6.9,6.78-6.9c1.92,0,3.39,0.6,4.74,1.8l-1.05,1.26c-1.08-0.93-2.13-1.35-3.69-1.35c-2.76,0-4.92,2.07-4.92,5.19
		c0,3.18,2.13,5.28,4.89,5.28c1.8,0,2.88-0.57,3.96-1.59l1.02,1.32C513.612,104.695,512.172,105.385,509.862,105.385
		 M468.222,105.385c-4.02,0-6.84-2.88-6.84-6.99c0-3.84,2.76-6.93,6.69-6.93c3.69,0,5.88,2.55,5.88,6.42c0,0.42-0.03,0.84-0.09,1.29
		h-10.619c0.3,2.82,2.46,4.5,4.95,4.5c1.86,0,3.03-0.57,4.05-1.62l1.05,1.32C471.942,104.665,470.322,105.385,468.222,105.385
		 M468.042,93.175c-2.46,0-4.38,1.74-4.74,4.38h8.85C472.092,94.735,470.472,93.175,468.042,93.175 M436.062,105.385
		c-3.99,0-6.84-2.88-6.84-6.96c0-4.08,2.85-6.96,6.84-6.96c4.05,0,6.9,2.88,6.9,6.96
		C442.962,102.505,440.112,105.385,436.062,105.385 M436.062,93.175c-2.94,0-4.98,2.19-4.98,5.25c0,3.09,2.04,5.25,4.98,5.25
		c2.97,0,5.04-2.16,5.04-5.25C441.102,95.365,439.062,93.175,436.062,93.175 M379.784,105.385c-3.3,0-6.6-2.43-6.6-6.99
		c0-4.38,3.18-6.9,6.78-6.9c1.92,0,3.39,0.6,4.74,1.8l-1.05,1.26c-1.08-0.93-2.13-1.35-3.69-1.35c-2.76,0-4.92,2.07-4.92,5.19
		c0,3.18,2.13,5.28,4.89,5.28c1.8,0,2.88-0.57,3.96-1.59l1.02,1.32C383.534,104.695,382.093,105.385,379.784,105.385
		 M306.585,105.385c-3.99,0-6.84-2.88-6.84-6.96c0-4.08,2.85-6.96,6.84-6.96c4.05,0,6.9,2.88,6.9,6.96
		C313.484,102.505,310.634,105.385,306.585,105.385 M306.585,93.175c-2.94,0-4.98,2.19-4.98,5.25c0,3.09,2.04,5.25,4.98,5.25
		c2.97,0,5.04-2.16,5.04-5.25C311.624,95.365,309.585,93.175,306.585,93.175 M279.705,105.385c-4.02,0-6.84-2.88-6.84-6.99
		c0-3.84,2.76-6.93,6.69-6.93c3.69,0,5.88,2.55,5.88,6.42c0,0.42-0.03,0.84-0.09,1.29h-10.619c0.3,2.82,2.46,4.5,4.95,4.5
		c1.86,0,3.03-0.57,4.05-1.62l1.05,1.32C283.424,104.665,281.805,105.385,279.705,105.385 M279.525,93.175
		c-2.46,0-4.38,1.74-4.74,4.38h8.849C283.574,94.735,281.955,93.175,279.525,93.175 M224.895,105.385c-4.02,0-6.84-2.88-6.84-6.99
		c0-3.84,2.76-6.93,6.69-6.93c3.69,0,5.88,2.55,5.88,6.42c0,0.42-0.03,0.84-0.09,1.29h-10.619c0.3,2.82,2.46,4.5,4.95,4.5
		c1.86,0,3.03-0.57,4.05-1.62l1.05,1.32C228.615,104.665,226.995,105.385,224.895,105.385 M224.715,93.175
		c-2.46,0-4.38,1.74-4.74,4.38h8.85C228.765,94.735,227.145,93.175,224.715,93.175 M155.597,105.385c-4.02,0-6.84-2.88-6.84-6.99
		c0-3.84,2.76-6.93,6.69-6.93c3.69,0,5.88,2.55,5.88,6.42c0,0.42-0.03,0.84-0.09,1.29h-10.619c0.3,2.82,2.46,4.5,4.95,4.5
		c1.86,0,3.03-0.57,4.05-1.62l1.05,1.32C159.317,104.665,157.697,105.385,155.597,105.385 M155.417,93.175
		c-2.46,0-4.38,1.74-4.74,4.38h8.85C159.467,94.735,157.847,93.175,155.417,93.175 M127.368,105.385c-4.02,0-6.84-2.88-6.84-6.99
		c0-3.84,2.76-6.93,6.69-6.93c3.69,0,5.88,2.55,5.88,6.42c0,0.42-0.03,0.84-0.09,1.29h-10.619c0.3,2.82,2.46,4.5,4.95,4.5
		c1.86,0,3.03-0.57,4.05-1.62l1.05,1.32C131.088,104.665,129.468,105.385,127.368,105.385 M127.188,93.175
		c-2.46,0-4.38,1.74-4.74,4.38h8.85C131.238,94.735,129.618,93.175,127.188,93.175 M41.449,105.385c-4.02,0-6.84-2.88-6.84-6.99
		c0-3.84,2.76-6.93,6.69-6.93c3.69,0,5.88,2.55,5.88,6.42c0,0.42-0.03,0.84-0.09,1.29H36.469c0.3,2.82,2.46,4.5,4.95,4.5
		c1.86,0,3.03-0.57,4.05-1.62l1.05,1.32C45.169,104.665,43.549,105.385,41.449,105.385 M41.269,93.175c-2.46,0-4.38,1.74-4.74,4.38
		h8.85C45.319,94.735,43.699,93.175,41.269,93.175 M207.436,105.355c-3.93,0-6.66-2.94-6.66-6.99c0-3.93,2.76-6.84,6.66-6.84
		c2.16,0,4.05,0.96,5.13,2.52c-0.03-1.14-0.06-2.34-0.06-3.6v-6.9h1.83v21.509h-1.41l-0.27-2.37
		C211.575,104.335,209.745,105.355,207.436,105.355 M207.556,93.235c-2.94,0-4.95,2.16-4.95,5.19s2.01,5.19,4.95,5.19
		c3.06,0,5.01-2.19,5.01-5.19C212.565,95.425,210.556,93.235,207.556,93.235 M605.38,105.295c-2.16,0-3.51-1.26-3.51-3.99v-7.89
		l-2.58-0.12v-1.5h2.58v-4.41h1.83v4.41h4.74v1.62h-4.74v7.89c0,1.68,0.69,2.25,1.86,2.25c0.93,0,1.77-0.3,2.61-0.9l0.81,1.38
		C607.99,104.785,606.76,105.295,605.38,105.295 M590.02,105.295c-2.58,0-4.23-1.41-4.23-3.69c0-2.97,2.73-4.68,6.63-4.68
		c0.99,0,1.74,0.03,2.43,0.12v-0.9c0-1.86-1.32-2.79-3.36-2.79c-1.44,0-2.91,0.42-4.38,1.11l-0.63-1.56
		c1.8-0.84,3.51-1.26,5.19-1.26c3.03,0,5.04,1.59,5.04,4.59v8.82h-1.35l-0.33-2.4C594.07,104.245,592.36,105.295,590.02,105.295
		 M592.69,98.455c-3.12,0-4.98,1.08-4.98,3.03c0,1.32,0.96,2.1,2.61,2.1c2.73,0,4.44-1.98,4.53-5.01
		C594.13,98.485,593.56,98.455,592.69,98.455 M391.243,105.295c-2.58,0-4.23-1.41-4.23-3.69c0-2.97,2.73-4.68,6.63-4.68
		c0.99,0,1.74,0.03,2.43,0.12v-0.9c0-1.86-1.32-2.79-3.36-2.79c-1.44,0-2.91,0.42-4.38,1.11l-0.63-1.56
		c1.8-0.84,3.51-1.26,5.19-1.26c3.03,0,5.04,1.59,5.04,4.59v8.82h-1.35l-0.33-2.4C395.293,104.245,393.583,105.295,391.243,105.295
		 M393.913,98.455c-3.12,0-4.98,1.08-4.98,3.03c0,1.32,0.96,2.1,2.61,2.1c2.73,0,4.44-1.98,4.53-5.01
		C395.353,98.485,394.783,98.455,393.913,98.455 M366.194,105.295c-1.86,0-3.42-0.51-4.83-1.47l0.93-1.44
		c1.17,0.84,2.43,1.2,3.9,1.2c1.62,0,2.67-0.81,2.67-2.01c0-1.29-1.47-1.95-3.06-2.58c-2.16-0.84-3.96-1.86-3.96-3.99
		c0-2.22,2.04-3.36,4.29-3.36c1.44,0,2.82,0.42,4.02,1.2l-0.81,1.32c-0.96-0.54-2.04-0.84-3.12-0.84c-1.35,0-2.55,0.45-2.55,1.68
		c0,1.2,1.23,1.8,2.79,2.4c2.4,0.9,4.23,1.95,4.23,4.17C370.693,103.795,368.803,105.295,366.194,105.295 M351.224,105.295
		c-2.58,0-4.23-1.41-4.23-3.69c0-2.97,2.73-4.68,6.63-4.68c0.99,0,1.74,0.03,2.43,0.12v-0.9c0-1.86-1.32-2.79-3.36-2.79
		c-1.44,0-2.91,0.42-4.38,1.11l-0.63-1.56c1.8-0.84,3.51-1.26,5.19-1.26c3.03,0,5.04,1.59,5.04,4.59v8.82h-1.35l-0.33-2.4
		C355.274,104.245,353.564,105.295,351.224,105.295 M353.894,98.455c-3.12,0-4.98,1.08-4.98,3.03c0,1.32,0.96,2.1,2.61,2.1
		c2.73,0,4.44-1.98,4.53-5.01C355.334,98.485,354.764,98.455,353.894,98.455 M292.754,105.295c-1.86,0-3.42-0.51-4.83-1.47
		l0.93-1.44c1.17,0.84,2.43,1.2,3.9,1.2c1.62,0,2.67-0.81,2.67-2.01c0-1.29-1.47-1.95-3.06-2.58c-2.16-0.84-3.96-1.86-3.96-3.99
		c0-2.22,2.04-3.36,4.29-3.36c1.44,0,2.82,0.42,4.02,1.2l-0.81,1.32c-0.96-0.54-2.04-0.84-3.12-0.84c-1.35,0-2.55,0.45-2.55,1.68
		c0,1.2,1.23,1.8,2.79,2.4c2.4,0.9,4.23,1.95,4.23,4.17C297.254,103.795,295.364,105.295,292.754,105.295 M262.905,105.295
		c-3.3,0-4.83-2.19-4.83-5.43v-8.07h1.83v8.1c0,2.16,0.84,3.69,3.21,3.69c2.64,0,4.2-2.37,4.2-5.19v-6.6h1.83v13.259h-1.41
		l-0.36-2.31C266.595,104.155,265.095,105.295,262.905,105.295 M183.706,105.295c-2.58,0-4.23-1.41-4.23-3.69
		c0-2.97,2.73-4.68,6.63-4.68c0.99,0,1.74,0.03,2.43,0.12v-0.9c0-1.86-1.32-2.79-3.36-2.79c-1.44,0-2.91,0.42-4.38,1.11l-0.63-1.56
		c1.8-0.84,3.51-1.26,5.19-1.26c3.03,0,5.04,1.59,5.04,4.59v8.82h-1.35l-0.33-2.4C187.756,104.245,186.046,105.295,183.706,105.295
		 M186.376,98.455c-3.12,0-4.98,1.08-4.98,3.03c0,1.32,0.96,2.1,2.61,2.1c2.73,0,4.44-1.98,4.53-5.01
		C187.816,98.485,187.246,98.455,186.376,98.455 M93.648,105.295c-2.58,0-4.23-1.41-4.23-3.69c0-2.97,2.73-4.68,6.63-4.68
		c0.99,0,1.74,0.03,2.43,0.12v-0.9c0-1.86-1.32-2.79-3.36-2.79c-1.44,0-2.91,0.42-4.38,1.11l-0.63-1.56
		c1.8-0.84,3.51-1.26,5.19-1.26c3.03,0,5.04,1.59,5.04,4.59v8.82h-1.35l-0.33-2.4C97.698,104.245,95.988,105.295,93.648,105.295
		 M96.318,98.455c-3.12,0-4.98,1.08-4.98,3.03c0,1.32,0.96,2.1,2.61,2.1c2.73,0,4.44-1.98,4.53-5.01
		C97.758,98.485,97.188,98.455,96.318,98.455 M84.139,105.295c-2.16,0-3.51-1.26-3.51-3.99v-7.89l-2.58-0.12v-1.5h2.58v-4.41h1.83
		v4.41h4.74v1.62h-4.74v7.89c0,1.68,0.69,2.25,1.86,2.25c0.93,0,1.77-0.3,2.61-0.9l0.81,1.38
		C86.749,104.785,85.518,105.295,84.139,105.295 M66.859,105.295c-2.16,0-3.51-1.26-3.51-3.99v-7.89l-2.58-0.12v-1.5h2.58v-4.41
		h1.83v4.41h4.74v1.62h-4.74v7.89c0,1.68,0.69,2.25,1.86,2.25c0.93,0,1.77-0.3,2.61-0.9l0.81,1.38
		C69.469,104.785,68.239,105.295,66.859,105.295 M54.499,105.295c-1.86,0-3.42-0.51-4.83-1.47l0.93-1.44c1.17,0.84,2.43,1.2,3.9,1.2
		c1.62,0,2.67-0.81,2.67-2.01c0-1.29-1.47-1.95-3.06-2.58c-2.16-0.84-3.96-1.86-3.96-3.99c0-2.22,2.04-3.36,4.29-3.36
		c1.44,0,2.82,0.42,4.02,1.2l-0.81,1.32c-0.96-0.54-2.04-0.84-3.12-0.84c-1.35,0-2.55,0.45-2.55,1.68c0,1.2,1.23,1.8,2.79,2.4
		c2.4,0.9,4.23,1.95,4.23,4.17C58.999,103.795,57.109,105.295,54.499,105.295 M582.161,105.055h-1.83l-0.03-21.509h1.83
		L582.161,105.055 M529.182,105.055h-1.83v-8.16c0-2.22-0.9-3.66-3.12-3.66c-2.82,0-4.38,2.4-4.38,5.28v6.54h-1.83V83.546h1.83v8.58
		c0,0.66,0,1.29-0.03,2.07c0.81-1.56,2.34-2.67,4.59-2.67c3.24,0,4.77,2.04,4.77,5.43V105.055 M457.842,105.055h-1.83v-8.13
		c0-2.25-0.84-3.69-3.06-3.69c-2.67,0-4.44,1.92-4.44,4.68v7.14h-1.83V91.796h1.38l0.42,2.25c0.78-1.41,2.4-2.52,4.65-2.52
		c3.09,0,4.71,1.98,4.71,5.43V105.055 M404.263,105.055h-1.83V91.796h1.38l0.36,1.95c0.75-1.38,2.01-2.22,3.87-2.22
		c0.84,0,1.56,0.18,2.16,0.45l-0.54,1.62c-0.51-0.18-1.02-0.33-1.77-0.33c-2.16,0-3.63,1.53-3.63,4.11V105.055 M343.543,105.055
		h-1.83v-8.4c0-2.13-1.08-3.42-2.94-3.42c-2.67,0-4.05,2.43-4.05,4.92v6.9h-1.83v-8.43c0-1.83-0.93-3.39-2.94-3.39
		c-2.7,0-4.08,2.43-4.08,4.92v6.9h-1.83V91.796h1.38l0.42,2.28c0.87-1.62,2.4-2.55,4.32-2.55c2.01,0,3.48,0.99,4.11,2.67
		c0.87-1.62,2.4-2.67,4.62-2.67c3.03,0,4.65,2.01,4.65,5.22V105.055 M176.026,105.055h-1.83v-8.13c0-2.25-0.84-3.69-3.06-3.69
		c-2.67,0-4.44,1.92-4.44,4.68v7.14h-1.83V91.796h1.38l0.42,2.25c0.78-1.41,2.4-2.52,4.65-2.52c3.09,0,4.71,1.98,4.71,5.43V105.055
		 M145.037,105.055h-1.83l-0.03-21.509h1.83L145.037,105.055 M138.498,105.055h-1.83l-0.03-21.509h1.83L138.498,105.055
		 M113.508,105.055h-1.83V91.796h1.38l0.36,1.95c0.75-1.38,2.01-2.22,3.87-2.22c0.84,0,1.56,0.18,2.16,0.45l-0.54,1.62
		c-0.51-0.18-1.02-0.33-1.77-0.33c-2.16,0-3.63,1.53-3.63,4.11V105.055 M75.019,105.055h-1.83V91.796h1.83V105.055 M74.119,88.316
		c-0.84,0-1.38-0.6-1.38-1.32c0-0.78,0.54-1.38,1.38-1.38c0.84,0,1.38,0.6,1.38,1.38C75.499,87.746,74.929,88.316,74.119,88.316"/>
	<path fill="#9D9D9C" d="M897.475,86.379l-0.432,2.424h5.401c0.384,0,0.792,0,1.2-0.024c-0.192,0.336-0.408,0.648-0.576,0.984
		l-6.889,12.481h2.976l8.137-14.833l0.192-1.032z M908.635,99.22c-0.816,0-1.584,0.504-1.776,1.464
		c-0.024,0.12-0.024,0.24-0.024,0.336c0,0.912,0.648,1.512,1.392,1.512h0.12c-0.36,1.008-1.032,1.776-2.04,2.544l0.576,0.696
		c1.68-1.128,2.808-2.64,3.216-4.296c0.072-0.24,0.096-0.48,0.096-0.696C910.195,99.748,909.499,99.22,908.635,99.22z
		 M920.179,86.067c-3.024,0-5.28,1.92-5.809,4.872c-0.072,0.384-0.096,0.744-0.096,1.08c0,2.592,1.824,4.272,4.128,4.272
		c1.248,0,2.184-0.288,3.192-1.032c-1.176,2.952-3.648,4.776-7.345,4.896l0.168,2.304c6.049-0.096,9.337-3.96,10.369-9.145
		l0.072-0.336c0.12-0.6,0.168-1.176,0.168-1.728C925.027,88.179,923.347,86.067,920.179,86.067z M919.219,93.987
		c-1.44,0-2.232-1.032-2.232-2.328c0-0.192,0.024-0.384,0.048-0.576c0.312-1.656,1.44-2.568,3.024-2.592
		c1.344,0,2.328,0.936,2.328,2.28c0,0.168-0.024,0.336-0.048,0.528C922.075,92.835,920.995,93.987,919.219,93.987z M931.459,102.532
		c3.864,0,6.265-3.096,7.129-8.041c0.144-0.864,0.216-1.68,0.216-2.424c0-3.696-1.8-5.977-4.728-5.977
		c-3.96,0-6.241,3.072-7.129,8.017c-0.144,0.888-0.24,1.704-0.24,2.472C926.706,100.276,928.482,102.532,931.459,102.532z
		 M931.651,100.084c-1.464,0-2.184-1.368-2.184-3.504c0-0.672,0.072-1.44,0.216-2.256c0.624-3.552,2.16-5.785,4.2-5.785
		c1.464,0,2.16,1.344,2.16,3.456c0,0.696-0.072,1.464-0.216,2.28C935.203,97.828,933.691,100.084,931.651,100.084z"/>
	<path fill="#9D9D9C" d="M948.968,88.882c0.76,0,1.34,0.12,1.9,0.34l1-1.82c-0.88-0.4-1.7-0.62-2.881-0.62
		c-3.461,0-5.941,1.88-6.982,4.741h-1.5l-0.24,1.4h1.36c-0.06,0.36-0.12,0.74-0.14,1.12h-1.42l-0.26,1.4h1.7
		c0.26,2.861,2.24,5.041,5.501,5.041c1.04,0,1.92-0.18,2.801-0.6l-0.44-1.96c-0.64,0.32-1.26,0.46-2.06,0.46
		c-2.12,0-3.181-1.16-3.461-2.941h2.921l0.78-1.4h-3.741c0.02-0.38,0.06-0.76,0.16-1.12h4.161l0.76-1.4h-4.421
		C945.307,89.922,946.868,88.882,948.968,88.882z"/>
	<path fill="#000000" d="M136.458,153.655h-1.83v-5.22c0-1.41,0.03-2.67,0.06-3.72c-1.08,1.62-2.94,2.64-5.16,2.64
		c-3.87,0-6.6-2.91-6.6-6.99c0-3.96,2.76-6.84,6.57-6.84c2.25,0,3.99,0.93,5.16,2.55l0.42-2.28h1.38V153.655 M129.648,135.235
		c-2.85,0-4.86,2.16-4.86,5.22c0,3.03,2.01,5.19,4.86,5.19c2.94,0,5.04-2.13,5.04-5.28
		C134.688,137.335,132.618,135.235,129.648,135.235 M189.468,147.385c-3.99,0-6.84-2.88-6.84-6.96c0-4.08,2.85-6.96,6.84-6.96
		c4.05,0,6.9,2.88,6.9,6.96C196.367,144.505,193.517,147.385,189.468,147.385 M189.468,135.175c-2.94,0-4.98,2.19-4.98,5.25
		c0,3.09,2.04,5.25,4.98,5.25c2.97,0,5.04-2.16,5.04-5.25C194.507,137.365,192.467,135.175,189.468,135.175 M162.588,147.385
		c-4.02,0-6.84-2.88-6.84-6.99c0-3.84,2.76-6.93,6.69-6.93c3.69,0,5.88,2.55,5.88,6.42c0,0.42-0.03,0.84-0.09,1.29h-10.62
		c0.3,2.82,2.46,4.5,4.95,4.5c1.86,0,3.03-0.57,4.05-1.62l1.05,1.32C166.308,146.665,164.688,147.385,162.588,147.385
		 M162.408,135.175c-2.46,0-4.38,1.74-4.74,4.38h8.85C166.458,136.735,164.838,135.175,162.408,135.175 M107.778,147.385
		c-4.02,0-6.84-2.88-6.84-6.99c0-3.84,2.76-6.93,6.69-6.93c3.69,0,5.88,2.55,5.88,6.42c0,0.42-0.03,0.84-0.09,1.29h-10.62
		c0.3,2.82,2.46,4.5,4.95,4.5c1.86,0,3.03-0.57,4.05-1.62l1.05,1.32C111.498,146.665,109.878,147.385,107.778,147.385
		 M107.598,135.175c-2.46,0-4.38,1.74-4.74,4.38h8.85C111.648,136.735,110.028,135.175,107.598,135.175 M90.319,147.355
		c-3.93,0-6.66-2.94-6.66-6.99c0-3.93,2.76-6.84,6.66-6.84c2.16,0,4.05,0.96,5.13,2.52c-0.03-1.14-0.06-2.34-0.06-3.6v-6.9h1.83
		v21.509h-1.41l-0.27-2.37C94.459,146.335,92.629,147.355,90.319,147.355 M90.439,135.235c-2.94,0-4.95,2.16-4.95,5.19
		s2.01,5.19,4.95,5.19c3.06,0,5.01-2.19,5.01-5.19C95.448,137.425,93.438,135.235,90.439,135.235 M175.638,147.295
		c-1.86,0-3.42-0.51-4.83-1.47l0.93-1.44c1.17,0.84,2.43,1.2,3.9,1.2c1.62,0,2.67-0.81,2.67-2.01c0-1.29-1.47-1.95-3.06-2.58
		c-2.16-0.84-3.96-1.86-3.96-3.99c0-2.22,2.04-3.36,4.29-3.36c1.44,0,2.82,0.42,4.02,1.2l-0.81,1.32c-0.96-0.54-2.04-0.84-3.12-0.84
		c-1.35,0-2.55,0.45-2.55,1.68c0,1.2,1.23,1.8,2.79,2.4c2.4,0.9,4.23,1.95,4.23,4.17
		C180.137,145.795,178.247,147.295,175.638,147.295 M145.788,147.295c-3.3,0-4.83-2.19-4.83-5.43v-8.07h1.83v8.1
		c0,2.16,0.84,3.69,3.21,3.69c2.64,0,4.2-2.37,4.2-5.19v-6.6h1.83v13.259h-1.41l-0.36-2.31
		C149.478,146.155,147.978,147.295,145.788,147.295 M66.589,147.295c-2.58,0-4.23-1.41-4.23-3.69c0-2.97,2.73-4.68,6.63-4.68
		c0.99,0,1.74,0.03,2.43,0.12v-0.9c0-1.86-1.32-2.79-3.36-2.79c-1.44,0-2.91,0.42-4.38,1.11l-0.63-1.56
		c1.8-0.84,3.51-1.26,5.19-1.26c3.03,0,5.04,1.59,5.04,4.59v8.82h-1.35l-0.33-2.4C70.639,146.245,68.929,147.295,66.589,147.295
		 M69.259,140.455c-3.12,0-4.98,1.08-4.98,3.03c0,1.32,0.96,2.1,2.61,2.1c2.73,0,4.44-1.98,4.53-5.01
		C70.699,140.485,70.129,140.455,69.259,140.455 M57.079,147.295c-2.16,0-3.51-1.26-3.51-3.99v-7.89l-2.58-0.12v-1.5h2.58v-4.41
		h1.83v4.41h4.74v1.62h-4.74v7.89c0,1.68,0.69,2.25,1.86,2.25c0.93,0,1.77-0.3,2.61-0.9l0.81,1.38
		C59.689,146.785,58.459,147.295,57.079,147.295 M30.95,147.295c-2.58,0-4.23-1.41-4.23-3.69c0-2.97,2.73-4.68,6.63-4.68
		c0.99,0,1.74,0.03,2.43,0.12v-0.9c0-1.86-1.32-2.79-3.36-2.79c-1.44,0-2.91,0.42-4.38,1.11l-0.63-1.56
		c1.8-0.84,3.51-1.26,5.19-1.26c3.03,0,5.04,1.59,5.04,4.59v8.82h-1.35l-0.33-2.4C35,146.245,33.29,147.295,30.95,147.295
		 M33.62,140.455c-3.12,0-4.98,1.08-4.98,3.03c0,1.32,0.96,2.1,2.61,2.1c2.73,0,4.44-1.98,4.53-5.01
		C35.06,140.485,34.49,140.455,33.62,140.455 M43.97,147.055h-1.83v-13.259h1.38l0.36,1.95c0.75-1.38,2.01-2.22,3.87-2.22
		c0.84,0,1.56,0.18,2.16,0.45l-0.54,1.62c-0.51-0.18-1.02-0.33-1.77-0.33c-2.16,0-3.63,1.53-3.63,4.11V147.055 M21.17,147.055h-1.98
		v-18.599h-6.27v-1.8h14.52v1.8h-6.27V147.055"/>
	<path fill="#9D9D9C" d="M901.003,134.355c-1.224,0-2.232,0.36-3.264,1.176c1.2-3.072,3.696-5.064,7.393-4.992l-0.168-2.448
		c-6.145,0.168-9.337,4.032-10.345,9.169l-0.072,0.336c-0.12,0.624-0.168,1.2-0.168,1.776c0,3.048,1.608,5.16,4.848,5.16
		c3,0,5.28-1.968,5.833-5.016c0.072-0.36,0.096-0.696,0.096-1.008C905.156,135.987,903.404,134.355,901.003,134.355z
		 M902.396,139.444c-0.288,1.656-1.488,2.64-3.048,2.64c-1.392,0-2.328-0.888-2.328-2.28c0-0.168,0.024-0.36,0.048-0.552
		c0.264-1.488,1.344-2.568,3.096-2.616c1.512,0,2.28,0.936,2.28,2.232C902.443,139.059,902.419,139.251,902.396,139.444z
		 M908.635,141.22c-0.816,0-1.584,0.504-1.776,1.464c-0.024,0.12-0.024,0.24-0.024,0.336c0,0.912,0.648,1.512,1.392,1.512h0.12
		c-0.36,1.008-1.032,1.776-2.04,2.544l0.576,0.696c1.68-1.128,2.808-2.64,3.216-4.296c0.072-0.24,0.096-0.48,0.096-0.696
		C910.195,141.748,909.499,141.22,908.635,141.22z M920.179,128.067c-3.024,0-5.28,1.92-5.809,4.872
		c-0.072,0.384-0.096,0.744-0.096,1.08c0,2.592,1.824,4.272,4.128,4.272c1.248,0,2.184-0.288,3.192-1.032
		c-1.176,2.952-3.648,4.776-7.345,4.896l0.168,2.304c6.049-0.096,9.337-3.96,10.369-9.145l0.072-0.336
		c0.12-0.6,0.168-1.176,0.168-1.728C925.027,130.179,923.347,128.067,920.179,128.067z M919.219,135.987
		c-1.44,0-2.232-1.032-2.232-2.328c0-0.192,0.024-0.384,0.048-0.576c0.312-1.656,1.44-2.568,3.024-2.592
		c1.344,0,2.328,0.936,2.328,2.28c0,0.168-0.024,0.336-0.048,0.528C922.075,134.835,920.995,135.987,919.219,135.987z
		 M931.459,144.532c3.864,0,6.265-3.096,7.129-8.041c0.144-0.864,0.216-1.68,0.216-2.424c0-3.696-1.8-5.977-4.728-5.977
		c-3.96,0-6.241,3.072-7.129,8.017c-0.144,0.888-0.24,1.704-0.24,2.472C926.706,142.276,928.482,144.532,931.459,144.532z
		 M931.651,142.084c-1.464,0-2.184-1.368-2.184-3.504c0-0.672,0.072-1.44,0.216-2.256c0.624-3.552,2.16-5.785,4.2-5.785
		c1.464,0,2.16,1.344,2.16,3.456c0,0.696-0.072,1.464-0.216,2.28C935.203,139.828,933.691,142.084,931.651,142.084z"/>
	<path fill="#9D9D9C" d="M948.968,130.882c0.76,0,1.34,0.12,1.9,0.34l1-1.82c-0.88-0.4-1.7-0.62-2.881-0.62
		c-3.461,0-5.941,1.88-6.982,4.741h-1.5l-0.24,1.4h1.36c-0.06,0.36-0.12,0.74-0.14,1.12h-1.42l-0.26,1.4h1.7
		c0.26,2.861,2.24,5.041,5.501,5.041c1.04,0,1.92-0.18,2.801-0.6l-0.44-1.96c-0.64,0.32-1.26,0.46-2.06,0.46
		c-2.12,0-3.181-1.16-3.461-2.941h2.921l0.78-1.4h-3.741c0.02-0.38,0.06-0.76,0.16-1.12h4.161l0.76-1.4h-4.421
		C945.307,131.922,946.868,130.882,948.968,130.882z"/>
	<path fill="#000000" d="M387.254,189.385c-4.02,0-6.84-2.88-6.84-6.99c0-3.84,2.76-6.93,6.69-6.93c3.69,0,5.88,2.55,5.88,6.42
		c0,0.42-0.03,0.84-0.09,1.29h-10.62c0.3,2.82,2.46,4.5,4.95,4.5c1.86,0,3.03-0.57,4.05-1.62l1.05,1.32
		C390.974,188.665,389.354,189.385,387.254,189.385 M387.074,177.175c-2.46,0-4.38,1.74-4.74,4.38h8.85
		C391.124,178.735,389.504,177.175,387.074,177.175 M346.215,189.385c-4.02,0-6.84-2.88-6.84-6.99c0-3.84,2.76-6.93,6.69-6.93
		c3.69,0,5.88,2.55,5.88,6.42c0,0.42-0.03,0.84-0.09,1.29h-10.62c0.3,2.82,2.46,4.5,4.95,4.5c1.86,0,3.03-0.57,4.05-1.62l1.05,1.32
		C349.934,188.665,348.314,189.385,346.215,189.385 M346.034,177.175c-2.46,0-4.38,1.74-4.74,4.38h8.849
		C350.084,178.735,348.464,177.175,346.034,177.175 M304.636,189.385c-3.3,0-6.6-2.43-6.6-6.99c0-4.38,3.18-6.9,6.78-6.9
		c1.92,0,3.39,0.6,4.74,1.8l-1.05,1.26c-1.08-0.93-2.13-1.35-3.69-1.35c-2.76,0-4.92,2.07-4.92,5.19c0,3.18,2.13,5.28,4.89,5.28
		c1.8,0,2.88-0.57,3.96-1.59l1.02,1.32C308.386,188.695,306.946,189.385,304.636,189.385 M282.886,189.385
		c-4.02,0-6.84-2.88-6.84-6.99c0-3.84,2.76-6.93,6.69-6.93c3.69,0,5.88,2.55,5.88,6.42c0,0.42-0.03,0.84-0.09,1.29h-10.619
		c0.3,2.82,2.46,4.5,4.95,4.5c1.86,0,3.03-0.57,4.05-1.62l1.05,1.32C286.606,188.665,284.986,189.385,282.886,189.385
		 M282.706,177.175c-2.46,0-4.38,1.74-4.74,4.38h8.85C286.756,178.735,285.136,177.175,282.706,177.175 M235.247,189.385
		c-3.99,0-6.84-2.88-6.84-6.96c0-4.08,2.85-6.96,6.84-6.96c4.05,0,6.9,2.88,6.9,6.96
		C242.146,186.505,239.296,189.385,235.247,189.385 M235.247,177.175c-2.94,0-4.98,2.19-4.98,5.25c0,3.09,2.04,5.25,4.98,5.25
		c2.97,0,5.04-2.16,5.04-5.25C240.286,179.365,238.246,177.175,235.247,177.175 M221.387,189.385c-3.3,0-6.6-2.43-6.6-6.99
		c0-4.38,3.18-6.9,6.78-6.9c1.92,0,3.39,0.6,4.74,1.8l-1.05,1.26c-1.08-0.93-2.13-1.35-3.69-1.35c-2.76,0-4.92,2.07-4.92,5.19
		c0,3.18,2.13,5.28,4.89,5.28c1.8,0,2.88-0.57,3.96-1.59l1.02,1.32C225.137,188.695,223.697,189.385,221.387,189.385
		 M205.127,189.385c-3.99,0-6.84-2.88-6.84-6.96c0-4.08,2.85-6.96,6.84-6.96c4.05,0,6.9,2.88,6.9,6.96
		C212.027,186.505,209.177,189.385,205.127,189.385 M205.127,177.175c-2.94,0-4.98,2.19-4.98,5.25c0,3.09,2.04,5.25,4.98,5.25
		c2.97,0,5.04-2.16,5.04-5.25C210.167,179.365,208.127,177.175,205.127,177.175 M175.428,189.385c-3.3,0-6.6-2.43-6.6-6.99
		c0-4.38,3.18-6.9,6.78-6.9c1.92,0,3.39,0.6,4.74,1.8l-1.05,1.26c-1.08-0.93-2.13-1.35-3.69-1.35c-2.76,0-4.92,2.07-4.92,5.19
		c0,3.18,2.13,5.28,4.89,5.28c1.8,0,2.88-0.57,3.96-1.59l1.02,1.32C179.178,188.695,177.738,189.385,175.428,189.385
		 M153.678,189.385c-4.02,0-6.84-2.88-6.84-6.99c0-3.84,2.76-6.93,6.69-6.93c3.69,0,5.88,2.55,5.88,6.42c0,0.42-0.03,0.84-0.09,1.29
		h-10.62c0.3,2.82,2.46,4.5,4.95,4.5c1.86,0,3.03-0.57,4.05-1.62l1.05,1.32C157.398,188.665,155.778,189.385,153.678,189.385
		 M153.498,177.175c-2.46,0-4.38,1.74-4.74,4.38h8.85C157.548,178.735,155.928,177.175,153.498,177.175 M113.059,189.385
		c-3.99,0-6.84-2.88-6.84-6.96c0-4.08,2.85-6.96,6.84-6.96c4.05,0,6.9,2.88,6.9,6.96
		C119.959,186.505,117.109,189.385,113.059,189.385 M113.059,177.175c-2.94,0-4.98,2.19-4.98,5.25c0,3.09,2.04,5.25,4.98,5.25
		c2.97,0,5.04-2.16,5.04-5.25C118.099,179.365,116.059,177.175,113.059,177.175 M74.36,189.385c-4.02,0-6.84-2.88-6.84-6.99
		c0-3.84,2.76-6.93,6.69-6.93c3.69,0,5.88,2.55,5.88,6.42c0,0.42-0.03,0.84-0.09,1.29H69.38c0.3,2.82,2.46,4.5,4.95,4.5
		c1.86,0,3.03-0.57,4.05-1.62l1.05,1.32C78.08,188.665,76.46,189.385,74.36,189.385 M74.18,177.175c-2.46,0-4.38,1.74-4.74,4.38
		h8.85C78.229,178.735,76.609,177.175,74.18,177.175 M136.218,189.355c-3.93,0-6.66-2.94-6.66-6.99c0-3.93,2.76-6.84,6.66-6.84
		c2.16,0,4.05,0.96,5.13,2.52c-0.03-1.14-0.06-2.34-0.06-3.6v-6.9h1.83v21.509h-1.41l-0.27-2.37
		C140.358,188.335,138.529,189.355,136.218,189.355 M136.339,177.235c-2.94,0-4.95,2.16-4.95,5.19s2.01,5.19,4.95,5.19
		c3.06,0,5.01-2.19,5.01-5.19C141.348,179.425,139.338,177.235,136.339,177.235 M375.314,189.295c-2.16,0-3.51-1.26-3.51-3.99v-7.89
		l-2.58-0.12v-1.5h2.58v-4.41h1.83v4.41h4.74v1.62h-4.74v7.89c0,1.68,0.69,2.25,1.86,2.25c0.93,0,1.77-0.3,2.61-0.9l0.81,1.38
		C377.924,188.785,376.694,189.295,375.314,189.295 M316.096,189.295c-2.58,0-4.23-1.41-4.23-3.69c0-2.97,2.73-4.68,6.63-4.68
		c0.99,0,1.74,0.03,2.43,0.12v-0.9c0-1.86-1.32-2.79-3.36-2.79c-1.44,0-2.91,0.42-4.38,1.11l-0.63-1.56
		c1.8-0.84,3.51-1.26,5.19-1.26c3.03,0,5.04,1.59,5.04,4.59v8.82h-1.35l-0.33-2.4C320.145,188.245,318.436,189.295,316.096,189.295
		 M318.765,182.455c-3.12,0-4.98,1.08-4.98,3.03c0,1.32,0.96,2.1,2.61,2.1c2.73,0,4.44-1.98,4.53-5.01
		C320.205,182.485,319.635,182.455,318.765,182.455 M270.946,189.295c-2.16,0-3.51-1.26-3.51-3.99v-7.89l-2.58-0.12v-1.5h2.58v-4.41
		h1.83v4.41h4.74v1.62h-4.74v7.89c0,1.68,0.69,2.25,1.86,2.25c0.93,0,1.77-0.3,2.61-0.9l0.81,1.38
		C273.556,188.785,272.326,189.295,270.946,189.295 M255.586,189.295c-2.58,0-4.23-1.41-4.23-3.69c0-2.97,2.73-4.68,6.63-4.68
		c0.99,0,1.74,0.03,2.43,0.12v-0.9c0-1.86-1.32-2.79-3.36-2.79c-1.44,0-2.91,0.42-4.38,1.11l-0.63-1.56
		c1.8-0.84,3.51-1.26,5.19-1.26c3.03,0,5.04,1.59,5.04,4.59v8.82h-1.35l-0.33-2.4C259.636,188.245,257.926,189.295,255.586,189.295
		 M258.256,182.455c-3.12,0-4.98,1.08-4.98,3.03c0,1.32,0.96,2.1,2.61,2.1c2.73,0,4.44-1.98,4.53-5.01
		C259.696,182.485,259.126,182.455,258.256,182.455 M101.119,189.295c-2.16,0-3.51-1.26-3.51-3.99v-7.89l-2.58-0.12v-1.5h2.58v-4.41
		h1.83v4.41h4.74v1.62h-4.74v7.89c0,1.68,0.69,2.25,1.86,2.25c0.93,0,1.77-0.3,2.61-0.9l0.81,1.38
		C103.729,188.785,102.499,189.295,101.119,189.295 M62.42,189.295c-2.16,0-3.51-1.26-3.51-3.99v-7.89l-2.58-0.12v-1.5h2.58v-4.41
		h1.83v4.41h4.74v1.62h-4.74v7.89c0,1.68,0.69,2.25,1.86,2.25c0.93,0,1.77-0.3,2.61-0.9l0.81,1.38
		C65.029,188.785,63.799,189.295,62.42,189.295 M50.06,189.295c-1.86,0-3.42-0.51-4.83-1.47l0.93-1.44c1.17,0.84,2.43,1.2,3.9,1.2
		c1.62,0,2.67-0.81,2.67-2.01c0-1.29-1.47-1.95-3.06-2.58c-2.16-0.84-3.96-1.86-3.96-3.99c0-2.22,2.04-3.36,4.29-3.36
		c1.44,0,2.82,0.42,4.02,1.2l-0.81,1.32c-0.96-0.54-2.04-0.84-3.12-0.84c-1.35,0-2.55,0.45-2.55,1.68c0,1.2,1.23,1.8,2.79,2.4
		c2.4,0.9,4.23,1.95,4.23,4.17C54.56,187.795,52.669,189.295,50.06,189.295 M35.09,189.295c-2.58,0-4.23-1.41-4.23-3.69
		c0-2.97,2.73-4.68,6.63-4.68c0.99,0,1.74,0.03,2.43,0.12v-0.9c0-1.86-1.32-2.79-3.36-2.79c-1.44,0-2.91,0.42-4.38,1.11l-0.63-1.56
		c1.8-0.84,3.51-1.26,5.19-1.26c3.03,0,5.04,1.59,5.04,4.59v8.82h-1.35l-0.33-2.4C39.14,188.245,37.43,189.295,35.09,189.295
		 M37.76,182.455c-3.12,0-4.98,1.08-4.98,3.03c0,1.32,0.96,2.1,2.61,2.1c2.73,0,4.44-1.98,4.53-5.01
		C39.2,182.485,38.63,182.455,37.76,182.455 M366.644,189.055h-1.83v-8.129c0-2.25-0.84-3.69-3.06-3.69c-2.67,0-4.44,1.92-4.44,4.68
		v7.14h-1.83v-13.259h1.38l0.42,2.25c0.78-1.41,2.4-2.52,4.65-2.52c3.09,0,4.71,1.98,4.71,5.43V189.055 M335.655,189.055h-1.83
		v-13.259h1.83V189.055 M329.145,189.055h-1.83l-0.03-21.509h1.83L329.145,189.055 M247.726,189.055h-1.83l-0.03-21.509h1.83
		L247.726,189.055 M194.747,189.055h-1.83v-8.16c0-2.22-0.9-3.66-3.12-3.66c-2.82,0-4.38,2.4-4.38,5.28v6.54h-1.83v-21.509h1.83
		v8.58c0,0.66,0,1.29-0.03,2.07c0.81-1.56,2.34-2.67,4.59-2.67c3.24,0,4.77,2.04,4.77,5.43V189.055 M91.999,189.055h-1.83v-13.259
		h1.83V189.055 M85.49,189.055h-1.83l-0.03-21.509h1.83L85.49,189.055 M17.21,189.055h-1.98v-20.399h7.53
		c4.26,0,6.42,3.33,6.42,6.21c0,2.85-2.04,6-6.54,6h-5.43V189.055 M17.21,170.456v8.61h5.4c3.12,0,4.59-2.1,4.59-4.23
		c0-2.34-1.77-4.38-4.47-4.38H17.21 M334.755,172.316c-0.84,0-1.38-0.6-1.38-1.32c0-0.78,0.54-1.38,1.38-1.38
		c0.84,0,1.38,0.6,1.38,1.38C336.135,171.746,335.565,172.316,334.755,172.316 M91.099,172.316c-0.84,0-1.38-0.6-1.38-1.32
		c0-0.78,0.54-1.38,1.38-1.38s1.38,0.6,1.38,1.38C92.479,171.746,91.909,172.316,91.099,172.316"/>
	<path fill="#9D9D9C" d="M901.003,176.355c-1.224,0-2.232,0.36-3.264,1.176c1.2-3.072,3.696-5.064,7.393-4.992l-0.168-2.448
		c-6.145,0.168-9.337,4.032-10.345,9.169l-0.072,0.336c-0.12,0.624-0.168,1.2-0.168,1.776c0,3.048,1.608,5.16,4.848,5.16
		c3,0,5.28-1.968,5.833-5.016c0.072-0.36,0.096-0.696,0.096-1.008C905.156,177.987,903.404,176.355,901.003,176.355z
		 M902.396,181.444c-0.288,1.656-1.488,2.64-3.048,2.64c-1.392,0-2.328-0.888-2.328-2.28c0-0.168,0.024-0.36,0.048-0.552
		c0.264-1.488,1.344-2.568,3.096-2.616c1.512,0,2.28,0.936,2.28,2.232C902.443,181.059,902.419,181.251,902.396,181.444z
		 M908.635,183.22c-0.816,0-1.584,0.504-1.776,1.464c-0.024,0.12-0.024,0.24-0.024,0.336c0,0.912,0.648,1.512,1.392,1.512h0.12
		c-0.36,1.008-1.032,1.776-2.04,2.544l0.576,0.696c1.68-1.128,2.808-2.64,3.216-4.296c0.072-0.24,0.096-0.48,0.096-0.696
		C910.195,183.748,909.499,183.22,908.635,183.22z M920.179,170.067c-3.024,0-5.28,1.92-5.809,4.872
		c-0.072,0.384-0.096,0.744-0.096,1.08c0,2.592,1.824,4.272,4.128,4.272c1.248,0,2.184-0.288,3.192-1.032
		c-1.176,2.952-3.648,4.776-7.345,4.896l0.168,2.304c6.049-0.096,9.337-3.96,10.369-9.145l0.072-0.336
		c0.12-0.6,0.168-1.176,0.168-1.728C925.027,172.179,923.347,170.067,920.179,170.067z M919.219,177.987
		c-1.44,0-2.232-1.032-2.232-2.328c0-0.192,0.024-0.384,0.048-0.576c0.312-1.656,1.44-2.568,3.024-2.592
		c1.344,0,2.328,0.936,2.328,2.28c0,0.168-0.024,0.336-0.048,0.528C922.075,176.835,920.995,177.987,919.219,177.987z
		 M931.459,186.532c3.864,0,6.265-3.096,7.129-8.041c0.144-0.864,0.216-1.68,0.216-2.424c0-3.696-1.8-5.977-4.728-5.977
		c-3.96,0-6.241,3.072-7.129,8.017c-0.144,0.888-0.24,1.704-0.24,2.472C926.706,184.276,928.482,186.532,931.459,186.532z
		 M931.651,184.084c-1.464,0-2.184-1.368-2.184-3.504c0-0.672,0.072-1.44,0.216-2.256c0.624-3.552,2.16-5.785,4.2-5.785
		c1.464,0,2.16,1.344,2.16,3.456c0,0.696-0.072,1.464-0.216,2.28C935.203,181.828,933.691,184.084,931.651,184.084z"/>
	<path fill="#9D9D9C" d="M948.968,172.882c0.76,0,1.34,0.12,1.9,0.34l1-1.82c-0.88-0.4-1.7-0.62-2.881-0.62
		c-3.461,0-5.941,1.88-6.982,4.741h-1.5l-0.24,1.4h1.36c-0.06,0.36-0.12,0.74-0.14,1.12h-1.42l-0.26,1.4h1.7
		c0.26,2.861,2.24,5.041,5.501,5.041c1.04,0,1.92-0.18,2.801-0.6l-0.44-1.96c-0.64,0.32-1.26,0.46-2.06,0.46
		c-2.12,0-3.181-1.16-3.461-2.941h2.921l0.78-1.4h-3.741c0.02-0.38,0.06-0.76,0.16-1.12h4.161l0.76-1.4h-4.421
		C945.307,173.922,946.868,172.882,948.968,172.882z"/>
	<path fill="#000000" d="M20.96,231.415c-2.76,0-5.28-0.99-7.02-2.46l1.02-1.56c1.53,1.38,3.66,2.19,6,2.19
		c2.55,0,4.77-1.35,4.77-3.78c0-2.52-2.34-3.51-5.01-4.44c-3-1.05-6.21-2.55-6.21-5.97c0-3.21,2.94-5.1,6.24-5.1
		c2.28,0,4.23,0.6,6.18,2.04l-0.9,1.5c-1.65-1.17-3.27-1.71-5.19-1.71c-2.19,0-4.32,1.05-4.32,3.18c0,2.49,2.46,3.39,4.92,4.26
		c3.36,1.2,6.27,2.7,6.27,6.15C27.71,229.285,24.71,231.415,20.96,231.415 M217.037,231.385c-3.99,0-6.84-2.88-6.84-6.96
		c0-4.08,2.85-6.96,6.84-6.96c4.05,0,6.9,2.88,6.9,6.96C223.937,228.505,221.087,231.385,217.037,231.385 M217.037,219.175
		c-2.94,0-4.98,2.19-4.98,5.25c0,3.09,2.04,5.25,4.98,5.25c2.97,0,5.04-2.16,5.04-5.25
		C222.077,221.365,220.037,219.175,217.037,219.175 M106.999,231.385c-4.02,0-6.84-2.88-6.84-6.99c0-3.84,2.76-6.93,6.69-6.93
		c3.69,0,5.88,2.55,5.88,6.42c0,0.42-0.03,0.84-0.09,1.29h-10.619c0.3,2.82,2.46,4.5,4.95,4.5c1.86,0,3.03-0.57,4.05-1.62l1.05,1.32
		C110.718,230.665,109.099,231.385,106.999,231.385 M106.819,219.175c-2.46,0-4.38,1.74-4.74,4.38h8.849
		C110.868,220.735,109.249,219.175,106.819,219.175 M81.529,231.385c-4.02,0-6.84-2.88-6.84-6.99c0-3.84,2.76-6.93,6.69-6.93
		c3.69,0,5.88,2.55,5.88,6.42c0,0.42-0.03,0.84-0.09,1.29H76.549c0.3,2.82,2.46,4.5,4.95,4.5c1.86,0,3.03-0.57,4.05-1.62l1.05,1.32
		C85.249,230.665,83.629,231.385,81.529,231.385 M81.349,219.175c-2.46,0-4.38,1.74-4.74,4.38h8.849
		C85.399,220.735,83.779,219.175,81.349,219.175 M37.25,231.385c-3.99,0-6.84-2.88-6.84-6.96c0-4.08,2.85-6.96,6.84-6.96
		c4.05,0,6.9,2.88,6.9,6.96C44.149,228.505,41.3,231.385,37.25,231.385 M37.25,219.175c-2.94,0-4.98,2.19-4.98,5.25
		c0,3.09,2.04,5.25,4.98,5.25c2.97,0,5.04-2.16,5.04-5.25C42.29,221.365,40.25,219.175,37.25,219.175 M199.578,231.355
		c-3.93,0-6.66-2.94-6.66-6.99c0-3.93,2.76-6.84,6.66-6.84c2.16,0,4.05,0.96,5.13,2.52c-0.03-1.14-0.06-2.34-0.06-3.6v-6.9h1.83
		v21.509h-1.41l-0.27-2.37C203.718,230.335,201.888,231.355,199.578,231.355 M199.698,219.235c-2.94,0-4.95,2.16-4.95,5.19
		s2.01,5.19,4.95,5.19c3.06,0,5.01-2.19,5.01-5.19C204.708,221.425,202.697,219.235,199.698,219.235 M65.269,231.355
		c-2.25,0-4.11-0.99-5.22-2.61l-0.27,2.31h-1.41v-21.509h1.83v6.9c0,1.26-0.03,2.49-0.06,3.66c1.08-1.62,2.97-2.58,5.13-2.58
		c3.9,0,6.66,2.91,6.66,6.84C71.929,228.415,69.199,231.355,65.269,231.355 M65.149,219.235c-3,0-5.04,2.19-5.04,5.19
		c0,3,1.98,5.19,5.04,5.19c2.94,0,4.95-2.16,4.95-5.19S68.089,219.235,65.149,219.235 M231.197,231.295c-1.86,0-3.42-0.51-4.83-1.47
		l0.93-1.44c1.17,0.84,2.43,1.2,3.9,1.2c1.62,0,2.67-0.81,2.67-2.01c0-1.29-1.47-1.95-3.06-2.58c-2.16-0.84-3.96-1.86-3.96-3.99
		c0-2.22,2.04-3.36,4.29-3.36c1.44,0,2.82,0.42,4.02,1.2l-0.81,1.32c-0.96-0.54-2.04-0.84-3.12-0.84c-1.35,0-2.55,0.45-2.55,1.68
		c0,1.2,1.23,1.8,2.79,2.4c2.4,0.9,4.23,1.95,4.23,4.17C235.697,229.795,233.807,231.295,231.197,231.295 M182.688,231.295
		c-2.58,0-4.23-1.41-4.23-3.69c0-2.97,2.73-4.68,6.63-4.68c0.99,0,1.74,0.03,2.43,0.12v-0.9c0-1.86-1.32-2.79-3.36-2.79
		c-1.44,0-2.91,0.42-4.38,1.11l-0.63-1.56c1.8-0.84,3.51-1.26,5.19-1.26c3.03,0,5.04,1.59,5.04,4.59v8.82h-1.35l-0.33-2.4
		C186.738,230.245,185.028,231.295,182.688,231.295 M185.358,224.455c-3.12,0-4.98,1.08-4.98,3.03c0,1.32,0.96,2.1,2.61,2.1
		c2.73,0,4.44-1.98,4.53-5.01C186.798,224.485,186.228,224.455,185.358,224.455 M151.309,231.295c-2.58,0-4.23-1.41-4.23-3.69
		c0-2.97,2.73-4.68,6.63-4.68c0.99,0,1.74,0.03,2.43,0.12v-0.9c0-1.86-1.32-2.79-3.36-2.79c-1.44,0-2.91,0.42-4.38,1.11l-0.63-1.56
		c1.8-0.84,3.51-1.26,5.19-1.26c3.03,0,5.04,1.59,5.04,4.59v8.82h-1.35l-0.33-2.4C155.359,230.245,153.649,231.295,151.309,231.295
		 M153.979,224.455c-3.12,0-4.98,1.08-4.98,3.03c0,1.32,0.96,2.1,2.61,2.1c2.73,0,4.44-1.98,4.53-5.01
		C155.419,224.485,154.849,224.455,153.979,224.455 M120.048,231.295c-1.86,0-3.42-0.51-4.83-1.47l0.93-1.44
		c1.17,0.84,2.43,1.2,3.9,1.2c1.62,0,2.67-0.81,2.67-2.01c0-1.29-1.47-1.95-3.06-2.58c-2.16-0.84-3.96-1.86-3.96-3.99
		c0-2.22,2.04-3.36,4.29-3.36c1.44,0,2.82,0.42,4.02,1.2l-0.81,1.32c-0.96-0.54-2.04-0.84-3.12-0.84c-1.35,0-2.55,0.45-2.55,1.68
		c0,1.2,1.23,1.8,2.79,2.4c2.4,0.9,4.23,1.95,4.23,4.17C124.548,229.795,122.658,231.295,120.048,231.295 M95.059,231.295
		c-2.16,0-3.51-1.26-3.51-3.99v-7.89l-2.58-0.12v-1.5h2.58v-4.41h1.83v4.41h4.74v1.62h-4.74v7.89c0,1.68,0.69,2.25,1.86,2.25
		c0.93,0,1.77-0.3,2.61-0.9l0.81,1.38C97.668,230.785,96.438,231.295,95.059,231.295 M139.549,231.205h-0.66l-6.21-13.35v-0.06h1.98
		l3.84,8.49c0.27,0.6,0.51,1.2,0.72,1.89c0.21-0.69,0.45-1.29,0.72-1.89l3.81-8.49h1.98v0.06L139.549,231.205 M174.828,231.055
		h-1.83v-13.259h1.83V231.055 M164.329,231.055h-1.83v-13.259h1.38l0.36,1.95c0.75-1.38,2.01-2.22,3.87-2.22
		c0.84,0,1.56,0.18,2.16,0.45l-0.54,1.62c-0.51-0.18-1.02-0.33-1.77-0.33c-2.16,0-3.63,1.53-3.63,4.11V231.055 M49.7,231.055h-1.83
		v-13.259h1.38l0.36,1.95c0.75-1.38,2.01-2.22,3.87-2.22c0.84,0,1.56,0.18,2.16,0.45l-0.54,1.62c-0.51-0.18-1.02-0.33-1.77-0.33
		c-2.16,0-3.63,1.53-3.63,4.11V231.055 M173.928,214.315c-0.84,0-1.38-0.6-1.38-1.32c0-0.78,0.54-1.38,1.38-1.38
		c0.84,0,1.38,0.6,1.38,1.38C175.308,213.746,174.738,214.315,173.928,214.315"/>
	<path fill="#9D9D9C" d="M898.555,212.379l-0.432,2.424h5.401c0.384,0,0.792,0,1.2-0.024c-0.192,0.336-0.408,0.648-0.576,0.984
		l-6.889,12.481h2.976l8.137-14.833l0.192-1.032z M909.715,225.22c-0.816,0-1.584,0.504-1.776,1.464
		c-0.024,0.12-0.024,0.24-0.024,0.336c0,0.912,0.648,1.512,1.392,1.512h0.12c-0.36,1.008-1.032,1.776-2.04,2.544l0.576,0.696
		c1.68-1.128,2.808-2.64,3.216-4.296c0.072-0.24,0.096-0.48,0.096-0.696C911.275,225.748,910.579,225.22,909.715,225.22z
		 M925.435,214.803l0.432-2.424h-7.993l-2.352,8.113l0.408,0.312c0.888-0.312,1.8-0.504,2.736-0.504
		c1.776,0,3.048,0.792,3.048,2.328c0,0.192,0,0.384-0.048,0.6c-0.336,1.848-1.872,2.784-3.672,2.784
		c-1.44,0-2.472-0.528-3.048-1.392l-1.68,1.848c0.984,1.272,2.688,2.088,4.8,2.088c3.288,0,5.832-1.896,6.337-4.92
		c0.072-0.432,0.12-0.816,0.12-1.2c0-2.736-1.944-4.2-4.848-4.2c-0.384,0-0.72,0.024-1.032,0.048l1.056-3.48z M931.459,228.532
		c3.864,0,6.265-3.096,7.129-8.041c0.144-0.864,0.216-1.68,0.216-2.424c0-3.696-1.8-5.977-4.728-5.977
		c-3.96,0-6.241,3.072-7.129,8.017c-0.144,0.888-0.24,1.704-0.24,2.472C926.706,226.276,928.482,228.532,931.459,228.532z
		 M931.651,226.084c-1.464,0-2.184-1.368-2.184-3.504c0-0.672,0.072-1.44,0.216-2.256c0.624-3.552,2.16-5.785,4.2-5.785
		c1.464,0,2.16,1.344,2.16,3.456c0,0.696-0.072,1.464-0.216,2.28C935.203,223.828,933.691,226.084,931.651,226.084z"/>
	<path fill="#9D9D9C" d="M948.968,214.882c0.76,0,1.34,0.12,1.9,0.34l1-1.82c-0.88-0.4-1.7-0.62-2.881-0.62
		c-3.461,0-5.941,1.88-6.982,4.741h-1.5l-0.24,1.4h1.36c-0.06,0.36-0.12,0.74-0.14,1.12h-1.42l-0.26,1.4h1.7
		c0.26,2.861,2.24,5.041,5.501,5.041c1.04,0,1.92-0.18,2.801-0.6l-0.44-1.96c-0.64,0.32-1.26,0.46-2.06,0.46
		c-2.12,0-3.181-1.16-3.461-2.941h2.921l0.78-1.4h-3.741c0.02-0.38,0.06-0.76,0.16-1.12h4.161l0.76-1.4h-4.421
		C945.307,215.922,946.868,214.882,948.968,214.882z"/>
	<path fill="#000000" d="M190.547,279.655h-1.83v-19.859h1.38l0.39,2.22c1.14-1.53,2.94-2.49,5.19-2.49c3.78,0,6.54,2.88,6.54,6.84
		c0,4.08-2.76,6.99-6.57,6.99c-2.19,0-4.05-0.99-5.16-2.49c0.03,1.02,0.06,2.25,0.06,3.57V279.655 M195.527,261.236
		c-2.97,0-5.07,2.1-5.07,5.13c0,3.15,2.13,5.28,5.07,5.28c2.85,0,4.86-2.16,4.86-5.19
		C200.387,263.395,198.377,261.236,195.527,261.236 M62.689,279.655h-1.83v-19.859h1.38l0.39,2.22c1.14-1.53,2.94-2.49,5.19-2.49
		c3.78,0,6.54,2.88,6.54,6.84c0,4.08-2.76,6.99-6.57,6.99c-2.19,0-4.05-0.99-5.16-2.49c0.03,1.02,0.06,2.25,0.06,3.57V279.655
		 M67.669,261.236c-2.97,0-5.07,2.1-5.07,5.13c0,3.15,2.13,5.28,5.07,5.28c2.85,0,4.86-2.16,4.86-5.19
		C72.528,263.395,70.519,261.236,67.669,261.236 M24.29,273.415c-6.15,0-10.349-4.77-10.349-10.59c0-6.03,4.29-10.53,10.349-10.53
		c3.21,0,5.52,1.14,7.68,3.33l-1.17,1.2c-1.62-1.68-3.6-2.7-6.51-2.7c-4.92,0-8.37,3.75-8.37,8.7c0,4.83,3.42,8.76,8.37,8.76
		c2.88,0,5.16-1.38,6.66-3.39l1.41,1.11C30.679,271.735,27.889,273.415,24.29,273.415 M544.871,273.385c-4.02,0-6.84-2.88-6.84-6.99
		c0-3.84,2.76-6.93,6.69-6.93c3.69,0,5.88,2.55,5.88,6.42c0,0.42-0.03,0.84-0.09,1.29h-10.62c0.3,2.82,2.46,4.5,4.95,4.5
		c1.86,0,3.03-0.57,4.05-1.62l1.05,1.32C548.59,272.665,546.971,273.385,544.871,273.385 M544.691,261.175
		c-2.46,0-4.38,1.74-4.74,4.38h8.849C548.74,262.735,547.121,261.175,544.691,261.175 M499.721,273.385c-3.3,0-6.6-2.43-6.6-6.99
		c0-4.38,3.18-6.9,6.78-6.9c1.92,0,3.39,0.6,4.74,1.8l-1.05,1.26c-1.08-0.93-2.13-1.35-3.69-1.35c-2.76,0-4.92,2.07-4.92,5.19
		c0,3.18,2.13,5.28,4.89,5.28c1.8,0,2.88-0.57,3.96-1.59l1.02,1.32C503.471,272.695,502.031,273.385,499.721,273.385
		 M486.101,273.385c-3.3,0-6.6-2.43-6.6-6.99c0-4.38,3.18-6.9,6.78-6.9c1.92,0,3.39,0.6,4.74,1.8l-1.05,1.26
		c-1.08-0.93-2.13-1.35-3.69-1.35c-2.76,0-4.92,2.07-4.92,5.19c0,3.18,2.13,5.28,4.89,5.28c1.8,0,2.88-0.57,3.96-1.59l1.02,1.32
		C489.851,272.695,488.411,273.385,486.101,273.385 M417.462,273.385c-4.02,0-6.84-2.88-6.84-6.99c0-3.84,2.76-6.93,6.69-6.93
		c3.69,0,5.88,2.55,5.88,6.42c0,0.42-0.03,0.84-0.09,1.29h-10.62c0.3,2.82,2.46,4.5,4.95,4.5c1.86,0,3.03-0.57,4.05-1.62l1.05,1.32
		C421.182,272.665,419.562,273.385,417.462,273.385 M417.282,261.175c-2.46,0-4.38,1.74-4.74,4.38h8.85
		C421.332,262.735,419.712,261.175,417.282,261.175 M376.843,273.385c-3.99,0-6.84-2.88-6.84-6.96c0-4.08,2.85-6.96,6.84-6.96
		c4.05,0,6.9,2.88,6.9,6.96C383.743,270.505,380.893,273.385,376.843,273.385 M376.843,261.175c-2.94,0-4.98,2.19-4.98,5.25
		c0,3.09,2.04,5.25,4.98,5.25c2.97,0,5.04-2.16,5.04-5.25C381.883,263.365,379.843,261.175,376.843,261.175 M323.505,273.385
		c-4.02,0-6.84-2.88-6.84-6.99c0-3.84,2.76-6.93,6.69-6.93c3.69,0,5.88,2.55,5.88,6.42c0,0.42-0.03,0.84-0.09,1.29h-10.62
		c0.3,2.82,2.46,4.5,4.95,4.5c1.86,0,3.03-0.57,4.05-1.62l1.05,1.32C327.224,272.665,325.604,273.385,323.505,273.385
		 M323.324,261.175c-2.46,0-4.38,1.74-4.74,4.38h8.85C327.374,262.735,325.754,261.175,323.324,261.175 M268.846,273.385
		c-3.99,0-6.84-2.88-6.84-6.96c0-4.08,2.85-6.96,6.84-6.96c4.05,0,6.9,2.88,6.9,6.96
		C275.745,270.505,272.895,273.385,268.846,273.385 M268.846,261.175c-2.94,0-4.98,2.19-4.98,5.25c0,3.09,2.04,5.25,4.98,5.25
		c2.97,0,5.04-2.16,5.04-5.25C273.885,263.365,271.845,261.175,268.846,261.175 M254.986,273.385c-3.3,0-6.6-2.43-6.6-6.99
		c0-4.38,3.18-6.9,6.78-6.9c1.92,0,3.39,0.6,4.74,1.8l-1.05,1.26c-1.08-0.93-2.13-1.35-3.69-1.35c-2.76,0-4.92,2.07-4.92,5.19
		c0,3.18,2.13,5.28,4.89,5.28c1.8,0,2.88-0.57,3.96-1.59l1.02,1.32C258.736,272.695,257.296,273.385,254.986,273.385
		 M172.607,273.385c-4.02,0-6.84-2.88-6.84-6.99c0-3.84,2.76-6.93,6.69-6.93c3.69,0,5.88,2.55,5.88,6.42c0,0.42-0.03,0.84-0.09,1.29
		h-10.619c0.3,2.82,2.46,4.5,4.95,4.5c1.86,0,3.03-0.57,4.05-1.62l1.05,1.32C176.327,272.665,174.707,273.385,172.607,273.385
		 M172.427,261.175c-2.46,0-4.38,1.74-4.74,4.38h8.85C176.477,262.735,174.857,261.175,172.427,261.175 M131.988,273.385
		c-3.99,0-6.84-2.88-6.84-6.96c0-4.08,2.85-6.96,6.84-6.96c4.05,0,6.9,2.88,6.9,6.96
		C138.888,270.505,136.038,273.385,131.988,273.385 M131.988,261.175c-2.94,0-4.98,2.19-4.98,5.25c0,3.09,2.04,5.25,4.98,5.25
		c2.97,0,5.04-2.16,5.04-5.25C137.028,263.365,134.988,261.175,131.988,261.175 M111.438,273.385c-3.3,0-6.6-2.43-6.6-6.99
		c0-4.38,3.18-6.9,6.78-6.9c1.92,0,3.39,0.6,4.74,1.8l-1.05,1.26c-1.08-0.93-2.13-1.35-3.69-1.35c-2.76,0-4.92,2.07-4.92,5.19
		c0,3.18,2.13,5.28,4.89,5.28c1.8,0,2.88-0.57,3.96-1.59l1.02,1.32C115.188,272.695,113.748,273.385,111.438,273.385
		 M97.819,273.385c-3.3,0-6.6-2.43-6.6-6.99c0-4.38,3.18-6.9,6.78-6.9c1.92,0,3.39,0.6,4.74,1.8l-1.05,1.26
		c-1.08-0.93-2.13-1.35-3.69-1.35c-2.76,0-4.92,2.07-4.92,5.19c0,3.18,2.13,5.28,4.89,5.28c1.8,0,2.88-0.57,3.96-1.59l1.02,1.32
		C101.568,272.695,100.128,273.385,97.819,273.385 M400.003,273.355c-3.93,0-6.66-2.94-6.66-6.99c0-3.93,2.76-6.84,6.66-6.84
		c2.16,0,4.05,0.96,5.13,2.52c-0.03-1.14-0.06-2.34-0.06-3.6v-6.9h1.83v21.509h-1.41l-0.27-2.37
		C404.142,272.335,402.313,273.355,400.003,273.355 M400.123,261.236c-2.94,0-4.95,2.16-4.95,5.19c0,3.03,2.01,5.19,4.95,5.19
		c3.06,0,5.01-2.19,5.01-5.19C405.132,263.425,403.122,261.236,400.123,261.236 M359.383,273.355c-3.93,0-6.66-2.94-6.66-6.99
		c0-3.93,2.76-6.84,6.66-6.84c2.16,0,4.05,0.96,5.13,2.52c-0.03-1.14-0.06-2.34-0.06-3.6v-6.9h1.83v21.509h-1.41l-0.27-2.37
		C363.523,272.335,361.693,273.355,359.383,273.355 M359.503,261.236c-2.94,0-4.95,2.16-4.95,5.19c0,3.03,2.01,5.19,4.95,5.19
		c3.06,0,5.01-2.19,5.01-5.19C364.513,263.425,362.503,261.236,359.503,261.236 M155.148,273.355c-3.93,0-6.66-2.94-6.66-6.99
		c0-3.93,2.76-6.84,6.66-6.84c2.16,0,4.05,0.96,5.13,2.52c-0.03-1.14-0.06-2.34-0.06-3.6v-6.9h1.83v21.509h-1.41l-0.27-2.37
		C159.287,272.335,157.457,273.355,155.148,273.355 M155.267,261.236c-2.94,0-4.95,2.16-4.95,5.19c0,3.03,2.01,5.19,4.95,5.19
		c3.06,0,5.01-2.19,5.01-5.19C160.277,263.425,158.267,261.236,155.267,261.236 M570.4,273.295c-2.58,0-4.23-1.41-4.23-3.69
		c0-2.97,2.73-4.68,6.63-4.68c0.99,0,1.74,0.03,2.43,0.12v-0.9c0-1.86-1.32-2.79-3.36-2.79c-1.44,0-2.91,0.42-4.38,1.11l-0.63-1.56
		c1.8-0.84,3.51-1.26,5.19-1.26c3.03,0,5.04,1.59,5.04,4.59v8.82h-1.35l-0.33-2.4C574.45,272.245,572.74,273.295,570.4,273.295
		 M573.07,266.455c-3.12,0-4.98,1.08-4.98,3.03c0,1.32,0.96,2.1,2.61,2.1c2.73,0,4.44-1.98,4.53-5.01
		C574.51,266.485,573.94,266.455,573.07,266.455 M532.931,273.295c-2.16,0-3.51-1.26-3.51-3.99v-7.89l-2.58-0.12v-1.5h2.58v-4.41
		h1.83v4.41h4.74v1.62h-4.74v7.89c0,1.68,0.69,2.25,1.86,2.25c0.93,0,1.77-0.3,2.61-0.9l0.81,1.38
		C535.541,272.785,534.31,273.295,532.931,273.295 M517.571,273.295c-2.58,0-4.23-1.41-4.23-3.69c0-2.97,2.73-4.68,6.63-4.68
		c0.99,0,1.74,0.03,2.43,0.12v-0.9c0-1.86-1.32-2.79-3.36-2.79c-1.44,0-2.91,0.42-4.38,1.11l-0.63-1.56
		c1.8-0.84,3.51-1.26,5.19-1.26c3.03,0,5.04,1.59,5.04,4.59v8.82h-1.35l-0.33-2.4C521.62,272.245,519.911,273.295,517.571,273.295
		 M520.24,266.455c-3.12,0-4.98,1.08-4.98,3.03c0,1.32,0.96,2.1,2.61,2.1c2.73,0,4.44-1.98,4.53-5.01
		C521.68,266.485,521.111,266.455,520.24,266.455 M469.271,273.295c-2.58,0-4.23-1.41-4.23-3.69c0-2.97,2.73-4.68,6.63-4.68
		c0.99,0,1.74,0.03,2.43,0.12v-0.9c0-1.86-1.32-2.79-3.36-2.79c-1.44,0-2.91,0.42-4.38,1.11l-0.63-1.56
		c1.8-0.84,3.51-1.26,5.19-1.26c3.03,0,5.04,1.59,5.04,4.59v8.82h-1.35l-0.33-2.4C473.321,272.245,471.611,273.295,469.271,273.295
		 M471.941,266.455c-3.12,0-4.98,1.08-4.98,3.03c0,1.32,0.96,2.1,2.61,2.1c2.73,0,4.44-1.98,4.53-5.01
		C473.381,266.485,472.811,266.455,471.941,266.455 M449.712,273.295c-2.16,0-3.51-1.26-3.51-3.99v-7.89l-2.58-0.12v-1.5h2.58v-4.41
		h1.83v4.41h4.74v1.62h-4.74v7.89c0,1.68,0.69,2.25,1.86,2.25c0.93,0,1.77-0.3,2.61-0.9l0.81,1.38
		C452.322,272.785,451.092,273.295,449.712,273.295 M437.352,273.295c-1.86,0-3.42-0.51-4.83-1.47l0.93-1.44
		c1.17,0.84,2.43,1.2,3.9,1.2c1.62,0,2.67-0.81,2.67-2.01c0-1.29-1.47-1.95-3.06-2.58c-2.16-0.84-3.96-1.86-3.96-3.99
		c0-2.22,2.04-3.36,4.29-3.36c1.44,0,2.82,0.42,4.02,1.2l-0.81,1.32c-0.96-0.54-2.04-0.84-3.12-0.84c-1.35,0-2.55,0.45-2.55,1.68
		c0,1.2,1.23,1.8,2.79,2.4c2.4,0.9,4.23,1.95,4.23,4.17C441.852,271.795,439.962,273.295,437.352,273.295 M342.494,273.295
		c-2.58,0-4.23-1.41-4.23-3.69c0-2.97,2.73-4.68,6.63-4.68c0.99,0,1.74,0.03,2.43,0.12v-0.9c0-1.86-1.32-2.79-3.36-2.79
		c-1.44,0-2.91,0.42-4.38,1.11l-0.63-1.56c1.8-0.84,3.51-1.26,5.19-1.26c3.03,0,5.04,1.59,5.04,4.59v8.82h-1.35l-0.33-2.4
		C346.544,272.245,344.834,273.295,342.494,273.295 M345.164,266.455c-3.12,0-4.98,1.08-4.98,3.03c0,1.32,0.96,2.1,2.61,2.1
		c2.73,0,4.44-1.98,4.53-5.01C346.604,266.485,346.034,266.455,345.164,266.455 M231.316,273.295c-2.58,0-4.23-1.41-4.23-3.69
		c0-2.97,2.73-4.68,6.63-4.68c0.99,0,1.74,0.03,2.43,0.12v-0.9c0-1.86-1.32-2.79-3.36-2.79c-1.44,0-2.91,0.42-4.38,1.11l-0.63-1.56
		c1.8-0.84,3.51-1.26,5.19-1.26c3.03,0,5.04,1.59,5.04,4.59v8.82h-1.35l-0.33-2.4C235.366,272.245,233.656,273.295,231.316,273.295
		 M233.986,266.455c-3.12,0-4.98,1.08-4.98,3.03c0,1.32,0.96,2.1,2.61,2.1c2.73,0,4.44-1.98,4.53-5.01
		C235.426,266.485,234.856,266.455,233.986,266.455 M80.989,273.295c-2.58,0-4.23-1.41-4.23-3.69c0-2.97,2.73-4.68,6.63-4.68
		c0.99,0,1.74,0.03,2.43,0.12v-0.9c0-1.86-1.32-2.79-3.36-2.79c-1.44,0-2.91,0.42-4.38,1.11l-0.63-1.56
		c1.8-0.84,3.51-1.26,5.19-1.26c3.03,0,5.04,1.59,5.04,4.59v8.82h-1.35l-0.33-2.4C85.039,272.245,83.329,273.295,80.989,273.295
		 M83.659,266.455c-3.12,0-4.98,1.08-4.98,3.03c0,1.32,0.96,2.1,2.61,2.1c2.73,0,4.44-1.98,4.53-5.01
		C85.099,266.485,84.529,266.455,83.659,266.455 M39.17,273.295c-2.58,0-4.23-1.41-4.23-3.69c0-2.97,2.73-4.68,6.63-4.68
		c0.99,0,1.74,0.03,2.43,0.12v-0.9c0-1.86-1.32-2.79-3.36-2.79c-1.44,0-2.91,0.42-4.38,1.11l-0.63-1.56
		c1.8-0.84,3.51-1.26,5.19-1.26c3.03,0,5.04,1.59,5.04,4.59v8.82h-1.35l-0.33-2.4C43.219,272.245,41.509,273.295,39.17,273.295
		 M41.84,266.455c-3.12,0-4.98,1.08-4.98,3.03c0,1.32,0.96,2.1,2.61,2.1c2.73,0,4.44-1.98,4.53-5.01
		C43.279,266.485,42.709,266.455,41.84,266.455 M562.54,273.055h-1.83l-0.03-21.509h1.83L562.54,273.055 M556,273.055h-1.83
		l-0.03-21.509h1.83L556,273.055 M509.711,273.055h-1.83v-13.259h1.83V273.055 M457.872,273.055h-1.83v-13.259h1.38l0.36,1.95
		c0.75-1.38,2.01-2.22,3.87-2.22c0.84,0,1.56,0.18,2.16,0.45l-0.54,1.62c-0.51-0.18-1.02-0.33-1.77-0.33
		c-2.16,0-3.63,1.53-3.63,4.11V273.055 M334.634,273.055h-1.83l-0.03-21.509h1.83L334.634,273.055 M313.124,273.055h-1.83v-8.16
		c0-2.22-0.9-3.66-3.12-3.66c-2.82,0-4.38,2.4-4.38,5.28v6.54h-1.83v-21.509h1.83v8.58c0,0.66,0,1.29-0.03,2.07
		c0.81-1.56,2.34-2.67,4.59-2.67c3.24,0,4.77,2.04,4.77,5.43V273.055 M290.625,273.055h-1.83v-8.13c0-2.25-0.84-3.69-3.06-3.69
		c-2.67,0-4.44,1.92-4.44,4.68v7.14h-1.83v-13.259h1.38l0.42,2.25c0.78-1.41,2.4-2.52,4.65-2.52c3.09,0,4.71,1.98,4.71,5.43V273.055
		 M223.636,273.055h-1.83v-8.13c0-2.25-0.84-3.69-3.06-3.69c-2.67,0-4.44,1.92-4.44,4.68v7.14h-1.83v-13.259h1.38l0.42,2.25
		c0.78-1.41,2.4-2.52,4.65-2.52c3.09,0,4.71,1.98,4.71,5.43V273.055 M207.797,273.055h-1.83v-13.259h1.83V273.055 M121.428,273.055
		h-1.83v-13.259h1.83V273.055 M52.189,273.055h-1.83v-13.259h1.38l0.36,1.95c0.75-1.38,2.01-2.22,3.87-2.22
		c0.84,0,1.56,0.18,2.16,0.45l-0.54,1.62c-0.51-0.18-1.02-0.33-1.77-0.33c-2.16,0-3.63,1.53-3.63,4.11V273.055 M215.267,256.466
		l-1.29-0.72c0.54-1.38,1.26-2.07,2.25-2.07c0.57,0,1.26,0.21,1.98,0.63c0.57,0.3,0.96,0.48,1.29,0.48c0.45,0,0.81-0.33,1.08-1.05
		l1.29,0.72c-0.54,1.35-1.29,1.98-2.25,1.98c-0.51,0-1.11-0.18-1.77-0.54c-0.57-0.3-1.05-0.54-1.44-0.54
		C215.897,255.356,215.537,255.686,215.267,256.466 M508.811,256.316c-0.84,0-1.38-0.6-1.38-1.32c0-0.78,0.54-1.38,1.38-1.38
		c0.84,0,1.38,0.6,1.38,1.38C510.191,255.746,509.621,256.316,508.811,256.316 M206.897,256.316c-0.84,0-1.38-0.6-1.38-1.32
		c0-0.78,0.54-1.38,1.38-1.38c0.84,0,1.38,0.6,1.38,1.38C208.277,255.746,207.707,256.316,206.897,256.316 M120.528,256.316
		c-0.84,0-1.38-0.6-1.38-1.32c0-0.78,0.54-1.38,1.38-1.38s1.38,0.6,1.38,1.38C121.908,255.746,121.338,256.316,120.528,256.316"/>
	<path fill="#9D9D9C" d="M896.755,254.379l-0.432,2.424h5.401c0.384,0,0.792,0,1.2-0.024c-0.192,0.336-0.408,0.648-0.576,0.984
		l-6.889,12.481h2.976l8.137-14.833l0.192-1.032z M907.915,267.22c-0.816,0-1.584,0.504-1.776,1.464
		c-0.024,0.12-0.024,0.24-0.024,0.336c0,0.912,0.648,1.512,1.392,1.512h0.12c-0.36,1.008-1.032,1.776-2.04,2.544l0.576,0.696
		c1.68-1.128,2.808-2.64,3.216-4.296c0.072-0.24,0.096-0.48,0.096-0.696C909.475,267.748,908.779,267.22,907.915,267.22z
		 M917.587,270.508c3.504,0,5.88-1.608,6.385-4.44c0.048-0.288,0.072-0.576,0.072-0.84c0-1.608-0.888-2.808-2.112-3.384
		c1.488-0.624,2.976-2.04,2.976-4.2c0-2.088-1.728-3.576-4.512-3.576c-3.12,0-5.424,1.656-5.88,4.224
		c-0.048,0.216-0.048,0.456-0.048,0.648c0,1.344,0.72,2.448,1.752,2.904c-1.824,0.552-3.216,2.112-3.552,3.96
		c-0.048,0.288-0.072,0.576-0.072,0.864C912.594,269.044,914.515,270.508,917.587,270.508z M919.291,260.715
		c-1.368,0-2.184-0.672-2.184-1.752c0-1.584,1.2-2.592,2.88-2.592c1.368,0,2.184,0.672,2.184,1.704
		C922.171,259.611,920.947,260.715,919.291,260.715z M917.995,268.084c-1.512,0-2.544-0.648-2.544-1.968
		c0-0.168,0.024-0.312,0.048-0.48c0.264-1.536,1.584-2.64,3.312-2.64c1.608,0,2.472,0.816,2.472,2.064
		C921.283,266.98,919.795,268.084,917.995,268.084z M931.459,270.532c3.864,0,6.265-3.096,7.129-8.041
		c0.144-0.864,0.216-1.68,0.216-2.424c0-3.696-1.8-5.977-4.728-5.977c-3.96,0-6.241,3.072-7.129,8.017
		c-0.144,0.888-0.24,1.704-0.24,2.472C926.706,268.276,928.482,270.532,931.459,270.532z M931.651,268.084
		c-1.464,0-2.184-1.368-2.184-3.504c0-0.672,0.072-1.44,0.216-2.256c0.624-3.552,2.16-5.785,4.2-5.785
		c1.464,0,2.16,1.344,2.16,3.456c0,0.696-0.072,1.464-0.216,2.28C935.203,265.828,933.691,268.084,931.651,268.084z"/>
	<path fill="#9D9D9C" d="M948.968,256.882c0.76,0,1.34,0.12,1.9,0.34l1-1.82c-0.88-0.4-1.7-0.62-2.881-0.62
		c-3.461,0-5.941,1.88-6.982,4.741h-1.5l-0.24,1.4h1.36c-0.06,0.36-0.12,0.74-0.14,1.12h-1.42l-0.26,1.4h1.7
		c0.26,2.861,2.24,5.041,5.501,5.041c1.04,0,1.92-0.18,2.801-0.6l-0.44-1.96c-0.64,0.32-1.26,0.46-2.06,0.46
		c-2.12,0-3.181-1.16-3.461-2.941h2.921l0.78-1.4h-3.741c0.02-0.38,0.06-0.76,0.16-1.12h4.161l0.76-1.4h-4.421
		C945.307,257.922,946.868,256.882,948.968,256.882z"/>
</g>
</svg>
