<!-- Generator: Adobe InDesign 21.0 SVG Export Plug-in, SVG Library version: 9.3 build 128 -->
<!DOCTYPE svg PUBLIC "-//W3C//DTD SVG 1.1//EN" "http://www.w3.org/Graphics/SVG/1.1/DTD/svg11.dtd">
<svg version="1.1" xmlns="http://www.w3.org/2000/svg" xmlns:xlink="http://www.w3.org/1999/xlink" x="0%" y="0%" width="100%"
	 height="100%" viewBox="0 0 977.626 505.26" preserveAspectRatio="xMidYMid slice" overflow="visible" xml:space="preserve">
<clipPath id="clp_unq_id_1" fill="none">
	<path shape-rendering="crispEdges" stroke="#000000" d="M0,0h977.626v505.26H0V0"/>
</clipPath>
<g clip-path="url(#clp_unq_id_1)" fill="none">
	<path fill="#000000" d="M56.449,69.655h-1.83V49.795h1.38l0.39,2.22c1.14-1.53,2.94-2.49,5.19-2.49c3.78,0,6.54,2.88,6.54,6.84
		c0,4.08-2.76,6.99-6.57,6.99c-2.19,0-4.05-0.99-5.16-2.49c0.03,1.02,0.06,2.25,0.06,3.57V69.655 M61.429,51.236
		c-2.97,0-5.07,2.1-5.07,5.13c0,3.15,2.13,5.28,5.07,5.28c2.85,0,4.86-2.16,4.86-5.19C66.289,53.395,64.279,51.236,61.429,51.236
		 M159.317,63.385c-4.02,0-6.84-2.88-6.84-6.99c0-3.84,2.76-6.93,6.69-6.93c3.69,0,5.88,2.55,5.88,6.42c0,0.42-0.03,0.84-0.09,1.29
		h-10.619c0.3,2.82,2.46,4.5,4.95,4.5c1.86,0,3.03-0.57,4.05-1.62l1.05,1.32C163.037,62.665,161.417,63.385,159.317,63.385
		 M159.137,51.176c-2.46,0-4.38,1.74-4.74,4.38h8.85C163.187,52.735,161.567,51.176,159.137,51.176 M77.749,63.385
		c-3.99,0-6.84-2.88-6.84-6.96s2.85-6.96,6.84-6.96c4.05,0,6.9,2.88,6.9,6.96S81.799,63.385,77.749,63.385 M77.749,51.176
		c-2.94,0-4.98,2.19-4.98,5.25c0,3.09,2.04,5.25,4.98,5.25c2.97,0,5.04-2.16,5.04-5.25C82.789,53.365,80.749,51.176,77.749,51.176
		 M188.326,63.295c-2.58,0-4.23-1.41-4.23-3.69c0-2.97,2.73-4.68,6.63-4.68c0.99,0,1.74,0.03,2.43,0.12v-0.9
		c0-1.86-1.32-2.79-3.36-2.79c-1.44,0-2.91,0.42-4.38,1.11l-0.63-1.56c1.8-0.84,3.51-1.26,5.19-1.26c3.03,0,5.04,1.59,5.04,4.59
		v8.82h-1.35l-0.33-2.4C192.376,62.245,190.666,63.295,188.326,63.295 M190.996,56.455c-3.12,0-4.98,1.08-4.98,3.03
		c0,1.32,0.96,2.1,2.61,2.1c2.73,0,4.44-1.98,4.53-5.01C192.436,56.485,191.866,56.455,190.996,56.455 M126.138,63.295
		c-2.58,0-4.23-1.41-4.23-3.69c0-2.97,2.73-4.68,6.63-4.68c0.99,0,1.74,0.03,2.43,0.12v-0.9c0-1.86-1.32-2.79-3.36-2.79
		c-1.44,0-2.91,0.42-4.38,1.11l-0.63-1.56c1.8-0.84,3.51-1.26,5.19-1.26c3.03,0,5.04,1.59,5.04,4.59v8.82h-1.35l-0.33-2.4
		C130.188,62.245,128.478,63.295,126.138,63.295 M128.808,56.455c-3.12,0-4.98,1.08-4.98,3.03c0,1.32,0.96,2.1,2.61,2.1
		c2.73,0,4.44-1.98,4.53-5.01C130.248,56.485,129.678,56.455,128.808,56.455 M98.389,63.295c-2.58,0-4.23-1.41-4.23-3.69
		c0-2.97,2.73-4.68,6.63-4.68c0.99,0,1.74,0.03,2.43,0.12v-0.9c0-1.86-1.32-2.79-3.36-2.79c-1.44,0-2.91,0.42-4.38,1.11l-0.63-1.56
		c1.8-0.84,3.51-1.26,5.19-1.26c3.03,0,5.04,1.59,5.04,4.59v8.82h-1.35l-0.33-2.4C102.438,62.245,100.728,63.295,98.389,63.295
		 M101.059,56.455c-3.12,0-4.98,1.08-4.98,3.03c0,1.32,0.96,2.1,2.61,2.1c2.73,0,4.44-1.98,4.53-5.01
		C102.498,56.485,101.928,56.455,101.059,56.455 M37.16,63.295c-3.3,0-4.83-2.19-4.83-5.43v-8.07h1.83v8.1
		c0,2.16,0.84,3.69,3.21,3.69c2.64,0,4.2-2.37,4.2-5.19v-6.6h1.83v13.259h-1.41l-0.36-2.31C40.85,62.155,39.35,63.295,37.16,63.295
		 M176.927,63.055h-1.83V49.795h1.38l0.36,1.95c0.75-1.38,2.01-2.22,3.87-2.22c0.84,0,1.56,0.18,2.16,0.45l-0.54,1.62
		c-0.51-0.18-1.02-0.33-1.77-0.33c-2.16,0-3.63,1.53-3.63,4.11V63.055 M170.417,63.055h-1.83V49.795h1.83V63.055 M146.957,63.055
		h-1.83v-11.64h-2.76v-1.62h2.76v-3.81c0-2.61,1.35-4.8,4.29-4.8c1.41,0,2.4,0.42,3.42,1.17l-0.84,1.32
		c-0.75-0.51-1.41-0.78-2.37-0.78c-1.62,0-2.67,1.05-2.67,3.09v3.81h4.35v1.62h-4.35V63.055 M118.278,63.055h-1.83l-0.03-21.509
		h1.83L118.278,63.055 M49.94,63.055h-1.83l-0.03-21.509h1.83L49.94,63.055 M17.21,63.055h-1.98V42.656h7.53
		c4.26,0,6.42,3.33,6.42,6.21c0,2.85-2.04,6-6.54,6h-5.43V63.055 M17.21,44.456v8.61h5.4c3.12,0,4.59-2.1,4.59-4.23
		c0-2.34-1.77-4.38-4.47-4.38H17.21 M169.517,46.316c-0.84,0-1.38-0.6-1.38-1.32c0-0.78,0.54-1.38,1.38-1.38
		c0.84,0,1.38,0.6,1.38,1.38C170.897,45.746,170.327,46.316,169.517,46.316"/>
	<path fill="#9D9D9C" d="M890.636,44.259l-5.496,3l0.984,1.992l2.136-1.056l0.6-0.312c-0.12,0.432-0.192,0.864-0.288,1.32
		l-1.992,11.041h2.808l2.808-15.985z M898.195,60.508c3.504,0,5.88-1.608,6.385-4.44c0.048-0.288,0.072-0.576,0.072-0.84
		c0-1.608-0.888-2.808-2.112-3.384c1.488-0.624,2.976-2.04,2.976-4.2c0-2.088-1.728-3.576-4.512-3.576
		c-3.12,0-5.424,1.656-5.88,4.224c-0.048,0.216-0.048,0.456-0.048,0.648c0,1.344,0.72,2.448,1.752,2.904
		c-1.824,0.552-3.216,2.112-3.552,3.96c-0.048,0.288-0.072,0.576-0.072,0.864C893.203,59.044,895.123,60.508,898.195,60.508z
		 M899.899,50.715c-1.368,0-2.184-0.672-2.184-1.752c0-1.584,1.2-2.592,2.88-2.592c1.368,0,2.184,0.672,2.184,1.704
		C902.78,49.611,901.556,50.715,899.899,50.715z M898.603,58.084c-1.512,0-2.544-0.648-2.544-1.968c0-0.168,0.024-0.312,0.048-0.48
		c0.264-1.536,1.584-2.64,3.312-2.64c1.608,0,2.472,0.816,2.472,2.064C901.892,56.98,900.404,58.084,898.603,58.084z M908.539,57.22
		c-0.816,0-1.584,0.504-1.776,1.464c-0.024,0.12-0.024,0.24-0.024,0.336c0,0.912,0.648,1.512,1.392,1.512h0.12
		c-0.36,1.008-1.032,1.776-2.04,2.544l0.576,0.696c1.68-1.128,2.808-2.64,3.216-4.296c0.072-0.24,0.096-0.48,0.096-0.696
		C910.099,57.748,909.403,57.22,908.539,57.22z M917.563,60.532c3.384,0,5.929-1.776,6.433-4.464
		c0.048-0.288,0.072-0.576,0.072-0.84c0-1.512-0.768-2.832-2.256-3.288c1.584-0.768,2.472-2.16,2.712-3.384
		c0.048-0.264,0.072-0.528,0.072-0.792c0-2.136-1.752-3.672-4.296-3.672c-1.848,0-3.552,0.624-5.472,2.232l1.392,1.704
		c1.248-1.008,2.28-1.512,3.696-1.512c1.176,0,1.944,0.696,1.944,1.656c0,1.248-1.104,2.664-3.216,2.664h-1.872l-0.408,2.304h2.52
		c1.176,0,2.448,0.456,2.448,1.896c0,1.776-1.704,3.048-3.672,3.048c-1.392,0-2.448-0.432-3.384-1.632l-1.872,1.68
		C913.723,59.788,915.451,60.532,917.563,60.532z M931.459,60.532c3.864,0,6.265-3.096,7.129-8.041
		c0.144-0.864,0.216-1.68,0.216-2.424c0-3.696-1.8-5.977-4.728-5.977c-3.96,0-6.241,3.072-7.129,8.017
		c-0.144,0.888-0.24,1.704-0.24,2.472C926.706,58.276,928.482,60.532,931.459,60.532z M931.651,58.084
		c-1.464,0-2.184-1.368-2.184-3.504c0-0.672,0.072-1.44,0.216-2.256c0.624-3.552,2.16-5.785,4.2-5.785
		c1.464,0,2.16,1.344,2.16,3.456c0,0.696-0.072,1.464-0.216,2.28C935.203,55.828,933.691,58.084,931.651,58.084z"/>
	<path fill="#9D9D9C" d="M948.968,46.882c0.76,0,1.34,0.12,1.9,0.34l1-1.82c-0.88-0.4-1.7-0.62-2.881-0.62
		c-3.461,0-5.941,1.88-6.982,4.741h-1.5l-0.24,1.4h1.36c-0.06,0.36-0.12,0.74-0.14,1.12h-1.42l-0.26,1.4h1.7
		c0.26,2.861,2.24,5.041,5.501,5.041c1.04,0,1.92-0.18,2.801-0.6l-0.44-1.96c-0.64,0.32-1.26,0.46-2.06,0.46
		c-2.12,0-3.181-1.16-3.461-2.941h2.921l0.78-1.4h-3.741c0.02-0.38,0.06-0.76,0.16-1.12h4.161l0.76-1.4h-4.421
		C945.307,47.922,946.868,46.882,948.968,46.882z"/>
	<path fill="#000000" d="M24.29,105.415c-6.15,0-10.349-4.77-10.349-10.59c0-6.03,4.29-10.53,10.349-10.53
		c3.21,0,5.52,1.14,7.68,3.33l-1.17,1.2c-1.62-1.68-3.6-2.7-6.51-2.7c-4.92,0-8.37,3.75-8.37,8.7c0,4.83,3.42,8.76,8.37,8.76
		c2.88,0,5.16-1.38,6.66-3.39l1.41,1.11C30.679,103.735,27.889,105.415,24.29,105.415 M125.328,105.385c-4.02,0-6.84-2.88-6.84-6.99
		c0-3.84,2.76-6.93,6.69-6.93c3.69,0,5.88,2.55,5.88,6.42c0,0.42-0.03,0.84-0.09,1.29h-10.62c0.3,2.82,2.46,4.5,4.95,4.5
		c1.86,0,3.03-0.57,4.05-1.62l1.05,1.32C129.047,104.665,127.427,105.385,125.328,105.385 M125.147,93.175
		c-2.46,0-4.38,1.74-4.74,4.38h8.85C129.197,94.735,127.577,93.175,125.147,93.175 M238.005,105.355c-3.93,0-6.66-2.94-6.66-6.99
		c0-3.93,2.76-6.84,6.66-6.84c2.16,0,4.05,0.96,5.13,2.52c-0.03-1.14-0.06-2.34-0.06-3.6v-6.9h1.83v21.509h-1.41l-0.27-2.37
		C242.145,104.335,240.315,105.355,238.005,105.355 M238.125,93.236c-2.94,0-4.95,2.16-4.95,5.19s2.01,5.19,4.95,5.19
		c3.06,0,5.01-2.19,5.01-5.19C243.135,95.425,241.125,93.236,238.125,93.236 M301.244,105.295c-2.58,0-4.23-1.41-4.23-3.69
		c0-2.97,2.73-4.68,6.63-4.68c0.99,0,1.74,0.03,2.43,0.12v-0.9c0-1.86-1.32-2.79-3.36-2.79c-1.44,0-2.91,0.42-4.38,1.11l-0.63-1.56
		c1.8-0.84,3.51-1.26,5.19-1.26c3.03,0,5.04,1.59,5.04,4.59v8.82h-1.35l-0.33-2.4C305.294,104.245,303.584,105.295,301.244,105.295
		 M303.914,98.455c-3.12,0-4.98,1.08-4.98,3.03c0,1.32,0.96,2.1,2.61,2.1c2.73,0,4.44-1.98,4.53-5.01
		C305.354,98.485,304.784,98.455,303.914,98.455 M275.144,105.295c-3.3,0-4.83-2.19-4.83-5.43v-8.07h1.83v8.1
		c0,2.16,0.84,3.69,3.21,3.69c2.64,0,4.2-2.37,4.2-5.19v-6.6h1.83v13.259h-1.41l-0.36-2.31
		C278.834,104.155,277.334,105.295,275.144,105.295 M252.765,105.295c-2.58,0-4.23-1.41-4.23-3.69c0-2.97,2.73-4.68,6.63-4.68
		c0.99,0,1.74,0.03,2.43,0.12v-0.9c0-1.86-1.32-2.79-3.36-2.79c-1.44,0-2.91,0.42-4.38,1.11l-0.63-1.56
		c1.8-0.84,3.51-1.26,5.19-1.26c3.03,0,5.04,1.59,5.04,4.59v8.82h-1.35l-0.33-2.4C256.815,104.245,255.105,105.295,252.765,105.295
		 M255.435,98.455c-3.12,0-4.98,1.08-4.98,3.03c0,1.32,0.96,2.1,2.61,2.1c2.73,0,4.44-1.98,4.53-5.01
		C256.875,98.485,256.305,98.455,255.435,98.455 M205.456,105.295c-2.58,0-4.23-1.41-4.23-3.69c0-2.97,2.73-4.68,6.63-4.68
		c0.99,0,1.74,0.03,2.43,0.12v-0.9c0-1.86-1.32-2.79-3.36-2.79c-1.44,0-2.91,0.42-4.38,1.11l-0.63-1.56
		c1.8-0.84,3.51-1.26,5.19-1.26c3.03,0,5.04,1.59,5.04,4.59v8.82h-1.35l-0.33-2.4C209.506,104.245,207.796,105.295,205.456,105.295
		 M208.126,98.455c-3.12,0-4.98,1.08-4.98,3.03c0,1.32,0.96,2.1,2.61,2.1c2.73,0,4.44-1.98,4.53-5.01
		C209.566,98.485,208.996,98.455,208.126,98.455 M184.246,105.295c-2.58,0-4.23-1.41-4.23-3.69c0-2.97,2.73-4.68,6.63-4.68
		c0.99,0,1.74,0.03,2.43,0.12v-0.9c0-1.86-1.32-2.79-3.36-2.79c-1.44,0-2.91,0.42-4.38,1.11l-0.63-1.56
		c1.8-0.84,3.51-1.26,5.19-1.26c3.03,0,5.04,1.59,5.04,4.59v8.82h-1.35l-0.33-2.4C188.296,104.245,186.586,105.295,184.246,105.295
		 M186.916,98.455c-3.12,0-4.98,1.08-4.98,3.03c0,1.32,0.96,2.1,2.61,2.1c2.73,0,4.44-1.98,4.53-5.01
		C188.356,98.485,187.786,98.455,186.916,98.455 M156.497,105.295c-2.58,0-4.23-1.41-4.23-3.69c0-2.97,2.73-4.68,6.63-4.68
		c0.99,0,1.74,0.03,2.43,0.12v-0.9c0-1.86-1.32-2.79-3.36-2.79c-1.44,0-2.91,0.42-4.38,1.11l-0.63-1.56
		c1.8-0.84,3.51-1.26,5.19-1.26c3.03,0,5.04,1.59,5.04,4.59v8.82h-1.35l-0.33-2.4C160.547,104.245,158.837,105.295,156.497,105.295
		 M159.167,98.455c-3.12,0-4.98,1.08-4.98,3.03c0,1.32,0.96,2.1,2.61,2.1c2.73,0,4.44-1.98,4.53-5.01
		C160.607,98.485,160.037,98.455,159.167,98.455 M138.377,105.295c-1.86,0-3.42-0.51-4.83-1.47l0.93-1.44
		c1.17,0.84,2.43,1.2,3.9,1.2c1.62,0,2.67-0.81,2.67-2.01c0-1.29-1.47-1.95-3.06-2.58c-2.16-0.84-3.96-1.86-3.96-3.99
		c0-2.22,2.04-3.36,4.29-3.36c1.44,0,2.82,0.42,4.02,1.2l-0.81,1.32c-0.96-0.54-2.04-0.84-3.12-0.84c-1.35,0-2.55,0.45-2.55,1.68
		c0,1.2,1.23,1.8,2.79,2.4c2.4,0.9,4.23,1.95,4.23,4.17C142.877,103.795,140.987,105.295,138.377,105.295 M98.448,105.295
		c-2.58,0-4.23-1.41-4.23-3.69c0-2.97,2.73-4.68,6.63-4.68c0.99,0,1.74,0.03,2.43,0.12v-0.9c0-1.86-1.32-2.79-3.36-2.79
		c-1.44,0-2.91,0.42-4.38,1.11l-0.63-1.56c1.8-0.84,3.51-1.26,5.19-1.26c3.03,0,5.04,1.59,5.04,4.59v8.82h-1.35l-0.33-2.4
		C102.498,104.245,100.788,105.295,98.448,105.295 M101.118,98.455c-3.12,0-4.98,1.08-4.98,3.03c0,1.32,0.96,2.1,2.61,2.1
		c2.73,0,4.44-1.98,4.53-5.01C102.558,98.485,101.988,98.455,101.118,98.455 M60.079,105.295c-2.58,0-4.23-1.41-4.23-3.69
		c0-2.97,2.73-4.68,6.63-4.68c0.99,0,1.74,0.03,2.43,0.12v-0.9c0-1.86-1.32-2.79-3.36-2.79c-1.44,0-2.91,0.42-4.38,1.11l-0.63-1.56
		c1.8-0.84,3.51-1.26,5.19-1.26c3.03,0,5.04,1.59,5.04,4.59v8.82h-1.35l-0.33-2.4C64.129,104.245,62.419,105.295,60.079,105.295
		 M62.749,98.455c-3.12,0-4.98,1.08-4.98,3.03c0,1.32,0.96,2.1,2.61,2.1c2.73,0,4.44-1.98,4.53-5.01
		C64.189,98.485,63.619,98.455,62.749,98.455 M39.17,105.295c-2.58,0-4.23-1.41-4.23-3.69c0-2.97,2.73-4.68,6.63-4.68
		c0.99,0,1.74,0.03,2.43,0.12v-0.9c0-1.86-1.32-2.79-3.36-2.79c-1.44,0-2.91,0.42-4.38,1.11l-0.63-1.56
		c1.8-0.84,3.51-1.26,5.19-1.26c3.03,0,5.04,1.59,5.04,4.59v8.82h-1.35l-0.33-2.4C43.219,104.245,41.509,105.295,39.17,105.295
		 M41.84,98.455c-3.12,0-4.98,1.08-4.98,3.03c0,1.32,0.96,2.1,2.61,2.1c2.73,0,4.44-1.98,4.53-5.01
		C43.279,98.485,42.709,98.455,41.84,98.455 M294.944,105.055h-9.93v-0.57l6.24-9.69l0.87-1.35c-0.75,0.03-1.05,0.03-1.62,0.03
		h-5.16v-1.68h9.51v0.54l-5.88,9.09c-0.39,0.66-0.81,1.26-1.29,1.95h2.19h5.07V105.055 M265.815,105.055h-1.83l-0.03-21.509h1.83
		L265.815,105.055 M227.805,105.055h-1.83v-8.13c0-2.25-0.84-3.69-3.06-3.69c-2.67,0-4.44,1.92-4.44,4.68v7.14h-1.83V91.796h1.38
		l0.42,2.25c0.78-1.41,2.4-2.52,4.65-2.52c3.09,0,4.71,1.98,4.71,5.43V105.055 M176.387,105.055h-1.83l-0.03-21.509h1.83
		L176.387,105.055 M111.468,105.055h-1.83V91.796h1.38l0.36,1.95c0.75-1.38,2.01-2.22,3.87-2.22c0.84,0,1.56,0.18,2.16,0.45
		l-0.54,1.62c-0.51-0.18-1.02-0.33-1.77-0.33c-2.16,0-3.63,1.53-3.63,4.11V105.055 M90.768,105.055h-1.83v-8.4
		c0-2.13-1.08-3.42-2.94-3.42c-2.67,0-4.05,2.43-4.05,4.92v6.9h-1.83v-8.43c0-1.83-0.93-3.39-2.94-3.39c-2.7,0-4.08,2.43-4.08,4.92
		v6.9h-1.83V91.796h1.38l0.42,2.28c0.87-1.62,2.4-2.55,4.32-2.55c2.01,0,3.48,0.99,4.11,2.67c0.87-1.62,2.4-2.67,4.62-2.67
		c3.03,0,4.65,2.01,4.65,5.22V105.055 M52.219,105.055h-1.83l-0.03-21.509h1.83L52.219,105.055"/>
	<path fill="#9D9D9C" d="M894.859,86.259l-5.496,3l0.984,1.992l2.136-1.056l0.6-0.312c-0.12,0.432-0.192,0.864-0.288,1.32
		l-1.992,11.041h2.808l2.808-15.985z M902.059,98.86l4.224-4.416c1.128-1.152,1.848-2.328,2.04-3.528
		c0.048-0.312,0.096-0.624,0.096-0.912c0-2.28-1.68-3.912-4.2-3.912c-2.136,0-3.816,0.984-5.328,2.76l1.776,1.68
		c0.984-1.104,2.04-1.896,3.264-1.896c1.104,0,1.704,0.696,1.704,1.608c0,0.864-0.504,1.848-1.464,2.856l-7.609,8.065l-0.192,1.08
		h10.201l0.408-2.424l-4.512,0.024c-0.48,0-0.984,0.024-1.464,0.048C901.363,99.58,901.699,99.22,902.059,98.86z M910.914,99.22
		c-0.816,0-1.584,0.504-1.776,1.464c-0.024,0.12-0.024,0.24-0.024,0.336c0,0.912,0.648,1.512,1.392,1.512h0.12
		c-0.36,1.008-1.032,1.776-2.04,2.544l0.576,0.696c1.68-1.128,2.808-2.64,3.216-4.296c0.072-0.24,0.096-0.48,0.096-0.696
		C912.474,99.748,911.778,99.22,910.914,99.22z M922.459,86.067c-3.024,0-5.28,1.92-5.809,4.872
		c-0.072,0.384-0.096,0.744-0.096,1.08c0,2.592,1.824,4.272,4.128,4.272c1.248,0,2.184-0.288,3.192-1.032
		c-1.176,2.952-3.648,4.776-7.345,4.896l0.168,2.304c6.049-0.096,9.337-3.96,10.369-9.145l0.072-0.336
		c0.12-0.6,0.168-1.176,0.168-1.728C927.307,88.179,925.627,86.067,922.459,86.067z M921.499,93.987
		c-1.44,0-2.232-1.032-2.232-2.328c0-0.192,0.024-0.384,0.048-0.576c0.312-1.656,1.44-2.568,3.024-2.592
		c1.344,0,2.328,0.936,2.328,2.28c0,0.168-0.024,0.336-0.048,0.528C924.355,92.835,923.275,93.987,921.499,93.987z M939.451,88.803
		l0.432-2.424h-7.993l-2.352,8.113l0.408,0.312c0.888-0.312,1.8-0.504,2.736-0.504c1.776,0,3.048,0.792,3.048,2.328
		c0,0.192,0,0.384-0.048,0.6c-0.336,1.848-1.872,2.784-3.672,2.784c-1.44,0-2.472-0.528-3.048-1.392l-1.68,1.848
		c0.984,1.272,2.688,2.088,4.8,2.088c3.288,0,5.832-1.896,6.337-4.92c0.072-0.432,0.12-0.816,0.12-1.2c0-2.736-1.944-4.2-4.848-4.2
		c-0.384,0-0.72,0.024-1.032,0.048l1.056-3.48z"/>
	<path fill="#9D9D9C" d="M948.968,88.882c0.76,0,1.34,0.12,1.9,0.34l1-1.82c-0.88-0.4-1.7-0.62-2.881-0.62
		c-3.461,0-5.941,1.88-6.982,4.741h-1.5l-0.24,1.4h1.36c-0.06,0.36-0.12,0.74-0.14,1.12h-1.42l-0.26,1.4h1.7
		c0.26,2.861,2.24,5.041,5.501,5.041c1.04,0,1.92-0.18,2.801-0.6l-0.44-1.96c-0.64,0.32-1.26,0.46-2.06,0.46
		c-2.12,0-3.181-1.16-3.461-2.941h2.921l0.78-1.4h-3.741c0.02-0.38,0.06-0.76,0.16-1.12h4.161l0.76-1.4h-4.421
		C945.307,89.922,946.868,88.882,948.968,88.882z"/>
	<path fill="#000000" d="M188.777,153.655h-1.92v-0.06l2.94-6.87l-5.79-12.869v-0.06h1.92l3.81,8.489c0.33,0.78,0.66,1.53,0.96,2.46
		c0.3-0.93,0.6-1.71,0.9-2.46l3.45-8.489h1.89v0.06L188.777,153.655 M48.35,153.655h-1.83v-19.859h1.38l0.39,2.22
		c1.14-1.53,2.94-2.49,5.19-2.49c3.78,0,6.54,2.88,6.54,6.84c0,4.08-2.76,6.99-6.57,6.99c-2.19,0-4.05-0.99-5.16-2.49
		c0.03,1.02,0.06,2.25,0.06,3.57V153.655 M53.329,135.235c-2.97,0-5.07,2.1-5.07,5.13c0,3.15,2.13,5.28,5.07,5.28
		c2.85,0,4.86-2.16,4.86-5.19C58.189,137.395,56.179,135.235,53.329,135.235 M20.96,147.415c-2.76,0-5.28-0.99-7.02-2.46l1.02-1.56
		c1.53,1.38,3.66,2.19,6,2.19c2.55,0,4.77-1.35,4.77-3.78c0-2.52-2.34-3.51-5.01-4.44c-3-1.05-6.21-2.55-6.21-5.97
		c0-3.21,2.94-5.1,6.24-5.1c2.28,0,4.23,0.6,6.18,2.04l-0.9,1.5c-1.65-1.17-3.27-1.71-5.19-1.71c-2.19,0-4.32,1.05-4.32,3.18
		c0,2.49,2.46,3.39,4.92,4.26c3.36,1.2,6.27,2.7,6.27,6.15C27.71,145.285,24.71,147.415,20.96,147.415 M37.25,147.385
		c-4.02,0-6.84-2.88-6.84-6.99c0-3.84,2.76-6.93,6.69-6.93c3.69,0,5.88,2.55,5.88,6.42c0,0.42-0.03,0.84-0.09,1.29H32.27
		c0.3,2.82,2.46,4.5,4.95,4.5c1.86,0,3.03-0.57,4.05-1.62l1.05,1.32C40.969,146.665,39.35,147.385,37.25,147.385 M37.07,135.175
		c-2.46,0-4.38,1.74-4.74,4.38h8.849C41.119,136.735,39.5,135.175,37.07,135.175 M164.748,147.295c-1.86,0-3.42-0.51-4.83-1.47
		l0.93-1.44c1.17,0.84,2.43,1.2,3.9,1.2c1.62,0,2.67-0.81,2.67-2.01c0-1.29-1.47-1.95-3.06-2.58c-2.16-0.84-3.96-1.86-3.96-3.99
		c0-2.22,2.04-3.36,4.29-3.36c1.44,0,2.82,0.42,4.02,1.2l-0.81,1.32c-0.96-0.54-2.04-0.84-3.12-0.84c-1.35,0-2.55,0.45-2.55,1.68
		c0,1.2,1.23,1.8,2.79,2.4c2.4,0.9,4.23,1.95,4.23,4.17C169.248,145.795,167.358,147.295,164.748,147.295 M94.669,147.295
		c-2.58,0-4.23-1.41-4.23-3.69c0-2.97,2.73-4.68,6.63-4.68c0.99,0,1.74,0.03,2.43,0.12v-0.9c0-1.86-1.32-2.79-3.36-2.79
		c-1.44,0-2.91,0.42-4.38,1.11l-0.63-1.56c1.8-0.84,3.51-1.26,5.19-1.26c3.03,0,5.04,1.59,5.04,4.59v8.82h-1.35l-0.33-2.4
		C98.719,146.245,97.009,147.295,94.669,147.295 M97.339,140.455c-3.12,0-4.98,1.08-4.98,3.03c0,1.32,0.96,2.1,2.61,2.1
		c2.73,0,4.44-1.98,4.53-5.01C98.779,140.485,98.209,140.455,97.339,140.455 M73.459,147.295c-2.58,0-4.23-1.41-4.23-3.69
		c0-2.97,2.73-4.68,6.63-4.68c0.99,0,1.74,0.03,2.43,0.12v-0.9c0-1.86-1.32-2.79-3.36-2.79c-1.44,0-2.91,0.42-4.38,1.11l-0.63-1.56
		c1.8-0.84,3.51-1.26,5.19-1.26c3.03,0,5.04,1.59,5.04,4.59v8.82h-1.35l-0.33-2.4C77.509,146.245,75.799,147.295,73.459,147.295
		 M76.129,140.455c-3.12,0-4.98,1.08-4.98,3.03c0,1.32,0.96,2.1,2.61,2.1c2.73,0,4.44-1.98,4.53-5.01
		C77.569,140.485,76.999,140.455,76.129,140.455 M131.178,147.205h-0.57l-4.11-9.18l-4.17,9.18h-0.54l-4.65-13.35v-0.06h1.86
		l2.76,7.95c0.18,0.57,0.33,1.05,0.51,1.71c0.21-0.63,0.42-1.11,0.66-1.65l3.33-7.29h0.45l3.3,7.26c0.27,0.54,0.48,1.05,0.69,1.68
		c0.18-0.63,0.33-1.17,0.54-1.74l2.73-7.919h1.86v0.06L131.178,147.205 M183.227,147.055h-2.28l-6.27-6.15v6.15h-1.83v-21.509h1.83
		v14.069l5.73-5.82h2.22v0.09l-6.3,6.33l6.9,6.69V147.055 M156.288,147.055h-1.83v-13.259h1.83V147.055 M149.958,147.055h-1.83
		v-8.16c0-2.22-0.9-3.66-3.12-3.66c-2.82,0-4.38,2.4-4.38,5.28v6.54h-1.83v-21.509h1.83v8.58c0,0.66,0,1.29-0.03,2.07
		c0.81-1.56,2.34-2.67,4.59-2.67c3.24,0,4.77,2.04,4.77,5.43V147.055 M107.718,147.055h-1.83l-0.03-21.509h1.83L107.718,147.055
		 M65.599,147.055h-1.83v-13.259h1.83V147.055 M155.388,130.316c-0.84,0-1.38-0.6-1.38-1.32c0-0.78,0.54-1.38,1.38-1.38
		c0.84,0,1.38,0.6,1.38,1.38C156.768,129.746,156.198,130.316,155.388,130.316 M64.7,130.316c-0.84,0-1.38-0.6-1.38-1.32
		c0-0.78,0.54-1.38,1.38-1.38s1.38,0.6,1.38,1.38C66.079,129.746,65.509,130.316,64.7,130.316"/>
	<path fill="#9D9D9C" d="M894.524,128.259l-5.496,3l0.984,1.992l2.136-1.056l0.6-0.312c-0.12,0.432-0.192,0.864-0.288,1.32
		l-1.992,11.041h2.808l2.808-15.985z M898.555,128.379l-0.432,2.424h5.401c0.384,0,0.792,0,1.2-0.024
		c-0.192,0.336-0.408,0.648-0.576,0.984l-6.889,12.481h2.976l8.137-14.833l0.192-1.032z M909.715,141.22
		c-0.816,0-1.584,0.504-1.776,1.464c-0.024,0.12-0.024,0.24-0.024,0.336c0,0.912,0.648,1.512,1.392,1.512h0.12
		c-0.36,1.008-1.032,1.776-2.04,2.544l0.576,0.696c1.68-1.128,2.808-2.64,3.216-4.296c0.072-0.24,0.096-0.48,0.096-0.696
		C911.275,141.748,910.579,141.22,909.715,141.22z M925.435,130.803l0.432-2.424h-7.993l-2.352,8.113l0.408,0.312
		c0.888-0.312,1.8-0.504,2.736-0.504c1.776,0,3.048,0.792,3.048,2.328c0,0.192,0,0.384-0.048,0.6
		c-0.336,1.848-1.872,2.784-3.672,2.784c-1.44,0-2.472-0.528-3.048-1.392l-1.68,1.848c0.984,1.272,2.688,2.088,4.8,2.088
		c3.288,0,5.832-1.896,6.337-4.92c0.072-0.432,0.12-0.816,0.12-1.2c0-2.736-1.944-4.2-4.848-4.2c-0.384,0-0.72,0.024-1.032,0.048
		l1.056-3.48z M931.459,144.532c3.864,0,6.265-3.096,7.129-8.041c0.144-0.864,0.216-1.68,0.216-2.424c0-3.696-1.8-5.977-4.728-5.977
		c-3.96,0-6.241,3.072-7.129,8.017c-0.144,0.888-0.24,1.704-0.24,2.472C926.706,142.276,928.482,144.532,931.459,144.532z
		 M931.651,142.084c-1.464,0-2.184-1.368-2.184-3.504c0-0.672,0.072-1.44,0.216-2.256c0.624-3.552,2.16-5.785,4.2-5.785
		c1.464,0,2.16,1.344,2.16,3.456c0,0.696-0.072,1.464-0.216,2.28C935.203,139.828,933.691,142.084,931.651,142.084z"/>
	<path fill="#9D9D9C" d="M948.968,130.882c0.76,0,1.34,0.12,1.9,0.34l1-1.82c-0.88-0.4-1.7-0.62-2.881-0.62
		c-3.461,0-5.941,1.88-6.982,4.741h-1.5l-0.24,1.4h1.36c-0.06,0.36-0.12,0.74-0.14,1.12h-1.42l-0.26,1.4h1.7
		c0.26,2.861,2.24,5.041,5.501,5.041c1.04,0,1.92-0.18,2.801-0.6l-0.44-1.96c-0.64,0.32-1.26,0.46-2.06,0.46
		c-2.12,0-3.181-1.16-3.461-2.941h2.921l0.78-1.4h-3.741c0.02-0.38,0.06-0.76,0.16-1.12h4.161l0.76-1.4h-4.421
		C945.307,131.922,946.868,130.882,948.968,130.882z"/>
	<path fill="#000000" d="M236.387,195.955l-0.24-1.62c3-0.24,3.63-1.53,3.63-4.38v-14.16h1.83v14.07
		C241.607,193.825,240.467,195.715,236.387,195.955 M290.506,189.385c-3.99,0-6.84-2.88-6.84-6.96c0-4.08,2.85-6.96,6.84-6.96
		c4.05,0,6.9,2.88,6.9,6.96C297.406,186.505,294.556,189.385,290.506,189.385 M290.506,177.175c-2.94,0-4.98,2.19-4.98,5.25
		c0,3.09,2.04,5.25,4.98,5.25c2.97,0,5.04-2.16,5.04-5.25C295.546,179.365,293.506,177.175,290.506,177.175 M206.538,189.385
		c-3.99,0-6.84-2.88-6.84-6.96c0-4.08,2.85-6.96,6.84-6.96c4.05,0,6.9,2.88,6.9,6.96
		C213.438,186.505,210.588,189.385,206.538,189.385 M206.538,177.175c-2.94,0-4.98,2.19-4.98,5.25c0,3.09,2.04,5.25,4.98,5.25
		c2.97,0,5.04-2.16,5.04-5.25C211.578,179.365,209.538,177.175,206.538,177.175 M192.678,189.385c-3.3,0-6.6-2.43-6.6-6.99
		c0-4.38,3.18-6.9,6.78-6.9c1.92,0,3.39,0.6,4.74,1.8l-1.05,1.26c-1.08-0.93-2.13-1.35-3.69-1.35c-2.76,0-4.92,2.07-4.92,5.19
		c0,3.18,2.13,5.28,4.89,5.28c1.8,0,2.88-0.57,3.96-1.59l1.02,1.32C196.428,188.695,194.988,189.385,192.678,189.385
		 M157.939,189.385c-3.99,0-6.84-2.88-6.84-6.96c0-4.08,2.85-6.96,6.84-6.96c4.05,0,6.9,2.88,6.9,6.96
		C164.838,186.505,161.988,189.385,157.939,189.385 M157.939,177.175c-2.94,0-4.98,2.19-4.98,5.25c0,3.09,2.04,5.25,4.98,5.25
		c2.97,0,5.04-2.16,5.04-5.25C162.978,179.365,160.939,177.175,157.939,177.175 M131.569,189.385c-3.99,0-6.84-2.88-6.84-6.96
		c0-4.08,2.85-6.96,6.84-6.96c4.05,0,6.9,2.88,6.9,6.96C138.468,186.505,135.619,189.385,131.569,189.385 M131.569,177.175
		c-2.94,0-4.98,2.19-4.98,5.25c0,3.09,2.04,5.25,4.98,5.25c2.97,0,5.04-2.16,5.04-5.25
		C136.609,179.365,134.569,177.175,131.569,177.175 M86.779,189.385c-3.99,0-6.84-2.88-6.84-6.96c0-4.08,2.85-6.96,6.84-6.96
		c4.05,0,6.9,2.88,6.9,6.96C93.679,186.505,90.829,189.385,86.779,189.385 M86.779,177.175c-2.94,0-4.98,2.19-4.98,5.25
		c0,3.09,2.04,5.25,4.98,5.25c2.97,0,5.04-2.16,5.04-5.25C91.819,179.365,89.779,177.175,86.779,177.175 M58.339,189.385
		c-4.02,0-6.84-2.88-6.84-6.99c0-3.84,2.76-6.93,6.69-6.93c3.69,0,5.88,2.55,5.88,6.42c0,0.42-0.03,0.84-0.09,1.29H53.36
		c0.3,2.82,2.46,4.5,4.95,4.5c1.86,0,3.03-0.57,4.05-1.62l1.05,1.32C62.059,188.665,60.439,189.385,58.339,189.385 M58.159,177.175
		c-2.46,0-4.38,1.74-4.74,4.38h8.85C62.209,178.735,60.589,177.175,58.159,177.175 M249.437,189.295c-2.58,0-4.23-1.41-4.23-3.69
		c0-2.97,2.73-4.68,6.63-4.68c0.99,0,1.74,0.03,2.43,0.12v-0.9c0-1.86-1.32-2.79-3.36-2.79c-1.44,0-2.91,0.42-4.38,1.11l-0.63-1.56
		c1.8-0.84,3.51-1.26,5.19-1.26c3.03,0,5.04,1.59,5.04,4.59v8.82h-1.35l-0.33-2.4C253.487,188.245,251.777,189.295,249.437,189.295
		 M252.107,182.455c-3.12,0-4.98,1.08-4.98,3.03c0,1.32,0.96,2.1,2.61,2.1c2.73,0,4.44-1.98,4.53-5.01
		C253.547,182.485,252.977,182.455,252.107,182.455 M172.099,189.295c-1.86,0-3.42-0.51-4.83-1.47l0.93-1.44
		c1.17,0.84,2.43,1.2,3.9,1.2c1.62,0,2.67-0.81,2.67-2.01c0-1.29-1.47-1.95-3.06-2.58c-2.16-0.84-3.96-1.86-3.96-3.99
		c0-2.22,2.04-3.36,4.29-3.36c1.44,0,2.82,0.42,4.02,1.2l-0.81,1.32c-0.96-0.54-2.04-0.84-3.12-0.84c-1.35,0-2.55,0.45-2.55,1.68
		c0,1.2,1.23,1.8,2.79,2.4c2.4,0.9,4.23,1.95,4.23,4.17C176.598,187.795,174.708,189.295,172.099,189.295 M145.998,189.295
		c-2.16,0-3.51-1.26-3.51-3.99v-7.89l-2.58-0.12v-1.5h2.58v-4.41h1.83v4.41h4.74v1.62h-4.74v7.89c0,1.68,0.69,2.25,1.86,2.25
		c0.93,0,1.77-0.3,2.61-0.9l0.81,1.38C148.608,188.785,147.379,189.295,145.998,189.295 M100.939,189.295
		c-1.86,0-3.42-0.51-4.83-1.47l0.93-1.44c1.17,0.84,2.43,1.2,3.9,1.2c1.62,0,2.67-0.81,2.67-2.01c0-1.29-1.47-1.95-3.06-2.58
		c-2.16-0.84-3.96-1.86-3.96-3.99c0-2.22,2.04-3.36,4.29-3.36c1.44,0,2.82,0.42,4.02,1.2l-0.81,1.32c-0.96-0.54-2.04-0.84-3.12-0.84
		c-1.35,0-2.55,0.45-2.55,1.68c0,1.2,1.23,1.8,2.79,2.4c2.4,0.9,4.23,1.95,4.23,4.17
		C105.439,187.795,103.549,189.295,100.939,189.295 M41.539,189.295c-3.3,0-4.83-2.19-4.83-5.43v-8.07h1.83v8.1
		c0,2.16,0.84,3.69,3.21,3.69c2.64,0,4.2-2.37,4.2-5.19v-6.6h1.83v13.26h-1.41l-0.36-2.31
		C45.229,188.155,43.729,189.295,41.539,189.295 M72.469,189.205h-0.66l-6.21-13.349v-0.06h1.98l3.84,8.49
		c0.27,0.6,0.51,1.2,0.72,1.89c0.21-0.69,0.45-1.29,0.72-1.89l3.81-8.49h1.98v0.06L72.469,189.205 M312.285,189.055h-1.83v-8.13
		c0-2.25-0.84-3.69-3.06-3.69c-2.67,0-4.44,1.92-4.44,4.68v7.14h-1.83v-13.26h1.38l0.42,2.25c0.78-1.41,2.4-2.52,4.65-2.52
		c3.09,0,4.71,1.98,4.71,5.43V189.055 M280.126,189.055h-1.83v-8.4c0-2.13-1.08-3.42-2.94-3.42c-2.67,0-4.05,2.43-4.05,4.92v6.9
		h-1.83v-8.43c0-1.83-0.93-3.39-2.94-3.39c-2.7,0-4.08,2.43-4.08,4.92v6.9h-1.83v-13.26h1.38l0.42,2.28
		c0.87-1.62,2.4-2.55,4.32-2.55c2.01,0,3.48,0.99,4.11,2.67c0.87-1.62,2.4-2.67,4.62-2.67c3.03,0,4.65,2.01,4.65,5.22V189.055
		 M228.317,189.055h-1.83v-8.13c0-2.25-0.84-3.69-3.06-3.69c-2.67,0-4.44,1.92-4.44,4.68v7.14h-1.83v-13.26h1.38l0.42,2.25
		c0.78-1.41,2.4-2.52,4.65-2.52c3.09,0,4.71,1.98,4.71,5.43V189.055 M117.709,189.055h-1.83v-13.26h1.38l0.36,1.95
		c0.75-1.38,2.01-2.22,3.87-2.22c0.84,0,1.56,0.18,2.16,0.45l-0.54,1.62c-0.51-0.18-1.02-0.33-1.77-0.33
		c-2.16,0-3.63,1.53-3.63,4.11V189.055 M31.549,189.055h-1.95v-9.39H17.21v9.39h-1.98v-20.399h1.98v9.21h12.389v-9.21h1.95V189.055
		 M288.916,172.946l-0.93-1.08l3.96-3.39l1.2,1.41L288.916,172.946 M240.677,172.316c-0.81,0-1.35-0.6-1.35-1.32
		c0-0.78,0.54-1.38,1.35-1.38c0.87,0,1.38,0.6,1.38,1.41C242.057,171.746,241.487,172.316,240.677,172.316"/>
	<path fill="#9D9D9C" d="M895.459,170.259l-5.496,3l0.984,1.992l2.136-1.056l0.6-0.312c-0.12,0.432-0.192,0.864-0.288,1.32
		l-1.992,11.041h2.808l2.808-15.985z M904.339,170.259l-5.496,3l0.984,1.992l2.136-1.056l0.6-0.312
		c-0.12,0.432-0.192,0.864-0.288,1.32l-1.992,11.041h2.808l2.808-15.985z M908.635,183.22c-0.816,0-1.584,0.504-1.776,1.464
		c-0.024,0.12-0.024,0.24-0.024,0.336c0,0.912,0.648,1.512,1.392,1.512h0.12c-0.36,1.008-1.032,1.776-2.04,2.544l0.576,0.696
		c1.68-1.128,2.808-2.64,3.216-4.296c0.072-0.24,0.096-0.48,0.096-0.696C910.195,183.748,909.499,183.22,908.635,183.22z
		 M920.179,170.067c-3.024,0-5.28,1.92-5.809,4.872c-0.072,0.384-0.096,0.744-0.096,1.08c0,2.592,1.824,4.272,4.128,4.272
		c1.248,0,2.184-0.288,3.192-1.032c-1.176,2.952-3.648,4.776-7.345,4.896l0.168,2.304c6.049-0.096,9.337-3.96,10.369-9.145
		l0.072-0.336c0.12-0.6,0.168-1.176,0.168-1.728C925.027,172.179,923.347,170.067,920.179,170.067z M919.219,177.987
		c-1.44,0-2.232-1.032-2.232-2.328c0-0.192,0.024-0.384,0.048-0.576c0.312-1.656,1.44-2.568,3.024-2.592
		c1.344,0,2.328,0.936,2.328,2.28c0,0.168-0.024,0.336-0.048,0.528C922.075,176.835,920.995,177.987,919.219,177.987z
		 M931.459,186.532c3.864,0,6.265-3.096,7.129-8.041c0.144-0.864,0.216-1.68,0.216-2.424c0-3.696-1.8-5.977-4.728-5.977
		c-3.96,0-6.241,3.072-7.129,8.017c-0.144,0.888-0.24,1.704-0.24,2.472C926.706,184.276,928.482,186.532,931.459,186.532z
		 M931.651,184.084c-1.464,0-2.184-1.368-2.184-3.504c0-0.672,0.072-1.44,0.216-2.256c0.624-3.552,2.16-5.785,4.2-5.785
		c1.464,0,2.16,1.344,2.16,3.456c0,0.696-0.072,1.464-0.216,2.28C935.203,181.828,933.691,184.084,931.651,184.084z"/>
	<path fill="#9D9D9C" d="M948.968,172.882c0.76,0,1.34,0.12,1.9,0.34l1-1.82c-0.88-0.4-1.7-0.62-2.881-0.62
		c-3.461,0-5.941,1.88-6.982,4.741h-1.5l-0.24,1.4h1.36c-0.06,0.36-0.12,0.74-0.14,1.12h-1.42l-0.26,1.4h1.7
		c0.26,2.861,2.24,5.041,5.501,5.041c1.04,0,1.92-0.18,2.801-0.6l-0.44-1.96c-0.64,0.32-1.26,0.46-2.06,0.46
		c-2.12,0-3.181-1.16-3.461-2.941h2.921l0.78-1.4h-3.741c0.02-0.38,0.06-0.76,0.16-1.12h4.161l0.76-1.4h-4.421
		C945.307,173.922,946.868,172.882,948.968,172.882z"/>
	<path fill="#000000" d="M24.29,231.415c-6.15,0-10.349-4.77-10.349-10.59c0-6.03,4.29-10.529,10.349-10.529
		c3.21,0,5.52,1.14,7.68,3.33l-1.17,1.2c-1.62-1.68-3.6-2.7-6.51-2.7c-4.92,0-8.37,3.75-8.37,8.699c0,4.83,3.42,8.76,8.37,8.76
		c2.88,0,5.16-1.38,6.66-3.39l1.41,1.11C30.679,229.735,27.889,231.415,24.29,231.415 M102.348,231.385c-3.99,0-6.84-2.88-6.84-6.96
		c0-4.08,2.85-6.96,6.84-6.96c4.05,0,6.9,2.88,6.9,6.96C109.248,228.505,106.398,231.385,102.348,231.385 M102.348,219.175
		c-2.94,0-4.98,2.19-4.98,5.25c0,3.09,2.04,5.25,4.98,5.25c2.97,0,5.04-2.16,5.04-5.25
		C107.388,221.365,105.348,219.175,102.348,219.175 M57.079,231.385c-3.99,0-6.84-2.88-6.84-6.96c0-4.08,2.85-6.96,6.84-6.96
		c4.05,0,6.9,2.88,6.9,6.96C63.979,228.505,61.129,231.385,57.079,231.385 M57.079,219.175c-2.94,0-4.98,2.19-4.98,5.25
		c0,3.09,2.04,5.25,4.98,5.25c2.97,0,5.04-2.16,5.04-5.25C62.119,221.365,60.079,219.175,57.079,219.175 M192.856,231.355
		c-3.93,0-6.66-2.94-6.66-6.99c0-3.93,2.76-6.84,6.66-6.84c2.16,0,4.05,0.96,5.13,2.52c-0.03-1.14-0.06-2.34-0.06-3.6v-6.9h1.83
		v21.509h-1.41l-0.27-2.37C196.996,230.335,195.166,231.355,192.856,231.355 M192.976,219.235c-2.94,0-4.95,2.16-4.95,5.19
		s2.01,5.19,4.95,5.19c3.06,0,5.01-2.19,5.01-5.19C197.986,221.425,195.976,219.235,192.976,219.235 M217.666,231.295
		c-2.58,0-4.23-1.41-4.23-3.69c0-2.97,2.73-4.68,6.63-4.68c0.99,0,1.74,0.03,2.43,0.12v-0.9c0-1.86-1.32-2.79-3.36-2.79
		c-1.44,0-2.91,0.42-4.38,1.11l-0.63-1.56c1.8-0.84,3.51-1.26,5.19-1.26c3.03,0,5.04,1.59,5.04,4.59v8.82h-1.35l-0.33-2.4
		C221.716,230.245,220.006,231.295,217.666,231.295 M220.336,224.455c-3.12,0-4.98,1.08-4.98,3.03c0,1.32,0.96,2.1,2.61,2.1
		c2.73,0,4.44-1.98,4.53-5.01C221.776,224.485,221.206,224.455,220.336,224.455 M172.547,231.295c-1.86,0-3.42-0.51-4.83-1.47
		l0.93-1.44c1.17,0.84,2.43,1.2,3.9,1.2c1.62,0,2.67-0.81,2.67-2.01c0-1.29-1.47-1.95-3.06-2.58c-2.16-0.84-3.96-1.86-3.96-3.99
		c0-2.22,2.04-3.36,4.29-3.36c1.44,0,2.82,0.42,4.02,1.2l-0.81,1.32c-0.96-0.54-2.04-0.84-3.12-0.84c-1.35,0-2.55,0.45-2.55,1.68
		c0,1.2,1.23,1.8,2.79,2.4c2.4,0.9,4.23,1.95,4.23,4.17C177.046,229.795,175.157,231.295,172.547,231.295 M150.737,231.295
		c-2.58,0-4.23-1.41-4.23-3.69c0-2.97,2.73-4.68,6.63-4.68c0.99,0,1.74,0.03,2.43,0.12v-0.9c0-1.86-1.32-2.79-3.36-2.79
		c-1.44,0-2.91,0.42-4.38,1.11l-0.63-1.56c1.8-0.84,3.51-1.26,5.19-1.26c3.03,0,5.04,1.59,5.04,4.59v8.82h-1.35l-0.33-2.4
		C154.787,230.245,153.077,231.295,150.737,231.295 M153.407,224.455c-3.12,0-4.98,1.08-4.98,3.03c0,1.32,0.96,2.1,2.61,2.1
		c2.73,0,4.44-1.98,4.53-5.01C154.847,224.485,154.277,224.455,153.407,224.455 M122.988,231.295c-2.58,0-4.23-1.41-4.23-3.69
		c0-2.97,2.73-4.68,6.63-4.68c0.99,0,1.74,0.03,2.43,0.12v-0.9c0-1.86-1.32-2.79-3.36-2.79c-1.44,0-2.91,0.42-4.38,1.11l-0.63-1.56
		c1.8-0.84,3.51-1.26,5.19-1.26c3.03,0,5.04,1.59,5.04,4.59v8.82h-1.35l-0.33-2.4C127.038,230.245,125.328,231.295,122.988,231.295
		 M125.658,224.455c-3.12,0-4.98,1.08-4.98,3.03c0,1.32,0.96,2.1,2.61,2.1c2.73,0,4.44-1.98,4.53-5.01
		C127.098,224.485,126.528,224.455,125.658,224.455 M206.266,231.055h-1.83v-13.259h1.38l0.36,1.95c0.75-1.38,2.01-2.22,3.87-2.22
		c0.84,0,1.56,0.18,2.16,0.45l-0.54,1.62c-0.51-0.18-1.02-0.33-1.77-0.33c-2.16,0-3.63,1.53-3.63,4.11V231.055 M182.476,231.055
		h-1.83v-13.259h1.83V231.055 M142.878,231.055h-1.83l-0.03-21.509h1.83L142.878,231.055 M93.588,231.055h-9.93v-0.57l6.24-9.689
		l0.87-1.35c-0.75,0.03-1.05,0.03-1.62,0.03h-5.16v-1.68h9.51v0.54l-5.88,9.09c-0.39,0.66-0.81,1.26-1.29,1.95h2.19h5.07V231.055
		 M80.029,231.055h-1.83v-13.259h1.83V231.055 M69.529,231.055h-1.83v-13.259h1.38l0.36,1.95c0.75-1.38,2.01-2.22,3.87-2.22
		c0.84,0,1.56,0.18,2.16,0.45l-0.54,1.62c-0.51-0.18-1.02-0.33-1.77-0.33c-2.16,0-3.63,1.53-3.63,4.11V231.055 M46.699,231.055
		h-1.83v-8.16c0-2.22-0.9-3.66-3.12-3.66c-2.82,0-4.38,2.4-4.38,5.28v6.54h-1.83v-21.509h1.83v8.58c0,0.66,0,1.29-0.03,2.07
		c0.81-1.56,2.34-2.67,4.59-2.67c3.24,0,4.77,2.04,4.77,5.43V231.055 M181.577,214.316c-0.84,0-1.38-0.6-1.38-1.32
		c0-0.78,0.54-1.38,1.38-1.38c0.84,0,1.38,0.6,1.38,1.38C182.957,213.746,182.387,214.316,181.577,214.316 M79.129,214.316
		c-0.84,0-1.38-0.6-1.38-1.32c0-0.78,0.54-1.38,1.38-1.38c0.84,0,1.38,0.6,1.38,1.38C80.509,213.746,79.939,214.316,79.129,214.316"
		/>
	<path fill="#9D9D9C" d="M890.347,212.259l-5.496,3l0.984,1.992l2.136-1.056l0.6-0.312c-0.12,0.432-0.192,0.864-0.288,1.32
		l-1.992,11.041h2.808l2.808-15.985z M898.171,228.532c3.864,0,6.265-3.096,7.129-8.041c0.144-0.864,0.216-1.68,0.216-2.424
		c0-3.696-1.8-5.977-4.728-5.977c-3.96,0-6.241,3.072-7.129,8.017c-0.144,0.888-0.24,1.704-0.24,2.472
		C893.419,226.276,895.195,228.532,898.171,228.532z M898.363,226.084c-1.464,0-2.184-1.368-2.184-3.504
		c0-0.672,0.072-1.44,0.216-2.256c0.624-3.552,2.16-5.785,4.2-5.785c1.464,0,2.16,1.344,2.16,3.456c0,0.696-0.072,1.464-0.216,2.28
		C901.915,223.828,900.403,226.084,898.363,226.084z M908.635,225.22c-0.816,0-1.584,0.504-1.776,1.464
		c-0.024,0.12-0.024,0.24-0.024,0.336c0,0.912,0.648,1.512,1.392,1.512h0.12c-0.36,1.008-1.032,1.776-2.04,2.544l0.576,0.696
		c1.68-1.128,2.808-2.64,3.216-4.296c0.072-0.24,0.096-0.48,0.096-0.696C910.195,225.748,909.499,225.22,908.635,225.22z
		 M920.179,212.067c-3.024,0-5.28,1.92-5.809,4.872c-0.072,0.384-0.096,0.744-0.096,1.08c0,2.592,1.824,4.272,4.128,4.272
		c1.248,0,2.184-0.288,3.192-1.032c-1.176,2.952-3.648,4.776-7.345,4.896l0.168,2.304c6.049-0.096,9.337-3.96,10.369-9.145
		l0.072-0.336c0.12-0.6,0.168-1.176,0.168-1.728C925.027,214.179,923.347,212.067,920.179,212.067z M919.219,219.987
		c-1.44,0-2.232-1.032-2.232-2.328c0-0.192,0.024-0.384,0.048-0.576c0.312-1.656,1.44-2.568,3.024-2.592
		c1.344,0,2.328,0.936,2.328,2.28c0,0.168-0.024,0.336-0.048,0.528C922.075,218.835,920.995,219.987,919.219,219.987z
		 M931.459,228.532c3.864,0,6.265-3.096,7.129-8.041c0.144-0.864,0.216-1.68,0.216-2.424c0-3.696-1.8-5.977-4.728-5.977
		c-3.96,0-6.241,3.072-7.129,8.017c-0.144,0.888-0.24,1.704-0.24,2.472C926.706,226.276,928.482,228.532,931.459,228.532z
		 M931.651,226.084c-1.464,0-2.184-1.368-2.184-3.504c0-0.672,0.072-1.44,0.216-2.256c0.624-3.552,2.16-5.785,4.2-5.785
		c1.464,0,2.16,1.344,2.16,3.456c0,0.696-0.072,1.464-0.216,2.28C935.203,223.828,933.691,226.084,931.651,226.084z"/>
	<path fill="#9D9D9C" d="M948.968,214.882c0.76,0,1.34,0.12,1.9,0.34l1-1.82c-0.88-0.4-1.7-0.62-2.881-0.62
		c-3.461,0-5.941,1.88-6.982,4.741h-1.5l-0.24,1.4h1.36c-0.06,0.36-0.12,0.74-0.14,1.12h-1.42l-0.26,1.4h1.7
		c0.26,2.861,2.24,5.041,5.501,5.041c1.04,0,1.92-0.18,2.801-0.6l-0.44-1.96c-0.64,0.32-1.26,0.46-2.06,0.46
		c-2.12,0-3.181-1.16-3.461-2.941h2.921l0.78-1.4h-3.741c0.02-0.38,0.06-0.76,0.16-1.12h4.161l0.76-1.4h-4.421
		C945.307,215.922,946.868,214.882,948.968,214.882z"/>
	<path fill="#000000" d="M48.11,279.655h-1.83v-19.859h1.38l0.39,2.22c1.14-1.53,2.94-2.49,5.19-2.49c3.78,0,6.54,2.88,6.54,6.84
		c0,4.08-2.76,6.99-6.57,6.99c-2.19,0-4.05-0.99-5.16-2.49c0.03,1.02,0.06,2.25,0.06,3.57V279.655 M53.089,261.236
		c-2.97,0-5.07,2.1-5.07,5.13c0,3.15,2.13,5.28,5.07,5.28c2.85,0,4.86-2.16,4.86-5.19C57.949,263.395,55.939,261.236,53.089,261.236
		 M103.219,273.355c-2.25,0-4.11-0.99-5.22-2.61l-0.27,2.31h-1.41v-21.509h1.83v6.9c0,1.26-0.03,2.49-0.06,3.66
		c1.08-1.62,2.97-2.58,5.13-2.58c3.9,0,6.66,2.91,6.66,6.84C109.879,270.415,107.149,273.355,103.219,273.355 M103.099,261.236
		c-3,0-5.04,2.19-5.04,5.19c0,3,1.98,5.19,5.04,5.19c2.94,0,4.95-2.16,4.95-5.19C108.049,263.395,106.039,261.236,103.099,261.236
		 M169.128,273.295c-1.86,0-3.42-0.51-4.83-1.47l0.93-1.44c1.17,0.84,2.43,1.2,3.9,1.2c1.62,0,2.67-0.81,2.67-2.01
		c0-1.29-1.47-1.95-3.06-2.58c-2.16-0.84-3.96-1.86-3.96-3.99c0-2.22,2.04-3.36,4.29-3.36c1.44,0,2.82,0.42,4.02,1.2l-0.81,1.32
		c-0.96-0.54-2.04-0.84-3.12-0.84c-1.35,0-2.55,0.45-2.55,1.68c0,1.2,1.23,1.8,2.79,2.4c2.4,0.9,4.23,1.95,4.23,4.17
		C173.628,271.795,171.738,273.295,169.128,273.295 M154.159,273.295c-2.58,0-4.23-1.41-4.23-3.69c0-2.97,2.73-4.68,6.63-4.68
		c0.99,0,1.74,0.03,2.43,0.12v-0.9c0-1.86-1.32-2.79-3.36-2.79c-1.44,0-2.91,0.42-4.38,1.11l-0.63-1.56
		c1.8-0.84,3.51-1.26,5.19-1.26c3.03,0,5.04,1.59,5.04,4.59v8.82h-1.35l-0.33-2.4C158.208,272.245,156.498,273.295,154.159,273.295
		 M156.828,266.455c-3.12,0-4.98,1.08-4.98,3.03c0,1.32,0.96,2.1,2.61,2.1c2.73,0,4.44-1.98,4.53-5.01
		C158.268,266.485,157.698,266.455,156.828,266.455 M126.829,273.295c-2.58,0-4.23-1.41-4.23-3.69c0-2.97,2.73-4.68,6.63-4.68
		c0.99,0,1.74,0.03,2.43,0.12v-0.9c0-1.86-1.32-2.79-3.36-2.79c-1.44,0-2.91,0.42-4.38,1.11l-0.63-1.56
		c1.8-0.84,3.51-1.26,5.19-1.26c3.03,0,5.04,1.59,5.04,4.59v8.82h-1.35l-0.33-2.4C130.878,272.245,129.169,273.295,126.829,273.295
		 M129.498,266.455c-3.12,0-4.98,1.08-4.98,3.03c0,1.32,0.96,2.1,2.61,2.1c2.73,0,4.44-1.98,4.53-5.01
		C130.938,266.485,130.368,266.455,129.498,266.455 M81.379,273.295c-1.86,0-3.42-0.51-4.83-1.47l0.93-1.44
		c1.17,0.84,2.43,1.2,3.9,1.2c1.62,0,2.67-0.81,2.67-2.01c0-1.29-1.47-1.95-3.06-2.58c-2.16-0.84-3.96-1.86-3.96-3.99
		c0-2.22,2.04-3.36,4.29-3.36c1.44,0,2.82,0.42,4.02,1.2l-0.81,1.32c-0.96-0.54-2.04-0.84-3.12-0.84c-1.35,0-2.55,0.45-2.55,1.68
		c0,1.2,1.23,1.8,2.79,2.4c2.4,0.9,4.23,1.95,4.23,4.17C85.879,271.795,83.989,273.295,81.379,273.295 M66.41,273.295
		c-2.58,0-4.23-1.41-4.23-3.69c0-2.97,2.73-4.68,6.63-4.68c0.99,0,1.74,0.03,2.43,0.12v-0.9c0-1.86-1.32-2.79-3.36-2.79
		c-1.44,0-2.91,0.42-4.38,1.11l-0.63-1.56c1.8-0.84,3.51-1.26,5.19-1.26c3.03,0,5.04,1.59,5.04,4.59v8.82h-1.35l-0.33-2.4
		C70.459,272.245,68.75,273.295,66.41,273.295 M69.08,266.455c-3.12,0-4.98,1.08-4.98,3.03c0,1.32,0.96,2.1,2.61,2.1
		c2.73,0,4.44-1.98,4.53-5.01C70.519,266.485,69.95,266.455,69.08,266.455 M35.09,273.295c-2.58,0-4.23-1.41-4.23-3.69
		c0-2.97,2.73-4.68,6.63-4.68c0.99,0,1.74,0.03,2.43,0.12v-0.9c0-1.86-1.32-2.79-3.36-2.79c-1.44,0-2.91,0.42-4.38,1.11l-0.63-1.56
		c1.8-0.84,3.51-1.26,5.19-1.26c3.03,0,5.04,1.59,5.04,4.59v8.82h-1.35l-0.33-2.4C39.14,272.245,37.43,273.295,35.09,273.295
		 M37.76,266.455c-3.12,0-4.98,1.08-4.98,3.03c0,1.32,0.96,2.1,2.61,2.1c2.73,0,4.44-1.98,4.53-5.01
		C39.2,266.485,38.63,266.455,37.76,266.455 M142.398,273.205h-0.66l-6.21-13.349v-0.06h1.98l3.84,8.49c0.27,0.6,0.51,1.2,0.72,1.89
		c0.21-0.69,0.45-1.29,0.72-1.89l3.81-8.49h1.98v0.06L142.398,273.205 M115.429,273.055h-1.83v-13.259h1.38l0.36,1.95
		c0.75-1.38,2.01-2.22,3.87-2.22c0.84,0,1.56,0.18,2.16,0.45l-0.54,1.62c-0.51-0.18-1.02-0.33-1.77-0.33
		c-2.16,0-3.63,1.53-3.63,4.11V273.055 M17.21,273.055h-1.98v-20.399h7.53c4.26,0,6.42,3.33,6.42,6.21c0,2.85-2.04,6-6.54,6h-5.43
		V273.055 M17.21,254.456v8.61h5.4c3.12,0,4.59-2.1,4.59-4.23c0-2.34-1.77-4.38-4.47-4.38H17.21"/>
	<path fill="#9D9D9C" d="M902.131,260.355c-1.224,0-2.232,0.36-3.264,1.176c1.2-3.072,3.696-5.064,7.393-4.992l-0.168-2.448
		c-6.145,0.168-9.337,4.032-10.345,9.169l-0.072,0.336c-0.12,0.624-0.168,1.2-0.168,1.776c0,3.048,1.608,5.16,4.848,5.16
		c3,0,5.28-1.968,5.833-5.016c0.072-0.36,0.096-0.696,0.096-1.008C906.284,261.987,904.531,260.355,902.131,260.355z
		 M903.523,265.444c-0.288,1.656-1.488,2.64-3.048,2.64c-1.392,0-2.328-0.888-2.328-2.28c0-0.168,0.024-0.36,0.048-0.552
		c0.264-1.488,1.344-2.568,3.096-2.616c1.512,0,2.28,0.936,2.28,2.232C903.571,265.06,903.547,265.252,903.523,265.444z
		 M909.763,267.22c-0.816,0-1.584,0.504-1.776,1.464c-0.024,0.12-0.024,0.24-0.024,0.336c0,0.912,0.648,1.512,1.392,1.512h0.12
		c-0.36,1.008-1.032,1.776-2.04,2.544l0.576,0.696c1.68-1.128,2.808-2.64,3.216-4.296c0.072-0.24,0.096-0.48,0.096-0.696
		C911.323,267.748,910.627,267.22,909.763,267.22z M919.075,266.86l4.224-4.416c1.128-1.152,1.848-2.328,2.04-3.528
		c0.048-0.312,0.096-0.624,0.096-0.912c0-2.28-1.68-3.912-4.2-3.912c-2.136,0-3.816,0.984-5.328,2.76l1.776,1.68
		c0.984-1.104,2.04-1.896,3.264-1.896c1.104,0,1.704,0.696,1.704,1.608c0,0.864-0.504,1.848-1.464,2.856l-7.609,8.065l-0.192,1.08
		h10.201l0.408-2.424l-4.512,0.024c-0.48,0-0.984,0.024-1.464,0.048C918.379,267.58,918.715,267.22,919.075,266.86z
		 M931.459,270.532c3.864,0,6.265-3.096,7.129-8.041c0.144-0.864,0.216-1.68,0.216-2.424c0-3.696-1.8-5.977-4.728-5.977
		c-3.96,0-6.241,3.072-7.129,8.017c-0.144,0.888-0.24,1.704-0.24,2.472C926.706,268.276,928.482,270.532,931.459,270.532z
		 M931.651,268.084c-1.464,0-2.184-1.368-2.184-3.504c0-0.672,0.072-1.44,0.216-2.256c0.624-3.552,2.16-5.785,4.2-5.785
		c1.464,0,2.16,1.344,2.16,3.456c0,0.696-0.072,1.464-0.216,2.28C935.203,265.828,933.691,268.084,931.651,268.084z"/>
	<path fill="#9D9D9C" d="M948.968,256.882c0.76,0,1.34,0.12,1.9,0.34l1-1.82c-0.88-0.4-1.7-0.62-2.881-0.62
		c-3.461,0-5.941,1.88-6.982,4.741h-1.5l-0.24,1.4h1.36c-0.06,0.36-0.12,0.74-0.14,1.12h-1.42l-0.26,1.4h1.7
		c0.26,2.861,2.24,5.041,5.501,5.041c1.04,0,1.92-0.18,2.801-0.6l-0.44-1.96c-0.64,0.32-1.26,0.46-2.06,0.46
		c-2.12,0-3.181-1.16-3.461-2.941h2.921l0.78-1.4h-3.741c0.02-0.38,0.06-0.76,0.16-1.12h4.161l0.76-1.4h-4.421
		C945.307,257.922,946.868,256.882,948.968,256.882z"/>
	<path fill="#000000" d="M277.816,315.385c-4.02,0-6.84-2.88-6.84-6.99c0-3.84,2.76-6.93,6.69-6.93c3.69,0,5.88,2.55,5.88,6.42
		c0,0.42-0.03,0.84-0.09,1.29h-10.62c0.3,2.82,2.46,4.5,4.95,4.5c1.86,0,3.03-0.57,4.05-1.62l1.05,1.32
		C281.536,314.665,279.916,315.385,277.816,315.385 M277.636,303.175c-2.46,0-4.38,1.74-4.74,4.38h8.85
		C281.686,304.735,280.066,303.175,277.636,303.175 M254.807,315.385c-3.99,0-6.84-2.88-6.84-6.96c0-4.08,2.85-6.96,6.84-6.96
		c4.05,0,6.9,2.88,6.9,6.96C261.707,312.505,258.857,315.385,254.807,315.385 M254.807,303.175c-2.94,0-4.98,2.19-4.98,5.25
		c0,3.09,2.04,5.25,4.98,5.25c2.97,0,5.04-2.16,5.04-5.25C259.847,305.365,257.807,303.175,254.807,303.175 M206.538,315.385
		c-3.99,0-6.84-2.88-6.84-6.96c0-4.08,2.85-6.96,6.84-6.96c4.05,0,6.9,2.88,6.9,6.96
		C213.438,312.505,210.588,315.385,206.538,315.385 M206.538,303.175c-2.94,0-4.98,2.19-4.98,5.25c0,3.09,2.04,5.25,4.98,5.25
		c2.97,0,5.04-2.16,5.04-5.25C211.578,305.365,209.538,303.175,206.538,303.175 M192.678,315.385c-3.3,0-6.6-2.43-6.6-6.99
		c0-4.38,3.18-6.9,6.78-6.9c1.92,0,3.39,0.6,4.74,1.8l-1.05,1.26c-1.08-0.93-2.13-1.35-3.69-1.35c-2.76,0-4.92,2.07-4.92,5.19
		c0,3.18,2.13,5.28,4.89,5.28c1.8,0,2.88-0.57,3.96-1.59l1.02,1.32C196.428,314.695,194.988,315.385,192.678,315.385
		 M157.939,315.385c-3.99,0-6.84-2.88-6.84-6.96c0-4.08,2.85-6.96,6.84-6.96c4.05,0,6.9,2.88,6.9,6.96
		C164.838,312.505,161.988,315.385,157.939,315.385 M157.939,303.175c-2.94,0-4.98,2.19-4.98,5.25c0,3.09,2.04,5.25,4.98,5.25
		c2.97,0,5.04-2.16,5.04-5.25C162.978,305.365,160.939,303.175,157.939,303.175 M131.569,315.385c-3.99,0-6.84-2.88-6.84-6.96
		c0-4.08,2.85-6.96,6.84-6.96c4.05,0,6.9,2.88,6.9,6.96C138.468,312.505,135.619,315.385,131.569,315.385 M131.569,303.175
		c-2.94,0-4.98,2.19-4.98,5.25c0,3.09,2.04,5.25,4.98,5.25c2.97,0,5.04-2.16,5.04-5.25
		C136.609,305.365,134.569,303.175,131.569,303.175 M86.779,315.385c-3.99,0-6.84-2.88-6.84-6.96c0-4.08,2.85-6.96,6.84-6.96
		c4.05,0,6.9,2.88,6.9,6.96C93.679,312.505,90.829,315.385,86.779,315.385 M86.779,303.175c-2.94,0-4.98,2.19-4.98,5.25
		c0,3.09,2.04,5.25,4.98,5.25c2.97,0,5.04-2.16,5.04-5.25C91.819,305.365,89.779,303.175,86.779,303.175 M58.339,315.385
		c-4.02,0-6.84-2.88-6.84-6.99c0-3.84,2.76-6.93,6.69-6.93c3.69,0,5.88,2.55,5.88,6.42c0,0.42-0.03,0.84-0.09,1.29H53.36
		c0.3,2.82,2.46,4.5,4.95,4.5c1.86,0,3.03-0.57,4.05-1.62l1.05,1.32C62.059,314.665,60.439,315.385,58.339,315.385 M58.159,303.175
		c-2.46,0-4.38,1.74-4.74,4.38h8.85C62.209,304.735,60.589,303.175,58.159,303.175 M172.099,315.295c-1.86,0-3.42-0.51-4.83-1.47
		l0.93-1.44c1.17,0.84,2.43,1.2,3.9,1.2c1.62,0,2.67-0.81,2.67-2.01c0-1.29-1.47-1.95-3.06-2.58c-2.16-0.84-3.96-1.86-3.96-3.99
		c0-2.22,2.04-3.36,4.29-3.36c1.44,0,2.82,0.42,4.02,1.2l-0.81,1.32c-0.96-0.54-2.04-0.84-3.12-0.84c-1.35,0-2.55,0.45-2.55,1.68
		c0,1.2,1.23,1.8,2.79,2.4c2.4,0.9,4.23,1.95,4.23,4.17C176.598,313.795,174.708,315.295,172.099,315.295 M145.998,315.295
		c-2.16,0-3.51-1.26-3.51-3.99v-7.89l-2.58-0.12v-1.5h2.58v-4.41h1.83v4.41h4.74v1.62h-4.74v7.89c0,1.68,0.69,2.25,1.86,2.25
		c0.93,0,1.77-0.3,2.61-0.9l0.81,1.38C148.608,314.785,147.379,315.295,145.998,315.295 M100.939,315.295
		c-1.86,0-3.42-0.51-4.83-1.47l0.93-1.44c1.17,0.84,2.43,1.2,3.9,1.2c1.62,0,2.67-0.81,2.67-2.01c0-1.29-1.47-1.95-3.06-2.58
		c-2.16-0.84-3.96-1.86-3.96-3.99c0-2.22,2.04-3.36,4.29-3.36c1.44,0,2.82,0.42,4.02,1.2l-0.81,1.32c-0.96-0.54-2.04-0.84-3.12-0.84
		c-1.35,0-2.55,0.45-2.55,1.68c0,1.2,1.23,1.8,2.79,2.4c2.4,0.9,4.23,1.95,4.23,4.17
		C105.439,313.795,103.549,315.295,100.939,315.295 M41.539,315.295c-3.3,0-4.83-2.19-4.83-5.43v-8.07h1.83v8.1
		c0,2.16,0.84,3.69,3.21,3.69c2.64,0,4.2-2.37,4.2-5.19v-6.6h1.83v13.259h-1.41l-0.36-2.31
		C45.229,314.155,43.729,315.295,41.539,315.295 M72.469,315.205h-0.66l-6.21-13.35v-0.06h1.98l3.84,8.49
		c0.27,0.6,0.51,1.2,0.72,1.89c0.21-0.69,0.45-1.29,0.72-1.89l3.81-8.49h1.98v0.06L72.469,315.205 M267.257,315.055h-1.83v-13.259
		h1.83V315.055 M242.447,315.055h-1.83v-11.64h-2.76v-1.62h2.76v-3.81c0-2.61,1.35-4.8,4.29-4.8c1.41,0,2.4,0.42,3.42,1.17
		l-0.84,1.32c-0.75-0.51-1.41-0.78-2.37-0.78c-1.62,0-2.67,1.05-2.67,3.09v3.81h4.35v1.62h-4.35V315.055 M228.317,315.055h-1.83
		v-8.13c0-2.25-0.84-3.69-3.06-3.69c-2.67,0-4.44,1.92-4.44,4.68v7.14h-1.83v-13.259h1.38l0.42,2.25c0.78-1.41,2.4-2.52,4.65-2.52
		c3.09,0,4.71,1.98,4.71,5.43V315.055 M117.709,315.055h-1.83v-13.259h1.38l0.36,1.95c0.75-1.38,2.01-2.22,3.87-2.22
		c0.84,0,1.56,0.18,2.16,0.45l-0.54,1.62c-0.51-0.18-1.02-0.33-1.77-0.33c-2.16,0-3.63,1.53-3.63,4.11V315.055 M31.549,315.055
		h-1.95v-9.39H17.21v9.39h-1.98v-20.399h1.98v9.21h12.389v-9.21h1.95V315.055 M266.357,298.316c-0.84,0-1.38-0.6-1.38-1.32
		c0-0.78,0.54-1.38,1.38-1.38s1.38,0.6,1.38,1.38C267.737,297.746,267.167,298.316,266.357,298.316"/>
	<path fill="#9D9D9C" d="M891.859,296.259l-5.496,3l0.984,1.992l2.136-1.056l0.6-0.312c-0.12,0.432-0.192,0.864-0.288,1.32
		l-1.992,11.041h2.808l2.808-15.985z M899.419,312.508c3.504,0,5.88-1.608,6.385-4.44c0.048-0.288,0.072-0.576,0.072-0.84
		c0-1.608-0.888-2.808-2.112-3.384c1.488-0.624,2.976-2.04,2.976-4.2c0-2.088-1.728-3.576-4.512-3.576
		c-3.12,0-5.424,1.656-5.88,4.224c-0.048,0.216-0.048,0.456-0.048,0.648c0,1.344,0.72,2.448,1.752,2.904
		c-1.824,0.552-3.216,2.112-3.552,3.96c-0.048,0.288-0.072,0.576-0.072,0.864C894.427,311.044,896.347,312.508,899.419,312.508z
		 M901.123,302.715c-1.368,0-2.184-0.672-2.184-1.752c0-1.584,1.2-2.592,2.88-2.592c1.368,0,2.184,0.672,2.184,1.704
		C904.004,301.611,902.779,302.715,901.123,302.715z M899.827,310.084c-1.512,0-2.544-0.648-2.544-1.968
		c0-0.168,0.024-0.312,0.048-0.48c0.264-1.536,1.584-2.64,3.312-2.64c1.608,0,2.472,0.816,2.472,2.064
		C903.116,308.98,901.627,310.084,899.827,310.084z M909.763,309.22c-0.816,0-1.584,0.504-1.776,1.464
		c-0.024,0.12-0.024,0.24-0.024,0.336c0,0.912,0.648,1.512,1.392,1.512h0.12c-0.36,1.008-1.032,1.776-2.04,2.544l0.576,0.696
		c1.68-1.128,2.808-2.64,3.216-4.296c0.072-0.24,0.096-0.48,0.096-0.696C911.323,309.748,910.627,309.22,909.763,309.22z
		 M919.075,308.86l4.224-4.416c1.128-1.152,1.848-2.328,2.04-3.528c0.048-0.312,0.096-0.624,0.096-0.912
		c0-2.28-1.68-3.912-4.2-3.912c-2.136,0-3.816,0.984-5.328,2.76l1.776,1.68c0.984-1.104,2.04-1.896,3.264-1.896
		c1.104,0,1.704,0.696,1.704,1.608c0,0.864-0.504,1.848-1.464,2.856l-7.609,8.065l-0.192,1.08h10.201l0.408-2.424l-4.512,0.024
		c-0.48,0-0.984,0.024-1.464,0.048C918.379,309.58,918.715,309.22,919.075,308.86z M931.459,312.532
		c3.864,0,6.265-3.096,7.129-8.041c0.144-0.864,0.216-1.68,0.216-2.424c0-3.696-1.8-5.977-4.728-5.977
		c-3.96,0-6.241,3.072-7.129,8.017c-0.144,0.888-0.24,1.704-0.24,2.472C926.706,310.276,928.482,312.532,931.459,312.532z
		 M931.651,310.084c-1.464,0-2.184-1.368-2.184-3.504c0-0.672,0.072-1.44,0.216-2.256c0.624-3.552,2.16-5.785,4.2-5.785
		c1.464,0,2.16,1.344,2.16,3.456c0,0.696-0.072,1.464-0.216,2.28C935.203,307.828,933.691,310.084,931.651,310.084z"/>
	<path fill="#9D9D9C" d="M948.968,298.882c0.76,0,1.34,0.12,1.9,0.34l1-1.82c-0.88-0.4-1.7-0.62-2.881-0.62
		c-3.461,0-5.941,1.88-6.982,4.741h-1.5l-0.24,1.4h1.36c-0.06,0.36-0.12,0.74-0.14,1.12h-1.42l-0.26,1.4h1.7
		c0.26,2.861,2.24,5.041,5.501,5.041c1.04,0,1.92-0.18,2.801-0.6l-0.44-1.96c-0.64,0.32-1.26,0.46-2.06,0.46
		c-2.12,0-3.181-1.16-3.461-2.941h2.921l0.78-1.4h-3.741c0.02-0.38,0.06-0.76,0.16-1.12h4.161l0.76-1.4h-4.421
		C945.307,299.922,946.868,298.882,948.968,298.882z"/>
	<path fill="#000000" d="M267.316,363.655h-1.83v-19.859h1.38l0.39,2.22c1.14-1.53,2.94-2.49,5.19-2.49c3.78,0,6.54,2.88,6.54,6.84
		c0,4.08-2.76,6.989-6.57,6.989c-2.19,0-4.05-0.99-5.16-2.49c0.03,1.02,0.06,2.25,0.06,3.57V363.655 M272.296,345.235
		c-2.97,0-5.07,2.1-5.07,5.13c0,3.15,2.13,5.28,5.07,5.28c2.85,0,4.86-2.16,4.86-5.19
		C277.156,347.395,275.146,345.235,272.296,345.235 M318.195,357.385c-3.99,0-6.84-2.88-6.84-6.96c0-4.08,2.85-6.96,6.84-6.96
		c4.05,0,6.9,2.88,6.9,6.96C325.095,354.505,322.245,357.385,318.195,357.385 M318.195,345.175c-2.94,0-4.98,2.19-4.98,5.25
		c0,3.09,2.04,5.25,4.98,5.25c2.97,0,5.04-2.16,5.04-5.25C323.235,347.365,321.195,345.175,318.195,345.175 M288.616,357.385
		c-3.99,0-6.84-2.88-6.84-6.96c0-4.08,2.85-6.96,6.84-6.96c4.05,0,6.9,2.88,6.9,6.96
		C295.516,354.505,292.666,357.385,288.616,357.385 M288.616,345.175c-2.94,0-4.98,2.19-4.98,5.25c0,3.09,2.04,5.25,4.98,5.25
		c2.97,0,5.04-2.16,5.04-5.25C293.656,347.365,291.616,345.175,288.616,345.175 M249.376,357.385c-4.02,0-6.84-2.88-6.84-6.99
		c0-3.84,2.76-6.93,6.69-6.93c3.69,0,5.88,2.55,5.88,6.42c0,0.42-0.03,0.84-0.09,1.29h-10.619c0.3,2.82,2.46,4.5,4.95,4.5
		c1.86,0,3.03-0.57,4.05-1.62l1.05,1.32C253.096,356.665,251.476,357.385,249.376,357.385 M249.197,345.175
		c-2.46,0-4.38,1.74-4.74,4.38h8.85C253.246,346.735,251.626,345.175,249.197,345.175 M208.757,357.385c-3.99,0-6.84-2.88-6.84-6.96
		c0-4.08,2.85-6.96,6.84-6.96c4.05,0,6.9,2.88,6.9,6.96C215.657,354.505,212.807,357.385,208.757,357.385 M208.757,345.175
		c-2.94,0-4.98,2.19-4.98,5.25c0,3.09,2.04,5.25,4.98,5.25c2.97,0,5.04-2.16,5.04-5.25
		C213.797,347.365,211.757,345.175,208.757,345.175 M151.698,357.385c-4.02,0-6.84-2.88-6.84-6.99c0-3.84,2.76-6.93,6.69-6.93
		c3.69,0,5.88,2.55,5.88,6.42c0,0.42-0.03,0.84-0.09,1.29h-10.62c0.3,2.82,2.46,4.5,4.95,4.5c1.86,0,3.03-0.57,4.05-1.62l1.05,1.32
		C155.418,356.665,153.798,357.385,151.698,357.385 M151.518,345.175c-2.46,0-4.38,1.74-4.74,4.38h8.85
		C155.568,346.735,153.948,345.175,151.518,345.175 M92.989,357.385c-3.99,0-6.84-2.88-6.84-6.96c0-4.08,2.85-6.96,6.84-6.96
		c4.05,0,6.9,2.88,6.9,6.96C99.889,354.505,97.039,357.385,92.989,357.385 M92.989,345.175c-2.94,0-4.98,2.19-4.98,5.25
		c0,3.09,2.04,5.25,4.98,5.25c2.97,0,5.04-2.16,5.04-5.25C98.029,347.365,95.989,345.175,92.989,345.175 M231.917,357.355
		c-3.93,0-6.66-2.94-6.66-6.989c0-3.93,2.76-6.84,6.66-6.84c2.16,0,4.05,0.96,5.13,2.52c-0.03-1.14-0.06-2.34-0.06-3.6v-6.9h1.83
		v21.509h-1.41l-0.27-2.37C236.057,356.335,234.227,357.355,231.917,357.355 M232.037,345.235c-2.94,0-4.95,2.16-4.95,5.19
		c0,3.03,2.01,5.19,4.95,5.19c3.06,0,5.01-2.19,5.01-5.19C237.047,347.425,235.037,345.235,232.037,345.235 M176.028,357.295
		c-2.58,0-4.23-1.41-4.23-3.69c0-2.97,2.73-4.68,6.63-4.68c0.99,0,1.74,0.03,2.43,0.12v-0.9c0-1.86-1.32-2.79-3.36-2.79
		c-1.44,0-2.91,0.42-4.38,1.11l-0.63-1.56c1.8-0.84,3.51-1.26,5.19-1.26c3.03,0,5.04,1.59,5.04,4.59v8.82h-1.35l-0.33-2.4
		C180.078,356.245,178.368,357.295,176.028,357.295 M178.698,350.455c-3.12,0-4.98,1.08-4.98,3.03c0,1.32,0.96,2.1,2.61,2.1
		c2.73,0,4.44-1.98,4.53-5.01C180.138,350.485,179.568,350.455,178.698,350.455 M164.748,357.295c-1.86,0-3.42-0.51-4.83-1.47
		l0.93-1.44c1.17,0.84,2.43,1.2,3.9,1.2c1.62,0,2.67-0.81,2.67-2.01c0-1.29-1.47-1.95-3.06-2.58c-2.16-0.84-3.96-1.86-3.96-3.99
		c0-2.22,2.04-3.36,4.29-3.36c1.44,0,2.82,0.42,4.02,1.2l-0.81,1.32c-0.96-0.54-2.04-0.84-3.12-0.84c-1.35,0-2.55,0.45-2.55,1.68
		c0,1.2,1.23,1.8,2.79,2.4c2.4,0.9,4.23,1.95,4.23,4.17S167.358,357.295,164.748,357.295 M139.758,357.295
		c-2.16,0-3.51-1.26-3.51-3.99v-7.89l-2.58-0.12v-1.5h2.58v-4.41h1.83v4.41h4.74v1.62h-4.74v7.89c0,1.68,0.69,2.25,1.86,2.25
		c0.93,0,1.77-0.3,2.61-0.9l0.81,1.38C142.368,356.785,141.138,357.295,139.758,357.295 M113.629,357.295
		c-2.58,0-4.23-1.41-4.23-3.69c0-2.97,2.73-4.68,6.63-4.68c0.99,0,1.74,0.03,2.43,0.12v-0.9c0-1.86-1.32-2.79-3.36-2.79
		c-1.44,0-2.91,0.42-4.38,1.11l-0.63-1.56c1.8-0.84,3.51-1.26,5.19-1.26c3.03,0,5.04,1.59,5.04,4.59v8.82h-1.35l-0.33-2.4
		C117.679,356.245,115.969,357.295,113.629,357.295 M116.299,350.455c-3.12,0-4.98,1.08-4.98,3.03c0,1.32,0.96,2.1,2.61,2.1
		c2.73,0,4.44-1.98,4.53-5.01C117.739,350.485,117.169,350.455,116.299,350.455 M81.049,357.295c-2.16,0-3.51-1.26-3.51-3.99v-7.89
		l-2.58-0.12v-1.5h2.58v-4.41h1.83v4.41h4.74v1.62h-4.74v7.89c0,1.68,0.69,2.25,1.86,2.25c0.93,0,1.77-0.3,2.61-0.9l0.81,1.38
		C83.659,356.785,82.429,357.295,81.049,357.295 M38.18,357.295c-3.3,0-4.83-2.19-4.83-5.43v-8.07h1.83v8.1
		c0,2.16,0.84,3.69,3.21,3.69c2.64,0,4.2-2.37,4.2-5.19v-6.6h1.83v13.259h-1.41l-0.36-2.31
		C41.87,356.155,40.37,357.295,38.18,357.295 M307.635,357.055h-1.83l-0.03-21.509h1.83L307.635,357.055 M301.096,357.055h-1.83
		l-0.03-21.509h1.83L301.096,357.055 M198.377,357.055h-1.83v-8.13c0-2.25-0.84-3.69-3.06-3.69c-2.67,0-4.44,1.92-4.44,4.68v7.14
		h-1.83v-13.259h1.38l0.42,2.25c0.78-1.41,2.4-2.52,4.65-2.52c3.09,0,4.71,1.98,4.71,5.43V357.055 M126.649,357.055h-1.83v-13.259
		h1.38l0.36,1.95c0.75-1.38,2.01-2.22,3.87-2.22c0.84,0,1.56,0.18,2.16,0.45l-0.54,1.62c-0.51-0.18-1.02-0.33-1.77-0.33
		c-2.16,0-3.63,1.53-3.63,4.11V357.055 M71.929,357.055h-1.83v-13.259h1.83V357.055 M61.43,357.055H59.6v-13.259h1.38l0.36,1.95
		c0.75-1.38,2.01-2.22,3.87-2.22c0.84,0,1.56,0.18,2.16,0.45l-0.54,1.62c-0.51-0.18-1.02-0.33-1.77-0.33
		c-2.16,0-3.63,1.53-3.63,4.11V357.055 M50.93,357.055H49.1v-13.259h1.38l0.36,1.95c0.75-1.38,2.01-2.22,3.87-2.22
		c0.84,0,1.56,0.18,2.16,0.45l-0.54,1.62c-0.51-0.18-1.02-0.33-1.77-0.33c-2.16,0-3.63,1.53-3.63,4.11V357.055 M23.39,357.055h-8.16
		v-20.399h7.62c3.24,0,5.82,2.16,5.82,5.28c0,1.95-0.99,3.45-2.46,4.32c2.04,0.87,3.39,2.85,3.39,5.13
		C29.599,354.745,26.959,357.055,23.39,357.055 M17.21,347.335v7.92h6.09c2.49,0,4.32-1.53,4.32-3.99c0-2.34-1.74-3.93-4.17-3.93
		H17.21 M17.21,338.456v7.08h5.58c2.43,0,3.93-1.29,3.93-3.6c0-2.16-1.74-3.48-3.99-3.48H17.21 M71.029,340.316
		c-0.84,0-1.38-0.6-1.38-1.32c0-0.78,0.54-1.38,1.38-1.38c0.84,0,1.38,0.6,1.38,1.38C72.409,339.746,71.84,340.316,71.029,340.316"
		/>
	<path fill="#9D9D9C" d="M903.163,338.067c-3.024,0-5.28,1.92-5.809,4.872c-0.072,0.384-0.096,0.744-0.096,1.08
		c0,2.592,1.824,4.272,4.128,4.272c1.248,0,2.184-0.288,3.192-1.032c-1.176,2.952-3.648,4.776-7.345,4.896l0.168,2.304
		c6.049-0.096,9.337-3.96,10.369-9.145l0.072-0.336c0.12-0.6,0.168-1.176,0.168-1.728
		C908.011,340.179,906.331,338.067,903.163,338.067z M902.203,345.987c-1.44,0-2.232-1.032-2.232-2.328
		c0-0.192,0.024-0.384,0.048-0.576c0.312-1.656,1.44-2.568,3.024-2.592c1.344,0,2.328,0.936,2.328,2.28
		c0,0.168-0.024,0.336-0.048,0.528C905.059,344.835,903.979,345.987,902.203,345.987z M910.914,351.22
		c-0.816,0-1.584,0.504-1.776,1.464c-0.024,0.12-0.024,0.24-0.024,0.336c0,0.912,0.648,1.512,1.392,1.512h0.12
		c-0.36,1.008-1.032,1.776-2.04,2.544l0.576,0.696c1.68-1.128,2.808-2.64,3.216-4.296c0.072-0.24,0.096-0.48,0.096-0.696
		C912.474,351.748,911.778,351.22,910.914,351.22z M922.459,338.067c-3.024,0-5.28,1.92-5.809,4.872
		c-0.072,0.384-0.096,0.744-0.096,1.08c0,2.592,1.824,4.272,4.128,4.272c1.248,0,2.184-0.288,3.192-1.032
		c-1.176,2.952-3.648,4.776-7.345,4.896l0.168,2.304c6.049-0.096,9.337-3.96,10.369-9.145l0.072-0.336
		c0.12-0.6,0.168-1.176,0.168-1.728C927.307,340.179,925.627,338.067,922.459,338.067z M921.499,345.987
		c-1.44,0-2.232-1.032-2.232-2.328c0-0.192,0.024-0.384,0.048-0.576c0.312-1.656,1.44-2.568,3.024-2.592
		c1.344,0,2.328,0.936,2.328,2.28c0,0.168-0.024,0.336-0.048,0.528C924.355,344.835,923.275,345.987,921.499,345.987z
		 M939.451,340.803l0.432-2.424h-7.993l-2.352,8.113l0.408,0.312c0.888-0.312,1.8-0.504,2.736-0.504
		c1.776,0,3.048,0.792,3.048,2.328c0,0.192,0,0.384-0.048,0.6c-0.336,1.848-1.872,2.784-3.672,2.784
		c-1.44,0-2.472-0.528-3.048-1.392l-1.68,1.848c0.984,1.272,2.688,2.088,4.8,2.088c3.288,0,5.832-1.896,6.337-4.92
		c0.072-0.432,0.12-0.816,0.12-1.2c0-2.736-1.944-4.2-4.848-4.2c-0.384,0-0.72,0.024-1.032,0.048l1.056-3.48z"/>
	<path fill="#9D9D9C" d="M948.968,340.882c0.76,0,1.34,0.12,1.9,0.34l1-1.82c-0.88-0.4-1.7-0.62-2.881-0.62
		c-3.461,0-5.941,1.88-6.982,4.741h-1.5l-0.24,1.4h1.36c-0.06,0.36-0.12,0.74-0.14,1.12h-1.42l-0.26,1.4h1.7
		c0.26,2.861,2.24,5.041,5.501,5.041c1.04,0,1.92-0.18,2.801-0.6l-0.44-1.96c-0.64,0.32-1.26,0.46-2.06,0.46
		c-2.12,0-3.181-1.16-3.461-2.941h2.921l0.78-1.4h-3.741c0.02-0.38,0.06-0.76,0.16-1.12h4.161l0.76-1.4h-4.421
		C945.307,341.922,946.868,340.882,948.968,340.882z"/>
	<path fill="#000000" d="M233.595,399.015c-3.99,0-6.84-2.88-6.84-6.96c0-4.08,2.85-6.96,6.84-6.96c4.05,0,6.9,2.88,6.9,6.96
		C240.495,396.135,237.645,399.015,233.595,399.015 M233.595,386.805c-2.94,0-4.98,2.19-4.98,5.25c0,3.09,2.04,5.25,4.98,5.25
		c2.97,0,5.04-2.16,5.04-5.25C238.635,388.995,236.595,386.805,233.595,386.805 M219.736,399.015c-3.3,0-6.6-2.43-6.6-6.99
		c0-4.38,3.18-6.9,6.78-6.9c1.92,0,3.39,0.6,4.74,1.8l-1.05,1.26c-1.08-0.93-2.13-1.35-3.69-1.35c-2.76,0-4.92,2.07-4.92,5.19
		c0,3.18,2.13,5.28,4.89,5.28c1.8,0,2.88-0.57,3.96-1.59l1.02,1.32C223.486,398.325,222.046,399.015,219.736,399.015
		 M189.646,398.985c-2.25,0-4.11-0.99-5.22-2.61l-0.27,2.31h-1.41v-21.509h1.83v6.9c0,1.26-0.03,2.49-0.06,3.66
		c1.08-1.62,2.97-2.58,5.13-2.58c3.9,0,6.66,2.91,6.66,6.84C196.306,396.045,193.576,398.985,189.646,398.985 M189.526,386.865
		c-3,0-5.04,2.19-5.04,5.19c0,3,1.98,5.19,5.04,5.19c2.94,0,4.95-2.16,4.95-5.19C194.476,389.025,192.466,386.865,189.526,386.865
		 M147.797,398.985c-2.25,0-4.11-0.99-5.22-2.61l-0.27,2.31h-1.41v-21.509h1.83v6.9c0,1.26-0.03,2.49-0.06,3.66
		c1.08-1.62,2.97-2.58,5.13-2.58c3.9,0,6.66,2.91,6.66,6.84C154.457,396.045,151.727,398.985,147.797,398.985 M147.677,386.865
		c-3,0-5.04,2.19-5.04,5.19c0,3,1.98,5.19,5.04,5.19c2.94,0,4.95-2.16,4.95-5.19C152.627,389.025,150.617,386.865,147.677,386.865
		 M247.335,398.925c-2.58,0-4.23-1.41-4.23-3.69c0-2.97,2.73-4.68,6.63-4.68c0.99,0,1.74,0.03,2.43,0.12v-0.9
		c0-1.86-1.32-2.79-3.36-2.79c-1.44,0-2.91,0.42-4.38,1.11l-0.63-1.56c1.8-0.84,3.51-1.26,5.19-1.26c3.03,0,5.04,1.59,5.04,4.59
		v8.82h-1.35l-0.33-2.4C251.385,397.875,249.675,398.925,247.335,398.925 M250.005,392.085c-3.12,0-4.98,1.08-4.98,3.03
		c0,1.32,0.96,2.1,2.61,2.1c2.73,0,4.44-1.98,4.53-5.01C251.445,392.115,250.875,392.085,250.005,392.085 M202.906,398.925
		c-2.58,0-4.23-1.41-4.23-3.69c0-2.97,2.73-4.68,6.63-4.68c0.99,0,1.74,0.03,2.43,0.12v-0.9c0-1.86-1.32-2.79-3.36-2.79
		c-1.44,0-2.91,0.42-4.38,1.11l-0.63-1.56c1.8-0.84,3.51-1.26,5.19-1.26c3.03,0,5.04,1.59,5.04,4.59v8.82h-1.35l-0.33-2.4
		C206.956,397.875,205.246,398.925,202.906,398.925 M205.576,392.085c-3.12,0-4.98,1.08-4.98,3.03c0,1.32,0.96,2.1,2.61,2.1
		c2.73,0,4.44-1.98,4.53-5.01C207.016,392.115,206.446,392.085,205.576,392.085 M161.057,398.925c-2.58,0-4.23-1.41-4.23-3.69
		c0-2.97,2.73-4.68,6.63-4.68c0.99,0,1.74,0.03,2.43,0.12v-0.9c0-1.86-1.32-2.79-3.36-2.79c-1.44,0-2.91,0.42-4.38,1.11l-0.63-1.56
		c1.8-0.84,3.51-1.26,5.19-1.26c3.03,0,5.04,1.59,5.04,4.59v8.82h-1.35l-0.33-2.4C165.107,397.875,163.397,398.925,161.057,398.925
		 M163.727,392.085c-3.12,0-4.98,1.08-4.98,3.03c0,1.32,0.96,2.1,2.61,2.1c2.73,0,4.44-1.98,4.53-5.01
		C165.167,392.115,164.597,392.085,163.727,392.085 M122.868,398.925c-2.58,0-4.23-1.41-4.23-3.69c0-2.97,2.73-4.68,6.63-4.68
		c0.99,0,1.74,0.03,2.43,0.12v-0.9c0-1.86-1.32-2.79-3.36-2.79c-1.44,0-2.91,0.42-4.38,1.11l-0.63-1.56
		c1.8-0.84,3.51-1.26,5.19-1.26c3.03,0,5.04,1.59,5.04,4.59v8.82h-1.35l-0.33-2.4C126.917,397.875,125.207,398.925,122.868,398.925
		 M125.537,392.085c-3.12,0-4.98,1.08-4.98,3.03c0,1.32,0.96,2.1,2.61,2.1c2.73,0,4.44-1.98,4.53-5.01
		C126.977,392.115,126.407,392.085,125.537,392.085 M95.118,398.925c-2.58,0-4.23-1.41-4.23-3.69c0-2.97,2.73-4.68,6.63-4.68
		c0.99,0,1.74,0.03,2.43,0.12v-0.9c0-1.86-1.32-2.79-3.36-2.79c-1.44,0-2.91,0.42-4.38,1.11l-0.63-1.56
		c1.8-0.84,3.51-1.26,5.19-1.26c3.03,0,5.04,1.59,5.04,4.59v8.82h-1.35l-0.33-2.4C99.168,397.875,97.458,398.925,95.118,398.925
		 M97.788,392.085c-3.12,0-4.98,1.08-4.98,3.03c0,1.32,0.96,2.1,2.61,2.1c2.73,0,4.44-1.98,4.53-5.01
		C99.228,392.115,98.658,392.085,97.788,392.085 M76.999,398.925c-1.86,0-3.42-0.51-4.83-1.47l0.93-1.44c1.17,0.84,2.43,1.2,3.9,1.2
		c1.62,0,2.67-0.81,2.67-2.01c0-1.29-1.47-1.95-3.06-2.58c-2.16-0.84-3.96-1.86-3.96-3.99c0-2.22,2.04-3.36,4.29-3.36
		c1.44,0,2.82,0.42,4.02,1.2l-0.81,1.32c-0.96-0.54-2.04-0.84-3.12-0.84c-1.35,0-2.55,0.45-2.55,1.68c0,1.2,1.23,1.8,2.79,2.4
		c2.4,0.9,4.23,1.95,4.23,4.17C81.498,397.425,79.609,398.925,76.999,398.925 M62.029,398.925c-2.58,0-4.23-1.41-4.23-3.69
		c0-2.97,2.73-4.68,6.63-4.68c0.99,0,1.74,0.03,2.43,0.12v-0.9c0-1.86-1.32-2.79-3.36-2.79c-1.44,0-2.91,0.42-4.38,1.11l-0.63-1.56
		c1.8-0.84,3.51-1.26,5.19-1.26c3.03,0,5.04,1.59,5.04,4.59v8.82h-1.35l-0.33-2.4C66.079,397.875,64.369,398.925,62.029,398.925
		 M64.699,392.085c-3.12,0-4.98,1.08-4.98,3.03c0,1.32,0.96,2.1,2.61,2.1c2.73,0,4.44-1.98,4.53-5.01
		C66.139,392.115,65.569,392.085,64.699,392.085 M52.519,398.925c-2.16,0-3.51-1.26-3.51-3.99v-7.89l-2.58-0.12v-1.5h2.58v-4.41
		h1.83v4.41h4.74v1.62h-4.74v7.89c0,1.68,0.69,2.25,1.86,2.25c0.93,0,1.77-0.3,2.61-0.9l0.81,1.38
		C55.129,398.415,53.899,398.925,52.519,398.925 M174.077,398.685h-1.83v-13.259h1.38l0.36,1.95c0.75-1.38,2.01-2.22,3.87-2.22
		c0.84,0,1.56,0.18,2.16,0.45l-0.54,1.62c-0.51-0.18-1.02-0.33-1.77-0.33c-2.16,0-3.63,1.53-3.63,4.11V398.685 M115.008,398.685
		h-1.83l-0.03-21.509h1.83L115.008,398.685 M43.399,398.685h-1.83v-13.259h1.83V398.685 M36.89,398.685h-1.83l-0.03-21.509h1.83
		L36.89,398.685 M32.269,398.685h-2.07l-2.16-4.68H16.88l-2.16,4.68h-2.07v-0.06l9.48-20.489h0.66l9.48,20.489V398.685
		 M22.46,381.615c-0.39,0.93-0.72,1.83-1.14,2.73l-3.63,7.86h9.51l-3.6-7.86C23.18,383.475,22.82,382.576,22.46,381.615
		 M42.499,381.946c-0.84,0-1.38-0.6-1.38-1.32c0-0.78,0.54-1.38,1.38-1.38s1.38,0.6,1.38,1.38
		C43.879,381.376,43.309,381.946,42.499,381.946"/>
	<path fill="#9D9D9C" d="M890.347,379.888l-5.496,3l0.984,1.992l2.136-1.056l0.6-0.312c-0.12,0.432-0.192,0.864-0.288,1.32
		l-1.992,11.041h2.808l2.808-15.985z M898.171,396.162c3.864,0,6.265-3.096,7.129-8.041c0.144-0.864,0.216-1.68,0.216-2.424
		c0-3.696-1.8-5.977-4.728-5.977c-3.96,0-6.241,3.072-7.129,8.017c-0.144,0.888-0.24,1.704-0.24,2.472
		C893.419,393.906,895.195,396.162,898.171,396.162z M898.363,393.714c-1.464,0-2.184-1.368-2.184-3.504
		c0-0.672,0.072-1.44,0.216-2.256c0.624-3.552,2.16-5.784,4.2-5.784c1.464,0,2.16,1.344,2.16,3.456c0,0.696-0.072,1.464-0.216,2.28
		C901.915,391.457,900.403,393.714,898.363,393.714z M908.635,392.85c-0.816,0-1.584,0.504-1.776,1.464
		c-0.024,0.12-0.024,0.24-0.024,0.336c0,0.912,0.648,1.512,1.392,1.512h0.12c-0.36,1.008-1.032,1.776-2.04,2.544l0.576,0.696
		c1.68-1.128,2.808-2.64,3.216-4.296c0.072-0.24,0.096-0.48,0.096-0.696C910.195,393.378,909.499,392.85,908.635,392.85z
		 M920.179,379.696c-3.024,0-5.28,1.92-5.809,4.872c-0.072,0.384-0.096,0.744-0.096,1.08c0,2.592,1.824,4.272,4.128,4.272
		c1.248,0,2.184-0.288,3.192-1.032c-1.176,2.952-3.648,4.776-7.345,4.896l0.168,2.304c6.049-0.096,9.337-3.96,10.369-9.145
		l0.072-0.336c0.12-0.6,0.168-1.176,0.168-1.728C925.027,381.809,923.347,379.696,920.179,379.696z M919.219,387.617
		c-1.44,0-2.232-1.032-2.232-2.328c0-0.192,0.024-0.384,0.048-0.576c0.312-1.656,1.44-2.568,3.024-2.592
		c1.344,0,2.328,0.936,2.328,2.28c0,0.168-0.024,0.336-0.048,0.528C922.075,386.465,920.995,387.617,919.219,387.617z
		 M931.459,396.162c3.864,0,6.265-3.096,7.129-8.041c0.144-0.864,0.216-1.68,0.216-2.424c0-3.696-1.8-5.977-4.728-5.977
		c-3.96,0-6.241,3.072-7.129,8.017c-0.144,0.888-0.24,1.704-0.24,2.472C926.706,393.906,928.482,396.162,931.459,396.162z
		 M931.651,393.714c-1.464,0-2.184-1.368-2.184-3.504c0-0.672,0.072-1.44,0.216-2.256c0.624-3.552,2.16-5.784,4.2-5.784
		c1.464,0,2.16,1.344,2.16,3.456c0,0.696-0.072,1.464-0.216,2.28C935.203,391.457,933.691,393.714,931.651,393.714z"/>
	<path fill="#9D9D9C" d="M948.968,382.511c0.76,0,1.34,0.12,1.9,0.34l1-1.82c-0.88-0.4-1.7-0.62-2.881-0.62
		c-3.461,0-5.941,1.88-6.982,4.741h-1.5l-0.24,1.4h1.36c-0.06,0.36-0.12,0.74-0.14,1.12h-1.42l-0.26,1.4h1.7
		c0.26,2.861,2.24,5.041,5.501,5.041c1.04,0,1.92-0.18,2.801-0.6l-0.44-1.96c-0.64,0.32-1.26,0.46-2.06,0.46
		c-2.12,0-3.181-1.16-3.461-2.941h2.921l0.78-1.4h-3.741c0.02-0.38,0.06-0.76,0.16-1.12h4.161l0.76-1.4h-4.421
		C945.307,383.552,946.868,382.511,948.968,382.511z"/>
	<path fill="#000000" d="M222.167,447.214l-0.24-1.62c3-0.24,3.63-1.53,3.63-4.38v-14.159h1.83v14.07
		C227.387,445.085,226.247,446.975,222.167,447.214 M74.419,446.915h-1.83v-5.22c0-1.41,0.03-2.67,0.06-3.72
		c-1.08,1.62-2.94,2.64-5.16,2.64c-3.87,0-6.6-2.91-6.6-6.99c0-3.96,2.76-6.84,6.57-6.84c2.25,0,3.99,0.93,5.16,2.55l0.42-2.28h1.38
		V446.915 M67.609,428.495c-2.85,0-4.86,2.16-4.86,5.22c0,3.03,2.01,5.19,4.86,5.19c2.94,0,5.04-2.13,5.04-5.28
		C72.649,430.595,70.579,428.495,67.609,428.495 M359.114,446.075l-1.17-1.11c2.46-2.97,3.99-8.01,3.99-13.229
		c0-5.22-1.53-10.26-3.99-13.23l1.17-1.11c2.76,3.3,4.59,8.7,4.59,14.339C363.704,437.375,361.874,442.775,359.114,446.075
		 M314.025,446.075c-2.76-3.3-4.59-8.7-4.59-14.339c0-5.64,1.83-11.04,4.59-14.339l1.2,1.11c-2.49,2.97-4.02,8.01-4.02,13.23
		c0,5.22,1.53,10.259,4.02,13.229L314.025,446.075 M24.29,440.675c-6.15,0-10.349-4.77-10.349-10.59c0-6.03,4.29-10.53,10.349-10.53
		c3.21,0,5.52,1.14,7.68,3.33l-1.17,1.2c-1.62-1.68-3.6-2.7-6.51-2.7c-4.92,0-8.37,3.75-8.37,8.7c0,4.83,3.42,8.76,8.37,8.76
		c2.88,0,5.16-1.38,6.66-3.39l1.41,1.11C30.679,438.995,27.889,440.675,24.29,440.675 M276.286,440.645c-3.99,0-6.84-2.88-6.84-6.96
		c0-4.08,2.85-6.96,6.84-6.96c4.05,0,6.9,2.88,6.9,6.96C283.185,437.765,280.335,440.645,276.286,440.645 M276.286,428.435
		c-2.94,0-4.98,2.19-4.98,5.25c0,3.09,2.04,5.25,4.98,5.25c2.97,0,5.04-2.16,5.04-5.25
		C281.325,430.625,279.285,428.435,276.286,428.435 M209.327,440.645c-4.02,0-6.84-2.88-6.84-6.99c0-3.84,2.76-6.93,6.69-6.93
		c3.69,0,5.88,2.55,5.88,6.42c0,0.42-0.03,0.84-0.09,1.29h-10.62c0.3,2.82,2.46,4.5,4.95,4.5c1.86,0,3.03-0.57,4.05-1.62l1.05,1.32
		C213.047,439.925,211.427,440.645,209.327,440.645 M209.147,428.435c-2.46,0-4.38,1.74-4.74,4.38h8.85
		C213.197,429.995,211.577,428.435,209.147,428.435 M158.178,440.645c-4.02,0-6.84-2.88-6.84-6.99c0-3.84,2.76-6.93,6.69-6.93
		c3.69,0,5.88,2.55,5.88,6.42c0,0.42-0.03,0.84-0.09,1.29h-10.62c0.3,2.82,2.46,4.5,4.95,4.5c1.86,0,3.03-0.57,4.05-1.62l1.05,1.32
		C161.898,439.925,160.278,440.645,158.178,440.645 M157.998,428.435c-2.46,0-4.38,1.74-4.74,4.38h8.85
		C162.048,429.995,160.428,428.435,157.998,428.435 M126.019,440.645c-3.99,0-6.84-2.88-6.84-6.96c0-4.08,2.85-6.96,6.84-6.96
		c4.05,0,6.9,2.88,6.9,6.96C132.918,437.765,130.069,440.645,126.019,440.645 M126.019,428.435c-2.94,0-4.98,2.19-4.98,5.25
		c0,3.09,2.04,5.25,4.98,5.25c2.97,0,5.04-2.16,5.04-5.25C131.059,430.625,129.019,428.435,126.019,428.435 M100.549,440.645
		c-4.02,0-6.84-2.88-6.84-6.99c0-3.84,2.76-6.93,6.69-6.93c3.69,0,5.88,2.55,5.88,6.42c0,0.42-0.03,0.84-0.09,1.29h-10.62
		c0.3,2.82,2.46,4.5,4.95,4.5c1.86,0,3.03-0.57,4.05-1.62l1.05,1.32C104.269,439.925,102.649,440.645,100.549,440.645
		 M100.369,428.435c-2.46,0-4.38,1.74-4.74,4.38h8.849C104.419,429.995,102.799,428.435,100.369,428.435 M51.229,440.645
		c-3.99,0-6.84-2.88-6.84-6.96c0-4.08,2.85-6.96,6.84-6.96c4.05,0,6.9,2.88,6.9,6.96C58.129,437.765,55.279,440.645,51.229,440.645
		 M51.229,428.435c-2.94,0-4.98,2.19-4.98,5.25c0,3.09,2.04,5.25,4.98,5.25c2.97,0,5.04-2.16,5.04-5.25
		C56.269,430.625,54.229,428.435,51.229,428.435 M352.994,440.615c-0.72,0-1.41-0.45-1.41-1.38c0-0.96,0.69-1.41,1.41-1.41
		c0.69,0,1.41,0.45,1.41,1.41C354.404,440.165,353.684,440.615,352.994,440.615 M339.944,440.615c-3.93,0-6.66-2.94-6.66-6.99
		c0-3.93,2.76-6.84,6.66-6.84c2.16,0,4.05,0.96,5.13,2.52c-0.03-1.14-0.06-2.34-0.06-3.6v-6.9h1.83v21.509h-1.41l-0.27-2.37
		C344.084,439.595,342.254,440.615,339.944,440.615 M340.065,428.495c-2.94,0-4.95,2.16-4.95,5.19c0,3.03,2.01,5.19,4.95,5.19
		c3.06,0,5.01-2.19,5.01-5.19C345.074,430.685,343.064,428.495,340.065,428.495 M191.868,440.615c-3.93,0-6.66-2.94-6.66-6.99
		c0-3.93,2.76-6.84,6.66-6.84c2.16,0,4.05,0.96,5.13,2.52c-0.03-1.14-0.06-2.34-0.06-3.6v-6.9h1.83v21.509h-1.41l-0.27-2.37
		C196.007,439.595,194.177,440.615,191.868,440.615 M191.988,428.495c-2.94,0-4.95,2.16-4.95,5.19c0,3.03,2.01,5.19,4.95,5.19
		c3.06,0,5.01-2.19,5.01-5.19C196.997,430.685,194.988,428.495,191.988,428.495 M323.325,440.555c-3.3,0-4.83-2.19-4.83-5.43v-8.07
		h1.83v8.1c0,2.16,0.84,3.69,3.21,3.69c2.64,0,4.2-2.37,4.2-5.19v-6.6h1.83v13.259h-1.41l-0.36-2.31
		C327.014,439.415,325.515,440.555,323.325,440.555 M235.216,440.555c-2.58,0-4.23-1.41-4.23-3.69c0-2.97,2.73-4.68,6.63-4.68
		c0.99,0,1.74,0.03,2.43,0.12v-0.9c0-1.86-1.32-2.79-3.36-2.79c-1.44,0-2.91,0.42-4.38,1.11l-0.63-1.56
		c1.8-0.84,3.51-1.26,5.19-1.26c3.03,0,5.04,1.59,5.04,4.59v8.82h-1.35l-0.33-2.4C239.266,439.505,237.556,440.555,235.216,440.555
		 M237.886,433.715c-3.12,0-4.98,1.08-4.98,3.03c0,1.32,0.96,2.1,2.61,2.1c2.73,0,4.44-1.98,4.53-5.01
		C239.326,433.745,238.756,433.715,237.886,433.715 M171.228,440.555c-1.86,0-3.42-0.51-4.83-1.47l0.93-1.44
		c1.17,0.84,2.43,1.2,3.9,1.2c1.62,0,2.67-0.81,2.67-2.01c0-1.29-1.47-1.95-3.06-2.58c-2.16-0.84-3.96-1.86-3.96-3.99
		c0-2.22,2.04-3.36,4.29-3.36c1.44,0,2.82,0.42,4.02,1.2l-0.81,1.32c-0.96-0.54-2.04-0.84-3.12-0.84c-1.35,0-2.55,0.45-2.55,1.68
		c0,1.2,1.23,1.8,2.79,2.4c2.4,0.9,4.23,1.95,4.23,4.17C175.728,439.055,173.838,440.555,171.228,440.555 M114.079,440.555
		c-2.16,0-3.51-1.26-3.51-3.99v-7.89l-2.58-0.12v-1.5h2.58v-4.41h1.83v4.41h4.74v1.62h-4.74v7.89c0,1.68,0.69,2.25,1.86,2.25
		c0.93,0,1.77-0.3,2.61-0.9l0.81,1.38C116.689,440.045,115.459,440.555,114.079,440.555 M83.749,440.555c-3.3,0-4.83-2.19-4.83-5.43
		v-8.07h1.83v8.1c0,2.16,0.84,3.69,3.21,3.69c2.64,0,4.2-2.37,4.2-5.19v-6.6h1.83v13.259h-1.41l-0.36-2.31
		C87.439,439.415,85.939,440.555,83.749,440.555 M298.065,440.315h-1.83v-8.13c0-2.25-0.84-3.69-3.06-3.69
		c-2.67,0-4.44,1.92-4.44,4.68v7.14h-1.83v-13.259h1.38l0.42,2.25c0.78-1.41,2.4-2.52,4.65-2.52c3.09,0,4.71,1.98,4.71,5.43V440.315
		 M265.905,440.315h-1.83v-8.4c0-2.13-1.08-3.42-2.94-3.42c-2.67,0-4.05,2.43-4.05,4.92v6.9h-1.83v-8.43c0-1.83-0.93-3.39-2.94-3.39
		c-2.7,0-4.08,2.43-4.08,4.92v6.9h-1.83v-13.259h1.38l0.42,2.28c0.87-1.62,2.4-2.55,4.32-2.55c2.01,0,3.48,0.99,4.11,2.67
		c0.87-1.62,2.4-2.67,4.62-2.67c3.03,0,4.65,2.01,4.65,5.22V440.315 M147.798,440.315h-1.83v-8.13c0-2.25-0.84-3.69-3.06-3.69
		c-2.67,0-4.44,1.92-4.44,4.68v7.14h-1.83v-13.259h1.38l0.42,2.25c0.78-1.41,2.4-2.52,4.65-2.52c3.09,0,4.71,1.98,4.71,5.43V440.315
		 M37.37,440.315h-1.83v-13.259h1.38l0.36,1.95c0.75-1.38,2.01-2.22,3.87-2.22c0.84,0,1.56,0.18,2.16,0.45l-0.54,1.62
		c-0.51-0.18-1.02-0.33-1.77-0.33c-2.16,0-3.63,1.53-3.63,4.11V440.315 M274.696,424.205l-0.93-1.08l3.96-3.39l1.2,1.41
		L274.696,424.205 M226.457,423.575c-0.81,0-1.35-0.6-1.35-1.32c0-0.78,0.54-1.38,1.35-1.38c0.87,0,1.38,0.6,1.38,1.41
		C227.837,423.006,227.267,423.575,226.457,423.575"/>
	<path fill="#9D9D9C" d="M900.859,434.12l4.224-4.416c1.128-1.152,1.848-2.328,2.04-3.528c0.048-0.312,0.096-0.624,0.096-0.912
		c0-2.28-1.68-3.912-4.2-3.912c-2.136,0-3.816,0.984-5.328,2.76l1.776,1.68c0.984-1.104,2.04-1.896,3.264-1.896
		c1.104,0,1.704,0.696,1.704,1.608c0,0.864-0.504,1.848-1.464,2.856l-7.609,8.065l-0.192,1.08h10.201l0.408-2.424l-4.512,0.024
		c-0.48,0-0.984,0.024-1.464,0.048C900.163,434.84,900.499,434.48,900.859,434.12z M909.715,434.48
		c-0.816,0-1.584,0.504-1.776,1.464c-0.024,0.12-0.024,0.24-0.024,0.336c0,0.912,0.648,1.512,1.392,1.512h0.12
		c-0.36,1.008-1.032,1.776-2.04,2.544l0.576,0.696c1.68-1.128,2.808-2.64,3.216-4.296c0.072-0.24,0.096-0.48,0.096-0.696
		C911.275,435.008,910.579,434.48,909.715,434.48z M925.435,424.063l0.432-2.424h-7.993l-2.352,8.113l0.408,0.312
		c0.888-0.312,1.8-0.504,2.736-0.504c1.776,0,3.048,0.792,3.048,2.328c0,0.192,0,0.384-0.048,0.6
		c-0.336,1.848-1.872,2.784-3.672,2.784c-1.44,0-2.472-0.528-3.048-1.392l-1.68,1.848c0.984,1.272,2.688,2.088,4.8,2.088
		c3.288,0,5.832-1.896,6.337-4.92c0.072-0.432,0.12-0.816,0.12-1.2c0-2.736-1.944-4.2-4.848-4.2c-0.384,0-0.72,0.024-1.032,0.048
		l1.056-3.48z M931.459,437.792c3.864,0,6.265-3.096,7.129-8.041c0.144-0.864,0.216-1.68,0.216-2.424c0-3.696-1.8-5.977-4.728-5.977
		c-3.96,0-6.241,3.072-7.129,8.017c-0.144,0.888-0.24,1.704-0.24,2.472C926.706,435.536,928.482,437.792,931.459,437.792z
		 M931.651,435.344c-1.464,0-2.184-1.368-2.184-3.504c0-0.672,0.072-1.44,0.216-2.256c0.624-3.552,2.16-5.785,4.2-5.785
		c1.464,0,2.16,1.344,2.16,3.456c0,0.696-0.072,1.464-0.216,2.28C935.203,433.087,933.691,435.344,931.651,435.344z"/>
	<path fill="#9D9D9C" d="M948.968,424.141c0.76,0,1.34,0.12,1.9,0.34l1-1.82c-0.88-0.4-1.7-0.62-2.881-0.62
		c-3.461,0-5.941,1.88-6.982,4.741h-1.5l-0.24,1.4h1.36c-0.06,0.36-0.12,0.74-0.14,1.12h-1.42l-0.26,1.4h1.7
		c0.26,2.861,2.24,5.041,5.501,5.041c1.04,0,1.92-0.18,2.801-0.6l-0.44-1.96c-0.64,0.32-1.26,0.46-2.06,0.46
		c-2.12,0-3.181-1.16-3.461-2.941h2.921l0.78-1.4h-3.741c0.02-0.38,0.06-0.76,0.16-1.12h4.161l0.76-1.4h-4.421
		C945.307,425.182,946.868,424.141,948.968,424.141z"/>
	<path fill="#000000" d="M18.35,482.675c-2.07,0-3.87-0.6-5.58-1.86l0.99-1.59c1.38,1.11,2.88,1.62,4.59,1.62
		c2.79,0,4.35-1.71,4.35-4.89v-14.039h1.95v14.07C24.65,480.305,22.43,482.675,18.35,482.675 M205.187,482.645
		c-4.02,0-6.84-2.88-6.84-6.99c0-3.84,2.76-6.93,6.69-6.93c3.69,0,5.88,2.55,5.88,6.42c0,0.42-0.03,0.84-0.09,1.29h-10.62
		c0.3,2.82,2.46,4.5,4.95,4.5c1.86,0,3.03-0.57,4.05-1.62l1.05,1.32C208.907,481.925,207.287,482.645,205.187,482.645
		 M205.007,470.435c-2.46,0-4.38,1.74-4.74,4.38h8.85C209.057,471.995,207.437,470.435,205.007,470.435 M163.968,482.645
		c-4.02,0-6.84-2.88-6.84-6.99c0-3.84,2.76-6.93,6.69-6.93c3.69,0,5.88,2.55,5.88,6.42c0,0.42-0.03,0.84-0.09,1.29h-10.62
		c0.3,2.82,2.46,4.5,4.95,4.5c1.86,0,3.03-0.57,4.05-1.62l1.05,1.32C167.688,481.925,166.068,482.645,163.968,482.645
		 M163.788,470.435c-2.46,0-4.38,1.74-4.74,4.38h8.85C167.838,471.995,166.218,470.435,163.788,470.435 M129.978,482.645
		c-4.02,0-6.84-2.88-6.84-6.99c0-3.84,2.76-6.93,6.69-6.93c3.69,0,5.88,2.55,5.88,6.42c0,0.42-0.03,0.84-0.09,1.29h-10.619
		c0.3,2.82,2.46,4.5,4.95,4.5c1.86,0,3.03-0.57,4.05-1.62l1.05,1.32C133.698,481.925,132.078,482.645,129.978,482.645
		 M129.798,470.435c-2.46,0-4.38,1.74-4.74,4.38h8.85C133.848,471.995,132.228,470.435,129.798,470.435 M73.699,482.645
		c-3.99,0-6.84-2.88-6.84-6.96c0-4.08,2.85-6.96,6.84-6.96c4.05,0,6.9,2.88,6.9,6.96C80.599,479.765,77.749,482.645,73.699,482.645
		 M73.699,470.435c-2.94,0-4.98,2.19-4.98,5.25c0,3.09,2.04,5.25,4.98,5.25c2.97,0,5.04-2.16,5.04-5.25
		C78.739,472.625,76.699,470.435,73.699,470.435 M112.518,482.615c-3.93,0-6.66-2.94-6.66-6.99c0-3.93,2.76-6.84,6.66-6.84
		c2.16,0,4.05,0.96,5.13,2.52c-0.03-1.14-0.06-2.34-0.06-3.6v-6.9h1.83v21.509h-1.41l-0.27-2.37
		C116.658,481.595,114.828,482.615,112.518,482.615 M112.638,470.495c-2.94,0-4.95,2.16-4.95,5.19c0,3.03,2.01,5.19,4.95,5.19
		c3.06,0,5.01-2.19,5.01-5.19C117.648,472.685,115.638,470.495,112.638,470.495 M188.387,482.555c-3.3,0-4.83-2.19-4.83-5.43v-8.07
		h1.83v8.1c0,2.16,0.84,3.69,3.21,3.69c2.64,0,4.2-2.37,4.2-5.19v-6.6h1.83v13.259h-1.41l-0.36-2.31
		C192.077,481.415,190.577,482.555,188.387,482.555 M32.63,482.555c-2.58,0-4.23-1.41-4.23-3.69c0-2.97,2.73-4.68,6.63-4.68
		c0.99,0,1.74,0.03,2.43,0.12v-0.9c0-1.86-1.32-2.79-3.36-2.79c-1.44,0-2.91,0.42-4.38,1.11l-0.63-1.56
		c1.8-0.84,3.51-1.26,5.19-1.26c3.03,0,5.04,1.59,5.04,4.59v8.82h-1.35l-0.33-2.4C36.68,481.505,34.97,482.555,32.63,482.555
		 M35.3,475.715c-3.12,0-4.98,1.08-4.98,3.03c0,1.32,0.96,2.1,2.61,2.1c2.73,0,4.44-1.98,4.53-5.01
		C36.74,475.745,36.17,475.715,35.3,475.715 M216.317,482.315h-1.83l-0.03-21.509h1.83L216.317,482.315 M175.068,482.315h-1.83
		v-13.259h1.38l0.36,1.95c0.75-1.38,2.01-2.22,3.87-2.22c0.84,0,1.56,0.18,2.16,0.45l-0.54,1.62c-0.51-0.18-1.02-0.33-1.77-0.33
		c-2.16,0-3.63,1.53-3.63,4.11V482.315 M151.668,482.315h-1.98v-18.599h-6.27v-1.8h14.519v1.8h-6.27V482.315 M95.479,482.315h-1.83
		v-8.13c0-2.25-0.84-3.69-3.06-3.69c-2.67,0-4.44,1.92-4.44,4.68v7.14h-1.83v-13.259h1.38l0.42,2.25c0.78-1.41,2.4-2.52,4.65-2.52
		c3.09,0,4.71,1.98,4.71,5.43V482.315 M63.319,482.315h-1.83v-8.4c0-2.13-1.08-3.42-2.94-3.42c-2.67,0-4.05,2.43-4.05,4.92v6.9
		h-1.83v-8.43c0-1.83-0.93-3.39-2.94-3.39c-2.7,0-4.08,2.43-4.08,4.92v6.9h-1.83v-13.259h1.38l0.42,2.28
		c0.87-1.62,2.4-2.55,4.32-2.55c2.01,0,3.48,0.99,4.11,2.67c0.87-1.62,2.4-2.67,4.62-2.67c3.03,0,4.65,2.01,4.65,5.22V482.315
		 M72.109,466.205l-0.93-1.08l3.96-3.39l1.2,1.41L72.109,466.205"/>
	<path fill="#9D9D9C" d="M896.203,463.518l-5.496,3l0.984,1.992l2.136-1.056l0.6-0.312c-0.12,0.432-0.192,0.864-0.288,1.32
		l-1.992,11.041h2.808l2.808-15.985z M910.435,463.47h-1.608l-10.729,11.569l-0.24,1.464h7.681l-0.504,3h2.592l0.504-3h1.848
		l0.408-2.28h-1.848z M905.995,474.247h-3.048c-0.408,0-0.816,0-1.344,0.048c0.432-0.384,0.744-0.72,1.056-1.08l3.336-3.648
		c0.36-0.36,0.696-0.72,1.08-1.224c-0.144,0.624-0.24,1.176-0.336,1.68z M913.506,476.48c-0.816,0-1.584,0.504-1.776,1.464
		c-0.024,0.12-0.024,0.24-0.024,0.336c0,0.912,0.648,1.512,1.392,1.512h0.12c-0.36,1.008-1.032,1.776-2.04,2.544l0.576,0.696
		c1.68-1.128,2.808-2.64,3.216-4.296c0.072-0.24,0.096-0.48,0.096-0.696C915.067,477.008,914.37,476.48,913.506,476.48z
		 M919.578,463.638l-0.432,2.424h5.401c0.384,0,0.792,0,1.2-0.024c-0.192,0.336-0.408,0.648-0.576,0.984l-6.889,12.481h2.976
		l8.137-14.833l0.192-1.032z M939.451,466.063l0.432-2.424h-7.993l-2.352,8.113l0.408,0.312c0.888-0.312,1.8-0.504,2.736-0.504
		c1.776,0,3.048,0.792,3.048,2.328c0,0.192,0,0.384-0.048,0.6c-0.336,1.848-1.872,2.784-3.672,2.784
		c-1.44,0-2.472-0.528-3.048-1.392l-1.68,1.848c0.984,1.272,2.688,2.088,4.8,2.088c3.288,0,5.832-1.896,6.337-4.92
		c0.072-0.432,0.12-0.816,0.12-1.2c0-2.736-1.944-4.2-4.848-4.2c-0.384,0-0.72,0.024-1.032,0.048l1.056-3.48z"/>
	<path fill="#9D9D9C" d="M948.968,466.141c0.76,0,1.34,0.12,1.9,0.34l1-1.82c-0.88-0.4-1.7-0.62-2.881-0.62
		c-3.461,0-5.941,1.88-6.982,4.741h-1.5l-0.24,1.4h1.36c-0.06,0.36-0.12,0.74-0.14,1.12h-1.42l-0.26,1.4h1.7
		c0.26,2.861,2.24,5.041,5.501,5.041c1.04,0,1.92-0.18,2.801-0.6l-0.44-1.96c-0.64,0.32-1.26,0.46-2.06,0.46
		c-2.12,0-3.181-1.16-3.461-2.941h2.921l0.78-1.4h-3.741c0.02-0.38,0.06-0.76,0.16-1.12h4.161l0.76-1.4h-4.421
		C945.307,467.182,946.868,466.141,948.968,466.141z"/>
</g>
</svg>
